<svg xmlns="http://www.w3.org/2000/svg" width="279" height="89" fill="none" viewBox="0 0 279 89">
<!-- SVG created with Arrow, by QuiverAI (https://quiver.ai) -->
  <path d="m278.1 0h-277.2v88.81h277.2v-88.81z" fill="url(#paint0_linear_1225_7275)"/>
  <path d="m237.7 5.19h-194.1c-20.45 0-37.06 16.84-37.06 38.31v0.85c0 21.47 16.61 38.31 37.06 38.31h194.1c21.2 0 38.12-16.93 38.12-38.13v-1.21c0-21.2-16.92-38.13-38.12-38.13z" fill="url(#paint1_radial_1225_7275)"/>
  <path d="m43.63 14.61h194.1c17.09 0 29.99 14.04 29.99 29.9v0.01c0 16.35-13.18 29.53-29.53 29.53h-194.5c-16.11 0-30.65-13.44-30.65-29.96v-0.17c0-15.86 13.55-29.31 30.65-29.31z" fill="#00D0E0"/>
  <path d="m237.2 20.2h-193.4c-12.94 0-23.42 10.98-23.42 23.92v0.41c0 12.41 10.97 22.43 23.38 22.43h193.4c12.69 0 22.54-10.32 22.54-22.38v-0.96c0-12.06-9.85-23.42-22.54-23.42z" stroke="#58F8FA" stroke-miterlimit="10" stroke-width="4.419"/>
  <defs>
    <linearGradient id="paint0_linear_1225_7275" x1="139.5" x2="139.5" y2="88.81" gradientUnits="userSpaceOnUse">
      <stop stop-color="#F0F5FE" offset="0"/>
      <stop stop-color="#F0F5FE" stop-opacity=".62" offset=".52"/>
      <stop stop-color="#F0F5FE" stop-opacity="0" offset="1"/>
    </linearGradient>
    <radialGradient id="paint1_radial_1225_7275" cx="0" cy="0" r="1" gradientTransform="translate(141.2 43.92) scale(137.3 88.02)" gradientUnits="userSpaceOnUse">
      <stop stop-color="#006AFF" stop-opacity=".61" offset="0"/>
      <stop stop-color="#6D44D5" stop-opacity=".72" offset=".54"/>
      <stop stop-color="#CF32FF" stop-opacity=".85" offset="1"/>
    </radialGradient>
  </defs>
</svg>