<svg xmlns="http://www.w3.org/2000/svg" width="25" height="25" fill="none" viewBox="0 0 25 25">
<!-- SVG created with Arrow, by QuiverAI (https://quiver.ai) -->
  <path d="m21.68 5.94h-18.36c-1.33 0-2.34 1.21-2.34 2.47v8.26c0 1.25 1.06 2.31 2.28 2.31h18.45c1.25 0 2.34-1.12 2.34-2.36v-8.25c0-1.3-1.03-2.43-2.37-2.43zm1.91 10.68c0 1.07-0.93 1.9-1.92 1.9h-18.41c-0.98 0-1.82-0.87-1.82-1.89v-8.22c0-1.03 0.85-2.02 1.88-2.02h18.36c1.1 0 1.91 0.98 1.91 1.98v8.25z" fill="url(#paint0_linear_3813_11774)"/>
  <path d="m21.71 6.31h-18.45c-1.1 0-2.02 1-2.02 2.14v8.19c0 1.14 0.96 2 1.97 2h18.5c1.14 0 2.04-0.98 2.04-2.03v-8.24c0-1.1-0.88-2.06-2.04-2.06zm1.65 10.3c0 0.91-0.82 1.64-1.69 1.64h-18.41c-0.83 0-1.62-0.78-1.62-1.65v-8.15c0-0.89 0.75-1.74 1.62-1.74h18.45c0.95 0 1.65 0.84 1.65 1.66v8.24z" fill="url(#paint1_linear_3813_11774)"/>
  <path d="m21.92 7.16h-18.81c-0.75 0-1.37 0.65-1.37 1.45v7.86c0 0.77 0.62 1.29 1.32 1.29h18.9c0.77 0 1.31-0.62 1.31-1.28v-7.91c0-0.76-0.56-1.41-1.35-1.41zm0.87 9.26c0 0.51-0.4 0.86-0.87 0.86h-18.79c-0.48 0-0.9-0.34-0.9-0.84v-7.83c0-0.53 0.38-1.02 0.88-1.02h18.81c0.54 0 0.87 0.51 0.87 0.98v7.85z" fill="url(#paint2_linear_3813_11774)"/>
  <path d="m21.91 7.6h-18.74c-0.51 0-0.94 0.43-0.94 1.06v7.72c0 0.53 0.43 0.89 0.91 0.89h18.74c0.51 0 0.91-0.43 0.91-0.9v-7.77c0-0.53-0.35-1-0.88-1z" fill="url(#paint3_linear_3813_11774)"/>
  <defs>
    <linearGradient id="paint0_linear_3813_11774" x1=".9795" x2="24.05" y1="12.46" y2="12.46" gradientUnits="userSpaceOnUse">
      <stop stop-color="#22D3FD" offset="0"/>
      <stop stop-color="#B200E6" offset="1"/>
    </linearGradient>
    <linearGradient id="paint1_linear_3813_11774" x1="1.24" x2="23.75" y1="12.48" y2="12.48" gradientUnits="userSpaceOnUse">
      <stop stop-color="#22D3FD" offset="0"/>
      <stop stop-color="#B200E6" offset="1"/>
    </linearGradient>
    <linearGradient id="paint2_linear_3813_11774" x1="1.736" x2="23.27" y1="12.46" y2="12.46" gradientUnits="userSpaceOnUse">
      <stop stop-color="#2274D3" offset="0"/>
      <stop stop-color="#B200E6" offset="1"/>
    </linearGradient>
    <linearGradient id="paint3_linear_3813_11774" x1="12.51" x2="12.51" y1="7.596" y2="17.27" gradientUnits="userSpaceOnUse">
      <stop stop-color="#F273E2" offset="0"/>
      <stop stop-color="#D939C5" offset=".48"/>
      <stop stop-color="#CC26AC" offset="1"/>
    </linearGradient>
  </defs>
</svg>