<svg xmlns="http://www.w3.org/2000/svg" width="200" height="200" fill="none" viewBox="0 0 200 200">
<!-- SVG created with Arrow, by QuiverAI (https://quiver.ai) -->
  <path d="m181.9 41.46c-10.47-2.64-18.67-5.73-27.14-9.25-1.45-9.12-4.83-17.55-11.87-24.91-5.77 7.47-8.03 10.36-12.68 13.4-12.4-5.93-21.92-11.95-30.21-18.53-8.29 6.58-17.81 12.6-30.2 18.53-4.66-3.04-6.92-5.93-12.85-13.4-6.88 7.18-10.37 15.61-11.82 24.89-8.47 3.92-15.07 6.63-27.46 9.27-1.77 30.25 1.28 64.53 15.55 94.6 13.57 28.67 45 51.75 66.78 61.21 21.78-10.76 53.22-32.54 66.78-61.21 11.95-25.42 16.15-57.83 15.12-94.6z" fill="url(#paint0_linear_1807_1990)"/>
  <path d="m179.8 43.09c-9.75-2.71-17.72-6.07-25.61-9.88l-0.32-0.17c-1.61-9.83-5.07-18.29-10.99-23.01l-11.8 13.18c-12.32-6.1-23.31-12.55-31.09-18.27-7.78 5.72-18.77 12.17-31.09 18.27l-11.96-13.18c-5.93 5.46-9.39 13.92-10.83 22.99l-0.31 0.15c-7.9 3.84-14.39 6.65-25.61 9.45-1.44 30.6 1.93 60.92 14.32 90.23 12 27.08 40.28 50.33 65.48 60.64 23.05-11.48 53.48-33.42 65.48-60.64 11.71-27.86 14.93-55.76 14.33-89.76z" fill="url(#paint1_linear_1807_1990)"/>
  <path d="m173.9 47.36-17.73-7.24-0.09 2.89 16.45 6.3c0.74 18.5-1.62 42.9-6.37 59.5l1.24 3.36c5.94-18.86 7.3-43.26 6.5-64.81z" fill="url(#paint2_linear_1807_1990)"/>
  <path d="m25.29 46.82 18.53-7.35 0.09 2.89-16.45 6.3c-0.74 18.76 1.29 41.39 6.04 58.75l-1.49 3.36c-5.94-18.56-7.52-42.14-6.72-63.95z" fill="url(#paint3_linear_1807_1990)"/>
  <path d="m99.77 12.69-24.88 13.28 1.13 1.74 23.75-13.89 23.75 13.89 1.59-1.48-25.34-13.54z" fill="url(#paint4_linear_1807_1990)"/>
  <path d="m142.9 11.35-25.17 25.52-5.5-1.33-8.29 12.51v9.97l-4.54-4.34-4.8 4.34v-9.97l-7.18-13.06-5.78 0.96-24.52-25.53c-10.1 11.25-12.46 27.03-11 38.79l-0.6 5.2 2.21 0.65-2.36-1.38 2.95 16.18-12.7 27.22 8.14-2.97-11.74 24.63 11.59-3.63-0.9 2.9c-0.6 7.24 1.05 16.06 4.57 25.04 1.45-3.92 2.5-6.08 4.41-9.31 3.38 14.99 17.41 27.34 17.23 26.67v-9.3c5.78 9.97 10.25 16.8 17.73 23.8l-0.15-8.81c4.8 7.11 7.46 10.51 13.03 16.5 5.79-6.26 9.17-10.18 13.97-17.59l-0.45 9.9c9.7-10.18 14.8-17.18 18.32-24.31v9.81c8.29-9.81 13.24-17.15 15.75-27.7l4.72 10.98c4.1-10.18 4.98-18.08 3.68-28.05l12.4 3.1-11.43-24.63 7.48 2.63-12.39-26.61 2.24-17.03-2.59 1.96c2.94-16.44 0.43-31.98-8.33-43.71z" fill="url(#paint5_linear_1807_1990)" stroke="url(#paint6_linear_1807_1990)" stroke-miterlimit="10" stroke-width="1.5"/>
  <path d="m55.98 20.21c-5.93 7.77-6.81 18.95-5.1 29.93l1.59 2.4 0.8-4.22 3.68 13.42-4.94 5.37-4.14-11.08 4.29 3.68-3.09-13.42c-0.6-8.98 0.6-18.24 6.91-26.08l11.14 16.8 1.54 4.91-8.59-4.91 6.55 8.98-5.5-0.73c1.91 4.35 4.57 8.42 7.03 10.07l10.69-9.11c-3.83-8.07-12.42-19.58-22.86-26.01z" fill="url(#paint7_linear_1807_1990)" stroke="url(#paint8_linear_1807_1990)" stroke-miterlimit="10" stroke-width=".75"/>
  <path d="m143.3 20.21c5.35 8.31 6.22 17.57 4.37 28.72l-0.95 4.75-2.19-5.36-3.68 12.75 5.22 6.04 5.54-12.05-3.39 2.69 1.6-11.53c0.74-9.97-0.95-18.31-6.52-28.49l-15.53 23.07 8.74-3.79-5.29 8.98 6.49-0.87-5.62 8.56-11.66-8.56 18.63-26" fill="url(#paint9_linear_1807_1990)"/>
  <path d="m143.3 20.21c5.35 8.31 6.22 17.57 4.37 28.72l-0.95 4.75-2.19-5.36-3.68 12.75 4.68 5.37 6.6-12.76-2.76 2.08 1.75-9.54c1.19-9.97-0.7-19.99-7.82-31.73l-23.17 31.37-1.86-1.55c2.31-7.13 12.95-19.45 25.03-24.1z" stroke="url(#paint10_linear_1807_1990)" stroke-miterlimit="10" stroke-width=".75"/>
  <path d="m82.72 36.71 6.75 10.98v10.63l-6.9 8.79-3.38-4.33-10.78-4.46 15.37-11.3-2.66-8.29 1.6-2.02z" fill="url(#paint11_linear_1807_1990)" stroke="url(#paint12_linear_1807_1990)" stroke-miterlimit="10" stroke-width=".75"/>
  <path d="m99.41 56.57 14.5 12.19-10.39 10.69-0.75 10.91 5.37 6.45 2.66-4.9 2.81-3.85 8.49-1.61 7.78-0.27 5.93-8.02-13.71-0.6-3.14-0.27-2.11-9.78-10.39-8.88v-10.31l7.15-12.19-4.24-0.8-20.46-0.27 5 11.96 0.3 11.3 5.2-1.75z" fill="url(#paint13_linear_1807_1990)" stroke="url(#paint14_linear_1807_1990)" stroke-miterlimit="10" stroke-width=".75"/>
  <path d="m136 63.85 11.5 8.56 7.17 16.72-11.89-9.97-3.31 4.25 10.43 11.6 11.84 18.98-16.68-12.65-1.98-3.52-5.72-11.37-2.61 10.1-6.23 8.91-6.89 1.55-3.28 7.58 2.81 15.26-3.68 12.19-5.35 3.99-12.55-1-11.8 1-5.5-3.99-3.38-11.58 3.86-14.39-4.6-8.32-6.6-1.68-5.93-8.25-1.54-11.37-7.17 11.37-13.66 15.3-7.47 2.32 11.97-24.01-5.42 2.08 10.84-22.37 11.51-7.29 6.6 2.19-7.05 9.64 12.81 1.14 4.75-9.17 17.78-11.08 17.31 11.55 3.68-6.01 11.43-3.35-16.71-11.8 0.8-4.95 3.02-5 8.02-6.9" stroke="url(#paint15_linear_1807_1990)" stroke-miterlimit="10" stroke-width="1.5"/>
  <path d="m63.11 83.41-15.69 11.6" stroke="url(#paint16_linear_1807_1990)" stroke-miterlimit="10" stroke-width=".75"/>
  <path d="m139 83.41 11.69 8.69" stroke="url(#paint17_linear_1807_1990)" stroke-miterlimit="10" stroke-width=".75"/>
  <path d="m90.71 97.82-2.07 2.89 1.11 5.02-2.66 15.13v5.89l3.62-3.29 4.5-1.32h8.6l4 1.05 2.81 3.56v-4.61l-2.96-16.68 2.01-6.5-5.45-6.93-4 5.79-3.85-6.39-5.66 6.39z" fill="url(#paint18_linear_1807_1990)" stroke="url(#paint19_linear_1807_1990)" stroke-miterlimit="10" stroke-width=".75"/>
  <path d="m92.01 126.2-0.8 4.11 0.45 3.88 3.38 2.09 2.88 1.42v3.85l-7.48 1.15-6.39-2.9-3.83-9.02 8.42-26.95-2.41-9.97-6.89-7.96-13.17-3.11-3.06-5.12 13.71 0.54 8.29 8.29 4.28 8.96 4.52-6.69-0.3-7.95-9.38-11.55 15.13-11.88 16.22 12.72 1.73 8.57-10.8 9.69v4.92" stroke="url(#paint20_linear_1807_1990)" stroke-miterlimit="10" stroke-width="1.5"/>
  <path d="m112.4 96.75c2.37-1.83 3.59-1.87 6.68-1.87 4.55 0 7.44-5.75 8.54-7.76-2.5-0.27-6.55 0-9.3 1.6-2.64 1.54-4.9 5.09-5.92 8.03z" fill="url(#paint21_linear_1807_1990)" stroke="url(#paint22_linear_1807_1990)" stroke-miterlimit="10" stroke-width=".75"/>
  <path d="m72.52 87.52 3.75 7.49 4.7 0.6c2.21 0 3.26 0.2 4.96 1.47-1.05-3.17-2.96-6.89-5.86-8.36-2.36-1.13-4.36-1.4-7.55-1.2z" fill="url(#paint23_linear_1807_1990)" stroke="url(#paint24_linear_1807_1990)" stroke-miterlimit="10" stroke-width=".75"/>
  <path d="m92.56 126.8 1.35-1.61h8.71l3.06 1.61 0.45 2.37-2.01 1.34h-9.56l-2.55-1.34 0.55-2.37z" fill="url(#paint25_linear_1807_1990)" stroke="url(#paint26_linear_1807_1990)" stroke-miterlimit="10" stroke-width=".75"/>
  <path d="m90.61 134.4 2.4 0.6h2.36c0.55-1.34-0.56-2.41-3.61-2.27l-1.15 1.67z" fill="url(#paint27_linear_1807_1990)" stroke="url(#paint28_linear_1807_1990)" stroke-miterlimit="10" stroke-width=".75"/>
  <path d="m109 134.4-2.41 0.6h-2.36c-0.55-1.34 0.56-2.41 3.61-2.27l1.16 1.67z" fill="url(#paint29_linear_1807_1990)" stroke="url(#paint30_linear_1807_1990)" stroke-miterlimit="10" stroke-width=".75"/>
  <path d="m111.9 148.7-1.04 12.89c-3.91 6.39-8.1 11.69-11.3 15.19-3.75-4.05-8.31-9.57-12.11-15.73l-1.8-12.35-2.01-1.07 0.9 19.98-0.27 3.79c-7.62-6.7-16.08-19.28-17.61-25.4v10.18c-6.4-6.48-12.33-17.08-13.84-26.09-3.51 3.99-4.71 7.53-5.72 9.35-2.5-8.34-3.01-18.61-0.25-27.23l9.4-9.33 1.6 3.36-7.79 9.97-2.5 12.55c3.26-7.46 6.32-11.52 10.99-15.67l-1.4-6.11-1.05-8.32 4.81-10.43 2.85 8.55 7.05 9.46 7.34 1.81 3.01 7.56-3.46 9.9-1.75-6.39-12.8-4.69-4.9-15.77 2.91-7.06 3.06 6.19 6.59 9.19 7.35 1.61 3 7.02-2.76 14.21 7.05 4.96" stroke="url(#paint31_linear_1807_1990)" stroke-miterlimit="10" stroke-width="1.5"/>
  <path d="m113.7 103.2 3.85 11.78 3.36 4.12 1.19 1.71 1.8-2.85 6.3-7.51-5 5.54-4.09-1.45 2.21-6.98 6.7-1.54 7-9.93 1.55-5.04 2.46 7.59-5.42 16.75-8.53 5.42-5.97 11.85 0.99-5.39-5.9-14.2" fill="url(#paint32_linear_1807_1990)"/>
  <path d="m144.3 104.7 8.29 8.46c1.19 7.41 0.65 14.6-0.9 22.5l-3.45-8.87c-3.09-5.22-5.3-7.87-8.49-10.71l1.17-3.8 6.75 5.77 4.01 8.74" stroke="url(#paint33_linear_1807_1990)" stroke-miterlimit="10" stroke-width="1.5"/>
  <path d="m128.4 125.1 3.75 5.99v9.21l6.42-5.93v-8.3" stroke="url(#paint34_linear_1807_1990)" stroke-miterlimit="10" stroke-width="1.5"/>
  <path d="m124.8 142.5-3.66 9.5v7.19" stroke="url(#paint35_linear_1807_1990)" stroke-miterlimit="10" stroke-width="1.5"/>
  <path d="m71.32 126.1-3.33 6.6v9.94l-6.87-8.24v-7.09" stroke="url(#paint36_linear_1807_1990)" stroke-miterlimit="10" stroke-width="1.5"/>
  <path d="m74.81 143.7 3.8 5.77v9.47" stroke="url(#paint37_linear_1807_1990)" stroke-miterlimit="10" stroke-width="1.5"/>
  <path d="m110.7 149.1-3.66 6.81-7.44 12.07-11.88-13" fill="url(#paint38_linear_1807_1990)"/>
  <path d="m49.72 146.4c11.9 16.76 31.35 32.4 49.87 42.71 16.19-10.51 34.32-23.47 49.72-42.71" stroke="url(#paint39_linear_1807_1990)" stroke-miterlimit="10" stroke-width="1.5"/>
  <path d="m35.75 120.8 2.46 0.61 3.9 17.26" stroke="url(#paint40_linear_1807_1990)" stroke-miterlimit="10" stroke-width="1.5"/>
  <path d="m163.4 121.1-6 15.1" stroke="url(#paint41_linear_1807_1990)" stroke-miterlimit="10" stroke-width="1.5"/>
  <path d="m84.52 53.68v-3.54" stroke="url(#paint42_linear_1807_1990)" stroke-miterlimit="10" stroke-width=".75"/>
  <path d="m84.52 57.34c1.36 0 2.12-1.03 2.12-1.81 0-1.25-0.93-1.85-2.12-1.85s-1.9 0.8-1.9 1.85c0 1.04 0.86 1.81 1.9 1.81z" stroke="url(#paint43_linear_1807_1990)" stroke-miterlimit="10" stroke-width=".75"/>
  <path d="m115.2 48.02v5.66" stroke="url(#paint44_linear_1807_1990)" stroke-miterlimit="10" stroke-width=".75"/>
  <path d="m115.2 57.01c1.36 0 2.12-0.9 2.12-1.78 0-1.32-0.94-1.92-2.12-1.92-1.19 0-1.9 0.9-1.9 1.92 0 1.01 0.86 1.78 1.9 1.78z" stroke="url(#paint45_linear_1807_1990)" stroke-miterlimit="10" stroke-width=".75"/>
  <path d="m55.18 78.02c1.6 0 2.18-1.24 2.18-1.94 0-1.31-0.94-1.91-1.85-1.91-1.31 0-1.97 0.94-1.97 1.91 0 1.14 0.8 1.94 1.64 1.94z" stroke="url(#paint46_linear_1807_1990)" stroke-miterlimit="10" stroke-width=".75"/>
  <path d="m144.7 78.02c1.36 0 2.12-1 2.12-1.94 0-1.31-0.93-1.91-2.12-1.91s-1.9 0.9-1.9 1.91 0.86 1.94 1.9 1.94z" stroke="url(#paint47_linear_1807_1990)" stroke-miterlimit="10" stroke-width=".75"/>
  <path d="m46.66 105.1c1.36 0 1.96-1.1 1.96-1.88 0-1.31-0.93-1.91-1.96-1.91s-1.78 0.9-1.78 1.91c0 1 0.73 1.88 1.78 1.88z" stroke="url(#paint48_linear_1807_1990)" stroke-miterlimit="10" stroke-width=".75"/>
  <path d="m152.9 105.1c1.36 0 1.96-1.1 1.96-1.88 0-1.31-0.94-1.91-1.96-1.91-1.19 0-1.9 0.9-1.9 1.91 0 1 0.86 1.88 1.9 1.88z" stroke="url(#paint49_linear_1807_1990)" stroke-miterlimit="10" stroke-width=".75"/>
  <path d="m61.12 126.3c1.36 0 2.12-1.1 2.12-1.98 0-1.31-0.93-1.91-2.12-1.91-1.18 0-1.89 0.9-1.89 1.91s0.85 1.98 1.89 1.98z" stroke="url(#paint50_linear_1807_1990)" stroke-miterlimit="10" stroke-width=".75"/>
  <path d="m73.52 143.4c1.36 0 1.96-1.1 1.96-1.88 0-1.31-0.94-1.91-1.96-1.91-1.19 0-1.9 0.9-1.9 1.91s0.85 1.88 1.9 1.88z" stroke="url(#paint51_linear_1807_1990)" stroke-miterlimit="10" stroke-width=".75"/>
  <path d="m126.3 143.4c1.36 0 1.95-1.1 1.95-1.88 0-1.31-0.93-1.91-1.95-1.91-1.19 0-1.9 0.9-1.9 1.91s0.85 1.88 1.9 1.88z" stroke="url(#paint52_linear_1807_1990)" stroke-miterlimit="10" stroke-width=".75"/>
  <path d="m138.2 126.3c1.36 0 1.96-1.1 1.96-1.98 0-1.31-0.94-1.91-1.96-1.91-1.19 0-1.9 0.9-1.9 1.91s0.85 1.98 1.9 1.98z" stroke="url(#paint53_linear_1807_1990)" stroke-miterlimit="10" stroke-width=".75"/>
  <path d="m89.06 148.7 2.3 2.81 8 2.02 8.45-2.02 2.81-2.81" stroke="url(#paint54_linear_1807_1990)" stroke-miterlimit="10" stroke-width="1.5"/>
  <defs>
    <linearGradient id="paint0_linear_1807_1990" x1="17.44" x2="182.2" y1="99.72" y2="99.72" gradientUnits="userSpaceOnUse">
      <stop stop-color="#00D1FF" offset="0"/>
      <stop stop-color="#2389E1" offset=".13"/>
      <stop stop-color="#3D49B6" offset=".27"/>
      <stop stop-color="#182A77" offset=".38"/>
      <stop stop-color="#09185B" offset=".47"/>
      <stop stop-color="#031250" offset=".53"/>
      <stop stop-color="#081558" offset=".6"/>
      <stop stop-color="#171E6F" offset=".71"/>
      <stop stop-color="#302CA4" offset=".86"/>
      <stop stop-color="#4D3CC9" offset="1"/>
    </linearGradient>
    <linearGradient id="paint1_linear_1807_1990" x1="19.61" x2="180" y1="98.76" y2="98.76" gradientUnits="userSpaceOnUse">
      <stop stop-color="#0098D0" offset="0"/>
      <stop stop-color="#0B56B1" offset=".11"/>
      <stop stop-color="#122699" offset=".2"/>
      <stop stop-color="#15158F" offset=".25"/>
      <stop stop-color="#0E1A6C" offset=".58"/>
      <stop stop-color="#091854" offset=".84"/>
      <stop stop-color="#07174B" offset="1"/>
    </linearGradient>
    <linearGradient id="paint2_linear_1807_1990" x1="156" x2="174" y1="76.15" y2="76.15" gradientUnits="userSpaceOnUse">
      <stop stop-color="#FF7BFF" offset="0"/>
      <stop stop-color="#B800E1" offset="1"/>
    </linearGradient>
    <linearGradient id="paint3_linear_1807_1990" x1="25.05" x2="43.98" y1="75.07" y2="75.07" gradientUnits="userSpaceOnUse">
      <stop stop-color="#00D1FF" offset="0"/>
      <stop stop-color="#7ef" offset="1"/>
    </linearGradient>
    <linearGradient id="paint4_linear_1807_1990" x1="74.83" x2="125.2" y1="20.2" y2="20.2" gradientUnits="userSpaceOnUse">
      <stop stop-color="#7ef" offset="0"/>
      <stop stop-color="#FEADFF" offset="1"/>
    </linearGradient>
    <linearGradient id="paint5_linear_1807_1990" x1="31.85" x2="168.1" y1="96.72" y2="96.72" gradientUnits="userSpaceOnUse">
      <stop stop-color="#00D1FF" offset="0"/>
      <stop stop-color="#2675EB" offset=".51"/>
      <stop stop-color="#9E00D0" offset="1"/>
    </linearGradient>
    <linearGradient id="paint6_linear_1807_1990" x1="31.04" x2="168.8" y1="96.35" y2="96.35" gradientUnits="userSpaceOnUse">
      <stop stop-color="#00D1FF" offset="0"/>
      <stop stop-color="#2675EB" offset=".51"/>
      <stop stop-color="#9E00D0" offset="1"/>
    </linearGradient>
    <linearGradient id="paint7_linear_1807_1990" x1="48.41" x2="78.91" y1="37.78" y2="37.78" gradientUnits="userSpaceOnUse">
      <stop stop-color="#00D1FF" offset="0"/>
      <stop stop-color="#7ef" offset="1"/>
    </linearGradient>
    <linearGradient id="paint8_linear_1807_1990" x1="48.09" x2="79.23" y1="37.78" y2="37.78" gradientUnits="userSpaceOnUse">
      <stop stop-color="#00D1FF" offset="0"/>
      <stop stop-color="#7ef" offset="1"/>
    </linearGradient>
    <linearGradient id="paint9_linear_1807_1990" x1="118.3" x2="150.8" y1="39.08" y2="39.08" gradientUnits="userSpaceOnUse">
      <stop stop-color="#2675EB" offset="0"/>
      <stop stop-color="#9E00D0" offset="1"/>
    </linearGradient>
    <linearGradient id="paint10_linear_1807_1990" x1="117.9" x2="150.9" y1="39.19" y2="39.19" gradientUnits="userSpaceOnUse">
      <stop stop-color="#2675EB" offset="0"/>
      <stop stop-color="#9E00D0" offset="1"/>
    </linearGradient>
    <linearGradient id="paint11_linear_1807_1990" x1="68.1" x2="89.79" y1="51.79" y2="51.79" gradientUnits="userSpaceOnUse">
      <stop stop-color="#00D1FF" offset="0"/>
      <stop stop-color="#7ef" offset="1"/>
    </linearGradient>
    <linearGradient id="paint12_linear_1807_1990" x1="67.77" x2="90.11" y1="51.79" y2="51.79" gradientUnits="userSpaceOnUse">
      <stop stop-color="#00D1FF" offset="0"/>
      <stop stop-color="#7ef" offset="1"/>
    </linearGradient>
    <linearGradient id="paint13_linear_1807_1990" x1="92.91" x2="130.2" y1="65.94" y2="65.94" gradientUnits="userSpaceOnUse">
      <stop stop-color="#2675EB" offset="0"/>
      <stop stop-color="#9E00D0" offset="1"/>
    </linearGradient>
    <linearGradient id="paint14_linear_1807_1990" x1="92.59" x2="130.5" y1="65.94" y2="65.94" gradientUnits="userSpaceOnUse">
      <stop stop-color="#2675EB" offset="0"/>
      <stop stop-color="#9E00D0" offset="1"/>
    </linearGradient>
    <linearGradient id="paint15_linear_1807_1990" x1="34.93" x2="162.5" y1="93.68" y2="93.68" gradientUnits="userSpaceOnUse">
      <stop stop-color="#00D1FF" offset="0"/>
      <stop stop-color="#2675EB" offset=".51"/>
      <stop stop-color="#9E00D0" offset="1"/>
    </linearGradient>
    <linearGradient id="paint16_linear_1807_1990" x1="47.1" x2="63.43" y1="89.21" y2="89.21" gradientUnits="userSpaceOnUse">
      <stop stop-color="#00D1FF" offset="0"/>
      <stop stop-color="#7ef" offset="1"/>
    </linearGradient>
    <linearGradient id="paint17_linear_1807_1990" x1="138.7" x2="151" y1="87.75" y2="87.75" gradientUnits="userSpaceOnUse">
      <stop stop-color="#2675EB" offset="0"/>
      <stop stop-color="#9E00D0" offset="1"/>
    </linearGradient>
    <linearGradient id="paint18_linear_1807_1990" x1="85.88" x2="110.8" y1="106.1" y2="106.1" gradientUnits="userSpaceOnUse">
      <stop stop-color="#00D1FF" offset="0"/>
      <stop stop-color="#2675EB" offset=".51"/>
      <stop stop-color="#9E00D0" offset="1"/>
    </linearGradient>
    <linearGradient id="paint19_linear_1807_1990" x1="85.56" x2="111.1" y1="106.1" y2="106.1" gradientUnits="userSpaceOnUse">
      <stop stop-color="#00D1FF" offset="0"/>
      <stop stop-color="#2675EB" offset=".51"/>
      <stop stop-color="#9E00D0" offset="1"/>
    </linearGradient>
    <linearGradient id="paint20_linear_1807_1990" x1="62.37" x2="118" y1="100.1" y2="100.1" gradientUnits="userSpaceOnUse">
      <stop stop-color="#00D1FF" offset="0"/>
      <stop stop-color="#2675EB" offset=".51"/>
      <stop stop-color="#9E00D0" offset="1"/>
    </linearGradient>
    <linearGradient id="paint21_linear_1807_1990" x1="112.1" x2="127.9" y1="91.06" y2="91.06" gradientUnits="userSpaceOnUse">
      <stop stop-color="#FBA1FF" offset="0"/>
      <stop stop-color="#FF58F0" offset="1"/>
    </linearGradient>
    <linearGradient id="paint22_linear_1807_1990" x1="111.7" x2="128.3" y1="91.06" y2="91.06" gradientUnits="userSpaceOnUse">
      <stop stop-color="#FBA1FF" offset="0"/>
      <stop stop-color="#FF58F0" offset="1"/>
    </linearGradient>
    <linearGradient id="paint23_linear_1807_1990" x1="72.03" x2="86.23" y1="92.3" y2="92.3" gradientUnits="userSpaceOnUse">
      <stop stop-color="#77FFFE" offset="0"/>
      <stop stop-color="#7ef" offset="1"/>
    </linearGradient>
    <linearGradient id="paint24_linear_1807_1990" x1="71.71" x2="86.55" y1="92.3" y2="92.3" gradientUnits="userSpaceOnUse">
      <stop stop-color="#77FFFE" offset="0"/>
      <stop stop-color="#7ef" offset="1"/>
    </linearGradient>
    <linearGradient id="paint25_linear_1807_1990" x1="91.68" x2="106.5" y1="127.8" y2="127.8" gradientUnits="userSpaceOnUse">
      <stop stop-color="#031250" offset="0"/>
      <stop stop-color="#09185B" offset=".53"/>
      <stop stop-color="#182A77" offset="1"/>
    </linearGradient>
    <linearGradient id="paint26_linear_1807_1990" x1="91.36" x2="106.8" y1="127.8" y2="127.8" gradientUnits="userSpaceOnUse">
      <stop stop-color="#031250" offset="0"/>
      <stop stop-color="#09185B" offset=".53"/>
      <stop stop-color="#182A77" offset="1"/>
    </linearGradient>
    <linearGradient id="paint27_linear_1807_1990" x1="90.33" x2="95.65" y1="133.9" y2="133.9" gradientUnits="userSpaceOnUse">
      <stop stop-color="#031250" offset="0"/>
      <stop stop-color="#09185B" offset=".53"/>
      <stop stop-color="#182A77" offset="1"/>
    </linearGradient>
    <linearGradient id="paint28_linear_1807_1990" x1="90.01" x2="95.97" y1="133.9" y2="133.9" gradientUnits="userSpaceOnUse">
      <stop stop-color="#031250" offset="0"/>
      <stop stop-color="#09185B" offset=".53"/>
      <stop stop-color="#182A77" offset="1"/>
    </linearGradient>
    <linearGradient id="paint29_linear_1807_1990" x1="103.7" x2="109.3" y1="133.9" y2="133.9" gradientUnits="userSpaceOnUse">
      <stop stop-color="#031250" offset="0"/>
      <stop stop-color="#09185B" offset=".53"/>
      <stop stop-color="#182A77" offset="1"/>
    </linearGradient>
    <linearGradient id="paint30_linear_1807_1990" x1="103.4" x2="109.6" y1="133.9" y2="133.9" gradientUnits="userSpaceOnUse">
      <stop stop-color="#031250" offset="0"/>
      <stop stop-color="#09185B" offset=".53"/>
      <stop stop-color="#182A77" offset="1"/>
    </linearGradient>
    <linearGradient id="paint31_linear_1807_1990" x1="43.97" x2="122.4" y1="130.2" y2="130.2" gradientUnits="userSpaceOnUse">
      <stop stop-color="#00D1FF" offset="0"/>
      <stop stop-color="#2675EB" offset=".51"/>
      <stop stop-color="#9E00D0" offset="1"/>
    </linearGradient>
    <linearGradient id="paint32_linear_1807_1990" x1="113.4" x2="138.9" y1="110.7" y2="110.7" gradientUnits="userSpaceOnUse">
      <stop stop-color="#2675EB" offset="0"/>
      <stop stop-color="#9E00D0" offset="1"/>
    </linearGradient>
    <linearGradient id="paint33_linear_1807_1990" x1="139.3" x2="153.4" y1="119.9" y2="119.9" gradientUnits="userSpaceOnUse">
      <stop stop-color="#2675EB" offset="0"/>
      <stop stop-color="#9E00D0" offset="1"/>
    </linearGradient>
    <linearGradient id="paint34_linear_1807_1990" x1="127.9" x2="139" y1="132.7" y2="132.7" gradientUnits="userSpaceOnUse">
      <stop stop-color="#2675EB" offset="0"/>
      <stop stop-color="#9E00D0" offset="1"/>
    </linearGradient>
    <linearGradient id="paint35_linear_1807_1990" x1="120.8" x2="125.1" y1="150.9" y2="150.9" gradientUnits="userSpaceOnUse">
      <stop stop-color="#2675EB" offset="0"/>
      <stop stop-color="#9E00D0" offset="1"/>
    </linearGradient>
    <linearGradient id="paint36_linear_1807_1990" x1="60.8" x2="71.64" y1="134.3" y2="134.3" gradientUnits="userSpaceOnUse">
      <stop stop-color="#00D1FF" offset="0"/>
      <stop stop-color="#2675EB" offset=".51"/>
      <stop stop-color="#9E00D0" offset="1"/>
    </linearGradient>
    <linearGradient id="paint37_linear_1807_1990" x1="74.48" x2="78.93" y1="151.3" y2="151.3" gradientUnits="userSpaceOnUse">
      <stop stop-color="#00D1FF" offset="0"/>
      <stop stop-color="#2675EB" offset=".51"/>
      <stop stop-color="#9E00D0" offset="1"/>
    </linearGradient>
    <linearGradient id="paint38_linear_1807_1990" x1="87.41" x2="107.4" y1="161.5" y2="161.5" gradientUnits="userSpaceOnUse">
      <stop stop-color="#15158F" offset="0"/>
      <stop stop-color="#07174B" offset="1"/>
    </linearGradient>
    <linearGradient id="paint39_linear_1807_1990" x1="49.27" x2="149.8" y1="167.2" y2="167.2" gradientUnits="userSpaceOnUse">
      <stop stop-color="#7ef" offset="0"/>
      <stop stop-color="#FEADFF" offset="1"/>
    </linearGradient>
    <linearGradient id="paint40_linear_1807_1990" x1="35.32" x2="42.47" y1="129.7" y2="129.7" gradientUnits="userSpaceOnUse">
      <stop stop-color="#00D1FF" offset="0"/>
      <stop stop-color="#7ef" offset="1"/>
    </linearGradient>
    <linearGradient id="paint41_linear_1807_1990" x1="157" x2="163.8" y1="128.7" y2="128.7" gradientUnits="userSpaceOnUse">
      <stop stop-color="#FF7BFF" offset="0"/>
      <stop stop-color="#B800E1" offset="1"/>
    </linearGradient>
    <linearGradient id="paint42_linear_1807_1990" x1="84.19" x2="84.84" y1="51.91" y2="51.91" gradientUnits="userSpaceOnUse">
      <stop stop-color="#00D1FF" offset="0"/>
      <stop stop-color="#7ef" offset="1"/>
    </linearGradient>
    <linearGradient id="paint43_linear_1807_1990" x1="82.29" x2="86.96" y1="55.53" y2="55.53" gradientUnits="userSpaceOnUse">
      <stop stop-color="#00D1FF" offset="0"/>
      <stop stop-color="#7ef" offset="1"/>
    </linearGradient>
    <linearGradient id="paint44_linear_1807_1990" x1="114.8" x2="115.5" y1="50.83" y2="50.83" gradientUnits="userSpaceOnUse">
      <stop stop-color="#2675EB" offset="0"/>
      <stop stop-color="#9E00D0" offset="1"/>
    </linearGradient>
    <linearGradient id="paint45_linear_1807_1990" x1="112.9" x2="117.6" y1="55.17" y2="55.17" gradientUnits="userSpaceOnUse">
      <stop stop-color="#2675EB" offset="0"/>
      <stop stop-color="#9E00D0" offset="1"/>
    </linearGradient>
    <linearGradient id="paint46_linear_1807_1990" x1="53.22" x2="57.69" y1="76.08" y2="76.08" gradientUnits="userSpaceOnUse">
      <stop stop-color="#00D1FF" offset="0"/>
      <stop stop-color="#7ef" offset="1"/>
    </linearGradient>
    <linearGradient id="paint47_linear_1807_1990" x1="142.5" x2="147.2" y1="76.08" y2="76.08" gradientUnits="userSpaceOnUse">
      <stop stop-color="#2675EB" offset="0"/>
      <stop stop-color="#9E00D0" offset="1"/>
    </linearGradient>
    <linearGradient id="paint48_linear_1807_1990" x1="44.55" x2="48.94" y1="103.2" y2="103.2" gradientUnits="userSpaceOnUse">
      <stop stop-color="#00D1FF" offset="0"/>
      <stop stop-color="#7ef" offset="1"/>
    </linearGradient>
    <linearGradient id="paint49_linear_1807_1990" x1="150.7" x2="155.2" y1="103.2" y2="103.2" gradientUnits="userSpaceOnUse">
      <stop stop-color="#2675EB" offset="0"/>
      <stop stop-color="#9E00D0" offset="1"/>
    </linearGradient>
    <linearGradient id="paint50_linear_1807_1990" x1="58.9" x2="63.57" y1="124.4" y2="124.4" gradientUnits="userSpaceOnUse">
      <stop stop-color="#00D1FF" offset="0"/>
      <stop stop-color="#7ef" offset="1"/>
    </linearGradient>
    <linearGradient id="paint51_linear_1807_1990" x1="71.29" x2="75.8" y1="141.5" y2="141.5" gradientUnits="userSpaceOnUse">
      <stop stop-color="#00D1FF" offset="0"/>
      <stop stop-color="#7ef" offset="1"/>
    </linearGradient>
    <linearGradient id="paint52_linear_1807_1990" x1="124.1" x2="128.6" y1="141.5" y2="141.5" gradientUnits="userSpaceOnUse">
      <stop stop-color="#2675EB" offset="0"/>
      <stop stop-color="#9E00D0" offset="1"/>
    </linearGradient>
    <linearGradient id="paint53_linear_1807_1990" x1="136" x2="140.5" y1="124.4" y2="124.4" gradientUnits="userSpaceOnUse">
      <stop stop-color="#2675EB" offset="0"/>
      <stop stop-color="#9E00D0" offset="1"/>
    </linearGradient>
    <linearGradient id="paint54_linear_1807_1990" x1="88.73" x2="110.9" y1="151.1" y2="151.1" gradientUnits="userSpaceOnUse">
      <stop stop-color="#7ef" offset="0"/>
      <stop stop-color="#FEADFF" offset="1"/>
    </linearGradient>
  </defs>
</svg>