<svg xmlns="http://www.w3.org/2000/svg" width="215" height="215" fill="none" viewBox="0 0 215 215">
<!-- SVG created with Arrow, by QuiverAI (https://quiver.ai) -->
  <path d="m30.22 20.69 79.84-17.69 79.85 17.69v5.74l-79.85-17.96-79.84 17.96v-5.74z" fill="url(#paint0_linear_256_3184)"/>
  <path d="m30.31 29.81 79.38-17.96 80.22 17.96v78c0 36.56-20.79 60.03-80.22 104.2-55.02-39.92-79.38-59.64-79.38-104.2v-78z" fill="url(#paint1_linear_256_3184)"/>
  <path d="m109.7 11.79v200.2c58.62-43.46 80.22-62.32 80.22-104.4v-77.76l-80.22-18.02z" fill="url(#paint2_linear_256_3184)"/>
  <path d="m182.6 78.26h-44.48l-12.6-13.75 0.74-9.49 13.36-16.41-10.48-13.3h-24.12l-6.94 6.31-6.78-0.53-11.11 10.94v6.02l-12.69 11.67-0.5 8.97 10.18 11.35h-13.9v3.14h-40.27l1.92 4.44c7.35 14.21 21.14 20.66 37.79 23.24v3.11h9.89v2.4h4.56c6.94 0 8.95 4.25 8.95 12.73s-14.85 18.33-20.92 19.88v18.55h28.01l4.7-3.01c7.78-4.85 17.26-3.84 24.78 1.59l2.94 1.93h29.58v-18.01c-9.64-2.82-18.71-9.23-18.71-19.27 0-4.68 2.66-8.67 4.33-10.32l16.66 19.04-1.01 1.01 6.94 7.94h11.67l9.48-8.98 1.01-12.11-9.98-10.4-2.01 1.5-14.2-15.09c6.53-2.79 10.93-3.18 17.17-3.49l7.04-9.99 0.39-11.09-1.39-0.52z" fill="url(#paint3_radial_256_3184)" opacity=".2"/>
  <path d="m182.6 80.04h-45.1l-14.3-17.11-0.63-5.47 16.04-19.77-9.22-11.36h-23.75l-7.78 6.61-5.96-0.83-10.56 10.06-0.12 6.46-12.09 11.29-0.41 8.15 11.47 12.98h-15.77v2.88h-40.29c8.15 14.9 21.67 24.35 39.7 26.76v2.04h9.89v3.64h4.2c7.87 0 9.33 6.05 9.33 12.54 0 8.15-12.83 18.55-21.32 21.12v17h27.28l3.81-2.72c8.65-5.47 19-4.3 27.93 2.01l1.47 0.71h28.3v-17c-9.94-2.85-19.83-9.47-19.83-19.82 0-6.15 3.91-12.22 5.55-13.12l18.02 20.43-1.36 1.1 6.86 8.02h10.35l8.52-8.02 0.77-10.7-8.72-9.48-1.94 1.59-14.92-16.9c6.97-3.02 10.87-3.32 17.98-4.3l6.83-9.49-0.23-9.3z" fill="#fff"/>
  <path d="m105.9 29.71-33.38 31.25-0.42 5.95 13.13 13.13h6.15l43.47-42.82-6.7-7.51h-22.25z" fill="url(#paint4_linear_256_3184)"/>
  <path d="m116.7 56.29-14.5 13.92 4.5 3.41 13-12.8-3-4.53z" fill="url(#paint5_linear_256_3184)"/>
  <path d="m92.76 35.26-8.49 8.15 0.77 3.6 11.32-10.4-3.6-1.35z" fill="url(#paint6_linear_256_3184)"/>
  <path d="m117.9 63.14-5.07 4.93 13.35 15.11v3.6l6.57 8.51 1.08-1.08-6.7-9.55v-2.11l-12.29-13.44 4.19-3.5 25.85 29.32 10.95 7.38 16.66 21.41 2.15-1.01 4.35 6.39-0.78 8.97-5.14 5.15h-7.66l-5.65-7.17 1.17-0.39-22.89-26.63-30.01-35.41 2.21-2.51 7.66-7.97z" fill="url(#paint7_linear_256_3184)"/>
  <path d="m139 83.18 7.73 8.97h32.2l-3.85 5c-7.3 1.24-10.51 1.72-18.85 4.68l-17.23-18.65z" fill="url(#paint8_linear_256_3184)"/>
  <path d="m77.05 83.04h36.23l14.83 16.79-5.47 4.68v19.21l-13.93 11.94v21.67h1.7v-20.17l14.42-12.8v-19.39l4.55-3.86 9.99 11.4c-4.66 3.6-8.18 8.38-8.18 17.7 0 8.98 8.72 16.86 17.22 20.2h-21.31l-9.48-6.5 8.47 8.54v9.96l-1.87-1.25c-7.52-4-16.21-5.45-26.16-0.99l-4.3 2.79v-10.86l8.98-9.48-9.85 7.92h-19.78c8.81-3.75 16.82-11.42 16.82-19.33 0-8.28-5.65-13.98-12.88-14.6v-33.57z" fill="url(#paint9_linear_256_3184)"/>
  <path d="m74.62 59.72 18.5 17.51 3.99-21.04c-2.18-1.25-2.92-5.17-0.58-7.85 2.25-2.68 6.38-1.48 7.78 0.68l8.31-8.81h4.56l11.25-9.99 5.08 6.93-40.89 40.08-19.51-10.63 1.51-6.88z" fill="url(#paint10_linear_256_3184)"/>
  <path d="m100.4 57.11c3.64 0 5.34-2.99 5.27-5.13-0.11-3.22-2.36-4.97-5.27-4.97-3.21 0-4.67 2.96-4.7 4.59-0.06 3.28 1.95 5.51 4.7 5.51z" fill="url(#paint11_radial_256_3184)"/>
  <path d="m161.8 87.31c-2.9 0-3.54 2.5-3.54 2.5l-10.95-0.1 1.14 1.25h9.81c0.43 1.19 1.38 2.57 3.4 2.57s3.1-1.44 3.44-2.67h13.56l0.4-1.25h-13.96s-0.4-2.3-3.3-2.3z" fill="url(#paint12_linear_256_3184)"/>
  <path d="m150 98.83-2.04 9.11 19.07 23.05c0.92-1.03 1.9-1.89 3.59-1.89 2.86 0 4.14 2.41 4.14 5.13 0 2.68-2.31 4.54-4.44 4.54-2.97 0-4.25-2.39-4.29-4.71l-20.28-25.99 1.63-8.16-1.63-2.09-6.42-7.51-1.18-4.23-1.62 11.74 4.22 3.29-1.34 7.81-1.77-2.21 1.08-6.67-3.66-3.6 2.58-10.94 12.36 13.33z" fill="url(#paint13_linear_256_3184)"/>
  <path d="m170.2 130.2c-2.72 0.55-3.05 2.75-2.95 3.78 0.23 2.57 2.07 3.64 3.58 3.6 2.46-0.07 3.5-2.03 3.55-3.67 0.08-2.76-1.86-3.91-4.18-3.71z" fill="url(#paint14_radial_256_3184)"/>
  <path d="m127.2 108.1h2.27v2h-2.27v-2z" fill="#6ff"/>
  <path d="m127.3 112.2h2.27v2.01h-2.27v-2.01z" fill="#6ff"/>
  <path d="m127.4 116.4h2.27v2.01h-2.27v-2.01z" fill="#6ff"/>
  <path d="m126.2 127.9-8.54 6.99 1.07 0.75 7.93-6.05h4.09v-1.69h-4.55z" fill="#24D1FF"/>
  <path d="m105.1 95.54v31.97l2.1-1.89v-12.43l10.05 8.84 1.49-2.3-9.04-8.48 8-5.69-12.6-10.02zm2.1 5.27 6.53 5.1-6.53 4.29v-9.39z" fill="#6ff"/>
  <path d="m96.36 83.04 1.7 5.78-0.59 1.09 0.81 1.6-0.77 4.2-0.5 0.4-0.43 0.87-5.8 1.75-4.09-4.32h-9.52v-1.69h8.94l4.71 6.01 5.25-1.75 0.91-3.66-0.51-2.02 0.91-1.89-1.96-6.37h0.94z" fill="url(#paint15_linear_256_3184)"/>
  <path d="m98.42 120.9 1.57-2.47v18.72h-9.89l-0.87-1.5h7.78v-12.57l-9.77-1.06-0.5-1.59h10.07l1.61 0.47z" fill="#24D1FF"/>
  <path d="m24.92 88.63 23.3-0.44 5.24 6.39-1.31 6.53-5.76 3.13v0.87l6.43-2.8 4.19 4.6-2.49-5.8 0.69-5.4 9.98-0.17 1.08 6.74-0.35-10.27-12.46-0.1-4.06-4.29h20.61l0.3 25.11h-3.66v-2.32c-15.09-1.25-32.09-7.4-41.73-21.78z" fill="url(#paint16_linear_256_3184)"/>
  <path d="m67.42 86.08h7.49v27.89h-7.49v-27.89z" fill="url(#paint17_linear_256_3184)"/>
  <path d="m69.38 152.7h22.79v10.79h-22.79v-10.79z" fill="url(#paint18_linear_256_3184)"/>
  <path d="m128.3 152.4h22.83v11.06h-22.83v-11.06z" fill="url(#paint19_linear_256_3184)"/>
  <defs>
    <linearGradient id="paint0_linear_256_3184" x1="30.22" x2="189.9" y1="14.71" y2="14.71" gradientUnits="userSpaceOnUse">
      <stop stop-color="#89A6C0" offset="0"/>
      <stop stop-color="#567FA3" offset="1"/>
    </linearGradient>
    <linearGradient id="paint1_linear_256_3184" x1="30.31" x2="189.9" y1="111.9" y2="111.9" gradientUnits="userSpaceOnUse">
      <stop stop-color="#89A6C0" offset="0"/>
      <stop stop-color="#567FA3" offset="1"/>
    </linearGradient>
    <linearGradient id="paint2_linear_256_3184" x1="109.7" x2="189.9" y1="111.9" y2="111.9" gradientUnits="userSpaceOnUse">
      <stop stop-color="#658CB0" offset="0"/>
      <stop stop-color="#6181A3" offset="1"/>
    </linearGradient>
    <radialGradient id="paint3_radial_256_3184" cx="0" cy="0" r="1" gradientTransform="translate(104.3 97.13) scale(81.8 79.9)" gradientUnits="userSpaceOnUse">
      <stop stop-color="#00BFF2" offset="0"/>
      <stop stop-color="#9D00F7" offset=".6"/>
      <stop stop-color="#7000D6" offset="1"/>
    </radialGradient>
    <linearGradient id="paint4_linear_256_3184" x1="72.06" x2="134.8" y1="54.88" y2="54.88" gradientUnits="userSpaceOnUse">
      <stop stop-color="#29D3FF" offset="0"/>
      <stop stop-color="#2991FF" offset=".5"/>
      <stop stop-color="#9D00F7" offset="1"/>
    </linearGradient>
    <linearGradient id="paint5_linear_256_3184" x1="102.2" x2="119.7" y1="64.95" y2="64.95" gradientUnits="userSpaceOnUse">
      <stop stop-color="#29D3FF" offset="0"/>
      <stop stop-color="#2991FF" offset=".5"/>
      <stop stop-color="#9D00F7" offset="1"/>
    </linearGradient>
    <linearGradient id="paint6_linear_256_3184" x1="84.27" x2="96.36" y1="41.13" y2="41.13" gradientUnits="userSpaceOnUse">
      <stop stop-color="#29D3FF" offset="0"/>
      <stop stop-color="#2991FF" offset=".5"/>
      <stop stop-color="#9D00F7" offset="1"/>
    </linearGradient>
    <linearGradient id="paint7_linear_256_3184" x1="110.2" x2="179" y1="103.3" y2="103.3" gradientUnits="userSpaceOnUse">
      <stop stop-color="#29D3FF" offset="0"/>
      <stop stop-color="#2991FF" offset=".5"/>
      <stop stop-color="#9D00F7" offset="1"/>
    </linearGradient>
    <linearGradient id="paint8_linear_256_3184" x1="139" x2="179" y1="92.55" y2="92.55" gradientUnits="userSpaceOnUse">
      <stop stop-color="#9D00F7" offset="0"/>
      <stop stop-color="#7000D6" offset="1"/>
    </linearGradient>
    <linearGradient id="paint9_linear_256_3184" x1="73.11" x2="149" y1="120.2" y2="120.2" gradientUnits="userSpaceOnUse">
      <stop stop-color="#29D3FF" offset="0"/>
      <stop stop-color="#2991FF" offset=".5"/>
      <stop stop-color="#9D00F7" offset="1"/>
    </linearGradient>
    <linearGradient id="paint10_linear_256_3184" x1="76.4" x2="133.5" y1="53.72" y2="53.72" gradientUnits="userSpaceOnUse">
      <stop stop-color="#29D3FF" offset="0"/>
      <stop stop-color="#2991FF" offset=".5"/>
      <stop stop-color="#9D00F7" offset="1"/>
    </linearGradient>
    <radialGradient id="paint11_radial_256_3184" cx="0" cy="0" r="1" gradientTransform="translate(100.6 52.28) scale(5.533 5.424)" gradientUnits="userSpaceOnUse">
      <stop stop-color="#D0FFFE" offset="0"/>
      <stop stop-color="#90FFFE" offset="1"/>
    </radialGradient>
    <linearGradient id="paint12_linear_256_3184" x1="147.3" x2="179" y1="90.42" y2="90.42" gradientUnits="userSpaceOnUse">
      <stop stop-color="#29D3FF" offset="0"/>
      <stop stop-color="#2991FF" offset=".5"/>
      <stop stop-color="#9D00F7" offset="1"/>
    </linearGradient>
    <linearGradient id="paint13_linear_256_3184" x1="135" x2="174.7" y1="112.4" y2="112.4" gradientUnits="userSpaceOnUse">
      <stop stop-color="#29D3FF" offset="0"/>
      <stop stop-color="#2991FF" offset=".5"/>
      <stop stop-color="#9D00F7" offset="1"/>
    </linearGradient>
    <radialGradient id="paint14_radial_256_3184" cx="0" cy="0" r="1" gradientTransform="translate(170.8 133.9) scale(4.464 4.371)" gradientUnits="userSpaceOnUse">
      <stop stop-color="#D0FFFE" offset="0"/>
      <stop stop-color="#90FFFE" offset="1"/>
    </radialGradient>
    <linearGradient id="paint15_linear_256_3184" x1="77.17" x2="118.8" y1="95.08" y2="95.08" gradientUnits="userSpaceOnUse">
      <stop stop-color="#29D3FF" offset="0"/>
      <stop stop-color="#2991FF" offset=".5"/>
      <stop stop-color="#9D00F7" offset="1"/>
    </linearGradient>
    <linearGradient id="paint16_linear_256_3184" x1="24.92" x2="70.31" y1="96.67" y2="96.67" gradientUnits="userSpaceOnUse">
      <stop stop-color="#00BFF2" offset="0"/>
      <stop stop-color="#29B7FF" offset=".6"/>
      <stop stop-color="#2991FF" offset="1"/>
    </linearGradient>
    <linearGradient id="paint17_linear_256_3184" x1="67.42" x2="74.91" y1="99.98" y2="99.98" gradientUnits="userSpaceOnUse">
      <stop stop-color="#00BFF2" offset="0"/>
      <stop stop-color="#29B7FF" offset=".6"/>
      <stop stop-color="#2991FF" offset="1"/>
    </linearGradient>
    <linearGradient id="paint18_linear_256_3184" x1="69.38" x2="92.17" y1="158.1" y2="158.1" gradientUnits="userSpaceOnUse">
      <stop stop-color="#1AB9F5" offset="0"/>
      <stop stop-color="#2991FF" offset="1"/>
    </linearGradient>
    <linearGradient id="paint19_linear_256_3184" x1="128.3" x2="151.1" y1="158" y2="158" gradientUnits="userSpaceOnUse">
      <stop stop-color="#9D00F7" offset="0"/>
      <stop stop-color="#7000D6" offset="1"/>
    </linearGradient>
  </defs>
</svg>