<svg xmlns="http://www.w3.org/2000/svg" width="256" height="256" fill="none" viewBox="0 0 256 256">
<!-- SVG created with Arrow, by QuiverAI (https://quiver.ai) -->
  <path d="m15.93 16.14 112.8-16.14 112.7 16.14v123.6l-22.55 52.13-37.14 41.45-52.61 22.69-53.42-24.43-39.06-40.66-20.8-52.49v-122.3z" fill="url(#paint0_radial_9_4118)"/>
  <path d="m129.2 4.17c25.69 18.6 49.31 28.62 100.6 31.54l0.89 1.11c0.44 30.09 2.28 70.96-12.4 112-13.99 40.4-41.14 70.14-89.28 99.15h-0.26c-48.13-29.01-75.29-53.11-89.27-87.45-14.68-35.82-12.84-68.69-11.94-124l1.11-0.89c50.25-2.82 69.51-11.56 100.4-31.54h0.22z" fill="url(#paint1_linear_9_4118)" stroke="#6B39AA" stroke-miterlimit="10" stroke-width="1.5"/>
  <path d="m128.9 17.24c18.28 12.48 40.79 20.43 67.2 24.47l-4.04 2.2 31.47 2.51 0.31 29.1 5.65-0.89-0.45-37.47-2.23 0.42c-36.62-2.61-65.75-10.86-97.68-31.45h-0.25c-28.1 20.05-51.8 28.32-82.57 30.81l-16.26 0.76-1.57 36.57 7.76 8.3-0.16-41.2 27.21-2.02-4.89-3.81c19.08-2.13 45.08-10.43 60.55-19.74 3.14-1.89 6.27-4.33 9.7-6.58l0.25 8.02z" fill="#D7E2FF" stroke="#6B39AA" stroke-miterlimit="10" stroke-width="1.5"/>
  <path d="m128.9 11.48 9.41 4.66" stroke="#64C8FF" stroke-linecap="round" stroke-miterlimit="10" stroke-width="1.04"/>
  <path d="m128.9 11.48-8.81 4.66" stroke="#6B39AA" stroke-linecap="round" stroke-miterlimit="10" stroke-width="1.04"/>
  <path d="m105.9 17.81-4.9 8.81-5.35 2.61-1.32 3.5" stroke="#6B39AA" stroke-linecap="round" stroke-miterlimit="10" stroke-width=".52"/>
  <path d="m67.19 33.18 4.89 3.5 8.81-1.75" stroke="#6B39AA" stroke-linecap="round" stroke-miterlimit="10" stroke-width=".52"/>
  <path d="m72.52 34.49 0.45 0.87" stroke="#6B39AA" stroke-linecap="round" stroke-miterlimit="10" stroke-width=".52"/>
  <path d="m75.13 33.61 0.45 1.32" stroke="#6B39AA" stroke-linecap="round" stroke-miterlimit="10" stroke-width=".52"/>
  <path d="m152.4 18.69 4.03 7.05 5.35 3.05 0.88 3.94" stroke="#6B39AA" stroke-linecap="round" stroke-miterlimit="10" stroke-width=".52"/>
  <path d="m177.1 32.29 0.44 0.89" stroke="#6B39AA" stroke-linecap="round" stroke-miterlimit="10" stroke-width=".52"/>
  <path d="m180.2 33.18 0.45 0.88" stroke="#6B39AA" stroke-linecap="round" stroke-miterlimit="10" stroke-width=".52"/>
  <path d="m183.2 34.06 0.44 0.87 3.59-0.87" stroke="#6B39AA" stroke-linecap="round" stroke-miterlimit="10" stroke-width=".52"/>
  <path d="m229.2 37.16-4.45 4.89-0.45 33.69-1.76 0.89" stroke="#6B39AA" stroke-linecap="round" stroke-miterlimit="10" stroke-width="1.04"/>
  <path d="m229.5 76.63-10.81 9.46v25.19l-3.05 3.05" stroke="#6B39AA" stroke-linecap="round" stroke-miterlimit="10" stroke-width=".52"/>
  <path d="m225.1 95.99-0.88 0.88" stroke="#6B39AA" stroke-linecap="round" stroke-miterlimit="10" stroke-width=".52"/>
  <path d="m225.5 98.15-0.88 0.88" stroke="#6B39AA" stroke-linecap="round" stroke-miterlimit="10" stroke-width=".52"/>
  <path d="m226 100.3-0.88 0.88" stroke="#6B39AA" stroke-linecap="round" stroke-miterlimit="10" stroke-width=".52"/>
  <path d="m28.51 76.18 8.34 8.76 2.17 1.32" stroke="#6B39AA" stroke-linecap="round" stroke-miterlimit="10" stroke-width="1.04"/>
  <path d="m30.26 75.3 3.5 3.5" stroke="#6B39AA" stroke-linecap="round" stroke-miterlimit="10" stroke-width="1.04"/>
  <path d="m33.32 131.7 5.35 3.51c3.67 13.04 8.95 28.58 16.01 37.98l-1.32 5.79" stroke="#2A62AB" stroke-linecap="round" stroke-miterlimit="10" stroke-width="1.04"/>
  <path d="m185.4 188.7 11.65 0.45-3.5 4.45-20.52 20.96v-7.49l14.59-13.03 0.45-0.88h6.34" stroke="#C648FF" stroke-linecap="round" stroke-miterlimit="10" stroke-width="1.04"/>
  <path d="m223.8 131.7-5.8 4.89c-3.23 12.35-9.11 29.71-15.87 37.49l0.88 7.49" stroke="#2A62AB" stroke-linecap="round" stroke-miterlimit="10" stroke-width="1.04"/>
  <path d="m62.44 193.2h7.88l14.14 14.13v7.27" stroke="#22B5FF" stroke-linecap="round" stroke-miterlimit="10" stroke-width="1.04"/>
  <path d="m122.7 234.2 5.79 4.45 9.31-3.99" stroke="#49FFFE" stroke-linecap="round" stroke-miterlimit="10" stroke-width="2.08"/>
  <path d="m59.38 178.1-0.88 0.88" stroke="#2A62AB" stroke-linecap="round" stroke-miterlimit="10" stroke-width=".52"/>
  <path d="m60.26 179.4-1.76 1.31" stroke="#2A62AB" stroke-linecap="round" stroke-miterlimit="10" stroke-width=".52"/>
  <path d="m61.57 181.1-1.31 1.32" stroke="#2A62AB" stroke-linecap="round" stroke-miterlimit="10" stroke-width=".52"/>
  <path d="m62.45 182.9-1.32 1.32h4.45" stroke="#2A62AB" stroke-linecap="round" stroke-miterlimit="10" stroke-width=".52"/>
  <path d="m169.1 207.1-15.84 14.96v5.8" stroke="#7A49C4" stroke-linecap="round" stroke-miterlimit="10" stroke-width=".52"/>
  <path d="m90.25 207.1v7.49l14.58 11.95" stroke="#71A4D8" stroke-linecap="round" stroke-miterlimit="10" stroke-width=".52"/>
  <path d="m35.48 41.71 22.13-3.05 3.52 2.62-23.89 3.05-0.44 30.53" stroke="#49FFFE" stroke-linecap="round" stroke-miterlimit="10" stroke-width="2.08"/>
  <path d="m199.2 38.66 22.57 3.05v34.92" stroke="#FF80FF" stroke-linecap="round" stroke-miterlimit="10" stroke-width="2.08"/>
  <path d="m40.31 46.53 0.44 42.61c0.96 28.43 5.32 60.64 22.13 85.39 13.85 22.08 35.24 39.28 65.83 56.59 30.58-17.31 49.01-34.51 64.46-56.59 15.11-23.84 21.65-54.32 21.65-91.72l-0.88-34.57-25.87-3.03c-20.86-4.45-37.95-10.28-59.39-24.08-19.97 13.58-38.57 20.92-62.41 25.37l-25.96 0.03z" fill="url(#paint2_linear_9_4118)" stroke="#2F1794" stroke-miterlimit="10" stroke-width="1.5"/>
  <path d="m47.79 51.25 0.45 30.53c0.83 25.55 5.48 54.31 17.53 78.34 11.97 22.79 29.44 39.79 62.94 62.05 29.7-19.53 46.91-36.52 60.45-58.26 12.05-21.6 18.18-47.69 18.62-80.88l-0.44-27.02-20.08-2.61c-23.9-3.57-39.05-9.49-59.03-21.97-17.78 12.28-32.27 17.25-56.6 22.29l-23.84-2.47z" stroke="#2483C5" stroke-miterlimit="10" stroke-width=".75"/>
  <path d="m51.32 57.31 11.27-1.3 0.45-1.32" opacity=".5" stroke="#2483C5" stroke-linecap="round" stroke-miterlimit="10" stroke-width=".75"/>
  <path d="m194 55.14 11.27 1.75 0.28 17" opacity=".5" stroke="#2483C5" stroke-linecap="round" stroke-miterlimit="10" stroke-width=".75"/>
  <path d="m50.87 80.46v0.88" opacity=".5" stroke="#2483C5" stroke-linecap="round" stroke-miterlimit="10" stroke-width=".75"/>
  <path d="m204.4 80.88v0.88" opacity=".5" stroke="#2483C5" stroke-linecap="round" stroke-miterlimit="10" stroke-width=".75"/>
  <path d="m53.51 112.1 8.3 6.66h5.35l8.3-3.5 6.25 3.5h26.56l10.3 9.87v30.51l-10.3 11.6h-13.06l-4.89 4.89h-14.14l-3.05 3.98" opacity=".5" stroke="#22B5FF" stroke-linecap="round" stroke-miterlimit="10" stroke-width=".75"/>
  <path d="m203.1 114.3-8.35 5.74h-4.45l-7.86-4.83-6.69 3.5-7.86-2.64h-19.63l-7.06 8.76v34.26l7.49 8.3h14.13l5.8 7.83h12.04l3.5 3.99" opacity=".5" stroke="#22B5FF" stroke-linecap="round" stroke-miterlimit="10" stroke-width=".75"/>
  <path d="m55.27 120.1 6.25 17.46 3.57 2.2 1.32 9.39-2.62 2.61" opacity=".5" stroke="#22B5FF" stroke-linecap="round" stroke-miterlimit="10" stroke-width=".75"/>
  <path d="m200.9 120.5-4.45 17.02-3.98 2.62-1.76 10.73 2.22 2.16" opacity=".5" stroke="#22B5FF" stroke-linecap="round" stroke-miterlimit="10" stroke-width=".75"/>
  <path d="m69.91 153.5-1.31 3.05 2.61 2.61h4.9" opacity=".5" stroke="#22B5FF" stroke-linecap="round" stroke-miterlimit="10" stroke-width=".75"/>
  <path d="m70.36 160.5-2.23 0.44 6.69 9.78h2.61" opacity=".5" stroke="#22B5FF" stroke-linecap="round" stroke-miterlimit="10" stroke-width=".75"/>
  <path d="m72.12 161.8-1.33 0.45" opacity=".5" stroke="#22B5FF" stroke-linecap="round" stroke-miterlimit="10" stroke-width=".75"/>
  <path d="m73.88 163.1-1.32 0.45" opacity=".5" stroke="#22B5FF" stroke-linecap="round" stroke-miterlimit="10" stroke-width=".75"/>
  <path d="m70.36 153.5h17.46l13.04 13.04" opacity=".5" stroke="#22B5FF" stroke-linecap="round" stroke-miterlimit="10" stroke-width=".75"/>
  <path d="m187.6 153.5 1.76 3.05-2.23 3.05h-4.9" opacity=".5" stroke="#22B5FF" stroke-linecap="round" stroke-miterlimit="10" stroke-width=".75"/>
  <path d="m187.6 160 1.76 0.45-9.27 13.73h-3.95" opacity=".5" stroke="#22B5FF" stroke-linecap="round" stroke-miterlimit="10" stroke-width=".75"/>
  <path d="m185.9 161.4 2.65-0.41" opacity=".5" stroke="#22B5FF" stroke-linecap="round" stroke-miterlimit="10" stroke-width=".75"/>
  <path d="m184.5 162.7 2.65-0.41" opacity=".5" stroke="#22B5FF" stroke-linecap="round" stroke-miterlimit="10" stroke-width=".75"/>
  <path d="m170 153h16.6l2.23 1.32" opacity=".5" stroke="#22B5FF" stroke-linecap="round" stroke-miterlimit="10" stroke-width=".75"/>
  <path d="m156.8 166.6 13.23-13.56" opacity=".5" stroke="#22B5FF" stroke-linecap="round" stroke-miterlimit="10" stroke-width=".75"/>
  <path d="m76.61 150.4h0.4" opacity=".5" stroke="#22B5FF" stroke-linecap="round" stroke-miterlimit="10" stroke-width=".75"/>
  <path d="m78.32 150.4h0.41" opacity=".5" stroke="#22B5FF" stroke-linecap="round" stroke-miterlimit="10" stroke-width=".75"/>
  <path d="m180.1 150.4h0.41" opacity=".5" stroke="#22B5FF" stroke-linecap="round" stroke-miterlimit="10" stroke-width=".75"/>
  <path d="m179.2 160.9-0.88 0.88" opacity=".5" stroke="#22B5FF" stroke-linecap="round" stroke-miterlimit="10" stroke-width=".75"/>
  <path d="m52.96 104.2 2.61 1.99h1.76l2.61-1.99-2.61-1.32h-1.76l-2.61 1.32z" stroke="#49FFFE" stroke-linecap="round" stroke-miterlimit="10" stroke-width=".75"/>
  <path d="m198.2 104.2 2.61 1.99h1.76l2.61-1.99-2.61-1.32h-1.76l-2.61 1.32z" stroke="#C648FF" stroke-linecap="round" stroke-miterlimit="10" stroke-width=".75"/>
  <path d="m113.6 38.66 2.61 4.89v2.61l-1.75 2.61-2.61-3.96v-2.61l1.75-3.54z" stroke="#7A49C4" stroke-linecap="round" stroke-miterlimit="10" stroke-width=".75"/>
  <path d="m144.5 38.66 2.17 4.43v2.17l-2.17 3.51-2.16-3.51v-1.75l2.16-4.85z" stroke="#C648FF" stroke-linecap="round" stroke-miterlimit="10" stroke-width=".75"/>
  <path d="m65.99 63.51 3.51 0.88 1.76 3.99-3.05 0.88-1.76-2.19-0.46-3.56z" stroke="#7A49C4" stroke-linecap="round" stroke-miterlimit="10" stroke-width=".75"/>
  <path d="m186.8 69.26 1.32-4.45 4.02-0.88-1.39 4.45-2.19 0.88h-1.76z" stroke="#C648FF" stroke-linecap="round" stroke-miterlimit="10" stroke-width=".75"/>
  <path d="m87.6 48.24 3.99 2.23 1.32 3.99-2.65 0.87-2.23-3.56-0.43-3.53z" stroke="#49FFFE" stroke-linecap="round" stroke-miterlimit="10" stroke-width=".75"/>
  <path d="m166.1 53.12 1.76-4.89 3.05-0.84-0.87 4.85-2.61 2.22-1.33-1.34z" stroke="#C648FF" stroke-linecap="round" stroke-miterlimit="10" stroke-width=".75"/>
  <path d="m128.7 32.73 5.28 9.26v3.51l-5.28 9.83-4.9-9.29v-4.05l4.9-9.26z" fill="#D7E2FF" stroke="#7A49C4" stroke-linecap="round" stroke-miterlimit="10" stroke-width=".75"/>
  <path d="m102.1 44.33-1.76 7.04v3.51l6.24 6.23 3.53-7.89-2.61-5.8-5.4-3.09z" fill="#D7E2FF" stroke="#7A49C4" stroke-linecap="round" stroke-miterlimit="10" stroke-width=".75"/>
  <path d="m155.7 44.33-5.79 7.04v4.89l0.88 2.65 6.69-6.23 0.45-4.45-2.23-3.9z" fill="#D7E2FF" stroke="#7A49C4" stroke-linecap="round" stroke-miterlimit="10" stroke-width=".75"/>
  <path d="m74.81 55.77 0.88 13.26 13.07-1.76-2.65-7.06-11.3-4.44z" fill="#D7E2FF" stroke="#7A49C4" stroke-linecap="round" stroke-miterlimit="10" stroke-width=".75"/>
  <path d="m183.2 54.88-10.81 3.05-5.79 4.45 11.62 1.75 4.98-4.89v-4.36z" fill="#D7E2FF" stroke="#7A49C4" stroke-linecap="round" stroke-miterlimit="10" stroke-width=".75"/>
  <path d="m59.38 73.15 2.62 6.67 3.53 4.45h5.3l3.53-2.61-1.75-5.8-5.35-2.71h-7.88z" fill="#D7E2FF" stroke="#22B5FF" stroke-linecap="round" stroke-miterlimit="10" stroke-width=".75"/>
  <path d="m197.8 73.6-5.79 0.44-5.36 2.19-2.22 6.67 3.5 2.22h4.45l4.89-7.1 0.53-4.42z" fill="#D7E2FF" stroke="#C648FF" stroke-linecap="round" stroke-miterlimit="10" stroke-width=".75"/>
  <path d="m53.84 90.31 1.32 4.89 3.06 3.51h4.89l-0.88-5.3-4.45-3.1h-3.94z" fill="#D7E2FF" stroke="#22B5FF" stroke-linecap="round" stroke-miterlimit="10" stroke-width=".75"/>
  <path d="m203.5 90.31-3.5 0.44-4.03 2.66-1.75 5.3 4.44-1.31 3.06-3.05 1.78-4.04z" fill="#D7E2FF" stroke="#7A49C4" stroke-linecap="round" stroke-miterlimit="10" stroke-width=".75"/>
  <path d="m33.76 80.74v13.12l1.32 1.34 1.32 15.36 2.61 2.22" stroke="#2A62AB" stroke-linecap="round" stroke-miterlimit="10" stroke-width=".75"/>
  <path d="m128.3 38.66v6.6l-1.76 1.32" stroke="#7A49C4" stroke-linecap="round" stroke-miterlimit="10" stroke-width=".52"/>
  <path d="m129.6 42.65 0.88 1.32-1.75 1.29v4.89" stroke="#7A49C4" stroke-linecap="round" stroke-miterlimit="10" stroke-width=".52"/>
  <path d="m104.3 48.71v3.53" stroke="#7A49C4" stroke-linecap="round" stroke-miterlimit="10" stroke-width=".52"/>
  <path d="m105.7 49.59v1.78" stroke="#7A49C4" stroke-linecap="round" stroke-miterlimit="10" stroke-width=".52"/>
  <path d="m116.2 52.24c-3.4 0-3.94 2.77-3.94 4.4 0 2.54 1.69 4.31 3.94 4.31 2.65 0 3.95-2.27 3.95-4.31 0-2.26-1.49-4.4-3.95-4.4z" fill="url(#paint3_radial_9_4118)"/>
  <path d="m116.2 55.01c-1.28 0-1.52 0.96-1.52 1.55 0 1.05 0.73 1.7 1.52 1.7 1.06 0 1.6-0.99 1.6-1.7 0-0.9-0.67-1.55-1.6-1.55z" fill="#FEFFFE"/>
  <path d="m114.4 61.08v9.3" stroke="#22B5FF" stroke-linecap="round" stroke-miterlimit="10" stroke-width=".52"/>
  <path d="m117.9 59.76v1.32" stroke="#22B5FF" stroke-linecap="round" stroke-miterlimit="10" stroke-width=".52"/>
  <path d="m137.9 47.39h1.75v3.08h-2.23l0.48-3.08z" stroke="#FEFFFE" stroke-linecap="round" stroke-miterlimit="10" stroke-width=".75"/>
  <path d="m138.3 53.54h5.35v6.6h-5.35v-6.6z" fill="#FEFFFE" stroke="#7A49C4" stroke-linecap="round" stroke-miterlimit="10" stroke-width=".52"/>
  <path d="m139.2 54.88h3.56" stroke="#7A49C4" stroke-linecap="round" stroke-miterlimit="10" stroke-width=".52"/>
  <path d="m139.2 56.21h3.56" stroke="#7A49C4" stroke-linecap="round" stroke-miterlimit="10" stroke-width=".52"/>
  <path d="m139.2 57.52h2.27" stroke="#7A49C4" stroke-linecap="round" stroke-miterlimit="10" stroke-width=".52"/>
  <path d="m110.1 55.77-1.76 17.04 9.31 7.45v-11.23l8.86-10.73 0.89 1.75-8.86 11.16v7.01l7.97 9.83 10.81-12.04v-8.74l-2.61-2.23v-11.5h1.35l0.41 10.59 2.22 2.65 4.45-4.4v-12.37h1.8v13.25l-4.9 5.33-1.35-0.44v7.46l10.81-4.45 1.36-14.52 8.35-7.05 0.88 1.78-5.79 5.74v9.3l-3.53 3.05v13.44l-5.31 6.16v-5.74l-1.36 0.88v11.6l13.19-10.73 5.79-8.84 1.76 0.89-6.69 7.49 4.89 0.45 10.35-7.04 0.88 1.31-7.93 7.05-5.35 7.03h-7.92l-2.61 3.51h9.3l11.62-6.66 7.49-3.93 5.79-10.74 1.76 0.45-3.99 8.97 4.89 0.45 5.8-2.23 3.05-4.89" stroke="#22B5FF" stroke-linecap="round" stroke-miterlimit="10" stroke-width=".75"/>
  <path d="m109.6 73.6-8.86-10.34-3.49-0.88 0.84 1.75 2.24 1.32v20.46l7.49 7.06h-13.61l-8.35-7.06-1.76 0.88 9.31 7.9h14.88l3.91 3.51v-14.88l1.33 1.29v11.19l-2.19 0.28 7.86 8.3v9.25h1.76v-11.01l-9.77-10.54-9.35-8.35-0.63-16.46" stroke="#49FFFE" stroke-linecap="round" stroke-miterlimit="10" stroke-width="1.04"/>
  <path d="m73.48 83.32 10.81 8.81 4.45 11.68 8.39 9.82h-13.61l-4.9-5.32h-3.05" stroke="#49FFFE" stroke-linecap="round" stroke-miterlimit="10" stroke-width="1.04"/>
  <path d="m78.22 109.2c1.05 0 1.6-0.78 1.6-1.59 0-0.96-0.76-1.63-1.6-1.63-1.05 0-1.61 0.78-1.61 1.59 0 0.96 0.76 1.63 1.61 1.63z" stroke="#49FFFE" stroke-linecap="round" stroke-miterlimit="10" stroke-width=".75"/>
  <path d="m181.5 110.5-6.25 5.58h-13.08l9.77-9.83h7.86l2.17 2.41" stroke="#49FFFE" stroke-linecap="round" stroke-miterlimit="10" stroke-width="1.04"/>
  <path d="m181.8 111.2c1.05 0 1.6-0.93 1.6-1.74 0-0.96-0.76-1.63-1.6-1.63-1.05 0-1.61 0.93-1.61 1.74 0 0.96 0.76 1.63 1.61 1.63z" stroke="#49FFFE" stroke-linecap="round" stroke-miterlimit="10" stroke-width=".75"/>
  <path d="m139.6 101.8 6.2-6.23 1.31 0.88-7.91 8.81v6.65l-9.77 9.35v24.3l-3.43 3.05v-10.3l3.05-3.51v-12.49l7.87-8.4v-8.81l6.24-6.34" stroke="#49FFFE" stroke-linecap="round" stroke-miterlimit="10" stroke-width="1.04"/>
  <path d="m138.3 128.3 12.05-12.1h13.08l9.77 9.35 5.31 2.61 4.89-4.45 4 0.88 5.3 3.99-5.35 0.88h-3.11l-6.3-6.66-6.69-2.23 5.36 6.66 3.05 4.89v10.73l-7.92-6.66-1.36-8.81-8.35-8.8h-12.59l-6.2 6.23" stroke="#49FFFE" stroke-linecap="round" stroke-miterlimit="10" stroke-width="1.04"/>
  <path d="m143.4 123.5c0.7 0 1.09-0.59 1.09-1.15 0-0.7-0.58-1.18-1.09-1.18-0.7 0-1.09 0.6-1.09 1.15 0 0.7 0.58 1.18 1.09 1.18z" stroke="#49FFFE" stroke-linecap="round" stroke-miterlimit="10" stroke-width=".52"/>
  <path d="m173.9 131.7 2.17 0.41" stroke="#49FFFE" stroke-linecap="round" stroke-miterlimit="10" stroke-width=".52"/>
  <path d="m172.9 133.8 3.95 0.88" stroke="#49FFFE" stroke-linecap="round" stroke-miterlimit="10" stroke-width=".52"/>
  <path d="m130 68.15 3.06 5.8v3.06l-4.45 6.22-3.05-6.66v-2.62l4.44-5.8z" fill="#99FFD9" stroke="#2996D3" stroke-linecap="round" stroke-miterlimit="10" stroke-width=".75"/>
  <path d="m128.7 74.04v38.27" stroke="#2996D3" stroke-linecap="round" stroke-miterlimit="10" stroke-width=".75"/>
  <path d="m162 99.52-1.76 6.23-6.69 2.56 1.31-6.23 3.54-2 3.6-0.56z" stroke="#49FFFE" stroke-linecap="round" stroke-miterlimit="10" stroke-width=".75"/>
  <path d="m96.78 100 5.35 1.75 2.62 5.76-4.9-1.75-2.23-3.1-0.84-2.66z" stroke="#49FFFE" stroke-linecap="round" stroke-miterlimit="10" stroke-width=".75"/>
  <path d="m114 98.71v0.88" stroke="#49FFFE" stroke-linecap="round" stroke-miterlimit="10" stroke-width=".75"/>
  <path d="m101.7 116.6h1.32l6.65-0.49 10.35 9.91v7.01" stroke="#49FFFE" stroke-linecap="round" stroke-miterlimit="10" stroke-width="1.04"/>
  <path d="m120.2 134.7c1.05 0 1.61-0.83 1.61-1.64 0-0.96-0.77-1.63-1.61-1.63" stroke="#49FFFE" stroke-linecap="round" stroke-miterlimit="10" stroke-width=".75"/>
  <path d="m90.48 119.2-6.96 7.49-2.22 2.21-3.53 3.95v10.73l7.87-5.36 1.76-5.37-0.88-5.31 8.86-9.29" stroke="#49FFFE" stroke-linecap="round" stroke-miterlimit="10" stroke-width="1.04"/>
  <path d="m82.2 133.4 0.45 1.3" stroke="#49FFFE" stroke-linecap="round" stroke-miterlimit="10" stroke-width=".75"/>
  <path d="m83.96 133.8 0.45 1.79" stroke="#49FFFE" stroke-linecap="round" stroke-miterlimit="10" stroke-width=".75"/>
  <path d="m77.77 124.1-4.45-0.88h-3.99l-5.3 5.33 4.89 0.88h4.45l5.25-4.49" stroke="#49FFFE" stroke-linecap="round" stroke-miterlimit="10" stroke-width="1.04"/>
  <path d="m53.36 113.6 7.87-4.44h6.24l6.25 4.44-6.69 3.56h-4.9l-8.77-3.56z" stroke="#49FFFE" stroke-linecap="round" stroke-miterlimit="10" stroke-width="1.04"/>
  <path d="m61.68 113.6h4.4" stroke="#49FFFE" stroke-linecap="round" stroke-miterlimit="10" stroke-width=".52"/>
  <path d="m61.68 114.9h4.4" stroke="#49FFFE" stroke-linecap="round" stroke-miterlimit="10" stroke-width=".52"/>
  <path d="m61.68 116.2h3.95" stroke="#49FFFE" stroke-linecap="round" stroke-miterlimit="10" stroke-width=".52"/>
  <path d="m186.3 114.3 5.3-4.89h6.69l5.79 4.89-6.24 3.92h-5.35l-6.19-3.92z" stroke="#49FFFE" stroke-linecap="round" stroke-miterlimit="10" stroke-width="1.04"/>
  <path d="m191.6 113h3.53" stroke="#49FFFE" stroke-linecap="round" stroke-miterlimit="10" stroke-width=".52"/>
  <path d="m193.8 114.7h1.3" stroke="#49FFFE" stroke-linecap="round" stroke-miterlimit="10" stroke-width=".52"/>
  <path d="m104.3 119.2-5.8 6.23-3.01 5.8 3.01-1.8 1.31-4.49" stroke="#49FFFE" stroke-linecap="round" stroke-miterlimit="10" stroke-width="1.04"/>
  <path d="m186.3 89.42c-4.22 0-6.1 3.42-6.1 5.99 0 3.45 2.76 5.5 5.65 5.5 3.72 0 5.56-3.25 5.56-5.85 0-2.98-2.36-5.64-5.11-5.64z" fill="url(#paint4_radial_9_4118)"/>
  <path d="m186.2 92.4c-1.99 0-2.84 1.71-2.84 3.06 0 1.8 1.38 2.87 2.84 2.87 1.94 0 2.9-1.82 2.9-3.13 0-1.53-1.24-2.8-2.9-2.8z" stroke="#FEFFFE" stroke-linecap="round" stroke-miterlimit="10" stroke-width=".52"/>
  <path d="m172.6 61.08c-6.49 0-9.25 5.53-9.25 9.53 0 5.67 4.52 8.81 9.15 8.81 6.15 0 9-5.47 9-9.51 0-4.93-3.89-8.83-8.9-8.83z" fill="url(#paint5_radial_9_4118)" stroke="#C648FF" stroke-linecap="round" stroke-miterlimit="10" stroke-width=".75"/>
  <path d="m172.5 64.91c-3.69 0-5.27 3.24-5.27 5.61 0 3.24 2.73 5.09 5.35 5.09 3.57 0 5.27-3.35 5.27-5.65 0-2.89-2.32-5.05-5.35-5.05z" stroke="#FEFFFE" stroke-linecap="round" stroke-miterlimit="10" stroke-width=".75"/>
  <path d="m72.22 91.17c-3.79 0-5.06 2.9-5.06 4.95 0 2.94 2.46 4.64 4.96 4.64h3.57l3.53 2.56" stroke="#49FFFE" stroke-linecap="round" stroke-miterlimit="10" stroke-width=".75"/>
  <path d="m72.12 93.41c-1.83 0-2.55 1.46-2.55 2.53 0 1.61 1.33 2.57 2.65 2.57 1.7 0 2.54-1.57 2.54-2.75 0-1.37-1.14-2.35-2.64-2.35z" fill="#FEFFFE"/>
  <path d="m64.67 77.57 4.89 0.45 2.56 2.19" stroke="#22B5FF" stroke-linecap="round" stroke-miterlimit="10" stroke-width=".75"/>
  <path d="m64.67 81.12 5.35-0.44" stroke="#22B5FF" stroke-linecap="round" stroke-miterlimit="10" stroke-width=".75"/>
  <path d="m185.9 82.02 4.89-1.34 3.06-3.11" stroke="#C648FF" stroke-linecap="round" stroke-miterlimit="10" stroke-width=".75"/>
  <path d="m82.65 65.45h7.18v8.26h-7.18v-8.26z" fill="#80F7D4" stroke="#22B5FF" stroke-linecap="round" stroke-miterlimit="10" stroke-width=".52"/>
  <path d="m83.52 67.27h5.68" stroke="#22B5FF" stroke-linecap="round" stroke-miterlimit="10" stroke-width=".52"/>
  <path d="m83.52 68.59h5.68" stroke="#22B5FF" stroke-linecap="round" stroke-miterlimit="10" stroke-width=".52"/>
  <path d="m83.52 69.91h5.68" stroke="#22B5FF" stroke-linecap="round" stroke-miterlimit="10" stroke-width=".52"/>
  <path d="m83.52 71.21h5.68" stroke="#22B5FF" stroke-linecap="round" stroke-miterlimit="10" stroke-width=".52"/>
  <path d="m93.43 71.61v4.89" stroke="#49FFFE" stroke-linecap="round" stroke-miterlimit="10" stroke-width=".75"/>
  <path d="m90.78 79.82-2.66-1.36h-3.05" stroke="#49FFFE" stroke-linecap="round" stroke-miterlimit="10" stroke-width=".75"/>
  <path d="m83.31 87.25c1.05 0 1.61-0.74 1.61-1.55 0-0.96-0.77-1.63-1.61-1.63-1.05 0-1.6 0.74-1.6 1.55 0 0.96 0.76 1.63 1.6 1.63z" stroke="#49FFFE" stroke-linecap="round" stroke-miterlimit="10" stroke-width=".75"/>
  <path d="m174.8 87.62c1.05 0 1.61-0.83 1.61-1.64 0-0.96-0.77-1.63-1.61-1.63-1.05 0-1.61 0.83-1.61 1.64 0 0.96 0.77 1.63 1.61 1.63z" stroke="#49FFFE" stroke-linecap="round" stroke-miterlimit="10" stroke-width=".75"/>
  <path d="m178.3 100.9 4.45-4.89" stroke="#49FFFE" stroke-linecap="round" stroke-miterlimit="10" stroke-width=".75"/>
  <path d="m137.4 154v9.77l11.24 9.29h14.17l14.13 14.39" stroke="#49FFFE" stroke-linecap="round" stroke-miterlimit="10" stroke-width="3.12"/>
  <path d="m153.5 195.3 6.65 0.89 5.79 6.23" stroke="#49FFFE" stroke-linecap="round" stroke-miterlimit="10" stroke-width="1.04"/>
  <path d="m125.2 168.2-12.08 17.47-5.75 0.88-1.32 24.65" stroke="#22B5FF" stroke-linecap="round" stroke-miterlimit="10" stroke-width="1.56"/>
  <path d="m128.7 180.2-11.66 15.32v11.56l6.69 4.94v12.04" stroke="#22B5FF" stroke-linecap="round" stroke-miterlimit="10" stroke-width="1.56"/>
  <path d="m139.1 188.7-5.8 7.9v5.33l-1.04 1.32" stroke="#22B5FF" stroke-linecap="round" stroke-miterlimit="10" stroke-width="1.04"/>
  <path d="m147.4 213.4v-12.04l-9.26-14.31v-1.8l-7.87-7.05" stroke="#22B5FF" stroke-linecap="round" stroke-miterlimit="10" stroke-width="1.56"/>
  <path d="m128.3 152.6 6.2-5.33v-13.9" stroke="#49FFFE" stroke-linecap="round" stroke-miterlimit="10" stroke-width="1.04"/>
  <path d="m128.6 142.3c-1.66 0-2.16 1.35-2.16 2.31 0 1.42 1.19 2.29 2.25 2.29 1.51 0 2.24-1.5 2.24-2.56 0-1.26-1.07-2.04-2.33-2.04z" stroke="#49FFFE" stroke-linecap="round" stroke-miterlimit="10" stroke-width=".75"/>
  <path d="m128.7 201.5c-1.99 0-2.59 1.38-2.59 2.44 0 1.67 1.49 2.55 2.64 2.55 1.75 0 2.59-1.67 2.59-2.86 0-1.45-1.24-2.13-2.64-2.13z" stroke="#22B5FF" stroke-linecap="round" stroke-miterlimit="10" stroke-width="1.04"/>
  <path d="m139.1 175.1 6.69 9.78h5.3l1.76 2.61v10.74l6.68 7" stroke="#22B5FF" stroke-linecap="round" stroke-miterlimit="10" stroke-width="1.56"/>
  <path d="m119.7 154.4h-1.32v10.73l-10.21 10.29h-12.22l-16.45 14.31" stroke="#49FFFE" stroke-linecap="round" stroke-miterlimit="10" stroke-width="2.08"/>
  <path d="m93.92 202.6 5.3-7.49h4.45l2.61-2.61" stroke="#22B5FF" stroke-linecap="round" stroke-miterlimit="10" stroke-width="1.56"/>
  <path d="m100.1 180.7-3.05 3.05" stroke="#22B5FF" stroke-linecap="round" stroke-miterlimit="10" stroke-width="1.56"/>
  <path d="m95.22 186.1c1.56 0 2.16-1.33 2.16-2.34 0-1.42-1.24-2.24-2.26-2.24-1.51 0-2.34 1.45-2.34 2.55 0 1.35 1.14 2.03 2.44 2.03z" stroke="#22B5FF" stroke-linecap="round" stroke-miterlimit="10" stroke-width="1.04"/>
  <path d="m162.8 186.5c1.56 0 2.16-1.32 2.16-2.34 0-1.42-1.24-2.24-2.26-2.24-1.51 0-2.34 1.46-2.34 2.56 0 1.35 1.14 2.02 2.44 2.02z" stroke="#49FFFE" stroke-linecap="round" stroke-miterlimit="10" stroke-width="1.04"/>
  <defs>
    <radialGradient id="paint0_radial_9_4118" cx="0" cy="0" r="1" gradientTransform="translate(128.4 128.1) scale(143.6 143.6)" gradientUnits="userSpaceOnUse">
      <stop stop-color="#FEFFFE" offset="0"/>
      <stop stop-color="#FEFFFE" offset=".21"/>
      <stop stop-color="#B3FEFF" offset=".515"/>
      <stop stop-color="#D7BEFF" offset=".81"/>
      <stop stop-color="#FEFFFE" offset="1"/>
    </radialGradient>
    <linearGradient id="paint1_linear_9_4118" x1="129" x2="129" y1="4.166" y2="248" gradientUnits="userSpaceOnUse">
      <stop stop-color="#9129CC" offset="0"/>
      <stop stop-color="#292969" offset=".48"/>
      <stop stop-color="#0169B0" offset="1"/>
    </linearGradient>
    <linearGradient id="paint2_linear_9_4118" x1="128.1" x2="128.1" y1="21.13" y2="231.1" gradientUnits="userSpaceOnUse">
      <stop stop-color="#290588" offset="0"/>
      <stop stop-color="#007293" offset="1"/>
    </linearGradient>
    <radialGradient id="paint3_radial_9_4118" cx="0" cy="0" r="1" gradientTransform="translate(116.2 56.56) scale(4.029 4.028)" gradientUnits="userSpaceOnUse">
      <stop stop-color="#0ff" offset="0"/>
      <stop stop-color="#007293" stop-opacity=".21" offset="1"/>
    </radialGradient>
    <radialGradient id="paint4_radial_9_4118" cx="0" cy="0" r="1" gradientTransform="translate(186.3 95.17) scale(5.605 5.603)" gradientUnits="userSpaceOnUse">
      <stop stop-color="#0ff" offset="0"/>
      <stop stop-color="#007293" stop-opacity=".21" offset="1"/>
    </radialGradient>
    <radialGradient id="paint5_radial_9_4118" cx="0" cy="0" r="1" gradientTransform="translate(172.4 69.91) scale(9.07 9.067)" gradientUnits="userSpaceOnUse">
      <stop stop-color="#0ff" offset="0"/>
      <stop stop-color="#007293" stop-opacity=".21" offset="1"/>
    </radialGradient>
  </defs>
</svg>