<svg xmlns="http://www.w3.org/2000/svg" width="250" height="250" fill="none" viewBox="0 0 250 250">
<!-- SVG created with Arrow, by QuiverAI (https://quiver.ai) -->
  <path d="m11.96 44.71 112.4-38.71 113.6 39.43-0.5 24.64-8.7 75.31-21.45 43.73-34.05 35.11-48.3 23.78-48-28.5-32.5-37-17.5-41.5-10.5-63-4.45-33.29z" fill="url(#paint0_angular_4_2212)"/>
  <path d="m224.4 48.63-100-38.4-100 38.4c0.8 24.46 6.57 86 23.57 121.3s55.03 60.75 76.48 70.09c23.7-10.28 62.05-36.32 79.05-73.08 13-30.1 19.8-84.73 21-118.3z" fill="#43D98A"/>
  <path d="m33.26 53.81 91.1-35.81 91.1 36.28c-1.35 26.38-7.75 83.87-22.35 113.5-13.5 29.43-44.5 52.99-68.5 63.55-24-12.32-54.6-35.31-69.5-62.18-14-27.32-21.3-82.64-21.85-115.4z" fill="url(#paint1_angular_4_2212)"/>
  <path d="m124.3 237.5c23.3-9.94 58.79-35.04 75.59-69.44 12.8-27.81 21.8-82.44 23.7-119.5l-99.25-38.58-100.2 38.4c0.8 24.46 6 80.26 22.5 118.7 15.4 33.61 50.5 58.52 77.61 70.4zm-91.11-183.7 91.11-35.81 91.09 36.28c-1.35 26.38-7.75 83.87-22.35 113.5-13.5 29.43-44.5 52.99-68.5 63.55-24-12.32-54.6-35.31-69.5-62.18-14-27.32-21.3-82.64-21.85-115.4z" fill="#43D98A"/>
  <path d="m125.7 224.4 22.2-34.03c3-4.24 5 0.9 6 6.87l-8.3 7.81-3.5-3.43-1.2 11.58c6.5-2.15 15.7-10.46 19.6-14.07-1.4-5.83-4.6-10.17-6.2-11.43 5.4 0 10.4 3.2 12.3 5.22l5.8-5.67c-1.9-4.45-5-7.65-6.4-8.76l11.8 2.72 8.5-12.93 0.1-0.23c-5.9 6.05-10.1 7.98-15.7 6.87-11.7-2.44-27.1-8.54-30.1-13.17s-4.4-22.95-4.8-30.12c-2.7 3.56-4.1 11.78-4.9 14.41-0.7-10.13 2.6-21.34 10.5-29.84 5.3-3.25 14.6-5.14 20-3.61 9.4 2.25 21.2 8.71 25.6 12.15 4.4 3.43 7.2 4.18 9.9 8.72-1.6 0.05-8.2-0.51-10.1-6.37-1.2-3.89-8.9-6.98-13.9-8 1.5 2.02 4.5 3.95 4.7 8.81 0.2 3.73-2 7.11-1.1 8.32-3.5-2.29-5.9-8.32-5.1-11.3 0.6-2.3 0.7-3.9 0.6-4.6-4-2.52-12.5-5.81-16-4.61-4 1.39-6.8 0.09-7.2-0.27 1.2 3.47 2.6 8.66 8.6 9.96 3.2 0.7 5.4 1.02 6.2 1.06-0.9-4.76-3.7-9.72-10.5-10.35-5.4-0.5-11.8 1.8-15.2 7.09-3 4.6-4.2 7.47-4.9 13.96l2.1-16.14-2.5-6.33c-0.6-10.47 5.7-21.32 18.4-24.52 3.9-1.07 8.4-1.16 9.6-1.25l-1.7 6.05c5.1 0.18 9.9-3.96 11.9-6.87l3.9 0.27c-6.7 9.72-19.6 17.75-28.6 18.68-8.9 1.12-12.6 6.17-13.7 7.83-1-10.22 5.6-21.33 16.6-24.8 8.9-2.67 19.2-1.07 28.6-16.77 3.2-1.21 7.2-0.64 8.7-0.09-4.6 10.22-15.2 25.47-27.4 34.01 7.5 2.62 11.1 5.45 18.9 3.79 9.1-1.81 15.3-8.31 20.6-12.1l-14.8-9.02 6.8-19.7c-7-1.59-13.7-0.89-17.5 0 1.2-5.67 0-16.19-2.2-20.73-8.8 0.69-19 4.93-23.3 8.5 0.6-7.17-5.4-17.83-8.9-21.48l-2.3 2.11 0.6 3.56 1.9-1.35c4.9 6.9 7.7 15.3 4.7 23.38l-5.8 6.46c-4.3-8.4-15.4-18.12-18.9-27.75 2.1-2.58 3.9-7.44 1.3-12.4l-0.7-0.51c-6.4 6.18-3.2 13.81-0.7 17.72s4.3 6.16 4.6 6.58l-2.7-0.79-10.5 15.46c-5.8-7.54-4.9-17.25 2.7-27.35l-1.7-4.85c-5.7 4.14-8.8 14.18-8.9 20.05-7-4.74-15.1-6.81-21.7-7.6-2.7 6.05-3.8 13.09-2 20.85-4.8-1.16-12.4-1.16-19.9 0.87 6.8 14.58 16.6 28.36 28 35.94-4.6 2.34-14.4 6.44-25.1-3.1-2.7-2.2-4.5-4.92-5.6-5.72l10.3-5.58-1-2.67-15.7 9.63c5.6 7.53 11.8 13.98 21 14.95l-9.4 8.63c-6 1.35-7.5 6.16-8.9 10.62 5.8-0.65 10.7-2.99 11.4-7.62 5.8-5.81 14.9-12.31 26.6-13.79 6.9-0.56 17.3 2.78 20.3 9.23s2.9 8.61 0.4 35.44l-0.4 0.7c4.8-3.89 7.7-10.39 9.6-16.34-1.1 11.48-6.1 18.02-16 23.89-8 4.31-17.6 9.05-28 9.37-5.1-0.09-9.9-3.43-13.3-6.19l7.3 12.57 11.3-1.93-4.8 9.45 4.8 4.64c4.2-4.09 9.5-4.88 13.2-4.64-5 4.96-5.2 10.77-5.7 11.47l17.8 12.94 1.4-5.81 14.2-11.4-3.5-2.71-13.7 11.82-8.7-7.02c-0.3-3.3 2.5-7.1 4.5-8.31 2.7 1.53 5 6.44 5.8 8.31l5.1-4c-2.1-2.29-4.7-6-3.3-8.39l3.9-3.29 18.9 17.77 3.7-3.79-12.5-11.2c-4.2-4-3.5-9.58 0.1-14.31 4.6-5.76 6-10.22 6.9-14.6 0.7 7.76-1.2 13.01-3.3 15.93 3.9 5.01 3.9 11.59 0 14.31l9.1-4.73c2.7 2.91 6.8 5.11 4.8 8.55l-15.3 22.95-8.3-10.8 7.5 21.74 1.8 0.56z" fill="#43D98A" stroke="#43D98A" stroke-miterlimit="10" stroke-width=".75"/>
  <path d="m109.7 90.23c0.1-7.68 0.3-14.22 10.8-32.53 5.9 6.04 13.4 14.13 14.2 22.4 0.9 9.71-4.7 17.39-10.9 24.65-5.7-6.74-10.4-14.04-10.6-21.84-0.3-8.85 6.5-18.89 7.7-21.19-3.5 3.8-9.8 13.43-10.9 17.18-1.6 5.72-0.3 11.33-0.3 11.33z" fill="#B139F7" stroke="#43D98A" stroke-miterlimit="10" stroke-width=".75"/>
  <path d="m141.3 87.08c-1.1-15.06 5.7-31.63 27.3-35.06 1.5 5.82 1.6 14.76-2.4 20.09-6.8 9.12-13.1 10.98-24.9 14.97z" fill="#76A1F7" stroke="#43D98A" stroke-miterlimit="10" stroke-width="2"/>
  <path d="m104.9 86.62c-10.9-3.2-19.7-7.7-24.6-17.53-1.5-3.9-0.8-11.98 0-17.27 9.7 1.26 22.6 7.44 27 18.11 1.9 5 1.1 10.82 0 17.15l-2.4-0.46z" fill="#76A1F7" stroke="#43D98A" stroke-miterlimit="10" stroke-width="2"/>
  <path d="m118.6 79.22c4.1 3.2 8.4 5.73 7.5 15.76-4.2-3.73-9.2-5.92-7.5-15.76z" fill="#43D98A" stroke="#43D98A" stroke-miterlimit="10" stroke-width=".75"/>
  <path d="m136.6 46.82c3.5 3.68 5.4 7.41-0.6 15.31-2.8-4.86-4.8-8.6 0.6-15.31z" fill="#43D98A" stroke="#43D98A" stroke-miterlimit="10" stroke-width=".75"/>
  <path d="m112.3 46.82c3.8 5.19 4.4 7.49-1 15.31-3.7-4.24-4.3-7.62 1-15.31z" fill="#43D98A" stroke="#43D98A" stroke-miterlimit="10" stroke-width=".75"/>
  <path d="m124.4 64.16c4.3 4.63 5.2 8.88 2.3 15.76l-2.3-0.7c-3.4-4.35-3.8-8.6 0-15.06z" fill="#43D98A" stroke="#43D98A" stroke-miterlimit="10" stroke-width=".75"/>
  <path d="m160.9 58.12c5.2 5.76 3.5 9.91-2.5 15.49-3.1-5.72-2.2-9.91 2.5-15.49z" fill="#43D98A" stroke="#43D98A" stroke-miterlimit="10" stroke-width=".75"/>
  <path d="m88.41 58.59c5.2 4.63 5.4 8.87 1.2 14.12-5.2-4.36-5.5-7.88-1.2-14.12z" fill="#43D98A" stroke="#43D98A" stroke-miterlimit="10" stroke-width=".75"/>
  <path d="m95.61 39.24c5.2 4.73 5.2 8.79 2.4 13.42-5-3.65-5.9-6.56-2.4-13.42z" fill="#43D98A" stroke="#43D98A" stroke-miterlimit="10" stroke-width=".75"/>
  <path d="m154.1 39.51c3.6 4.64 2.5 9.6-3.9 13.61-2.6-5.86-1.2-8.83 3.9-13.61z" fill="#43D98A" stroke="#43D98A" stroke-miterlimit="10" stroke-width=".75"/>
  <path d="m60.71 56.01c3.6 0 10 0 11.9 9.04-6.5 0.56-9.7-2.64-11.9-9.04z" fill="#43D98A" stroke="#43D98A" stroke-miterlimit="10" stroke-width=".75"/>
  <path d="m187.6 56.56c-1.5 6.09-3.9 8.96-11.7 9.52 1.5-6.45 5-9.26 11.7-9.52z" fill="#43D98A" stroke="#43D98A" stroke-miterlimit="10" stroke-width=".75"/>
  <path d="m46.21 83.09c7-2.03 11.6-2.21 16.2 4.24-5.4 2.3-9.5 3.6-16.2-4.24z" fill="#43D98A" stroke="#43D98A" stroke-miterlimit="10" stroke-width=".75"/>
  <path d="m186.6 87.28c4.6-6.05 8.8-6.57 16.1-4.37-5.5 7-9.7 7.41-16.1 4.37z" fill="#43D98A" stroke="#43D98A" stroke-miterlimit="10" stroke-width=".75"/>
  <path d="m47.11 115.7c5.5-3.21 8.6-4.41 15 0.22-4.9 3.44-9.2 4.27-15-0.22z" fill="#43D98A" stroke="#43D98A" stroke-miterlimit="10" stroke-width=".75"/>
  <path d="m186.2 115.6c4.9-3.47 8.1-4.39 15.2-0.14-5.5 4.54-9.7 4.67-15.2 0.14z" fill="#43D98A" stroke="#43D98A" stroke-miterlimit="10" stroke-width=".75"/>
  <path d="m74.31 119.1c4.3 5.82 2.8 10.16-2.6 16.2-2.8-6.64-2.7-9.89 2.6-16.2z" fill="#43D98A" stroke="#43D98A" stroke-miterlimit="10" stroke-width=".75"/>
  <path d="m86.71 126.2c1.5-6.14 3.6-9.23 11.7-9.97-1.7 7.53-4.9 9.64-11.7 9.97z" fill="#43D98A" stroke="#43D98A" stroke-miterlimit="10" stroke-width=".75"/>
  <path d="m95.31 94.1c6.7 0.92 9.7 2.95 12.4 9.68-7.8-0.36-10.2-3.08-12.4-9.68z" fill="#43D98A" stroke="#43D98A" stroke-miterlimit="10" stroke-width=".75"/>
  <path d="m62.71 100.3c5.2-0.92 9.4-0.56 12.6 5.68-6.4 1.82-9.9 0-12.6-5.68z" fill="#43D98A" stroke="#43D98A" stroke-miterlimit="10" stroke-width=".75"/>
  <path d="m173.2 106c3.2-5.95 5.1-7.15 13-6.4-2.5 6.45-6.3 7.9-13 6.4z" fill="#43D98A" stroke="#43D98A" stroke-miterlimit="10" stroke-width=".75"/>
  <path d="m141.3 103.2c3.7-7.17 6.5-8.01 12.9-8.8-1.5 6.59-5 8.8-12.9 8.8z" fill="#43D98A" stroke="#43D98A" stroke-miterlimit="10" stroke-width=".75"/>
  <path d="m95.61 68.81 7 4.96 1.5 8.22-6.4-2.77-2.1-5.45v-4.96z" fill="#43D98A" stroke="#43D98A" stroke-miterlimit="10" stroke-width=".75"/>
  <path d="m153.9 68.81-0.8 7.2-7 4.09c-0.8-5.81 2.6-8.73 7.8-11.29z" fill="#43D98A" stroke="#43D98A" stroke-miterlimit="10" stroke-width=".75"/>
  <path d="m75.21 83.78 5.5-0.46 5.8 2.3-1.5 1.46-7.2 0.93-2.6-4.23z" fill="#43D98A" stroke="#43D98A" stroke-miterlimit="10" stroke-width=".75"/>
  <path d="m161.9 84.62 5.8-0.56 4.2-0.74 0.5 4.01-3.4 1.36-4-1.36-3.1-2.71z" fill="#43D98A" stroke="#43D98A" stroke-miterlimit="10" stroke-width=".75"/>
  <path d="m78.21 90.18 9.1-0.7 0.6 4.95 1.6-0.69v-3.56c7.5-1.16 17.6 0.98 23.6 10.85 4.8 7.9 7.6 12.8 7.8 25.49-2.9-12.32-8.7-17.9-22.1-19.6-11-1.2-19.8-9.87-23.6-14.6l3-2.14z" fill="#B139F7" stroke="#43D98A" stroke-miterlimit="10" stroke-width=".75"/>
  <path d="m83.81 185.3c3.3-8.22 10.3-9.91 13.4-10.09l0.4 5.67c4.2-0.79 5.1-4.44 5.4-6.7 2.7-2.19 7.2-3.78 10.4-4.62-2.1 9.2-10.7 14.16-29.6 15.74z" fill="#B139F7" stroke="#43D98A" stroke-miterlimit="10" stroke-width=".75"/>
  <path d="m135 169.6c2.3 1.83 4.7 3.41 8.4 4.11s4.5 5.05 5.2 6.49l3.9 0.9c-0.2-3.15 0-5.07 0.6-5.4 5.9 1.54 10.9 3.61 13.4 10.19-6.1 0.7-21.5-2.78-28.5-8.65l-3-7.64z" fill="#B139F7" stroke="#43D98A" stroke-miterlimit="10" stroke-width=".75"/>
  <defs>
    <radialGradient id="paint0_angular_4_2212" cx="0" cy="0" r="1" gradientTransform="translate(124.9 82.82) rotate(90) scale(107.8 112.4)" gradientUnits="userSpaceOnUse">
      <stop stop-color="#0ff" offset="0"/>
      <stop stop-color="#43D98A" offset=".4792"/>
      <stop stop-color="#A757F7" offset=".8174"/>
      <stop stop-color="#F061FF" offset="1"/>
    </radialGradient>
    <radialGradient id="paint1_angular_4_2212" cx="0" cy="0" r="1" gradientTransform="translate(124.4 124.5) rotate(90) scale(101.5 96.01)" gradientUnits="userSpaceOnUse">
      <stop stop-color="#0ff" offset="0"/>
      <stop stop-color="#E0F9FE" offset=".5208"/>
      <stop stop-color="#FEFFFE" offset="1"/>
    </radialGradient>
  </defs>
</svg>