<svg xmlns="http://www.w3.org/2000/svg" width="222" height="222" fill="none" viewBox="0 0 222 222">
<!-- SVG created with Arrow, by QuiverAI (https://quiver.ai) -->
  <path d="m110.6 2.5-25.28 6.62-1.64 2.97-31.49 8.86-5.9-1.79-27.64 9.43-0.11 0.04-0.02 0.51c-0.37 10.03 0.06 18.84 0.48 28.13l0.01 0.25 5.74 6.07c1.35 20.34 4.87 40.02 11.58 66.25l-7.68 14.59 0.21 0.36c10.91 19.18 25.53 34.6 39.9 45.49l0.42 0.33 7.79-3.35 9.44 7.15 0.75 8.4 23.44 16.69 23.95-16.69 1.15-8.11 9.6-7.39 7.7 3.76 0.42-0.35c14.45-12.01 27.91-27.6 38.95-45.78l0.25-0.41-7.49-13.56c6.73-22.79 10.52-40.64 12.32-67.82l4.43-5.64 0.03-0.23c0.64-8.39 0.89-17.82 0.64-29.15l-0.02-0.54-27.67-8.93-4.71 1.97-31.49-8.32-1.64-2.22-26.42-7.59z" fill="url(#paint0_linear_844_612)" stroke="url(#paint0_linear_844_612)" stroke-miterlimit="10" stroke-width="1.25"/>
  <path d="m110.3 5.08-23.43 6.19-1.59 2.84-32.6 9.31-6.32-2.61-25.05 9.5c-0.43 8.65-0.1 17.4 0.28 25.91l5.9 6.49c0.88 19.46 4.2 41.09 11.26 66l-7.69 15.8c10.36 18.05 24.15 32.48 38.03 43.3l8.71-4 9.79 8 1.16 9.44 21.55 14.88 22.12-14.88 1.69-11.05 10.74-7.12 7.75 4.93c13.02-11.04 26.07-25.84 37.3-43.53l-8.4-14.92c7.61-23.55 10.9-42.3 12.99-68.3l4.98-6.02c0.59-7.93 0.79-15.93 0.59-24.17l-25.41-8.93-5.14 2.56-31.75-9.33-1.64-2.77-25.82-7.52z" fill="url(#paint2_linear_844_612)" stroke="url(#paint2_linear_844_612)" stroke-miterlimit="10" stroke-width="1.25"/>
  <path d="m23.36 31.08 22.56-7.66 6.31 2.94 30.76-8.85-4.4 7.02-47.15 13.22c0.62 22.12 2.03 46.32 8.84 80.35l-1 7.71-2.19-0.71c-5.87-22.03-8.98-42.38-9.88-63.99l-4.8-6.02c-0.33-7.78-0.1-15.58 0.95-24.01z" fill="url(#paint4_linear_844_612)" stroke="url(#paint4_linear_844_612)" stroke-miterlimit="10" stroke-width="1.25"/>
  <path d="m139.8 15.11 29.35 8.31 5.34-3.06 24.88 8.75 0.63 1.14c0.21 8.31-0.33 16.94-0.91 25.71l-5.19 6.49c-1 19.46-4.19 41.53-11.25 63.83l-4.91-6 1.39-5.81c6.01-25.41 8.78-46.29 9.21-76.3l-44.49-13.47-4.05-9.59z" fill="url(#paint6_linear_844_612)" stroke="url(#paint6_linear_844_612)" stroke-miterlimit="10" stroke-width="1.25"/>
  <path d="m33.72 144.4 11.14-21.38 7.22 20.01c11.03 17.19 26.6 32.22 58.13 54.24 27.85-17.72 48.01-34.18 59.59-54.24l6.82-19.65 12 21.54c-9.66 16.17-21.67 30.12-28.47 36.19l-7.84 5.78-8.6-5.36-8.79 6.72-2.42 12.11-22.19 14.11-19.97-13.96-2.01-19.83-9.6-4.93-7.52 8.86-9.99-7.27 5.2-2.96c-11.5-9.92-22.49-18.88-32.7-29.98z" fill="url(#paint8_linear_844_612)" stroke="url(#paint8_linear_844_612)" stroke-miterlimit="10" stroke-width="1.25"/>
  <path d="m110.1 15.59-75.43 22.81c0.63 25.55 2.47 45.65 10.19 72.56 5.14 17.35 4.48 27.03 14.84 40.16 14.19 19.09 30.66 32.63 50.6 42.59 20.67-12.63 37.81-25.54 52.61-43.52 10.93-14.87 23.2-56.57 22.77-111l-75.58-23.58z" fill="url(#paint10_linear_844_612)" stroke="url(#paint10_linear_844_612)" stroke-miterlimit="10" stroke-width="2.5"/>
  <path d="m110 18.89-72.95 22.2c0 23.39 2.42 42.9 9.14 69.24 4.68 16.45 5.11 26.28 14.67 38.98 12.23 16.87 27.98 29.33 49.41 40.4 17.61-11.04 33.3-21.98 46.75-38.98 12.66-16.36 26.2-56.1 26.87-109.9l-73.89-21.91z" fill="#FEFFFE" stroke="url(#paint12_linear_844_612)" stroke-miterlimit="10" stroke-width="2.5"/>
  <path d="m137.3 13.11 1.53 2.29 30.35 8.76 5.13-2.85 25.42 8.94 0.3 0.83" stroke="url(#paint13_linear_844_612)" stroke-miterlimit="10" stroke-width="1.25"/>
  <path d="m84.14 13.84-31.67 9.3-6.32-2.73" stroke="url(#paint14_linear_844_612)" stroke-miterlimit="10" stroke-width="1.25"/>
  <path d="m86.22 12.57-7.99 12.11 31.81-8.66 32.27 8.66-6.65-12.11-25.41-6.65-24.03 6.65z" fill="url(#paint15_linear_844_612)" stroke="url(#paint15_linear_844_612)" stroke-miterlimit="10" stroke-width="1.25"/>
  <path d="m43.15 141c2.13 0 2.5-1.58 2.43-2.58-0.12-1.34-1.07-1.33-2.07-1.33-1.37 0-2.5 0.99-2.5 2.33 0 1.33 1.12 1.58 2.14 1.58z" stroke="url(#paint17_linear_844_612)" stroke-miterlimit="10" stroke-width="1.25"/>
  <path d="m178.4 142.5c2.13 0 2.75-1.2 2.68-2.75-0.08-1.72-1.16-2.12-2.3-2-1.58 0.18-2.37 1.1-2.23 2.57 0.14 1.48 0.83 2.18 1.85 2.18z" stroke="url(#paint18_linear_844_612)" stroke-miterlimit="10" stroke-width="1.25"/>
  <path d="m42.72 148.6 5.5-0.28 3.43 6.37 5.51 7.31 5.25 4.86v6.3l-2.94 2.96-11.14-13.94-5.24-9.08-0.37-4.5z" stroke="url(#paint19_linear_844_612)" stroke-miterlimit="10" stroke-width="1.25"/>
  <path d="m50.01 159.5 2.85-0.22 0.85 1.14-2.22 0.62" stroke="url(#paint20_linear_844_612)" stroke-miterlimit="10" stroke-width="1.25"/>
  <path d="m54.13 165.1 2.85-0.28 0.84 1.13-1.5 0.56" stroke="url(#paint21_linear_844_612)" stroke-miterlimit="10" stroke-width="1.25"/>
  <path d="m160 168.8 12.8-13.34 1.91-0.29 4.01-7.02-5.92 0.28-12.8 20.37z" stroke="url(#paint22_linear_844_612)" stroke-miterlimit="10" stroke-width="1.25"/>
  <path d="m166.5 165.8 2.85-0.43" stroke="url(#paint23_linear_844_612)" stroke-miterlimit="10" stroke-width="1.25"/>
  <path d="m167.5 162.2 2.85-0.43" stroke="url(#paint24_linear_844_612)" stroke-miterlimit="10" stroke-width="1.25"/>
  <path d="m138.9 113.8 31.81 3.41 3.19-12.11 0.3-0.82-34.3 3.76-1-3.19 29.19-6.59 0.9-1.69-2.34-1.35-27.54 7.64-1.36-3.6 40.84-16.65 2.1-20.36-45.37 31.32-2.56-2.22 22.19-20.72v-2.96h-3.17l-20.29 21.34-3.2-1.44 36.17-50.59-19.83-5.92-23.54 52.6-3.46-1.3 10.36-30.18-1.64-2.49-2.08 1.62-9.63 31.05-1.44-0.5 7.59-58.28-10.7-2.39-9.63 2.39 5.33 58.28-2.74 0.5-6.35-31.05-2.01-1.36-1.16 2.66 6.46 31.26-1.84 0.69-20.96-53.5-19.98 5.92 35.06 50.59-2.38 1.88-19.39-21.78h-3.88v2.96l20.66 19.31-0.25 2.22-44.67-31.32 0.34 21.77 40.99 17.45-1.4 2.8-27.54-7.85-2.3 1.76 2.22 2.08 26.72 6.25-0.36 2.16-34.18-3.05 3.56 12.18 31.06-1.97 0.36 2.79-27.02 6.58-1.57 2.6 2.67 0.9 26.78-8.39 1 3.48-27.85 12.46c0.84 4.93 2.62 7.22 5.04 10.54l26.4-17.35 1.81 2.83-18.63 19.21-0.25 2.52h2.68l19.03-18.97 1.75 1.96-20.36 26.17c3.49 4.14 6.28 6.61 11.62 10.02l13.49-33.61 2.92 1.52-7.45 28.88 1.94 1.7 2.01-1.7 6.65-28.6 2.55 0.62-5.34 43.59 8.59 5.49 8.6-5.49-5.34-44.21 3.2-0.6 7.22 30.2 1.94 1.52 1.64-2.77-8.33-29.24 2.74-1.39 14.73 34.09c3.5-3.03 6.7-5.71 10.57-10.02l-19.19-26.59 2.89-2.4 16.73 19.62 3.42 0.21 1-3.03-19.03-18.41 1.64-2.56 25.67 17.78c2.42-2.77 4.43-6.6 4.87-11.21l-27.44-12.99 1.08-3.13 26.36 8.25 3.35-1.6-1.96-2.53-27.08-5.95-0.67-3.41z" fill="#E6B629" stroke="url(#paint25_linear_844_612)" stroke-miterlimit="10" stroke-width="1.5"/>
  <defs>
    <linearGradient id="paint0_linear_844_612" x1="18.15" x2="133" y1="2.5" y2="239" gradientUnits="userSpaceOnUse">
      <stop stop-color="#31F8FF" offset="0"/>
      <stop stop-color="#5372F0" offset=".4844"/>
      <stop stop-color="#CA00F6" offset="1"/>
    </linearGradient>
    <linearGradient id="paint2_linear_844_612" x1="110.2" x2="110.2" y1="5" y2="216.3" gradientUnits="userSpaceOnUse">
      <stop stop-color="#B6821B" offset="0"/>
      <stop stop-color="#F0C036" offset=".3021"/>
      <stop stop-color="#D9A836" offset=".6406"/>
      <stop stop-color="#B07600" offset="1"/>
    </linearGradient>
    <linearGradient id="paint4_linear_844_612" x1="22.18" x2="47.19" y1="23.14" y2="131.4" gradientUnits="userSpaceOnUse">
      <stop stop-color="#B6821B" offset="0"/>
      <stop stop-color="#F0C036" offset=".3021"/>
      <stop stop-color="#D9A836" offset=".6406"/>
      <stop stop-color="#B07600" offset="1"/>
    </linearGradient>
    <linearGradient id="paint6_linear_844_612" x1="139.8" x2="202.6" y1="14.83" y2="88.16" gradientUnits="userSpaceOnUse">
      <stop stop-color="#B6821B" offset="0"/>
      <stop stop-color="#F0C036" offset=".3021"/>
      <stop stop-color="#D9A836" offset=".6406"/>
      <stop stop-color="#B07600" offset="1"/>
    </linearGradient>
    <linearGradient id="paint8_linear_844_612" x1="110.7" x2="110.7" y1="122.8" y2="215.1" gradientUnits="userSpaceOnUse">
      <stop stop-color="#B6821B" offset="0"/>
      <stop stop-color="#F0C036" offset=".3021"/>
      <stop stop-color="#D9A836" offset=".6406"/>
      <stop stop-color="#B07600" offset="1"/>
    </linearGradient>
    <linearGradient id="paint10_linear_844_612" x1="110.2" x2="110.2" y1="15.59" y2="193.7" gradientUnits="userSpaceOnUse">
      <stop stop-color="#31F8FF" offset="0"/>
      <stop stop-color="#5372F0" offset=".4844"/>
      <stop stop-color="#CA00F6" offset="1"/>
    </linearGradient>
    <linearGradient id="paint12_linear_844_612" x1="110.5" x2="110.5" y1="18.89" y2="189.7" gradientUnits="userSpaceOnUse">
      <stop stop-color="#31F8FF" offset="0"/>
      <stop stop-color="#5372F0" offset=".4844"/>
      <stop stop-color="#CA00F6" offset="1"/>
    </linearGradient>
    <linearGradient id="paint13_linear_844_612" x1="137.8" x2="195.3" y1="13.11" y2="37.89" gradientUnits="userSpaceOnUse">
      <stop stop-color="#31F8FF" offset="0"/>
      <stop stop-color="#5372F0" offset=".4844"/>
      <stop stop-color="#CA00F6" offset="1"/>
    </linearGradient>
    <linearGradient id="paint14_linear_844_612" x1="46.15" x2="74.01" y1="19.93" y2="34" gradientUnits="userSpaceOnUse">
      <stop stop-color="#31F8FF" offset="0"/>
      <stop stop-color="#5372F0" offset=".4844"/>
      <stop stop-color="#CA00F6" offset="1"/>
    </linearGradient>
    <linearGradient id="paint15_linear_844_612" x1="110.2" x2="110.2" y1="5.635" y2="25.1" gradientUnits="userSpaceOnUse">
      <stop stop-color="#B6821B" offset="0"/>
      <stop stop-color="#F0C036" offset=".3021"/>
      <stop stop-color="#D9A836" offset=".6406"/>
      <stop stop-color="#B07600" offset="1"/>
    </linearGradient>
    <linearGradient id="paint17_linear_844_612" x1="43.29" x2="43.29" y1="136.8" y2="141.3" gradientUnits="userSpaceOnUse">
      <stop stop-color="#31F8FF" offset="0"/>
      <stop stop-color="#5372F0" offset=".4844"/>
      <stop stop-color="#CA00F6" offset="1"/>
    </linearGradient>
    <linearGradient id="paint18_linear_844_612" x1="178.8" x2="178.8" y1="137.4" y2="142.8" gradientUnits="userSpaceOnUse">
      <stop stop-color="#31F8FF" offset="0"/>
      <stop stop-color="#5372F0" offset=".4844"/>
      <stop stop-color="#CA00F6" offset="1"/>
    </linearGradient>
    <linearGradient id="paint19_linear_844_612" x1="52.75" x2="52.75" y1="147.9" y2="176.1" gradientUnits="userSpaceOnUse">
      <stop stop-color="#31F8FF" offset="0"/>
      <stop stop-color="#5372F0" offset=".4844"/>
      <stop stop-color="#CA00F6" offset="1"/>
    </linearGradient>
    <linearGradient id="paint20_linear_844_612" x1="52.35" x2="52.35" y1="159.2" y2="161" gradientUnits="userSpaceOnUse">
      <stop stop-color="#31F8FF" offset="0"/>
      <stop stop-color="#5372F0" offset=".4844"/>
      <stop stop-color="#CA00F6" offset="1"/>
    </linearGradient>
    <linearGradient id="paint21_linear_844_612" x1="56.05" x2="56.05" y1="164.7" y2="166.6" gradientUnits="userSpaceOnUse">
      <stop stop-color="#31F8FF" offset="0"/>
      <stop stop-color="#5372F0" offset=".4844"/>
      <stop stop-color="#CA00F6" offset="1"/>
    </linearGradient>
    <linearGradient id="paint22_linear_844_612" x1="169.4" x2="169.4" y1="147.8" y2="168.8" gradientUnits="userSpaceOnUse">
      <stop stop-color="#31F8FF" offset="0"/>
      <stop stop-color="#5372F0" offset=".4844"/>
      <stop stop-color="#CA00F6" offset="1"/>
    </linearGradient>
    <linearGradient id="paint23_linear_844_612" x1="167.9" x2="167.9" y1="165.3" y2="165.8" gradientUnits="userSpaceOnUse">
      <stop stop-color="#31F8FF" offset="0"/>
      <stop stop-color="#5372F0" offset=".4844"/>
      <stop stop-color="#CA00F6" offset="1"/>
    </linearGradient>
    <linearGradient id="paint24_linear_844_612" x1="169" x2="169" y1="161.7" y2="162.3" gradientUnits="userSpaceOnUse">
      <stop stop-color="#31F8FF" offset="0"/>
      <stop stop-color="#5372F0" offset=".4844"/>
      <stop stop-color="#CA00F6" offset="1"/>
    </linearGradient>
    <linearGradient id="paint25_linear_844_612" x1="110.2" x2="110.2" y1="20.49" y2="190.4" gradientUnits="userSpaceOnUse">
      <stop stop-color="#31F8FF" offset="0"/>
      <stop stop-color="#5372F0" offset=".4844"/>
      <stop stop-color="#CA00F6" offset="1"/>
    </linearGradient>
  </defs>
</svg>