<svg xmlns="http://www.w3.org/2000/svg" width="200" height="200" fill="none" viewBox="0 0 200 200">
<!-- SVG created with Arrow, by QuiverAI (https://quiver.ai) -->
  <path d="m100 2.24-23.68 12.65-1.84 3.1c-7.55 4.26-18.19 8.1-24.07 9.65l-4.29-1.26-29.65 7.59c-0.86 7.12-0.94 14.27-0.73 21.22l3.53 4.94c0.36 15.91 3.01 32.65 8.92 61.68l-0.43 2.84 4.96 19.02c11.96 13.42 25.95 26.37 42.73 37.97l2.36 4.09c7.33 4.52 14.95 9.09 22.19 12.03 7.24-3.69 13.91-6.67 21.6-12.03l1.87-3.85c14.22-9.82 27.97-22.04 44.46-38.59l3.76-17.88-1.62-4.39c4.64-14.94 9.24-37.59 11.89-65.6l1.96-0.61c0.39-7.72 0-13.62-0.61-20.7l-29.55-7.73-3.9 1.03c-7.46-2.2-16.12-5-24.51-9.27l-1.67-3.25-23.68-12.65z" fill="url(#paint0_linear_63_683)"/>
  <path d="m100 3.8 22.81 12.01 1.97 3.81c7.76 3.89 16.5 7.14 24.19 9.34l4.37-1.55 28.77 7.16c0.61 6.99 0.69 13.6 0.3 20.39l-3.55 4.55c-0.98 15.75-3.55 31.7-10.3 61.12l1.47 4.63-3.69 17.12c-12.33 14.28-27.87 28.4-43.57 38.3l-1.96 4.18-20.81 11.14-21.04-11.14-2.8-4.94c-14.15-9.61-28.07-21.83-42.05-37.01l-3.56-17.89 1.66-4.47c-5.69-18.5-10.03-43.33-10.5-61.35l-3.22-4.55c-0.23-6.48-0.08-13.04 0.65-19.49l27.11-7.25 4.17 1.2c8.62-2.2 17.51-6.15 24.79-10l2.08-4.07 22.71-11.24z" stroke="#C08F17" stroke-miterlimit="22.93" stroke-width=".7087"/>
  <path d="m23.8 38.49 20.83-4.79-2.65 4.16-15.77 4.4-0.49 17.95 1.46 2.95-2.58-2.25-0.8-22.42z" fill="url(#paint1_linear_63_683)" stroke="#C08F17" stroke-miterlimit="22.93" stroke-width=".7087"/>
  <path d="m47.02 33.31 2.5-2.11c7.62-2.09 16.6-5.62 23.2-8.16l-1.79 4.17-21.8 8.51-2.11-2.41z" fill="url(#paint2_linear_63_683)" stroke="#C08F17" stroke-miterlimit="22.93" stroke-width=".7087"/>
  <path d="m73.06 24.32 4.06-8.21 22.57-11.22 23.04 11.81 3.38 6.33 0.2 0.9-2.29-1.75-1.8-4.27-22.49-11.3-21.57 10.75-2.08 4.43-3.02 2.53z" fill="#C08F17" stroke="#C08F17" stroke-miterlimit="22.93" stroke-width=".7087"/>
  <path d="m128.1 24.79 23.73 7.25 2.01 4.47-2.08-1.1-22.27-8-1.39-2.62z" fill="url(#paint3_linear_63_683)" stroke="#C08F17" stroke-miterlimit="22.93" stroke-width=".7087"/>
  <path d="m155.2 33.7 20.67 4.63 0.67 3.38-0.31 16.11-2.8 4.09 0.64-18.94-17.04-5.19-1.83-4.08z" fill="url(#paint4_linear_63_683)" stroke="#C08F17" stroke-miterlimit="22.93" stroke-width=".7087"/>
  <path d="m26.71 40.85 18.47-5.02-2.06 3.69-14.11 4.09c-1.79 18.89 0.65 42.45 6.81 68.77l-3.3 3.69c-4.69-19.05-6.8-38.18-6.8-56.25l0.39-18.81 0.6-0.16z" fill="url(#paint5_linear_63_683)" stroke="#C08F17" stroke-miterlimit="22.93" stroke-width=".7087"/>
  <path d="m174.8 39.91-18.24-4.87 1.6 3.68 15.85 4.89 0.47 16.37-1.27 2.09c1.59-1.47 2.56-3.26 3.12-4.81l-0.32-16.1-1.21-1.25z" fill="url(#paint6_linear_63_683)" stroke="#C08F17" stroke-miterlimit="22.93" stroke-width=".7087"/>
  <path d="m34.31 127.8 0.8-2.01 2.8 13.96 13.01 13.86-1.59 0.87c-5.04-4.55-9.85-10.03-13.62-14.26l-1.4-12.42z" fill="url(#paint7_linear_63_683)" stroke="#C08F17" stroke-miterlimit="22.93" stroke-width=".7087"/>
  <path d="m74.78 172.1 2.28 7.64-1.14-1.01-3.77-8.04 2.63 1.41z" fill="#C08F17" stroke="#C08F17" stroke-miterlimit="22.93" stroke-width=".7087"/>
  <path d="m85.71 179.6 14.3 7.47 14.77-8.26-0.87 4.25-13.9 7.16-13.98-7.16-0.32-3.46z" fill="url(#paint8_linear_63_683)" stroke="#C08F17" stroke-miterlimit="22.93" stroke-width=".7087"/>
  <path d="m126.8 170.8-1.06 5.27 4.5-3.02 23.37-21.8-0.55-1.16-2.98 1.16-23.28 19.55z" fill="url(#paint9_linear_63_683)" stroke="#C08F17" stroke-miterlimit="22.93" stroke-width=".7087"/>
  <path d="m165.7 126.1 1.51 3.69-2.88 11.89-9.23 10.44-0.89-2.04 10-10.95 1.49-13.03z" fill="url(#paint10_linear_63_683)" stroke="#C08F17" stroke-miterlimit="22.93" stroke-width=".7087"/>
  <path d="m31.06 44.32c24.38-6.46 43.56-14.27 68.79-27.2 18.08 9.05 33.88 16.94 58.88 24.51l12.41 3.38c1.38 18.15-0.35 41.62-6.11 64.7l-6.99 28.45c-14.13 16.96-30.91 32.07-58.04 45.34-21.69-11.22-38.34-23.36-55.5-45.58l-7.57-31.69c-3.69-17.12-6.91-36.6-5.87-61.91z" fill="#fff" stroke="url(#paint11_linear_63_683)" stroke-miterlimit="22.93" stroke-width="2.835"/>
  <path d="m85.79 16.34 13.98-7.4 14.06 7.4 0.95 4.09-14.93-8-15.36 8 1.3-4.09z" fill="url(#paint12_linear_63_683)" stroke="#C08F17" stroke-miterlimit="22.93" stroke-width=".7087"/>
  <path d="m99.61 22.25-6.8 44.56-15.2-23.2 4.67 27.33-36.16-25.13 25.16 36.64-27.11-5.23 23.44 15.4-46.38 7 46.38 8.21-23.44 14.78 25.99-4.55-24.12 36.56 36.4-25.61-5.12 26.64 14.69-21.95 7.6 44.06 7.52-44.3 15.6 22.73-5.37-26.87 36.48 25.14-24.72-36.4 26.59 4.71-22.57-14.86 44.65-8.21-44.65-7.08 22.49-15.4-26.95 5.23 25.16-36.64-36.48 25.13 5.13-27.56-15.28 24.05-7.6-45.18z" fill="url(#paint13_radial_63_683)" stroke="#25A7F0" stroke-miterlimit="22.93" stroke-width=".7087"/>
  <path d="m99.61 29.03-7.92 47.72-11.7-26.71 3.94 22.5-32.22-22.5 28.04 35.39-2.63 3.61-26.31-9.82 19.11 12.54-36.85 6.53 42.85 4.32 0.56 5.14-6.04-0.08-19.63 12.95 22.1-3.81-21.52 31.3 33.85-29.01 3.27 2.01-8.36 28.53 12.66-18.73 6.8 40 7.12-48.65 3.28-1.55 10.08 30.17-4.77-22.92 33.77 21.05-24.28-33.23 25.31 4.93-19.71-13.28 0.55-0.39 36.16-7.73-43.91-3.85-0.96-3.62 28.61-12.62-23.88 4.29 21.56-33.47-36.16 28.18 7.71-28.18-12.96 22.89-7.52-43.9z" fill="url(#paint14_linear_63_683)" stroke="#25A7F0" stroke-miterlimit="22.93" stroke-width=".7087"/>
  <path d="m99.61 58.22 4.19 18.61 3.92 1.06-8.11-47.52-8.19 46.77 4.19-1.39 4-17.53z" fill="url(#paint15_linear_63_683)" stroke="#25A7F0" stroke-miterlimit="22.93" stroke-width=".7087"/>
  <path d="m119.1 100c0 10.9-8.69 19.72-19.45 19.72-10.75 0-19.45-8.82-19.45-19.72s8.7-19.72 19.45-19.72c10.76 0 19.45 8.82 19.45 19.72z" fill="url(#paint16_radial_63_683)" stroke="#25A7F0" stroke-miterlimit="22.93" stroke-width="1.417"/>
  <path d="m98.68 84.11c0.35 1.95 2.2 2.9 2.44 4.7 0.36 2.5-1.43 2.68-3.21 2.95-4.19 0.62-5.9 3.7-5.7 7.39 0.24 4.26 3.3 6.46 6.6 6.38 4-0.08 6.58-3.4 6.54-7.09-0.04-2.75-0.93-3.83-2.42-4.78-0.87-0.55 0.28-2.58 1.62-2.43 3.09 0.38 6.73 4.54 6.18 10.18-0.68 7.16-6.62 10.77-11.52 10.53-6.44-0.31-11.14-5.4-10.78-13.03 0.27-5.89 5.41-10.36 10.29-10.2 1.2 0.04 1.24-2.02-0.4-2.1-6.03-0.23-12.01 5-12.29 12.46-0.04 1.02 0.24 1.53 0.4 1.95 0.47 1.35-0.12 2.23-0.12 2.23-0.4 0.71-1.15-0.64-1.43-2.11-0.27-1.36-1.1-2.07-0.95-0.51 0.87 8.94 8.12 16.4 16.43 16.4 8.43 0 15.59-8.3 15.83-16.24 0.08-2.78-1.03-3.88-1.42-4.36-0.91-1.12-0.24 0 0.15 1.34 0.6 2.09-0.7 0.75-1.17-0.63-1.6-4.79-4.73-7.83-7.02-8.78-1.7-0.75-2.46-2.02-1.23-2.89 0.83-0.61 2.42-0.45 2.58-0.69-1.07-0.95-5.27-2.21-7.23-0.51-1.16 1.02-2.29-0.68-2.17-0.16z" fill="url(#paint17_radial_63_683)" stroke="#FCF6FF" stroke-miterlimit="22.93" stroke-width=".7087"/>
  <path d="m104.2 112.5c-0.94 0.87-1.65 1.89-2.87 2.2-1.08 0.27-0.39-1.88 1.17-2.59 1.23-0.55 1.27-2.18 1.9-2.82 0.88-0.94 1.31 1.68-0.2 3.21z" fill="#FECAFF"/>
  <path d="m118.4 85.21 2.49 3.55 25.79-37.7-36.62 28.16 3.02 1.38 13.71-7.67-8.39 12.28z" fill="url(#paint18_linear_63_683)" stroke="#25A7F0" stroke-miterlimit="22.93" stroke-width=".7087"/>
  <path d="m86.46 81.08 2.76-2.42-36.08-26.57 26.61 33.89-1.39 2.03-4.58-13.54 12.68 6.61z" fill="url(#paint19_linear_63_683)" stroke="#25A7F0" stroke-miterlimit="22.93" stroke-width=".7087"/>
  <path d="m122.6 92.7 1.19 3.46 13.64 3.15-13.36 3.61-1.23 4.24 42.86-7.54-43.1-6.92z" fill="url(#paint20_linear_63_683)" stroke="#25A7F0" stroke-miterlimit="22.93" stroke-width=".7087"/>
  <path d="m119.5 112.8 2.17 2.86 11.44 16.29-18.72-12.54-3.69 1.8 16.48 7.79-10-14.36 2.32-1.84z" fill="url(#paint21_linear_63_683)" stroke="#25A7F0" stroke-miterlimit="22.93" stroke-width=".7087"/>
  <path d="m99.61 139.1-4.04-14.7-3.84-1.48 7.88 45.48 7.68-45.72-3.45 1.37-4.23 15.05z" fill="url(#paint22_linear_63_683)" stroke="#C600E8" stroke-miterlimit="22.93" stroke-width=".7087"/>
  <path d="m83.78 118.9-12.77 9.9 6.36-12.36-1.45-2.54 1.89-1.76 2.3 2.94-1.87 2.78 7.95 2.89-2.41-1.85z" fill="url(#paint23_linear_63_683)" stroke="#C600E8" stroke-miterlimit="22.93" stroke-width=".7087"/>
  <defs>
    <linearGradient id="paint0_linear_63_683" x1="100" x2="100" y1="2.237" y2="197.8" gradientUnits="userSpaceOnUse">
      <stop stop-color="#FDF185" offset="0"/>
      <stop stop-color="#F0C838" offset=".4804"/>
      <stop stop-color="#9F6401" offset="1"/>
    </linearGradient>
    <linearGradient id="paint1_linear_63_683" x1="33.85" x2="33.85" y1="33.05" y2="61.32" gradientUnits="userSpaceOnUse">
      <stop stop-color="#38FFD4" offset="0"/>
      <stop stop-color="#48B4D9" offset=".5098"/>
      <stop stop-color="#B400E8" offset="1"/>
    </linearGradient>
    <linearGradient id="paint2_linear_63_683" x1="60.01" x2="60.01" y1="22.67" y2="35.91" gradientUnits="userSpaceOnUse">
      <stop stop-color="#38FFD4" offset="0"/>
      <stop stop-color="#48B4D9" offset=".5098"/>
      <stop stop-color="#B400E8" offset="1"/>
    </linearGradient>
    <linearGradient id="paint3_linear_63_683" x1="140.9" x2="140.9" y1="24.44" y2="36.78" gradientUnits="userSpaceOnUse">
      <stop stop-color="#38FFD4" offset="0"/>
      <stop stop-color="#48B4D9" offset=".5098"/>
      <stop stop-color="#B400E8" offset="1"/>
    </linearGradient>
    <linearGradient id="paint4_linear_63_683" x1="165.9" x2="165.9" y1="33.33" y2="61.48" gradientUnits="userSpaceOnUse">
      <stop stop-color="#38FFD4" offset="0"/>
      <stop stop-color="#48B4D9" offset=".5098"/>
      <stop stop-color="#B400E8" offset="1"/>
    </linearGradient>
    <linearGradient id="paint5_linear_63_683" x1="32.97" x2="32.97" y1="35.46" y2="116.1" gradientUnits="userSpaceOnUse">
      <stop stop-color="#38FFD4" offset="0"/>
      <stop stop-color="#48B4D9" offset=".5098"/>
      <stop stop-color="#B400E8" offset="1"/>
    </linearGradient>
    <linearGradient id="paint6_linear_63_683" x1="165.9" x2="165.9" y1="34.66" y2="62.21" gradientUnits="userSpaceOnUse">
      <stop stop-color="#38FFD4" offset="0"/>
      <stop stop-color="#48B4D9" offset=".5098"/>
      <stop stop-color="#B400E8" offset="1"/>
    </linearGradient>
    <linearGradient id="paint7_linear_63_683" x1="42.12" x2="42.12" y1="125.4" y2="154.6" gradientUnits="userSpaceOnUse">
      <stop stop-color="#38FFD4" offset="0"/>
      <stop stop-color="#48B4D9" offset=".5098"/>
      <stop stop-color="#B400E8" offset="1"/>
    </linearGradient>
    <linearGradient id="paint8_linear_63_683" x1="99.51" x2="99.51" y1="178.8" y2="190.2" gradientUnits="userSpaceOnUse">
      <stop stop-color="#38FFD4" offset="0"/>
      <stop stop-color="#48B4D9" offset=".5098"/>
      <stop stop-color="#B400E8" offset="1"/>
    </linearGradient>
    <linearGradient id="paint9_linear_63_683" x1="139.7" x2="139.7" y1="149.7" y2="176" gradientUnits="userSpaceOnUse">
      <stop stop-color="#38FFD4" offset="0"/>
      <stop stop-color="#48B4D9" offset=".5098"/>
      <stop stop-color="#B400E8" offset="1"/>
    </linearGradient>
    <linearGradient id="paint10_linear_63_683" x1="160" x2="160" y1="125.7" y2="152.1" gradientUnits="userSpaceOnUse">
      <stop stop-color="#38FFD4" offset="0"/>
      <stop stop-color="#48B4D9" offset=".5098"/>
      <stop stop-color="#B400E8" offset="1"/>
    </linearGradient>
    <linearGradient id="paint11_linear_63_683" x1="100" x2="100" y1="16.11" y2="184.5" gradientUnits="userSpaceOnUse">
      <stop stop-color="#00F0FF" offset="0"/>
      <stop stop-color="#9700DF" offset=".4902"/>
      <stop stop-color="#8A00DE" offset="1"/>
    </linearGradient>
    <linearGradient id="paint12_linear_63_683" x1="99.63" x2="99.63" y1="8.627" y2="20.43" gradientUnits="userSpaceOnUse">
      <stop stop-color="#38FFD4" offset="0"/>
      <stop stop-color="#48B4D9" offset=".5098"/>
      <stop stop-color="#00E9FF" offset="1"/>
    </linearGradient>
    <radialGradient id="paint13_radial_63_683" cx="0" cy="0" r="1" gradientTransform="translate(99.51 99.7) scale(67.33 68.61)" gradientUnits="userSpaceOnUse">
      <stop stop-color="#ADFFFE" offset="0"/>
      <stop stop-color="#25A7F0" offset=".4588"/>
      <stop stop-color="#C600E8" offset="1"/>
    </radialGradient>
    <linearGradient id="paint14_linear_63_683" x1="99.52" x2="99.52" y1="28.66" y2="170.9" gradientUnits="userSpaceOnUse">
      <stop stop-color="#00F0FF" offset="0"/>
      <stop stop-color="#3196FE" offset=".4902"/>
      <stop stop-color="#C600E8" offset="1"/>
    </linearGradient>
    <radialGradient id="paint16_radial_63_683" cx="0" cy="0" r="1" gradientTransform="translate(99.61 99.5) scale(18.56 18.93)" gradientUnits="userSpaceOnUse">
      <stop stop-color="#ADFFFE" offset="0"/>
      <stop stop-color="#25A7F0" offset=".4588"/>
      <stop stop-color="#C600E8" offset="1"/>
    </radialGradient>
    <radialGradient id="paint17_radial_63_683" cx="0" cy="0" r="1" gradientTransform="translate(100 99.77) scale(16.72 17.05)" gradientUnits="userSpaceOnUse">
      <stop stop-color="#F3FFFE" offset="0"/>
      <stop stop-color="#FC70FE" offset="1"/>
    </radialGradient>
    <linearGradient id="paint18_linear_63_683" x1="128.8" x2="128.8" y1="50.68" y2="88.76" gradientUnits="userSpaceOnUse">
      <stop stop-color="#00F0FF" offset="0"/>
      <stop stop-color="#3196FE" offset=".4902"/>
      <stop stop-color="#C600E8" offset="1"/>
    </linearGradient>
    <linearGradient id="paint19_linear_63_683" x1="71.18" x2="71.18" y1="51.7" y2="88.32" gradientUnits="userSpaceOnUse">
      <stop stop-color="#00F0FF" offset="0"/>
      <stop stop-color="#3196FE" offset=".4902"/>
      <stop stop-color="#C600E8" offset="1"/>
    </linearGradient>
    <linearGradient id="paint20_linear_63_683" x1="134.8" x2="134.8" y1="92.33" y2="107.5" gradientUnits="userSpaceOnUse">
      <stop stop-color="#00F0FF" offset="0"/>
      <stop stop-color="#3196FE" offset=".4902"/>
      <stop stop-color="#C600E8" offset="1"/>
    </linearGradient>
    <linearGradient id="paint21_linear_63_683" x1="121.9" x2="121.9" y1="112.4" y2="132" gradientUnits="userSpaceOnUse">
      <stop stop-color="#00F0FF" offset="0"/>
      <stop stop-color="#3196FE" offset=".4902"/>
      <stop stop-color="#C600E8" offset="1"/>
    </linearGradient>
    <linearGradient id="paint22_linear_63_683" x1="99.51" x2="99.51" y1="122.3" y2="169.2" gradientUnits="userSpaceOnUse">
      <stop stop-color="#00F0FF" offset="0"/>
      <stop stop-color="#3196FE" offset=".4902"/>
      <stop stop-color="#C600E8" offset="1"/>
    </linearGradient>
    <linearGradient id="paint23_linear_63_683" x1="78.61" x2="78.61" y1="111.7" y2="129.4" gradientUnits="userSpaceOnUse">
      <stop stop-color="#00F0FF" offset="0"/>
      <stop stop-color="#3196FE" offset=".4902"/>
      <stop stop-color="#C600E8" offset="1"/>
    </linearGradient>
  </defs>
</svg>