<svg xmlns="http://www.w3.org/2000/svg" width="250" height="250" fill="none" viewBox="0 0 250 250">
<!-- SVG created with Arrow, by QuiverAI (https://quiver.ai) -->
  <path d="m4.06 163.2 0.2-26.12 2.45-4.36 2.85 3.38 4.71 2.71 14.62 35.5v13.47l2.09 2.68 2.46-0.83 28.59 20.35 2.46 0.97 1.57 4.64 19.19 13.85 20.18 2.65 24.45-7.19 2.86-4.07 3.68-0.75 21.35-6.09 1.99-1.53 24.51-6.48 2.46-1.67 0.76 0.52 19.78-5.97 3.26 0.91 26.18-6.93 9.38-14.31 0.52-27.7-3.58-3.22 0.77-3.78v-30.68l-1.99-3.96 2.45-3.96 1.77-3.45v-24.18l-7.41-17.51-5.41-5.34-19.4-8.42-6.05 1.15-28.93-15.43-0.98-3.02-18.74-11.63-18.69-0.83-22.03 4.61-2.33 2.17-17.43 4.55-0.49 2.14-30.98 5.97-2.15 0.62-16.9 3.15-2.99-0.75-25.69 5.71-15.37 20.19v23.8l5.08 3.78-3.02 7.93v30.21l0.59 1.46-2.65 4.41v26.68z" fill="#7A97B2" stroke="#12243E" stroke-miterlimit="10" stroke-width=".5"/>
  <path d="m4.26 137.1 7.7 5.06 12.63 32.24v11.12l-15.13-11.25-5.4-11.05 0.2-26.12z" fill="#5A7490" stroke="#12243E" stroke-miterlimit="10" stroke-width=".5"/>
  <path d="m6.12 100.4 81.72 53.81 11.31 1.18 51.93-14.95-0.39 26.45 8.52 7.8-0.49 35.7-1.07 2.92-21.69 5.78 0.26-15.21-26.53-18.74-6.63 1.95-15.13-0.69-8.82-3.82-17.69 14.31v12.7l-31.41-22.5-0.59-12.88-15.15-35.44-8.15-6.57v-31.8z" fill="#5A7490" stroke="#12243E" stroke-miterlimit="10" stroke-width=".5"/>
  <path d="m194.9 127.6 47.81-12.39 0.19 31.5-10.63 4.22-23.11 34.29v13.21l-20.24 5.91 0.06-37.25 5.99-10.92-0.07-28.57z" fill="#6D88A6" stroke="#12243E" stroke-miterlimit="10" stroke-width=".5"/>
  <path d="m235.2 157 10.62-4.92-0.42 26.55-8.25 13.07-23.35 6.93 0.13-12.61 21.27-29.02z" fill="#617B99" stroke="#12243E" stroke-miterlimit="10" stroke-width=".5"/>
  <path d="m161.9 175.2 25.3-7.32v35.7l-1.51 2.61-25.17 6.92 1.38-3.96v-33.95z" fill="#617B99" stroke="#12243E" stroke-miterlimit="10" stroke-width=".5"/>
  <path d="m63.78 200.1 16.42-10.92 8.25 4.85 9.31 1.29 9.57-2.72 23.14 15.56v13.47l-23.76 6.67-8.66-6.48-0.9-1.23-13.52 4.92-19.08-13.61-0.77-11.8z" fill="#617B99" stroke="#12243E" stroke-miterlimit="10" stroke-width=".5"/>
  <path d="m32.23 117.4 0.88 7.47 3.02 4.85 20.71 14.49 1.99-0.45 2.65-4.85-0.76-1.61-28.49-19.9z" fill="#506A85" stroke="#12243E" stroke-miterlimit="10" stroke-width=".5"/>
  <path d="m97.56 195.2v26.18" stroke="#12243E" stroke-miterlimit="10" stroke-width=".5"/>
  <path d="m88.45 193.4v30.21" stroke="#12243E" stroke-miterlimit="10" stroke-width=".5"/>
  <path d="m149.2 136.6 3.39-1.47-1.17-1.46v-18.36l5.79-8.87v-12.54l-2.79-7.86-10.69-8.3 32.7-8.87 10.06 6.79 3.52 9.56-0.77 12.47 6.43 6.93v14.17l46.29-13.14 1.54 4.29-1.48 5.69-46.81 12.46v27.83l-7.13 12.02v35.44l-2.08 0.77 0.7-36.89-2.33-0.97-13.26 2.65-5.41-0.25-9.31-6.22v-25.21l-7.19-0.66z" fill="#B7C7DA" stroke="#12243E" stroke-miterlimit="10" stroke-width=".5"/>
  <path d="m7.93 97.84 2.22-3.38 4 1.26 0.7-5.68 13.78-10.26v-10.98l-17.52-12.54-6.86 8.65v23.8l8.89 6.7-1.18 0.7-4.03-1.1v2.83z" fill="#506A85" stroke="#12243E" stroke-miterlimit="10" stroke-width=".5"/>
  <path d="m14.59 52.61 4.94-7.89 1.04 0.45-6.11 9.89 15.49 10.79 2.39-1.84 11.12-3.29 8.59-14.79-5.01-6.48-1.92-0.44-25.69 5.71-4.84 7.89z" fill="#7A97B2" stroke="#12243E" stroke-miterlimit="10" stroke-width=".5"/>
  <path d="m49.09 40.82 9.28 3.83 0.26 1.6-7.34 13.6 0.76 1.11 31.19 17.77 40.83 3.82 9.57 5.9 21.08-4.74-9.7-5.49 30.69-8.13 10.2 5.02 13.26-3.25-7.96-5.62 5.72-15.95-27.32-16.47-45.6-4.48-8.32-5.94-16.77 4.22v2.59l5.21 1.7-1.48 0.83-28.99 6.99-7.05-4.09-17.52 5.18z" fill="#7A97B2" stroke="#12243E" stroke-miterlimit="10" stroke-width=".5"/>
  <path d="m117 21.61 9.25 4.85 38.38 2.78 12.17-2.2-1.99-1.7-15.9-8.09-18.18-0.7-21.53 4.61-2.2 0.45z" fill="#7A97B2" stroke="#12243E" stroke-miterlimit="10" stroke-width=".5"/>
  <path d="m171.8 33.12 2.96-2.01 30.21 16.03 2.06 0.9-5.79 0.91-4.3 0.06-25.14-13.98v-1.91z" fill="#7A97B2" stroke="#12243E" stroke-miterlimit="10" stroke-width=".5"/>
  <path d="m203.2 49.33 10.2-3.08 20.17 9.18-3.68 9.22-23.2 6.15-9.45-4.68 5.96-16.79z" fill="#7A97B2" stroke="#12243E" stroke-miterlimit="10" stroke-width=".5"/>
  <path d="m207.8 72.44 24.47-2.09 11.96 10.48 0.49 22-2.05 2.89-46.98 13.01v-14.25l-6.24-7.47 0.32-11.95 16.96-4.42 1.07-8.2z" fill="#6D88A6" stroke="#12243E" stroke-miterlimit="10" stroke-width=".5"/>
  <path d="m235.7 59.43-3.02 6.69 1.47 2.75 8.03 7.12 1.73 1.39-4.94-15.98-3.27-1.97z" fill="#F0F2FF" stroke="#12243E" stroke-miterlimit="10" stroke-width=".5"/>
  <path d="m9 97.52 79.61 52.73 10.02 0.69 53.75-19.33v-16.39l5.85-8.3v-13.05l-2.79-0.83-20.31 6.09-1.6-10.05-9.25-5.94-41.53-3.02-5.78 1.22-26.53-19.23-13.78 2.52-3.94 6.09v10.62l-13.78 10.89v4.92l-10.26-2.01 0.32 2.38z" fill="#F0F2FF" stroke="#12243E" stroke-miterlimit="10" stroke-width=".5"/>
  <path d="m20.05 94.12 0.67 4.26 18.87 12.63 33.22 22.75 1.11 0.45 0.7-4.64-13.97-26.35v-13.18l-27.6-17.99v12.4l-13 9.67z" fill="#506A85" stroke="#12243E" stroke-miterlimit="10" stroke-width=".5"/>
  <path d="m35.19 67.13 2.86-1.88 6.3-1.24 3.02-0.77 3.97 0.32 24.45 14.25 0.64 2.85-1.35 0.94-10 3.24-27.26-17.13-2.63-0.58z" fill="#7A97B2" stroke="#12243E" stroke-miterlimit="10" stroke-width=".5"/>
  <path d="m66.32 86.01-2.09 4.92v11.22l11.69 25.66 0.39 7.16-0.39 1.24 12.14 8.12 10.57 0.26 52.32-14.85 0.26-14.52 6.05-8.81v-12.54l-47.64 9.28-11.38 16.24-16.08-17.95-15.84-15.43z" fill="#617B99" stroke="#12243E" stroke-miterlimit="10" stroke-width=".5"/>
  <path d="m66.32 87.41 17.59 11.83 3.39-3.84 18.8 1.03 26.25-7.19" stroke="#12243E" stroke-miterlimit="10" stroke-width=".5"/>
  <path d="m86.19 101.4 4.94 13.27c0.7 1.2 4.06 1.35 5.03 0l7.9-11.3c1.01-1.9 0.25-3.5-1.15-3.5l-14.08-1.46c-1.99-0.19-3.3 1.33-2.64 2.99z" fill="#F0F2FF" stroke="#12243E" stroke-miterlimit="10" stroke-width=".5"/>
  <path d="m88.25 118.3v25.34" stroke="#12243E" stroke-miterlimit="10" stroke-width=".5"/>
  <path d="m98.24 118.4v25.99" stroke="#12243E" stroke-miterlimit="10" stroke-width=".5"/>
  <path d="m133.5 88.95 3.19 9.73" stroke="#12243E" stroke-miterlimit="10" stroke-width=".7"/>
  <path d="m116.1 23.01 8.79 4.92 39.66 2.52 12.82-2.84" stroke="#12243E" stroke-miterlimit="10" stroke-width=".7"/>
  <path d="m171.7 32.74 3.42-1.5" stroke="#12243E" stroke-miterlimit="10" stroke-width=".7"/>
  <path d="m185.1 76.02 14.81-3.77 4.17 2.79 2.59 5.85" stroke="#12243E" stroke-miterlimit="10" stroke-width=".7"/>
  <path d="m207.3 71.06 0.55 9.45-2.29-0.2-2.79-8.87-6.7-4.31" stroke="#12243E" stroke-miterlimit="10" stroke-width=".7"/>
  <path d="m145.5 78.73 30.18-7.61 8.78 4.79 2.46 1.22 0.98 9.08-28.86 8.8-3.67-11.3-6.12-3.93" stroke="#12243E" stroke-miterlimit="10" stroke-width=".7"/>
  <path d="m186.9 85.83 0.83 0.97v10.86l-28.02 6.75-1-10.15v-2.55l-3.45-8.64-2.46-2.11" stroke="#12243E" stroke-miterlimit="10" stroke-width=".7"/>
  <path d="m161.4 109.4 23.47-5.34 5.4 6.48v17.56l1.41 0.73v3.52l-3.62 1.07-3.19 13.46-11.11 2.3-3.03-11.89-4.43-1.91v-16.15l2.79-3.45 15.91-3.02 2.79 1.84" stroke="#12243E" stroke-miterlimit="10" stroke-width=".7"/>
  <path d="m165.9 112-5.72-3.03-2.23 7.09-0.45 19.63 3.45 0.52-0.07-18.59 5.02-5.62z" fill="#617B99" stroke="#12243E" stroke-miterlimit="10" stroke-width=".5"/>
  <path d="m157.6 137.5 9.41 3.21 4.17 10.79 13.78-3.58 3.61-14.87 1.48-0.52 0.32 21.58-5.53 10.69-16.93 2.65-11.12-4.95 0.81-25z" fill="#617B99" stroke="#12243E" stroke-miterlimit="10" stroke-width=".5"/>
  <path d="m157.5 138.4 8.92 3.31 1.07 24.92-2.39-1.32-4.88-5.27-3.33 1.7" stroke="#12243E" stroke-miterlimit="10" stroke-width=".5"/>
  <path d="m171.9 164.9 1.92-9.02 10.13-3.31 1.99 8.99-1.24 2.11" stroke="#12243E" stroke-miterlimit="10" stroke-width=".5"/>
  <path d="m171.9 118.3 1.14 4.42c0.26 0.59 10.32-1.58 11.15-2.41 1.07-1.08 1.49-3.73 0-4.32l-12.29 2.31z" fill="#F0F2FF" stroke="#12243E" stroke-miterlimit="10" stroke-width=".5"/>
  <path d="m90.94 224-2.79 3.09 13.46 1.67-6.86-5.68c-1.01-0.77-2.71-0.45-3.81 0.92z" fill="#F0F2FF" stroke="#12243E" stroke-miterlimit="10" stroke-width=".5"/>
  <path d="m241.2 148v3.22l-6.63 4.47-21.56 29.43v10.48l-3.02 3.72 2.2 0.7 2.52-3.41v-10.19l21.06-29.26 7.63-2.49 1.67-4.58-3.87-2.09z" fill="#F0F2FF" stroke="#12243E" stroke-miterlimit="10" stroke-width=".5"/>
  <path d="m29.38 174.4-14.56-35.2-7.96-6.52-0.15 2.52 5.92 4.78 12.2 32.99v13.11l3.86 3.82 1.07-1.04-0.77-1.84 0.39-12.62z" fill="#B7C7DA" stroke="#12243E" stroke-miterlimit="10" stroke-width=".5"/>
  <path d="m63.88 196.9 15.13-14.31 2.23 0.26 7.77 5.84h12.93l7.27-3.09 26.4 18-0.26 12.09-2.46 4.92-2.13-0.59 0.46-11.52-23.4-16.39-9.51 2.71-9.18-1.87-7.06-3.81-17.68 12.6-0.51 5.27v-10.11z" fill="#F0F2FF" stroke="#12243E" stroke-miterlimit="10" stroke-width=".5"/>
  <path d="m88.22 153.9v32.75" stroke="#12243E" stroke-miterlimit="10" stroke-width=".5"/>
  <path d="m99.09 155.3v32.48" stroke="#12243E" stroke-miterlimit="10" stroke-width=".5"/>
  <path d="m150.6 139.8v26.9l8.19 7.83v35.23l-1.24 3.35" stroke="#12243E" stroke-miterlimit="10" stroke-width=".5"/>
</svg>