<svg xmlns="http://www.w3.org/2000/svg" width="200" height="200" fill="none" viewBox="0 0 200 200">
<!-- SVG created with Arrow, by QuiverAI (https://quiver.ai) -->
  <path d="m114 12.37 11.22 0.1 14.17 10.21 1.81 2.84 24.74 13.71 5.51-1.32 21.7 8.55 5.45 18.58-0.91 20.32-2.54 5.45 0.3 19.54-0.41 2.03 0.71 6.74 2.74 4.94-0.1 21.91-6.94 10.93-18.79 4.13-2.44 1.11-21.51 4.33-0.91 1.01-3.93 0.5-2.24 1.62-7.94 1.01-4.74 3.14-2.44 0.91-19.63 4.33-3.74 4.84-18.09 4.94-16.78-1.61-16.68-12.7-1.51-3.84-4.95-2.13-21.4-13.31-1.51 0.41-14.77-12.71-5.25-8.95 0.1-20.92 1.31-3.94 0.3-8.34-0.4-18.68 1.72-4.94-3.54-4.64 0.21-18.68 11.81-17.78 22.61-3.14 2.43-1.51 13.45-1.31 1.21-0.91 7.33 0.91 32.25-12.11 0.3-1.31 18.38-4.33 2.33 0.07z" fill="#00F0FF" opacity=".2"/>
  <path d="m2.42 54.09 11.5-17.88 22.01-2.84 1.51-0.9 14.87-1.92 1.21-0.5 3.24 3.03 22.21-9.45 0.1-1.01 14.26-4.84 0.21-0.71 18.08-2.84h15.26l14.27 9.25 0.4 2.23 24.24 13.31 5.45-0.71 18.58 6.85 8.04 20.22-0.6 19.58-2.54 5.65 0.2 19.68-0.5 2.03 0.5 7.46 2.84 4.23-0.1 21.81-6.74 10.33-18.48 4.44-2.33 1.01-21.31 5.44-0.9 0.71-3.84 0.3-3.04 1.92-7.74 0.41-4.64 3.24-2.43 1.31-19.48 3.53-3.94 4.75-17.88 4.44-16.58-1.61-16.68-12.41-1.31-3.54-4.95-1.82-21.81-13.9-1.51 0.3-15.06-12.91-4.33-7.94 0.1-21.22 1.21-3.54 0.1-8.34 0.51-1.01-0.11-17.47 0.91-4.04-3.03-5.25 0.05-18.86z" fill="url(#paint0_linear_1324_11238)" stroke="#003E99" stroke-miterlimit="10" stroke-width=".5"/>
  <path d="m37.44 32.47 9.35 5.15 12.31-0.51-6.64 10.12 1.31 1.21 21.01 12.71 27.98-4.04-3.14 8.85 1.11 0.8-1.01 1.72 8.04 5.64 0.2 14.97-14.77 23.63 25.74-5.35 0.81 6.35-0.3 21.02 9.35 8.54v24.64l-2.53 4.23 0.1-21.71-8.24-14.38-0.7-22.94-41.23 13.01-28.39-14.57-5.65 11.8-6.74-5.65v12.11l5.84 5.34 2.53 15.07 2.13 2.43-0.8 15.26-0.3-14.76-2.54-2.63-17.08-10.33 0.51-1.51-15.27-32.74-6.04-5.35 6.04 2.93 0.31-18.88-6.45-3.64 0.91-3.44 4.94 0.41 0.2-1.92 12.61-8.84v-11.13l1.21-1.61 8.75-3.64 5.04-11.13-2.02-6.34 1.51-0.9z" fill="url(#paint1_linear_1324_11238)" stroke="#003E99" stroke-miterlimit="10" stroke-width=".5"/>
  <path d="m153.6 39.52 5.74-0.81 4.04 1.01-5.35 14.77 5.75 5.65 0.81 3.84 0.5 4.24-15.07 9.05-1.21-0.4-1.81-12.01-8.94-7.24 3.13-3.44 3.84 0.61 8.57-0.3v-2.74-12.23z" fill="url(#paint2_linear_1324_11238)" stroke="#003E99" stroke-miterlimit="10" stroke-width=".5"/>
  <path d="m162.9 93.83 15.47-4.14 16.47-1.51 0.21 3.44-0.61 1.41-40.3 13.01v22.12l6.24 3.44-0.3 27.37-11.41 4.94-1.41-0.6-0.2-25.14 5.85-9.95-0.11-27.78-2.02-13.31-4.14-2.94-3.73 0.91-0.4 5.05-4.14 1.21-0.4-7.24 0.2-1.51 11.11-3.24 6.55 8.45 0.5 8.34 6.57-2.33z" fill="url(#paint3_linear_1324_11238)" stroke="#003E99" stroke-miterlimit="10" stroke-width=".5"/>
  <path d="m93.44 17.23 18.28-2.84h15.06l14.77 9.05-0.5 2.53-3.84 1.62-40.73-2.64-3.44-6.74 0.4-0.98z" fill="url(#paint4_linear_1324_11238)" stroke="#003E99" stroke-miterlimit="10" stroke-width=".5"/>
  <path d="m53.42 30.45 25.45-7.14 3.64 2.84-0.7 0.81-24.34 6.74-4.05-2.13v-1.12z" fill="#2828B8" stroke="#003E99" stroke-miterlimit="10" stroke-width=".5"/>
  <path d="m101.1 18.85 11.41-1.92 13.56 0.41 6.45 4.74-5.15 2.13-22.01-2.03-4.26-3.33z" fill="#87FFFE" stroke="#003E99" stroke-miterlimit="10" stroke-width=".5"/>
  <path d="m14.13 36.61 21.4-3.13 7.14 3.74-8.75 14.86-10.06 3.43-15.78-10.73 6.05-8.17z" fill="url(#paint5_linear_1324_11238)" stroke="#003E99" stroke-miterlimit="10" stroke-width=".5"/>
  <path d="m6.57 54.79 3.44-3.74 7.74 6.15v7.65l-8.74 8.66-3.34-3.44 0.9-15.28z" fill="url(#paint6_linear_1324_11238)" stroke="#003E99" stroke-miterlimit="10" stroke-width=".5"/>
  <path d="m17.96 40.75 2.23-2.84 12.62-1.51 3.03 2.53-4.75 8.24-7.54 2.53-7.64-4.34 2.05-4.61z" fill="url(#paint7_linear_1324_11238)" stroke="#003E99" stroke-miterlimit="10" stroke-width=".5"/>
  <path d="m167.2 41.96 4.14-2.84 15.37 6.14-4.14 9.45-15.87 3.33-4.84-5.44 5.34-10.64z" fill="url(#paint8_linear_1324_11238)" stroke="#003E99" stroke-miterlimit="10" stroke-width=".5"/>
  <path d="m166.2 44.99 5.05-2.53 11.01 5.14-2.53 4.55-9.66 3.54-5.54-3.94 1.67-6.76z" fill="url(#paint9_linear_1324_11238)" stroke="#003E99" stroke-miterlimit="10" stroke-width=".5"/>
  <path d="m187.8 46.77 8.34 16.67 0.51 2.63-11.51-11.71 2.66-7.59z" fill="url(#paint10_linear_1324_11238)" stroke="#003E99" stroke-miterlimit="10" stroke-width=".5"/>
  <path d="m184.3 56.82-18.09 3.53-1.11 8.85 1.72 3.03 18.48 18.37 11.21-5.34 1.01-19.28-13.22-9.16z" fill="url(#paint11_linear_1324_11238)" stroke="#003E99" stroke-miterlimit="10" stroke-width=".5"/>
  <path d="m171.1 66.27 12.42-3.34 7.24 6.05v13.51l-5.25 2.33-14.37-13.41-0.04-5.14z" fill="url(#paint12_linear_1324_11238)" stroke="#003E99" stroke-miterlimit="10" stroke-width=".5"/>
  <path d="m5.3 81.31 56.37 35.5v-13.71l-11.32-20.62 0.51-11.04-23.84-17.77-3.74 2.73v11.42l-12.51 11.32-5.47-1.92v4.09z" fill="url(#paint13_linear_1324_11238)" stroke="#003E99" stroke-miterlimit="10" stroke-width=".5"/>
  <path d="m2.83 112.7 6.05 3.44 12.21 25.86v11.81l-13.87-12.61-4.14-7.55-0.25-20.95z" fill="url(#paint14_linear_1324_11238)" stroke="#003E99" stroke-miterlimit="10" stroke-width=".5"/>
  <path d="m5.61 118.2 1.92 1.01 8.54 23.04v2.74l-6.74-5.85-3.13-6.05-0.59-14.89z" fill="url(#paint15_linear_1324_11238)" stroke="#003E99" stroke-miterlimit="10" stroke-width=".5"/>
  <path d="m187.7 122.4 9.25-2.13 0.9 3.94-0.7 21.41-6.84 10.15-22.61 5.25-0.51-10.94 20.51-27.68z" fill="url(#paint16_linear_1324_11238)" stroke="#003E99" stroke-miterlimit="10" stroke-width=".5"/>
  <path d="m175.9 151.5 15.87-20.37 2.02-0.2-0.4 13.3-5.95 8.24-11.32 3.54-0.22-4.51z" fill="url(#paint17_linear_1324_11238)" stroke="#003E99" stroke-miterlimit="10" stroke-width=".5"/>
  <path d="m49.14 161.3 15.27-13.21 8.54 2.83 0.71 5.15 3.63 1.21 9.05-6.45 21.91 14.1v11.52l-5.24 6.55-18.29 4.44-16.57-1.61-18-13.71-1.01-10.82z" fill="url(#paint18_linear_1324_11238)" stroke="#003E99" stroke-miterlimit="10" stroke-width=".5"/>
  <path d="m52.98 162.7 12.01-6.04 3.74 2.53-0.2 15.57-2.94 1.11-12.41-7.94-0.2-5.23z" fill="url(#paint19_linear_1324_11238)" stroke="#003E99" stroke-miterlimit="10" stroke-width=".5"/>
  <path d="m82.01 161.1 4.24-1.01 14.57 8.85v7.24l-12.31 3.74-6.45-5.85-0.05-12.97z" fill="url(#paint20_linear_1324_11238)" stroke="#003E99" stroke-miterlimit="10" stroke-width=".5"/>
  <path d="m71.14 183.9 5.15-2.33 4.34 4.44-9.49-2.11z" fill="#87FFFE" stroke="#003E99" stroke-miterlimit="10" stroke-width=".5"/>
  <path d="m5.1 77.06 7.64 1.11 0.61 4.84 47.16 31.21-0.3-9.05-10.16-20.92-0.4-12.41-2.33 1.41-22.51-17.07-0.8 11.81-12.72 11.12-6.19-2.05z" stroke="#003E99" stroke-miterlimit="10" stroke-width=".5"/>
  <path d="m26.62 96.16 1.11 6.45 19.48 12.32-2.02 3.23-18.98-13.11 0.41-8.89z" stroke="#003E99" stroke-miterlimit="10" stroke-width=".5"/>
  <path d="m28.95 99.2 16.28 10.53" stroke="#003E99" stroke-miterlimit="10" stroke-width=".5"/>
  <path d="m29.05 87.08 14.67 9.05 0.81 4.74" stroke="#003E99" stroke-miterlimit="10" stroke-width=".5"/>
  <path d="m31.07 83.24 12.41 7.84 4.14-6.05" stroke="#003E99" stroke-miterlimit="10" stroke-width=".5"/>
  <path d="m31.68 63.96 10.71 6.45v0.81l-1.51-0.2-9.05-5.65-0.15-1.41z" stroke="#003E99" stroke-miterlimit="10" stroke-width=".5"/>
  <path d="m26.11 55.7 10.23-3.74" stroke="#003E99" stroke-miterlimit="10" stroke-width=".5"/>
  <path d="m39.98 50.24 12.21 3.34 6.65 4.34-1.72 2.73-17.08-9.84-0.06-0.57z" stroke="#003E99" stroke-miterlimit="10" stroke-width=".5"/>
  <path d="m59.25 37.62 35.81-9.55 1.72-3.94 26.15 4.95 23.01 14.47-3.23 11.13-2.84-0.4 1.11-7.45-13.92-9.72-4.13-5.35-27.87-2.84-0.41 2.13-35.4 6.57z" fill="#00D2E6" stroke="#003E99" stroke-miterlimit="10" stroke-width=".5"/>
  <path d="m103.2 35.69 4.34 0.31 17.38 8.55-1.01 4.14-22.52 5.96v1.11l-11.01-1.01-14.97-9.65 0.91-3.04 24.55-6.36 2.33-0.01z" fill="#00D2E6" stroke="#003E99" stroke-miterlimit="10" stroke-width=".5"/>
  <path d="m116.4 32.06-4.34 2.74 16.08 9.65 8.94-0.5-14.37-9.76-6.31-2.13z" fill="#00D2E6" stroke="#003E99" stroke-miterlimit="10" stroke-width=".5"/>
  <path d="m137.8 32.06 4.14-1.61 5.75 3.64-2.53 2.63-7.36-3.34v-1.32z" fill="#00D2E6" stroke="#003E99" stroke-miterlimit="10" stroke-width=".5"/>
  <path d="m109.3 33.88 1.01-0.4" stroke="#003E99" stroke-miterlimit="10" stroke-width=".5"/>
  <path d="m119.3 35.8 1.82 0.81" stroke="#003E99" stroke-miterlimit="10" stroke-width=".5"/>
  <path d="m123.5 37.92 1.92 0.6" stroke="#003E99" stroke-miterlimit="10" stroke-width=".5"/>
  <path d="m128 39.74 1.21-0.31" stroke="#003E99" stroke-miterlimit="10" stroke-width=".5"/>
  <path d="m60.06 45.82 11.81-0.2 16.17 10.63-4.03 5.25-6.95-1.51-18.78-12.41 1.78-1.76z" fill="#00D2E6" stroke="#003E99" stroke-miterlimit="10" stroke-width=".5"/>
  <path d="m63.39 47.63 6.55 0.21" stroke="#003E99" stroke-miterlimit="10" stroke-width=".5"/>
  <path d="m68.23 50.77 5.04-1.01" stroke="#003E99" stroke-miterlimit="10" stroke-width=".5"/>
  <path d="m72.46 53.41 4.55-1.21" stroke="#003E99" stroke-miterlimit="10" stroke-width=".5"/>
  <path d="m77.61 56.55 3.94-0.91" stroke="#003E99" stroke-miterlimit="10" stroke-width=".5"/>
  <path d="m125.1 52.96-15.07 3.14-1.01 2.53 5.85 3.64v1.71l5.14 2.74 1.11 2.93-13.01 2.53" stroke="#003E99" stroke-miterlimit="10" stroke-width=".5"/>
  <path d="m113.1 58.43 11.61-2.64 9.95 5.56 2.74-2.53 9.45 5.65 1.92 9.45-14.57 5.95-7.94-2.63-3.24-9.15-3.93-2.84 2.63-1.21-8.62-5.61z" fill="url(#paint21_linear_1324_11238)" stroke="#003E99" stroke-miterlimit="10" stroke-width=".5"/>
  <path d="m117 59.74 7.74-2.12 3.94 2.63-2.63 1.61-2.02-1.61-7.03-0.51z" fill="#D0F1FF" stroke="#003E99" stroke-miterlimit="10" stroke-width=".5"/>
  <path d="m128.4 68.99 15.47-3.03 1.21 5.45-12.32 4.54-3.34-0.71-1.02-6.25z" fill="url(#paint22_linear_1324_11238)" stroke="#003E99" stroke-miterlimit="10" stroke-width=".5"/>
  <path d="m149.1 63.85 14.06-3.94" stroke="#003E99" stroke-miterlimit="10" stroke-width=".5"/>
  <path d="m150.3 74.06 13.05-8.05" stroke="#003E99" stroke-miterlimit="10" stroke-width=".5"/>
  <path d="m108.5 81.72 15.67 1.01v1.31l-15.67-1.11v-1.21z" stroke="#003E99" stroke-miterlimit="10" stroke-width=".5"/>
  <path d="m118.6 79.69 4.84-1.41v2.73l-2.12 0.71-2.72-2.03z" stroke="#003E99" stroke-miterlimit="10" stroke-width=".5"/>
  <path d="m126.4 77.26 1.42-1.21 2.63 0.61v7.35l-3.14 1.31-0.91-8.06z" fill="#7F25EE" stroke="#003E99" stroke-miterlimit="10" stroke-width=".5"/>
  <path d="m127.7 89.49 6.14-2.42 0.91 0.71 11.71-3.64 5.45 5.15 0.3 16.97-1.92 1.51 0.1 19.38-4.24 8.94-0.3 24.64-3.54 5.85-3.93 0.91-4.65-2.53-0.3-24.85-9.65-7.35 0.2-23.63v-13.21l3.72-6.43z" fill="#00F0FF" stroke="#003E99" stroke-miterlimit="10" stroke-width=".5"/>
  <path d="m126.1 96.06 6.95 0.51-0.81 12.41 5.85 6.65 2.02 0.3 6.35-5.84 2.23-13.93-1.21-5.05-11.01 1.82-4.04 1.11-6.33 2.02z" fill="url(#paint23_linear_1324_11238)" stroke="#003E99" stroke-miterlimit="10" stroke-width=".5"/>
  <path d="m125.2 100.3 3.94 2.83v7.35l-3.84-0.41-0.1-9.77z" fill="url(#paint24_linear_1324_11238)" stroke="#003E99" stroke-miterlimit="10" stroke-width=".5"/>
  <path d="m125.2 112.9 6.65 2.23 4.44 8.85 11.41-3.74 2.43-5.95v12.41l-4.74 8.55-7.54 1.31-4.84-2.43-7.94-3.13 0.13-18.1z" fill="url(#paint25_linear_1324_11238)" stroke="#003E99" stroke-miterlimit="10" stroke-width=".5"/>
  <path d="m135.3 128.2 2.93-0.81 7.15-2.02 2.63 2.63-2.84 7.24-6.84 1.01-5.25-2.02 2.22-6.03z" fill="url(#paint26_linear_1324_11238)" stroke="#003E99" stroke-miterlimit="10" stroke-width=".5"/>
  <path d="m125.2 128.6 5.65-3.33 2.93 2.63-4.14 7.14" stroke="#003E99" stroke-miterlimit="10" stroke-width=".5"/>
  <path d="m137.6 95.46 9.76-1.11-0.71 3.63-8.14 2.03-1.61-2.13 0.7-2.42z" fill="url(#paint27_linear_1324_11238)" stroke="#003E99" stroke-miterlimit="10" stroke-width=".5"/>
  <path d="m138.7 81.01v8.13" stroke="#fff" stroke-miterlimit="10" stroke-width="2"/>
  <path d="m142 80.2v8.13" stroke="#fff" stroke-miterlimit="10" stroke-width="2"/>
  <path d="m138.2 140.6v24.65l-2.23 2.23" stroke="#fff" stroke-miterlimit="10" stroke-width="2"/>
  <path d="m134.7 138.8v24.65l-2.53 2.73" stroke="#fff" stroke-miterlimit="10" stroke-width="2"/>
  <path d="m146.5 145.1v17.87" stroke="#fff" stroke-miterlimit="10" stroke-width="2"/>
  <path d="m128.8 148 3.63 2.93" stroke="#fff" stroke-miterlimit="10" stroke-width="2"/>
  <path d="m185 114.6 9.45-3.44v8.24l-5.05 7.74-26.26 21.51v10.23" stroke="#003E99" stroke-miterlimit="10" stroke-width=".5"/>
  <path d="m158.3 127.6 13.01 5.95" stroke="#54FCFF" stroke-miterlimit="10" stroke-width=".5"/>
  <path d="m105 151.3 12.01-14.15 1.21 0.31" stroke="#54FCFF" stroke-miterlimit="10" stroke-width=".5"/>
  <path d="m101.7 150.1 12.01-14.57 3.64-1.81" stroke="#003E99" stroke-miterlimit="10" stroke-width=".5"/>
  <path d="m4.79 82.12 56.68 35.09 9.45 6.65 8.04 0.2 40.73-13.91" stroke="#54FCFF" stroke-miterlimit="10" stroke-width="2"/>
  <path d="m156.2 103.6 7.54-2.23 2.93 3.24 8.54-2.54 3.13-6.05 16.37-5.64" stroke="#003E99" stroke-miterlimit="10" stroke-width=".5"/>
  <path d="m164.2 102.1 9.76-3.03" stroke="#003E99" stroke-miterlimit="10" stroke-width=".5"/>
  <path d="m165.1 103.2 8.65-3.04" stroke="#003E99" stroke-miterlimit="10" stroke-width=".5"/>
  <path d="m184.7 95.55 0.1 18.37 9.55-3.83" stroke="#003E99" stroke-miterlimit="10" stroke-width=".5"/>
  <path d="m157.2 106.3 0.1 20.82 3.14 19.88v12.31" stroke="#003E99" stroke-miterlimit="10" stroke-width=".5"/>
  <path d="m100 111 9.85-3.84 2.94 0.81" stroke="#003E99" stroke-miterlimit="10" stroke-width=".5"/>
  <path d="m95.48 119.1 4.14 5.55 8.95-2.53 3.44-8.15" stroke="#003E99" stroke-miterlimit="10" stroke-width="2"/>
  <path d="m99.12 122.9 8.74-2.83" stroke="#003E99" stroke-miterlimit="10" stroke-width="2"/>
  <path d="m62.17 118.6v19.52l9.66 6.75 7.44 0.7 10.36-3.24 25.25 17.07 0.2 15.77" stroke="#003E99" stroke-miterlimit="10" stroke-width=".5"/>
  <path d="m73.15 126.1 1.62 2.83 0.3 14.77" stroke="#54FCFF" stroke-miterlimit="10" stroke-width=".5"/>
  <path d="m73.15 144.6v6.84" stroke="#003E99" stroke-miterlimit="10" stroke-width=".5"/>
  <path d="m79.27 145.4v6.64" stroke="#003E99" stroke-miterlimit="10" stroke-width=".5"/>
  <path d="m88.82 122.5v18.28l1.21 0.91" stroke="#003E99" stroke-miterlimit="10" stroke-width=".5"/>
  <path d="m25.91 139.6 1.82-0.91 1.82-10.73 11.11 7.05 2.23 13.91" stroke="#003E99" stroke-miterlimit="10" stroke-width=".5"/>
  <path d="m34.92 117.4v12.41" stroke="#003E99" stroke-miterlimit="10" stroke-width=".5"/>
  <path d="m27.78 147.1 0.81 1.41v4.64" stroke="#003E99" stroke-miterlimit="10" stroke-width=".5"/>
  <path d="m41.77 156.7 0.4-0.5v3.94" stroke="#003E99" stroke-miterlimit="10" stroke-width=".5"/>
  <path d="m46.01 152.4 16.97-14.58 6.95 4.44 2.83 0.6" stroke="#003E99" stroke-miterlimit="10" stroke-width=".5"/>
  <path d="m73.15 157.1 4.14 1.11v19.38l-4.54 3.03" stroke="#003E99" stroke-miterlimit="10" stroke-width=".5"/>
  <path d="m73.86 165.1 1.21-2.02v12.92l-1.61 1.41 0.4-12.31z" fill="#87FFFE" stroke="#003E99" stroke-miterlimit="10" stroke-width=".5"/>
  <path d="m27.73 139.5 14.46 10.43" stroke="#00F0FF" stroke-miterlimit="10" stroke-width="2"/>
  <path d="m54.29 70.53 12.41-4.44 29.08 2.43 9.96 4.24 1.71 8.15-20.91 2.93-1.41 1.82-11.51-1.31-23.42-10.73 4.09-3.09z" fill="url(#paint28_linear_1324_11238)" stroke="#003E99" stroke-miterlimit="10" stroke-width=".5"/>
  <path d="m61.73 72.45 5.75-2.93 23.42 1.71 3.03 1.62-9.15 4.24-14.77-1.01-8.28-3.63z" fill="url(#paint29_linear_1324_11238)" stroke="#003E99" stroke-miterlimit="10" stroke-width=".5"/>
  <path d="m54.39 80.4 0.81-1.21 9.25 7.15 3.43 9.75v11.82l-1.92-0.4-11.57-24.07v-3.04z" fill="url(#paint30_linear_1324_11238)" stroke="#003E99" stroke-miterlimit="10" stroke-width=".5"/>
  <path d="m68.91 82.22 0.8-1.21 13.77 1.31 0.6 3.14-6.64 9.95-4.34-1.92-4.19-11.27z" fill="url(#paint31_linear_1324_11238)" stroke="#003E99" stroke-miterlimit="10" stroke-width=".5"/>
  <path d="m71.43 94.64 4.95 2.63 0.2 20.82h-5.15v-23.45z" fill="url(#paint32_linear_1324_11238)" stroke="#003E99" stroke-miterlimit="10" stroke-width=".5"/>
  <path d="m82.97 97.78 6.85-9.75 10.81-2.43v6.15l-13.42 19.48-4.14 1.01-0.1-14.46z" fill="url(#paint33_linear_1324_11238)" stroke="#003E99" stroke-miterlimit="10" stroke-width=".5"/>
  <path d="m90.42 81.01 14.76-5.05v1.71l-14.76 4.34v-1z" fill="#87FFFE" stroke="#003E99" stroke-miterlimit="10" stroke-width=".5"/>
  <path d="m47.12 75.56v2.84" stroke="#003E99" stroke-miterlimit="10" stroke-width=".75"/>
  <path d="m26.31 62.46v2.63" stroke="#003E99" stroke-miterlimit="10" stroke-width=".75"/>
  <path d="m6.47 87.51 0.84-0.05 0.31 2.33-1.01 0.36-0.14-2.64z" stroke="#003E99" stroke-miterlimit="10" stroke-width=".75"/>
  <path d="m14.21 93.49 0.7-0.56 0.51 0.91-0.61 1-0.6-1.35z" stroke="#003E99" stroke-miterlimit="10" stroke-width=".75"/>
  <path d="m52.31 39.74h1.82l-0.71 1.11h-1.51l0.4-1.11z" stroke="#003E99" stroke-miterlimit="10" stroke-width=".75"/>
  <path d="m45.16 33.89h1.11" stroke="#003E99" stroke-miterlimit="10" stroke-width=".75"/>
  <path d="m91.45 21.47h1.21" stroke="#003E99" stroke-miterlimit="10" stroke-width=".75"/>
  <path d="m99.19 26.31 0.91-0.2" stroke="#003E99" stroke-miterlimit="10" stroke-width=".75"/>
  <path d="m133.2 29.14h1.21" stroke="#003E99" stroke-miterlimit="10" stroke-width=".75"/>
  <path d="m152.9 41.05h1.21" stroke="#003E99" stroke-miterlimit="10" stroke-width=".75"/>
  <path d="m146.2 52.26h1.21" stroke="#003E99" stroke-miterlimit="10" stroke-width=".75"/>
  <path d="m155.3 59.41h1.32" stroke="#003E99" stroke-miterlimit="10" stroke-width=".75"/>
  <path d="m129.2 47.23h1.21" stroke="#003E99" stroke-miterlimit="10" stroke-width=".75"/>
  <path d="m66.5 63.37h1.41" stroke="#003E99" stroke-miterlimit="10" stroke-width=".75"/>
  <path d="m96.46 66.01h1.31" stroke="#003E99" stroke-miterlimit="10" stroke-width=".75"/>
  <path d="m108.6 70.05h1.21" stroke="#003E99" stroke-miterlimit="10" stroke-width=".75"/>
  <path d="m89.32 56.61h0.81" stroke="#003E99" stroke-miterlimit="10" stroke-width=".75"/>
  <path d="m115.7 103 0.9-0.5" stroke="#003E99" stroke-miterlimit="10" stroke-width=".75"/>
  <path d="m115.3 120.5 0.91-0.4" stroke="#003E99" stroke-miterlimit="10" stroke-width=".75"/>
  <path d="m118 168.9 0.91-0.4" stroke="#003E99" stroke-miterlimit="10" stroke-width=".75"/>
  <path d="m124.1 148.6 0.91-0.41" stroke="#003E99" stroke-miterlimit="10" stroke-width=".75"/>
  <path d="m151.5 160.6 0.91-0.51" stroke="#003E99" stroke-miterlimit="10" stroke-width=".75"/>
  <path d="m158.3 159.2 0.91-0.71" stroke="#003E99" stroke-miterlimit="10" stroke-width=".75"/>
  <path d="m159.8 108.4 0.91-0.51" stroke="#003E99" stroke-miterlimit="10" stroke-width=".75"/>
  <path d="m181.3 102.2 0.91-0.7" stroke="#003E99" stroke-miterlimit="10" stroke-width=".75"/>
  <path d="m191 98.76 0.8-0.71" stroke="#003E99" stroke-miterlimit="10" stroke-width=".75"/>
  <path d="m158.5 93.33 0.6-0.5" stroke="#003E99" stroke-miterlimit="10" stroke-width=".75"/>
  <path d="m147 78.78 0.61-0.5" stroke="#003E99" stroke-miterlimit="10" stroke-width=".75"/>
  <path d="m67.72 128.3 0.71-0.61" stroke="#003E99" stroke-miterlimit="10" stroke-width=".75"/>
  <path d="m83.28 129.3 0.91-0.91" stroke="#003E99" stroke-miterlimit="10" stroke-width=".75"/>
  <path d="m92.93 127.8 0.81-0.6" stroke="#003E99" stroke-miterlimit="10" stroke-width=".75"/>
  <path d="m58.38 122.4 0.7-0.2" stroke="#003E99" stroke-miterlimit="10" stroke-width=".75"/>
  <path d="m152.4 142.1 0.71-0.81" stroke="#003E99" stroke-miterlimit="10" stroke-width=".75"/>
  <defs>
    <linearGradient id="paint0_linear_1324_11238" x1="100.1" x2="100.1" y1="14.23" y2="188" gradientUnits="userSpaceOnUse">
      <stop stop-color="#00F0FF" offset="0"/>
      <stop stop-color="#00F0FF" offset=".515"/>
      <stop stop-color="#06B2D1" offset=".6042"/>
      <stop stop-color="#0C75A7" offset=".7291"/>
      <stop stop-color="#104A8A" offset=".827"/>
      <stop stop-color="#12357A" offset=".8929"/>
      <stop stop-color="#132D75" offset=".9278"/>
    </linearGradient>
    <linearGradient id="paint1_linear_1324_11238" x1="69.41" x2="69.41" y1="32.47" y2="172.1" gradientUnits="userSpaceOnUse">
      <stop stop-color="#00F0FF" offset="0"/>
      <stop stop-color="#2172BC" offset=".7708"/>
      <stop stop-color="#2828B8" offset=".9688"/>
    </linearGradient>
    <linearGradient id="paint2_linear_1324_11238" x1="151.1" x2="151.1" y1="38.71" y2="77.27" gradientUnits="userSpaceOnUse">
      <stop stop-color="#00F0FF" offset="0"/>
      <stop stop-color="#2172BC" offset=".7708"/>
      <stop stop-color="#2828B8" offset=".9688"/>
    </linearGradient>
    <linearGradient id="paint3_linear_1324_11238" x1="166.9" x2="166.9" y1="82.61" y2="164" gradientUnits="userSpaceOnUse">
      <stop stop-color="#00F0FF" offset="0"/>
      <stop stop-color="#2172BC" offset=".7708"/>
      <stop stop-color="#2828B8" offset=".9688"/>
    </linearGradient>
    <linearGradient id="paint4_linear_1324_11238" x1="117.5" x2="117.5" y1="14.39" y2="25.97" gradientUnits="userSpaceOnUse">
      <stop stop-color="#00F0FF" offset="0"/>
      <stop stop-color="#2172BC" offset=".7708"/>
      <stop stop-color="#2828B8" offset=".9688"/>
    </linearGradient>
    <linearGradient id="paint5_linear_1324_11238" x1="25.37" x2="25.37" y1="33.48" y2="55.51" gradientUnits="userSpaceOnUse">
      <stop stop-color="#8419C5" offset="0"/>
      <stop stop-color="#7F25EE" offset=".8906"/>
    </linearGradient>
    <linearGradient id="paint6_linear_1324_11238" x1="11.71" x2="11.71" y1="51.05" y2="73.51" gradientUnits="userSpaceOnUse">
      <stop stop-color="#8419C5" offset="0"/>
      <stop stop-color="#7F25EE" offset=".8906"/>
    </linearGradient>
    <linearGradient id="paint7_linear_1324_11238" x1="25.88" x2="25.88" y1="36.4" y2="49.7" gradientUnits="userSpaceOnUse">
      <stop stop-color="#B6FEFF" offset="0"/>
      <stop stop-color="#87FFFE" offset=".9688"/>
    </linearGradient>
    <linearGradient id="paint8_linear_1324_11238" x1="174.3" x2="174.3" y1="39.12" y2="58.04" gradientUnits="userSpaceOnUse">
      <stop stop-color="#3A28B8" offset="0"/>
      <stop stop-color="#2828B8" offset=".9688"/>
    </linearGradient>
    <linearGradient id="paint9_linear_1324_11238" x1="173.4" x2="173.4" y1="42.46" y2="55.69" gradientUnits="userSpaceOnUse">
      <stop stop-color="#B6FEFF" offset="0"/>
      <stop stop-color="#87FFFE" offset=".9688"/>
    </linearGradient>
    <linearGradient id="paint10_linear_1324_11238" x1="190.9" x2="190.9" y1="46.77" y2="66.07" gradientUnits="userSpaceOnUse">
      <stop stop-color="#00F0FF" offset="0"/>
      <stop stop-color="#2172BC" offset=".7708"/>
      <stop stop-color="#2828B8" offset=".9688"/>
    </linearGradient>
    <linearGradient id="paint11_linear_1324_11238" x1="181.3" x2="181.3" y1="56.83" y2="90.6" gradientUnits="userSpaceOnUse">
      <stop stop-color="#3A28B8" offset="0"/>
      <stop stop-color="#2828B8" offset=".9688"/>
    </linearGradient>
    <linearGradient id="paint12_linear_1324_11238" x1="181" x2="181" y1="62.93" y2="84.82" gradientUnits="userSpaceOnUse">
      <stop stop-color="#B6FEFF" offset="0"/>
      <stop stop-color="#87FFFE" offset=".9688"/>
    </linearGradient>
    <linearGradient id="paint13_linear_1324_11238" x1="33.58" x2="33.58" y1="53.67" y2="116.8" gradientUnits="userSpaceOnUse">
      <stop stop-color="#00F0FF" offset="0"/>
      <stop stop-color="#2172BC" offset=".7708"/>
      <stop stop-color="#2828B8" offset=".9688"/>
    </linearGradient>
    <linearGradient id="paint14_linear_1324_11238" x1="12.03" x2="12.03" y1="112.7" y2="153.8" gradientUnits="userSpaceOnUse">
      <stop stop-color="#3A28B8" offset="0"/>
      <stop stop-color="#2828B8" offset=".9688"/>
    </linearGradient>
    <linearGradient id="paint15_linear_1324_11238" x1="10.84" x2="10.84" y1="118.2" y2="144.9" gradientUnits="userSpaceOnUse">
      <stop stop-color="#B6FEFF" offset="0"/>
      <stop stop-color="#87FFFE" offset=".9688"/>
    </linearGradient>
    <linearGradient id="paint16_linear_1324_11238" x1="182.5" x2="182.5" y1="120.3" y2="161" gradientUnits="userSpaceOnUse">
      <stop stop-color="#3A28B8" offset="0"/>
      <stop stop-color="#7F25EE" offset=".9688"/>
    </linearGradient>
    <linearGradient id="paint17_linear_1324_11238" x1="184.9" x2="184.9" y1="130.9" y2="156" gradientUnits="userSpaceOnUse">
      <stop stop-color="#B6FEFF" offset="0"/>
      <stop stop-color="#87FFFE" offset=".9688"/>
    </linearGradient>
    <linearGradient id="paint18_linear_1324_11238" x1="78.72" x2="78.72" y1="148.1" y2="187.5" gradientUnits="userSpaceOnUse">
      <stop stop-color="#3A28B8" offset="0"/>
      <stop stop-color="#7F25EE" offset=".9688"/>
    </linearGradient>
    <linearGradient id="paint19_linear_1324_11238" x1="60.84" x2="60.84" y1="156.7" y2="175.9" gradientUnits="userSpaceOnUse">
      <stop stop-color="#B6FEFF" offset="0"/>
      <stop stop-color="#87FFFE" offset=".9688"/>
    </linearGradient>
    <linearGradient id="paint20_linear_1324_11238" x1="91.41" x2="91.41" y1="160.1" y2="179.9" gradientUnits="userSpaceOnUse">
      <stop stop-color="#B6FEFF" offset="0"/>
      <stop stop-color="#87FFFE" offset=".9688"/>
    </linearGradient>
    <linearGradient id="paint21_linear_1324_11238" x1="125.9" x2="125.9" y1="55.79" y2="79.87" gradientUnits="userSpaceOnUse">
      <stop stop-color="#00F0FF" offset="0"/>
      <stop stop-color="#2172BC" offset=".7708"/>
      <stop stop-color="#2828B8" offset=".9688"/>
    </linearGradient>
    <linearGradient id="paint22_linear_1324_11238" x1="136.7" x2="136.7" y1="65.96" y2="76.06" gradientUnits="userSpaceOnUse">
      <stop stop-color="#B6FEFF" offset="0"/>
      <stop stop-color="#87FFFE" offset=".9688"/>
    </linearGradient>
    <linearGradient id="paint23_linear_1324_11238" x1="137.4" x2="137.4" y1="91.12" y2="116.2" gradientUnits="userSpaceOnUse">
      <stop stop-color="#80D5FF" offset="0"/>
      <stop stop-color="#7F25EE" offset=".6406"/>
    </linearGradient>
    <linearGradient id="paint24_linear_1324_11238" x1="127.1" x2="127.1" y1="100.3" y2="110.5" gradientUnits="userSpaceOnUse">
      <stop stop-color="#80D5FF" offset="0"/>
      <stop stop-color="#7F25EE" offset=".6406"/>
    </linearGradient>
    <linearGradient id="paint25_linear_1324_11238" x1="136.6" x2="136.6" y1="112.9" y2="136.6" gradientUnits="userSpaceOnUse">
      <stop stop-color="#80D5FF" offset="0"/>
      <stop stop-color="#7F25EE" offset=".6406"/>
    </linearGradient>
    <linearGradient id="paint26_linear_1324_11238" x1="138.6" x2="138.6" y1="125" y2="136.3" gradientUnits="userSpaceOnUse">
      <stop stop-color="#80D5FF" offset="0"/>
      <stop stop-color="#7F25EE" offset=".6406"/>
    </linearGradient>
    <linearGradient id="paint27_linear_1324_11238" x1="142.2" x2="142.2" y1="94.26" y2="99.91" gradientUnits="userSpaceOnUse">
      <stop stop-color="#80D5FF" offset="0"/>
      <stop stop-color="#7F25EE" offset=".6406"/>
    </linearGradient>
    <linearGradient id="paint28_linear_1324_11238" x1="78.82" x2="78.82" y1="66.09" y2="85.66" gradientUnits="userSpaceOnUse">
      <stop stop-color="#8419C5" offset="0"/>
      <stop stop-color="#7F25EE" offset=".8906"/>
    </linearGradient>
    <linearGradient id="paint29_linear_1324_11238" x1="77.84" x2="77.84" y1="69.52" y2="77.67" gradientUnits="userSpaceOnUse">
      <stop stop-color="#B6FEFF" offset="0"/>
      <stop stop-color="#87FFFE" offset=".9688"/>
    </linearGradient>
    <linearGradient id="paint30_linear_1324_11238" x1="61.14" x2="61.14" y1="79.19" y2="107.9" gradientUnits="userSpaceOnUse">
      <stop stop-color="#8419C5" offset="0"/>
      <stop stop-color="#7F25EE" offset=".8906"/>
    </linearGradient>
    <linearGradient id="paint31_linear_1324_11238" x1="76.5" x2="76.5" y1="81.02" y2="95.42" gradientUnits="userSpaceOnUse">
      <stop stop-color="#B6FEFF" offset="0"/>
      <stop stop-color="#87FFFE" offset=".9688"/>
    </linearGradient>
    <linearGradient id="paint32_linear_1324_11238" x1="73.9" x2="73.9" y1="94.64" y2="118.1" gradientUnits="userSpaceOnUse">
      <stop stop-color="#8419C5" offset="0"/>
      <stop stop-color="#7F25EE" offset=".8906"/>
    </linearGradient>
    <linearGradient id="paint33_linear_1324_11238" x1="91.79" x2="91.79" y1="85.6" y2="112.2" gradientUnits="userSpaceOnUse">
      <stop stop-color="#8419C5" offset="0"/>
      <stop stop-color="#7F25EE" offset=".8906"/>
    </linearGradient>
  </defs>
</svg>