<svg xmlns="http://www.w3.org/2000/svg" width="250" height="250" fill="none" viewBox="0 0 250 250">
<!-- SVG created with Arrow, by QuiverAI (https://quiver.ai) -->
  <path d="m246.7 78.19-11.56-23.89-22.4-8.21-6.23 1.25-29.57-16.18-1.31-4.54-17.1-10.01-19.23-0.61-23.1 4.66-0.47 1.22-17.51 5.23-0.28 2.34-52.51 9.84-1.49-0.28-26.75 5.62-14.17 20.62v23.43l4.09 3.89-0.68 4.8-1.28 3.69-0.07 31.72-0.95 2.33v29.48l4.54 10.22 17.37 15.03 2.84 0.81 1.06-0.74 31.04 20.9 2.27 0.2 1.18 4.61 19.57 15.97 20.74 2 29.68-9.68 23.32-8.15 0.86-2.13 26.88-6.91 1.16-1.89 22.33-5.69 1.39 1.42 26.95-7.12 9.05-14.62 0.66-27.22-3.18-3.56-0.14-2.2 0.28-32.78 1.97-9.34 0.75-25.53z" fill="url(#paint0_radial_1_6644)" stroke="url(#paint1_linear_1_6644)" stroke-linecap="round" stroke-linejoin="round" stroke-width=".7"/>
  <path d="m47.07 40.06 3.84 4 5.82 0.85 0.89 1.6-7.91 14.3 0.71 1.05 31.31 17.07 41.06 3.97 10.12 6.01 13.45-3.11-2.1-7.08 30.43-8.52 10.12 5.68 14.59-2.77-7.78-6.63 4.54-16.32-26.11-15.9-46.34-5.4-8-6.98-17.3 5.16-0.56 2.68-31.94 6.22-18.84 4.12z" fill="url(#paint2_linear_1_6644)" stroke="url(#paint3_linear_1_6644)" stroke-linecap="round" stroke-linejoin="round" stroke-width=".7"/>
  <path d="m173.4 30.74-1.28 2.4 24.59 15.76 7.51-0.48 2.33-1.08-30.88-17.14-1.27 1.16-1-0.62z" fill="url(#paint4_linear_1_6644)" stroke="url(#paint5_linear_1_6644)" stroke-linecap="round" stroke-linejoin="round" stroke-width=".7"/>
  <path d="m116.6 20.46 8.06 5.33 38.42 3.14 11.82-2.37-16.67-10.02-18.83-0.41-22.8 4.33z" fill="url(#paint6_linear_1_6644)" stroke="url(#paint7_linear_1_6644)" stroke-linecap="round" stroke-linejoin="round" stroke-width=".7"/>
  <path d="m65.91 35.94 6.29 3.7 31.04-7.87-4.83-2.05" stroke="url(#paint8_linear_1_6644)" stroke-linecap="round" stroke-linejoin="round" stroke-width=".7"/>
  <path d="m15.19 92.3 11.7-12.76v-10.83l-16.53-14-7.22 10.7v23l4.76 4.64 4.22 3 3.07-3.75z" fill="url(#paint9_linear_1_6644)" stroke="url(#paint10_linear_1_6644)" stroke-linecap="round" stroke-linejoin="round" stroke-width=".7"/>
  <path d="m12.33 54.37 13.49 10.77 1.82 1.49 0.4-0.07 14.12-5.61 8.48-15.1-5.37-6.7-28.24 5.55-4.7 9.67z" fill="url(#paint11_linear_1_6644)" stroke="url(#paint12_linear_1_6644)" stroke-linecap="round" stroke-linejoin="round" stroke-width=".7"/>
  <path d="m233 55.66-20.09-9.23-10.46 2.26-6.37 17.52 10.05 5.23 24.73-6.3 4.25-9.23-2.11-0.25z" fill="url(#paint13_linear_1_6644)" stroke="url(#paint14_linear_1_6644)" stroke-linecap="round" stroke-linejoin="round" stroke-width=".7"/>
  <path d="m237 58.13-4.61 7.53 7.44 10.49 5.88 2.09-1.28-7.21-7.43-12.9z" fill="url(#paint15_linear_1_6644)" stroke="url(#paint16_linear_1_6644)" stroke-linecap="round" stroke-linejoin="round" stroke-width=".7"/>
  <path d="m244.8 79.91-12.49-9.64-25.36 2.16 0.07 8.3-1.49-0.27-4.47-6.54-13.99 2.51 1.75 9.3 17.3-5 0.9-8.3 25.29-2.16 12.42 10.66 0.97 1.42v20.56l-3.11 4.64 0.48 2.47 0.14 5.68-0.41 0.3v31.16l-1.72 0.95-0.48 2.13-7.57 1.7-24.38 33.79v14.02l3.04 0.41 2.33-3.21v-9.33l22.77-29.14 9.39-5.82 0.34-1.4-3.04-3.15-0.41-1.96-0.06-31.19 0.65-1.69v-3.18l-1.34-1.63 3.32-5.42-0.84-23.13z" fill="url(#paint17_linear_1_6644)" stroke="url(#paint18_linear_1_6644)" stroke-linecap="round" stroke-linejoin="round" stroke-width=".7"/>
  <path d="m5.13 101.1 83.64 54.03 9.42 0.54 51.8-15.62-0.55 27.59 9.11 7.82-0.76 36.54 0.65 1.53 27.49-7.31 0.96-1.83 0.55-35.26 6.23-11.97 0.62-28.5 48.94-12.92-0.41-8.69-48.19 12.69v-14.09l-6.71-7.76 0.79-12.6-3.62-8.89-10.47-6.16-29.95 8.25 5.25 3.49 7.06 10.77 0.47 13.45-7.19 9.95v16.8l-1.62 3.9 2.4 0.61-2.33 0.89 2.2-0.48 4.15-0.68 0.07-20.05 4.09-7.56 4.54 2.6-3.85 6.57v17.07l8.21 3.82 3.84 10.7 12.03-2.94 3.66-13.7 2.4-1.56v-3.34l-1.42-0.95v-15.73l-4.91-6.85-25.86 5.82-0.61-16.04-7.26-13.27-3.36-2.81" stroke="#18466D" stroke-linecap="round" stroke-linejoin="round" stroke-width=".7"/>
  <path d="m156.1 137.5 9.56 3.33 3.14 12.24 15.47-4.03 2.91-15.23 1.46-0.95" stroke="#18466D" stroke-linecap="round" stroke-linejoin="round" stroke-width=".7"/>
  <path d="m155.7 162.2 3.01-1.02 6.36 7.12 17.93-3.62 2.59-4.48-1.71-7.31-11.3 4.12-2.57 8.01" stroke="#18466D" stroke-linecap="round" stroke-linejoin="round" stroke-width=".7"/>
  <path d="m159.4 175.4 25.66-7.08 1.33 1.29-0.51 35.6" stroke="#18466D" stroke-linecap="round" stroke-linejoin="round" stroke-width=".7"/>
  <path d="m187.6 86.07-29.93 9.14" stroke="#18466D" stroke-linecap="round" stroke-linejoin="round" stroke-width=".7"/>
  <path d="m153.6 88.61-20.93 0.81 2.2 8.84 20.56-4.4" stroke="#18466D" stroke-linecap="round" stroke-linejoin="round" stroke-width=".7"/>
  <path d="m5.06 133.3 7.06 6.68 15.31 35v14.39l-1.07 0.51-17.91-15.44-5.24-10.15v-27.24l1.85-3.75z" fill="url(#paint19_linear_1_6644)" stroke="url(#paint20_linear_1_6644)" stroke-linecap="round" stroke-linejoin="round" stroke-width=".7"/>
  <path d="m31.05 118.2 1.06 6.75 2.84 5 21.58 15.03h1.88l2.2-4.32v-1.7l-29.56-20.76z" stroke="#18466D" stroke-linecap="round" stroke-linejoin="round" stroke-width=".7"/>
  <path d="m63.16 202 18.57-11.97 15.03 5.16 9.78-1.76 22.16 14.69 0.41 14.96 6.01-19.56-27.01-17.39-3.04 2.27-16.81-0.48-8.68-5-18.77 15.1-0.06 10.7 2.41 0.34v-7.06z" fill="url(#paint21_linear_1_6644)" stroke="url(#paint22_linear_1_6644)" stroke-linecap="round" stroke-linejoin="round" stroke-width=".7"/>
  <path d="m63.63 204.1 19.63-14.1 7 4.21 6.09 0.95 30.46 13.46 1.42 14.16-22.48 6.44-10.12-7.6-12.03 4.57-19.19-13.01-0.78-9.08z" fill="url(#paint23_linear_1_6644)" stroke="url(#paint24_linear_1_6644)" stroke-linecap="round" stroke-linejoin="round" stroke-width=".7"/>
  <path d="m93.72 223.2-6.01 4.7 13.63 1.6-7.62-6.3z" fill="#99E3FF" stroke="url(#paint25_linear_1_6644)" stroke-linecap="round" stroke-linejoin="round" stroke-width=".7"/>
  <path d="m134.4 219.7 23.12-6.04" stroke="#4A148C" stroke-linecap="round" stroke-linejoin="round" stroke-width=".7"/>
  <path d="m88.05 187.5v-32.71" stroke="#18466D" stroke-linecap="round" stroke-linejoin="round" stroke-width=".7"/>
  <path d="m98.06 155.2v32.77" stroke="#18466D" stroke-linecap="round" stroke-linejoin="round" stroke-width=".7"/>
  <path d="m87.57 118.6v26.09" stroke="#18466D" stroke-linecap="round" stroke-linejoin="round" stroke-width=".7"/>
  <path d="m97.13 118.7v26.63" stroke="#18466D" stroke-linecap="round" stroke-linejoin="round" stroke-width=".7"/>
  <path d="m96.01 221.4v-26.19" stroke="#18466D" stroke-linecap="round" stroke-linejoin="round" stroke-width=".7"/>
  <path d="m87.57 226v-31.77" stroke="#18466D" stroke-linecap="round" stroke-linejoin="round" stroke-width=".7"/>
  <path d="m5.72 98.67 83.12 51.24 9.98-4.3 50.83-15.7v-13.66l6.6-9.89-0.99-12.63-5.27-11.52-4.87-3.89" stroke="#2994B5" stroke-linecap="round" stroke-linejoin="round" stroke-width=".7"/>
  <path d="m7.5 95.76 10.25 1.35 55.2 38.54 0.48-6.62-14.26-25.31v-13.72l-28.05-18.97-0.14 12.63-13.74 11.07v3.46" stroke="#2994B5" stroke-linecap="round" stroke-linejoin="round" stroke-width=".7"/>
  <path d="m31.12 70.14 3.29-6.02 12.63-1.99 28.31 15.58 0.54 3.36-11.7 4.59-29.78-19.3-3.29 3.78z" fill="url(#paint26_linear_1_6644)" stroke="url(#paint27_linear_1_6644)" stroke-linecap="round" stroke-linejoin="round" stroke-width=".7"/>
  <path d="m31.46 75.13-0.34 8.39-13.37 11.32v3.21l14.59-7.69-0.88-15.23z" fill="url(#paint28_linear_1_6644)" stroke="url(#paint29_linear_1_6644)" stroke-linecap="round" stroke-linejoin="round" stroke-width=".7"/>
  <path d="m31.8 70.07 2.84-5.47 7.79-2.47" stroke="#18466D" stroke-linecap="round" stroke-linejoin="round" stroke-width=".7"/>
  <path d="m64.05 86.34 2.2-0.2 17.35 12.66 3.66-1.76 18.9-0.68 24.99-7.62-8.03-5.91-41.19-2.88-6.11 1.05-0.61 0.81-11.16 4.53z" fill="url(#paint30_linear_1_6644)"/>
  <path d="m64.32 88.54-0.81 14.91 11.02 24.63 0.2 8.59 12.84 8.13 10.25-0.14 51.83-15.43 0.61-13.05 6.06-9.48-0.99-11.9-21.24 4.13-25.48 4.73-11.4 15.36-6.06-4-6.49-11.36-20.34-15.12z" fill="url(#paint31_linear_1_6644)"/>
  <path d="m86.06 101.7 1.59-2.94 1.78-0.34 13.2 1.29 1.09 2.88-8.98 13.75-3.32-1.36-5.36-13.28z" fill="url(#paint32_linear_1_6644)" stroke="#2994B5" stroke-linecap="round" stroke-linejoin="round" stroke-width=".7"/>
  <path d="m156.1 137.4-0.44 0.28-0.28 25.49 9.85 6.17 0.68-0.54-0.75-27.79-9.06-3.61z" stroke="#18466D" stroke-linecap="round" stroke-linejoin="round" stroke-width=".7"/>
  <path d="m170.7 118 12.92-1.35 0.68 0.61-0.41 3.59-2.84 1.82-8.67 1.02-1.68-3.39v-2.3z" fill="url(#paint33_linear_1_6644)" stroke="#2994B5" stroke-linecap="round" stroke-linejoin="round" stroke-width=".7"/>
  <defs>
    <radialGradient id="paint0_radial_1_6644" cx="0" cy="0" r="1" gradientTransform="translate(106.5 41.67) scale(213.5)" gradientUnits="userSpaceOnUse">
      <stop stop-color="#52D5F0" offset="0"/>
      <stop stop-color="#6A439A" offset="1"/>
    </radialGradient>
    <linearGradient id="paint1_linear_1_6644" x1="3" x2="247" y1="124.8" y2="124.8" gradientUnits="userSpaceOnUse">
      <stop stop-color="#18466D" offset="0"/>
      <stop stop-color="#4A148C" offset="1"/>
    </linearGradient>
    <linearGradient id="paint2_linear_1_6644" x1="124.4" x2="127" y1="16" y2="64.26" gradientUnits="userSpaceOnUse">
      <stop stop-color="#39C6E7" offset="0"/>
      <stop stop-color="#7896B1" offset="1"/>
    </linearGradient>
    <linearGradient id="paint3_linear_1_6644" x1="47.07" x2="206.6" y1="51.13" y2="51.13" gradientUnits="userSpaceOnUse">
      <stop stop-color="#006E8A" offset="0"/>
      <stop stop-color="#4A148C" offset="1"/>
    </linearGradient>
    <linearGradient id="paint4_linear_1_6644" x1="172.1" x2="206.6" y1="39.58" y2="39.58" gradientUnits="userSpaceOnUse">
      <stop stop-color="#6491B5" offset="0"/>
      <stop stop-color="#7038B5" offset="1"/>
    </linearGradient>
    <linearGradient id="paint5_linear_1_6644" x1="172.1" x2="206.6" y1="39.58" y2="39.58" gradientUnits="userSpaceOnUse">
      <stop stop-color="#006E8A" offset="0"/>
      <stop stop-color="#4A148C" offset="1"/>
    </linearGradient>
    <linearGradient id="paint6_linear_1_6644" x1="116.6" x2="174.9" y1="22.53" y2="22.53" gradientUnits="userSpaceOnUse">
      <stop stop-color="#3993BD" offset="0"/>
      <stop stop-color="#67C5E0" offset="1"/>
    </linearGradient>
    <linearGradient id="paint7_linear_1_6644" x1="116.6" x2="174.9" y1="22.53" y2="22.53" gradientUnits="userSpaceOnUse">
      <stop stop-color="#006E8A" offset="0"/>
      <stop stop-color="#4A148C" offset="1"/>
    </linearGradient>
    <linearGradient id="paint8_linear_1_6644" x1="65.91" x2="103.2" y1="34.69" y2="34.69" gradientUnits="userSpaceOnUse">
      <stop stop-color="#006E8A" offset="0"/>
      <stop stop-color="#4A148C" offset="1"/>
    </linearGradient>
    <linearGradient id="paint9_linear_1_6644" x1="3.137" x2="26.89" y1="74.91" y2="74.91" gradientUnits="userSpaceOnUse">
      <stop stop-color="#346A8D" offset="0"/>
      <stop stop-color="#3C799F" offset="1"/>
    </linearGradient>
    <linearGradient id="paint10_linear_1_6644" x1="3.137" x2="26.89" y1="74.91" y2="74.91" gradientUnits="userSpaceOnUse">
      <stop stop-color="#006E8A" offset="0"/>
      <stop stop-color="#4A148C" offset="1"/>
    </linearGradient>
    <linearGradient id="paint11_linear_1_6644" x1="12.33" x2="50.64" y1="52.89" y2="52.89" gradientUnits="userSpaceOnUse">
      <stop stop-color="#39C6E7" offset="0"/>
      <stop stop-color="#67C5E0" offset="1"/>
    </linearGradient>
    <linearGradient id="paint12_linear_1_6644" x1="12.33" x2="50.64" y1="52.89" y2="52.89" gradientUnits="userSpaceOnUse">
      <stop stop-color="#006E8A" offset="0"/>
      <stop stop-color="#4A148C" offset="1"/>
    </linearGradient>
    <linearGradient id="paint13_linear_1_6644" x1="196.1" x2="235.1" y1="58.94" y2="58.94" gradientUnits="userSpaceOnUse">
      <stop stop-color="#7896B1" offset="0"/>
      <stop stop-color="#82B8D5" offset="1"/>
    </linearGradient>
    <linearGradient id="paint14_linear_1_6644" x1="196.1" x2="235.1" y1="58.94" y2="58.94" gradientUnits="userSpaceOnUse">
      <stop stop-color="#006E8A" offset="0"/>
      <stop stop-color="#4A148C" offset="1"/>
    </linearGradient>
    <linearGradient id="paint15_linear_1_6644" x1="232.4" x2="245.7" y1="68.18" y2="68.18" gradientUnits="userSpaceOnUse">
      <stop stop-color="#A657F1" offset="0"/>
      <stop stop-color="#CE86FF" offset=".42"/>
      <stop stop-color="#E9BEFF" offset="1"/>
    </linearGradient>
    <linearGradient id="paint16_linear_1_6644" x1="232.4" x2="245.7" y1="68.18" y2="68.18" gradientUnits="userSpaceOnUse">
      <stop stop-color="#4A148C" offset="0"/>
      <stop stop-color="#A657F1" offset="1"/>
    </linearGradient>
    <linearGradient id="paint17_linear_1_6644" x1="155.1" x2="246.5" y1="134.3" y2="134.3" gradientUnits="userSpaceOnUse">
      <stop stop-color="#6694B2" offset="0"/>
      <stop stop-color="#9257D2" offset="1"/>
    </linearGradient>
    <linearGradient id="paint18_linear_1_6644" x1="155.1" x2="246.5" y1="134.3" y2="134.3" gradientUnits="userSpaceOnUse">
      <stop stop-color="#006E8A" offset="0"/>
      <stop stop-color="#4A148C" offset="1"/>
    </linearGradient>
    <linearGradient id="paint19_linear_1_6644" x1="3.205" x2="27.43" y1="161.5" y2="161.5" gradientUnits="userSpaceOnUse">
      <stop stop-color="#477595" offset="0"/>
      <stop stop-color="#4BFFFE" offset="1"/>
    </linearGradient>
    <linearGradient id="paint20_linear_1_6644" x1="3.205" x2="27.43" y1="161.5" y2="161.5" gradientUnits="userSpaceOnUse">
      <stop stop-color="#006E8A" offset="0"/>
      <stop stop-color="#4A148C" offset="1"/>
    </linearGradient>
    <linearGradient id="paint21_linear_1_6644" x1="60.75" x2="135.1" y1="202.7" y2="202.7" gradientUnits="userSpaceOnUse">
      <stop stop-color="#4BFFFE" offset="0"/>
      <stop stop-color="#C5E8FF" offset="1"/>
    </linearGradient>
    <linearGradient id="paint22_linear_1_6644" x1="60.75" x2="135.1" y1="202.7" y2="202.7" gradientUnits="userSpaceOnUse">
      <stop stop-color="#006E8A" offset="0"/>
      <stop stop-color="#4A148C" offset="1"/>
    </linearGradient>
    <linearGradient id="paint23_linear_1_6644" x1="63.57" x2="128.7" y1="209.7" y2="209.7" gradientUnits="userSpaceOnUse">
      <stop stop-color="#51698F" offset="0"/>
      <stop stop-color="#7137B0" offset="1"/>
    </linearGradient>
    <linearGradient id="paint24_linear_1_6644" x1="63.57" x2="128.7" y1="209.7" y2="209.7" gradientUnits="userSpaceOnUse">
      <stop stop-color="#006E8A" offset="0"/>
      <stop stop-color="#4A148C" offset="1"/>
    </linearGradient>
    <linearGradient id="paint25_linear_1_6644" x1="87.71" x2="101.3" y1="226.3" y2="226.3" gradientUnits="userSpaceOnUse">
      <stop stop-color="#4BFFFE" offset="0"/>
      <stop stop-color="#C5E8FF" offset="1"/>
    </linearGradient>
    <linearGradient id="paint26_linear_1_6644" x1="31.12" x2="75.89" y1="73.89" y2="73.89" gradientUnits="userSpaceOnUse">
      <stop stop-color="#4BFFFE" offset="0"/>
      <stop stop-color="#5182A3" offset="1"/>
    </linearGradient>
    <linearGradient id="paint27_linear_1_6644" x1="31.12" x2="75.89" y1="73.89" y2="73.89" gradientUnits="userSpaceOnUse">
      <stop stop-color="#006E8A" offset="0"/>
      <stop stop-color="#4A148C" offset="1"/>
    </linearGradient>
    <linearGradient id="paint28_linear_1_6644" x1="17.24" x2="32.34" y1="86.59" y2="86.59" gradientUnits="userSpaceOnUse">
      <stop stop-color="#4BFFFE" offset="0"/>
      <stop stop-color="#5182A3" offset="1"/>
    </linearGradient>
    <linearGradient id="paint29_linear_1_6644" x1="17.24" x2="32.34" y1="86.59" y2="86.59" gradientUnits="userSpaceOnUse">
      <stop stop-color="#006E8A" offset="0"/>
      <stop stop-color="#4A148C" offset="1"/>
    </linearGradient>
    <linearGradient id="paint30_linear_1_6644" x1="64.05" x2="131.1" y1="89.38" y2="89.38" gradientUnits="userSpaceOnUse">
      <stop stop-color="#84FFFE" offset="0"/>
      <stop stop-color="#4BFFFE" offset="1"/>
    </linearGradient>
    <linearGradient id="paint31_linear_1_6644" x1="63.51" x2="156.3" y1="116.7" y2="116.7" gradientUnits="userSpaceOnUse">
      <stop stop-color="#52D5F0" stop-opacity=".5" offset="0"/>
      <stop stop-color="#79B7D3" stop-opacity=".25" offset="1"/>
    </linearGradient>
    <linearGradient id="paint32_linear_1_6644" x1="86.06" x2="103.7" y1="107.4" y2="107.4" gradientUnits="userSpaceOnUse">
      <stop stop-color="#84FFFE" offset="0"/>
      <stop stop-color="#51D7F0" offset="1"/>
    </linearGradient>
    <linearGradient id="paint33_linear_1_6644" x1="170.7" x2="184.5" y1="120" y2="120" gradientUnits="userSpaceOnUse">
      <stop stop-color="#84FFFE" offset="0"/>
      <stop stop-color="#51D7F0" offset="1"/>
    </linearGradient>
  </defs>
</svg>