<svg xmlns="http://www.w3.org/2000/svg" width="234" height="206" fill="none" viewBox="0 0 234 206">
<!-- SVG created with Arrow, by QuiverAI (https://quiver.ai) -->
  <path d="m229 125.4-1.03-1.51 0.31-30.71-0.57-2.11 1.37-2.95-1.18-3.43 2.74-4.73 0.26-20.27-8.22-20.97-22.65-9.8-5.12 1.07-28.71-15.2-1.53-4.19-16.18-8.99-18.48-0.58-19.93 4.11-17.87 5.38-0.33 2.01-30.51 6.62-19.66 3.89-25.21 4.58-13.79 19.36v21.91l4.33 4.38-2.56 7.42v30.02l-1.35 4.03v25.29l4.89 9.79 16.88 14.54 2.84 0.74 1.06-0.94 28.18 19.43 2.35 0.43 0.97 3.88 18.87 14.18 19.06 1.81 22.77-5.88 5.11-5.22 21.49-5.85 1.55-0.82 23.98-6.31 1.8-2.02 20.64-5.22 2.34 1.21 2.37-1.19 21.64-5.63 8.92-13.21 0.54-25.71-2.38-2.64z" fill="url(#paint0_linear_1_1574)" stroke="#643F12" stroke-miterlimit="10" stroke-width=".7"/>
  <path d="m61.38 19.21 5.43 4.42 29.91-7.85-4.55-2.35v-2.12l-0.43 1.15-30.36 6.75z" fill="url(#paint1_linear_1_1574)" stroke="#643F12" stroke-miterlimit="10" stroke-width=".5"/>
  <path d="m164.4 14.56 30.51 15.45-9.96 1.88-25.83-14.92 0.98-1.66 4.3-0.75z" fill="url(#paint2_linear_1_1574)" stroke="#643F12" stroke-miterlimit="10" stroke-width=".5"/>
  <path d="m108.6 5.9 21.53-4.69 18.64 0.48 15.99 8.68 1.25 1.84-7.17 4.9-42.11-3.82-8.13-7.39z" fill="url(#paint3_linear_1_1574)" stroke="#643F12" stroke-miterlimit="10" stroke-width=".5"/>
  <path d="m116.8 10.01-6.65-3.97-1.48-0.46 7.95 5.26 39.87 3.52 8.52-2.35 0.19 0.2-6.5 4.51-41.9-3.58v-3.13z" fill="url(#paint4_linear_1_1574)" stroke="#00377B" stroke-miterlimit="10" stroke-width=".5"/>
  <path d="m148 3.01-1.87 2.89-1.01 2.99 3.3-1.97 2.4-1.96-2.82-1.95z" fill="#DC08F9"/>
  <path d="m148 5.66-0.81 0.61 0.51 0.74 1.19-0.55-0.89-0.8z" fill="#F867F7"/>
  <path d="m139.8 12.01 1.02 6.86 1.71-4.06-2.73-2.8z" fill="#FFFFF8"/>
  <path d="m138.8 25.46 1.34 7.69 1.52-5.16-2.86-2.53z" fill="#FDE494"/>
  <path d="m141.6 28.25 0.72 3.35 0.53-2.09-1.25-1.26z" fill="#FDE494"/>
  <path d="m158.7 22.79 13.56 10.36-10.14-6.54-3.42-3.82z" fill="url(#paint5_linear_1_1574)"/>
  <path d="m172.1 42.01 0.94 1.77 1.38-1.46-2.32-0.31z" fill="#FDE494"/>
  <path d="m126 20.47 1.01 5.61 2.02-3.37-3.03-2.24z" fill="url(#paint6_linear_1_1574)"/>
  <path d="m101.6 18.12 7.81-1.96-4.42 2.5-3.39-0.54z" fill="url(#paint7_linear_1_1574)"/>
  <path d="m117.3 23.06 3.39-3.04v-0.89l-1.45 0.44-1.94 3.49z" fill="url(#paint8_linear_1_1574)"/>
  <path d="m119.5 57.48 10.53-12.47-8.81 10.87-1.72 1.6z" fill="url(#paint9_linear_1_1574)"/>
  <path d="m105.3 47.01 1.95 0.82-1.95 7.4-0.8-3.58 0.8-4.64z" fill="url(#paint10_linear_1_1574)"/>
  <path d="m81.65 42.88 1.13 8.82-0.34-3.59-0.79-5.23z" fill="url(#paint11_linear_1_1574)"/>
  <path d="m60.03 31.64 2.84-0.82-0.49 2.9-2.59-0.31 0.24-1.77z" fill="url(#paint12_linear_1_1574)"/>
  <path d="m3.14 111.6 8.97 6.59 13.96 31.93v13.81l-1.56-0.51-2.45-2.75-1.68-2.53-12.35-8.29-4.89-9.79v-25.29-3.17z" fill="url(#paint13_linear_1_1574)" stroke="#643F12" stroke-miterlimit="10" stroke-width=".7"/>
  <path d="m5.12 112.9 4.76 5.02 11.85 30.2v11l-13.24-10.11-3.37-7.51v-28.6z" fill="url(#paint14_linear_1_1574)" stroke="#643F12" stroke-miterlimit="10" stroke-width=".5"/>
  <path d="m226.9 125-10 2.96-20.84 32.27v12.71l2.84 0.28 2.18-2.95 0.16-8.17 19.74-27.04 9.79-3.82 0.13-3.2-4-3.04z" fill="url(#paint15_linear_1_1574)" stroke="#643F12" stroke-miterlimit="10" stroke-width=".7"/>
  <path d="m227.3 127.3-8.39 4.1-18.31 29.99v9.93l1.55-2.23 25.28-7.21 2.6-8.99 0.7-22.87-3.43-2.72z" fill="url(#paint16_linear_1_1574)" stroke="#643F12" stroke-miterlimit="10" stroke-width=".5"/>
  <path d="m56.65 171.1 17.67-13.97 9.36 6.2 14.54-0.24 3.89-3.14 25.01 16.79-0.21 12.95-3.48 3.53-2.42-0.12-1.15-11.32-19.74-13.63-9.28 1.96-14.46-4.82-16.59 11.14-1.76 6.32-1.38-1.21v-10.44z" fill="url(#paint17_linear_1_1574)" stroke="#643F12" stroke-miterlimit="10" stroke-width=".7"/>
  <path d="m59.87 177.2 15.94-10.95 6.8 3.25 0.17 27.65-3.77 1.34-18.7-11.39-0.44-9.9z" fill="url(#paint18_linear_1_1574)" stroke="#643F12" stroke-miterlimit="10" stroke-width=".5"/>
  <path d="m82.61 198.5 5.12-3.48 7.65 5.97-11.09-1.11-1.68-1.38z" fill="url(#paint19_linear_1_1574)" stroke="#643F12" stroke-miterlimit="10" stroke-width=".5"/>
  <path d="m91.68 170.2 8.44-2.04 20.1 14.01v10.98l-20.93 6.39-7.81-6.39 0.2-22.95z" fill="url(#paint20_linear_1_1574)" stroke="#643F12" stroke-miterlimit="10" stroke-width=".5"/>
  <path d="m5.12 79.98 77.79 49.73 9.31 0.7 47.59-14.46 0.2 26.74 9.15 8.09-1.38 35.1 1.93-0.25 23.43-6.72 1.8-1.5 0.67-33.84 6.24-9.79-0.09-27.56 46.15-11.95v-3.18l-0.85-2.18 0.85-1.72-45.16 13.63v-14.7l-6.24-8.17 0.54-12.24-2.74-8.39-10.06-6.59-28.99 8.69 1.35 1.3 6.24 3.14-13.84 3.85-12.93-5.69-38.19-2.31-32.48-18.8-19.18 6.31-17.05-10.52-6.46 10.3v21.91l4.74 4.3-1.18 1.96-1.16 2.78v2.03z" fill="url(#paint21_linear_1_1574)" stroke="#643F12" stroke-miterlimit="10" stroke-width=".7"/>
  <path d="m147.2 150.1 0.4 36.03 2.02-2.53 0.98-32 22.45-7.05 0.41 34.09 2.59-1.57 0.33-33.76 6.72-10.1v-26.14l44.7-12.07v-1.4l-45.96 12.4v2.08l-2.59 1.77-0.63 21.1-6.8 11.65-20.72 5.92-3.9 1.58z" fill="url(#paint22_linear_1_1574)"/>
  <path d="m135.1 60.05 28.84-7.83 9.97 5.69 14.06-3.75 6.72 7.53-18.3 5.22-30.67 7.2-3.58-10.98-7.04-3.08z" fill="url(#paint23_linear_1_1574)" stroke="#643F12" stroke-miterlimit="10" stroke-width=".7"/>
  <path d="m145.7 73.62 29.15-7.96 0.17 12.29-27.82 8.17-1.5-12.5z" fill="url(#paint24_linear_1_1574)" stroke="#643F12" stroke-miterlimit="10" stroke-width=".7"/>
  <path d="m149.2 88.14 23.12-3.88 4.34 6.83v15.62l1.16 2.23v2.12l-2.17 0.74-3 13.36-11.5 2.77-2.43-10.4-4.42-2.77v-16.75l3.47-3.65-4.54-1.16-4.03-5.06z" fill="url(#paint25_linear_1_1574)" stroke="#643F12" stroke-miterlimit="10" stroke-width=".7"/>
  <path d="m161.1 96.9 10.39-2.18c1.6-0.36 1.85 0.75 1.77 2.39l-0.33 1.95c-0.12 0.92-1.76 1.68-2.52 1.76l-7.67 1.64c-1.48 0.35-2.6-1.19-2.47-2.35l-0.13-1.85c-0.08-0.58 0.13-1.15 0.96-1.36z" fill="url(#paint26_linear_1_1574)" stroke="#643F12" stroke-miterlimit="10" stroke-width=".5"/>
  <path d="m146.4 114.8 8.4 2.77 2.26 9.88 3.03 1.21 12.91-3.65 1.25 1.77-1.13 12.39-16.43 3.88-10.49-5.38 0.2-22.87z" fill="url(#paint27_linear_1_1574)" stroke="#643F12" stroke-miterlimit="10" stroke-width=".7"/>
  <path d="m147.6 137.1 7.99 5.58-0.66-25.16-4.78-2.45-2.99 0.13-0.66 21.81 1.1 0.09z" fill="url(#paint28_linear_1_1574)" stroke="#643F12" stroke-miterlimit="10" stroke-width=".5"/>
  <path d="m162.6 133.3 8-2.99 2.35 0.85 0.77 5.94-2.59 2.35-10.34 1.38 1.81-7.53z" fill="url(#paint29_linear_1_1574)" stroke="#643F12" stroke-miterlimit="10" stroke-width=".5"/>
  <path d="m149.2 96.12 5.12 2.9 1.8-3.88" stroke="#643F12" stroke-miterlimit="10" stroke-width=".5"/>
  <path d="m141.7 64.98 4.73 1.6 1.36 7.04" stroke="#643F12" stroke-miterlimit="10" stroke-width=".5"/>
  <path d="m173.1 58.73 1.46 1.32 1.01 6.04" stroke="#643F12" stroke-miterlimit="10" stroke-width=".5"/>
  <path d="m147.9 89.03 4.32 3.53 1.55 2.35" stroke="#643F12" stroke-miterlimit="10" stroke-width=".5"/>
  <path d="m8.78 37.52 7.85-10.43 24.39-4.58 12.76 4.58 0.44 1.5-12.5 18.42-13.64 2.23-19.3-11.72z" fill="url(#paint30_linear_1_1574)" stroke="#643F12" stroke-miterlimit="10" stroke-width=".7"/>
  <path d="m13.71 36.95 3.9-9.31 1.2-0.55-3.03 9.94 10.53 9.98-0.4 1.02-12.2-9.29v-1.79z" fill="#0096FF"/>
  <path d="m43.01 22.71 2.92 1.4 4.48 2.98-8.69 16.33-10.7 2.94-0.97 1.26 1.86-2.61 9.01-2.46 6-12.54-3.91-7.3z" fill="url(#paint31_linear_1_1574)"/>
  <path d="m183.8 31.72 15.66-3.04 18.78 8.18-3.3 10.88-21.1 6.92-15-6.3 4.96-16.64z" fill="url(#paint32_linear_1_1574)" stroke="#643F12" stroke-miterlimit="10" stroke-width=".7"/>
  <path d="m186 47.83 6.32-17.82 4.17-0.95-4.25 1.56-6.48 16.47 7.57 6.06 0.7 8.46-1.79-7.24-6.24-6.54z" fill="url(#paint33_linear_1_1574)"/>
  <path d="m218.2 36.86 4.85 3.37 6.4 17.82-0.37 2.67-13.34-10.98 1.37-4.73 1.09-8.15z" fill="url(#paint34_linear_1_1574)" stroke="#643F12" stroke-miterlimit="10" stroke-width=".7"/>
  <path d="m222 41.31 3.11 2.76 3.81 12.06-0.35 2.12-8.57-9.01 2-7.93z" fill="url(#paint35_linear_1_1574)" stroke="#643F12" stroke-miterlimit="10" stroke-width=".5"/>
  <path d="m214.9 47.3 2.41 1.41 9.75 11.26 0.84 2.95-11.71-9.86-21.12 1.1-0.32-0.68 20.15-6.18z" fill="url(#paint36_linear_1_1574)" stroke="#643F12" stroke-miterlimit="10" stroke-width=".5"/>
  <path d="m197.1 38.62 2.31 1.61 2.41-2.1-1.55 5-2.84 1.15 0.98-3.45-1.31-2.21z" fill="#FCF1FF"/>
  <path d="m47.16 22.22 1.95 1.41 1.75-1.41-1.19 3.24-1.86 0.46-0.65-3.7z" fill="#FFEEC7"/>
  <path d="m12.48 54.66 3.95 0.24 3.11 1.77-3.43 0.57-3.63-2.58z" fill="url(#paint37_linear_1_1574)"/>
  <path d="m35.3 29.06-4.04-0.81 0.36 2.57 1.31 0.82 2.37-2.58z" fill="url(#paint38_linear_1_1574)"/>
  <path d="m30.53 36.22 2.1 0.48 0.9-1.64-1.42-0.89-1.58 2.05z" fill="url(#paint39_linear_1_1574)"/>
  <path d="m28.08 73.17-3.99 1.06 1.74 0.94 2.25-2z" fill="url(#paint40_linear_1_1574)"/>
  <path d="m26.47 81.08 5.64 1.07 2.31 1.96-3.24-1.03-4.71-2z" fill="url(#paint41_linear_1_1574)"/>
  <path d="m36.01 80.39 2.1 0.12 1.51 1.64-2.31-0.08-1.3-1.68z" fill="url(#paint42_linear_1_1574)"/>
  <path d="m47.16 91.21 3.86 0.12 4.47 1.4-3.73 0.68-4.6-2.2z" fill="url(#paint43_linear_1_1574)"/>
  <path d="m3.81 94.4 10.9-1.79-9.59 3.04-1.31-1.25z" fill="url(#paint44_linear_1_1574)"/>
  <path d="m23.48 119.9 5.9-3.81 3.47 0.41-3.47 3.11-5.9 0.29z" fill="url(#paint45_linear_1_1574)"/>
  <path d="m40.92 129.7 3.26-4.55 0.9 0.26-3.07 3.89-1.09 0.4z" fill="url(#paint46_linear_1_1574)"/>
  <path d="m55.94 134.7 2.59-2.64 2.6 0.25-2.31 3.04-2.88-0.65z" fill="url(#paint47_linear_1_1574)"/>
  <path d="m65.82 135 2.35-3.94 2.41 0.98-2.74 4.05-2.02-1.09z" fill="url(#paint48_linear_1_1574)"/>
  <path d="m73.88 149.8 1.44-3.22v-3.05l-1.89 3.49 0.45 2.78z" fill="url(#paint49_linear_1_1574)"/>
  <path d="m53.78 165.3 1.63-1.6v-1.35l-1.31 1.35-0.32 1.6z" fill="url(#paint50_linear_1_1574)"/>
  <path d="m116.2 100 5 1.29 0.88-0.8-3.19-0.82-2.69 0.33z" fill="url(#paint51_linear_1_1574)"/>
  <path d="m111.1 89.32 22.03 11.99-1.55-2.35-20.48-9.64z" fill="url(#paint52_linear_1_1574)"/>
  <path d="m127.8 106.2 4.61-0.58-2.69 2.69-1.92-2.11z" fill="url(#paint53_linear_1_1574)"/>
  <path d="m127.3 92.95 2.7-0.82 0.72 3.58-3.42-2.76z" fill="url(#paint54_linear_1_1574)"/>
  <path d="m131.6 80.39 2.07 0.32 1.05 5.41-2.11 1.49-1.01-7.22z" fill="url(#paint55_linear_1_1574)"/>
  <path d="m189.3 106 25.3 8.5-1.8-2-20.11-7.28-3.39 0.78z" fill="url(#paint56_linear_1_1574)"/>
  <path d="m218.6 107.1 4.13 0.6-0.48 0.53-3.65-1.13z" fill="url(#paint57_linear_1_1574)"/>
  <path d="m188.9 117.1 2.94-0.57 3.1 3.4-3.63 0.71-2.41-3.54z" fill="url(#paint58_linear_1_1574)"/>
  <path d="m189.8 136.1 2.3 1.07v0.44l-2.3-1.51z" fill="url(#paint59_linear_1_1574)"/>
  <path d="m202.3 118.6 4.89 1.39 3 3.18-3.48-1.11-4.41-3.46z" fill="url(#paint60_linear_1_1574)"/>
  <path d="m187.8 150.4 1.93-0.4 0.32 1.96-2.25-1.56z" fill="url(#paint61_linear_1_1574)"/>
  <path d="m212 81.52 4.63-3.04v1.58l-3.8 2.86-0.83-1.4z" fill="url(#paint62_linear_1_1574)"/>
  <path d="m186.7 73.17 1.79-4.26 0.92 1.15-1.25 3.56-1.46-0.45z" fill="url(#paint63_linear_1_1574)"/>
  <path d="m188.3 87.73 25.27-30.61-0.97 3.09-22.2 26.98-2.1 0.54z" fill="url(#paint64_linear_1_1574)"/>
  <path d="m184.2 98.53 5.14 0.57-1.04 2.95-4.1-3.52z" fill="#FCF1FF"/>
  <path d="m109.2 155.6 24.3-25.52 1.02 1.01-14.44 19.02-10.88 5.49z" fill="url(#paint65_linear_1_1574)"/>
  <path d="m116.8 134.6 3.44 0.73 1.35 4.52-3.15-1.68-1.64-3.57z" fill="url(#paint66_linear_1_1574)"/>
  <path d="m124.8 160.8 1.3 0.41 0.67-1.11-0.12-1.11 0.24 0.1-0.49 2.35-1.34 1.6-0.67-1.4 0.41-0.84z" fill="url(#paint67_linear_1_1574)"/>
  <path d="m133.4 157.1 2.02-3.94v-2.04l-2.02 3.89v2.09z" fill="url(#paint68_linear_1_1574)"/>
  <path d="m125.5 127.9 1.52-0.85 0.7 1.22-1.45 0.57-0.77-0.94z" fill="url(#paint69_linear_1_1574)"/>
  <path d="m133.2 139.3 1.26-1.71v-1.96l-1.26 1.96v1.71z" fill="url(#paint70_linear_1_1574)"/>
  <path d="m167.7 154.4 2.13 1.24 0.41 3.31-2.06-0.9-0.48-3.65z" fill="url(#paint71_linear_1_1574)"/>
  <path d="m130.3 123.2-2.69-4.81 2 0.9 2.32-0.25-1.63 4.16z" fill="#FCF1FF"/>
  <path d="m91.97 162.2 0.82-29.87 46.04-13.71 0.33-5.52-0.9-0.37 1.55-3.78v-14.58l7.12-9.07v-11.67l-20.1 4.33-24.35 5.62-10.26 14.69-9.61-5.06-12.23 21.56v2.33" stroke="url(#paint72_linear_1_1574)" stroke-miterlimit="10" stroke-width="2"/>
  <path d="m82.78 130.1v30.74" stroke="#643F12" stroke-miterlimit="10" stroke-width=".5"/>
  <path d="m90.96 97.81 0.35 24.1" stroke="#643F12" stroke-miterlimit="10" stroke-width=".5"/>
  <path d="m5.12 77.95 77.32 43.96h9.73l47.84-14.03v-13.16l6.72-8.81v-11.8l-20.1 3.84-23.7 5.3-11.69 15.28-11.09-15.28-20.64-15.04-52.99 6.47-1.4 3.27z" stroke="url(#paint73_linear_1_1574)" stroke-miterlimit="10" stroke-width="2"/>
  <path d="m16.43 72.97v4.98l51.41 32.86v-3.73l-12.43-23.51v-13.46l-26.6-17.98v11l-12.38 9.84z" stroke="url(#paint74_linear_1_1574)" stroke-miterlimit="10" stroke-width="2"/>
  <path d="m31.18 48.2 1.87-1.84 11.46-2.08 21.31 13.64v4.71l-4.69 3.95-31.08-18.75 1.13 0.37z" fill="url(#paint75_linear_1_1574)" stroke="#643F12" stroke-miterlimit="10" stroke-width=".7"/>
  <path d="m35.51 26.61 27.6 37.42-24.05-32.39-3.55-5.03z" fill="url(#paint76_linear_1_1574)"/>
  <path d="m68.56 49.24 7.62 9.98-2.75-1.42-4.87-8.56z" fill="url(#paint77_linear_1_1574)"/>
  <path d="m60.11 68.13 4.5-5 13.6-3.08 7.81 0.67 29.08 2.41 9.23 5.62 2.5 9.2-25.54 4.85-11.17 14.7-4.89-2.49-7.22-12.94-17.9-13.94z" fill="url(#paint78_linear_1_1574)" stroke="#00377B" stroke-miterlimit="10" stroke-width=".7"/>
  <path d="m64.12 66.09 16.59 11.62 1.1-1.3 18.27 1.01 0.84-1.34 22.47-7.17" stroke="#00377B" stroke-miterlimit="10" stroke-width=".5"/>
  <path d="m80.71 79.82 1.9-1.87 13.87 1.11 1.19 3.25-8.85 13.16-3.59-1.57-4.52-11.59v-2.49z" fill="url(#paint79_linear_1_1574)" stroke="#00377B" stroke-miterlimit="10" stroke-width=".7"/>
  <path d="m27.51 95.71 1.1 1.32v4.61l3.87 6.24 20.32 14.23 2.12 0.05 2.22-4.63-0.68-1.81" stroke="#643F12" stroke-miterlimit="10" stroke-width=".7"/>
  <path d="m18.18 107.4 11-6.06 0.79 0.82-11.79 5.24z" fill="url(#paint80_linear_1_1574)"/>
  <path d="m45.77 160.3 25.84-24.17 5.6-3.1-4.14 4.61-27.3 22.66z" fill="url(#paint81_linear_1_1574)"/>
  <path d="m98.68 69.82 2.24-5.14 1.56 2.49-3.8 2.65z" fill="url(#paint82_linear_1_1574)"/>
  <path d="m82.61 67.71 2.3-1.62 0.24-2.96 1.52 2.96 1.62 0.49-3.14 0.84-0.86 1.49-1.68-1.2z" fill="#FCF1FF"/>
  <path d="m65.82 89.32 8.46-1.18-3.26 0.77-5.2 0.41z" fill="url(#paint83_linear_1_1574)"/>
  <path d="m75.94 107.1 2.27 0.6 0.44 1.71-1.93-0.86-0.78-1.45z" fill="url(#paint84_linear_1_1574)"/>
  <path d="m85.52 109.9 2.77-1.77v4.55l-2.27-0.96-0.5-1.82z" fill="url(#paint85_linear_1_1574)"/>
  <path d="m99.12 113.4 1.36-0.74v1.46l-1.36-0.72z" fill="url(#paint86_linear_1_1574)"/>
  <path d="m86.71 143.3 1.1-0.12 0.85 1.91-1.13 0.49-0.82-2.28z" fill="url(#paint87_linear_1_1574)"/>
  <path d="m95.52 141.2 1.36-0.73 0.2 2.65-1.25 0.41-0.31-2.33z" fill="url(#paint88_linear_1_1574)"/>
  <defs>
    <linearGradient id="paint0_linear_1_1574" x1="117.3" x2="117.3" y1="1.027" y2="203.9" gradientUnits="userSpaceOnUse">
      <stop stop-color="#FBE68E" offset="0"/>
      <stop stop-color="#F2C142" offset=".25"/>
      <stop stop-color="#B9791A" offset=".62"/>
      <stop stop-color="#8B591A" offset="1"/>
    </linearGradient>
    <linearGradient id="paint1_linear_1_1574" x1="79.05" x2="79.05" y1="11.06" y2="23.63" gradientUnits="userSpaceOnUse">
      <stop stop-color="#FBE68E" offset="0"/>
      <stop stop-color="#F2C142" offset="1"/>
    </linearGradient>
    <linearGradient id="paint2_linear_1_1574" x1="177" x2="177" y1="14.31" y2="31.89" gradientUnits="userSpaceOnUse">
      <stop stop-color="#FBE68E" offset="0"/>
      <stop stop-color="#F2C142" offset="1"/>
    </linearGradient>
    <linearGradient id="paint3_linear_1_1574" x1="137.4" x2="137.4" y1="1.027" y2="17.3" gradientUnits="userSpaceOnUse">
      <stop stop-color="#923CFF" offset="0"/>
      <stop stop-color="#6119C7" offset="1"/>
    </linearGradient>
    <linearGradient id="paint4_linear_1_1574" x1="136.9" x2="136.9" y1="5.576" y2="18.87" gradientUnits="userSpaceOnUse">
      <stop stop-color="#00B6FF" offset="0"/>
      <stop stop-color="#8661FF" offset="1"/>
    </linearGradient>
    <linearGradient id="paint5_linear_1_1574" x1="165.5" x2="165.5" y1="22.79" y2="33.15" gradientUnits="userSpaceOnUse">
      <stop stop-color="#FFA8F8" offset="0"/>
      <stop stop-color="#FFD056" stop-opacity=".14" offset="1"/>
    </linearGradient>
    <linearGradient id="paint6_linear_1_1574" x1="127.5" x2="127.5" y1="20.47" y2="26.08" gradientUnits="userSpaceOnUse">
      <stop stop-color="#C0FFEB" offset="0"/>
      <stop stop-color="#FFD056" stop-opacity=".14" offset="1"/>
    </linearGradient>
    <linearGradient id="paint7_linear_1_1574" x1="105.6" x2="105.6" y1="15.83" y2="18.87" gradientUnits="userSpaceOnUse">
      <stop stop-color="#C0FFEB" offset="0"/>
      <stop stop-color="#FFD056" stop-opacity=".14" offset="1"/>
    </linearGradient>
    <linearGradient id="paint8_linear_1_1574" x1="119" x2="119" y1="19.13" y2="23.06" gradientUnits="userSpaceOnUse">
      <stop stop-color="#C0FFEB" offset="0"/>
      <stop stop-color="#FFD056" stop-opacity=".14" offset="1"/>
    </linearGradient>
    <linearGradient id="paint9_linear_1_1574" x1="124.8" x2="124.8" y1="45.01" y2="57.48" gradientUnits="userSpaceOnUse">
      <stop stop-color="#FFA8F8" offset="0"/>
      <stop stop-color="#FFD056" stop-opacity=".14" offset="1"/>
    </linearGradient>
    <linearGradient id="paint10_linear_1_1574" x1="105.9" x2="105.9" y1="47.01" y2="55.23" gradientUnits="userSpaceOnUse">
      <stop stop-color="#C0FFEB" offset="0"/>
      <stop stop-color="#FFD056" stop-opacity=".14" offset="1"/>
    </linearGradient>
    <linearGradient id="paint11_linear_1_1574" x1="82.21" x2="82.21" y1="42.88" y2="51.7" gradientUnits="userSpaceOnUse">
      <stop stop-color="#C0FFEB" offset="0"/>
      <stop stop-color="#FFD056" stop-opacity=".14" offset="1"/>
    </linearGradient>
    <linearGradient id="paint12_linear_1_1574" x1="61.18" x2="61.18" y1="30.82" y2="33.72" gradientUnits="userSpaceOnUse">
      <stop stop-color="#C0FFEB" offset="0"/>
      <stop stop-color="#FFD056" stop-opacity=".14" offset="1"/>
    </linearGradient>
    <linearGradient id="paint13_linear_1_1574" x1="14.6" x2="14.6" y1="111.6" y2="164.4" gradientUnits="userSpaceOnUse">
      <stop stop-color="#00B6FF" offset="0"/>
      <stop stop-color="#C12BFF" offset="1"/>
    </linearGradient>
    <linearGradient id="paint14_linear_1_1574" x1="13.07" x2="13.07" y1="112.9" y2="159.1" gradientUnits="userSpaceOnUse">
      <stop stop-color="#00B6FF" offset="0"/>
      <stop stop-color="#9E36A5" offset="1"/>
    </linearGradient>
    <linearGradient id="paint15_linear_1_1574" x1="213.5" x2="213.5" y1="125" y2="173.2" gradientUnits="userSpaceOnUse">
      <stop stop-color="#8200FF" offset="0"/>
      <stop stop-color="#81D4FF" offset="1"/>
    </linearGradient>
    <linearGradient id="paint16_linear_1_1574" x1="215.7" x2="215.7" y1="127.3" y2="171.3" gradientUnits="userSpaceOnUse">
      <stop stop-color="#9E36A5" offset="0"/>
      <stop stop-color="#D1A12F" offset="1"/>
    </linearGradient>
    <linearGradient id="paint17_linear_1_1574" x1="91.89" x2="91.89" y1="157.1" y2="193.7" gradientUnits="userSpaceOnUse">
      <stop stop-color="#00B6FF" offset="0"/>
      <stop stop-color="#C12BFF" offset="1"/>
    </linearGradient>
    <linearGradient id="paint18_linear_1_1574" x1="71.22" x2="71.22" y1="166.2" y2="198.5" gradientUnits="userSpaceOnUse">
      <stop stop-color="#9E6924" offset="0"/>
      <stop stop-color="#8B591A" offset="1"/>
    </linearGradient>
    <linearGradient id="paint19_linear_1_1574" x1="89" x2="89" y1="195" y2="201" gradientUnits="userSpaceOnUse">
      <stop stop-color="#8200FF" offset="0"/>
      <stop stop-color="#C12BFF" offset="1"/>
    </linearGradient>
    <linearGradient id="paint20_linear_1_1574" x1="105.6" x2="105.6" y1="168.1" y2="199.5" gradientUnits="userSpaceOnUse">
      <stop stop-color="#FBE68E" offset="0"/>
      <stop stop-color="#F2C142" offset=".31"/>
      <stop stop-color="#D1A12F" offset="1"/>
    </linearGradient>
    <linearGradient id="paint21_linear_1_1574" x1="116.5" x2="116.5" y1="40.42" y2="186.1" gradientUnits="userSpaceOnUse">
      <stop stop-color="#FBE68E" offset="0"/>
      <stop stop-color="#F2C142" offset=".25"/>
      <stop stop-color="#B9791A" offset=".62"/>
      <stop stop-color="#8B591A" offset="1"/>
    </linearGradient>
    <linearGradient id="paint22_linear_1_1574" x1="187.5" x2="187.5" y1="93.61" y2="186.1" gradientUnits="userSpaceOnUse">
      <stop stop-color="#48F1FF" offset="0"/>
      <stop stop-color="#B9791A" stop-opacity=".71" offset=".5"/>
      <stop stop-color="#8B591A" offset="1"/>
    </linearGradient>
    <linearGradient id="paint23_linear_1_1574" x1="165" x2="165" y1="50.73" y2="74.11" gradientUnits="userSpaceOnUse">
      <stop stop-color="#FBE68E" offset="0"/>
      <stop stop-color="#F2C142" offset="1"/>
    </linearGradient>
    <linearGradient id="paint24_linear_1_1574" x1="160.5" x2="160.5" y1="65.66" y2="86.12" gradientUnits="userSpaceOnUse">
      <stop stop-color="#FBE68E" offset="0"/>
      <stop stop-color="#F2C142" offset="1"/>
    </linearGradient>
    <linearGradient id="paint25_linear_1_1574" x1="163.5" x2="163.5" y1="84.26" y2="128.6" gradientUnits="userSpaceOnUse">
      <stop stop-color="#FBE68E" offset="0"/>
      <stop stop-color="#F2C142" offset="1"/>
    </linearGradient>
    <linearGradient id="paint26_linear_1_1574" x1="166.7" x2="166.7" y1="94.5" y2="102.6" gradientUnits="userSpaceOnUse">
      <stop stop-color="#823CFF" offset="0"/>
      <stop stop-color="#6119C7" offset="1"/>
    </linearGradient>
    <linearGradient id="paint27_linear_1_1574" x1="160.5" x2="160.5" y1="114.8" y2="143.6" gradientUnits="userSpaceOnUse">
      <stop stop-color="#FBE68E" offset="0"/>
      <stop stop-color="#F2C142" offset="1"/>
    </linearGradient>
    <linearGradient id="paint28_linear_1_1574" x1="151.2" x2="151.2" y1="115" y2="142.7" gradientUnits="userSpaceOnUse">
      <stop stop-color="#FBE68E" offset="0"/>
      <stop stop-color="#B9791A" offset="1"/>
    </linearGradient>
    <linearGradient id="paint29_linear_1_1574" x1="167.2" x2="167.2" y1="130.1" y2="141.1" gradientUnits="userSpaceOnUse">
      <stop stop-color="#FBE68E" offset="0"/>
      <stop stop-color="#B9791A" offset="1"/>
    </linearGradient>
    <linearGradient id="paint30_linear_1_1574" x1="31.5" x2="31.5" y1="22.22" y2="49.24" gradientUnits="userSpaceOnUse">
      <stop stop-color="#00B6FF" offset="0"/>
      <stop stop-color="#61C6FF" offset="1"/>
    </linearGradient>
    <linearGradient id="paint31_linear_1_1574" x1="39.8" x2="39.8" y1="22.71" y2="48.03" gradientUnits="userSpaceOnUse">
      <stop stop-color="#0074FF" offset="0"/>
      <stop stop-color="#FF69F8" offset="1"/>
    </linearGradient>
    <linearGradient id="paint32_linear_1_1574" x1="200.1" x2="200.1" y1="28.68" y2="54.66" gradientUnits="userSpaceOnUse">
      <stop stop-color="#823CFF" offset="0"/>
      <stop stop-color="#6119C7" offset="1"/>
    </linearGradient>
    <linearGradient id="paint33_linear_1_1574" x1="191.1" x2="191.1" y1="29.06" y2="61.61" gradientUnits="userSpaceOnUse">
      <stop stop-color="#00B6FF" offset="0"/>
      <stop stop-color="#8661FF" offset="1"/>
    </linearGradient>
    <linearGradient id="paint34_linear_1_1574" x1="222.6" x2="222.6" y1="36.86" y2="60.72" gradientUnits="userSpaceOnUse">
      <stop stop-color="#8200FF" offset="0"/>
      <stop stop-color="#C12BFF" offset="1"/>
    </linearGradient>
    <linearGradient id="paint35_linear_1_1574" x1="224.5" x2="224.5" y1="41.31" y2="58.25" gradientUnits="userSpaceOnUse">
      <stop stop-color="#8200FF" offset="0"/>
      <stop stop-color="#C12BFF" offset="1"/>
    </linearGradient>
    <linearGradient id="paint36_linear_1_1574" x1="211.3" x2="211.3" y1="47.3" y2="62.92" gradientUnits="userSpaceOnUse">
      <stop stop-color="#FBE68E" offset="0"/>
      <stop stop-color="#F2C142" offset="1"/>
    </linearGradient>
    <linearGradient id="paint37_linear_1_1574" x1="16.01" x2="16.01" y1="54.66" y2="57.24" gradientUnits="userSpaceOnUse">
      <stop stop-color="#C0FFEB" offset="0"/>
      <stop stop-color="#FFD056" stop-opacity=".14" offset="1"/>
    </linearGradient>
    <linearGradient id="paint38_linear_1_1574" x1="33.28" x2="33.28" y1="28.25" y2="31.64" gradientUnits="userSpaceOnUse">
      <stop stop-color="#00B6FF" offset="0"/>
      <stop stop-color="#00E5FF" stop-opacity=".71" offset="1"/>
    </linearGradient>
    <linearGradient id="paint39_linear_1_1574" x1="32.08" x2="32.08" y1="34.17" y2="36.7" gradientUnits="userSpaceOnUse">
      <stop stop-color="#00B6FF" offset="0"/>
      <stop stop-color="#00E5FF" stop-opacity=".71" offset="1"/>
    </linearGradient>
    <linearGradient id="paint40_linear_1_1574" x1="26.08" x2="26.08" y1="73.17" y2="75.17" gradientUnits="userSpaceOnUse">
      <stop stop-color="#C0FFEB" offset="0"/>
      <stop stop-color="#FFD056" stop-opacity=".14" offset="1"/>
    </linearGradient>
    <linearGradient id="paint41_linear_1_1574" x1="30.45" x2="30.45" y1="81.08" y2="84.11" gradientUnits="userSpaceOnUse">
      <stop stop-color="#C0FFEB" offset="0"/>
      <stop stop-color="#FFD056" stop-opacity=".14" offset="1"/>
    </linearGradient>
    <linearGradient id="paint42_linear_1_1574" x1="37.81" x2="37.81" y1="80.39" y2="82.15" gradientUnits="userSpaceOnUse">
      <stop stop-color="#C0FFEB" offset="0"/>
      <stop stop-color="#FFD056" stop-opacity=".14" offset="1"/>
    </linearGradient>
    <linearGradient id="paint43_linear_1_1574" x1="51.33" x2="51.33" y1="91.21" y2="93.41" gradientUnits="userSpaceOnUse">
      <stop stop-color="#C0FFEB" offset="0"/>
      <stop stop-color="#FFD056" stop-opacity=".14" offset="1"/>
    </linearGradient>
    <linearGradient id="paint44_linear_1_1574" x1="9.266" x2="9.266" y1="92.29" y2="95.65" gradientUnits="userSpaceOnUse">
      <stop stop-color="#FFA8F8" offset="0"/>
      <stop stop-color="#FFD056" stop-opacity=".14" offset="1"/>
    </linearGradient>
    <linearGradient id="paint45_linear_1_1574" x1="28.17" x2="28.17" y1="115.7" y2="119.9" gradientUnits="userSpaceOnUse">
      <stop stop-color="#FFA8F8" offset="0"/>
      <stop stop-color="#FFD056" stop-opacity=".14" offset="1"/>
    </linearGradient>
    <linearGradient id="paint46_linear_1_1574" x1="43" x2="43" y1="125.2" y2="129.7" gradientUnits="userSpaceOnUse">
      <stop stop-color="#C0FFEB" offset="0"/>
      <stop stop-color="#FFD056" stop-opacity=".14" offset="1"/>
    </linearGradient>
    <linearGradient id="paint47_linear_1_1574" x1="58.53" x2="58.53" y1="131.9" y2="135.4" gradientUnits="userSpaceOnUse">
      <stop stop-color="#FFEE52" offset="0"/>
      <stop stop-color="#FFD056" stop-opacity=".14" offset="1"/>
    </linearGradient>
    <linearGradient id="paint48_linear_1_1574" x1="68.2" x2="68.2" y1="131.1" y2="136.1" gradientUnits="userSpaceOnUse">
      <stop stop-color="#76D6FF" offset="0"/>
      <stop stop-color="#38A6FF" stop-opacity=".61" offset="1"/>
    </linearGradient>
    <linearGradient id="paint49_linear_1_1574" x1="74.63" x2="74.63" y1="143.6" y2="149.8" gradientUnits="userSpaceOnUse">
      <stop stop-color="#FFA8F8" offset="0"/>
      <stop stop-color="#FFD056" stop-opacity=".14" offset="1"/>
    </linearGradient>
    <linearGradient id="paint50_linear_1_1574" x1="54.57" x2="54.57" y1="162.3" y2="165.3" gradientUnits="userSpaceOnUse">
      <stop stop-color="#76D6FF" offset="0"/>
      <stop stop-color="#38A6FF" stop-opacity=".61" offset="1"/>
    </linearGradient>
    <linearGradient id="paint51_linear_1_1574" x1="120.1" x2="120.1" y1="99.45" y2="101.3" gradientUnits="userSpaceOnUse">
      <stop stop-color="#C0FFEB" offset="0"/>
      <stop stop-color="#FFD056" stop-opacity=".14" offset="1"/>
    </linearGradient>
    <linearGradient id="paint52_linear_1_1574" x1="122.3" x2="122.3" y1="89.32" y2="101.3" gradientUnits="userSpaceOnUse">
      <stop stop-color="#FFA8F8" offset="0"/>
      <stop stop-color="#FFD056" stop-opacity=".14" offset="1"/>
    </linearGradient>
    <linearGradient id="paint53_linear_1_1574" x1="130" x2="130" y1="105.2" y2="108.3" gradientUnits="userSpaceOnUse">
      <stop stop-color="#FFEE52" offset="0"/>
      <stop stop-color="#FFD056" stop-opacity=".14" offset="1"/>
    </linearGradient>
    <linearGradient id="paint54_linear_1_1574" x1="129" x2="129" y1="92.13" y2="95.71" gradientUnits="userSpaceOnUse">
      <stop stop-color="#FFA8F8" offset="0"/>
      <stop stop-color="#FFD056" stop-opacity=".14" offset="1"/>
    </linearGradient>
    <linearGradient id="paint55_linear_1_1574" x1="133.2" x2="133.2" y1="80.39" y2="87.61" gradientUnits="userSpaceOnUse">
      <stop stop-color="#FFEE52" offset="0"/>
      <stop stop-color="#FFD056" stop-opacity=".14" offset="1"/>
    </linearGradient>
    <linearGradient id="paint56_linear_1_1574" x1="201.5" x2="201.5" y1="105" y2="114.5" gradientUnits="userSpaceOnUse">
      <stop stop-color="#FFA8F8" offset="0"/>
      <stop stop-color="#FFD056" stop-opacity=".14" offset="1"/>
    </linearGradient>
    <linearGradient id="paint57_linear_1_1574" x1="220.9" x2="220.9" y1="107.1" y2="108.2" gradientUnits="userSpaceOnUse">
      <stop stop-color="#FFA8F8" offset="0"/>
      <stop stop-color="#FFD056" stop-opacity=".14" offset="1"/>
    </linearGradient>
    <linearGradient id="paint58_linear_1_1574" x1="191.9" x2="191.9" y1="116.5" y2="120.7" gradientUnits="userSpaceOnUse">
      <stop stop-color="#FFEE52" offset="0"/>
      <stop stop-color="#FFD056" stop-opacity=".14" offset="1"/>
    </linearGradient>
    <linearGradient id="paint59_linear_1_1574" x1="190.9" x2="190.9" y1="136.1" y2="137.6" gradientUnits="userSpaceOnUse">
      <stop stop-color="#FFEE52" offset="0"/>
      <stop stop-color="#FFD056" stop-opacity=".14" offset="1"/>
    </linearGradient>
    <linearGradient id="paint60_linear_1_1574" x1="206.3" x2="206.3" y1="118.6" y2="123.2" gradientUnits="userSpaceOnUse">
      <stop stop-color="#FFEE52" offset="0"/>
      <stop stop-color="#FFD056" stop-opacity=".14" offset="1"/>
    </linearGradient>
    <linearGradient id="paint61_linear_1_1574" x1="188.9" x2="188.9" y1="150" y2="152.2" gradientUnits="userSpaceOnUse">
      <stop stop-color="#FFEE52" offset="0"/>
      <stop stop-color="#FFD056" stop-opacity=".14" offset="1"/>
    </linearGradient>
    <linearGradient id="paint62_linear_1_1574" x1="214.9" x2="214.9" y1="78.48" y2="82.91" gradientUnits="userSpaceOnUse">
      <stop stop-color="#FFEE52" offset="0"/>
      <stop stop-color="#FFD056" stop-opacity=".14" offset="1"/>
    </linearGradient>
    <linearGradient id="paint63_linear_1_1574" x1="188.1" x2="188.1" y1="68.91" y2="73.62" gradientUnits="userSpaceOnUse">
      <stop stop-color="#FFEE52" offset="0"/>
      <stop stop-color="#FFD056" stop-opacity=".14" offset="1"/>
    </linearGradient>
    <linearGradient id="paint64_linear_1_1574" x1="200.9" x2="200.9" y1="57.12" y2="87.73" gradientUnits="userSpaceOnUse">
      <stop stop-color="#FFA8F8" offset="0"/>
      <stop stop-color="#FFD056" stop-opacity=".14" offset="1"/>
    </linearGradient>
    <linearGradient id="paint65_linear_1_1574" x1="121.7" x2="121.7" y1="130.1" y2="155.6" gradientUnits="userSpaceOnUse">
      <stop stop-color="#FFA8F8" offset="0"/>
      <stop stop-color="#FFD056" stop-opacity=".14" offset="1"/>
    </linearGradient>
    <linearGradient id="paint66_linear_1_1574" x1="119.1" x2="119.1" y1="134.5" y2="139.8" gradientUnits="userSpaceOnUse">
      <stop stop-color="#FCF1FF" offset="0"/>
      <stop stop-color="#FFD056" stop-opacity=".14" offset="1"/>
    </linearGradient>
    <linearGradient id="paint67_linear_1_1574" x1="125.7" x2="125.7" y1="151.1" y2="163.1" gradientUnits="userSpaceOnUse">
      <stop stop-color="#FFB3F8" offset="0"/>
      <stop stop-color="#FFD056" stop-opacity=".14" offset="1"/>
    </linearGradient>
    <linearGradient id="paint68_linear_1_1574" x1="134.3" x2="134.3" y1="151.1" y2="157.1" gradientUnits="userSpaceOnUse">
      <stop stop-color="#FFA8F8" offset="0"/>
      <stop stop-color="#FFD056" stop-opacity=".14" offset="1"/>
    </linearGradient>
    <linearGradient id="paint69_linear_1_1574" x1="126.7" x2="126.7" y1="127.1" y2="128.9" gradientUnits="userSpaceOnUse">
      <stop stop-color="#FFEE52" offset="0"/>
      <stop stop-color="#FFD056" stop-opacity=".14" offset="1"/>
    </linearGradient>
    <linearGradient id="paint70_linear_1_1574" x1="133.4" x2="133.4" y1="135.7" y2="139.3" gradientUnits="userSpaceOnUse">
      <stop stop-color="#FFA8F8" offset="0"/>
      <stop stop-color="#FFD056" stop-opacity=".14" offset="1"/>
    </linearGradient>
    <linearGradient id="paint71_linear_1_1574" x1="168.9" x2="168.9" y1="154.4" y2="158.9" gradientUnits="userSpaceOnUse">
      <stop stop-color="#FFA8F8" offset="0"/>
      <stop stop-color="#FFD056" stop-opacity=".14" offset="1"/>
    </linearGradient>
    <linearGradient id="paint72_linear_1_1574" x1="133.5" x2="133.5" y1="62.63" y2="162.2" gradientUnits="userSpaceOnUse">
      <stop stop-color="#00377B" offset="0"/>
      <stop stop-color="#00B6FF" offset=".4"/>
      <stop stop-color="#89F7FF" offset=".7"/>
      <stop stop-color="#89F7FF" offset="1"/>
    </linearGradient>
    <linearGradient id="paint73_linear_1_1574" x1="76.48" x2="76.48" y1="63.13" y2="112.7" gradientUnits="userSpaceOnUse">
      <stop stop-color="#00377B" offset="0"/>
      <stop stop-color="#00B6FF" offset=".4"/>
      <stop stop-color="#89F7FF" offset=".7"/>
      <stop stop-color="#89F7FF" offset="1"/>
    </linearGradient>
    <linearGradient id="paint74_linear_1_1574" x1="42" x2="42" y1="52.13" y2="110.8" gradientUnits="userSpaceOnUse">
      <stop stop-color="#00377B" offset="0"/>
      <stop stop-color="#00B6FF" offset=".4"/>
      <stop stop-color="#89F7FF" offset=".7"/>
      <stop stop-color="#89F7FF" offset="1"/>
    </linearGradient>
    <linearGradient id="paint75_linear_1_1574" x1="40.92" x2="40.92" y1="44.28" y2="66.58" gradientUnits="userSpaceOnUse">
      <stop stop-color="#FBE68E" offset="0"/>
      <stop stop-color="#F2C142" offset=".3"/>
      <stop stop-color="#F2C142" stop-opacity=".21" offset="1"/>
    </linearGradient>
    <linearGradient id="paint76_linear_1_1574" x1="50.34" x2="50.34" y1="26.62" y2="64.03" gradientUnits="userSpaceOnUse">
      <stop stop-color="#FCF1FF" offset="0"/>
      <stop stop-color="#F2C142" stop-opacity=".14" offset="1"/>
    </linearGradient>
    <linearGradient id="paint77_linear_1_1574" x1="72.31" x2="72.31" y1="49.23" y2="59.22" gradientUnits="userSpaceOnUse">
      <stop stop-color="#FCF1FF" offset="0"/>
      <stop stop-color="#F2C142" stop-opacity=".14" offset="1"/>
    </linearGradient>
    <linearGradient id="paint78_linear_1_1574" x1="97.47"/>
    &quot; x2=&quot;97.4664&quot; y2=&quot;97.4922&quot; gradientUnits=&quot;userSpaceOnUse&quot;&gt;
  </defs>
  <linearGradient id="paint79_linear_1_1574" x1="89.23" x2="89.23" y1="77.42" y2="97.49" gradientUnits="userSpaceOnUse">
    <stop stop-color="#89F7FF" offset="0"/>
    <stop stop-color="#0082FF" offset="1"/>
  </linearGradient>
</svg>