<svg xmlns="http://www.w3.org/2000/svg" width="256" height="256" fill="none" viewBox="0 0 256 256">
<!-- SVG created with Arrow, by QuiverAI (https://quiver.ai) -->
  <path d="m3.19 185.7 63.77-69.99-7.15-41.75 7.23-9.65 10.77-7.92 20.8 18.1 40.58-67.83 40.43 8.97 26.16 19.03-5.57 46.15 18.68-10.8 20.97 14.85 13.14 26.31-53.99 61.75-15.33 65.84-50.15 10.35h-52.21l-44.49-9.9-21.68-19.92-11.96-33.59z" fill="url(#paint0_angular_101_5005)"/>
  <path d="m8.68 186.4 63.23-69.9-7.62-41.47 5.48-7.94 7.5-5.02 22.79 21.88 41.35-72.77 36.5 7.96 23.06 17.56-5.68 54.09 23.48-15.64 18.02 12.76 12.02 22.3-52.65 59.89-15.92 65.35-47.49 9.3-50.89 0.07-43.2-9.32-20.14-18.98-9.84-30.12z" fill="url(#paint1_angular_101_5005)" stroke="url(#paint2_linear_101_5005)" stroke-linecap="round" stroke-linejoin="round" stroke-width="3"/>
  <path d="m12.7 187.3 60.48-66.88-5.25-44.58 8.91-8.76 23.47 22.04 41.83-71.93 34.84 17.64 20.91 2.37-3.81 53.24 1.19 0.76 23.57-13.48 16.72 11.26 10.26 20.97-61.58 62.39-14.21 62.99-18.41 3.79 8.3-35.35-9.74-17.56 23.06-35.99h13.77l45.05-43.85 6.56 3.8-55.88 61.35-14.78 64.74-18.41 3.56 8.3-35.99-9.09-17.56 23.95-37.82 15.06-0.06 38.24-42.9-7.5-10.91-41.07 25.84 23.71-21.29-15.92 0.94 4.81-60.27-5.16 0.4-8.19 46.52-5.91 0.13 3.34-50.71-16.99 6.11-0.45 38.18 5.41 12.62-5.7 16.37-3.51-0.27-1.07-9.82-11.68 0.94-4.54-45.98 12.15-12.17 8.77-9.95-9.74-8.06-26.71 45.31 0.53 11.55-13.88 19.77 0.4-10.4 10.64-19.77 22.14-49.94-0.36-5.89-39.32 67.18-23.06-20.55-9.22 7.45-5.64 5.76 8.42 41.68-59.99 74.71 1.98 5.02v-8.69z" fill="url(#paint3_angular_101_5005)" stroke="url(#paint4_linear_101_5005)" stroke-linecap="round" stroke-linejoin="round" stroke-width="3"/>
  <path d="m74.08 69.41 6.86 20.92 0.64 25.92 8.47-9.94-5.38-14.2-10.59-22.7z" fill="#2B1534"/>
  <path d="m75.61 118.8 0.7 6.1-3.03 8.8-20.86 23.07-0.79 4.23 23.06-23.99 2.55-6.17-1.63-12.04z" fill="#42210B"/>
  <path d="m75.12 168-37.34 58.88 5.03 4.32 30.91-49.2 1.4-14z" fill="#782102"/>
  <path d="m62.29 172.2-24.27 33.59 16.99-15.02 5.17-6.11 2.11-12.46z" fill="#42210B"/>
  <path d="m38.85 185.9-18.41 25.3 2.24 2.83 15.93-22.15 0.24-5.98z" fill="#A03300"/>
  <path d="m76.07 201.1 2.91 10.98-10.77 25.03-22.4-5.01 30.26-31z" fill="url(#paint5_angular_101_5005)"/>
  <path d="m94.91 135.4-15.68 42.29 14.58-11.48 1.1-30.81z" fill="#782102"/>
  <path d="m101.7 91.51-25.62-23.1 7.84 13.03 16.52 10.98 1.26-0.91z" fill="#782102"/>
  <path d="m101.1 92.04-7.68 32.47 6.64-4.59 3.85-15.09-1.76-13.32-1.05 0.53z" fill="#42210B"/>
  <path d="m126.1 100.1-29.03 39.84-3.85 28.65 15.45-15.42 17.43-53.07z" fill="#A03300"/>
  <path d="m110.8 157-25.9 38.1 5.9 18.48 17.55-26.89 2.45-29.69z" fill="url(#paint6_angular_101_5005)"/>
  <path d="m110.3 187.9 11.92-2.4-9.65 31.8-2.27-29.4z" fill="#A03300"/>
  <path d="m129.9 181.2-16.48 58.28 12.1-0.81 11.69-28.92-4.46-16-2.85-12.55z" fill="url(#paint7_angular_101_5005)"/>
  <path d="m141.1 195.6 7.09 16.49-10.2 26.53-8.6 0.81 9.08-29.18-4.76-17.22 4.52-17.9 20.96-17.03-18.09 37.5z" fill="url(#paint8_angular_101_5005)"/>
  <path d="m163.8 187.9 9.87-11.9 2.46-11.19 11.43-9.31 3.47-5.3-17.12 4.87-12.22 31.84 3.59 8.28-7.15 39.55 4.13-1.82 8.47-32.75-6.93-12.27z" fill="url(#paint9_angular_101_5005)"/>
  <path d="m149.2 18.01 24.72 4.23 15.72 11.68-13.26-0.81-27.18-15.1z" fill="#A03300"/>
  <path d="m188.8 40.73-3.86 31.7 1.2 19.61-12.95 30.27 22.14-20.99 2.03-61.87-8.56 1.28z" fill="url(#paint10_angular_101_5005)"/>
  <path d="m223.7 85.73 10.2 4.23 8 15.71-5.17-1.48-13.03-18.46z" fill="url(#paint11_angular_101_5005)"/>
  <path d="m217.7 96.11-17.67 16.9-3.85 6.92-20.41 24.82 11.86-1.82 13.88-22.06 7.57-2.53 15.92-13.24-7.3-8.99z" fill="url(#paint12_angular_101_5005)"/>
  <path d="m149.2 88.36-13.08 7.28-16.1 45.2 12.45-2.19 16.73-50.29z" fill="#A03300"/>
  <path d="m149.7 80.96 16.91-44.35-8.28-4.45-28.52 59.95 19.89-11.15z" fill="#782102"/>
  <path d="m170.2 111.5-14.46 16.56-16.6 31.04-0.47-9.45 17.07-15.7 9.74-4.47 4.72-17.98z" fill="#A03300"/>
  <path d="m188.7 122-31.35 15.67-16.26 26.19 46.97-38.59 0.64-3.27z" fill="url(#paint13_angular_101_5005)"/>
  <path d="m14.21 198.7 22.98-25.17 10.52-3.09-0.54-12.7 15.21-17.43" stroke="url(#paint14_angular_101_5005)" stroke-linecap="round" stroke-linejoin="round" stroke-width="4"/>
  <path d="m110.1 106.5 12.02-24.41-1.07-13.5 22.14-48.39-0.64-8.62 33.3 9.56 23.06 15.55-22.69 1.11-20.69 43.14 6.6 12.96-6.5 14.95" stroke="url(#paint15_angular_101_5005)" stroke-linecap="round" stroke-linejoin="round" stroke-width="4"/>
  <path d="m176.6 119.4 41.74-33.55 0.57-9.56 17.44 12.49 11.42 21.88-10.01-0.6-7.09-3.93-43.79 43.73-13.86-0.07-23.06 35.98 9.62 17.63-8.47 35.49-18.53 4.29-50.89-0.13-8.46-1.88 11.84-28.11-3.1-15.49" stroke="url(#paint16_angular_101_5005)" stroke-linecap="round" stroke-linejoin="round" stroke-width="3"/>
  <path d="m170.8 36.13 12.44 1.82-9.26 47.78" stroke="url(#paint17_angular_101_5005)" stroke-linecap="round" stroke-linejoin="round" stroke-width="3"/>
  <defs>
    <radialGradient id="paint0_angular_101_5005" cx="0" cy="0" r="1" gradientTransform="translate(128.1 127.9) rotate(90) scale(122.8 128.1)" gradientUnits="userSpaceOnUse">
      <stop stop-color="#110023" offset="0"/>
      <stop stop-color="#6349D8" offset="1"/>
    </radialGradient>
    <radialGradient id="paint1_angular_101_5005" cx="0" cy="0" r="1" gradientTransform="translate(128.8 128.4) rotate(90) scale(114.8 121.4)" gradientUnits="userSpaceOnUse">
      <stop stop-color="#782102" offset="0"/>
      <stop stop-color="#2B1534" offset="1"/>
    </radialGradient>
    <linearGradient id="paint2_linear_101_5005" x1="128.1" x2="128.1" y1="6.656" y2="249.1" gradientUnits="userSpaceOnUse">
      <stop stop-color="#21B3FF" offset="0"/>
      <stop stop-color="#9B00FF" offset="1"/>
    </linearGradient>
    <radialGradient id="paint3_angular_101_5005" cx="0" cy="0" r="1" gradientTransform="translate(127.8 127.6) rotate(90) scale(112 117.6)" gradientUnits="userSpaceOnUse">
      <stop stop-color="#110023" offset="0"/>
      <stop stop-color="#6349D8" offset="1"/>
    </radialGradient>
    <linearGradient id="paint4_linear_101_5005" x1="127.8" x2="127.8" y1="11.19" y2="241.7" gradientUnits="userSpaceOnUse">
      <stop stop-color="#21B3FF" offset="0"/>
      <stop stop-color="#9B00FF" offset="1"/>
    </linearGradient>
    <radialGradient id="paint5_angular_101_5005" cx="0" cy="0" r="1" gradientTransform="translate(61.71 205.5) rotate(90) scale(25.66 17.29)" gradientUnits="userSpaceOnUse">
      <stop stop-color="#930" offset="0"/>
      <stop stop-color="#782102" offset="1"/>
    </radialGradient>
    <radialGradient id="paint6_angular_101_5005" cx="0" cy="0" r="1" gradientTransform="translate(97.27 185.3) rotate(90) scale(28.29 13.49)" gradientUnits="userSpaceOnUse">
      <stop stop-color="#42210B" offset="0"/>
      <stop stop-color="#2B1534" offset="1"/>
    </radialGradient>
    <radialGradient id="paint7_angular_101_5005" cx="0" cy="0" r="1" gradientTransform="translate(125.3 209.8) rotate(90) scale(29.68 11.89)" gradientUnits="userSpaceOnUse">
      <stop stop-color="#42210B" offset="0"/>
      <stop stop-color="#2B1534" offset="1"/>
    </radialGradient>
    <radialGradient id="paint8_angular_101_5005" cx="0" cy="0" r="1" gradientTransform="translate(144.2 207) rotate(90) scale(32.48 15.03)" gradientUnits="userSpaceOnUse">
      <stop stop-color="#42210B" offset="0"/>
      <stop stop-color="#2B1534" offset="1"/>
    </radialGradient>
    <radialGradient id="paint9_angular_101_5005" cx="0" cy="0" r="1" gradientTransform="translate(167.2 198.7) rotate(90) scale(36.03 9.648)" gradientUnits="userSpaceOnUse">
      <stop stop-color="#336" offset="0"/>
      <stop stop-color="#2B1534" offset="1"/>
    </radialGradient>
    <radialGradient id="paint10_angular_101_5005" cx="0" cy="0" r="1" gradientTransform="translate(185.9 80.88) rotate(90) scale(36.91 11.45)" gradientUnits="userSpaceOnUse">
      <stop stop-color="#336" offset="0"/>
      <stop stop-color="#2B1534" offset="1"/>
    </radialGradient>
    <radialGradient id="paint11_angular_101_5005" cx="0" cy="0" r="1" gradientTransform="translate(232.8 95.45) rotate(90) scale(12.45 9.102)" gradientUnits="userSpaceOnUse">
      <stop stop-color="#336" offset="0"/>
      <stop stop-color="#2B1534" offset="1"/>
    </radialGradient>
    <radialGradient id="paint12_angular_101_5005" cx="0" cy="0" r="1" gradientTransform="translate(200 120) rotate(90) scale(24.71 24.11)" gradientUnits="userSpaceOnUse">
      <stop stop-color="#42210B" offset="0"/>
      <stop stop-color="#2B1534" offset="1"/>
    </radialGradient>
    <radialGradient id="paint13_angular_101_5005" cx="0" cy="0" r="1" gradientTransform="translate(164.9 143) rotate(90) scale(21 23.79)" gradientUnits="userSpaceOnUse">
      <stop stop-color="#42210B" offset="0"/>
      <stop stop-color="#2B1534" offset="1"/>
    </radialGradient>
    <radialGradient id="paint14_angular_101_5005" cx="0" cy="0" r="1" gradientTransform="translate(38.3 169.5) rotate(90) scale(29.2 24.08)" gradientUnits="userSpaceOnUse">
      <stop stop-color="#21B3FF" offset="0"/>
      <stop stop-color="#9B00FF" offset="1"/>
    </radialGradient>
    <radialGradient id="paint15_angular_101_5005" cx="0" cy="0" r="1" gradientTransform="translate(154.7 59.06) rotate(90) scale(47.46 44.21)" gradientUnits="userSpaceOnUse">
      <stop stop-color="#21B3FF" offset="0"/>
      <stop stop-color="#9B00FF" offset="1"/>
    </radialGradient>
    <radialGradient id="paint16_angular_101_5005" cx="0" cy="0" r="1" gradientTransform="translate(160 159.9) rotate(90) scale(83.94 87.8)" gradientUnits="userSpaceOnUse">
      <stop stop-color="#21B3FF" offset="0"/>
      <stop stop-color="#9B00FF" offset="1"/>
    </radialGradient>
    <radialGradient id="paint17_angular_101_5005" cx="0" cy="0" r="1" gradientTransform="translate(177 60.45) rotate(90) scale(25.61 6.221)" gradientUnits="userSpaceOnUse">
      <stop stop-color="#21B3FF" offset="0"/>
      <stop stop-color="#9B00FF" offset="1"/>
    </radialGradient>
  </defs>
</svg>