<svg xmlns="http://www.w3.org/2000/svg" width="256" height="256" fill="none" viewBox="0 0 256 256">
<!-- SVG created with Arrow, by QuiverAI (https://quiver.ai) -->
  <path d="m249.3 7.32-11.47-0.11-53.5 11.88-57.33 59.29-57.33-59.29-62.38-12.95-2.12 6.77 4.99 2.58 7.5 53.5 59.91 58.66 9.6 3.44-0.75 2.63-18.67 4.02-1.64 6.33-4.22-12.81-21.35 17.95v23.88l7.31 13.03-10.04 12.49-16.54 12.66-9.24 4.02-6.05 6.91v27.66l4.77 2.05 28.15-2.85 7.77-8.64v-5.9l19.28-21.67 11.55-7.94 6.05 7.18 24.68-1.47 15.48-16.08-4.97-5.73 1.13-11.11 3.01-0.69h3.18l2.32 11.12-1.38 6.41 20.94 16.82 24.68-0.17 6.27-6.45 11.15 10.05 18.66 22.32v3.69l7.03 8.26 30.47 2.63 4.39-3.98v-28.52l-7.91-9.6-7.5-2.32-21.84-16.99-7.87-9.25 6.71-7.94v-24.66l-19-19.47-4.89 4.39-10.79-3.21-1.83-1.96 62.16-56.15 11.47-64.71z" fill="url(#paint0_linear_4322_1014)" stroke="#CB55FF" stroke-miterlimit="10" stroke-width="4.403"/>
  <path d="m11.11 8.71 58.07 12.23 57.86 60.48 57.86-60.48 58.72-11.62 1.54 0.17 0.64 1.1-11.91 57.53-60.18 59.52-6.16 2.33 2.46 3.75 19.2 4.19 1.71-3.09 1.87-0.25 16.04 15.39v22.96l-8.82 12.94 1.3 1.1 1.29-0.09 32.04 25.97 4.97 0.59 5.31 8.85v24.6l-26.6-2.05-6.52-6.45v-4.3l-20.46-23.47-12.41-10.7-7.87 8.4-22.58-0.34-17.07-13.9 4.4-4.39-3.27-3.22-2.81-13.37-4.7-1.02-3.92 1.28-2.23 14.61-2.82 1.72 4.4 4.22-13.62 14.15-21.68 0.87-6.94-7.77-16.04 12.57-18.57 20.88v4.81l-5.68 5.33-27.31 2.05v-24.68l6.18-6.68 6.44-1.19 23.47-20.51 7.22-8.56-7.99-12.42v-22.15l15.78-15.64 5.68 13.9 2.32-12.15 17.5-3.6 1.72-5.46-9.16-3.04-59.91-56.75-8.76-54.53v-4.62z" fill="url(#paint1_linear_4322_1014)" stroke="#00F0FF" stroke-miterlimit="10" stroke-width="2.935"/>
  <path d="m12.83 12.91 20.86 21.84 1.94-0.78-16.45-20.05 47.96 12.24v10.7h1.22v-8.4l57.5 56.58 1.18-1.81-56.83-60.65-57.38-12.42v2.75z" fill="url(#paint2_linear_4322_1014)" stroke="#00F0FF" stroke-miterlimit="10" stroke-width="1.468"/>
  <path d="m244.8 12.91-20.86 23.87-8.07 28.23 11.9-2.48 10.99-48.44-16.55 20.59 22.59-24.52v2.75z" fill="url(#paint3_linear_4322_1014)" stroke="#00F0FF" stroke-miterlimit="10" stroke-width="1.468"/>
  <path d="m23.57 62.87 14.19 2.23" stroke="url(#paint4_linear_4322_1014)" stroke-miterlimit="10" stroke-width="1.468"/>
  <path d="m125.5 84.95 1.52-1.72-1.03 6.69-1.95 0.86 1.46-5.83z" fill="url(#paint5_linear_4322_1014)" stroke="#00F0FF" stroke-miterlimit="10" stroke-width="1.468"/>
  <path d="m186.8 27.1-2.9 14.61 30.08-7.94-25.26 26.45-6.44 0.86-15.78 15.05 0.87-18.9-29.91 28.91-2.03 10.05-48.27 41.98-12.58 2.75-2.14 20.26 12.24-1.11 5.23-6.45 10.7-1.72 17.15-10.53 52.2-51.11 7.87-1.46 16.45-16.23 0.96-9.96 25.92-25.83-10.62 37.25-40.58 42.38-6.44 2.13-52.29 49.09-1.47 15.47-13.29 1.72v-10.05l6.53-7.6 0.57-10.79 11.55-12.14-14.94 9.2-10.27 1.47-4.4 5.73-12.82 0.59 1.38-20.22 13.43-1.96 48.18-42.86 1.38-10.05 30.14-29.43-1.04 18.12 16.2-16.57 8.76-1.64 21.76-22.96-29.07 8.73 4.02-15.73-1.03 0.44z" fill="url(#paint6_linear_4322_1014)" stroke="#CB2238" stroke-miterlimit="10" stroke-width="1.468"/>
  <path d="m33.94 36.86 23.47 25.75 1.71 10.05 16.29 16.14-20.14-2.66-13.96-16.82-7.37-32.46z" fill="url(#paint7_linear_4322_1014)" stroke="#CB2238" stroke-miterlimit="10" stroke-width="1.468"/>
  <path d="m38.91 33.77 33.67 8.86 16.12 15.63v16.57l-17.99-16.07-7.59-1.71-24.21-23.28z" fill="url(#paint8_linear_4322_1014)" stroke="#CB2238" stroke-miterlimit="10" stroke-width="1.468"/>
  <path d="m89.73 58.26 26.33 26.78 2.13 13.62-7.87 8.94-20.59-20.88v-28.46z" fill="url(#paint9_linear_4322_1014)" stroke="#CB2238" stroke-miterlimit="10" stroke-width="1.468"/>
  <path d="m54.09 86.14 31.56 28.9 7.38 1.8 6.45 4.89 8.05-10.7-20.58-18.9-32.86-5.99z" fill="url(#paint10_linear_4322_1014)" stroke="#CB2238" stroke-miterlimit="10" stroke-width="1.468"/>
  <path d="m123.8 87.95 1.63 4.81-4.32 4.89-1.04-7.94-1.46-4.67 3.01 2.91h2.18z" fill="url(#paint11_linear_4322_1014)" stroke="#00F0FF" stroke-miterlimit="10" stroke-width="1.468"/>
  <path d="m156.7 133.7 10.46 10.04 13.54 1.56 0.77 14.8-11.99-1.2-9.33-7.85-11.38-1.47-3.36-4.89 11.29-10.99z" fill="url(#paint12_linear_4322_1014)" stroke="#A80623" stroke-miterlimit="10" stroke-width="1.468"/>
  <path d="m141.3 148.3 9 7.6v10.05l8.36 8.03v8.29l-12.58-0.69-2.55-13.9-11.63-10.22 9.4-9.16z" fill="url(#paint13_linear_4322_1014)" stroke="#A80623" stroke-miterlimit="10" stroke-width="1.468"/>
  <path d="m162.7 163.2 22.57 1.81 8.76 8.21-0.08-5.98 1.13-24.15 9.6 9.6 0.57 19.2-10.6 9.35-11.72-8.62-8.53 1.81-1.29 11.82 4.76 9.96-4.42 3.83-10.75-14.87v-21.97z" fill="url(#paint14_linear_4322_1014)" stroke="#A80623" stroke-miterlimit="10" stroke-width="1.468"/>
  <path d="m176.9 177 12.08 4.96-9.6 9.44-4.02-6.11 1.54-8.29z" fill="url(#paint15_linear_4322_1014)" stroke="#A80623" stroke-miterlimit="10" stroke-width="1.468"/>
  <path d="m142.2 195.2 20.32-3.21 9.24 10.52-2.03 2.91-20.59-1.55-6.94-8.67z" fill="url(#paint16_linear_4322_1014)" stroke="#A80623" stroke-miterlimit="10" stroke-width="1.468"/>
  <path d="m181.1 200.1 13.78 9.68 6.7 0.17-7.04-9.6-11.3-1.46-2.14 1.21z" fill="url(#paint17_linear_4322_1014)" stroke="#A80623" stroke-miterlimit="10" stroke-width="1.468"/>
  <path d="m212 200.3 21.27 20.34v13.85l-12.66-0.78 5.15-7.76-16.12-14.7 2.36-10.95z" fill="url(#paint18_linear_4322_1014)" stroke="#A80623" stroke-miterlimit="10" stroke-width="1.468"/>
  <path d="m200.3 190.1 7.49 8.85v5.95l-7.49-8.84v-5.96z" fill="url(#paint19_linear_4322_1014)" stroke="#A80623" stroke-miterlimit="10" stroke-width="1.468"/>
  <path d="m224.2 220.5 3 1.29 0.58 4.19-2.63-0.34-1.72-3.85 0.77-1.29z" fill="url(#paint20_linear_4322_1014)" stroke="#A80623" stroke-miterlimit="10" stroke-width="1.468"/>
  <path d="m207.8 213 11.16 10.44v5.45l-2.63-2.4-1.14 1.2v-4.25l-7.39-8.26v-2.18z" fill="url(#paint21_linear_4322_1014)" stroke="#A80623" stroke-miterlimit="10" stroke-width="1.468"/>
  <path d="m233 235.6 7.49 7.95" stroke="#0082A9" stroke-linecap="round" stroke-miterlimit="10" stroke-width="1.468"/>
  <path d="m15.09 243.6 9.77-9.96h10.18l3.82 3.5-2.23 4.39-21.54 2.07z" stroke="#00F0FF" stroke-linecap="round" stroke-miterlimit="10" stroke-width="1.468"/>
  <path d="m20.86 220.1 18.83-18.93 2.73-1.33v11.05l4.55-3.17 7.58-7.88 3.59 0.09 8.54 1.24-5.76 8.03-14.85 1.69 8.95 0.87-15.78 12.23v4.94l-2.9 2.91v-6.69l4.8-5.05v-3.77l-11.16 8.82-3.83-0.99 12.12-12.01-0.51-1.26-10.35 12.59-4.97-0.17-1.58-3.21z" fill="url(#paint22_linear_4322_1014)" stroke="#A80623" stroke-miterlimit="10" stroke-width="1.468"/>
  <path d="m44.44 198.3 9.48-10.7v10.05l-8.92 8.4-0.56-7.75z" fill="url(#paint23_linear_4322_1014)" stroke="#A80623" stroke-miterlimit="10" stroke-width="1.468"/>
  <path d="m50.79 152.4 8.5-10.31 5.23 11.78v12.57l-10.51 7.57-3.22-3v-18.61z" fill="url(#paint24_linear_4322_1014)" stroke="#A80623" stroke-miterlimit="10" stroke-width="1.468"/>
  <path d="m54.01 174 15.02-9.81 18.01-0.97 6.05-3.61-4.97 11.65v13.54l-9.16 13.11-3.63-8.25-11.3-10.62-10.02-5.04z" fill="url(#paint25_linear_4322_1014)" stroke="#A80623" stroke-miterlimit="10" stroke-width="1.468"/>
  <path d="m63.78 179.6 9.48-3.85h6.86l1.13 3.85-4.24 12.11-4.88-6.46-8.35-5.65z" fill="url(#paint26_linear_4322_1014)" stroke="#A80623" stroke-miterlimit="10" stroke-width="1.468"/>
  <path d="m58.81 184 14.11 13.72-14.86 0.42-0.85-2.86 1.6-11.28z" fill="url(#paint27_linear_4322_1014)" stroke="#A80623" stroke-miterlimit="10" stroke-width="1.468"/>
  <path d="m91.11 192.7 22 2.44-6.86 8.67-19.89 0.09-1.71-3.25 6.46-7.95z" fill="url(#paint28_linear_4322_1014)" stroke="#A80623" stroke-miterlimit="10" stroke-width="1.468"/>
  <path d="m82.61 174.9 2.55 0.34v7.82l-5.04 6.58" stroke="#A80623" stroke-miterlimit="10" stroke-width="1.468"/>
  <defs>
    <linearGradient id="paint0_linear_4322_1014" x1="127.9" x2="127.9" y1="5.475" y2="253.2" gradientUnits="userSpaceOnUse">
      <stop stop-color="#00F0FF" offset="0"/>
      <stop stop-color="#00F0FF" offset=".1875"/>
      <stop stop-color="#3940F7" offset=".5365"/>
      <stop stop-color="#CB22E7" offset=".8594"/>
      <stop stop-color="#CB22E7" offset="1"/>
    </linearGradient>
    <linearGradient id="paint1_linear_4322_1014" x1="127.9" x2="127.9" y1="8.371" y2="248.3" gradientUnits="userSpaceOnUse">
      <stop stop-color="#00F0FF" offset="0"/>
      <stop stop-color="#00F0FF" offset=".1875"/>
      <stop stop-color="#3940F7" offset=".599"/>
      <stop stop-color="#00F0FF" offset=".8594"/>
      <stop stop-color="#00F0FF" offset="1"/>
    </linearGradient>
    <linearGradient id="paint2_linear_4322_1014" x1="70.01" x2="70.01" y1="10.16" y2="86.42" gradientUnits="userSpaceOnUse">
      <stop stop-color="#00F0FF" offset="0"/>
      <stop stop-color="#3940F7" offset="1"/>
    </linearGradient>
    <linearGradient id="paint3_linear_4322_1014" x1="233.5" x2="233.5" y1="10.16" y2="65.1" gradientUnits="userSpaceOnUse">
      <stop stop-color="#00F0FF" offset="0"/>
      <stop stop-color="#3940F7" offset="1"/>
    </linearGradient>
    <linearGradient id="paint4_linear_4322_1014" x1="30.68" x2="30.68" y1="62.53" y2="65.28" gradientUnits="userSpaceOnUse">
      <stop stop-color="#00F0FF" offset="0"/>
      <stop stop-color="#3940F7" offset="1"/>
    </linearGradient>
    <linearGradient id="paint5_linear_4322_1014" x1="126.2" x2="126.2" y1="83.23" y2="90.95" gradientUnits="userSpaceOnUse">
      <stop stop-color="#00F0FF" offset="0"/>
      <stop stop-color="#3940F7" offset="1"/>
    </linearGradient>
    <linearGradient id="paint6_linear_4322_1014" x1="147" x2="147" y1="26.66" y2="185" gradientUnits="userSpaceOnUse">
      <stop stop-color="#F23144" offset="0"/>
      <stop stop-color="#B71722" offset="1"/>
    </linearGradient>
    <linearGradient id="paint7_linear_4322_1014" x1="54.67" x2="54.67" y1="36.86" y2="88.8" gradientUnits="userSpaceOnUse">
      <stop stop-color="#F23144" offset="0"/>
      <stop stop-color="#CB2238" offset="1"/>
    </linearGradient>
    <linearGradient id="paint8_linear_4322_1014" x1="58.82" x2="58.82" y1="33.77" y2="74.83" gradientUnits="userSpaceOnUse">
      <stop stop-color="#F23144" offset="0"/>
      <stop stop-color="#CB2238" offset="1"/>
    </linearGradient>
    <linearGradient id="paint9_linear_4322_1014" x1="102.9" x2="102.9" y1="58.26" y2="107.6" gradientUnits="userSpaceOnUse">
      <stop stop-color="#F23144" offset="0"/>
      <stop stop-color="#CB2238" offset="1"/>
    </linearGradient>
    <linearGradient id="paint10_linear_4322_1014" x1="80.81" x2="80.81" y1="86.14" y2="121.7" gradientUnits="userSpaceOnUse">
      <stop stop-color="#F23144" offset="0"/>
      <stop stop-color="#CB2238" offset="1"/>
    </linearGradient>
    <linearGradient id="paint11_linear_4322_1014" x1="122.1" x2="122.1" y1="85.04" y2="97.65" gradientUnits="userSpaceOnUse">
      <stop stop-color="#00F0FF" offset="0"/>
      <stop stop-color="#3940F7" offset="1"/>
    </linearGradient>
    <linearGradient id="paint12_linear_4322_1014" x1="163.4" x2="163.4" y1="133.7" y2="160.3" gradientUnits="userSpaceOnUse">
      <stop stop-color="#F23144" offset="0"/>
      <stop stop-color="#CB2238" offset="1"/>
    </linearGradient>
    <linearGradient id="paint13_linear_4322_1014" x1="145.3" x2="145.3" y1="148.3" y2="182.4" gradientUnits="userSpaceOnUse">
      <stop stop-color="#F23144" offset="0"/>
      <stop stop-color="#CB2238" offset="1"/>
    </linearGradient>
    <linearGradient id="paint14_linear_4322_1014" x1="184" x2="184" y1="143.1" y2="200.3" gradientUnits="userSpaceOnUse">
      <stop stop-color="#F23144" offset="0"/>
      <stop stop-color="#CB2238" offset="1"/>
    </linearGradient>
    <linearGradient id="paint15_linear_4322_1014" x1="182.1" x2="182.1" y1="177" y2="191.4" gradientUnits="userSpaceOnUse">
      <stop stop-color="#F23144" offset="0"/>
      <stop stop-color="#CB2238" offset="1"/>
    </linearGradient>
    <linearGradient id="paint16_linear_4322_1014" x1="157" x2="157" y1="191.8" y2="205.5" gradientUnits="userSpaceOnUse">
      <stop stop-color="#F23144" offset="0"/>
      <stop stop-color="#CB2238" offset="1"/>
    </linearGradient>
    <linearGradient id="paint17_linear_4322_1014" x1="191.4" x2="191.4" y1="198.7" y2="210.1" gradientUnits="userSpaceOnUse">
      <stop stop-color="#F23144" offset="0"/>
      <stop stop-color="#CB2238" offset="1"/>
    </linearGradient>
    <linearGradient id="paint18_linear_4322_1014" x1="221.6" x2="221.6" y1="200.3" y2="234.6" gradientUnits="userSpaceOnUse">
      <stop stop-color="#F23144" offset="0"/>
      <stop stop-color="#CB2238" offset="1"/>
    </linearGradient>
    <linearGradient id="paint19_linear_4322_1014" x1="203.9" x2="203.9" y1="190.1" y2="204.9" gradientUnits="userSpaceOnUse">
      <stop stop-color="#F23144" offset="0"/>
      <stop stop-color="#CB2238" offset="1"/>
    </linearGradient>
    <linearGradient id="paint20_linear_4322_1014" x1="225.5" x2="225.5" y1="220.5" y2="226.1" gradientUnits="userSpaceOnUse">
      <stop stop-color="#F23144" offset="0"/>
      <stop stop-color="#CB2238" offset="1"/>
    </linearGradient>
    <linearGradient id="paint21_linear_4322_1014" x1="213.3" x2="213.3" y1="213" y2="228.9" gradientUnits="userSpaceOnUse">
      <stop stop-color="#F23144" offset="0"/>
      <stop stop-color="#CB2238" offset="1"/>
    </linearGradient>
    <linearGradient id="paint22_linear_4322_1014" x1="43.91" x2="43.91" y1="199.7" y2="232.1" gradientUnits="userSpaceOnUse">
      <stop stop-color="#F23144" offset="0"/>
      <stop stop-color="#CB2238" offset="1"/>
    </linearGradient>
    <linearGradient id="paint23_linear_4322_1014" x1="49.18" x2="49.18" y1="187.6" y2="206" gradientUnits="userSpaceOnUse">
      <stop stop-color="#F23144" offset="0"/>
      <stop stop-color="#CB2238" offset="1"/>
    </linearGradient>
    <linearGradient id="paint24_linear_4322_1014" x1="57.65" x2="57.65" y1="142.1" y2="174.1" gradientUnits="userSpaceOnUse">
      <stop stop-color="#F23144" offset="0"/>
      <stop stop-color="#CB2238" offset="1"/>
    </linearGradient>
    <linearGradient id="paint25_linear_4322_1014" x1="73.55" x2="73.55" y1="159.6" y2="198" gradientUnits="userSpaceOnUse">
      <stop stop-color="#F23144" offset="0"/>
      <stop stop-color="#CB2238" offset="1"/>
    </linearGradient>
    <linearGradient id="paint26_linear_4322_1014" x1="72.44" x2="72.44" y1="175.6" y2="191.7" gradientUnits="userSpaceOnUse">
      <stop stop-color="#F23144" offset="0"/>
      <stop stop-color="#CB2238" offset="1"/>
    </linearGradient>
    <linearGradient id="paint27_linear_4322_1014" x1="64.99" x2="64.99" y1="184" y2="198.2" gradientUnits="userSpaceOnUse">
      <stop stop-color="#F23144" offset="0"/>
      <stop stop-color="#CB2238" offset="1"/>
    </linearGradient>
    <linearGradient id="paint28_linear_4322_1014" x1="98.88" x2="98.88" y1="192.5" y2="204.1" gradientUnits="userSpaceOnUse">
      <stop stop-color="#F23144" offset="0"/>
      <stop stop-color="#CB2238" offset="1"/>
    </linearGradient>
  </defs>
</svg>