<svg xmlns="http://www.w3.org/2000/svg" width="200" height="200" fill="none" viewBox="0 0 200 200">
<!-- SVG created with Arrow, by QuiverAI (https://quiver.ai) -->
  <path d="m189.8 156.2-7.59-44.02c-0.38-2.12-1.61-4.01-3.41-5.23l-15.52-10.51-1.25-10.09c-0.36-2.98-1.45-5.83-3.22-8.3l-7.41-10.59-14.87-42.27c-0.97-2.91-3.29-5.2-6.23-6.1l-19.05-6.27c-1.02-0.33-2.09-0.5-3.16-0.5-0.5 0-1 0.04-1.49 0.13l-9.64 1.61-1.22-3.25c-1-2.79-3.59-4.74-6.53-4.92l-17.97-1.49c-0.18-0.01-0.37-0.02-0.56-0.02-1.8 0-3.54 0.67-4.84 1.95l-29.57 27.4c-1.57 1.53-2.51 3.64-2.64 5.88l-2.57 49.58-13.12 11.91c-1.5 1.39-2.53 3.22-2.93 5.23l-4.87 22.73c-0.42 1.96-0.21 3.98 0.6 5.79l13.17 31.85c1.12 2.66 3.59 4.66 6.45 5.19l18.32 4.17 43.85 17.49c1.05 0.39 2.17 0.6 3.3 0.6 1.08 0 2.16-0.2 3.18-0.58l20.73-8.23 18.67-8.33 11.5 5.78c1.17 0.61 2.48 0.93 3.82 0.93 1.64 0 3.21-0.51 4.53-1.49l28.57-19.14c2.25-1.52 3.48-4.18 2.97-6.89z" fill="#009FE3" opacity=".1"/>
  <path d="m187.7 156.6-7.72-43.68c-0.29-1.63-1.25-3.08-2.65-4.03l-15.99-11.19-1.41-11.66c-0.29-2.46-1.2-4.8-2.64-6.84l-8.01-11.48-14.8-42.08c-0.8-2.52-2.65-4.55-5.12-5.47l-18.23-5.55c-1.44-0.58-3.03-0.73-4.55-0.45l-8.94 1.53-1.51-4.17c-0.75-2.17-2.69-3.68-4.99-3.82l-19.59-0.72c-1.44-0.14-2.84 0.43-3.92 1.49l-30.2 26.39c-1.24 1.22-1.99 2.87-2.09 4.67l-2.66 50.5-13.9 12.78c-1.2 1.13-2.04 2.65-2.35 4.32l-5.15 22.01c-0.32 1.44-0.14 2.96 0.52 4.33l14.03 32.93c0.8 1.8 2.5 3.06 4.5 3.34l18.91 4.17 44.19 18.22c1.57 0.65 3.37 0.6 4.96-0.09l20.64-8.26 19.4-8.9 12.4 6c1.9 1.02 4.25 0.73 6-0.68l29-19.61c1.5-1.01 2.27-2.65 1.87-4z" fill="#0076A7" stroke="#009FE3" stroke-miterlimit="10" stroke-width="1.417"/>
  <path d="m14.78 130.6 13.13 35.13c0.37 1.02 1.3 1.76 2.4 1.91l18.61 4.11 44.86 18.1c1.15 0.47 2.44 0.47 3.59 0l40.86-17.32 13.06 6.44c1.05 0.57 2.34 0.48 3.3-0.22l30.62-20.2c1.06-0.7 1.58-2 1.35-3.25l-8.39-42.14c-0.26-1.25-1-2.36-2.06-3.06l-16.9-12.13-1.6-12.2c-0.25-1.99-0.98-3.9-2.16-5.54l-8.15-12.03-14.41-41.91c-0.64-2.04-2.21-3.68-4.28-4.43l-17.53-5.81c-1.15-0.46-2.44-0.6-3.69-0.38l-10.58 1.85-2.15-5.46c-0.45-1.24-1.64-2.12-3.03-2.23l-20.21-1.32c-1.15-0.1-2.27 0.31-3.11 1.1l-29.6 26.23c-1.29 1.18-2.12 2.86-2.23 4.66l-2.8 50.4-13.95 12.8c-1.02 0.97-1.75 2.26-2.06 3.71l-4.1 21.41c-0.18 0.66 0.31 1.23 1.21 1.78z" fill="url(#paint0_linear_1206_12022)" stroke="#1D2124" stroke-miterlimit="10" stroke-width=".7087"/>
  <path d="m158.1 99.39 16.89 12.62c0.93 0.65 1.62 1.67 1.87 2.82l1.54 10.47-8.11 8.81-6.22 3.27-3.95 0.49-3.02 2.88-4.6 36.52-13.71-7.03-0.79-19.93-6.4 14.48-7.07 12.48-6.01 2.68 10.61-15.54-2.91 3.37 9.8-17.57 2.77-6.4c1.65-3.55 1.97-7.53 0.94-11.29l1.39-3.51 3.52-8.6 6.4-7.29 7.06-13.73z" fill="url(#paint1_linear_1206_12022)" stroke="#1D2124" stroke-miterlimit="10" stroke-width=".7087"/>
  <path d="m143.1 131 12.03 5.72c0.88 0.44 1.43 1.37 1.43 2.41l-1.41 12.88-1.06 13.17-3.94-1.02-3.51-6.96-3.54-26.2z" fill="url(#paint2_linear_1206_12022)" stroke="#1D2124" stroke-miterlimit="10" stroke-width=".7087"/>
  <path d="m159.3 135 3.78-0.01 10.11-6.96 3.68-3.27-3.13-11.11-15.66-14.22 2.02 0.77-9.94 16.27-4.94 5.68-2.11 8.92 9.72 3.93h6.47z" fill="url(#paint3_linear_1206_12022)" stroke="#1D2124" stroke-miterlimit="10" stroke-width=".7087"/>
  <path d="m14.78 130.6 13.34 35.13 12.95-0.98 6.64-14.31-0.7-5.28 1.91-2.58-7.81-0.47-6.97-2.27-3.01-0.79-14.72-10.21-1.63 1.76z" fill="url(#paint4_linear_1206_12022)" stroke="#1D2124" stroke-miterlimit="10" stroke-width=".7087"/>
  <path d="m21.67 105.6-4.95 21.41 0.99 1.71 13.2 10.16 4.55-6.11-2.08 6.11 1.33 3.45 6-0.5 6.3 2.8 6.38-5.28 3.8-5.06-2.01-18.98-7.17-10.04-9.07 2.66-17.27-2.33z" fill="url(#paint5_linear_1206_12022)" stroke="#1D2124" stroke-miterlimit="10" stroke-width=".7087"/>
  <path d="m35.11 92.14-10.12 10.98 2.08 2.54 7.61 2.25h9.4l2.93-2.66-11.9-13.11z" fill="url(#paint6_linear_1206_12022)" stroke="#1D2124" stroke-miterlimit="10" stroke-width=".7087"/>
  <path d="m40.96 37.34 29.17-24.97 22.93-0.04 2.25 5.78-2.25 2.1 16.08-2.69 19.67 6.4-11.2 9.74-3.42 4.97-19.68 7.38-34.31 5.73-2.25-2.63 4.73-1.67-9.19 0.38-12.53-10.48z" fill="url(#paint7_linear_1206_12022)" stroke="#1D2124" stroke-miterlimit="10" stroke-width=".7087"/>
  <path d="m41.07 42.1 14.11 15.61 1.63 3.35 0.9 23.78 4.97 14.39-0.27 9.83 4.43 6.7 14.77-0.11 8.95-4.58-8.28 4.44-15.66-0.42-4.35-6.1-3.16-16.92-1.4-31.37-0.9-4.29-13.88-11.63-1.86-2.68z" fill="url(#paint8_linear_1206_12022)" stroke="#1D2124" stroke-miterlimit="10" stroke-width=".7087"/>
  <path d="m131.7 24.75 14.53 42.47 10.08 16.19 1.78 15.98-2.38 7.39-5.54 9.65-5.91 6.49-3.52 5.1-1.79-18.96 1.33-16.92 10.73-8.73-11.73 6.96-4.04-2.76-4.33-5.38-3.69 3.23-1.91 4.49 3.81-12.91 7.27-27.93-4.69-24.36z" fill="url(#paint9_linear_1206_12022)" stroke="#1D2124" stroke-miterlimit="10" stroke-width=".7087"/>
  <path d="m48.01 163.9 1.41 7.29 28.77 11.7 15.59 6 22.93-9.3 11.78-5.1 8.76-4.27 0.41-11.33-0.87-8.6-9.01 19.93-6.4 8-25.27 8.47-3.94-2.35-12.03-0.84-32.13-19.6z" fill="url(#paint10_linear_1206_12022)" stroke="#1D2124" stroke-miterlimit="10" stroke-width=".7087"/>
  <path d="m50.22 144.7-2.66 15 0.45 8 1.7 3.5 27.5 10.43-1.8-14.56-5.28-13.88-10.12-9.12-6.93-1.89-2.86 2.52z" fill="url(#paint11_linear_1206_12022)" stroke="#1D2124" stroke-miterlimit="10" stroke-width=".7087"/>
  <path d="m53.08 140.8 7.33-2.71 5.71-1.43 13.07 1.3-12.93-2.59-6.4 0.69-6.78 2.9v1.84z" fill="url(#paint12_linear_1206_12022)" stroke="#1D2124" stroke-miterlimit="10" stroke-width=".7087"/>
  <path d="m115.2 110.1 6.3-1.35 13.72 0.7 0.96 1.7-5.59 15-1.1 9.8-6.4 17.7-16.4 12.8-12.2 15.7-3.8 0.8-9.2-19.8-0.5-8 2.4-1.8 35.1-16.7 6.4-6.4 10.33-19.1-10.15-1.4-9.87 0.35z" fill="url(#paint13_linear_1206_12022)" stroke="#1D2124" stroke-miterlimit="10" stroke-width=".7087"/>
  <path d="m143.1 131 13.19 5.18 2.9 0.91 4.7-1.31 14-10.6 0.48 0.09-3.68 4.41-10.4 7.9-5.1 1.3-5.1 15.2-0.85 10.6-0.77 0.5 3.82-23.1-0.9-5-12.29-6.08z" fill="#003865" stroke="#1D2124" stroke-miterlimit="10" stroke-width=".7087"/>
  <path d="m163.9 164.7 6.37-14.5 4.43-9.46-3.93 4.37-5.12 11.05-1.75 8.54z" fill="url(#paint14_linear_1206_12022)" stroke="#1D2124" stroke-miterlimit="10" stroke-width=".7087"/>
  <path d="m23.6 106.4 8.41 1.89 2.67 1.8 1.03 6.5 3.5 9.4 0.7 7.9-1.2 8.2-4-1.36-1.33-3.64 0.76-4.1-2.13 4.1-0.88 1.9-1.52-0.97 2.7-0.83-14.39-10.7 3.75-19.3 1.93-0.79z" fill="url(#paint15_linear_1206_12022)" stroke="#1D2124" stroke-miterlimit="10" stroke-width=".7087"/>
  <path d="m36.41 109.7 7.4-1.6 4.2 0.6 5.07 5.1 1.83 4.6-2.1-2.7-3.89-4.8-4.21-2.8-8.3 1.6z" fill="#5F666D" stroke="#1D2124" stroke-miterlimit="10" stroke-width=".7087"/>
  <path d="m120.1 34.21 9.6-10.3-5.1 12.9 0.7 8.4 1.25 3.9-2.65 10.2 0.9 8.7 3 5.7 0.5 6-1.8-5.3-3.5-7.3-3.9-28 1-4.9z" fill="url(#paint16_linear_1206_12022)" stroke="#1D2124" stroke-miterlimit="10" stroke-width=".7087"/>
  <path d="m129.6 83.61 6.1 7.2 3.6 0.4-2.1 17.9 2.1 14.8-3.3-12.5 1.9-19.3-4.2-2.7-3.9-4.7-4 9-8.5 9.2-4.9 9-4.5 1.2 8-15 8-7.8 5.7-6.7z" fill="url(#paint17_linear_1206_12022)" stroke="#1D2124" stroke-miterlimit="10" stroke-width=".7087"/>
  <path d="m95.31 18.11-8.3 7.9 8.8-4.9 12.8-3 17.4 5.8-9.1 8.8-2.1 4.6-20.1 8.8 14.9-7.2 7.3-2.6 3-4.2 8.8-8.5-18.8-6.1-14.6 0.6z" fill="url(#paint18_linear_1206_12022)" stroke="#1D2124" stroke-miterlimit="10" stroke-width=".7087"/>
  <path d="m95.31 56.41-22 14.4-3.2 9 0.6 12.8 1.4-10.4 2-10 14.4-9.3 6.8-6.5z" fill="url(#paint19_linear_1206_12022)" stroke="#1D2124" stroke-miterlimit="10" stroke-width=".7087"/>
  <path d="m136 67.11-6 7.8-2.2 8 1.8-0.7 2.7-6 3.7-9.1z" fill="url(#paint20_linear_1206_12022)" stroke="#1D2124" stroke-miterlimit="10" stroke-width=".7087"/>
  <path d="m129.6 97.11-2.5 5.5-0.1 2.5 2.9-6-0.3-2z" fill="url(#paint21_linear_1206_12022)" stroke="#1D2124" stroke-miterlimit="10" stroke-width=".7087"/>
  <path d="m123.9 67.11-3.1 7.6-4.8 6.9 5.7-6.6 2.2-7.9z" fill="url(#paint22_linear_1206_12022)" stroke="#1D2124" stroke-miterlimit="10" stroke-width=".7087"/>
  <path d="m52.11 91.01 1.1 5.4 3.7 6.5 0.7 5.2-1.1 9 1.8-2.1 1.5-12.1-2.6-6.1-5.1-5.8z" fill="url(#paint23_linear_1206_12022)" stroke="#1D2124" stroke-miterlimit="10" stroke-width=".7087"/>
  <path d="m43.21 60.21 0.4 8.9 4.3 3.6-0.9-3.6-3.8-8.9z" fill="url(#paint24_linear_1206_12022)" stroke="#1D2124" stroke-miterlimit="10" stroke-width=".7087"/>
  <path d="m47.61 72.71 0.6 7" stroke="#1D2124" stroke-miterlimit="10" stroke-width=".7087"/>
  <path d="m56.81 116.9 0.4 17.3 0.9-1-1-17.6-0.3 1.3z" fill="url(#paint25_linear_1206_12022)" stroke="#1D2124" stroke-miterlimit="10" stroke-width=".7087"/>
  <path d="m92.17 180-11.76-22.84-1.6-0.5-12.7-9.5 13.8 8.4 3 10.9 9.26 13.54z" fill="url(#paint26_linear_1206_12022)" stroke="#1D2124" stroke-miterlimit="10" stroke-width=".7087"/>
  <path d="m75.41 167.1 2.5 4.73 0.9 9.83-1.6 0.97-1.8-15.53z" fill="url(#paint27_linear_1206_12022)" stroke="#1D2124" stroke-miterlimit="10" stroke-width=".7087"/>
  <path d="m95.11 142.9-6.4 0.9-4.3 2.9 2.1-2.7 3.3-1.3 5.3 0.2z" fill="url(#paint28_linear_1206_12022)" stroke="#1D2124" stroke-miterlimit="10" stroke-width=".7087"/>
  <path d="m56.01 34.81 9-2.2h6.4l-4.7 1.6-10.7 0.6z" fill="url(#paint29_linear_1206_12022)" stroke="#1D2124" stroke-miterlimit="10" stroke-width=".7087"/>
  <path d="m86.91 32.11 1.1 2.1" stroke="#67737A" stroke-miterlimit="10" stroke-width=".7087"/>
  <path d="m89.11 31.81 0.5 2.7" stroke="#67737A" stroke-miterlimit="10" stroke-width=".7087"/>
  <path d="m92.11 31.41 0.5 3.3" stroke="#67737A" stroke-miterlimit="10" stroke-width=".7087"/>
  <path d="m96.31 123.1 7.6 1.5 8.8 2.3h9l5.6-0.9 1-1.4-5.2 1.4-9.5 0.1-17.3-3z" fill="url(#paint30_linear_1206_12022)" stroke="#1D2124" stroke-miterlimit="10" stroke-width=".7087"/>
  <defs>
    <linearGradient id="paint0_linear_1206_12022" x1="99.98" x2="99.98" y1="8.417" y2="190.3" gradientUnits="userSpaceOnUse">
      <stop stop-color="#999DA1" offset="0"/>
      <stop stop-color="#52606E" offset="1"/>
    </linearGradient>
    <linearGradient id="paint1_linear_1206_12022" x1="155.9" x2="155.9" y1="99.39" y2="177.8" gradientUnits="userSpaceOnUse">
      <stop stop-color="#B1B4B6" offset="0"/>
      <stop stop-color="#757B82" offset="1"/>
    </linearGradient>
    <linearGradient id="paint2_linear_1206_12022" x1="150.9" x2="150.9" y1="131" y2="165.2" gradientUnits="userSpaceOnUse">
      <stop stop-color="#646F7A" offset="0"/>
      <stop stop-color="#415362" offset="1"/>
    </linearGradient>
    <linearGradient id="paint3_linear_1206_12022" x1="160" x2="160" y1="99.39" y2="135" gradientUnits="userSpaceOnUse">
      <stop stop-color="#B1B4B6" offset="0"/>
      <stop stop-color="#757B82" offset="1"/>
    </linearGradient>
    <linearGradient id="paint4_linear_1206_12022" x1="31.53" x2="31.53" y1="128.8" y2="166" gradientUnits="userSpaceOnUse">
      <stop stop-color="#646F7A" offset="0"/>
      <stop stop-color="#415362" offset="1"/>
    </linearGradient>
    <linearGradient id="paint5_linear_1206_12022" x1="36.4" x2="36.4" y1="105.2" y2="144.6" gradientUnits="userSpaceOnUse">
      <stop stop-color="#999DA1" offset="0"/>
      <stop stop-color="#656C73" offset="1"/>
    </linearGradient>
    <linearGradient id="paint6_linear_1206_12022" x1="36" x2="36" y1="92.14" y2="107.9" gradientUnits="userSpaceOnUse">
      <stop stop-color="#B1B4B6" offset="0"/>
      <stop stop-color="#757B82" offset="1"/>
    </linearGradient>
    <linearGradient id="paint7_linear_1206_12022" x1="84.89" x2="84.89" y1="12.33" y2="47.87" gradientUnits="userSpaceOnUse">
      <stop stop-color="#B1B4B6" offset="0"/>
      <stop stop-color="#757B82" offset="1"/>
    </linearGradient>
    <linearGradient id="paint8_linear_1206_12022" x1="66.04" x2="66.04" y1="42.1" y2="115.8" gradientUnits="userSpaceOnUse">
      <stop stop-color="#999DA1" offset="0"/>
      <stop stop-color="#52606E" offset="1"/>
    </linearGradient>
    <linearGradient id="paint9_linear_1206_12022" x1="142.6" x2="142.6" y1="24.75" y2="128" gradientUnits="userSpaceOnUse">
      <stop stop-color="#6D767C" offset="0"/>
      <stop stop-color="#515D68" offset="1"/>
    </linearGradient>
    <linearGradient id="paint10_linear_1206_12022" x1="92.63" x2="92.63" y1="150.3" y2="188.9" gradientUnits="userSpaceOnUse">
      <stop stop-color="#566370" offset="0"/>
      <stop stop-color="#33495B" offset="1"/>
    </linearGradient>
    <linearGradient id="paint11_linear_1206_12022" x1="62.79" x2="62.79" y1="142.2" y2="171.2" gradientUnits="userSpaceOnUse">
      <stop stop-color="#566370" offset="0"/>
      <stop stop-color="#33495B" offset="1"/>
    </linearGradient>
    <linearGradient id="paint12_linear_1206_12022" x1="66.14" x2="66.14" y1="135.2" y2="138.4" gradientUnits="userSpaceOnUse">
      <stop stop-color="#757B82" offset="0"/>
      <stop stop-color="#525A61" offset="1"/>
    </linearGradient>
    <linearGradient id="paint13_linear_1206_12022" x1="111.6" x2="111.6" y1="108.7" y2="183.1" gradientUnits="userSpaceOnUse">
      <stop stop-color="#999DA1" offset="0"/>
      <stop stop-color="#52606E" offset="1"/>
    </linearGradient>
    <linearGradient id="paint14_linear_1206_12022" x1="169.3" x2="169.3" y1="140.8" y2="164.7" gradientUnits="userSpaceOnUse">
      <stop stop-color="#646F7A" offset="0"/>
      <stop stop-color="#415362" offset="1"/>
    </linearGradient>
    <linearGradient id="paint15_linear_1206_12022" x1="28.6" x2="28.6" y1="106.4" y2="142.1" gradientUnits="userSpaceOnUse">
      <stop stop-color="#999DA1" offset="0"/>
      <stop stop-color="#656C73" offset="1"/>
    </linearGradient>
    <linearGradient id="paint16_linear_1206_12022" x1="123.4" x2="123.4" y1="23.91" y2="79.71" gradientUnits="userSpaceOnUse">
      <stop stop-color="#C5FEFF" offset="0"/>
      <stop stop-color="#58B1DE" offset="1"/>
    </linearGradient>
    <linearGradient id="paint17_linear_1206_12022" x1="123.1" x2="123.1" y1="82.21" y2="123.9" gradientUnits="userSpaceOnUse">
      <stop stop-color="#C5FEFF" offset="0"/>
      <stop stop-color="#58B1DE" offset="1"/>
    </linearGradient>
    <linearGradient id="paint18_linear_1206_12022" x1="107.9" x2="107.9" y1="17.51" y2="46.11" gradientUnits="userSpaceOnUse">
      <stop stop-color="#C5FEFF" offset="0"/>
      <stop stop-color="#58B1DE" stop-opacity=".25" offset="1"/>
    </linearGradient>
    <linearGradient id="paint19_linear_1206_12022" x1="82.71" x2="82.71" y1="56.41" y2="92.61" gradientUnits="userSpaceOnUse">
      <stop stop-color="#626B72" offset="0"/>
      <stop stop-color="#565D62" offset="1"/>
    </linearGradient>
    <linearGradient id="paint20_linear_1206_12022" x1="131.9" x2="131.9" y1="67.11" y2="82.91" gradientUnits="userSpaceOnUse">
      <stop stop-color="#626B72" offset="0"/>
      <stop stop-color="#565D62" offset="1"/>
    </linearGradient>
    <linearGradient id="paint21_linear_1206_12022" x1="128.5" x2="128.5" y1="97.11" y2="105.1" gradientUnits="userSpaceOnUse">
      <stop stop-color="#626B72" offset="0"/>
      <stop stop-color="#565D62" offset="1"/>
    </linearGradient>
    <linearGradient id="paint22_linear_1206_12022" x1="120" x2="120" y1="67.11" y2="81.61" gradientUnits="userSpaceOnUse">
      <stop stop-color="#626B72" offset="0"/>
      <stop stop-color="#565D62" offset="1"/>
    </linearGradient>
    <linearGradient id="paint23_linear_1206_12022" x1="55.96" x2="55.96" y1="91.01" y2="117.1" gradientUnits="userSpaceOnUse">
      <stop stop-color="#626B72" offset="0"/>
      <stop stop-color="#565D62" offset="1"/>
    </linearGradient>
    <linearGradient id="paint24_linear_1206_12022" x1="45.56" x2="45.56" y1="60.21" y2="72.71" gradientUnits="userSpaceOnUse">
      <stop stop-color="#626B72" offset="0"/>
      <stop stop-color="#565D62" offset="1"/>
    </linearGradient>
    <linearGradient id="paint25_linear_1206_12022" x1="57.46" x2="57.46" y1="115.6" y2="134.2" gradientUnits="userSpaceOnUse">
      <stop stop-color="#626B72" offset="0"/>
      <stop stop-color="#565D62" offset="1"/>
    </linearGradient>
    <linearGradient id="paint26_linear_1206_12022" x1="79.14" x2="79.14" y1="147.1" y2="180" gradientUnits="userSpaceOnUse">
      <stop stop-color="#C5FEFF" offset="0"/>
      <stop stop-color="#58B1DE" offset="1"/>
    </linearGradient>
    <linearGradient id="paint27_linear_1206_12022" x1="77.11" x2="77.11" y1="167.1" y2="182.6" gradientUnits="userSpaceOnUse">
      <stop stop-color="#566370" offset="0"/>
      <stop stop-color="#2F4355" offset="1"/>
    </linearGradient>
    <linearGradient id="paint28_linear_1206_12022" x1="89.76" x2="89.76" y1="142.6" y2="146.7" gradientUnits="userSpaceOnUse">
      <stop stop-color="#646F7A" offset="0"/>
      <stop stop-color="#415362" offset="1"/>
    </linearGradient>
    <linearGradient id="paint29_linear_1206_12022" x1="63.71" x2="63.71" y1="32.11" y2="34.21" gradientUnits="userSpaceOnUse">
      <stop stop-color="#646F7A" offset="0"/>
      <stop stop-color="#415362" offset="1"/>
    </linearGradient>
    <linearGradient id="paint30_linear_1206_12022" x1="112.3" x2="112.3" y1="123.1" y2="127.1" gradientUnits="userSpaceOnUse">
      <stop stop-color="#757B82" offset="0"/>
      <stop stop-color="#525A61" offset="1"/>
    </linearGradient>
  </defs>
</svg>