<svg xmlns="http://www.w3.org/2000/svg" width="250" height="250" fill="none" viewBox="0 0 250 250">
<!-- SVG created with Arrow, by QuiverAI (https://quiver.ai) -->
  <path d="m3.11 110 19.69-59.31 34.21-18.54 2.21 5.86 26.57-14.63 6.69 26.19 32.11 12.02 32.92-12.12 6.38-25.59 27.95 13.5 0.22-5.09 34.3 18.86 21.35 58.85-52-20.13-7.51-12.78 8.55 28.9-2.14 3.12 7.45 22.56-14.95 36.57-1.55 1.38 3.56 33.66-37.31 21.53h-54.65l-37.06-21.53 3.69-34.38-1.72-1.86-14.9-35.42 7.76-22.84-2.74-2.9 8.66-21.41-6.49 5.4-51.25 20.13z" fill="url(#paint0_radial_302_2138)"/>
  <path d="m22.8 50.72 34.21-18.54 2.21 5.86 26.57-14.63 6.52 26.19 32.28 12.02 32.92-12.12 6.38-25.59 27.95 13.5 0.81-5.26 33.71 19.03 21.35 58.85-52-20.13-7.76-14.69 8.8 30.81-2.14 3.12 7.45 22.56-14.95 36.57-1.55 1.38 3.56 33.66-37.31 21.53h-54.65l-37.06-21.53 3.69-34.38-1.72-1.86-14.9-35.42 7.76-22.84-2.74-2.9 9.88-42.4-7.71-25.47-29.34 15.71-21.91 56.28 51.25-20.13 7.71-16.48" stroke="url(#paint1_linear_302_2138)" stroke-miterlimit="10" stroke-width="4.201"/>
  <path d="m124.6 85.38 33.31-29.82 22.82 5.52 7.39-21.99" stroke="url(#paint2_linear_302_2138)" stroke-linecap="round" stroke-miterlimit="10" stroke-width="3.151"/>
  <path d="m124.6 85.38-32.67-27.42-23.43 6.35-7.76-22.06" stroke="url(#paint3_linear_302_2138)" stroke-linecap="round" stroke-miterlimit="10" stroke-width="3.151"/>
  <path d="m182.6 63.71 10.86-25.45 30.1 15.72 17.35 48.22-43.39-15.72-14.92-22.77z" fill="url(#paint4_linear_302_2138)"/>
  <path d="m53.98 38.12-27.85 15.12-16.72 47.91 40.5-15.12 12.01-22.76-7.94-25.15z" fill="url(#paint5_linear_302_2138)"/>
  <path d="m166.3 30.31-6.31 23.3-0.74 0.21 19.69 5.52 6.38-19.1-19.02-9.93z" fill="url(#paint6_linear_302_2138)"/>
  <path d="m83.41 30.01-19.93 10.33 6.63 19.92 18.51-5.89-5.21-24.36z" fill="url(#paint7_linear_302_2138)"/>
  <path d="m125.1 86.01 32.78-25.25 20.31 5.52 14.77 40.13-21.91 23.2-44.08-11.8-1.87-0.2v-31.6z" fill="url(#paint8_linear_302_2138)"/>
  <path d="m56.7 105.8 14.22-39.53 20.31-5.12 30.4 24.85v31.8l-44.09 12.94-20.84-24.94z" fill="url(#paint9_linear_302_2138)"/>
  <path d="m52.19 131.3 4.77-17.07 17.95 20.47v17.07l-11.22 12.29-11.5-32.76z" fill="url(#paint10_linear_302_2138)"/>
  <path d="m175.7 135 16.68-19.53 5.76 15.83-12.78 31.65-9.66-12.2v-15.75z" fill="url(#paint11_linear_302_2138)"/>
  <path d="m80.15 135.5 40.96-14.13-42.1 26.9 1.14-12.77z" fill="url(#paint12_linear_302_2138)"/>
  <path d="m146.6 129.4 22.82 6.35v10.1l-22.82-16.45z" fill="url(#paint13_linear_302_2138)"/>
  <path d="m79.58 154.3 44.64-30.67 45.53 30.11-6.69 26.9-39.15-26.34-36.72 26.91-7.61-26.91z" fill="url(#paint14_linear_302_2138)"/>
  <path d="m65.23 164.7 9.66-8.56 5.02 21.53-11.86-7.64-2.82-5.33z" fill="url(#paint15_linear_302_2138)"/>
  <path d="m173.9 159 9.09 8.56-12.78 10.1 3.69-18.66z" fill="url(#paint16_linear_302_2138)"/>
  <path d="m64.32 200.6 2.14-24.85 16.02 12.2 9.09 29.05-27.25-16.4z" fill="url(#paint17_linear_302_2138)"/>
  <path d="m167.4 188.5 16.26-11.49 1.67 24.1-26.42 14.69 8.49-27.3z" fill="url(#paint18_linear_302_2138)"/>
  <path d="m88.32 187.9 36.15-25.12 37.01 25.12-12.78 33.37h-49.41l-10.97-33.37z" fill="url(#paint19_linear_302_2138)"/>
  <path d="m66.71 172.9 18.2 13.13 10.61 34.28" stroke="url(#paint20_linear_302_2138)" stroke-linecap="round" stroke-miterlimit="10" stroke-width="2.521"/>
  <path d="m182.7 172.9-17.59 14.44-12.41 32.37" stroke="url(#paint21_linear_302_2138)" stroke-linecap="round" stroke-miterlimit="10" stroke-width="2.521"/>
  <path d="m124.5 158.1 40.26 28.48" stroke="url(#paint22_linear_302_2138)" stroke-linecap="round" stroke-miterlimit="10" stroke-width="3.151"/>
  <path d="m58.01 112.9 18.05 20.94-0.25 19.15-11.63 12.52" stroke="url(#paint23_linear_302_2138)" stroke-linecap="round" stroke-miterlimit="10" stroke-width="2.521"/>
  <path d="m191 112.6-18.35 21.24v18.52l12.06 13.43" stroke="url(#paint24_linear_302_2138)" stroke-linecap="round" stroke-miterlimit="10" stroke-width="4.201"/>
  <defs>
    <radialGradient id="paint0_radial_302_2138" cx="0" cy="0" r="1" gradientTransform="translate(125.4 119.8) scale(138 137.5)" gradientUnits="userSpaceOnUse">
      <stop stop-color="#4F52FF" offset="0"/>
      <stop stop-color="#4B69FE" offset=".1366"/>
      <stop stop-color="#429FFB" offset=".4416"/>
      <stop stop-color="#34F7F7" offset=".9099"/>
      <stop stop-color="#31FFFF" offset="1"/>
    </radialGradient>
    <linearGradient id="paint1_linear_302_2138" x1="3.106" x2="247.7" y1="124.1" y2="124.1" gradientUnits="userSpaceOnUse">
      <stop stop-color="#31D3FF" offset="0"/>
      <stop stop-color="#9900E6" offset="1"/>
    </linearGradient>
    <linearGradient id="paint2_linear_302_2138" x1="123.7" x2="189" y1="52.24" y2="52.24" gradientUnits="userSpaceOnUse">
      <stop stop-color="#31FFFF" offset="0"/>
      <stop stop-color="#D959F8" offset="1"/>
    </linearGradient>
    <linearGradient id="paint3_linear_302_2138" x1="59.83" x2="125.5" y1="53.79" y2="53.79" gradientUnits="userSpaceOnUse">
      <stop stop-color="#31FFFF" offset="0"/>
      <stop stop-color="#D959F8" offset="1"/>
    </linearGradient>
    <linearGradient id="paint4_linear_302_2138" x1="182.6" x2="240.9" y1="70.23" y2="70.23" gradientUnits="userSpaceOnUse">
      <stop stop-color="#00D0DB" offset="0"/>
      <stop stop-color="#00D0DB" offset="1"/>
    </linearGradient>
    <linearGradient id="paint5_linear_302_2138" x1="9.406" x2="62.07" y1="69.63" y2="69.63" gradientUnits="userSpaceOnUse">
      <stop stop-color="#00D0DB" offset="0"/>
      <stop stop-color="#00D0DB" offset="1"/>
    </linearGradient>
    <linearGradient id="paint6_linear_302_2138" x1="159.3" x2="185.3" y1="44.82" y2="44.82" gradientUnits="userSpaceOnUse">
      <stop stop-color="#00D0DB" offset="0"/>
      <stop stop-color="#00D0DB" offset="1"/>
    </linearGradient>
    <linearGradient id="paint7_linear_302_2138" x1="63.48" x2="88.62" y1="45.13" y2="45.13" gradientUnits="userSpaceOnUse">
      <stop stop-color="#00D0DB" offset="0"/>
      <stop stop-color="#00D0DB" offset="1"/>
    </linearGradient>
    <linearGradient id="paint8_linear_302_2138" x1="125.1" x2="193" y1="95.18" y2="95.18" gradientUnits="userSpaceOnUse">
      <stop stop-color="#00D0DB" offset="0"/>
      <stop stop-color="#00D0DB" offset="1"/>
    </linearGradient>
    <linearGradient id="paint9_linear_302_2138" x1="56.7" x2="121.6" y1="95.95" y2="95.95" gradientUnits="userSpaceOnUse">
      <stop stop-color="#00D0DB" offset="0"/>
      <stop stop-color="#00D0DB" offset="1"/>
    </linearGradient>
    <linearGradient id="paint10_linear_302_2138" x1="52.19" x2="74.91" y1="139.2" y2="139.2" gradientUnits="userSpaceOnUse">
      <stop stop-color="#00D0DB" offset="0"/>
      <stop stop-color="#00D0DB" offset="1"/>
    </linearGradient>
    <linearGradient id="paint11_linear_302_2138" x1="175.7" x2="198.1" y1="139.2" y2="139.2" gradientUnits="userSpaceOnUse">
      <stop stop-color="#00D0DB" offset="0"/>
      <stop stop-color="#00D0DB" offset="1"/>
    </linearGradient>
    <linearGradient id="paint12_linear_302_2138" x1="79.01" x2="121.1" y1="134.8" y2="134.8" gradientUnits="userSpaceOnUse">
      <stop stop-color="#00D0DB" offset="0"/>
      <stop stop-color="#00D0DB" offset="1"/>
    </linearGradient>
    <linearGradient id="paint13_linear_302_2138" x1="146.6" x2="169.4" y1="137.6" y2="137.6" gradientUnits="userSpaceOnUse">
      <stop stop-color="#00D0DB" offset="0"/>
      <stop stop-color="#00D0DB" offset="1"/>
    </linearGradient>
    <linearGradient id="paint14_linear_302_2138" x1="79.58" x2="169.8" y1="152.4" y2="152.4" gradientUnits="userSpaceOnUse">
      <stop stop-color="#00D0DB" offset="0"/>
      <stop stop-color="#00D0DB" offset="1"/>
    </linearGradient>
    <linearGradient id="paint15_linear_302_2138" x1="65.23" x2="79.91" y1="166.9" y2="166.9" gradientUnits="userSpaceOnUse">
      <stop stop-color="#00D0DB" offset="0"/>
      <stop stop-color="#00D0DB" offset="1"/>
    </linearGradient>
    <linearGradient id="paint16_linear_302_2138" x1="170.2" x2="183" y1="168.3" y2="168.3" gradientUnits="userSpaceOnUse">
      <stop stop-color="#00D0DB" offset="0"/>
      <stop stop-color="#00D0DB" offset="1"/>
    </linearGradient>
    <linearGradient id="paint17_linear_302_2138" x1="64.32" x2="91.57" y1="196.4" y2="196.4" gradientUnits="userSpaceOnUse">
      <stop stop-color="#00D0DB" offset="0"/>
      <stop stop-color="#00D0DB" offset="1"/>
    </linearGradient>
    <linearGradient id="paint18_linear_302_2138" x1="158.9" x2="185.3" y1="196.4" y2="196.4" gradientUnits="userSpaceOnUse">
      <stop stop-color="#00D0DB" offset="0"/>
      <stop stop-color="#00D0DB" offset="1"/>
    </linearGradient>
    <linearGradient id="paint19_linear_302_2138" x1="88.32" x2="161.5" y1="192.1" y2="192.1" gradientUnits="userSpaceOnUse">
      <stop stop-color="#00D0DB" offset="0"/>
      <stop stop-color="#00D0DB" offset="1"/>
    </linearGradient>
    <linearGradient id="paint20_linear_302_2138" x1="65.69" x2="96.54" y1="196.6" y2="196.6" gradientUnits="userSpaceOnUse">
      <stop stop-color="#31FFFF" offset="0"/>
      <stop stop-color="#F8D9FF" offset="1"/>
    </linearGradient>
    <linearGradient id="paint21_linear_302_2138" x1="151.7" x2="183.7" y1="195.8" y2="195.8" gradientUnits="userSpaceOnUse">
      <stop stop-color="#F8D9FF" offset="0"/>
      <stop stop-color="#FF68F8" offset="1"/>
    </linearGradient>
    <linearGradient id="paint22_linear_302_2138" x1="123.4" x2="165.7" y1="172.3" y2="172.3" gradientUnits="userSpaceOnUse">
      <stop stop-color="#F8D9FF" offset="0"/>
      <stop stop-color="#FF68F8" offset="1"/>
    </linearGradient>
    <linearGradient id="paint23_linear_302_2138" x1="56.99" x2="77.06" y1="139.2" y2="139.2" gradientUnits="userSpaceOnUse">
      <stop stop-color="#31FFFF" offset="0"/>
      <stop stop-color="#F8D9FF" offset="1"/>
    </linearGradient>
    <linearGradient id="paint24_linear_302_2138" x1="171.7" x2="193" y1="139.2" y2="139.2" gradientUnits="userSpaceOnUse">
      <stop stop-color="#F8D9FF" offset="0"/>
      <stop stop-color="#FF68F8" offset="1"/>
    </linearGradient>
  </defs>
</svg>