<svg xmlns="http://www.w3.org/2000/svg" width="250" height="250" fill="none" viewBox="0 0 250 250">
<!-- SVG created with Arrow, by QuiverAI (https://quiver.ai) -->
  <path d="m167.7 214.5h-85.44l-15.52 23.34h116.5l-15.52-23.34z" fill="#DEB41D"/>
  <path d="m167.7 214.5h-42.72v23.34h58.24l-15.52-23.34z" fill="#B38901"/>
  <path d="m239.9 29.8h-40.14l-2.82 14.75-0.64 7.33h23.15l-10.47 40.73-21 18.71-2.94 21.44 37.37-31.84 24.35-66.89 0.4-1.63-0.26 0.03 0.73-2.63h-7.73z" fill="#DEB41D"/>
  <path d="m233.4 41.28-35.28 0.07-1.89 10.53h23.15l-10.47 40.73-21 18.71-2.15 15.41 30.01-30.34 17.63-55.11z" fill="#B38901"/>
  <path d="m10.12 29.8h39.54l2.82 14.75 0.44 7.33h-23.15l10.47 40.73 21.57 18.23 3.37 22.09-39.01-32.01-22.48-70.5 0.17-0.62h6.26z" fill="#DEB41D"/>
  <path d="m16.18 41.28 35.28 0.07 1.46 10.53h-23.15l4.37 17.86 0.25 0.42 3 9.83 2.85 12.62 22.05 19.12 2.89 21.2-31.37-36.54-17.63-55.11z" fill="#B38901"/>
  <path d="m124.7 12.63h-73.23l18.63 126.7 36.77 30.71v29.42l-6.72 10.88h48.95l-6.73-11.98v-28.32l36.78-30.71 18.31-126.7h-72.76z" fill="url(#paint0_linear_3367_41224)"/>
  <path d="m124.7 12.63v7.53l12.51 36.24 18.49-16.74 0.25-27.03h41.03l-17.83 126.7-36.78 30.71v28.32l6.73 11.98h-24.4v-197.7z" fill="url(#paint1_linear_3367_41224)"/>
  <path d="m198 116.2v21.8c-2.12 0.69-2.94 2.44-2.94 4.02 0 2.8 2.05 4.55 4.55 4.55 2.82 0 4.47-2.2 4.47-4.55 0-2.09-1.37-3.62-3.14-4.3v-23.58l-2.94 2.06z" fill="url(#paint2_linear_3367_41224)" opacity=".3"/>
  <path d="m52.88 116.6v21.07c1.84 0.77 2.83 2.42 2.83 4.11 0 2.8-2.05 4.55-4.55 4.55-2.82 0-4.47-2.2-4.47-4.55 0-1.97 1.22-3.44 2.86-4.18v-22.31l3.33 1.31z" fill="url(#paint3_linear_3367_41224)" opacity=".3"/>
  <path d="m54.72 122.8 0.1 23.19 42.25 37.44v5.48 1.16c-1.35 0.95-2.08 2.35-2.08 3.96 0 2.8 2.05 4.55 4.55 4.55 2.82 0 4.47-2.2 4.47-4.55 0-1.9-1.18-3.35-2.79-4.14v-17.97l-35.24-31.03v-12.15l-11.26-5.94z" fill="url(#paint4_linear_3367_41224)" opacity=".3"/>
  <path d="m193.6 123.2v23.14l-36.53 32.78v17.97c1.82 0.89 2.75 2.59 2.75 4.28 0 2.8-2.05 4.55-4.55 4.55-2.82 0-4.47-2.2-4.47-4.55 0-1.98 1.22-3.44 2.86-4.18v-20.02l33.29-31.06v-16.63l6.65-6.28z" fill="url(#paint5_linear_3367_41224)" opacity=".3"/>
  <path d="m48.91 118.1v20.7" stroke="url(#paint6_linear_3367_41224)" stroke-miterlimit="10" stroke-width="2.28"/>
  <path d="m54.37 123.2 0.07 22.42 44.79 39.63v5.08" stroke="url(#paint7_linear_3367_41224)" stroke-miterlimit="10" stroke-width="2.28"/>
  <path d="m199.6 118.1v20.7" stroke="url(#paint8_linear_3367_41224)" stroke-miterlimit="10" stroke-width="2.28"/>
  <path d="m192.3 123.2v22.42l-40.92 34.31v10" stroke="url(#paint9_linear_3367_41224)" stroke-miterlimit="10" stroke-width="2.28"/>
  <path d="m92.18 176.5v23.61" stroke="url(#paint10_linear_3367_41224)" stroke-miterlimit="10" stroke-width="2.28"/>
  <path d="m87.74 176.4v11.9l-4.47-4.24v-11.51l4.47 3.85z" fill="url(#paint11_linear_3367_41224)"/>
  <path d="m81.13 170.5v11.15l-4.67-4.37v-10.79l4.67 4.01z" fill="url(#paint12_linear_3367_41224)"/>
  <path d="m74.75 165.2v10.44l-4.86-3.9v-8.73l4.86 2.19z" fill="url(#paint13_linear_3367_41224)"/>
  <path d="m159.1 176.5v12.36l5.36-5v-11.51l-5.36 4.15z" fill="url(#paint14_linear_3367_41224)"/>
  <path d="m167.2 172.6v10.12l5.05-4.64v-8.97l-5.05 3.49z" fill="url(#paint15_linear_3367_41224)"/>
  <path d="m175.1 166.1v11.03l4.13-7.21v-7.02l-4.13 3.2z" fill="url(#paint16_linear_3367_41224)"/>
  <path d="m49.07 143.3c2.25 0 3.02-1.78 3.02-3.18 0-1.81-1.53-2.85-3.02-2.85-1.71 0-2.78 1.55-2.78 2.85 0 1.66 1.29 3.18 2.78 3.18z" stroke="url(#paint17_linear_3367_41224)" stroke-miterlimit="10" stroke-width="2.28"/>
  <path d="m92.81 204.9c2.24 0 3.01-1.78 3.01-3.18 0-1.81-1.52-2.85-3.01-2.85-1.72 0-2.79 1.55-2.79 2.85 0 1.66 1.29 3.18 2.79 3.18z" stroke="url(#paint18_linear_3367_41224)" stroke-miterlimit="10" stroke-width="2.28"/>
  <path d="m100.3 194.2c2.24 0 3.01-1.78 3.01-3.18 0-1.81-1.52-2.85-3.01-2.85-1.71 0-2.79 1.55-2.79 2.85 0 1.66 1.29 3.18 2.79 3.18z" stroke="url(#paint19_linear_3367_41224)" stroke-miterlimit="10" stroke-width="2.28"/>
  <path d="m156.6 204.9c2.24 0 3.01-1.78 3.01-3.18 0-1.81-1.52-2.85-3.01-2.85-1.72 0-2.79 1.55-2.79 2.85 0 1.66 1.29 3.18 2.79 3.18z" stroke="url(#paint20_linear_3367_41224)" stroke-miterlimit="10" stroke-width="2.28"/>
  <path d="m149.1 194.2c2.24 0 3.01-1.78 3.01-3.18 0-1.81-1.52-2.85-3.01-2.85-1.71 0-2.79 1.55-2.79 2.85 0 1.66 1.29 3.18 2.79 3.18z" stroke="url(#paint21_linear_3367_41224)" stroke-miterlimit="10" stroke-width="2.28"/>
  <path d="m200.3 143.7c2.24 0 3.01-1.78 3.01-3.18 0-1.8-1.52-2.85-3.01-2.85-1.72 0-2.79 1.55-2.79 2.85 0 1.66 1.29 3.18 2.79 3.18z" stroke="url(#paint22_linear_3367_41224)" stroke-miterlimit="10" stroke-width="2.28"/>
  <path d="m124.9 25.52-16.84 39.97-42.28 6.07 32.01 28.61-9.84 42.74 36.64-22.73 37.4 22.54-9.34-41.6 30.96-29.56-40.73-5.54-17.98-40.5z" fill="url(#paint23_radial_3367_41224)" opacity=".3"/>
  <path d="m124.6 27.71-15.69 39.97-42.71 4.05 33.32 27.88-11.24 43.11 36.32-23.74 37.05 23.33-12.09-42.7 33.85-27.88-44.41-4.05-14.4-39.97z" fill="url(#paint24_linear_3367_41224)"/>
  <path d="m124.7 41.61-12.09 31.3-32.56 3 25.19 21.72-8.29 33.27 27.75-19.84 28.16 18.84-9.61-32.27 24.55-20.89-31.31-3.33-11.79-31.8z" fill="url(#paint25_linear_3367_41224)" stroke="url(#paint25_linear_3367_41224)" stroke-miterlimit="10" stroke-width="2.28"/>
  <path d="m115.4 123v22.29" stroke="url(#paint27_linear_3367_41224)" stroke-miterlimit="10" stroke-width="2.28"/>
  <path d="m124.6 119v40.14" stroke="url(#paint28_linear_3367_41224)" stroke-miterlimit="10" stroke-width="2.28"/>
  <path d="m134.4 123.6v21.69" stroke="url(#paint29_linear_3367_41224)" stroke-miterlimit="10" stroke-width="2.28"/>
  <path d="m115.3 151.3c2.25 0 3.02-1.78 3.02-3.18 0-1.81-1.53-2.85-3.02-2.85-1.71 0-2.78 1.55-2.78 2.85 0 1.66 1.29 3.18 2.78 3.18z" stroke="url(#paint30_linear_3367_41224)" stroke-miterlimit="10" stroke-width="2.28"/>
  <path d="m124.3 165.2c2.25 0 3.02-1.78 3.02-3.18 0-1.81-1.53-2.85-3.02-2.85-1.71 0-2.78 1.55-2.78 2.85 0 1.66 1.28 3.18 2.78 3.18z" stroke="url(#paint31_linear_3367_41224)" stroke-miterlimit="10" stroke-width="2.28"/>
  <path d="m134.2 151.3c2.24 0 3.01-1.78 3.01-3.18 0-1.81-1.52-2.85-3.01-2.85-1.72 0-2.79 1.55-2.79 2.85 0 1.66 1.29 3.18 2.79 3.18z" stroke="url(#paint32_linear_3367_41224)" stroke-miterlimit="10" stroke-width="2.28"/>
  <path d="m43.4 73.7c2.24 0.75 3.67-0.93 4.14-2.39 0.62-2-0.8-3.54-2.28-4.04-1.84-0.65-3.47 0.59-3.97 2.08-0.68 2.03 0.31 3.82 2.11 4.35z" stroke="url(#paint33_linear_3367_41224)" stroke-miterlimit="10" stroke-width="2.28"/>
  <path d="m48.21 90.17c2.24 0.75 3.67-0.93 4.14-2.39 0.62-2.01-0.8-3.54-2.28-4.05-1.84-0.64-3.46 0.6-3.96 2.09-0.69 2.03 0.3 3.81 2.1 4.35z" stroke="url(#paint34_linear_3367_41224)" stroke-miterlimit="10" stroke-width="2.28"/>
  <path d="m45.09 72.46 13.61 12.27h11.39l27.73 23.33" stroke="url(#paint35_linear_3367_41224)" stroke-miterlimit="10" stroke-width="2.28"/>
  <path d="m51.63 89.62 3.83 3.71h13.7l26.75 22.9" stroke="url(#paint36_linear_3367_41224)" stroke-miterlimit="10" stroke-width="2.28"/>
  <path d="m207.2 73.7c-2.25 0.75-3.67-0.93-4.14-2.39-0.62-2 0.79-3.54 2.28-4.04 1.84-0.65 3.46 0.59 3.96 2.08 0.69 2.03-0.3 3.82-2.1 4.35z" stroke="url(#paint37_linear_3367_41224)" stroke-miterlimit="10" stroke-width="2.28"/>
  <path d="m201.1 90.17c-2.24 0.75-3.67-0.93-4.14-2.39-0.62-2.01 0.8-3.54 2.29-4.05 1.84-0.64 3.46 0.6 3.96 2.09 0.68 2.03-0.31 3.81-2.11 4.35z" stroke="url(#paint38_linear_3367_41224)" stroke-miterlimit="10" stroke-width="2.28"/>
  <path d="m204.5 72.46-14.29 12.27h-11.39l-26.75 23.33" stroke="url(#paint39_linear_3367_41224)" stroke-miterlimit="10" stroke-width="2.28"/>
  <path d="m199.1 89.62-3.83 3.71h-15.16l-26.75 22.9" stroke="url(#paint40_linear_3367_41224)" stroke-miterlimit="10" stroke-width="2.28"/>
  <path d="m158.4 12.63-0.25 28.1-18.03 20.69" stroke="url(#paint41_linear_3367_41224)" stroke-miterlimit="10" stroke-width="2.28"/>
  <path d="m168.7 12.63v29.85l-23.6 24.55" stroke="url(#paint42_linear_3367_41224)" stroke-miterlimit="10" stroke-width="2.28"/>
  <path d="m176.9 12.63-0.32 34.2-22.53 21.72" stroke="url(#paint43_linear_3367_41224)" stroke-miterlimit="10" stroke-width="2.28"/>
  <defs>
    <linearGradient id="paint0_linear_3367_41224" x1="72.25" x2="168.2" y1="8.17" y2="177.4" gradientUnits="userSpaceOnUse">
      <stop stop-color="#E3B62B" offset="0"/>
      <stop stop-color="#DEB41D" offset=".5104"/>
      <stop stop-color="#B38901" offset="1"/>
    </linearGradient>
    <linearGradient id="paint1_linear_3367_41224" x1="124.7" x2="173.2" y1="12.63" y2="201.9" gradientUnits="userSpaceOnUse">
      <stop stop-color="#C69904" offset="0"/>
      <stop stop-color="#B38901" offset="1"/>
    </linearGradient>
    <linearGradient id="paint2_linear_3367_41224" x1="199.5" x2="199.5" y1="113.8" y2="146.6" gradientUnits="userSpaceOnUse">
      <stop stop-color="#00D4FE" offset="0"/>
      <stop stop-color="#B800FE" offset="1"/>
    </linearGradient>
    <linearGradient id="paint3_linear_3367_41224" x1="51.2" x2="51.2" y1="115.3" y2="146.3" gradientUnits="userSpaceOnUse">
      <stop stop-color="#00D4FE" offset="0"/>
      <stop stop-color="#B800FE" offset="1"/>
    </linearGradient>
    <linearGradient id="paint4_linear_3367_41224" x1="79.37" x2="79.37" y1="122.8" y2="198.6" gradientUnits="userSpaceOnUse">
      <stop stop-color="#00D4FE" offset="0"/>
      <stop stop-color="#B800FE" offset="1"/>
    </linearGradient>
    <linearGradient id="paint5_linear_3367_41224" x1="175.3" x2="175.3" y1="123.2" y2="205.9" gradientUnits="userSpaceOnUse">
      <stop stop-color="#00D4FE" offset="0"/>
      <stop stop-color="#B800FE" offset="1"/>
    </linearGradient>
    <linearGradient id="paint6_linear_3367_41224" x1="49.56" x2="49.56" y1="118.1" y2="138.8" gradientUnits="userSpaceOnUse">
      <stop stop-color="#00D4FE" offset="0"/>
      <stop stop-color="#7089FE" offset="1"/>
    </linearGradient>
    <linearGradient id="paint7_linear_3367_41224" x1="76.83" x2="76.83" y1="123.2" y2="190.3" gradientUnits="userSpaceOnUse">
      <stop stop-color="#00D4FE" offset="0"/>
      <stop stop-color="#7089FE" offset="1"/>
    </linearGradient>
    <linearGradient id="paint8_linear_3367_41224" x1="200.2" x2="200.2" y1="118.1" y2="138.8" gradientUnits="userSpaceOnUse">
      <stop stop-color="#00D4FE" offset="0"/>
      <stop stop-color="#7089FE" offset="1"/>
    </linearGradient>
    <linearGradient id="paint9_linear_3367_41224" x1="172.4" x2="172.4" y1="123.2" y2="189.9" gradientUnits="userSpaceOnUse">
      <stop stop-color="#00D4FE" offset="0"/>
      <stop stop-color="#7089FE" offset="1"/>
    </linearGradient>
    <linearGradient id="paint10_linear_3367_41224" x1="92.83" x2="92.83" y1="176.5" y2="200.1" gradientUnits="userSpaceOnUse">
      <stop stop-color="#8900FE" offset="0"/>
      <stop stop-color="#B800FE" offset="1"/>
    </linearGradient>
    <linearGradient id="paint11_linear_3367_41224" x1="85.51" x2="85.51" y1="172.5" y2="188.3" gradientUnits="userSpaceOnUse">
      <stop stop-color="#8900FE" offset="0"/>
      <stop stop-color="#B800FE" offset="1"/>
    </linearGradient>
    <linearGradient id="paint12_linear_3367_41224" x1="78.8" x2="78.8" y1="166.5" y2="181.7" gradientUnits="userSpaceOnUse">
      <stop stop-color="#8900FE" offset="0"/>
      <stop stop-color="#B800FE" offset="1"/>
    </linearGradient>
    <linearGradient id="paint13_linear_3367_41224" x1="72.32" x2="72.32" y1="163" y2="175.6" gradientUnits="userSpaceOnUse">
      <stop stop-color="#8900FE" offset="0"/>
      <stop stop-color="#B800FE" offset="1"/>
    </linearGradient>
    <linearGradient id="paint14_linear_3367_41224" x1="161.8" x2="161.8" y1="172.3" y2="188.8" gradientUnits="userSpaceOnUse">
      <stop stop-color="#8900FE" offset="0"/>
      <stop stop-color="#B800FE" offset="1"/>
    </linearGradient>
    <linearGradient id="paint15_linear_3367_41224" x1="169.7" x2="169.7" y1="169.1" y2="182.7" gradientUnits="userSpaceOnUse">
      <stop stop-color="#8900FE" offset="0"/>
      <stop stop-color="#B800FE" offset="1"/>
    </linearGradient>
    <linearGradient id="paint16_linear_3367_41224" x1="177.2" x2="177.2" y1="162.9" y2="177.1" gradientUnits="userSpaceOnUse">
      <stop stop-color="#8900FE" offset="0"/>
      <stop stop-color="#B800FE" offset="1"/>
    </linearGradient>
    <linearGradient id="paint17_linear_3367_41224" x1="49.19" x2="49.19" y1="137.3" y2="143.3" gradientUnits="userSpaceOnUse">
      <stop stop-color="#00D4FE" offset="0"/>
      <stop stop-color="#7089FE" offset="1"/>
    </linearGradient>
    <linearGradient id="paint18_linear_3367_41224" x1="92.93" x2="92.93" y1="198.8" y2="204.9" gradientUnits="userSpaceOnUse">
      <stop stop-color="#9300FE" offset="0"/>
      <stop stop-color="#B800FE" offset="1"/>
    </linearGradient>
    <linearGradient id="paint19_linear_3367_41224" x1="100.4" x2="100.4" y1="188.2" y2="194.2" gradientUnits="userSpaceOnUse">
      <stop stop-color="#9300FE" offset="0"/>
      <stop stop-color="#B800FE" offset="1"/>
    </linearGradient>
    <linearGradient id="paint20_linear_3367_41224" x1="156.7" x2="156.7" y1="198.8" y2="204.9" gradientUnits="userSpaceOnUse">
      <stop stop-color="#9300FE" offset="0"/>
      <stop stop-color="#B800FE" offset="1"/>
    </linearGradient>
    <linearGradient id="paint21_linear_3367_41224" x1="149.2" x2="149.2" y1="188.2" y2="194.2" gradientUnits="userSpaceOnUse">
      <stop stop-color="#9300FE" offset="0"/>
      <stop stop-color="#B800FE" offset="1"/>
    </linearGradient>
    <linearGradient id="paint22_linear_3367_41224" x1="200.4" x2="200.4" y1="137.7" y2="143.7" gradientUnits="userSpaceOnUse">
      <stop stop-color="#00D4FE" offset="0"/>
      <stop stop-color="#7089FE" offset="1"/>
    </linearGradient>
    <radialGradient id="paint23_radial_3367_41224" cx="0" cy="0" r="1" gradientTransform="translate(124.7 76.53) scale(50.69 54.07)" gradientUnits="userSpaceOnUse">
      <stop stop-color="#00D4FE" offset="0"/>
      <stop stop-color="#B800FE" stop-opacity=".25" offset="1"/>
    </radialGradient>
    <linearGradient id="paint24_linear_3367_41224" x1="124.8" x2="124.8" y1="27.71" y2="142.7" gradientUnits="userSpaceOnUse">
      <stop stop-color="#00D4FE" offset="0"/>
      <stop stop-color="#B800FE" offset="1"/>
    </linearGradient>
    <linearGradient id="paint25_linear_3367_41224" x1="124.3" x2="124.3" y1="41.61" y2="130.9" gradientUnits="userSpaceOnUse">
      <stop stop-color="#00D4FE" offset="0"/>
      <stop stop-color="#F582FE" offset="1"/>
    </linearGradient>
    <linearGradient id="paint27_linear_3367_41224" x1="115.9" x2="115.9" y1="123" y2="145.3" gradientUnits="userSpaceOnUse">
      <stop stop-color="#513DFE" offset="0"/>
      <stop stop-color="#9B3AFD" offset="1"/>
    </linearGradient>
    <linearGradient id="paint28_linear_3367_41224" x1="125.1" x2="125.1" y1="119" y2="159.1" gradientUnits="userSpaceOnUse">
      <stop stop-color="#513DFE" offset="0"/>
      <stop stop-color="#9B3AFD" offset="1"/>
    </linearGradient>
    <linearGradient id="paint29_linear_3367_41224" x1="134.9" x2="134.9" y1="123.6" y2="145.3" gradientUnits="userSpaceOnUse">
      <stop stop-color="#513DFE" offset="0"/>
      <stop stop-color="#9B3AFD" offset="1"/>
    </linearGradient>
    <linearGradient id="paint30_linear_3367_41224" x1="115.4" x2="115.4" y1="145.3" y2="151.3" gradientUnits="userSpaceOnUse">
      <stop stop-color="#8900FE" offset="0"/>
      <stop stop-color="#B800FE" offset="1"/>
    </linearGradient>
    <linearGradient id="paint31_linear_3367_41224" x1="124.4" x2="124.4" y1="159.2" y2="165.3" gradientUnits="userSpaceOnUse">
      <stop stop-color="#8900FE" offset="0"/>
      <stop stop-color="#B800FE" offset="1"/>
    </linearGradient>
    <linearGradient id="paint32_linear_3367_41224" x1="134.3" x2="134.3" y1="145.3" y2="151.3" gradientUnits="userSpaceOnUse">
      <stop stop-color="#8900FE" offset="0"/>
      <stop stop-color="#B800FE" offset="1"/>
    </linearGradient>
    <linearGradient id="paint33_linear_3367_41224" x1="43.96" x2="44.63" y1="67.05" y2="73.91" gradientUnits="userSpaceOnUse">
      <stop stop-color="#00D4FE" offset="0"/>
      <stop stop-color="#2691FE" offset="1"/>
    </linearGradient>
    <linearGradient id="paint34_linear_3367_41224" x1="48.77" x2="49.44" y1="83.52" y2="90.38" gradientUnits="userSpaceOnUse">
      <stop stop-color="#00D4FE" offset="0"/>
      <stop stop-color="#2691FE" offset="1"/>
    </linearGradient>
    <linearGradient id="paint35_linear_3367_41224" x1="71.46" x2="71.46" y1="72.46" y2="108.1" gradientUnits="userSpaceOnUse">
      <stop stop-color="#00D4FE" offset="0"/>
      <stop stop-color="#2691FE" offset="1"/>
    </linearGradient>
    <linearGradient id="paint36_linear_3367_41224" x1="73.77" x2="73.77" y1="89.62" y2="116.2" gradientUnits="userSpaceOnUse">
      <stop stop-color="#00D4FE" offset="0"/>
      <stop stop-color="#2691FE" offset="1"/>
    </linearGradient>
    <linearGradient id="paint37_linear_3367_41224" x1="206.6" x2="205.9" y1="67.05" y2="73.91" gradientUnits="userSpaceOnUse">
      <stop stop-color="#00D4FE" offset="0"/>
      <stop stop-color="#2691FE" offset="1"/>
    </linearGradient>
    <linearGradient id="paint38_linear_3367_41224" x1="200.6" x2="199.9" y1="83.52" y2="90.38" gradientUnits="userSpaceOnUse">
      <stop stop-color="#00D4FE" offset="0"/>
      <stop stop-color="#2691FE" offset="1"/>
    </linearGradient>
    <linearGradient id="paint39_linear_3367_41224" x1="178.3" x2="178.3" y1="72.46" y2="108.1" gradientUnits="userSpaceOnUse">
      <stop stop-color="#00D4FE" offset="0"/>
      <stop stop-color="#2691FE" offset="1"/>
    </linearGradient>
    <linearGradient id="paint40_linear_3367_41224" x1="176.2" x2="176.2" y1="89.62" y2="116.2" gradientUnits="userSpaceOnUse">
      <stop stop-color="#00D4FE" offset="0"/>
      <stop stop-color="#2691FE" offset="1"/>
    </linearGradient>
    <linearGradient id="paint41_linear_3367_41224" x1="152" x2="152" y1="12.63" y2="61.42" gradientUnits="userSpaceOnUse">
      <stop stop-color="#00D4FE" offset="0"/>
      <stop stop-color="#2691FE" offset="1"/>
    </linearGradient>
    <linearGradient id="paint42_linear_3367_41224" x1="161.9" x2="161.9" y1="12.63" y2="67.03" gradientUnits="userSpaceOnUse">
      <stop stop-color="#00D4FE" offset="0"/>
      <stop stop-color="#2691FE" offset="1"/>
    </linearGradient>
    <linearGradient id="paint43_linear_3367_41224" x1="167" x2="167" y1="12.63" y2="68.54" gradientUnits="userSpaceOnUse">
      <stop stop-color="#00D4FE" offset="0"/>
      <stop stop-color="#2691FE" offset="1"/>
    </linearGradient>
  </defs>
</svg>