<svg xmlns="http://www.w3.org/2000/svg" width="256" height="237" fill="none" viewBox="0 0 256 237">
<!-- SVG created with Arrow, by QuiverAI (https://quiver.ai) -->
  <path d="m0 109.9v74.33c0 13.56 5.46 25.78 14.35 34.49l6.43-7.18c-6.89-7.15-10.77-16.63-10.77-29.08v-72.56h-10.01z" fill="url(#paint0_linear_2000_3974)"/>
  <path d="m247.7 109.9v71.93c0 12.13-4.95 23.01-12.64 31.15l7.83 7.8c8.39-9.18 13.09-20.74 13.09-36.55v-74.33h-8.28z" fill="url(#paint1_linear_2000_3974)"/>
  <path d="m234.2 213.4c-8.24 8.27-17.46 12.34-31.62 12.34h-149.8c-12.53 0-22.77-4.18-30.45-12.88l-7.63 8.27c8.9 9.13 20.91 14.88 35.41 14.88h156c14.13 0 25.82-5.91 35.6-15.25l-7.53-7.36z" fill="url(#paint2_linear_2000_3974)"/>
  <path d="m29.02 7.09 8.74 45.84 49.14 48.25 8.81 3.22-2.21 5.78-15.52 3.4-2.22 11.69-4.84-12.82-13.49 13.29-0.34 18.04 8.36 10.99-3.66 0.95-8.26 12.06-15.62 12.51-6.48 2.01-4.07 4.48-0.22 20.88 24.78-2.23 4.23-5.01 0.37-4.52 14.77-16.49 13.23-10.49 5.72 6.99 19.82-0.64 12.11-12.81-5.15-3.33 3.19-3.11 1.9-10.96 4.51-1.76 4.5 1.76 1.9 10.96 3.19 3.11-5.15 3.33 15.05 12.66 19.82-0.03 7.32-7.31 12.68 12.05 14.78 16.07 0.37 4.52 5 5.34 22.63 1.9-0.09-21.24-5.06-6.13-5.49-1.11-16.34-13.9-8.26-9.56-3.03-0.6 7.72-11.34-0.34-19.19-12.74-12.14-4.9 11.26-2.22-10.13-13.25-3.4-3.87-4.67 8.05-3.22 49.14-48.9 10.37-45.74-20.28 20.51 16.66-23.39-45.7 10.63-51.18 51.7-51.52-52.48-45.7-10.63 17.76 19.67-19.42-16.57z" fill="url(#paint3_radial_2000_3974)" stroke="url(#paint4_linear_2000_3974)" stroke-miterlimit="10" stroke-width="3.011"/>
  <path d="m33.11 5.7 42.75 10.63 48.43 49.17 2.81 9.56-5.27 4.37-2.62-11.95-42.39-48.55-0.69 7.19-0.51-8.52-42.51-11.9z" fill="url(#paint5_linear_2000_3974)" stroke="url(#paint6_linear_2000_3974)" stroke-miterlimit="10" stroke-width="1.506"/>
  <path d="m223.8 5.28-43.59 11.83-49.87 49.17-1.52 7.63-3.52 2.49 3.38-9.98 50.97-49.17 44.15-11.97z" fill="url(#paint7_linear_2000_3974)" stroke="url(#paint8_linear_2000_3974)" stroke-miterlimit="10" stroke-width="1.506"/>
  <path d="m30.04 10.76 9.87 39.45 10.01 1.71-0.91-2.78-9.48-1.11-9.49-37.27z" fill="url(#paint9_linear_2000_3974)" stroke="url(#paint10_linear_2000_3974)" stroke-miterlimit="10" stroke-width="1.506"/>
  <path d="m226.5 11.11-10.67 40.38-12.74 2.42 0.73-3.43 10.77-1.86 11.91-37.51z" fill="url(#paint11_linear_2000_3974)" stroke="url(#paint12_linear_2000_3974)" stroke-miterlimit="10" stroke-width="1.506"/>
  <path d="m179.8 18.61-2.14 11.48 25.91-6.43-19.82 20.24-8.4 1.46-13.84 13.9 1.21-14.65-25.27 23.81-1.44 9.2-43.22 37.41-10.64 1.47-1.44 17.22 8.85-0.76 5.59-6.13 8.5-0.52 54.34-30.7 7.56-1.9 23.28-23.4-16.66 0.73 14.55-13.9 1.07-8.8 15.78-16.21 0.04-8.47-26.74 6.43 2.93-11.48z" fill="url(#paint13_linear_2000_3974)" stroke="#CE2447" stroke-miterlimit="10" stroke-width="1.129"/>
  <path d="m52.11 23.66 28.2 7.46 13.48 13.24v15.04l-14.55-13.24-7.13-1.55-20-20.95z" fill="url(#paint14_linear_2000_3974)" stroke="#CE2447" stroke-miterlimit="10" stroke-width="1.129"/>
  <path d="m94.26 45.02 23.66 22.82 1.8 11.27-6.79 8.1-18.31-18.29-0.36-23.9z" fill="url(#paint15_linear_2000_3974)" stroke="#CE2447" stroke-miterlimit="10" stroke-width="1.129"/>
  <path d="m47.01 27.27 19.82 20.95 1.8 9.2 14.18 13.24-17.9-1.47-11.7-13.94-6.2-27.98z" fill="url(#paint16_linear_2000_3974)" stroke="#CE2447" stroke-miterlimit="10" stroke-width="1.129"/>
  <path d="m67.3 70.11 22.94 23.39 7.18 1.83 5.23 4.38 7.18-8.84-18.62-17.58-23.91-3.18z" fill="url(#paint17_linear_2000_3974)" stroke="#CE2447" stroke-miterlimit="10" stroke-width="1.129"/>
  <path d="m209 27.62-21.28 21.39-1.07 8.41-6.54 7.19-8.4 6.43-6.48 0.38-58.25 59.02-0.74 9.2-5.56 6.43v7.9l11.67-1.11 1.07-13.25 44.99-43.71 7.18-2.19 23.99-23.4 10.31-11.79 9.11-30.9z" fill="url(#paint18_linear_2000_3974)" stroke="#CE2447" stroke-miterlimit="10" stroke-width="1.129"/>
  <path d="m153 111.1 9.2 8.1 11.66 1.08 0.74 12.65-10.94-1.08-9.56-6.14-7.5-1.46-3.24-4 9.64-9.15z" fill="url(#paint19_linear_2000_3974)" stroke="#B5153A" stroke-miterlimit="10" stroke-width="1.506"/>
  <path d="m142.7 123.7 5.52 5.89 0.38 8.8 6.48 6.81v7.19l-10.97-0.74-2.51-12.37-9.56-8.47 7.18-7.5 3.48 0.39z" fill="url(#paint20_linear_2000_3974)" stroke="#B5153A" stroke-miterlimit="10" stroke-width="1.506"/>
  <path d="m158.5 135.8 17.94 1.08 12.37 9.88-4.01 3.65-9.16-6.14-6.83 1.08-0.74 9.88 4.36 8.46-4.01 4.03-9.92-12.92v-19z" fill="url(#paint21_linear_200_3974)" stroke="#D6153A" stroke-miterlimit="10" stroke-width="1.506"/>
  <path d="m186.7 119 8.08 8.1-0.03 15.7-7.5 6.47-4.01-11.96 3.46-18.31z" fill="url(#paint22_linear_2000_3974)" stroke="#D6153A" stroke-miterlimit="10" stroke-width="2.258"/>
  <path d="m140.2 163.4 18.65-2.18 7.46 9.19-1.83 2.19-17.3-1.11-6.98-8.09z" fill="url(#paint23_linear_2000_3974)" stroke="#B5153A" stroke-miterlimit="10" stroke-width="1.506"/>
  <path d="m175.3 167.8 10.97 1.08 6.13 7.13h-5.07l-10.25-7.13-1.78-1.08z" fill="url(#paint24_linear_2000_3974)" stroke="#B5153A" stroke-miterlimit="10" stroke-width="1.506"/>
  <path d="m191.7 158.6 6.79 7.12v7.16l-6.12-7.16-0.67-7.12z" fill="url(#paint25_linear_2000_3974)" stroke="#B5153A" stroke-miterlimit="10" stroke-width="1.506"/>
  <path d="m174.8 164.2 11.97-9.88 1.07 11.36-1.07 1.11-11.97-2.59z" fill="url(#paint26_linear_2000_3974)" stroke="#D6153A" stroke-miterlimit="10" stroke-width="1.506"/>
  <path d="m170.7 147.4 4.32 0.38 6.48 3.64-8.08 8.1-3.35-6.76 0.63-5.36z" fill="url(#paint27_linear_2000_3974)" stroke="#B5153A" stroke-miterlimit="10" stroke-width="1.506"/>
  <path d="m189.2 179.2 11.66 0.37 8.44 9.88v4l3.97 3.18-6.79-0.38-2.92-4.67v-4.67l-6.79-6.43-7.57-1.28z" fill="url(#paint28_linear_2000_3974)" stroke="#00C2FF" stroke-miterlimit="10" stroke-width="1.506"/>
  <path d="m201.5 168.9 15.26 15.35 1.83 1.83v10.61l-8.46-0.78 3.25-4.73-4.38-5.48-7.5-6.8v-10z" fill="url(#paint29_linear_2000_3974)" stroke="#D6153A" stroke-miterlimit="10" stroke-width="1.506"/>
  <path d="m212.6 186.4 0.79 2" stroke="#00C2FF" stroke-linecap="round" stroke-linejoin="round" stroke-width="3.011"/>
  <path d="m206.5 193.1 1.28 1.28" stroke="#00C2FF" stroke-linecap="round" stroke-linejoin="round" stroke-width="3.011"/>
  <path d="m217.9 197.3 8.09 7.5" stroke="#5E52FF" stroke-miterlimit="10" stroke-width="1.506"/>
  <path d="m68.98 119.2 4.71 8.84 0.38 10.23-7.87 6.43-4.29-3.32 0.34-14.96 6.73-7.22z" fill="url(#paint30_linear_2000_3974)" stroke="#D6153A" stroke-miterlimit="10" stroke-width="2.258"/>
  <path d="m65.73 145.7 13.51-9.49 17.91-0.41-7.46 9.9-9.56 0.42-7.5 4.36-6.9-4.78z" fill="url(#paint31_linear_2000_3974)" stroke="#D6153A" stroke-miterlimit="10" stroke-width="1.506"/>
  <path d="m68.28 153.2 11.67 11.68-8.84 1.08-3.66-0.74 0.83-12.02z" fill="url(#paint32_linear_2000_3974)" stroke="#D6153A" stroke-miterlimit="10" stroke-width="1.506"/>
  <path d="m63.57 158.2-6.14 8.09v5.25l6.14-6.14v-7.2z" fill="url(#paint33_linear_2000_3974)" stroke="#D6153A" stroke-miterlimit="10" stroke-width="1.506"/>
  <path d="m65.73 170.3 9.93 0.74-4 5.27-14.89 1.08 8.96-7.09z" fill="url(#paint34_linear_2000_3974)" stroke="#D6153A" stroke-miterlimit="10" stroke-width="1.506"/>
  <path d="m53.42 168.9-16.34 17.18 0.37 10.61 10.6-1.12 5.16-9.49 11.3-6.86h-9.2l-1.89-2.12v-8.2z" fill="url(#paint35_linear_2000_3974)" stroke="#D6153A" stroke-miterlimit="10" stroke-width="1.506"/>
  <path d="m31.29 204.5 8.83-8.12 8.82 0.38 2.92 3.29-3.63 3.33-16.94 1.12z" fill="url(#paint36_linear_2000_3974)" stroke="#00C2FF" stroke-miterlimit="10" stroke-width="1.506"/>
  <path d="m41.21 187.5 1.83 0.34 8.47-9.19" stroke="#00C2FF" stroke-linecap="round" stroke-linejoin="round" stroke-width="2.258"/>
  <path d="m47.33 193.3 1.43-1.95v-2.92l4.32-4" stroke="#00C2FF" stroke-linecap="round" stroke-linejoin="round" stroke-width="1.506"/>
  <path d="m74.07 151.4 6.86-4.02 5.16 0.38 1.07 4.59-3.32 8.84-9.77-9.79z" fill="url(#paint37_linear_2000_3974)" stroke="#D6153A" stroke-miterlimit="10" stroke-width="1.506"/>
  <path d="m83.84 163 2.18 3.64 7.84-12.33v-11.34l3.29-7.2-7.46 9.55v8.1l-5.85 9.58z" fill="url(#paint38_linear_2000_3974)" stroke="#D6153A" stroke-miterlimit="10" stroke-width="1.506"/>
  <path d="m96.45 161.2 18.31 2.88-6.79 6.49-15.61 0.35-1.08-2.18 5.17-7.54z" fill="url(#paint39_linear_2000_3974)" stroke="#D6153A" stroke-miterlimit="10" stroke-width="1.506"/>
  <defs>
    <linearGradient id="paint0_linear_2000_3974" x1="10.39" x2="10.39" y1="109.9" y2="218.7" gradientUnits="userSpaceOnUse">
      <stop stop-color="#8048DD" stop-opacity=".15" offset="0"/>
      <stop stop-color="#8048DD" offset="1"/>
    </linearGradient>
    <linearGradient id="paint1_linear_2000_3974" x1="249.8" x2="249.8" y1="109.9" y2="220.8" gradientUnits="userSpaceOnUse">
      <stop stop-color="#8048DD" stop-opacity=".15" offset="0"/>
      <stop stop-color="#8048DD" offset="1"/>
    </linearGradient>
    <linearGradient id="paint2_linear_2000_3974" x1="128.2" x2="128.2" y1="212.9" y2="236.1" gradientUnits="userSpaceOnUse">
      <stop stop-color="#8048DD" offset="0"/>
      <stop stop-color="#9452EC" offset="1"/>
    </linearGradient>
    <radialGradient id="paint3_radial_2000_3974" cx="0" cy="0" r="1" gradientTransform="translate(127.8 109.2) scale(141.3 141.6)" gradientUnits="userSpaceOnUse">
      <stop stop-color="#90c" offset="0"/>
      <stop stop-color="#3C59FF" offset=".5104"/>
      <stop stop-color="#00FFFE" offset="1"/>
    </radialGradient>
    <linearGradient id="paint4_linear_2000_3974" x1="127.8" x2="127.8" y1="3.989" y2="208" gradientUnits="userSpaceOnUse">
      <stop stop-color="#0ff" offset="0"/>
      <stop stop-color="#0ff" stop-opacity=".08" offset="1"/>
    </linearGradient>
    <linearGradient id="paint5_linear_2000_3974" x1="79.53" x2="79.53" y1="7.189" y2="79.43" gradientUnits="userSpaceOnUse">
      <stop stop-color="#0ff" offset="0"/>
      <stop stop-color="#0ff" stop-opacity=".25" offset="1"/>
    </linearGradient>
    <linearGradient id="paint6_linear_2000_3974" x1="79.53" x2="79.53" y1="5.683" y2="80.93" gradientUnits="userSpaceOnUse">
      <stop stop-color="#0ff" offset="0"/>
      <stop stop-color="#0ff" stop-opacity=".08" offset="1"/>
    </linearGradient>
    <linearGradient id="paint7_linear_2000_3974" x1="176.3" x2="176.3" y1="5.277" y2="76.4" gradientUnits="userSpaceOnUse">
      <stop stop-color="#0ff" offset="0"/>
      <stop stop-color="#0ff" stop-opacity=".25" offset="1"/>
    </linearGradient>
    <linearGradient id="paint8_linear_2000_3974" x1="176.3" x2="176.3" y1="3.771" y2="77.9" gradientUnits="userSpaceOnUse">
      <stop stop-color="#0ff" offset="0"/>
      <stop stop-color="#0ff" stop-opacity=".08" offset="1"/>
    </linearGradient>
    <linearGradient id="paint9_linear_2000_3974" x1="39.98" x2="39.98" y1="10.76" y2="51.92" gradientUnits="userSpaceOnUse">
      <stop stop-color="#0ff" offset="0"/>
      <stop stop-color="#0ff" stop-opacity=".25" offset="1"/>
    </linearGradient>
    <linearGradient id="paint10_linear_2000_3974" x1="39.98" x2="39.98" y1="9.251" y2="53.42" gradientUnits="userSpaceOnUse">
      <stop stop-color="#0ff" offset="0"/>
      <stop stop-color="#0ff" stop-opacity=".08" offset="1"/>
    </linearGradient>
    <linearGradient id="paint11_linear_2000_3974" x1="215.1" x2="215.1" y1="10.76" y2="53.91" gradientUnits="userSpaceOnUse">
      <stop stop-color="#0ff" offset="0"/>
      <stop stop-color="#0ff" stop-opacity=".25" offset="1"/>
    </linearGradient>
    <linearGradient id="paint12_linear_2000_3974" x1="215.1" x2="215.1" y1="9.608" y2="54.76" gradientUnits="userSpaceOnUse">
      <stop stop-color="#0ff" offset="0"/>
      <stop stop-color="#0ff" stop-opacity=".08" offset="1"/>
    </linearGradient>
    <linearGradient id="paint13_linear_2000_3974" x1="144" x2="144" y1="23.2" y2="133.7" gradientUnits="userSpaceOnUse">
      <stop stop-color="#F73348" offset="0"/>
      <stop stop-color="#C71E1E" offset="1"/>
    </linearGradient>
    <linearGradient id="paint14_linear_2000_3974" x1="72.95" x2="72.95" y1="23.2" y2="59.85" gradientUnits="userSpaceOnUse">
      <stop stop-color="#F73348" offset="0"/>
      <stop stop-color="#F73348" offset="1"/>
    </linearGradient>
    <linearGradient id="paint15_linear_2000_3974" x1="107" x2="107" y1="44.6" y2="87.6" gradientUnits="userSpaceOnUse">
      <stop stop-color="#F73348" offset="0"/>
      <stop stop-color="#F73348" offset="1"/>
    </linearGradient>
    <linearGradient id="paint16_linear_2000_3974" x1="64.91" x2="64.91" y1="26.82" y2="70.66" gradientUnits="userSpaceOnUse">
      <stop stop-color="#F73348" offset="0"/>
      <stop stop-color="#F73348" offset="1"/>
    </linearGradient>
    <linearGradient id="paint17_linear_2000_3974" x1="88.57" x2="88.57" y1="69.66" y2="99.71" gradientUnits="userSpaceOnUse">
      <stop stop-color="#F73348" offset="0"/>
      <stop stop-color="#C71E1E" offset="1"/>
    </linearGradient>
    <linearGradient id="paint18_linear_2000_3974" x1="156.2" x2="156.2" y1="27.17" y2="154.4" gradientUnits="userSpaceOnUse">
      <stop stop-color="#F73348" offset="0"/>
      <stop stop-color="#C71E1E" offset="1"/>
    </linearGradient>
    <linearGradient id="paint19_linear_2000_3974" x1="159" x2="159" y1="110.6" y2="133.4" gradientUnits="userSpaceOnUse">
      <stop stop-color="#F73348" offset="0"/>
      <stop stop-color="#C71E1E" offset="1"/>
    </linearGradient>
    <linearGradient id="paint20_linear_2000_3974" x1="145.1" x2="145.1" y1="122.9" y2="153.2" gradientUnits="userSpaceOnUse">
      <stop stop-color="#F73348" offset="0"/>
      <stop stop-color="#C71E1E" offset="1"/>
    </linearGradient>
    <linearGradient id="paint22_linear_2000_3974" x1="189" x2="189" y1="118.1" y2="149.6" gradientUnits="userSpaceOnUse">
      <stop stop-color="#F73348" offset="0"/>
      <stop stop-color="#C71E1E" offset="1"/>
    </linearGradient>
    <linearGradient id="paint23_linear_2000_3974" x1="153.2" x2="153.2" y1="160.8" y2="173.1" gradientUnits="userSpaceOnUse">
      <stop stop-color="#F73348" offset="0"/>
      <stop stop-color="#C71E1E" offset="1"/>
    </linearGradient>
    <linearGradient id="paint24_linear_2000_3974" x1="183.9" x2="183.9" y1="167.3" y2="176.4" gradientUnits="userSpaceOnUse">
      <stop stop-color="#F73348" offset="0"/>
      <stop stop-color="#C71E1E" offset="1"/>
    </linearGradient>
    <linearGradient id="paint25_linear_2000_3974" x1="195" x2="195" y1="158.1" y2="173.3" gradientUnits="userSpaceOnUse">
      <stop stop-color="#F73348" offset="0"/>
      <stop stop-color="#C71E1E" offset="1"/>
    </linearGradient>
    <linearGradient id="paint26_linear_2000_3974" x1="181.3" x2="181.3" y1="153.9" y2="167.3" gradientUnits="userSpaceOnUse">
      <stop stop-color="#F73348" offset="0"/>
      <stop stop-color="#C71E1E" offset="1"/>
    </linearGradient>
    <linearGradient id="paint27_linear_2000_3974" x1="176.1" x2="176.1" y1="147" y2="160" gradientUnits="userSpaceOnUse">
      <stop stop-color="#F73348" offset="0"/>
      <stop stop-color="#C71E1E" offset="1"/>
    </linearGradient>
    <linearGradient id="paint28_linear_2000_3974" x1="199.9" x2="199.9" y1="178.7" y2="197.1" gradientUnits="userSpaceOnUse">
      <stop stop-color="#F73348" offset="0"/>
      <stop stop-color="#C71E1E" offset="1"/>
    </linearGradient>
    <linearGradient id="paint29_linear_2000_3974" x1="209.9" x2="209.9" y1="168.4" y2="197.1" gradientUnits="userSpaceOnUse">
      <stop stop-color="#F73348" offset="0"/>
      <stop stop-color="#C71E1E" offset="1"/>
    </linearGradient>
    <linearGradient id="paint30_linear_2000_3974" x1="68" x2="68" y1="118.4" y2="145.2" gradientUnits="userSpaceOnUse">
      <stop stop-color="#F73348" offset="0"/>
      <stop stop-color="#C71E1E" offset="1"/>
    </linearGradient>
    <linearGradient id="paint31_linear_2000_3974" x1="81.44" x2="81.44" y1="135.4" y2="150.9" gradientUnits="userSpaceOnUse">
      <stop stop-color="#F73348" offset="0"/>
      <stop stop-color="#C71E1E" offset="1"/>
    </linearGradient>
    <linearGradient id="paint32_linear_2000_3974" x1="73.71" x2="73.71" y1="152.8" y2="166.4" gradientUnits="userSpaceOnUse">
      <stop stop-color="#F73348" offset="0"/>
      <stop stop-color="#C71E1E" offset="1"/>
    </linearGradient>
    <linearGradient id="paint33_linear_2000_3974" x1="60.5" x2="60.5" y1="157.7" y2="172" gradientUnits="userSpaceOnUse">
      <stop stop-color="#F73348" offset="0"/>
      <stop stop-color="#C71E1E" offset="1"/>
    </linearGradient>
    <linearGradient id="paint34_linear_2000_3974" x1="66.17" x2="66.17" y1="169.9" y2="177.9" gradientUnits="userSpaceOnUse">
      <stop stop-color="#F73348" offset="0"/>
      <stop stop-color="#C71E1E" offset="1"/>
    </linearGradient>
    <linearGradient id="paint35_linear_2000_3974" x1="47.26" x2="47.26" y1="168.4" y2="197.1" gradientUnits="userSpaceOnUse">
      <stop stop-color="#F73348" offset="0"/>
      <stop stop-color="#C71E1E" offset="1"/>
    </linearGradient>
    <linearGradient id="paint36_linear_2000_3974" x1="40.57" x2="40.57" y1="196" y2="205" gradientUnits="userSpaceOnUse">
      <stop stop-color="#8048DD" offset="0"/>
      <stop stop-color="#8048DD" stop-opacity=".25" offset="1"/>
    </linearGradient>
    <linearGradient id="paint37_linear_2000_3974" x1="80.58" x2="80.58" y1="147" y2="161.7" gradientUnits="userSpaceOnUse">
      <stop stop-color="#F73348" offset="0"/>
      <stop stop-color="#C71E1E" offset="1"/>
    </linearGradient>
    <linearGradient id="paint38_linear_2000_3974" x1="90.49" x2="90.49" y1="135.4" y2="167.1" gradientUnits="userSpaceOnUse">
      <stop stop-color="#F73348" offset="0"/>
      <stop stop-color="#C71E1E" offset="1"/>
    </linearGradient>
    <linearGradient id="paint39_linear_2000_3974" x1="103" x2="103" y1="160.8" y2="171.4" gradientUnits="userSpaceOnUse">
      <stop stop-color="#F73348" offset="0"/>
      <stop stop-color="#C71E1E" offset="1"/>
    </linearGradient>
  </defs>
</svg>