<svg xmlns="http://www.w3.org/2000/svg" width="204" height="204" fill="none" viewBox="0 0 204 204">
<!-- SVG created with Arrow, by QuiverAI (https://quiver.ai) -->
  <path d="m184 45.95c-14.52-17.59-38.61-42.67-63.27-42.67-6.93 0-11.94 2.38-15.14 6.55l-39.66 39.98c-6.19 6.28-9.87 13-10.32 23.32l-1.3 24.58c-7.93 6.51-10.55 19.01-7.44 32.23l0.75 3.52-19.81 19.26c-2.93-1.71-5.74-2.25-8.03-2.25-9.87 0-16.55 8.55-16.55 17.51 0 9.09 6.98 16.64 15.91 17.2 0.59 9.1 8 15.94 17.68 15.94 9.61 0 17.08-8.44 17.08-16.72 0-3.19-0.73-6.31-2.22-9.01l19.01-18.76c4.66 1.81 8.94 2.23 12.73 2.07 8.63-0.37 16.61-3.96 23-9.32l21.47-0.66c10.7 0 18.3-3.1 25.93-11.01l41.5-40.24c11.7-11.16 4.87-32.42-11.32-51.52z" fill="#3E0112"/>
  <path d="m184.1 52.42c-12.43-15.64-36.06-42.96-63.38-42.96-11.52 0-15.99 7.65-15.99 16.48 0 19.02 19.05 43.15 35.2 57.04 12.79 11.06 27.36 17.09 38.61 17.09 9.58 0 17.28-4.86 17.28-15.96 0-9.2-5.47-21.25-11.72-31.69z" fill="#3E0112"/>
  <path d="m179.7 102.6-30.75 32.28c-5.76 6.06-11.76 8.79-20.92 8.79l-24.83 0.8c-6.95 7.7-16.17 9.39-26.17 6.93l-0.21-0.6c8.16-0.6 12.99-4.93 23.14-16.28l26.13-0.6c6.88-0.3 10.23-2.75 14.34-6.78l27.04-25.98c4.03 1.12 8.75 1.96 12.23 1.44z" fill="url(#paint0_linear_116_1738)"/>
  <path d="m63.22 72.88-1.85 28.03c-7.47 4.9-10.65 14.04-9.11 24.8 0.82 5.78 2.94 11.07 6.42 13.47l4.05 2.23 59.29-59.79 8.69-8.49c-12.78-12.25-22.74-26.95-26.27-41.5l-3.43-9.79-31 31.87c-4.52 4.64-6.39 11.05-6.79 19.17z" fill="#F26627"/>
  <path d="m103.1 35.41-26.77 27.85c-3.58 3.67-4.55 7.65-4.85 12.47l-1.38 29.56-7.07 7.32 17.22-3.52 2.31-32.44 25.68-26.53c-2.74-4.87-4.77-9.86-5.14-14.71z" fill="#C62F13"/>
  <path d="m128.8 76.29-66.14 65.03c4.26 1.81 13.41 2.34 19.28-3.83l14.77-15.25 30.26-0.05 26.58-26.3c-8.76-4.77-17.8-12.18-24.75-19.6z" fill="url(#paint1_linear_116_1738)"/>
  <path d="m120.7 9.92c-9.82 0-13.6 6.17-13.6 15.32 0 14.65 10.8 32.49 25.55 46.17 14.24 13.53 28.95 23.41 45.78 23.41 9.28 0 15.16-4.76 15.16-11.55 0-15.38-16.19-35.85-26.21-46.55-11.67-12.45-28.22-26.8-46.68-26.8z" fill="#D13327"/>
  <path d="m136.9 16.84 4.02 16.33-1.81 0.75-3.8-18.06 1.59 0.98z" fill="#F26627"/>
  <path d="m112.7 36.16 19.65 3.78-0.15 2.33-20.33-3.88 0.83-2.23z" fill="#F26627"/>
  <path d="m158.7 68.74 6.5 22.47-2.08-0.75-6.78-21.3 2.36-0.42z" fill="#F26627"/>
  <path d="m170.7 63.37 16.61 3.19-0.41-1.55-16.2-3.3v1.66z" fill="#F26627"/>
  <path d="m165.2 37.13-4.32 3.48c7.63 7.3 11.24 15.1 10.77 21.51l14.05 3.04c-4.82-9.95-12.85-20.25-20.5-28.03z" fill="#A80E26"/>
  <path d="m143.6 60.84-11.51 10.75c10.46 10.27 21.98 17.28 30.72 18.93l-4.77-20.73-14.44-8.95z" fill="#A80E26"/>
  <path d="m166.2 47.28c-7.32-9.35-16.13-15.9-24.34-15.65-7.59 0.24-9.76 6.06-9.1 11.84 1.01 8.6 10.48 20.8 21.27 25.74 8.43 4.02 16.67 0 17.24-8.06 0.28-4.66-2.31-10.14-5.07-13.87z" fill="#3E0112"/>
  <path d="m161.3 51.72c-5.16-7.01-11.93-12.56-18.53-13.11-4.74-0.4-4.74 4.51-3.2 8.24 3.11 7.72 11.42 15.27 18.56 17.08 5.36 1.41 7.8-5.9 3.17-12.21z" fill="#D59768"/>
  <path d="m158.4 51.72c-3.66-4.96-8.46-8.6-12.17-8.51-3.19 0.09-3.75 3.21-2.4 6.09 2.71 5.78 8.3 9.79 12.58 10.41 4.03 0.57 4.7-4.13 1.99-7.99z" fill="#B24D33"/>
  <path d="m49.89 139.8-21.21 20.83c-2.85-2.8-5.67-3.73-8.38-3.73-7.22 0-11.29 6.21-11.29 11.34 0 5.94 4.55 10.86 10.4 10.62l7.01-1.13-0.46 6.4c0.82 5.84 5.21 10.17 10.89 10.17 6.56 0 10.9-6.03 10.9-10.67 0-4.58-1.91-7.55-5.29-10.4l21.89-21.13-0.37-1.17-8.05-7.48-6.04-3.65z" fill="url(#paint2_linear_116_1738)"/>
  <path d="m47.82 143.1-18.87 20.83c-2.53-2.46-5.01-3.31-7.44-3.31-6.32 0-9.5 4.7-9.5 8.62 0 4.58 3.47 8.08 8.15 7.88l6.86-0.93-0.65 5.64c0.72 4.44 4.24 5.57 7.51 5.32 4.23-0.31 5.9-3.38 5.9-6.03 0-2.85-1.87-5.05-1.56-9.01 0.33-4.04 5.56-8.92 13.29-17.13-2.58-3.56-3.85-7.19-3.69-11.88z" fill="#D59768"/>
  <path d="m177.8 103.4-29.89 31.77c-4.59 4.61-9.03 6.61-11.79 7.64l-0.6-1.09c4.39-1.71 8.23-3.96 12.07-8.41l29.06-30.69 1.15 0.78z" fill="url(#paint3_linear_116_1738)"/>
  <path d="m63.72 153.6-19.41 19.5-0.78-0.7 19.95-21.2 0.87 0.82-0.63 1.58z" fill="#C62F13"/>
  <path d="m61.69 100.7 2.3-28.94c0.52-6.81 2.89-12.68 7.76-17.37l29.02-31.64 0.64-0.24-0.64 4.54-27.71 28.98c-4.44 4.02-6.78 9.87-7.34 17.92l-1.91 27.87c-7 4.64-11.21 12.24-11.38 22.56l-0.37-1.45c-0.15-9.89 3.54-17.85 9.63-22.23z" fill="#FF7A1C"/>
  <defs>
    <linearGradient id="paint0_linear_116_1738" x1="176.7" x2="72.91" y1="117.8" y2="138" gradientUnits="userSpaceOnUse">
      <stop stop-color="#29ABE2" offset="0"/>
      <stop stop-color="#3169B1" offset=".2135"/>
      <stop stop-color="#394B8C" offset=".3466"/>
      <stop stop-color="#421415" offset="1"/>
    </linearGradient>
    <linearGradient id="paint1_linear_116_1738" x1="110.1" x2="93.8" y1="79.24" y2="119.6" gradientUnits="userSpaceOnUse">
      <stop stop-color="#822911" offset="0"/>
      <stop stop-color="#991F12" offset="1"/>
    </linearGradient>
    <linearGradient id="paint2_linear_116_1738" x1="36.68" x2="36.68" y1="140.8" y2="191.8" gradientUnits="userSpaceOnUse">
      <stop stop-color="#AF4725" offset="0"/>
      <stop stop-color="#953829" offset=".9951"/>
    </linearGradient>
    <linearGradient id="paint3_linear_116_1738" x1="156.7" x2="156.7" y1="102.6" y2="142.8" gradientUnits="userSpaceOnUse">
      <stop stop-color="#29ABE2" offset="0"/>
      <stop stop-color="#3169B1" offset=".2135"/>
      <stop stop-color="#394B8C" offset=".3466"/>
      <stop stop-color="#421415" offset="1"/>
    </linearGradient>
  </defs>
</svg>