<svg xmlns="http://www.w3.org/2000/svg" width="200" height="200" fill="none" viewBox="0 0 200 200">
<!-- SVG created with Arrow, by QuiverAI (https://quiver.ai) -->
  <path d="m189.6 155.7-7.8-43.71c-0.35-1.96-1.5-3.7-3.19-4.77l-15.58-9.75-0.97-12.25c-0.15-1.93-0.82-3.79-2-5.33l-9.86-13.2-14-41.08c-0.96-2.95-2.55-4.87-5.48-5.84l-17.13-5.99c-1.91-0.74-4.12-0.98-6.13-0.59l-9.26 1.62-1.72-3.72c-0.97-2.27-2.96-3.03-5.73-3.26l-18.65-2.14c-2.05-0.32-3.72 0.05-5.27 1.51l-30.35 27.32c-1.53 1.39-2.5 3.4-2.65 5.52l-2.72 49.93-13.33 11.8c-1.31 1.22-2.25 2.9-2.58 4.74l-5.14 22.82c-0.38 1.74-0.19 3.56 0.55 5.21l13.13 32.54c0.96 2.51 2.68 3.83 5.34 4.42l17.89 3.97 45.22 18.5c2.01 0.82 4.01 0.78 6.01-0.09l39.99-17.19 10.98 5.8c2.73 1.47 6.05 1.24 8.64-0.7l28.91-20.32c2.22-1.4 3.26-3.42 2.88-5.77z" fill="#6E18B1" opacity=".15"/>
  <path d="m188 156.2-7.79-43.37c-0.33-1.87-1.43-3.49-3-4.51l-15.05-10.1-1.28-12.97c-0.2-2-0.9-3.92-2.11-5.51l-9.62-13.55-13.67-40.23c-0.92-2.83-2.08-4.22-4.91-5.31l-18.14-5.68c-1.72-0.66-3.49-0.74-5.33-0.41l-9.36 1.72-1.65-4.05c-0.86-2.21-2.04-2.86-4.66-3.1l-19.3-1.92c-1.9-0.25-2.96 0.06-4.43 1.38l-30.77 26.4c-1.44 1.3-2.12 2.72-2.27 4.77l-2.63 50.28-13.66 11.68c-1.27 1.17-2.14 2.79-2.49 4.55l-5.05 22.46c-0.38 1.64-0.2 3.15 0.5 4.7l13.56 33.13c0.89 2.35 2.22 3.05 4.74 3.65l18.41 4.04 45.19 18.43c1.72 0.74 3.2 0.58 4.92-0.2l40.59-17.42 11.19 5.72c2.52 1.33 5.32 1.02 7.71-0.77l28.36-19.63c1.8-1.14 2.39-2.26 2-4.18z" fill="url(#paint0_linear_404_6322)"/>
  <path d="m185.5 156.5-7.6-42.97c-0.25-1.32-0.98-2.51-2.13-3.27l-14.98-10.5c-0.69-0.49-1.28-1.37-1.38-2.37l-1.04-11.98c-0.13-1.59-0.72-3.15-1.68-4.5l-9.37-13.89-14.3-40.82c-0.64-1.95-1.66-3.05-3.67-3.81l-17.89-6.16c-1.42-0.56-2.74-0.66-4.27-0.41l-10.46 1.94c-0.59 0.12-1.14-0.2-1.38-0.75l-1.44-3.67c-0.59-1.55-1.46-2.07-3.2-2.26l-19.04-1.93c-1.28-0.14-2.22 0.17-3.23 1.09l-30.43 26.12c-1.07 0.95-1.66 2.27-1.76 3.7l-2.79 50.36-13.58 12.29c-1.06 0.98-1.78 2.34-2.1 3.86l-4.92 22.11c-0.27 1.13-0.18 2.18 0.34 3.26l13.74 33.68c0.71 1.87 1.5 2.36 3.46 2.8l18.88 4.33 44.96 17.99c1.11 0.44 2 0.37 3.11-0.12l41.2-17.99 12.4 6.48c1.72 0.95 3.52 0.75 5.17-0.45l27.82-19.7c1.21-0.85 1.8-1.2 1.56-2.46z" fill="url(#paint1_linear_404_6322)" stroke="#6E18B1" stroke-miterlimit="10" stroke-width="2"/>
  <path d="m14.97 130 12.4 34.03 22.84 6.72-3.15-9.36 2.72-16.33 4.18-2.27 24.03 15.1 12.72 26.09 5.36-0.5 10.3-16.49 14.65-11.44 7.89 9.36 8.89 6.47 14.65 6.22 32.47-20.77-5.86-30.53-20.31-26.1-7.89-19.77-5.35-12.7-13.4-42.75-2.65-0.44-12.4 9.64-1.84 4.21-19.81 7.89-37.29 4.9-5.86-3.14-12.84-10.85-3.73 53.55-14.64 12.81-6.08 26.45z" fill="url(#paint2_linear_404_6322)"/>
  <path d="m158.4 100.6-5.29 10.1-8.81 13.21-1.6 8.01 5.23 26.41 4.98 7.47 3.17-18.43 8.39-13.7 10.3-20.16-16.37-12.91z" fill="url(#paint3_linear_404_6322)"/>
  <path d="m143.1 131.4 12.69 6.22-3 21.1 0.11 18.89 2.39-14.51-0.57-11.45 3.8-12.81 5.36-1.8 14.86-11.35-3.98-12.61-1.53 0.67 2 11.04-7.96 8.41-6.43 2.02-16.75-4.15-0.99 0.33z" fill="url(#paint4_linear_404_6322)"/>
  <path d="m142 136.1-1.53-5.68 0.18-6.16-2.52-15.94 2.32-16.95 12.4-8.9-12.4 8.43-3.14-0.76-5.6-7.67-3.5 2.02-4.33 9.88-6.63 5.87-4.95 10.66-14.65 11.83 2.39 1.44 9.67-12.5 8.39-2.95 7.11 0.76 8.89-0.76 4.33 2.95 0.57 10.95-1.69 6.8 2.52 8.43-3.14 10.11-6.51 16.21-6.69 13.47 14.3-6.47-0.48-20.78 2.01 8.88-0.32 12.15 13.44 6.71 0.36-13.64-2.49-0.32c-3.31-3.95-5.07-8.73-6.01-13.95l-2.3-14.12z" fill="url(#paint5_linear_404_6322)"/>
  <path d="m137 47.07-1.93 18.65 4.65 0.42-5.6 1.07-5.2 14.07-1.93-10.84-2.89-4.3 2.22-16.49-1.53-5.8-0.39-7.67 6.24-11.84 6.36 22.73z" fill="#797A7F"/>
  <path d="m39.01 37.66 31.1-25.75 1.72-0.51 21.08 1.02 2.9 5.5-4.95 3.48-3.02 4.53 8.39-5.61 13.28-2.76 19.95 6.16-11.97 9.89-3.5 4.5-18.18 7.9-35.4 5.77-2.29-1.07 6.49-3.99-10.38 1.59-5.79-3.58-7.11-7.91-2.32 0.84z" fill="#A1A6AA"/>
  <path d="m40.22 42.19-4 47.8 10.76 17.03-21.81-3.11 9.89-10.77 0.63-1.33 11.44 14.65-10.45 4.94-14.06-4.22-5.51 20.18 12.5 10.85 2.72 1.58-4.41 11.83 4.41-9.31 1.53 0.39-1.14-3.98 2.72-5.91-3.8 6.35 6.27 3.15 7.11 0.76 7.89-4.35 3.73-5.03-0.24-17.65-3.08-6.57-5.79-3.25-12.47-14.86 5.55-48.33-0.39-0.84z" fill="url(#paint6_linear_404_6322)"/>
  <path d="m43.02 60.11 5 13.62-4.33-5.57-0.67-8.05z" fill="#72767B"/>
  <path d="m47.06 72.61 1.38 7.21-1.38-7.21z" fill="#696D72"/>
  <path d="m34.64 108.7 3.27 9.7 1.51 9.82 0.29 10.49-1.8 3.59 8.04 2.09 2.32 5.7 1.94-7.03 4.48-3.45-1.78-0.9-1.53-18.13-6.36-10.26-10.38-1.62z" fill="url(#paint7_linear_404_6322)"/>
  <path d="m52.34 90.22 5.35 9.64 0.43 6.83-1.48 10.37 2.15-1.02 4.16-12.03-5.26-15.96-0.67-26.14-2.51-4.93-10.82-11.38 11.96 12.36 2.04 5.35v17.04l-0.38 7.7-4.97 2.17z" fill="url(#paint8_linear_404_6322)"/>
  <path d="m52.91 95.32 4 7.29 0.78 5.66-1.05 6.74 1.94-1.95 0.84-9.48-3.07-6.54-3.44-4.62v2.9z" fill="#606469"/>
  <path d="m56.4 117.9 1.29 2.51 0.43 12.79-1.72-15.3z" fill="#29292F"/>
  <path d="m53.32 141.4 25.96 14.78 1.79 4.46 9.64 22.9-13.58-19.77-5.86-9.36-17.08-11.19-3.98 1.9 3.11-3.72z" fill="url(#paint9_linear_404_6322)"/>
  <path d="m47.6 162.1 2.61 9.3 28.01 12.1-2.52-15.89-4.43-12.38-9.45-6.48-8.57-3.6-5.65 16.95z" fill="url(#paint10_linear_404_6322)"/>
  <path d="m75.7 167 2.72 4.75 1.06 11.74-1.97-1.39-0.38-8.04-1.43-7.06z" fill="#332F39"/>
  <path d="m53.25 140.2 6.89-4.05 5.53-0.92 13.81 2.6-12.4-1.12-5.89 1.49-7 3.16-0.94-1.16z" fill="#55585E"/>
  <path d="m84.59 146.9c2.22-3.49 6.34-3.7 10.73-4.22-6.24 0.24-9.11 0.98-10.73 4.22z" fill="#55585E"/>
  <path d="m137 113.5 1.73 9.53-8.53 3.34 6.8-12.87z" fill="url(#paint11_linear_404_6322)"/>
  <path d="m144.1 131.1 11.84 6.75-4.44 27.17-1.19-0.85 3.66-21.09 1.25-5.23-11.12-6.75z" fill="url(#paint12_linear_404_6322)"/>
  <path d="m163.6 164.5 4.19-10.97 2.8-3.75 3.8-8.88c-3.65 3.05-5.49 7.07-7.12 11.6-1.89 3.77-2.88 7.8-3.67 12z" fill="#494552"/>
  <path d="m135.7 67.02-6.97 9.88-1.21 5.97-4.61 9.75-6.76 6.4-5.69 11.7-11.26 10.19 8.63-7.07 5.14-3.58 6.21-11.55 6.46-6.29 3.4-8.91 4.57 5.03 5.71 2.82-0.89 17.35 1.4 2.01v-18.3l13.02-9.96-11.44 8.16-4.1-1.49-5.6-6.67h-2.26l0.73-4.05 5.52-11.39z" fill="#413A4A"/>
  <path d="m126.8 105.8 2.92-5.28v-3.44l-2.92 5.67v3.05z" fill="#53505B"/>
  <path d="m123 67.41-2.37 7.58-5.19 7.88 5.86-7.13 2.55-7.13-0.85-1.2z" fill="#53505B"/>
  <path d="m63.22 107.2 3.5 6.93 14.3 0.84 10.39-3.93-9.2 6.19-14.89-0.25-4.64-5.3 0.54-4.48z" fill="#53505B"/>
  <path d="m70.04 92.62 0.74-11.34 3.65-9.64 14.81-9.02 6.17-6.15-22.19 13.97-3.18 10.37v11.81z" fill="#82888C"/>
  <path d="m56.52 35.1c3.25-1.52 6.7-2.39 10.2-2.49l5.11-0.52-4.22 1.7-11.09 1.31z" fill="#798084"/>
  <path d="m119 34.82 1.72 1.36 1.53 16.08 2.52 15.9 2.52 4.45 0.89 5.31-2.14-6.6-3.04-5.18-4-28.03v-3.29z" fill="#471473"/>
  <path d="m95.81 17.92 13.02-1.69 20.63 7.49-10.75 8.89-2.52 5.05-15.12 6.05 12.53-5.29 3.89-4.81 9.84-9.04-18.02-7.01-11.26 1.25-10.28 7.12 8.04-8.01z" fill="#899195"/>
  <path d="m118.1 108.7 17.6 2.01-8.38 16.24-7.32 8.43-38.32 19.42 0.72 1.51 26.82-12.81 13.69-6.79 5.79-7.1 7-18.48-2.09-2.02-8.4 0.35-7.11-0.76z" fill="url(#paint13_linear_404_6322)"/>
  <path d="m96.23 123.9 10.93 1.46 6.44 1.97h10.49l3.02-1.35-4.07-0.3-7.12 0.62-12.91-2.08-6.78-0.32z" fill="#575C62"/>
  <path d="m75.42 127.4 15.29-1.97 9.34-2.27-5.14 0.62-4.74 1.65-14.75 1.97z" fill="#686C72"/>
  <path d="m128.7 134.8-6.1 19.1 6.1-17.81 1.48-11.84-1.48 3.11v7.44z" fill="#312A36"/>
  <defs>
    <linearGradient id="paint0_linear_404_6322" x1="99.67" x2="99.67" y1="6.953" y2="193.9" gradientUnits="userSpaceOnUse">
      <stop stop-color="#5B0091" offset="0"/>
      <stop stop-color="#A53BE6" offset="1"/>
    </linearGradient>
    <linearGradient id="paint1_linear_404_6322" x1="99.7" x2="99.7" y1="8.998" y2="191.3" gradientUnits="userSpaceOnUse">
      <stop stop-color="#2D0056" offset="0"/>
      <stop stop-color="#621497" offset="1"/>
    </linearGradient>
    <linearGradient id="paint2_linear_404_6322" x1="100.3" x2="100.3" y1="24.34" y2="184" gradientUnits="userSpaceOnUse">
      <stop stop-color="#91989C" offset="0"/>
      <stop stop-color="#5C4E68" offset="1"/>
    </linearGradient>
    <linearGradient id="paint3_linear_404_6322" x1="161.6" x2="161.6" y1="100.6" y2="138.9" gradientUnits="userSpaceOnUse">
      <stop stop-color="#A1A6AA" offset="0"/>
      <stop stop-color="#797A80" offset="1"/>
    </linearGradient>
    <linearGradient id="paint4_linear_404_6322" x1="160.9" x2="160.9" y1="113.1" y2="177.6" gradientUnits="userSpaceOnUse">
      <stop stop-color="#C077E0" offset="0"/>
      <stop stop-color="#795497" offset="1"/>
    </linearGradient>
    <linearGradient id="paint5_linear_404_6322" x1="130.8" x2="130.8" y1="81.28" y2="178.1" gradientUnits="userSpaceOnUse">
      <stop stop-color="#63596A" offset="0"/>
      <stop stop-color="#463852" offset="1"/>
    </linearGradient>
    <linearGradient id="paint6_linear_404_6322" x1="34.64" x2="34.64" y1="42.19" y2="151.6" gradientUnits="userSpaceOnUse">
      <stop stop-color="#A1A6AA" offset="0"/>
      <stop stop-color="#797A80" offset="1"/>
    </linearGradient>
    <linearGradient id="paint7_linear_404_6322" x1="42.18" x2="42.18" y1="108.7" y2="143.1" gradientUnits="userSpaceOnUse">
      <stop stop-color="#82888C" offset="0"/>
      <stop stop-color="#6A6373" offset="1"/>
    </linearGradient>
    <linearGradient id="paint8_linear_404_6322" x1="49.65" x2="57.31" y1="45.6" y2="104.9" gradientUnits="userSpaceOnUse">
      <stop stop-color="#ECE1FF" offset="0"/>
      <stop stop-color="#B682E6" offset=".5052"/>
      <stop stop-color="#881F96" offset="1"/>
    </linearGradient>
    <linearGradient id="paint9_linear_404_6322" x1="70.46" x2="70.46" y1="141.4" y2="183.5" gradientUnits="userSpaceOnUse">
      <stop stop-color="#ECE1FF" offset="0"/>
      <stop stop-color="#B682E6" offset=".5052"/>
      <stop stop-color="#881F96" offset="1"/>
    </linearGradient>
    <linearGradient id="paint10_linear_404_6322" x1="63.06" x2="63.06" y1="148.8" y2="183.5" gradientUnits="userSpaceOnUse">
      <stop stop-color="#665A70" offset="0"/>
      <stop stop-color="#52465D" offset="1"/>
    </linearGradient>
    <linearGradient id="paint11_linear_404_6322" x1="134.5" x2="134.5" y1="113.5" y2="126.4" gradientUnits="userSpaceOnUse">
      <stop stop-color="#918099" offset="0"/>
      <stop stop-color="#784C83" offset="1"/>
    </linearGradient>
    <linearGradient id="paint12_linear_404_6322" x1="150" x2="150" y1="131.1" y2="165" gradientUnits="userSpaceOnUse">
      <stop stop-color="#C077E0" offset="0"/>
      <stop stop-color="#795497" offset="1"/>
    </linearGradient>
    <linearGradient id="paint13_linear_404_6322" x1="108.7" x2="108.7" y1="108.7" y2="156.3" gradientUnits="userSpaceOnUse">
      <stop stop-color="#ECE1FF" offset="0"/>
      <stop stop-color="#B682E6" offset=".5052"/>
      <stop stop-color="#881F96" offset="1"/>
    </linearGradient>
  </defs>
</svg>