<svg xmlns="http://www.w3.org/2000/svg" width="250" height="250" fill="none" viewBox="0 0 250 250">
<!-- SVG created with Arrow, by QuiverAI (https://quiver.ai) -->
  <rect width="250" height="229.9" fill="#FEFFFE"/>
  <path d="m11.02 88.88 45.95-54.98h136.9l46.48 54.98-115.2 133.2-114.5-132.8 0.4-0.4z" fill="url(#paint0_radial_1933_410)"/>
  <path d="m14.75 88.82 42.62-53h136.2l44.76 52.92-113.2 129.3-112.4-128.9 1.99-0.26z" fill="url(#paint1_linear_1933_410)"/>
  <path d="m17.51 88.91 41.68-50 132.7-0.25 42.9 50.1-109.4 125.1-109-124.2 1.09-0.75z" fill="url(#paint2_linear_1933_410)" stroke="url(#paint2_linear_1933_410)" stroke-miterlimit="10" stroke-width="2.5"/>
  <path d="m22.78 89.04 37.33-46.59h130.5l39.98 46.24-105.2 120.5-103.9-119.7 1.29-0.37z" fill="url(#paint4_linear_1933_410)" stroke="#FEFFFE" stroke-miterlimit="10" stroke-width="2.5"/>
  <path d="m27.09 89.41 32.62-43.65h130.6l33.26 42.86-98.04 116.3-99.29-115.1 0.81-0.41z" fill="url(#paint5_linear_1933_410)" stroke="#70F3FF" stroke-miterlimit="10" stroke-width="2"/>
  <path d="m46.16 89.12 43.79 75.43 33.94 38.28-39.74-113.6-37.99-0.09z" fill="url(#paint6_linear_1933_410)" stroke="#3696CD" stroke-miterlimit="10" stroke-width="2"/>
  <path d="m141 163.1 63.14-74 19.57-0.26-62.77 75.6-33.34 36.2 13.4-37.54z" fill="url(#paint7_linear_1933_410)" stroke="#6248B1" stroke-miterlimit="10" stroke-width="2"/>
  <path d="m139.9 163.1 27.17-74.04 35.05-0.53-41.93 74.79-31.46 36.9 11.17-37.12z" fill="url(#paint8_linear_1933_410)" stroke="#3696CD" stroke-miterlimit="10" stroke-width="2"/>
  <path d="m47.66 88.69 3.62-31.6 27.93-11.68 14.53 12.67-46.08 30.61z" fill="url(#paint9_linear_1933_410)" stroke="#3696CD" stroke-miterlimit="10" stroke-width="2"/>
  <path d="m198.4 57.09-26.27-12-13.96 12.14 44.06 29.88-3.83-30.02z" fill="url(#paint10_linear_1933_410)" stroke="#3696CD" stroke-miterlimit="10" stroke-width="2"/>
  <path d="m192.1 45.23-13.95 0.18 16.81 7.18-2.86-7.36z" fill="url(#paint11_linear_1933_410)" stroke="#3696CD" stroke-miterlimit="10" stroke-width="2"/>
  <path d="m60.84 45.54-5.65 7.14 16.79-6.92-11.14-0.22z" fill="url(#paint12_linear_1933_410)" stroke="#3696CD" stroke-miterlimit="10" stroke-width="2"/>
  <path d="m162.7 43.78-2.53 3.2-29.7-0.89 25.92 11.14 13.51-12-1.5-1.52-5.7 0.07z" fill="url(#paint13_linear_1933_410)" stroke="#3696CD" stroke-miterlimit="10" stroke-width="2"/>
  <path d="m82.71 45.76 12.03 11.06 27.67-11.41-39.7 0.35z" fill="url(#paint14_linear_1933_410)" stroke="#3696CD" stroke-miterlimit="10" stroke-width="2"/>
  <path d="m95.68 58.35 29.84-12.94 27.93 11.82-28.33 31.06-29.44-29.94z" fill="url(#paint15_linear_1933_410)" stroke="#3696CD" stroke-miterlimit="10" stroke-width="2"/>
  <path d="m157.1 59.07 9.84 29.69-40.78-0.14 30.94-29.55z" fill="url(#paint16_linear_1933_410)" stroke="#3696CD" stroke-miterlimit="10" stroke-width="2"/>
  <path d="m94.15 60.02-10.22 28.8 38.88-0.26-28.66-28.54z" fill="url(#paint17_linear_1933_410)" stroke="#3696CD" stroke-miterlimit="10" stroke-width="2"/>
  <path d="m201.4 61.02 2.55 26.8 18.44-0.15-20.99-26.65z" fill="url(#paint18_linear_1933_410)" stroke="#6248B1" stroke-miterlimit="10" stroke-width="2"/>
  <path d="m55.94 101 49.58 54.84-0.64-2.64-20.55-23.05-28.39-29.15z" fill="url(#paint19_linear_1933_410)" stroke="#3696CD" stroke-miterlimit="10" stroke-width="2"/>
  <path d="m103.6 90.28v20.16l17.17 17.46v63.14" stroke="#2786D1" stroke-miterlimit="10" stroke-width="2.5"/>
  <path d="m133.8 89.08v19.23" stroke="#2786D1" stroke-miterlimit="10" stroke-width="2.5"/>
  <path d="m116.8 89.08v14.61" stroke="#2786D1" stroke-miterlimit="10" stroke-width="2.5"/>
  <path d="m149.8 90.01v20.43l-20.77 18.77v65.02" stroke="#2786D1" stroke-miterlimit="10" stroke-width="2.5"/>
  <path d="m95.54 118.1 16.08 15.22v31.71" stroke="#2786D1" stroke-miterlimit="10" stroke-width="2.5"/>
  <path d="m138.7 139.1v27.91" stroke="#2786D1" stroke-miterlimit="10" stroke-width="2.5"/>
  <circle cx="116.4" cy="107.4" r="3.603" fill="#2786D1"/>
  <circle cx="133.7" cy="112.4" r="3.603" fill="#2786D1"/>
  <circle cx="138.9" cy="135.7" r="3.603" fill="#2786D1"/>
  <circle cx="116.4" cy="107.1" r="2.353" fill="#2786D1"/>
  <circle cx="133.7" cy="112.4" r="2.353" fill="#2786D1"/>
  <circle cx="138.9" cy="135.5" r="2.353" fill="#2786D1"/>
  <defs>
    <radialGradient id="paint0_radial_1933_410" cx="0" cy="0" r="1" gradientTransform="translate(125.5 87.98) scale(131.8 129.9)" gradientUnits="userSpaceOnUse">
      <stop stop-color="#00FFF0" offset="0"/>
      <stop stop-color="#69F1FF" offset=".48"/>
      <stop stop-color="#B100E6" offset="1"/>
    </radialGradient>
    <linearGradient id="paint1_linear_1933_410" x1="125.6" x2="125.6" y1="33.9" y2="222.1" gradientUnits="userSpaceOnUse">
      <stop stop-color="#00FFF0" offset="0"/>
      <stop stop-color="#69F1FF" offset=".48"/>
      <stop stop-color="#B100E6" offset="1"/>
    </linearGradient>
    <linearGradient id="paint2_linear_1933_410" x1="125.7" x2="125.7" y1="37.41" y2="216.8" gradientUnits="userSpaceOnUse">
      <stop stop-color="#29FDFF" offset="0"/>
      <stop stop-color="#FEFFFE" offset="1"/>
    </linearGradient>
    <linearGradient id="paint4_linear_1933_410" x1="126.3" x2="126.3" y1="41.21" y2="210.4" gradientUnits="userSpaceOnUse">
      <stop stop-color="#36CBEB" offset="0"/>
      <stop stop-color="#2479D4" offset=".51"/>
      <stop stop-color="#1A3A62" offset="1"/>
    </linearGradient>
    <linearGradient id="paint5_linear_1933_410" x1="125.4" x2="125.4" y1="43.71" y2="206" gradientUnits="userSpaceOnUse">
      <stop stop-color="#36CBEB" offset="0"/>
      <stop stop-color="#2479D4" offset=".51"/>
      <stop stop-color="#1A3A62" offset="1"/>
    </linearGradient>
    <linearGradient id="paint6_linear_1933_410" x1="84.79" x2="84.79" y1="88.62" y2="202.8" gradientUnits="userSpaceOnUse">
      <stop stop-color="#2479D4" offset="0"/>
      <stop stop-color="#1A3A62" offset="1"/>
    </linearGradient>
    <linearGradient id="paint7_linear_1933_410" x1="175.7" x2="175.7" y1="88.55" y2="204.9" gradientUnits="userSpaceOnUse">
      <stop stop-color="#2479D4" offset="0"/>
      <stop stop-color="#1A3A62" offset="1"/>
    </linearGradient>
    <linearGradient id="paint8_linear_1933_410" x1="165.5" x2="165.5" y1="88.55" y2="200.2" gradientUnits="userSpaceOnUse">
      <stop stop-color="#2479D4" offset="0"/>
      <stop stop-color="#1A3A62" offset="1"/>
    </linearGradient>
    <linearGradient id="paint9_linear_1933_410" x1="70.7" x2="70.7" y1="44.91" y2="88.69" gradientUnits="userSpaceOnUse">
      <stop stop-color="#36CBEB" offset="0"/>
      <stop stop-color="#2479D4" offset="1"/>
    </linearGradient>
    <linearGradient id="paint10_linear_1933_410" x1="180" x2="180" y1="44.59" y2="87.11" gradientUnits="userSpaceOnUse">
      <stop stop-color="#1A5590" offset="0"/>
      <stop stop-color="#1A3A62" offset="1"/>
    </linearGradient>
    <linearGradient id="paint11_linear_1933_410" x1="186.3" x2="186.3" y1="44.73" y2="53.09" gradientUnits="userSpaceOnUse">
      <stop stop-color="#1A5590" offset="0"/>
      <stop stop-color="#1A3A62" offset="1"/>
    </linearGradient>
    <linearGradient id="paint12_linear_1933_410" x1="63.59" x2="63.59" y1="45.26" y2="52.68" gradientUnits="userSpaceOnUse">
      <stop stop-color="#1A5590" offset="0"/>
      <stop stop-color="#1A3A62" offset="1"/>
    </linearGradient>
    <linearGradient id="paint13_linear_1933_410" x1="150.2" x2="150.2" y1="43.71" y2="57.23" gradientUnits="userSpaceOnUse">
      <stop stop-color="#1A5590" offset="0"/>
      <stop stop-color="#1A3A62" offset="1"/>
    </linearGradient>
    <linearGradient id="paint14_linear_1933_410" x1="102.6" x2="102.6" y1="45.26" y2="56.82" gradientUnits="userSpaceOnUse">
      <stop stop-color="#1A5590" offset="0"/>
      <stop stop-color="#1A3A62" offset="1"/>
    </linearGradient>
    <linearGradient id="paint15_linear_1933_410" x1="124.6" x2="124.6" y1="44.91" y2="88.29" gradientUnits="userSpaceOnUse">
      <stop stop-color="#2479D4" offset="0"/>
      <stop stop-color="#2479D4" offset="1"/>
    </linearGradient>
    <linearGradient id="paint16_linear_1933_410" x1="146.5" x2="146.5" y1="58.57" y2="88.76" gradientUnits="userSpaceOnUse">
      <stop stop-color="#1A3A62" offset="0"/>
      <stop stop-color="#1A5590" offset="1"/>
    </linearGradient>
    <linearGradient id="paint17_linear_1933_410" x1="103.4" x2="103.4" y1="59.52" y2="88.82" gradientUnits="userSpaceOnUse">
      <stop stop-color="#2479D4" offset="0"/>
      <stop stop-color="#2479D4" offset="1"/>
    </linearGradient>
    <linearGradient id="paint18_linear_1933_410" x1="211.8" x2="211.8" y1="60.52" y2="88.12" gradientUnits="userSpaceOnUse">
      <stop stop-color="#1A3A62" offset="0"/>
      <stop stop-color="#1A5590" offset="1"/>
    </linearGradient>
    <linearGradient id="paint19_linear_1933_410" x1="80.45" x2="80.45" y1="100.5" y2="156.4" gradientUnits="userSpaceOnUse">
      <stop stop-color="#1A3A62" offset="0"/>
      <stop stop-color="#1A5590" offset="1"/>
    </linearGradient>
  </defs>
</svg>