<svg xmlns="http://www.w3.org/2000/svg" width="200" height="200" fill="none" viewBox="0 0 200 200">
<!-- SVG created with Arrow, by QuiverAI (https://quiver.ai) -->
  <path d="m3.79 122.8 5.69-13.83 4.08-2.54-3.98-5.35-6.58-25.81 8.07-11.98 5.14-7.57 7.09-28.53 0.94-0.84 32.23-17.87 0.51-0.11 32.97 4.35 0.94 0.73 7.87 21.38 16.25-25.27 4.93-4.24 1.16-0.41 8.07-0.32 5.59 0.84 1.36 1.47 2.07-1.04 1.67 0.31c8.48 3.14 21.86 9.86 24.9 12.61 4.06 3.64 17.12 16.97 18.59 19.3l0.62 1.94 0.94 0.72 3.65 9.21 0.21 3.24-1.04 5.68-18.5 25.61 5.39-3.58 2.84-0.31 1.37 0.31c2.95 1.37 7.78 5.06 8.09 6.82l0.31 5.58 6.53 2.24 2.07 2.75 2.07 6.49-0.41 2.64-2.54 7-7.87 4.05-6.53-1.47-4.83 4.15 0.52 5.48-6.63 11.36-3.96 22.93c-3.76 10.83-15.56 25.05-23.94 30.54l-10.8 4.5-25.83-6.18-17.89-14.98-39.26 14.36-3.55 0.52-12.85-4.25-5.59-5.58-0.51-1.94h-2.44l-2.44-2.44-6.94-13.83-7.56-13.93-1.87-13.83 0.31-9.32-0.7-1.76zm151.5-21.61 7.97 0.83 2.06-3.73-0.51-3.64 0.84-6.48-10.36 13.02z" fill="url(#paint0_linear_216_2113)" stroke="#36009B" stroke-linecap="round" stroke-linejoin="round" stroke-width="1.701"/>
  <path d="m5.92 75.23 6.42 24.84 8.42 9.84 39.86-10.94 19.11-33.04 6.34-5.22 11.84-21.85-9.43-23.85-31.29-4.24-31.18 17.87-7.46 27.92-5.24 7.09-7.39 11.58z" fill="url(#paint1_linear_216_2113)" stroke="#004260" stroke-linecap="round" stroke-linejoin="round" stroke-width="2.551"/>
  <path d="m7.68 76.16 6.24 21.55 7.25 8.35 36.94-10.05 24.6-31.64 4.63-4.15 9.02-21.26-9.84-21.95-29.03-3.94-29.03 17.56-7.77 25.12-1.03 2.95-6.53 6.39-5.45 11.07z" fill="url(#paint2_linear_216_2113)" stroke="#004260" stroke-linecap="round" stroke-linejoin="round" stroke-width="1.276"/>
  <path d="m58.22 96.74 58.79-83.67 5.3-4.24 10.04-0.31 3.35 2.95 2.34-2.64c8.27 3.05 21.95 10.35 24.9 13 3.75 3.44 15.64 16.3 16.77 18.06l-0.31 1.03 2.64 1.36 3.05 8.44-0.84 6.38-4.44 5.47-35.69 44.42-23.24-0.93-11.61 1.86-51.05-11.18z" fill="url(#paint3_linear_216_2113)" stroke="#36009B" stroke-linecap="round" stroke-linejoin="round" stroke-width="2.551"/>
  <path d="m60.09 96.01 55.78-79.1 3.55 9.95 0.21 0.31-0.72 1.94-40.07 36.72-18.75 30.18z" fill="url(#paint4_linear_216_2113)" stroke="#004260" stroke-linecap="round" stroke-linejoin="round" stroke-width="1.276"/>
  <path d="m121.8 10.06-2.75 3.01-0.62 2.95 1.75 9.75 9.33 1.84-5.25 1.86 7.4 10.48 1.75 1.46-3.34 1.37 4.84 4.56 15.67 9.85 11.7 3-0.83-8.95 6.33 8.74 10.91-0.93 4.25-5.89-0.83-5.58-3.65-6.9-6.94-2.44 5.92-0.63-16.3-15.57-21.61-11.27-2.44-0.62 3.25 8.14-6.93-8.44-11.61 0.21z" fill="url(#paint5_linear_216_2113)" stroke="#75452E" stroke-linecap="round" stroke-linejoin="round" stroke-width="1.276"/>
  <path d="m127.5 14.91-1.34 2.31 0.72 4.25 5 6.76-3.45-1.47-2.64-7.63 2.33-4.65 7.87-0.42-1.96-0.84-6.53 1.69z" fill="#895839"/>
  <path d="m145.9 17.86 8.87 4.25 14.65 14.97 5.82 7.1-0.62 7-3.55 1.84-8.77-2.44 8.57 1.47 3.04-2.04 0.31-5.27-6.33-8.73-11.11-11.36-10.88-6.79z" fill="#895839"/>
  <path d="m141.1 23.24-1.04 0.93 0.84 4.78 8.46 8.24 5.35 3.95 0.62-6.18-4.24-3.84 4.95 2.85 6.22 6.39-1.36 3.74 3.04-0.73-0.84-5.24-7.05-8.04-5.92-2.13-9.03-4.72z" fill="#895839"/>
  <path d="m137.8 38.44 7.46 0.83-2.34 0.62c4.54 4.53 10.22 8.42 14.76 10.07-5.49-1.24-11.6-4.6-17.59-9.95l-2.29-1.57z" fill="#895839"/>
  <path d="m164.8 61.65-5.14 0.41 18.39-0.31-27.84 38.53-6.02 5.37 4.25-0.93 16.36-23.57v-16.45l1.27-1.71-1.27-1.34z" fill="#631868"/>
  <path d="m118.7 105.6 15.28-19.51 14.54-2.75 17-23.96 1.46 3.64-18.26 23.07-14.23 2.23-11.21 16.76-4.58 0.52z" fill="url(#paint6_linear_216_2113)" stroke="#A144FF" stroke-linecap="round" stroke-linejoin="round" stroke-width="1.701"/>
  <path d="m135.2 104.7 8.47-10.25 5.45-1.03-1.76 3.35-4.15 0.83-5.15 7.2-2.86-0.1z" fill="url(#paint7_linear_216_2113)" stroke="#A144FF" stroke-linecap="round" stroke-linejoin="round" stroke-width="1.276"/>
  <path d="m134.7 44.01-7.04 0.73-10.45 19.42 12.21-10.25 2.34-3.85 4.94 3.64 13.27 4.05-13.06 18.51 14.14-18.51-16.35-13.74z" fill="#6D3A26"/>
  <path d="m122.1 65.31-3.45 8.65 9.36-6.18 8.09-13.83-7.87 8.01-6.13 3.35z" fill="#6D3A26"/>
  <path d="m125.8 81.26-1.26 4.35 5.91-8.54 10.9-13.73-4.24 9.85-6.66 8.07h-4.65z" fill="#6D3A26"/>
  <path d="m135.8 91.41 14.34-3.75-3.35 4.36-9.42 3.05-1.57-3.66z" fill="#6D3A26"/>
  <path d="m28.13 30.82 4.94 1.36 24.32-19 12.42 1.04-7.56 5.27 8.47-0.93-9.84 10.08 14.75-0.2-12.52 8.64-18.94-0.62 8.77 1.67 4.74 8.74 0.73 11.77-2.24-0.52-4.35-12.28-3.54-8.34-5.14-0.21-2.07 7.09-6.33 6.8-12 6.63-1.37-1.47 6.76-25.52z" fill="#91BBD0" stroke="#004260" stroke-linecap="round" stroke-linejoin="round" stroke-width=".6378"/>
  <path d="m34.23 32.08 5.44-1.86 6.74-5.47-9.74 7.33h-2.44z" fill="#51798C" stroke="#004260" stroke-linecap="round" stroke-linejoin="round" stroke-width=".6378"/>
  <path d="m56.78 32.91 6.43-1.85v2.75l-6.43-0.9z" fill="#91BBD0" stroke="#91BBD0" stroke-linecap="round" stroke-linejoin="round" stroke-width=".6378"/>
  <path d="m62.9 37.29-5.45 8.96 0.52 10.06 6.64-6.19 0.94-7.64-2.65-5.19z" fill="#493269" stroke="#322954" stroke-linecap="round" stroke-linejoin="round" stroke-width=".6378"/>
  <path d="m75.01 28.95 2.17 12.71-1.76 4.46 1.66 5.27 4.84 1.94 1.26 6.89 3.24-3.64 2.55-19.39-2.95-15.77-6.33 3.84-4.68 3.69z" fill="#493269" stroke="#322954" stroke-linecap="round" stroke-linejoin="round" stroke-width=".6378"/>
  <path d="m52.94 63.96-1.56 2.34 2.24 1.25 1.56-1.14 13.59 12.47-2.85 3.23-13.91-8.15-6.64-1.48 3.14-8.63 4.43 0.11z" fill="#51798C" stroke="#322954" stroke-linecap="round" stroke-linejoin="round" stroke-width=".6378"/>
  <path d="m43.14 75.74 6.02-0.62 0.94 3.64-2.85 4.57-14.34 5.68-6.64-1.95 2.06-5.05 11.11-1.95 3.7-4.32z" fill="#91BBD0" stroke="#004260" stroke-linecap="round" stroke-linejoin="round" stroke-width=".6378"/>
  <path d="m12.03 76.05 2.85-5.58 3.45 0.31 1.14 4.34-2.85 6.89-4.59-5.96z" fill="#91BBD0" stroke="#004260" stroke-linecap="round" stroke-linejoin="round" stroke-width=".6378"/>
  <path d="m26.68 88.6 8.47 10.05-1.97 0.52 15.27-0.2 2.64-1.76-2.07-12.9-1.75-0.98-14.55 6.19-6.04-0.92z" fill="#513A69" stroke="#322954" stroke-linecap="round" stroke-linejoin="round" stroke-width=".6378"/>
  <path d="m50.61 75.54 8.27 5.37 5.05 3.15-3.55 4.35-8.98-4.97-0.79-7.9z" fill="#513A69" stroke="#322954" stroke-linecap="round" stroke-linejoin="round" stroke-width=".6378"/>
  <path d="m51.02 88.08 1.97 3.24-0.52 6.39 3.45-2.33 0.31-4.76-5.21-2.54z" fill="#513A69" stroke="#322954" stroke-linecap="round" stroke-linejoin="round" stroke-width=".6378"/>
  <path d="m71.88 25.26 5.59 2.45 3.05 14.16-3.46 4.56 1.56 3.94 4.53 1.66 0.41 6.19" stroke="url(#paint8_linear_216_2113)" stroke-linecap="round" stroke-linejoin="round" stroke-width="2.126"/>
  <path d="m80.21 42.28-2.54 4.96 1.87 3.53 4.34 0.52 2.13-5.17-1.97-3.74-3.83-0.1z" stroke="url(#paint9_linear_216_2113)" stroke-linecap="round" stroke-linejoin="round" stroke-width="2.126"/>
  <path d="m13.4 63.96 12.2 6.29 1.56-1.47 7.58-0.72 8.76-10.45-3.95-14.43-5.14 5.47" stroke="url(#paint10_linear_216_2113)" stroke-linecap="round" stroke-linejoin="round" stroke-width="2.126"/>
  <path d="m25.71 72.48 0.83 5.79 3.15 2.85 9.43-2.44 9.53-16.06 6.84 0.21 15.47 14.47" stroke="url(#paint11_linear_216_2113)" stroke-linecap="round" stroke-linejoin="round" stroke-width="2.126"/>
  <path d="m24.24 86.95 1.16 7.75" stroke="url(#paint12_linear_216_2113)" stroke-linecap="round" stroke-linejoin="round" stroke-width="2.126"/>
  <path d="m31.18 54.21c2.45 0 3.73-1.83 3.56-4.46-0.26-1.68-1.59-2.27-2.95-2.24-2.18 0.05-3.66 1.28-3.66 3.21 0 1.94 1.21 3.39 3.05 3.49z" fill="url(#paint13_linear_216_2113)" stroke="#8A17BF" stroke-linecap="round" stroke-linejoin="round" stroke-width="1.276"/>
  <path d="m54.45 27.21c2.84 0 3.25-1.47 3.15-2.83-0.1-1.07-0.82-1.59-2.68-1.49-2.24-0.1-3.61 1.03-3.71 2.79-0.11 0.93 1.06 1.53 3.24 1.53z" fill="url(#paint14_linear_216_2113)" stroke="#0066A1" stroke-linecap="round" stroke-linejoin="round" stroke-width="1.276"/>
  <path d="m26.43 99.97c2.24 0.94 2.65 0.21 3.37-0.83 0.83-1.56-0.62-3.9-1.88-4.41-2.44-1.14-4.1-0.31-4.51 1.35-0.52 1.57 0.88 3.16 3.02 3.89z" fill="url(#paint15_linear_216_2113)" stroke="#0066A1" stroke-linecap="round" stroke-linejoin="round" stroke-width="1.276"/>
  <path d="m40.46 35.07 10.6-8.84" stroke="url(#paint16_linear_216_2113)" stroke-linecap="round" stroke-linejoin="round" stroke-width="2.126"/>
  <path d="m150.6 107.1-4.14 1.76-23.14-1.76-15.05 1.86-20.1 8.03-10.04 12.08-1.86 14.55 9.94 27.41 19.44 16.36 24.44 5.68 8.87-4.05 5.5-15.55-6.33-20.44-20.5-21.53-17.3-9.48 8.97-3.74-6.94-4.35 17.62-4.97 19.93 4.04 9.23-0.83 4.25-6.1 6.12 1.24 0.62 5.37 8.48-0.51 0.62 8.24 9.83-8.85 9.33 2.23 3.35-3.74 0.93-5.99-2.85-5.29-5.44-1.66-0.41-8.74-5.69-3.74-7.36 2.64-2.65 6.49 0.21 5.17-7.36 7.24-10.52 0.93z" fill="url(#paint17_linear_216_2113)" stroke="#36009B" stroke-linecap="round" stroke-linejoin="round" stroke-width="2.551"/>
  <path d="m170.9 109.1 3.35-5.89-0.52-2.34-4.74 4.46-6.64 4.96 6.64-0.21 1.91-0.98z" fill="#D3B8A6"/>
  <path d="m183.2 90.9-1.76 9.07 1.96 0.21 2.24-1.75 4.25 1.33 1.27 3.25-2.34 5.58-9.33-1.76-9.17 7.2-0.31-4.46-0.72-4.24 2.95-4.84-1.56-6.29 2.07-5.68 4.54-0.51 3.24 2.04 2.67 0.85z" fill="#B79889" stroke="#B79889" stroke-linecap="round" stroke-linejoin="round" stroke-width=".6378"/>
  <path d="m156.3 114.3-1.86-1.97 4.35-0.31 5.4-0.94 0.83 6.69-1.56 4.19 5.44 2.55-6.33 11.26-3.65 23.37-4.64 11.43-0.62-6.49 2.64-7.64 1.56-11.17 3.35-9.19-5.15-8.64-3.55-4.46 6.23-2.85 1.47-4.15-3.91-1.68z" fill="#823636"/>
  <path d="m119.8 112.4 2.55-0.73 4.54 2.19-0.73 2.64-5.05-0.21-2.23-2.04 0.92-1.85z" fill="#A56446" stroke="#A56446" stroke-linecap="round" stroke-linejoin="round" stroke-width=".6378"/>
  <path d="m137.9 127.3 8.37 1.36 9.94-7.34-1.97-5.17 2.65-2.94h-5.05l-4.84 3.14-6.13 0.31-4.64 2.44 1.67 8.2z" fill="#823636" stroke="#823636" stroke-linecap="round" stroke-linejoin="round" stroke-width=".6378"/>
  <path d="m142.8 138.5 2.85-1.36 0.41-3.05-1.76-0.52-1.5 4.93z" fill="#823636" stroke="#823636" stroke-linecap="round" stroke-linejoin="round" stroke-width=".6378"/>
  <path d="m157.6 148 1.03 0.1 0.31-1.85-1.24-0.73-0.1 2.48z" fill="#823636" stroke="#823636" stroke-linecap="round" stroke-linejoin="round" stroke-width=".6378"/>
  <path d="m128.5 131.1 4.25-1.03 0.21-0.83h-1.87l-2.59 1.86z" fill="#823636" stroke="#823636" stroke-linecap="round" stroke-linejoin="round" stroke-width=".6378"/>
  <path d="m130.9 137.9 4.35 1.13 4.64 8.24 5.14-3.54 3.65-6.35-5.69 2.16-4.94-2.26-7.15 0.62z" fill="#823636" stroke="#823636" stroke-linecap="round" stroke-linejoin="round" stroke-width=".6378"/>
  <path d="m141.3 167.4 7.26-9.64-1.86-7.1-5.6 3.54-1.97 5.37 2.17 7.83z" fill="#823636" stroke="#823636" stroke-linecap="round" stroke-linejoin="round" stroke-width=".6378"/>
  <path d="m11.62 112.4 9.74-4.56 14.65 4.86 4.75 5.99 8.57-0.41 13.83-2.54-6.13 2.75-12.61 2.45 8.26 13.11 5.14 17.04-0.11 12.08-1.36 11.06-8.68 10.96-4.25 0.21-10.35-3.64-3.75-4.56 0.11-3.75-3.75 0.52-15.58-27.82-1.97-21.16 5.49 2.95-2-7v-8.54z" fill="url(#paint18_linear_216_2113)" stroke="#36009B" stroke-linecap="round" stroke-linejoin="round" stroke-width="2.551"/>
  <path d="m14.16 113.7 6.85-3.44 12.2 3.34 4.75 6.99-2.85 7.91-5.34-9.25-7.56 0.41-5.9 7.91-3.25-7.4 1.1-6.47z" fill="#89826C" stroke="#89826C" stroke-linecap="round" stroke-linejoin="round" stroke-width=".6378"/>
  <path d="m14.02 130.9 1.04 16.06 9.07 20.74-3.95-6.08-9.27-16.51-1.56-18.51 4.67 4.3z" fill="#42E8E0" fill-opacity=".5" stroke="#322954" stroke-linecap="round" stroke-linejoin="round" stroke-width=".6378"/>
  <path d="m22.79 125.2 2.74-1.86 6.13 1.76 5.44 3.95-2.65 4.15 4.74-1.86 4.54 6.18 9.94 17.27 0.52 12.18-5.5 12.37 3.94-3.54 2.95-5.78-0.51-6.39-9.43-7.53 9.53 3.95-1.14-7.1-11.01-21.85-4.44-2.97-2.44-5.37-5.83-3.78-6.64 0.21-5.04 8.42 4.16-2.41z" fill="#895839" stroke="#6D3A26" stroke-linecap="round" stroke-linejoin="round" stroke-width=".6378"/>
  <path d="m26.03 137 1.14-2.86 2.74 0.31 3.75 3.38 5.69 14.25v8.84l-3.14-0.83-7.56-10.86v-4.56l0.94-1.35 2.07 1.47 3.35 8.24-1.97-6.9-2.75-3.74-1.86 1.23 0.42 5.58 5.34 10.75 5.45 2.75v1.85l-3.45-0.62-5.04-7.13-6.13-12.67 1.01-7.13z" fill="#895836" stroke="#6D3A26" stroke-linecap="round" stroke-linejoin="round" stroke-width=".6378"/>
  <path d="m31.25 165.2 0.83 11.87 5.82 2.33 7.26-0.31-5.92-2.95-6.75-5.88-1.24-5.06z" fill="#895836" stroke="#6D3A26" stroke-linecap="round" stroke-linejoin="round" stroke-width=".6378"/>
  <path d="m53.1 172 2.17-5.89 1.56 3.94-2.74 6.09-4.05 2.33 3.06-6.47z" fill="#895836" stroke="#6D3A26" stroke-linecap="round" stroke-linejoin="round" stroke-width=".6378"/>
  <path d="m53.41 134 11.01-2.95-2.74 3.54-5.35 3.42-2.92-4.01z" fill="#6D3A26" stroke="#6D3A26" stroke-linecap="round" stroke-linejoin="round" stroke-width=".6378"/>
  <path d="m62.29 125.3 12.72-4.88 12.74-3.36-8.67 5.17-12.34 3.85-4.45-0.78z" fill="#6D3A26" stroke="#6D3A26" stroke-linecap="round" stroke-linejoin="round" stroke-width=".6378"/>
  <path d="m66.93 134.2 3.55-1.75 7.14-1.36-2.07 2.49-5.54 1.36-2.95 2.33-0.13-3.07z" fill="#6D3A26" stroke="#6D3A26" stroke-linecap="round" stroke-linejoin="round" stroke-width=".6378"/>
  <path d="m58.85 164.1 20.4-8.95-0.62-2.23-19.68 8.43-0.1 2.75z" fill="url(#paint19_linear_216_2113)" stroke="#8A17BF" stroke-linecap="round" stroke-linejoin="round" stroke-width="1.701"/>
  <path d="m60.72 171 7.56-2.04-2.34 2.95-6.23 1.96 1.01-2.87z" fill="url(#paint20_linear_216_2113)" stroke="#8A17BF" stroke-linecap="round" stroke-linejoin="round" stroke-width="1.276"/>
  <path d="m70.96 175.8 5.79-11.16 5.44-1.85 0.93 3.44-6.94 3.37-2.17 5.17-3.05 1.03z" fill="url(#paint21_linear_216_2113)" stroke="#4421A4" stroke-linecap="round" stroke-linejoin="round" stroke-width="1.701"/>
  <path d="m82.91 132.2 7.87-3.42 7.46 2.64 5.14 9.95v8.85l-2.64 7-4.54 0.93-11.21-9.43-2.08-7.35v-9.17z" fill="url(#paint22_linear_216_2113)" stroke="#0066A1" stroke-linecap="round" stroke-linejoin="round" stroke-width="1.701"/>
  <path d="m89.04 157.5 6.22 2.65 4.54-1.03 2.65 5.88 6.74 4.77v8.44l2.85 3.95-6.13-2.25-13.59-11.67-3.28-10.74z" fill="url(#paint23_linear_216_2113)" stroke="#8A17BF" stroke-linecap="round" stroke-linejoin="round" stroke-width="1.276"/>
  <path d="m103.3 133.1 6.43 1.66 11.5 12.49 1.17 12.18-4.75 1.03-5.04-7.53-5.55-3.15-1.03-11.43-2.73-5.25z" fill="url(#paint24_linear_216_2113)" stroke="#0066A1" stroke-linecap="round" stroke-linejoin="round" stroke-width="1.276"/>
  <path d="m125.2 150.1 5.04 3.54 5.92 11.57-1.46 3.03-8.37-6.49-1.13-11.65z" fill="url(#paint25_linear_216_2113)" stroke="#630035" stroke-linecap="round" stroke-linejoin="round" stroke-width="1.701"/>
  <path d="m116.3 163.2 8.67 1.47 8.88 7.43 3.55 4.97-2.95 7.2-5.34 3.53-7.97-2.54-7.15-8.14-0.83-7.1 3.14-6.82z" fill="url(#paint26_linear_216_2113)" stroke="#630035" stroke-linecap="round" stroke-linejoin="round" stroke-width="1.701"/>
  <path d="m102 153.6c0.83-4.35 4.07-2.59 6.41-1.34 4.25 2.34 8.2 9.78 8.1 13.73-0.1 2.14-1.57 3.68-3.44 3.28-6.43-1.14-12.35-8.48-11.07-15.67z" fill="#D3B8A6" stroke="#A85F3D" stroke-linecap="round" stroke-linejoin="round" stroke-width="1.276"/>
  <path d="m105.2 156.4c0.62-2.44 2.28-2.33 3.11-1.82 3.04 1.76 4.51 5.9 4.3 7.95-0.1 0.83-1.17 1.01-2.1 0.81-3.25-0.62-5.79-3.78-5.31-6.94z" fill="#A56446" stroke="#A56446" stroke-linecap="round" stroke-linejoin="round" stroke-width=".6378"/>
  <path d="m88.63 137 2.34-1.76 0.21 2.17-2.86 2.76 0.31-3.17z" fill="#A56446" stroke="#A56446" stroke-linecap="round" stroke-linejoin="round" stroke-width=".6378"/>
  <path d="m109.2 137.8 4.84 3.54 1.03 2.85-4.64-2.03-1.87-2.12 0.64-2.24z" fill="#A56446" stroke="#A56446" stroke-linecap="round" stroke-linejoin="round" stroke-width=".6378"/>
  <path d="m127.6 156.3 3.15 2.65 0.05 2.2-3.45-2.41 0.25-2.44z" fill="#A56446" stroke="#A56446" stroke-linecap="round" stroke-linejoin="round" stroke-width=".6378"/>
  <path d="m128.4 178.4 2.85-3.95 0.31 3.64-2.44 3.05-6.43-0.73 5.71-2.01z" fill="#601485" stroke="#601485" stroke-linecap="round" stroke-linejoin="round" stroke-width=".6378"/>
  <path d="m98.24 168.4 3.83 1.76 1.76 3.44-3.75-1.76-1.84-3.44z" fill="#A56446" stroke="#A56446" stroke-linecap="round" stroke-linejoin="round" stroke-width=".6378"/>
  <path d="m129.2 168.8 1.67 4.65-3.45 3.54-3.85 0.73-5.44-1.59 5.34 0.1 2.95-2.74 2.78-4.69z" fill="#601485" stroke="#601485" stroke-linecap="round" stroke-linejoin="round" stroke-width=".6378"/>
  <path d="m84.89 114.4c3.1-0.2 3.89-2.72 3.43-5.8l18.72-5.78-1.96-3.74-17.74 7.14c-1.56-0.93-3.03-1.23-4.69-0.2-2.64 1.56-3.37 4.41-2.01 6.75 0.84 1.22 2.27 1.73 4.25 1.63z" fill="#42E8E0" stroke="#0066A1" stroke-linecap="round" stroke-linejoin="round" stroke-width="1.276"/>
  <path d="m116 51.18c2.69-0.27 3.51-2.46 3.2-4.75-0.61-2.64-3.15-3.65-5.01-2.84-2.24 0.93-2.96 2.79-2.04 5.23l-8.48 11.89v9.54l-12.51 19.95 3.04 0.93 13.23-20.13v-9.35l6.53-11.59c0.52 0.72 1.13 1.23 2.04 1.12z" fill="#42E8E0" stroke="#0066A1" stroke-linecap="round" stroke-linejoin="round" stroke-width="1.276"/>
  <path d="m71.14 145.4 5.71-2.08-0.62-2.44-5.6 2.74c-1.46-2.44-3.02-1.92-4.59-1.09-2.06 1.29-3.34 3.8-2.06 5.95 1.37 2.15 3.43 1.92 4.99 0.52 0.94-0.83 1.45-1.96 2.17-3.6z" fill="url(#paint27_linear_216_2113)" stroke="#63008D" stroke-linecap="round" stroke-linejoin="round" stroke-width="1.701"/>
  <path d="m100.1 93.95 11.21-15.78 8.09-1.35 0.31 9.84-11.9 18.47" stroke="url(#paint28_linear_216_2113)" stroke-linecap="round" stroke-linejoin="round" stroke-width="2.976"/>
  <path d="m126 108.1 15.77 8.45c1.96-1.48 4.41-1.06 5.97 0.41 1.86 1.94 1.65 4.59-0.51 6.15-2.44 1.36-5.29 0-6.22-3.04l-8.07-0.91-6.53 5.88-13.88-8.14-8.47-2.58" stroke="url(#paint29_linear_216_2113)" stroke-linecap="round" stroke-linejoin="round" stroke-width="2.551"/>
  <path d="m151.1 154 2.07 9.24-2.07 12.6" stroke="url(#paint30_linear_216_2113)" stroke-linecap="round" stroke-linejoin="round" stroke-width="1.701"/>
  <path d="m150.4 148.2 7.05-13.72c-1.17-2.38-0.66-4.24 0.71-5.08 1.77-0.96 3.03 0.73 3.03 2.8 0 1.76-1.47 3.33-3.64 3.34l-6.23 13.62c1.03 2.75-0.53 5.5-2.59 5.61-2.64 0.1-2.85-2.45-2.85-4.11 0.21-2.76 1.98-4 3.64-3.79 0.31 0 0.62 0.51 0.88 1.33z" fill="url(#paint31_linear_216_2113)" stroke="#0066A1" stroke-linecap="round" stroke-linejoin="round" stroke-width="1.276"/>
  <path d="m47.22 110.9 31.41-8.57 5.05-9.95" stroke="url(#paint32_linear_216_2113)" stroke-linecap="round" stroke-linejoin="round" stroke-width="2.126"/>
  <path d="m76.85 91.13 14.65-17.82v-8.2l1.03-0.93v9.13l-12.42 16.89" stroke="url(#paint33_linear_216_2113)" stroke-linecap="round" stroke-linejoin="round" stroke-width="1.701"/>
  <defs>
    <linearGradient id="paint0_linear_216_2113" x1="100.5" x2="100.5" y1="4.627" y2="196" gradientUnits="userSpaceOnUse">
      <stop stop-color="#09005D" offset="0"/>
      <stop stop-color="#5600BD" offset="1"/>
    </linearGradient>
    <linearGradient id="paint1_linear_216_2113" x1="51.92" x2="51.92" y1="10.37" y2="109.9" gradientUnits="userSpaceOnUse">
      <stop stop-color="#09005D" offset="0"/>
      <stop stop-color="#5600BD" offset="1"/>
    </linearGradient>
    <linearGradient id="paint2_linear_216_2113" x1="52.43" x2="52.43" y1="12.45" y2="106.1" gradientUnits="userSpaceOnUse">
      <stop stop-color="#81D3EF" offset="0"/>
      <stop stop-color="#462A61" offset="1"/>
    </linearGradient>
    <linearGradient id="paint3_linear_216_2113" x1="121.5" x2="140.8" y1="8.516" y2="107.3" gradientUnits="userSpaceOnUse">
      <stop stop-color="#42E8E0" offset="0"/>
      <stop stop-color="#5700B8" offset="1"/>
    </linearGradient>
    <linearGradient id="paint4_linear_216_2113" x1="89.2" x2="89.2" y1="16.91" y2="96.01" gradientUnits="userSpaceOnUse">
      <stop stop-color="#42E8E0" offset="0"/>
      <stop stop-color="#0066A1" offset="1"/>
    </linearGradient>
    <linearGradient id="paint5_linear_216_2113" x1="150.7" x2="150.7" y1="9.848" y2="59.98" gradientUnits="userSpaceOnUse">
      <stop stop-color="#C48751" offset="0"/>
      <stop stop-color="#914D38" offset="1"/>
    </linearGradient>
    <linearGradient id="paint6_linear_216_2113" x1="142.9" x2="142.9" y1="59.43" y2="105.6" gradientUnits="userSpaceOnUse">
      <stop stop-color="#09005D" offset="0"/>
      <stop stop-color="#5600BD" offset="1"/>
    </linearGradient>
    <linearGradient id="paint7_linear_216_2113" x1="142.4" x2="142.4" y1="93.44" y2="104.8" gradientUnits="userSpaceOnUse">
      <stop stop-color="#9D21D1" offset="0"/>
      <stop stop-color="#521BB2" offset="1"/>
    </linearGradient>
    <linearGradient id="paint8_linear_216_2113" x1="56.35" x2="56.35" y1="25.26" y2="58.22" gradientUnits="userSpaceOnUse">
      <stop stop-color="#4F70BD" offset="0"/>
      <stop stop-color="#42E8E0" offset="1"/>
    </linearGradient>
    <linearGradient id="paint9_linear_216_2113" x1="81.7" x2="81.7" y1="41.55" y2="51.29" gradientUnits="userSpaceOnUse">
      <stop stop-color="#4F70BD" offset="0"/>
      <stop stop-color="#42E8E0" offset="1"/>
    </linearGradient>
    <linearGradient id="paint10_linear_216_2113" x1="28.65" x2="28.65" y1="43.18" y2="61.04" gradientUnits="userSpaceOnUse">
      <stop stop-color="#9D21D1" offset="0"/>
      <stop stop-color="#521BB2" offset="1"/>
    </linearGradient>
    <linearGradient id="paint11_linear_216_2113" x1="48.06" x2="48.06" y1="62.62" y2="81.12" gradientUnits="userSpaceOnUse">
      <stop stop-color="#E648FF" offset="0"/>
      <stop stop-color="#521BB2" offset="1"/>
    </linearGradient>
    <linearGradient id="paint12_linear_216_2113" x1="24.82" x2="24.82" y1="86.95" y2="94.7" gradientUnits="userSpaceOnUse">
      <stop stop-color="#4F70BD" offset="0"/>
      <stop stop-color="#42E8E0" offset="1"/>
    </linearGradient>
    <linearGradient id="paint13_linear_216_2113" x1="31.52" x2="31.52" y1="47.5" y2="54.21" gradientUnits="userSpaceOnUse">
      <stop stop-color="#9D21D1" offset="0"/>
      <stop stop-color="#521BB2" offset="1"/>
    </linearGradient>
    <linearGradient id="paint14_linear_216_2113" x1="54.48" x2="54.48" y1="22.84" y2="27.43" gradientUnits="userSpaceOnUse">
      <stop stop-color="#4F70BD" offset="0"/>
      <stop stop-color="#42E8E0" offset="1"/>
    </linearGradient>
    <linearGradient id="paint15_linear_216_2113" x1="26.5" x2="26.5" y1="93.92" y2="100.5" gradientUnits="userSpaceOnUse">
      <stop stop-color="#4F70BD" offset="0"/>
      <stop stop-color="#42E8E0" offset="1"/>
    </linearGradient>
    <linearGradient id="paint16_linear_216_2113" x1="45.75" x2="45.75" y1="25.11" y2="35.07" gradientUnits="userSpaceOnUse">
      <stop stop-color="#4F70BD" offset="0"/>
      <stop stop-color="#42E8E0" offset="1"/>
    </linearGradient>
    <linearGradient id="paint17_linear_216_2113" x1="125.1" x2="125.1" y1="84.62" y2="193.1" gradientUnits="userSpaceOnUse">
      <stop stop-color="#C48751" offset="0"/>
      <stop stop-color="#67163A" offset="1"/>
    </linearGradient>
    <linearGradient id="paint18_linear_216_2113" x1="33.05" x2="33.05" y1="107.8" y2="185.6" gradientUnits="userSpaceOnUse">
      <stop stop-color="#C48751" offset="0"/>
      <stop stop-color="#67163A" offset="1"/>
    </linearGradient>
    <linearGradient id="paint19_linear_216_2113" x1="69.23" x2="69.23" y1="152.9" y2="164.1" gradientUnits="userSpaceOnUse">
      <stop stop-color="#E648FF" offset="0"/>
      <stop stop-color="#521BB2" offset="1"/>
    </linearGradient>
    <linearGradient id="paint20_linear_216_2113" x1="63.46" x2="63.46" y1="168.2" y2="173.9" gradientUnits="userSpaceOnUse">
      <stop stop-color="#E648FF" offset="0"/>
      <stop stop-color="#521BB2" offset="1"/>
    </linearGradient>
    <linearGradient id="paint21_linear_216_2113" x1="77.06" x2="77.06" y1="162.4" y2="175.8" gradientUnits="userSpaceOnUse">
      <stop stop-color="#4F70BD" offset="0"/>
      <stop stop-color="#42E8E0" offset="1"/>
    </linearGradient>
    <linearGradient id="paint22_linear_216_2113" x1="93.15" x2="93.15" y1="128.7" y2="150.2" gradientUnits="userSpaceOnUse">
      <stop stop-color="#D04545" offset="0"/>
      <stop stop-color="#9A3434" offset="1"/>
    </linearGradient>
    <linearGradient id="paint23_linear_216_2113" x1="101" x2="101" y1="157.1" y2="182.1" gradientUnits="userSpaceOnUse">
      <stop stop-color="#D04545" offset="0"/>
      <stop stop-color="#9A3434" offset="1"/>
    </linearGradient>
    <linearGradient id="paint24_linear_216_2113" x1="112.8" x2="112.8" y1="132.6" y2="160.4" gradientUnits="userSpaceOnUse">
      <stop stop-color="#D04545" offset="0"/>
      <stop stop-color="#9A3434" offset="1"/>
    </linearGradient>
    <linearGradient id="paint25_linear_216_2113" x1="130.7" x2="130.7" y1="150.1" y2="168.2" gradientUnits="userSpaceOnUse">
      <stop stop-color="#D04545" offset="0"/>
      <stop stop-color="#620034" offset="1"/>
    </linearGradient>
    <linearGradient id="paint26_linear_216_2113" x1="125.3" x2="125.3" y1="163" y2="187.8" gradientUnits="userSpaceOnUse">
      <stop stop-color="#D04545" offset="0"/>
      <stop stop-color="#620034" offset="1"/>
    </linearGradient>
    <linearGradient id="paint27_linear_216_2113" x1="68.36" x2="68.36" y1="141.6" y2="150.2" gradientUnits="userSpaceOnUse">
      <stop stop-color="#9D21D1" offset="0"/>
      <stop stop-color="#521BB2" offset="1"/>
    </linearGradient>
    <linearGradient id="paint28_linear_216_2113" x1="110" x2="110" y1="76.02" y2="105.1" gradientUnits="userSpaceOnUse">
      <stop stop-color="#42E8E0" offset="0"/>
      <stop stop-color="#0066A1" offset="1"/>
    </linearGradient>
    <linearGradient id="paint29_linear_216_2113" x1="127.8" x2="127.8" y1="107.2" y2="124.5" gradientUnits="userSpaceOnUse">
      <stop stop-color="#42E8E0" offset="0"/>
      <stop stop-color="#0066A1" offset="1"/>
    </linearGradient>
    <linearGradient id="paint30_linear_216_2113" x1="152.1" x2="152.1" y1="153.6" y2="175.8" gradientUnits="userSpaceOnUse">
      <stop stop-color="#42E8E0" offset="0"/>
      <stop stop-color="#0066A1" offset="1"/>
    </linearGradient>
    <linearGradient id="paint31_linear_216_2113" x1="153.3" x2="153.3" y1="128.7" y2="154.8" gradientUnits="userSpaceOnUse">
      <stop stop-color="#42E8E0" offset="0"/>
      <stop stop-color="#0066A1" offset="1"/>
    </linearGradient>
    <linearGradient id="paint32_linear_216_2113" x1="65.45" x2="65.45" y1="91.71" y2="110.9" gradientUnits="userSpaceOnUse">
      <stop stop-color="#42E8E0" offset="0"/>
      <stop stop-color="#0066A1" offset="1"/>
    </linearGradient>
    <linearGradient id="paint33_linear_216_2113" x1="84.63" x2="84.63" y1="63.64" y2="91.13" gradientUnits="userSpaceOnUse">
      <stop stop-color="#42E8E0" offset="0"/>
      <stop stop-color="#0066A1" offset="1"/>
    </linearGradient>
  </defs>
</svg>