<svg xmlns="http://www.w3.org/2000/svg" width="256" height="282" fill="none" viewBox="0 0 256 282">
<!-- SVG created with Arrow, by QuiverAI (https://quiver.ai) -->
  <path d="m255.1 70.83-128.3-69.01-0.28-0.16-0.28 0.16-125.3 67.69-0.93 0.55v139.9l0.92 0.54 125.3 69.32 0.3 0.17 0.3-0.17 128.3-70.43 0.92-0.54v-137.5l-0.93-0.54z" fill="#F6FDFF"/>
  <path d="m170.2 24.34 19.7 12.63 0.54 2.39 62.67 30.77 1.06 0.98v70.81l-3.07 3.09-0.66-0.93 1.52-4.95 0.13-19.4-0.74-0.2-0.05-47.12-39.76-23.14v3.75l26.5 16.03 6.07 7.01v38.77l-13 11.88-1.33-1.79 1.33-3.91v-37.9l-59.72-32.28-0.8-14.37 1.39-0.2 67.86 40.4 1.72 0.79v35.59l-8.92 9.43-0.2-40.75-106.2-51.88-93.33 57.02-0.2 108.9 93.93 53.22 94.07-53.22v-107.9l-94.27-56.82-0.47-0.33-60.05 28.02-15.76-5.5 2.45-0.86 2.8 0.33 70.9-41.37 30.9 16.79 2.06 15.04-33.16-23.14-0.47 0.2-57.59 34.2-2.86 2.52-13.97-4.17 75.62-41.84 31.3 17.19 2.72 17.56-34.42-23.6-59.39 35.39-1.86-0.26-15.83-4.91 77.41-42.23 32.96 18.45 1.2 17.82 0.2-0.53-0.87 0.8-34.09-23.6-58.72 35.32-0.8-0.66 0.47-23.5-30.83 17.07-0.13-0.47-34.02 20.76v44.23l0.87-0.33v-43.64l63.44-34.67 0.8-2.45-1.13-0.6-26.16 15.17-39.09 20.83v138.6l42.09 22.41 0.06-2-36.68-22.08v-67.95l1.6-0.93 1.4 0.73-0.2 30.23 1.27-0.6 11.47-10.23-0.14 41.99 58.19 30.51 0.73 14.5-16.63-3.91-0.87 1.86 63.35 35.73 38.35-22.71v-0.86l-38.35 22.31-33.36-20.58-0.4-19.83 34.02 23.24 60.98-37.29 6.53 3.91-11.13 18 0.53 3.78 23.25-14.1 0.47-2.65 44.06-23.81v-41.71l0.8-0.2 0.6 41.77 2.2-0.86v-65.89l-0.8 0.26v-71l-44.13-23.78-2.86 0.2-17.13-8.83-0.8-1.2-17.85-10.86-1.32-1.91z" fill="url(#paint0_linear_743_1155)"/>
  <path d="m11.74 76.45 28.09-15.94 15.11 5.6-31.27 15.61v64.22l-11.66 8.1-0.27-77.59z" fill="url(#paint1_linear_743_1155)" stroke="url(#paint2_linear_743_1155)" stroke-miterlimit="10" stroke-width="1.5"/>
  <path d="m11.74 168.8 9-8.57v39.73l59.05 33.1 0.4 10.92-68.45-39.03v-36.15z" fill="url(#paint3_linear_743_1155)" stroke="url(#paint4_linear_743_1155)" stroke-miterlimit="10" stroke-width="1.5"/>
  <path d="m126 260.8-31.89-20.35 1.06 12.62 30.9 19.17 69.37-44.75-6.93-3.38-62.51 36.69z" fill="url(#paint5_linear_743_1155)" stroke="url(#paint6_linear_743_1155)" stroke-miterlimit="10" stroke-width="1.5"/>
  <path d="m240.7 132.2-9.66 7.49v60.65l-28.89 14.97 11.46 5.4 27.96-15.44 0.4-1.06-1.27-72.01z" fill="url(#paint7_linear_743_1155)" stroke="url(#paint8_linear_743_1155)" stroke-miterlimit="10" stroke-width="1.5"/>
  <path d="m172.4 37.91 1.14 11.99 58.05 32.22v41.61l9.53-9.43v-37.38l-68.72-39.01z" fill="url(#paint9_linear_743_1155)" stroke="url(#paint10_linear_743_1155)" stroke-miterlimit="10" stroke-width="1.5"/>
  <path d="m159.7 56.73h-52.61l-13.57 17.9-45.2 19.56-5.47 23.74 17.33 11.38-13.13 3-11.26 30.4 70.1 44.9 9.46-24.27 14.46 46.52 46.11-29.81 24.29-7.14-8.79-29.67-16.63-7.47 40.29-23.6-10.73-29.93-29.83-10.52 0.67-14.1-15.49-20.89z" fill="url(#paint11_linear_743_1155)" stroke="url(#paint11_linear_743_1155)" stroke-miterlimit="10" stroke-width="1.5"/>
  <path d="m108.1 57.92 50.81-0.33 15.09 19.96-10.83 13.5-19.7-7.94-26.32 17.6 5.6 16.3-10.66-8.76 5.33-23.21-21.09-9.68 11.77-17.44z" fill="url(#paint13_linear_743_1155)" stroke="url(#paint14_linear_743_1155)" stroke-miterlimit="10" stroke-width="1.5"/>
  <path d="m108.7 59.72 9.93 1.93 12.53 13.44 16.36-14.97 12.79 2.39 7 14.71-5.2 9.49-17.8-4.26-27.22 18.06-16.89-25.35 8.5-15.44z" fill="url(#paint15_linear_743_1155)" stroke="#0B3851" stroke-miterlimit="10" stroke-width=".7"/>
  <path d="m118.6 61.65 3.26 0.86 11.2 10.99 13.63-12.38 0.8-1 17.06 16.63-6.13 11.16" stroke="#0B3851" stroke-miterlimit="10" stroke-width=".7"/>
  <path d="m147.2 60.65 3.6 5.46 12.12 9.71" stroke="#0B3851" stroke-miterlimit="10" stroke-width=".7"/>
  <path d="m116.7 75.62 3.99-10.78-2.06-3.19" stroke="#0B3851" stroke-miterlimit="10" stroke-width=".7"/>
  <path d="m125.8 77.09 1.87 13.83" stroke="#1C92CF" stroke-miterlimit="10" stroke-width=".7"/>
  <path d="m130.6 77.09-0.86 9.36" stroke="#1C92CF" stroke-miterlimit="10" stroke-width=".7"/>
  <path d="m135.3 76.09 12.3-0.47 2.2 2" stroke="#0B3851" stroke-miterlimit="10" stroke-width=".7"/>
  <path d="m143.9 82.12-25.15 18.79 6.33 17.89-13.2-11.68 5.07-22.01-20.23-9.02-47.19 19.03-4.8 21.09 18.89 12.63-15.09 4.93-9.66 26.95 65.76 41.79 9.79-23.01 18.2-38.44 3.39-11.02-21.06-29.93 28.95-17.99z" fill="url(#paint16_linear_743_1155)" stroke="url(#paint17_linear_743_1155)" stroke-miterlimit="10" stroke-width="1.5"/>
  <path d="m48.95 134.8 59.11-23.72 27.45 16.73-11.8 29.26 9.4-16.77 56.91 23.84 7.29 27.48-63.8 35.68-24.52-69.43 23.79-15.58-11-28.88-19.56 2.39-35.17 19-8.96-3.13-9.14 3.13z" fill="url(#paint18_linear_743_1155)" stroke="url(#paint19_linear_743_1155)" stroke-miterlimit="10" stroke-width="1.5"/>
  <path d="m131.2 143.8-21.26 14.64 23.26 65.52 62.57-33.29-6.53-24.81-58.04-22.06z" fill="url(#paint20_linear_743_1155)" stroke="url(#paint21_linear_743_1155)" stroke-miterlimit="10" stroke-width="1.5"/>
  <path d="m145.3 147-15.16-0.27-11.26 14.44 15.19 6.86 19.1 6.19 20.82-8.99 5.33-4.26-18.43-7.93-15.59-6.04z" fill="url(#paint22_linear_743_1155)" stroke="url(#paint23_linear_743_1155)" stroke-miterlimit="10" stroke-width=".7"/>
  <path d="m118.8 161.2 14.59 45.09 0.6-38.23 19.1 6.19 18.69 8.39 15.12 4.83 6.47 1.67-6.4-18.76-13.2-5.12-27.75-10.2-2.47-7.9" stroke="url(#paint24_linear_743_1155)" stroke-miterlimit="10" stroke-width=".7"/>
  <path d="m134.4 223 15.5-24.3" stroke="url(#paint25_linear_743_1155)" stroke-miterlimit="10" stroke-width=".7"/>
  <path d="m136 221.7 15.23-23.56" stroke="url(#paint26_linear_743_1155)" stroke-miterlimit="10" stroke-width=".7"/>
  <path d="m150.7 199.8c1.32 0 2.39-1.07 2.39-2.39s-1.07-2.4-2.39-2.4-2.4 1.08-2.4 2.4 1.08 2.39 2.4 2.39z" fill="url(#paint27_linear_743_1155)"/>
  <path d="m151.9 176.6-5.33 6.52-2.8-10.52" stroke="url(#paint28_linear_743_1155)" stroke-miterlimit="10" stroke-width=".7"/>
  <path d="m161.3 177.6-3.53 10.49-7.13 2.93" stroke="url(#paint29_linear_743_1155)" stroke-miterlimit="10" stroke-width=".7"/>
  <path d="m142.9 156.2-9.02 11.74" stroke="url(#paint30_linear_743_1155)" stroke-miterlimit="10" stroke-width=".7"/>
  <path d="m131.1 130.2-33.49-5.13-11.46 20.43-19.11-9.84-18.96 23.26 53 40.29 3.57-3.19 17.59-64.02 4.93-1.13" stroke="url(#paint31_linear_743_1155)" stroke-miterlimit="10" stroke-width=".7"/>
  <path d="m67.05 135.7-0.33 16.9 30.43 33.66" stroke="url(#paint32_linear_743_1155)" stroke-miterlimit="10" stroke-width=".7"/>
  <path d="m76.85 148.7 4.26 11.39 9.3 6.99 10.6 30.34" stroke="url(#paint33_linear_743_1155)" stroke-miterlimit="10" stroke-width=".7"/>
  <path d="m92.75 143.2 2.67 12.05" stroke="url(#paint34_linear_743_1155)" stroke-miterlimit="10" stroke-width=".7"/>
  <path d="m107.1 137.8-7.7 27.28 2.4 2.07 2.17 26.14" stroke="url(#paint35_linear_743_1155)" stroke-miterlimit="10" stroke-width=".7"/>
  <path d="m101.4 167.6c1.1 0 2-0.89 2-2s-0.9-2-2-2c-1.11 0-2 0.89-2 2s0.89 2 2 2z" fill="url(#paint36_linear_743_1155)"/>
  <path d="m85.69 157.8c1.11 0 2-0.89 2-2s-0.89-1.99-2-1.99-2 0.88-2 1.99 0.89 2 2 2z" fill="url(#paint37_linear_743_1155)"/>
  <path d="m139.1 86.71 10.47 0.8 19.39 8.54 20.69 6.39 12.4 1.87 4.96 6.53 5.47 20.07-40.23 25.19-2.46-1.66 30.06-26.73 3.13-14.01-12.93-10.26-18-6.52-27.29-11.61-5.66 1.4z" fill="url(#paint38_linear_743_1155)" stroke="url(#paint39_linear_743_1155)" stroke-miterlimit="10" stroke-width=".7"/>
  <path d="m128.7 105.5 26.63-7.93 10.12 17.77 20.49-8.64 13.87 21-30.66 26.93-8.69-3.93 5.73-10.72-1.07-1.06-6.26 11.12-3.4-1.6 3.66-10.72 6.73-6.09" stroke="url(#paint40_linear_743_1155)" stroke-miterlimit="10" stroke-width=".7"/>
  <path d="m147.3 111.1 11.4 4.06-2.67 9.09" stroke="url(#paint41_linear_743_1155)" stroke-miterlimit="10" stroke-width=".7"/>
  <path d="m168.7 118 5.43 2.66-3.8 9.58" stroke="url(#paint42_linear_743_1155)" stroke-miterlimit="10" stroke-width=".7"/>
  <path d="m186 106.7v15.42l-20.49-6.78-10.12-17.77-2.2-6.66" stroke="url(#paint43_linear_743_1155)" stroke-miterlimit="10" stroke-width=".7"/>
  <path d="m155.3 97.58 16.69-0.66" stroke="url(#paint44_linear_743_1155)" stroke-miterlimit="10" stroke-width=".7"/>
  <path d="m187.8 104.3 3.8-1.87" stroke="url(#paint45_linear_743_1155)" stroke-miterlimit="10" stroke-width=".7"/>
  <path d="m200.4 127 8.5 1.53" stroke="url(#paint46_linear_743_1155)" stroke-miterlimit="10" stroke-width=".7"/>
  <path d="m49.82 97.45 45.6-21.03 20.3 9.29-5.67 23.54-12.83 3.86 1.87-19.39-18.16 8.99-16.74-6.79-13.57 16.32-2.33-2.13 1.53-12.66z" fill="url(#paint47_linear_743_1155)" stroke="#0B3851" stroke-miterlimit="10" stroke-width=".7"/>
  <path d="m64.19 95.92 2.53 12.19 14.2-5.4 6.7-16.67 11.47 4.08 10.5 0.53" stroke="#0B3851" stroke-miterlimit="10" stroke-width=".7"/>
  <path d="m87.62 86.04 4.13-8.42" stroke="#0B3851" stroke-miterlimit="10" stroke-width=".7"/>
  <path d="m66.72 108.1 9.93 8.9" stroke="#1C92CF" stroke-miterlimit="10" stroke-width=".7"/>
  <path d="m76.65 104.7 3.47 7.93" stroke="#1C92CF" stroke-miterlimit="10" stroke-width=".7"/>
  <path d="m84.88 101.5 5.27 9.4" stroke="#1C92CF" stroke-miterlimit="10" stroke-width=".7"/>
  <defs>
    <linearGradient id="paint0_linear_743_1155" x1="128" x2="128" y1="1.66" y2="279.5" gradientUnits="userSpaceOnUse">
      <stop stop-color="#F1F9FE" offset="0"/>
      <stop stop-color="#F0F6FE" offset=".5104"/>
      <stop stop-color="#EFF2FE" offset=".5105"/>
      <stop stop-color="#F0F0FE" offset="1"/>
    </linearGradient>
    <linearGradient id="paint1_linear_743_1155" x1="33.61" x2="33.61" y1="60.51" y2="154" gradientUnits="userSpaceOnUse">
      <stop stop-color="#98E7FE" offset="0"/>
      <stop stop-color="#3D5AF1" offset="1"/>
    </linearGradient>
    <linearGradient id="paint2_linear_743_1155" x1="33.61" x2="33.61" y1="60.51" y2="154" gradientUnits="userSpaceOnUse">
      <stop stop-color="#19DDFE" offset="0"/>
      <stop stop-color="#4A24CB" offset="1"/>
    </linearGradient>
    <linearGradient id="paint3_linear_743_1155" x1="45.96" x2="45.96" y1="160.2" y2="245.3" gradientUnits="userSpaceOnUse">
      <stop stop-color="#8F96FF" offset="0"/>
      <stop stop-color="#E117FD" offset="1"/>
    </linearGradient>
    <linearGradient id="paint4_linear_743_1155" x1="45.96" x2="45.96" y1="160.2" y2="245.3" gradientUnits="userSpaceOnUse">
      <stop stop-color="#4A24CB" offset="0"/>
      <stop stop-color="#B809D3" offset="1"/>
    </linearGradient>
    <linearGradient id="paint5_linear_743_1155" x1="144.9" x2="144.9" y1="223.2" y2="272.9" gradientUnits="userSpaceOnUse">
      <stop stop-color="#86ABFF" offset="0"/>
      <stop stop-color="#F439FD" offset="1"/>
    </linearGradient>
    <linearGradient id="paint6_linear_743_1155" x1="144.9" x2="144.9" y1="223.2" y2="272.9" gradientUnits="userSpaceOnUse">
      <stop stop-color="#8A09D3" offset="0"/>
      <stop stop-color="#B809D3" offset="1"/>
    </linearGradient>
    <linearGradient id="paint7_linear_743_1155" x1="222" x2="222" y1="132.2" y2="221.2" gradientUnits="userSpaceOnUse">
      <stop stop-color="#36c" offset="0"/>
      <stop stop-color="#A609E6" offset="1"/>
    </linearGradient>
    <linearGradient id="paint8_linear_743_1155" x1="222" x2="222" y1="132.2" y2="221.2" gradientUnits="userSpaceOnUse">
      <stop stop-color="#1942A4" offset="0"/>
      <stop stop-color="#9D09E5" offset="1"/>
    </linearGradient>
    <linearGradient id="paint9_linear_743_1155" x1="206.8" x2="206.8" y1="37.91" y2="124.3" gradientUnits="userSpaceOnUse">
      <stop stop-color="#C0FBFF" offset="0"/>
      <stop stop-color="#6196F2" offset="1"/>
    </linearGradient>
    <linearGradient id="paint10_linear_743_1155" x1="206.8" x2="206.8" y1="37.91" y2="124.3" gradientUnits="userSpaceOnUse">
      <stop stop-color="#19DDFE" offset="0"/>
      <stop stop-color="#1942A4" offset="1"/>
    </linearGradient>
    <linearGradient id="paint11_linear_743_1155" x1="125.4" x2="125.4" y1="56.73" y2="229.9" gradientUnits="userSpaceOnUse">
      <stop stop-color="#19FEFE" offset="0"/>
      <stop stop-color="#9F09D3" offset="1"/>
    </linearGradient>
    <linearGradient id="paint13_linear_743_1155" x1="135.2" x2="135.2" y1="57.56" y2="100.5" gradientUnits="userSpaceOnUse">
      <stop stop-color="#1969CC" offset="0"/>
      <stop stop-color="#1942A4" offset="1"/>
    </linearGradient>
    <linearGradient id="paint14_linear_743_1155" x1="135.2" x2="135.2" y1="57.56" y2="100.5" gradientUnits="userSpaceOnUse">
      <stop stop-color="#19FEFE" offset="0"/>
      <stop stop-color="#1942A4" offset="1"/>
    </linearGradient>
    <linearGradient id="paint15_linear_743_1155" x1="134" x2="134" y1="59.72" y2="87.91" gradientUnits="userSpaceOnUse">
      <stop stop-color="#1969CC" offset="0"/>
      <stop stop-color="#1942A4" offset="1"/>
    </linearGradient>
    <linearGradient id="paint16_linear_743_1155" x1="86.96" x2="86.96" y1="75.36" y2="203" gradientUnits="userSpaceOnUse">
      <stop stop-color="#19B1DB" offset="0"/>
      <stop stop-color="#1942A4" offset="1"/>
    </linearGradient>
    <linearGradient id="paint17_linear_743_1155" x1="86.96" x2="86.96" y1="75.36" y2="203" gradientUnits="userSpaceOnUse">
      <stop stop-color="#19FEFE" offset="0"/>
      <stop stop-color="#9F09D3" offset="1"/>
    </linearGradient>
    <linearGradient id="paint18_linear_743_1155" x1="117.8" x2="117.8" y1="111.1" y2="227.3" gradientUnits="userSpaceOnUse">
      <stop stop-color="#9629B3" offset="0"/>
      <stop stop-color="#19FEFE" offset="1"/>
    </linearGradient>
    <linearGradient id="paint19_linear_743_1155" x1="117.8" x2="117.8" y1="111.1" y2="227.3" gradientUnits="userSpaceOnUse">
      <stop stop-color="#19FEFE" offset="0"/>
      <stop stop-color="#9F09D3" offset="1"/>
    </linearGradient>
    <linearGradient id="paint20_linear_743_1155" x1="152" x2="152" y1="143.3" y2="224.5" gradientUnits="userSpaceOnUse">
      <stop stop-color="#1969CC" offset="0"/>
      <stop stop-color="#1942A4" offset="1"/>
    </linearGradient>
    <linearGradient id="paint21_linear_743_1155" x1="152" x2="152" y1="143.3" y2="224.5" gradientUnits="userSpaceOnUse">
      <stop stop-color="#19FEFE" offset="0"/>
      <stop stop-color="#9F09D3" offset="1"/>
    </linearGradient>
    <linearGradient id="paint22_linear_743_1155" x1="149" x2="149" y1="146.7" y2="174.8" gradientUnits="userSpaceOnUse">
      <stop stop-color="#19B0DB" offset="0"/>
      <stop stop-color="#1942A4" offset="1"/>
    </linearGradient>
    <linearGradient id="paint23_linear_743_1155" x1="149" x2="149" y1="146.7" y2="174.8" gradientUnits="userSpaceOnUse">
      <stop stop-color="#19FEFE" offset="0"/>
      <stop stop-color="#1942A4" offset="1"/>
    </linearGradient>
    <linearGradient id="paint24_linear_743_1155" x1="156.1" x2="156.1" y1="153.9" y2="206.5" gradientUnits="userSpaceOnUse">
      <stop stop-color="#19FEFE" offset="0"/>
      <stop stop-color="#1942A4" offset="1"/>
    </linearGradient>
    <linearGradient id="paint25_linear_743_1155" x1="142.2" x2="142.2" y1="198.6" y2="222.9" gradientUnits="userSpaceOnUse">
      <stop stop-color="#19FEFE" offset="0"/>
      <stop stop-color="#1942A4" offset="1"/>
    </linearGradient>
    <linearGradient id="paint26_linear_743_1155" x1="143.6" x2="143.6" y1="195.9" y2="221.9" gradientUnits="userSpaceOnUse">
      <stop stop-color="#19FEFE" offset="0"/>
      <stop stop-color="#1942A4" offset="1"/>
    </linearGradient>
    <linearGradient id="paint27_linear_743_1155" x1="150.7" x2="150.7" y1="195.1" y2="199.9" gradientUnits="userSpaceOnUse">
      <stop stop-color="#1969CC" offset="0"/>
      <stop stop-color="#1942A4" offset="1"/>
    </linearGradient>
    <linearGradient id="paint28_linear_743_1155" x1="147.9" x2="147.9" y1="172.6" y2="183.2" gradientUnits="userSpaceOnUse">
      <stop stop-color="#19FEFE" offset="0"/>
      <stop stop-color="#1942A4" offset="1"/>
    </linearGradient>
    <linearGradient id="paint29_linear_743_1155" x1="155.9" x2="155.9" y1="176.6" y2="191.5" gradientUnits="userSpaceOnUse">
      <stop stop-color="#19FEFE" offset="0"/>
      <stop stop-color="#1942A4" offset="1"/>
    </linearGradient>
    <linearGradient id="paint30_linear_743_1155" x1="138.4" x2="138.4" y1="155" y2="168" gradientUnits="userSpaceOnUse">
      <stop stop-color="#19FEFE" offset="0"/>
      <stop stop-color="#1942A4" offset="1"/>
    </linearGradient>
    <linearGradient id="paint31_linear_743_1155" x1="84.6" x2="84.6" y1="125.1" y2="200.3" gradientUnits="userSpaceOnUse">
      <stop stop-color="#1969CC" offset="0"/>
      <stop stop-color="#1942A4" offset="1"/>
    </linearGradient>
    <linearGradient id="paint32_linear_743_1155" x1="76.89" x2="76.89" y1="134.6" y2="187.3" gradientUnits="userSpaceOnUse">
      <stop stop-color="#1969CC" offset="0"/>
      <stop stop-color="#1942A4" offset="1"/>
    </linearGradient>
    <linearGradient id="paint33_linear_743_1155" x1="88.93" x2="88.93" y1="147.7" y2="198.5" gradientUnits="userSpaceOnUse">
      <stop stop-color="#1969CC" offset="0"/>
      <stop stop-color="#1942A4" offset="1"/>
    </linearGradient>
    <linearGradient id="paint34_linear_743_1155" x1="94.09" x2="94.09" y1="142.7" y2="155.8" gradientUnits="userSpaceOnUse">
      <stop stop-color="#1969CC" offset="0"/>
      <stop stop-color="#1942A4" offset="1"/>
    </linearGradient>
    <linearGradient id="paint35_linear_743_1155" x1="103.5" x2="103.5" y1="136.7" y2="194.3" gradientUnits="userSpaceOnUse">
      <stop stop-color="#1969CC" offset="0"/>
      <stop stop-color="#1942A4" offset="1"/>
    </linearGradient>
    <linearGradient id="paint36_linear_743_1155" x1="101.4" x2="101.4" y1="163.6" y2="167.6" gradientUnits="userSpaceOnUse">
      <stop stop-color="#1969CC" offset="0"/>
      <stop stop-color="#1942A4" offset="1"/>
    </linearGradient>
    <linearGradient id="paint37_linear_743_1155" x1="85.69" x2="85.69" y1="153.8" y2="157.8" gradientUnits="userSpaceOnUse">
      <stop stop-color="#1969CC" offset="0"/>
      <stop stop-color="#1942A4" offset="1"/>
    </linearGradient>
    <linearGradient id="paint38_linear_743_1155" x1="175.8" x2="175.8" y1="85.31" y2="156.6" gradientUnits="userSpaceOnUse">
      <stop stop-color="#1969CC" offset="0"/>
      <stop stop-color="#1942A4" offset="1"/>
    </linearGradient>
    <linearGradient id="paint39_linear_743_1155" x1="175.8" x2="175.8" y1="85.31" y2="156.6" gradientUnits="userSpaceOnUse">
      <stop stop-color="#19FEFE" offset="0"/>
      <stop stop-color="#1942A4" offset="1"/>
    </linearGradient>
    <linearGradient id="paint40_linear_743_1155" x1="169.2" x2="169.2" y1="103.4" y2="154.6" gradientUnits="userSpaceOnUse">
      <stop stop-color="#19FEFE" offset="0"/>
      <stop stop-color="#1942A4" offset="1"/>
    </linearGradient>
    <linearGradient id="paint41_linear_743_1155" x1="153" x2="153" y1="111.1" y2="124.3" gradientUnits="userSpaceOnUse">
      <stop stop-color="#19FEFE" offset="0"/>
      <stop stop-color="#1942A4" offset="1"/>
    </linearGradient>
    <linearGradient id="paint42_linear_743_1155" x1="171.6" x2="171.6" y1="118" y2="131" gradientUnits="userSpaceOnUse">
      <stop stop-color="#19FEFE" offset="0"/>
      <stop stop-color="#1942A4" offset="1"/>
    </linearGradient>
    <linearGradient id="paint43_linear_743_1155" x1="174.5" x2="174.5" y1="90.92" y2="122.1" gradientUnits="userSpaceOnUse">
      <stop stop-color="#19FEFE" offset="0"/>
      <stop stop-color="#1942A4" offset="1"/>
    </linearGradient>
    <linearGradient id="paint44_linear_743_1155" x1="163.7" x2="163.7" y1="96.92" y2="98.25" gradientUnits="userSpaceOnUse">
      <stop stop-color="#19FEFE" offset="0"/>
      <stop stop-color="#1942A4" offset="1"/>
    </linearGradient>
    <linearGradient id="paint45_linear_743_1155" x1="189.7" x2="189.7" y1="102.4" y2="104.3" gradientUnits="userSpaceOnUse">
      <stop stop-color="#19FEFE" offset="0"/>
      <stop stop-color="#1942A4" offset="1"/>
    </linearGradient>
    <linearGradient id="paint46_linear_743_1155" x1="204.7" x2="204.7" y1="127" y2="128.8" gradientUnits="userSpaceOnUse">
      <stop stop-color="#19FEFE" offset="0"/>
      <stop stop-color="#1942A4" offset="1"/>
    </linearGradient>
    <linearGradient id="paint47_linear_743_1155" x1="81.98" x2="81.98" y1="76.42" y2="113.6" gradientUnits="userSpaceOnUse">
      <stop stop-color="#1969CC" offset="0"/>
      <stop stop-color="#1942A4" offset="1"/>
    </linearGradient>
  </defs>
</svg>