<svg xmlns="http://www.w3.org/2000/svg" width="256" height="256" fill="none" viewBox="0 0 256 256">
<!-- SVG created with Arrow, by QuiverAI (https://quiver.ai) -->
  <path d="m127.1 252.3c68.78 0 124.8-56.81 124.8-124.3 0-67.92-55.84-121.9-124.9-121.9-68.46 0-120 54.64-120 121.9 0 67.9 55.12 124.3 120 124.3z" fill="#BAF8FF"/>
  <path d="m126.4 249c66.14 0 122.4-54.35 122.4-121.1 0-66.49-54.81-120.7-122.1-120.7-67.24 0-119.1 54.46-119.1 120.7 0 67.21 53.53 121.1 118.8 121.1z" fill="url(#paint0_linear_13581_9986)"/>
  <path d="m126.4 245.8c64.53 0 118-52.82 118-118 0-64.73-53.1-117.5-117.6-117.5-64.89 0-115.1 53.18-115.1 117.5 0 65.1 52.08 118 114.7 118z" fill="url(#paint1_radial_13581_9986)"/>
  <path d="m126.4 240.5c61.56 0 114.4-51.36 114.4-112.5 0-60.66-50.91-112.5-114-112.5-62.23 0-112.4 51.58-112.4 112.3 0 61.22 50.56 112.7 112 112.7z" fill="url(#paint2_linear_13581_9986)"/>
  <path d="m22.18 167.1 8.8 4.21c13.71 30.56 44.73 58.99 94.81 58.99 50.79 0 72.32-26.16 77.39-30.55l10.43-2.51c12.26-17.14 23.3-37.03 23.3-68.88 0-12.5-2.65-25.41-3.67-30.15l-1.18-8.48-7.22-3.64c-7.22-15.62-22.13-34.7-35.42-44.03l-24.06-13.34-2.87-2.65c-9.17-2.87-20.48-4.94-36.17-4.94-12.15 0-22.58 1.82-36.31 5.08l-3.9 4.57-11.72 6.5c-11.26 6.04-22.34 16.84-30.78 27.85l-3.79 0.94-11.6 22.67-3.03 4.82c-5.27 11.55-8.7 24.57-8.7 35.75 0 14.41 1.6 26.67 5.69 37.79z" fill="url(#paint3_linear_13581_9986)"/>
  <path d="m22.76 166.8 8.08 3.9c14.08 30.6 42.87 58.55 94.84 58.55 48.24 0 72.23-26.5 78.28-34.52l8.96-5.27c9.89-13.85 18.05-29.35 18.05-61.2 0-10.96-3.03-25.04-5.85-32.08l-3.01-2.07c-8.9-25.31-36.06-62.93-95.62-62.93-51.08 0-84.82 36.96-93.48 68.9-3.2 9.98-4.97 18.84-4.97 27.77 0 9.32 1.29 19.81 3.56 28.05-2.88 3.25-5.29 6.72-8.84 10.9z" fill="url(#paint4_linear_13581_9986)"/>
  <path d="m126.7 224.9c54.06 0 97.07-44.43 97.07-97.47 0-52.71-43.43-96.51-97.28-96.51-53.57 0-95.26 44.15-95.26 96.51 0 53.13 42.38 97.47 95.47 97.47z" fill="url(#paint5_radial_13581_9986)"/>
  <path d="m127.1 218.8c50.3 0 88.17-43.12 88.17-92.01 0-48.44-39.17-88.11-88.62-88.11-49.04 0-88.48 40-88.48 88.11 0 49.22 38.66 92.01 88.93 92.01z" fill="#fff" stroke="url(#paint6_linear_13581_9986)" stroke-miterlimit="10" stroke-width="2.73"/>
  <path d="m200.8 52.01c7.96 6.86 18.87 21.8 24.3 34.22" stroke="url(#paint7_linear_13581_9986)" stroke-miterlimit="10" stroke-width="1.365"/>
  <path d="m163.6 28.72 25.4 13.9 1.24 0.71 0.89 10.64" stroke="url(#paint8_linear_13581_9986)" stroke-miterlimit="10" stroke-width="1.365"/>
  <path d="m52.3 53.73c8.54-9.56 17.71-16.82 33.34-23.82l3.16-7.72" stroke="url(#paint9_linear_13581_9986)" stroke-miterlimit="10" stroke-width="1.365"/>
  <path d="m26.96 92.06 14.66-26.03 9.67-0.91" stroke="url(#paint10_linear_13581_9986)" stroke-miterlimit="10" stroke-width="1.365"/>
  <path d="m226.7 166c-4.57 11.26-9.76 21.15-14.02 23.8l-11.55 0.53" stroke="url(#paint11_linear_13581_9986)" stroke-miterlimit="10" stroke-width="1.365"/>
  <path d="m204 201.2-33.86 22.99-3.74 8.27" stroke="url(#paint12_linear_13581_9986)" stroke-miterlimit="10" stroke-width="1.365"/>
  <path d="m92.66 227.1-26.88-14.42-1.42-10.64" stroke="url(#paint13_linear_13581_9986)" stroke-miterlimit="10" stroke-width="1.365"/>
  <path d="m54.48 203.8c-9.17-8.53-18.34-20.78-23.17-32.54" stroke="url(#paint14_linear_13581_9986)" stroke-miterlimit="10" stroke-width="1.365"/>
  <path d="m52.22 56.26c1.91 0 2.74-1.2 2.74-2.55 0-1.49-1.06-2.42-2.32-2.42-1.43 0-2.37 1.12-2.37 2.32 0 1.35 0.91 2.65 1.95 2.65z" fill="#52F5FF"/>
  <path d="m163.5 30.91c1.91 0 2.54-1.2 2.54-2.4 0-1.35-0.9-2.17-2.16-2.17-1.43 0-2.23 1.04-2.23 2.08 0 1.29 0.81 2.49 1.85 2.49z" fill="#3ff"/>
  <path d="m200.8 54.4c1.91 0 2.54-1.2 2.54-2.41 0-1.48-1.05-2.31-2.25-2.31-1.43 0-2.32 1.04-2.32 2.18 0 1.34 0.99 2.54 2.03 2.54z" fill="#52F5FF"/>
  <path d="m27.81 94.8c1.91 0 2.63-1.11 2.63-2.4 0-1.43-1.04-2.33-2.24-2.33-1.43 0-2.33 1.04-2.33 2.24 0 1.38 0.9 2.49 1.94 2.49z" fill="#99FFFB"/>
  <path d="m227.3 166.6c1.91 0 2.63-1.11 2.63-2.4 0-1.43-1.04-2.33-2.24-2.33-1.43 0-2.33 1.04-2.33 2.24 0 1.38 0.9 2.49 1.94 2.49z" fill="#fff"/>
  <path d="m203 203.1c1.61 0 2.33-1.2 2.33-2.4 0-1.34-1.04-2.24-2.19-2.24-1.43 0-2.32 1.14-2.32 2.24 0 1.29 1.04 2.4 2.18 2.4z" fill="#fff"/>
  <path d="m54.41 205.4c1.61 0 2.33-1.11 2.33-2.31 0-1.43-1.04-2.33-2.19-2.33-1.43 0-2.33 1.05-2.33 2.25 0 1.28 1.05 2.39 2.19 2.39z" fill="#fff"/>
  <path d="m92.61 229.3c1.61 0 2.24-1.11 2.24-2.31 0-1.35-1.04-2.24-2.19-2.24-1.43 0-2.33 1.04-2.33 2.24 0 1.29 1.14 2.31 2.28 2.31z" fill="#FF70FF"/>
  <path d="m115.4 188.2 22.57-23.78v-15.26l-21.41 23.66c-1.11 1.33-3.05 1.24-4.16-0.05l-15.38-17.79v15.21l15.78 17.69c0.58 0.74 1.91 0.91 2.6 0.32z" fill="url(#paint15_linear_13581_9986)" stroke="url(#paint16_linear_13581_9986)" stroke-miterlimit="10" stroke-width="2"/>
  <path d="m188 87.09-25.88 25.62v10l-21.97 24.03v14.37l57.13-60.68c1.14-1.29 0.91-2.84-0.14-3.72l-9.14-9.62z" fill="url(#paint17_linear_13581_9986)" stroke="url(#paint18_linear_13581_9986)" stroke-miterlimit="10" stroke-width="1.5"/>
  <path d="m176.9 77.6-61.16 67.11-28.56-29.5c-1.1-1.1-2.12-0.9-2.99 0l-9 9.47 20.49 21.97v20.07l-31.06-28.92c-0.89-1.04-0.89-2.19 0.08-3.24l7.68-8.04 21.41 21.97v1.36l21.87 19.66 43.89-48.45v-10l25.18-26.46-5.02-6.93c-0.69-0.86-1.98-0.96-2.81-0.07z" fill="url(#paint19_linear_13581_9986)" stroke="url(#paint20_linear_13581_9986)" stroke-miterlimit="10" stroke-width="1.5"/>
  <defs>
    <linearGradient id="paint0_linear_13581_9986" x1="128.1" x2="128.1" y1="7.205" y2="249" gradientUnits="userSpaceOnUse">
      <stop stop-color="#0071CC" offset="0"/>
      <stop stop-color="#009AF5" offset=".2708"/>
      <stop stop-color="#2959CF" offset=".6406"/>
      <stop stop-color="#8F00A7" offset="1"/>
    </linearGradient>
    <radialGradient id="paint1_radial_13581_9986" cx="0" cy="0" r="1" gradientTransform="translate(128 128) scale(143.2 143.1)" gradientUnits="userSpaceOnUse">
      <stop stop-color="#0071CC" stop-opacity="0" offset=".737"/>
      <stop stop-color="#09489A" stop-opacity=".85" offset="1"/>
    </radialGradient>
    <linearGradient id="paint2_linear_13581_9986" x1="127.6" x2="127.6" y1="15.49" y2="240.5" gradientUnits="userSpaceOnUse">
      <stop stop-color="#0077D2" offset="0"/>
      <stop stop-color="#32E4FF" offset=".4948"/>
      <stop stop-color="#32E4FF" stop-opacity=".22" offset=".849"/>
    </linearGradient>
    <linearGradient id="paint3_linear_13581_9986" x1="126.7" x2="126.7" y1="21.09" y2="230.3" gradientUnits="userSpaceOnUse">
      <stop stop-color="#0077D2" offset="0"/>
      <stop stop-color="#08C4F2" offset=".4948"/>
      <stop stop-color="#9E15F6" offset="1"/>
    </linearGradient>
    <linearGradient id="paint4_linear_13581_9986" x1="126.7" x2="126.7" y1="31.19" y2="229.3" gradientUnits="userSpaceOnUse">
      <stop stop-color="#0077D2" offset="0"/>
      <stop stop-color="#3959CF" offset=".4948"/>
      <stop stop-color="#9E15F6" offset="1"/>
    </linearGradient>
    <radialGradient id="paint5_radial_13581_9986" cx="0" cy="0" r="1" gradientTransform="translate(127.5 127.9) scale(102.4 102.3)" gradientUnits="userSpaceOnUse">
      <stop stop-color="#0077D2" stop-opacity="0" offset=".8958"/>
      <stop stop-color="#7E00B9" stop-opacity=".74" offset="1"/>
    </radialGradient>
    <linearGradient id="paint6_linear_13581_9986" x1="126.7" x2="126.7" y1="36.32" y2="220.3" gradientUnits="userSpaceOnUse">
      <stop stop-color="#0077D2" offset="0"/>
      <stop stop-color="#58FFFE" stop-opacity=".58" offset="1"/>
    </linearGradient>
    <linearGradient id="paint7_linear_13581_9986" x1="213.5" x2="213.5" y1="51.62" y2="86.23" gradientUnits="userSpaceOnUse">
      <stop stop-color="#00C9FF" offset="0"/>
      <stop stop-color="#01D6FF" stop-opacity=".23" offset="1"/>
    </linearGradient>
    <linearGradient id="paint8_linear_13581_9986" x1="177.3" x2="177.3" y1="28.21" y2="53.97" gradientUnits="userSpaceOnUse">
      <stop stop-color="#00C9FF" offset="0"/>
      <stop stop-color="#01D6FF" stop-opacity=".23" offset="1"/>
    </linearGradient>
    <linearGradient id="paint9_linear_13581_9986" x1="68.77" x2="68.77" y1="21.7" y2="55.76" gradientUnits="userSpaceOnUse">
      <stop stop-color="#00C9FF" offset="0"/>
      <stop stop-color="#01D6FF" stop-opacity=".23" offset="1"/>
    </linearGradient>
    <linearGradient id="paint10_linear_13581_9986" x1="39.13" x2="39.13" y1="65.12" y2="92.55" gradientUnits="userSpaceOnUse">
      <stop stop-color="#00C9FF" offset="0"/>
      <stop stop-color="#01D6FF" stop-opacity=".23" offset="1"/>
    </linearGradient>
    <linearGradient id="paint11_linear_13581_9986" x1="213.9" x2="213.9" y1="165.5" y2="190.4" gradientUnits="userSpaceOnUse">
      <stop stop-color="#F6F9FE" offset="0"/>
      <stop stop-color="#F6F9FE" stop-opacity=".23" offset="1"/>
    </linearGradient>
    <linearGradient id="paint12_linear_13581_9986" x1="187.1" x2="187.1" y1="200.7" y2="232.9" gradientUnits="userSpaceOnUse">
      <stop stop-color="#F6F9FE" offset="0"/>
      <stop stop-color="#F6F9FE" stop-opacity=".23" offset="1"/>
    </linearGradient>
    <linearGradient id="paint13_linear_13581_9986" x1="78.51" x2="78.51" y1="201.6" y2="227.6" gradientUnits="userSpaceOnUse">
      <stop stop-color="#F6F9FE" offset="0"/>
      <stop stop-color="#F6F9FE" stop-opacity=".23" offset="1"/>
    </linearGradient>
    <linearGradient id="paint14_linear_13581_9986" x1="42.89" x2="42.89" y1="170.8" y2="204.3" gradientUnits="userSpaceOnUse">
      <stop stop-color="#F6F9FE" offset="0"/>
      <stop stop-color="#F6F9FE" stop-opacity=".23" offset="1"/>
    </linearGradient>
    <linearGradient id="paint15_linear_13581_9986" x1="117.5" x2="117.5" y1="149.1" y2="188.6" gradientUnits="userSpaceOnUse">
      <stop stop-color="#26D17D" offset="0"/>
      <stop stop-color="#44D67B" offset="1"/>
    </linearGradient>
    <linearGradient id="paint16_linear_13581_9986" x1="117.5" x2="117.5" y1="149.1" y2="188.6" gradientUnits="userSpaceOnUse">
      <stop stop-color="#8FFFC3" offset="0"/>
      <stop stop-color="#70F6B6" offset="1"/>
    </linearGradient>
    <linearGradient id="paint17_linear_13581_9986" x1="169.1" x2="169.1" y1="87.09" y2="161.9" gradientUnits="userSpaceOnUse">
      <stop stop-color="#26D17D" offset="0"/>
      <stop stop-color="#44D67B" offset="1"/>
    </linearGradient>
    <linearGradient id="paint18_linear_13581_9986" x1="169.1" x2="169.1" y1="87.09" y2="161.9" gradientUnits="userSpaceOnUse">
      <stop stop-color="#8FFFC3" offset="0"/>
      <stop stop-color="#70F6B6" offset="1"/>
    </linearGradient>
    <linearGradient id="paint19_linear_13581_9986" x1="124.8" x2="124.8" y1="77" y2="168.1" gradientUnits="userSpaceOnUse">
      <stop stop-color="#26D17D" offset="0"/>
      <stop stop-color="#44D67B" offset="1"/>
    </linearGradient>
    <linearGradient id="paint20_linear_13581_9986" x1="124.8" x2="124.8" y1="77" y2="168.1" gradientUnits="userSpaceOnUse">
      <stop stop-color="#8FFFC3" offset="0"/>
      <stop stop-color="#70F6B6" offset="1"/>
    </linearGradient>
  </defs>
</svg>