<svg xmlns="http://www.w3.org/2000/svg" width="200" height="200" fill="none" viewBox="0 0 200 200">
<!-- SVG created with Arrow, by QuiverAI (https://quiver.ai) -->
  <path d="m100 197c53.57 0 97.5-44.87 97.5-97.08 0-52.91-43.62-97.21-97.5-97.21-53.57 0-97 43.9-97 97.71 0 52.87 43.78 96.58 97 96.58z" fill="url(#paint0_linear_1_49)" stroke="#091A2B" stroke-miterlimit="10" stroke-width="1.2"/>
  <path d="m99.99 192.2c49.87 0 93.08-42.29 93.08-92.22s-42.5-92.55-93.08-92.55-94.02 42.22-94.02 92.55c0 49.72 42.95 92.22 94.02 92.22z" fill="url(#paint1_linear_1_49)" stroke="#091A2B" stroke-miterlimit="10" stroke-width=".7"/>
  <path d="m99.78 190.3c48.4 0 90.13-41.56 90.13-90.13s-41.08-89.58-90.13-89.58c-49.04 0-89.6 41.15-89.6 89.83 0 48.36 40.78 89.88 89.6 89.88z" fill="url(#paint2_linear_1_49)" stroke="#98F5FF" stroke-miterlimit="10" stroke-width="1.7"/>
  <path d="m98.77 185.2c46.1 0 85.63-39.15 85.63-85.4 0-46.26-38.63-83.77-85.48-83.77-46.26 0-82.84 39-82.84 84.9s36.93 84.27 82.69 84.27z" stroke="#29D3FF" stroke-miterlimit="10" stroke-width="1.2"/>
  <path d="m100.1 24.49c-5.34 0-7.84 4.07-10.95 4.07h21.68c5.9 0 10.11 0.66 12.92 2.77l7.09 1.7 4.33-2.82c22.68 9.9 44.75 33.49 47.52 63.51 3.45 38.06-18.53 65.09-34.87 75.35l-6.18-2.66-13.76 5.4-6.09 6.59c-7.05 2.36-13.64 3.02-21.94 3.02-24.75 0-49.86-12.35-64.83-30.82l9.59-8.59c-8.39-11.84-9.9-21.58-9.9-41.62 0-25.11 15.33-47.18 35.18-60.28l-4.95-2.66 8.25-7.39 4.9-7.94c7.09-2.36 12.43-3.73 21.76-3.73 12.39 0 23.2 2.62 33.1 7.47l2.77 3.21-4.94 1.35-4.59-1.35c-4.54-2.36-13.7-4.58-26.09-4.58z" stroke="#29D3FF" stroke-miterlimit="10" stroke-width="1.08"/>
  <path d="m131.8 39.05 6.9 0.26 8.91 6.59 6.19 0.86-0.6-0.75-13.09-9.8-8.96-0.05 0.65 2.89z" fill="#6F83D5"/>
  <path d="m155.9 61.17 12.7 8.39 3.65 8.96-0.92-5.6c-4.06-9.21-14.56-20.8-19.31-24.45l-1.96-0.35 5.84 13.05z" fill="#7946D6"/>
  <path d="m167.9 86.77 7.8 15.22c-0.3 11.15-2.97 21-6.68 29.79l1.66 4.01c-4.21 8.64-8.95 15.69-12.55 19.29l-0.46-6.34 2.01-10.7c6.64-11.3 9.08-20.31 9.08-36.26 0-4.69-0.56-10.53-0.86-15.01z" fill="#9A24D1"/>
  <path d="m43.72 50.08-5.1 15.71 7.65-9.25-1.96-7.11-0.59 0.65z" fill="#29B1FF"/>
  <path d="m29.01 64.42 1.3 3.36c-5.59 9.74-6.7 19.9-7.01 30.16l10.41 20.24-1.3-10.16c-1.51-13.55 1.1-31.92 9.91-44.97l5.79-9.11 4.69-5.92 2.41-2.32-1.96-6.65-5.89 0.06c-8.95 7.75-14.95 16.19-18.35 25.31z" fill="url(#paint3_linear_1_49)"/>
  <path d="m20.91 119.1 1.71 0.61c6.85 24.03 24.53 39.93 29.37 41.09l-0.3-0.15 0.45-0.1 7.5 0.45 7.45 5.99 5.39 3.66-0.07-0.36-1.66 0.97-3.66 0.51c-15.15-6.6-35.64-22.7-41.87-40.68l-4.31-11.99z" fill="url(#paint4_linear_1_49)"/>
  <path d="m27.45 122.3 3.95 9.42 12.68 8.64-0.36-2.42c-6.64-8.79-8.75-15.64-10.26-20.93l-9.65-19.03c0.46-11.59 3.02-21.79 7.03-29.49l-1.56-4.13c6.14-11.59 13.84-20.59 20.73-25.32l3.9 0.21 1.41-0.36c6.84-5.4 13.03-8.58 17.42-10.04l5.74-7.7" stroke="#52D6FF" stroke-linecap="round" stroke-miterlimit="10" stroke-width="1.08"/>
  <path d="m119.2 178.2c18.18-4.23 32.51-15.28 44.65-31.98l8.4-12.94 2.66-10.36c2.06-7.6 2.31-12.69 1.46-21.33l-7.8-13.62" stroke="#A355FF" stroke-linecap="round" stroke-miterlimit="10" stroke-width="1.08"/>
  <path d="m129.6 38.81 9.11 0.3 9.49 7.39" stroke="#7A71FF" stroke-linecap="round" stroke-miterlimit="10" stroke-width="1.08"/>
  <path d="m155.9 61.17 13.05 8.95 3.65 8.4" stroke="#8F64FF" stroke-linecap="round" stroke-miterlimit="10" stroke-width="1.08"/>
  <path d="m175.9 80.08 4.27 2.21c2.01 6.34 2.81 11.83 2.81 20.84 0 12.6-4.94 27.59-8.18 33.99" stroke="#B16AFF" stroke-linecap="round" stroke-miterlimit="10" stroke-width="1.08"/>
  <path d="m70.76 170.5c7.25 3.08 16 4.6 28.76 4.6l14.47-7.99" stroke="#7557FF" stroke-linecap="round" stroke-miterlimit="10" stroke-width="1.08"/>
  <path d="m60.44 49.08 21.22-20.01h36.75l20.6 20.01v26.36l15.81 17.22v54.63l-19.7 19.63h-70.71l-19.9-19.63v-54.63l15.93-17.22v-26.36zm20.72 9.64v15.26h37.15v-15.26l-8.7-9.24h-19.9l-8.55 9.24z" fill="url(#paint5_linear_1_49)" stroke="#091A2B" stroke-miterlimit="10" stroke-width="1.2"/>
  <path d="m65.12 51.71v22.52h11.74v-16.11l-11.74-6.41z" fill="#6689B1" stroke="#091A2B" stroke-miterlimit="10" stroke-width="1.08"/>
  <path d="m134.7 51.71v22.52h-12.04v-16.11l12.04-6.41z" fill="#6689B1" stroke="#091A2B" stroke-miterlimit="10" stroke-width="1.08"/>
  <path d="m68.09 48.62 13.42-13.97 5 12.26-8 7.54-10.42-5.83z" fill="#6689B1" stroke="#091A2B" stroke-miterlimit="10" stroke-width="1.08"/>
  <path d="m117.8 34.65 14.81 13.97-12.39 5.83-7.45-7.54 5.03-12.26z" fill="#6689B1" stroke="#091A2B" stroke-miterlimit="10" stroke-width="1.08"/>
  <path d="m86.01 33.74 4.11 11.6h18.48l5.24-12-27.83 0.4z" fill="#6689B1" stroke="#091A2B" stroke-miterlimit="10" stroke-width="1.08"/>
  <path d="m45.26 92.66 19.15-13.94h70.17l19.49 13.94-3.95 3.02-8.4 4.32-11.21-13.65-13.41-0.45-3.66-4.95h-27.64l-3.35 5.4h-13.05l-12.24 12.5-6.34-3.72-5.56-2.47z" fill="#92B4D1"/>
  <path d="m50.32 94.93v48.59l17.67 17.67h64.02l17.67-17.67v-48.59l-15.45-14.79h-68.45l-15.46 14.79z" fill="url(#paint6_linear_1_49)" stroke="#091A2B" stroke-miterlimit="10" stroke-width=".7"/>
  <path d="m57.61 98.6 11.64-12.4h13.16l3.4-5.4h27.58l3.66 5.4h13.56l11.64 12.4v41.11l-14.42 14.16h-5.19l-2.82 6.75h-39.12l-3.71-6.75h-4.95l-14.43-14.46v-40.81z" fill="url(#paint7_linear_1_49)" stroke="#091A2B" stroke-miterlimit="10" stroke-width=".7"/>
  <path d="m50.32 143.5 7.44-4.42 2.36 2.06-3.11 1.81-6.69 0.55z" fill="#7694B2"/>
  <path d="m149.2 143.4-7.2-4.01-2.71 2.25 2.71 1.46 7.2 0.3z" fill="#7694B2"/>
  <path d="m108.1 121c2.66-2.77 4.07-5.43 4.07-9.8 0-7.55-6.19-12.75-12.99-12.75-7.9 0-12.18 6.95-12.18 12.9 0 4.66 1.71 7.18 4.37 9.65l-4.85 21.92h26.31l-4.73-21.92zm-15.37 17.29 3.66-19.76c-3.06-1.46-4.16-3.82-4.16-7.68 0-4.64 4.01-6.96 6.88-6.96 4.2 0 7.41 3.02 7.41 7.26 0 3.91-1.3 5.92-4.12 7.73l4.54 19.41h-14.21z" fill="url(#paint8_linear_1_49)" stroke="#091A2B" stroke-miterlimit="10" stroke-width="1.2"/>
  <path d="m88.92 140.9 3.56-3.01 1.15 0.55-4.71 2.46z" fill="#474747"/>
  <path d="m108 138.1 4.21 4.21-2.81-1-1.4-3.21z" fill="#A19A9A"/>
  <defs>
    <linearGradient id="paint0_linear_1_49" x1="100" x2="100" y1="2.706" y2="197" gradientUnits="userSpaceOnUse">
      <stop stop-color="#5784A5" offset="0"/>
      <stop stop-color="#6B89B5" offset="1"/>
    </linearGradient>
    <linearGradient id="paint1_linear_1_49" x1="99.52" x2="99.52" y1="7.464" y2="192.2" gradientUnits="userSpaceOnUse">
      <stop stop-color="#426EA5" offset="0"/>
      <stop stop-color="#51759F" offset="1"/>
    </linearGradient>
    <linearGradient id="paint2_linear_1_49" x1="99.55" x2="99.55" y1="10.56" y2="190.3" gradientUnits="userSpaceOnUse">
      <stop stop-color="#15F4FF" offset="0"/>
      <stop stop-color="#29D3FF" offset=".51"/>
      <stop stop-color="#9A24D1" offset="1"/>
    </linearGradient>
    <linearGradient id="paint3_linear_1_49" x1="37.8" x2="37.8" y1="39.05" y2="118.2" gradientUnits="userSpaceOnUse">
      <stop stop-color="#29B1FF" offset="0"/>
      <stop stop-color="#29B1FF" stop-opacity=".35" offset="1"/>
    </linearGradient>
    <linearGradient id="paint4_linear_1_49" x1="43.72" x2="43.72" y1="119.1" y2="171.8" gradientUnits="userSpaceOnUse">
      <stop stop-color="#29B1FF" stop-opacity=".35" offset="0"/>
      <stop stop-color="#29B1FF" offset="1"/>
    </linearGradient>
    <linearGradient id="paint5_linear_1_49" x1="99.67" x2="99.67" y1="29.07" y2="166.9" gradientUnits="userSpaceOnUse">
      <stop stop-color="#959595" offset="0"/>
      <stop stop-color="#413E39" offset="1"/>
    </linearGradient>
    <linearGradient id="paint6_linear_1_49" x1="100" x2="100" y1="80.14" y2="161.2" gradientUnits="userSpaceOnUse">
      <stop stop-color="#6D94B8" offset="0"/>
      <stop stop-color="#597BA3" offset="1"/>
    </linearGradient>
    <linearGradient id="paint7_linear_1_49" x1="99.93" x2="99.93" y1="80.8" y2="160.6" gradientUnits="userSpaceOnUse">
      <stop stop-color="#6D94B8" offset="0"/>
      <stop stop-color="#597BA3" offset="1"/>
    </linearGradient>
    <linearGradient id="paint8_linear_1_49" x1="99.68" x2="99.68" y1="98.5" y2="143" gradientUnits="userSpaceOnUse">
      <stop stop-color="#302E29" offset="0"/>
      <stop stop-color="#87827D" offset="1"/>
    </linearGradient>
  </defs>
</svg>