<svg xmlns="http://www.w3.org/2000/svg" width="244" height="136" fill="none" viewBox="0 0 244 136">
<!-- SVG created with Arrow, by QuiverAI (https://quiver.ai) -->
  <path d="m0 0h243.3v136h-243.3v-136z" fill="url(#paint0_radial_414_4825)"/>
  <path d="m211 21.66h-178.2c-8.1 0-13.25 7.53-13.25 13.95v66.07c0 7.63 6.62 12.64 13.25 12.64h178c7.39 0 13.47-6.43 13.47-12.81v-65.73c0-7.87-5.84-14.12-13.19-14.12z" fill="url(#paint1_linear_414_4825)"/>
  <path d="m211 21.66h-178.2c-7.9 0-13.32 7.17-13.32 13.67v66.4c0 7.23 6.14 12.59 13.25 12.59h177.9c7.28 0 13.53-6.49 13.53-12.87v-65.84c0-7.7-6.03-13.95-13.19-13.95z" fill="url(#paint1_linear_414_4825)"/>
  <path d="m211.2 31.31h-178.1c-3 0-4.4 2.39-4.4 4.54v65.66c0 2.6 1.85 4.2 3.96 4.2h178c2.54 0 3.17-2.39 3.17-3.85v-66.15c0-2.84-1.6-4.4-2.7-4.4z" fill="url(#paint3_linear_414_4825)"/>
  <defs>
    <radialGradient id="paint0_radial_414_4825" cx="0" cy="0" r="1" gradientTransform="translate(121.6 67.99) scale(161.6 92.66)" gradientUnits="userSpaceOnUse">
      <stop stop-color="#689BFC" offset="0"/>
      <stop stop-color="#50CEFF" offset=".3594"/>
      <stop stop-color="#B157F4" stop-opacity=".76" offset=".6667"/>
      <stop stop-color="#B157F4" stop-opacity=".12" offset="1"/>
    </radialGradient>
    <linearGradient id="paint1_linear_414_4825" x1="121.8" x2="121.8" y1="21.66" y2="114.3" gradientUnits="userSpaceOnUse">
      <stop stop-color="#FCEA41" offset="0"/>
      <stop stop-color="#FCE537" offset="1"/>
    </linearGradient>
    <linearGradient id="paint3_linear_414_4825" x1="121.4" x2="121.4" y1="31.31" y2="105.7" gradientUnits="userSpaceOnUse">
      <stop stop-color="#E6C71C" offset="0"/>
      <stop stop-color="#DFBD1A" offset="1"/>
    </linearGradient>
  </defs>
</svg>