<svg xmlns="http://www.w3.org/2000/svg" width="266" height="132" fill="none" viewBox="0 0 266 132">
<!-- SVG created with Arrow, by QuiverAI (https://quiver.ai) -->
  <path d="m0 0h265.3v131.3h-265.3v-131.3z" fill="url(#paint0_linear_2249_4122)"/>
  <path d="m235 15.09h-203c-11 0-18.99 10.06-18.99 19.63v63.71c0 9.9 8.65 18.63 18.81 18.63h203.1c10.79 0 18.76-9.83 18.76-18.86v-63.07c0-10.41-8.13-20.04-18.65-20.04z" fill="url(#paint1_linear_2249_4122)"/>
  <path d="m235 15.78h-202.8c-9.93 0-18.29 8.84-18.29 18.6v63.69c0 9.56 8.52 18.11 18.25 18.11h202.6c10.4 0 17.99-9.79 17.99-18.65v-62.61c0-9.9-7.94-19.14-17.72-19.14z" fill="url(#paint2_linear_2249_4122)"/>
  <path d="m234.6 17.61h-201.7c-9.56 0-17.35 8.02-17.35 17.75v62.26c0 9.56 7.95 17.31 17.64 17.31h201c10.05 0 18.21-8.51 18.21-18.15v-61.72c0-9.68-8.08-17.45-17.8-17.45z" fill="url(#paint3_linear_2249_4122)"/>
  <path d="m234.3 19.23h-201c-8.83 0-13.38 7.5-13.38 15.44v63.25c0 7.79 5.98 14.26 14.4 14.26h199.6c8.8 0 15.19-6.7 15.19-15.12v-62.06c0-8.63-6.04-15.77-14.83-15.77z" fill="url(#paint4_linear_2249_4122)"/>
  <path d="m234.7 24.72h-202c-6.3 0-11.21 4.92-11.21 11.21v61.8c0 6.3 5.27 10.99 11.21 10.99h201.6c6.66 0 10.26-5.39 10.26-10.55v-63.26c0-5.8-4.35-10.19-9.84-10.19z" fill="url(#paint5_linear_2249_4122)"/>
  <defs>
    <linearGradient id="paint0_linear_2249_4122" x2="265.3" y1="65.66" y2="65.66" gradientUnits="userSpaceOnUse">
      <stop stop-color="#01D0FE" stop-opacity=".29" offset="0"/>
      <stop stop-color="#47A6FE" stop-opacity=".41" offset=".13"/>
      <stop stop-color="#866BFE" stop-opacity=".58" offset=".33"/>
      <stop stop-color="#B53FFE" stop-opacity=".71" offset=".49"/>
      <stop stop-color="#D426FF" stop-opacity=".8" offset=".61"/>
      <stop stop-color="#E01BFF" stop-opacity=".85" offset=".68"/>
      <stop stop-color="#E91BFF" stop-opacity=".79" offset=".76"/>
      <stop stop-color="#FF1BFF" stop-opacity=".63" offset=".89"/>
      <stop stop-color="#FF1BFF" stop-opacity=".61" offset=".91"/>
      <stop stop-color="#FF1BFF" stop-opacity=".47" offset=".96"/>
      <stop stop-color="#FF1BFF" stop-opacity=".32" offset="1"/>
    </linearGradient>
    <linearGradient id="paint1_linear_2249_4122" x1="12.97" x2="253.6" y1="66.07" y2="66.07" gradientUnits="userSpaceOnUse">
      <stop stop-color="#00C0FE" offset="0"/>
      <stop stop-color="#8E00D1" offset="1"/>
    </linearGradient>
    <linearGradient id="paint2_linear_2249_4122" x1="13.93" x2="252.8" y1="65.98" y2="65.98" gradientUnits="userSpaceOnUse">
      <stop stop-color="#00C0FE" stop-opacity=".71" offset="0"/>
      <stop stop-color="#8E00D1" stop-opacity=".71" offset="1"/>
    </linearGradient>
    <linearGradient id="paint3_linear_2249_4122" x1="15.48" x2="252.4" y1="66.27" y2="66.27" gradientUnits="userSpaceOnUse">
      <stop stop-color="#474F5E" offset="0"/>
      <stop stop-color="#343A49" offset="1"/>
    </linearGradient>
    <linearGradient id="paint4_linear_2249_4122" x1="19.94" x2="249.2" y1="65.7" y2="65.7" gradientUnits="userSpaceOnUse">
      <stop stop-color="#48505F" offset="0"/>
      <stop stop-color="#363C4B" offset="1"/>
    </linearGradient>
    <linearGradient id="paint5_linear_2249_4122" x1="21.49" x2="244.6" y1="66.72" y2="66.72" gradientUnits="userSpaceOnUse">
      <stop stop-color="#353E4D" offset="0"/>
      <stop stop-color="#343C4B" offset="1"/>
    </linearGradient>
  </defs>
</svg>