<svg xmlns="http://www.w3.org/2000/svg" width="200" height="200" fill="none" viewBox="0 0 200 200">
<!-- SVG created with Arrow, by QuiverAI (https://quiver.ai) -->
  <path d="m183.8 31.78c-30.67-3.44-61.67-9.75-83.75-29.52-22.08 19.77-53.08 26.08-83.75 29.52-2.34 33.53-3.03 69.93 10.04 100.1 12.69 30.66 39.86 52.42 73.52 65.88h0.1c33.66-13.46 60.83-35.22 73.61-65.88 12.89-30.15 12.2-66.55 10.23-100.1z" fill="#1E0051"/>
  <path d="m20.31 34.71c31.02-3.95 58.36-10.79 79.5-27.09 19.88 15.96 48.86 23.24 80.25 27.67 1.73 31.77 1.35 65.68-9.94 94.02-12.1 30.76-37.89 52.91-70.31 64.61h-0.09c-32.42-12.64-58.2-32.44-70.49-62.91-11.57-28.43-10.48-64.63-8.92-96.3z" fill="url(#paint0_linear_221_18616)" stroke="#5F22A8" stroke-miterlimit="10" stroke-width="2.5"/>
  <path d="m21.47 35.77c30.44-3.85 57.78-11.03 78.25-26.78 19.97 15.94 48.22 23.32 79.3 27.27 1.46 31.47 0.69 64.22-10.11 92.17-11.76 31.35-36.97 52.95-69.19 64.23h-0.1c-32.22-13.26-56.61-32.59-68.57-62.6-11.33-28.15-11.03-62.81-9.58-94.29z" fill="url(#paint1_linear_221_18616)" stroke="#F794FF" stroke-miterlimit="10" stroke-width="2.5"/>
  <path d="m25.81 39.92c22.25-3.24 42.22-7.9 60.2-16.59l13.61-10.5 18.9 9.99c16.89 8.24 35.45 12.95 55.24 16.61 1.46 20.36 0.1 45.49-3.64 62.67-17.41-23.19-39.38-39.13-68.01-42.07 1.76-12.26 6.86-22.96 16.61-32.76l-4.25-1.16-14.75 23.49-11.56-23.49-7.58 2.04c9.65 9.31 14.76 19.81 15.83 32.17-25.89 0.78-46.06 11.77-66.32 36.5-3.26-15.95-4.92-35.04-4.28-56.9z" fill="url(#paint2_linear_221_18616)" stroke="#51098D" stroke-miterlimit="10" stroke-width="2"/>
  <path d="m31.79 107.2c17.4 20.55 38.06 34.58 64.33 35.46v41.52c-29.87-12.84-56.04-34.69-64.33-76.98z" fill="#1E0051" stroke="#A047FF" stroke-miterlimit="10" stroke-width="2"/>
  <path d="m43.12 126.7c11.04 10.5 13.37 9.44 13.37 9.44v4.61l4.35 5c1.07 0.29 1.85 1.26 1.85 2.42 0 1.45 1.27 2.62 2.73 2.42 1.21-0.19 2.08-1.36 1.89-2.61-0.2-1.17-1.26-2.04-2.43-1.94-0.68 0.1-1.26 0.49-1.65 1.07l-5.01-4.23v-5.68c4.66 2.64 11.34 6.29 13.57 6.58v8.91l8.59 6.35v9.89c-14.67-8.04-28.76-20.67-37.26-42.23z" fill="url(#paint3_linear_221_18616)" stroke="#B840FF" stroke-miterlimit="10" stroke-width="1.5"/>
  <path d="m51.62 138.5 0.39 0.48" stroke="#6532BF" stroke-miterlimit="10" stroke-width=".75"/>
  <path d="m167 109.7c-13.91 18.9-34.66 30.18-62.91 33.32v39.86c30.46-15.06 55.67-35.44 62.91-73.18z" fill="#1E0051" stroke="#A047FF" stroke-miterlimit="10" stroke-width="2"/>
  <path d="m109.8 148.4c5.2-0.58 12.98-2.51 17.99-4.66l-3.64 6.03-9.05 4.04v4.5l-5.39-0.19 0.09-9.72z" fill="#1E0051" stroke="#B840FF" stroke-miterlimit="10" stroke-width="1.5"/>
  <path d="m118.4 157.1 8.3-3.74 6.27-4.14c0.58 0.68 1.65 0.87 2.52 0.39 1.17-0.68 1.56-2.32 0.59-3.58-1.07-1.26-3.21-0.88-3.88 0.68-0.39 0.87-0.19 1.83 0.39 2.51l-6.87 4.72-7.13 3.06v10.98l-8.75 5.67v-11.97" fill="#1E0051"/>
  <path d="m118.4 157.1 8.3-3.74 6.27-4.14c0.58 0.68 1.65 0.87 2.52 0.39 1.17-0.68 1.56-2.32 0.59-3.58-1.07-1.26-3.21-0.88-3.88 0.68-0.39 0.87-0.19 1.83 0.39 2.51l-6.87 4.72-7.13 3.06v10.98l-8.75 5.67v-11.97" stroke="#B840FF" stroke-miterlimit="10" stroke-width="1.5"/>
  <path d="m114.5 162.7 0.39 0.39" stroke="#6532BF" stroke-miterlimit="10" stroke-width=".75"/>
  <path d="m126.5 159.2c10.64-7.47 22.3-18.85 29.36-32.68-5.77 5.77-17.83 14.58-27.47 17.24l-3.74 6.22-7.99 4.62v13.36l9.84-8.76z" fill="url(#paint4_linear_221_18616)" stroke="#6532BF" stroke-miterlimit="10" stroke-width="1.5"/>
  <path d="m139.7 144.2c0.48 0 0.87-0.38 0.87-0.87 0-0.48-0.39-0.87-0.87-0.87s-0.87 0.39-0.87 0.87c0 0.49 0.39 0.87 0.87 0.87z" fill="#41F0FF"/>
  <path d="m126.7 159.4 0.39 0.39" stroke="#6532BF" stroke-miterlimit="10" stroke-width=".75"/>
  <path d="m99.62 138.9c25.35-0.97 45.71-13.13 65.4-37-18.17-21.42-38.24-35.92-65.01-36.4h-0.49c-26.77 0.48-46.84 14.98-65.01 36.4 19.69 23.87 39.95 36.03 65.21 37h-0.1z" fill="#1E0051" stroke="#A047FF" stroke-miterlimit="10" stroke-width="2"/>
  <path d="m127.5 77.65c11.33 5.77 21.67 14.38 30.18 24.17-9.1 10.4-18.36 18.54-30.27 24.21 6.32-7.57 9.33-15.32 8.74-24.32-0.58-8.9-3.48-17.33-8.65-24.06z" fill="url(#paint5_linear_221_18616)" stroke="#E643FE" stroke-miterlimit="10" stroke-width="2"/>
  <path d="m72.47 77.65c-11.34 5.77-21.67 14.38-30.18 24.17 9.1 10.4 18.36 18.54 30.27 24.21-6.32-7.57-9.33-15.32-8.75-24.32 0.58-8.9 3.49-17.33 8.66-24.06z" fill="url(#paint6_linear_221_18616)" stroke="#E643FE" stroke-miterlimit="10" stroke-width="2"/>
  <path d="m99.72 133.9c17.05 0 32.01-14.72 32.01-32.76s-14.28-31.67-31.72-31.86h-0.39c-17.44 0.19-31.34 13.63-31.34 31.67s14.39 32.95 31.44 32.95z" fill="url(#paint7_linear_221_18616)" stroke="#090066" stroke-miterlimit="10" stroke-width="2"/>
  <path d="m99.62 132.2c15.24 0 29.33-13.16 29.33-30.62 0-17.47-13.31-30.31-29.23-30.4h-0.19c-15.92 0.09-28.91 12.73-28.91 30.2s13.76 30.82 29 30.82z" fill="#41F0FF" stroke="#26D7FF" stroke-miterlimit="10" stroke-width="2"/>
  <path d="m81.99 88.51c-1.76 0.39-3.13-1.55-2.25-3.2 2.8-5.1 8.09-7.75 9.94-8.04 2.43-0.39 3.99 2.45 1.85 4.19-2.24 1.85-5.44 2.62-8.21 6.27-0.49 0.39-0.88 0.68-1.33 0.78z" fill="#D5FEFF"/>
  <path d="m78.37 94.48c1.24 0 1.95-1.37 1.27-2.43-0.68-1.07-2.43-0.88-2.82 0.38-0.39 1.06 0.48 2.05 1.55 2.05z" fill="#D5FEFF"/>
  <path d="m99.72 127.8c12.99 0 24.03-12.16 24.03-26.61s-11.53-25.33-24.42-25.42h-0.19c-12.89 0.09-23.53 10.79-23.53 25.24s11.13 26.79 24.11 26.79z" fill="url(#paint8_radial_221_18616)"/>
  <path d="m100.1 118.2c9.35 0 16.93-8.14 16.64-17.47-0.29-8.91-7.87-15.93-16.83-15.65-8.96 0.29-15.83 7.12-16.31 16.03-0.29 9.32 7.15 17.09 16.5 17.09z" fill="url(#paint9_linear_221_18616)" stroke="#1E0051" stroke-miterlimit="10" stroke-width="2"/>
  <path d="m109.2 96.82c3.95 0 5.6-4.01 4.63-7.14-1.26-3.95-7.73-4.72-9.58-0.97-1.85 3.76 0.49 8.01 4.95 8.11z" fill="#F9C5FF"/>
  <path d="m98.07 90.11c-6.87 1.35-9.76 6.25-9.85 11.22-0.29-5.57 3.56-10.55 9.85-11.22z" fill="#6812B3"/>
  <path d="m93.62 100.1c0.48 3.75 3.47 5.3 7.12 5.2 1.07 0 1.17 1.55-0.1 1.74-3.35 0.58-7.8-2.27-7.02-6.94z" fill="url(#paint10_linear_221_18616)"/>
  <path d="m118.6 111.9c2.05-4.79 1.17-10.76-1.46-15.76 3.46 3.75 4.14 11.07 1.46 15.76z" fill="url(#paint11_linear_221_18616)"/>
  <path d="m115.4 119.2c0.68 0 1.26-0.57 1.26-1.25s-0.58-1.26-1.26-1.26-1.26 0.58-1.26 1.26 0.58 1.25 1.26 1.25z" fill="#41F0FF"/>
  <path d="m95.96 77.95c0.55 0 1-0.45 1-1s-0.45-0.99-1-0.99-1 0.44-1 0.99 0.45 1 1 1z" fill="#41F0FF"/>
  <path d="m108.1 79.81c0.28 0 0.51-0.23 0.51-0.51s-0.23-0.51-0.51-0.51-0.51 0.23-0.51 0.51 0.23 0.51 0.51 0.51z" fill="#F9C5FF"/>
  <path d="m126.6 98.08c0.28 0 0.51-0.23 0.51-0.51s-0.23-0.51-0.51-0.51-0.51 0.23-0.51 0.51 0.23 0.51 0.51 0.51z" fill="#F9C5FF"/>
  <path d="m112.2 126.1c0.28 0 0.51-0.23 0.51-0.51s-0.23-0.51-0.51-0.51-0.51 0.23-0.51 0.51 0.23 0.51 0.51 0.51z" fill="#F9C5FF"/>
  <path d="m105 123.9c0.28 0 0.51-0.23 0.51-0.51s-0.23-0.51-0.51-0.51c-0.29 0-0.52 0.23-0.52 0.51s0.23 0.51 0.52 0.51z" fill="#F9C5FF"/>
  <path d="m147.7 108c0.28 0 0.51-0.23 0.51-0.51s-0.23-0.51-0.51-0.51-0.52 0.23-0.52 0.51 0.24 0.51 0.52 0.51z" fill="#F9C5FF"/>
  <path d="m139.8 91.94c0.28 0 0.51-0.23 0.51-0.51s-0.23-0.51-0.51-0.51-0.51 0.23-0.51 0.51 0.23 0.51 0.51 0.51z" fill="#F9C5FF"/>
  <path d="m151.7 101.1c0.28 0 0.51-0.23 0.51-0.51s-0.23-0.51-0.51-0.51-0.51 0.23-0.51 0.51 0.23 0.51 0.51 0.51z" fill="#F9C5FF"/>
  <path d="m77.98 113.7c0.28 0 0.51-0.23 0.51-0.51s-0.23-0.51-0.51-0.51-0.51 0.23-0.51 0.51 0.23 0.51 0.51 0.51z" fill="#F9C5FF"/>
  <path d="m58.02 109.1c0.42 0 0.77-0.34 0.77-0.77s-0.35-0.77-0.77-0.77c-0.43 0-0.77 0.34-0.77 0.77s0.34 0.77 0.77 0.77z" fill="#41F0FF"/>
  <path d="m68.32 155.2c0.43 0 0.77-0.34 0.77-0.77s-0.34-0.77-0.77-0.77-0.77 0.34-0.77 0.77 0.34 0.77 0.77 0.77z" fill="#F9C5FF"/>
  <path d="m59.77 90.78c0.43 0 0.77-0.34 0.77-0.77s-0.34-0.77-0.77-0.77-0.77 0.34-0.77 0.77 0.34 0.77 0.77 0.77z" fill="#41F0FF"/>
  <path d="m85.15 152.1c0.43 0 0.77-0.34 0.77-0.77s-0.34-0.77-0.77-0.77-0.77 0.34-0.77 0.77 0.34 0.77 0.77 0.77z" fill="#F9C5FF"/>
  <path d="m82.09 163c0.28 0 0.51-0.23 0.51-0.51s-0.23-0.51-0.51-0.51-0.51 0.23-0.51 0.51 0.23 0.51 0.51 0.51z" fill="#6532BF"/>
  <path d="m147.4 96.14 0.39 0.39" stroke="#6532BF" stroke-miterlimit="10" stroke-width=".75"/>
  <path d="m146 100.4c-1.17-4.04-3.9-6.39-7.64-7.46 2.9 2.25 4.85 4.4 4.95 6.84 0.1 2.04-2.44 1.36-2.92 3.4-0.68 2.84 1.46 5.58 2.24 5-0.49-2.25-1.37-4.7 0.68-5.76 1.46-0.77 2.88-0.87 2.69-2.02z" fill="url(#paint12_linear_221_18616)"/>
  <path d="m55.98 102.2c-1.17-1.74-2.33-2.32-3.99-3 0.29 0.68 0.2 1.17 0 1.55-0.58 0.87-1.94-0.29-2.52 0.68-0.58 0.96 0.78 2.12 1.94 1.83 1.56-0.48 2.33-1.16 4.57-1.06z" fill="url(#paint13_linear_221_18616)"/>
  <path d="m33.15 45.79c15.64-2.34 31.29-5.98 45.76-11.66 6.57 6.84 10.01 15.95 10.88 21.82-18.58 2.24-36.25 10.57-55.18 28.87-1.36-10.89-2.04-24.71-1.46-39.03z" fill="url(#paint14_linear_221_18616)" stroke="#320563" stroke-miterlimit="10" stroke-width="2"/>
  <path d="m110 55.95c2.14-8.81 6.08-15.94 10.98-20.85 5.98 3.14 13.56 5.39 21.73 7.13l-9.05 10-0.97-0.29-8.08 6.63c3.26 1.17 9.73 3.01 14.44 6.56l9.44-21.29c7.24 1.46 12.72 2.81 17.92 3.1 0.87 9.31 0.48 18.12-0.29 20.87l-7.19-0.1c-0.77-1.35-2.63-1.64-3.89-0.29l-0.48 1.07-6.37 2.34-1.16 0.2c-6.07-4.61-13.95-9.32-22.03-11.96l9.54-9 1.26 0.68" stroke="#6532BF" stroke-miterlimit="10" stroke-width="1.5"/>
  <path d="m151.1 73.68 14.75 11.57 0.29-12.34-10.74-0.1-4.3 0.87z" stroke="#B840FF" stroke-miterlimit="10" stroke-width="1.5"/>
  <path d="m157.6 70.05c1.6-0.29 2.42-2.14 1.5-3.63-1.06-1.75-3.79-1.26-4.08 0.89-0.29 1.65 1.08 3 2.58 2.74z" stroke="#B840FF" stroke-miterlimit="10" stroke-width="1.5"/>
  <path d="m135.6 59.06c1.87 0 2.97-1.94 2.1-3.59-1.06-2.04-4.1-1.65-4.59 0.59-0.38 1.65 0.98 3 2.49 3z" stroke="#B840FF" stroke-miterlimit="10" stroke-width="1.5"/>
  <path d="m127.7 46.75c1.95-0.38 2.63-3.02 0.98-4.48-1.56-1.45-4.1-0.19-3.71 2.35 0.2 1.26 1.36 2.32 2.73 2.13z" stroke="#B840FF" stroke-miterlimit="10" stroke-width="1.5"/>
  <path d="m100 19.43 12.35 6.34c-6.47 6.54-11.23 14.77-12.59 19.28-1.95-6.44-6.5-13.8-11.51-19.57l11.27-6.14 0.48 0.09z" fill="url(#paint15_linear_221_18616)" stroke="#3A0578" stroke-miterlimit="10" stroke-width="2"/>
  <path d="m99.91 22.37 0.2 13.83-5.87-11.38 5.67-2.45z" fill="#F9C5FF"/>
  <path d="m99.91 22.08 6.57 3.75-6.57 10.49v-14.24z" fill="#9443FF"/>
  <path d="m151 62.1c3.36-0.68 5.31-4.53 3.56-7.67-2.24-4.14-8.32-2.98-7.93 2.69 0.1 2.85 2.04 5.47 4.37 4.98z" fill="url(#paint16_radial_221_18616)" stroke="#7017F2" stroke-miterlimit="10" stroke-width=".75"/>
  <path d="m160.4 52.81c0.81-0.16 1.24-1.15 0.76-1.99-0.61-1.05-2.27-0.71-2.46 0.55-0.15 0.94 0.72 1.61 1.7 1.44z" fill="#D469FF"/>
  <path d="m159.7 63.79c0.43 0 0.77-0.34 0.77-0.77s-0.34-0.77-0.77-0.77-0.77 0.34-0.77 0.77 0.34 0.77 0.77 0.77z" fill="#41F0FF"/>
  <path d="m151.3 49.98c0.43 0 0.77-0.35 0.77-0.77 0-0.43-0.34-0.77-0.77-0.77s-0.77 0.34-0.77 0.77c0 0.42 0.34 0.77 0.77 0.77z" fill="#41F0FF"/>
  <path d="m120 50.36c0.81 0 1.39-0.77 1.15-1.64-0.39-1.35-2.43-1.25-2.53 0.2-0.09 0.77 0.59 1.44 1.38 1.44z" fill="#41F0FF"/>
  <path d="m66.15 45.49c0.37 0 0.68-0.3 0.68-0.68 0-0.37-0.31-0.68-0.68-0.68-0.38 0-0.68 0.31-0.68 0.68 0 0.38 0.3 0.68 0.68 0.68z" fill="#6532BF"/>
  <path d="m79.79 51.74c0.37 0 0.68-0.3 0.68-0.68 0-0.37-0.31-0.68-0.68-0.68-0.38 0-0.68 0.31-0.68 0.68 0 0.38 0.3 0.68 0.68 0.68z" fill="#6532BF"/>
  <path d="m38.16 52.03c0.37 0 0.68-0.3 0.68-0.68 0-0.37-0.31-0.68-0.68-0.68-0.38 0-0.68 0.31-0.68 0.68 0 0.38 0.3 0.68 0.68 0.68z" fill="#6532BF"/>
  <path d="m73.97 47.86c3.45 0 3.74-4.99 0.39-5.38s-3.93 5.19-0.39 5.38z" fill="url(#paint17_radial_221_18616)"/>
  <path d="m42.51 71.86c0.77 0 1.25-0.87 0.86-1.64-0.58-1.16-2.43-0.58-2.14 0.77 0.1 0.48 0.68 0.87 1.28 0.87z" fill="#A241FF"/>
  <path d="m67.02 50.08 1.36 3.75 2.83 1.26-3.35 0.67-0.97 2.85-0.88-3.14-2.83-1.35 2.93-0.77 0.91-3.27z" fill="#41F0FF"/>
  <path d="m48.59 65.04c4.87-0.48 7.72-5.3 6.75-9.81-1.26-5.87-8.35-7.22-11.59-2.32-3.25 4.8-1.3 12.7 4.84 12.13z" fill="url(#paint18_radial_221_18616)"/>
  <path d="m43.07 57.13c-3.35 3.14-5.79 5.79-4.62 6.85 1.66 1.55 13.66-3.81 18.96-9.18 3.25-3.34 3.44-4.79 1.78-5.57-2.04-0.87-8.82 2.08-11.06 4.72" stroke="url(#paint19_linear_221_18616)" stroke-miterlimit="10" stroke-width="1.5"/>
  <defs>
    <linearGradient id="paint0_linear_221_18616" x1="99.8" x2="99.8" y1="7.616" y2="193.9" gradientUnits="userSpaceOnUse">
      <stop stop-color="#8F1BFF" offset="0"/>
      <stop stop-color="#5800D8" offset="1"/>
    </linearGradient>
    <linearGradient id="paint1_linear_221_18616" x1="99.9" x2="99.9" y1="8.986" y2="192.7" gradientUnits="userSpaceOnUse">
      <stop stop-color="#DB66FF" offset="0"/>
      <stop stop-color="#8224D1" offset="1"/>
    </linearGradient>
    <linearGradient id="paint2_linear_221_18616" x1="99.81" x2="99.81" y1="12.83" y2="98.38" gradientUnits="userSpaceOnUse">
      <stop stop-color="#DB66FF" offset="0"/>
      <stop stop-color="#8224D1" offset="1"/>
    </linearGradient>
    <linearGradient id="paint3_linear_221_18616" x1="59.9" x2="59.9" y1="126.7" y2="169.5" gradientUnits="userSpaceOnUse">
      <stop stop-color="#090066" offset="0"/>
      <stop stop-color="#721DD4" offset="1"/>
    </linearGradient>
    <linearGradient id="paint4_linear_221_18616" x1="137.1" x2="137.1" y1="126" y2="168.4" gradientUnits="userSpaceOnUse">
      <stop stop-color="#090066" offset="0"/>
      <stop stop-color="#721DD4" offset="1"/>
    </linearGradient>
    <linearGradient id="paint5_linear_221_18616" x1="142.7" x2="142.7" y1="77.65" y2="126.5" gradientUnits="userSpaceOnUse">
      <stop stop-color="#09B0FF" offset="0"/>
      <stop stop-color="#B924F3" offset=".51"/>
      <stop stop-color="#C121D1" offset="1"/>
    </linearGradient>
    <linearGradient id="paint6_linear_221_18616" x1="57.64" x2="57.64" y1="77.65" y2="126.5" gradientUnits="userSpaceOnUse">
      <stop stop-color="#09B0FF" offset="0"/>
      <stop stop-color="#B924F3" offset=".51"/>
      <stop stop-color="#C121D1" offset="1"/>
    </linearGradient>
    <radialGradient id="paint7_linear_221_18616" cx="0" cy="0" r="1" gradientTransform="translate(99.99 101.6) scale(31.94 32.08)" gradientUnits="userSpaceOnUse">
      <stop stop-color="#090066" offset="0"/>
      <stop stop-color="#721DD4" offset="1"/>
    </radialGradient>
    <radialGradient id="paint8_radial_221_18616" cx="0" cy="0" r="1" gradientTransform="translate(99.68 101.8) scale(25.13 25.23)" gradientUnits="userSpaceOnUse">
      <stop stop-color="#090066" offset="0"/>
      <stop stop-color="#721DD4" offset=".56"/>
      <stop stop-color="#B924F3" offset=".96"/>
    </radialGradient>
    <linearGradient id="paint9_linear_221_18616" x1="100.2" x2="100.2" y1="85.09" y2="118.2" gradientUnits="userSpaceOnUse">
      <stop stop-color="#1E0051" offset="0"/>
      <stop stop-color="#2E0061" offset=".51"/>
      <stop stop-color="#4729D7" offset="1"/>
    </linearGradient>
    <linearGradient id="paint10_linear_221_18616" x1="97.09" x2="97.09" y1="100.1" y2="107.1" gradientUnits="userSpaceOnUse">
      <stop stop-color="#090066" offset="0"/>
      <stop stop-color="#721DD4" offset="1"/>
    </linearGradient>
    <linearGradient id="paint11_linear_221_18616" x1="119.5" x2="119.5" y1="96.14" y2="111.9" gradientUnits="userSpaceOnUse">
      <stop stop-color="#B924F3" offset="0"/>
      <stop stop-color="#B924F3" stop-opacity=".15" offset="1"/>
    </linearGradient>
    <radialGradient id="paint12_linear_221_18616" cx="0" cy="0" r="1" gradientTransform="translate(142.6 100.6) scale(5.345 5.371)" gradientUnits="userSpaceOnUse">
      <stop stop-color="#B924F3" offset="0"/>
      <stop stop-color="#B924F3" stop-opacity=".15" offset="1"/>
    </radialGradient>
    <linearGradient id="paint13_linear_221_18616" x1="52.84" x2="52.59" y1="98.9" y2="102.3" gradientUnits="userSpaceOnUse">
      <stop stop-color="#B924F3" offset="0"/>
      <stop stop-color="#B924F3" stop-opacity=".15" offset="1"/>
    </linearGradient>
    <linearGradient id="paint14_linear_221_18616" x1="61.4" x2="61.4" y1="32.62" y2="86.32" gradientUnits="userSpaceOnUse">
      <stop stop-color="#090066" offset="0"/>
      <stop stop-color="#721DD4" offset="1"/>
    </linearGradient>
    <radialGradient id="paint15_linear_221_18616" cx="0" cy="0" r="1" gradientTransform="translate(100.3 32.19) scale(10.24 10.29)" gradientUnits="userSpaceOnUse">
      <stop stop-color="#721DD4" offset="0"/>
      <stop stop-color="#9443FF" offset="1"/>
    </radialGradient>
    <radialGradient id="paint16_radial_221_18616" cx="0" cy="0" r="1" gradientTransform="translate(150.9 57.46) scale(5.008 5.033)" gradientUnits="userSpaceOnUse">
      <stop stop-color="#09B0FF" offset="0"/>
      <stop stop-color="#B924F3" offset=".51"/>
      <stop stop-color="#C121D1" offset="1"/>
    </radialGradient>
    <radialGradient id="paint17_radial_221_18616" cx="0" cy="0" r="1" gradientTransform="translate(73.93 45.17) scale(3.173 3.186)" gradientUnits="userSpaceOnUse">
      <stop stop-color="#721DD4" offset="0"/>
      <stop stop-color="#B924F3" offset="1"/>
    </radialGradient>
    <radialGradient id="paint18_radial_221_18616" cx="0" cy="0" r="1" gradientTransform="translate(48.15 56.47) scale(7.767 7.808)" gradientUnits="userSpaceOnUse">
      <stop stop-color="#09B0FF" offset="0"/>
      <stop stop-color="#B924F3" offset=".51"/>
      <stop stop-color="#4729D7" offset="1"/>
    </radialGradient>
    <linearGradient id="paint19_linear_221_18616" x1="48.81" x2="48.81" y1="48.93" y2="64.29" gradientUnits="userSpaceOnUse">
      <stop stop-color="#FF7BFF" offset="0"/>
      <stop stop-color="#721DD4" offset="1"/>
    </linearGradient>
  </defs>
</svg>