<svg xmlns="http://www.w3.org/2000/svg" width="250" height="250" fill="none" viewBox="0 0 250 250">
<!-- SVG created with Arrow, by QuiverAI (https://quiver.ai) -->
  <path d="m223.6 47.62-53.56-24.6c-0.86-2.74-2.29-5.26-3.94-7.86l-7.07-10.16v10.53l-0.11 1.09-33.95-13.62 0.02 0.01-33.26 13.51-0.88-11.52-7.07 10.16c-1.75 2.73-3.24 5.39-4.1 8.3l-53.68 24.16c-0.78 30.1-0.85 63.15 11.11 97.25 13.31 38.44 39.6 76.11 87.87 102.1 48.27-26.02 74.32-62.71 86.97-101.4 11.35-35.9 12.23-63.94 11.65-97.99z" fill="url(#paint0_linear_111_1202)"/>
  <path d="m125 5.88-34.05 15.33-1.05-10.17-3.68 6.4c-1.67 2.61-3.27 5.33-4.09 8.33l-53.61 23.94c-0.82 29.49-0.77 59.88 10.31 93.39 12.65 40.31 40.28 77.62 86.2 101.4 45.92-23.8 72.54-61.86 84.91-100 10.81-34.86 11.89-64.05 11.53-95.66l-52.69-23.78c-0.9-2.96-2.45-5.52-4.07-8.07l-3.68-5.92-0.17 9.68-35.86-14.84z" fill="#4E0038"/>
  <path d="m125 9.01 37.4 17-0.28 12.23-37.32-16.15-36.66 15.81-0.46-12.29 37.32-16.6z" fill="url(#paint1_linear_111_1202)"/>
  <path d="m124.9 26.06 36.99 16.12-2.11 5.97-34.69-15.03-34.82 14.65-1.74-5.89 36.37-15.82z" fill="#490026"/>
  <path d="m124.8 28.17 46.8 20.27 0.69 3.21 34.77 5.34c0.72 29.04-2.9 61.22-14 90.62-12.52 33.32-35.33 62.14-68.16 79.76-32.82-17.62-55.82-45.45-68.77-78.16-11.54-30.4-13.73-59.14-12.21-91.56l33.31-14.74 1.06-3.82 46.51-10.92z" fill="url(#paint2_linear_111_1202)"/>
  <path d="m124.8 29.67 45.39 20.15 0.74 4.62 31.17 6.65c0.66 28.06-3.71 58.34-14.29 86-11.92 31.52-31.96 57-62.92 75.82-30.95-18.82-51.54-43.44-64.1-74.2-10.92-28.3-13.56-55.64-12.12-87.48l29.5-13.33 0.9-3.82 45.73-14.41z" stroke="url(#paint3_linear_111_1202)" stroke-width="2.702"/>
  <path d="m33.06 51.06 47.66-22.16-4.54 16.32-41.2 7.89c-0.5 28.17 0.73 56.67 9.03 85.53l9.08-1.25-13.33-12.81c-5.58-24.15-7.03-48.83-6.7-73.52z" fill="#F82649"/>
  <path d="m215.8 51.69-45.68-21.28 2.9 14.04 41.81 12.16c0.82 28.01-2.08 57.37-10.04 82.4l-7.65-2.89 11.05-11.7c5.58-23.05 7.73-48.04 7.61-72.73z" fill="#B30033"/>
  <path d="m34.68 52.05 49.21-23.34-1.13 5.66-42.91 20.4c-0.57 28.84-0.04 56.75 9.16 84.34l-7.23-4.66c-6.57-27.02-7.45-53.67-7.1-82.4z" fill="#F82649"/>
  <path d="m215.4 52.05-44.59-20.49 1.24 4.93 38.89 18.28c1.13 30.31-3.3 61.96-11.18 84.44l7.02-5.49c7.16-25.81 8.96-52.94 8.62-81.67z" fill="#B30033"/>
  <path d="m59.79 173.2 3.59-6.06 8.07 20.1 0.16 7.94-2.7-2.83-9.12-19.15z" fill="#B30033"/>
  <path d="m191.1 171.7-4.83-4.59-0.65 6.37-8.07 13.88v9.26l3.59-3.53 9.96-15.98v-5.41z" fill="#B30033"/>
  <path d="m66.15 169.9 10.22 5.92 9.75-13.76 3.09-31.07-2.15-1.01-3.81 31.92-7.04 10.16-10.06-2.16z" fill="url(#paint4_linear_111_1202)"/>
  <path d="m162.3 130.6-2.98 1.83 5.37 30.3 8.23 11.54 4.04-4.17-8.58-7.05-6.08-32.45z" fill="url(#paint5_linear_111_1202)"/>
  <path d="m124.9 239.7c-29.1-14.92-53.49-40.63-63.67-55.87l11.53 4.32c14.47 19.6 28.94 32.93 52.08 47.69 22.24-12.24 40.34-29.76 51.87-45.58l2.26 0.63c-12.66 17.01-29.53 36.21-54.07 48.81z" fill="#B30033"/>
  <path d="m124.9 241.7 0.18 0.36-0.24 0.12-0.21-0.12 0.11-0.36h0.16z" fill="#B30033"/>
  <path d="m124.8 14.08 37.69 14.83-0.78 5.18-36.86-14.83-35.69 15.62-0.34-5.22 35.98-15.58z" fill="#B30033"/>
  <path d="m124.8 220.1-0.04-29.65 27.8-19.75 2.73 11.24-5.26 16.79-25.23 21.37z" fill="url(#paint6_linear_111_1202)"/>
  <path d="m96.92 186.2 28.09 20.82 26.7-20.82 1.73 5.92-4.4 11.54-24.54 14.96-24.38-15.48-4.04-10.4 0.84-6.54z" stroke="url(#paint7_linear_111_1202)" stroke-width="1.801"/>
  <path d="m103.7 194 1.73 11.54" stroke="#B30033" stroke-width=".9006"/>
  <path d="m147.7 193.1-3.54 12.45" stroke="#720033" stroke-width=".9006"/>
  <path d="m93.83 130.7-4.62 33.2 6.5 11.24-2.57 17.57 2.15 0.38 5.77-22.09-0.84-5.93 3.02-14.82-2.89-14.96-6.52-4.59z" fill="url(#paint8_linear_111_1202)" stroke="url(#paint9_linear_111_1202)" stroke-width="1.801"/>
  <path d="m156.7 130.6 3.98 34.2-6.24 11.24 2.99 15.69-2.15 0.97-6.13-21.71 2.19-6.77-3.54-13.04 3.12-15.98 5.78-4.6z" fill="url(#paint10_linear_111_1202)" stroke="url(#paint9_linear_111_1202)" stroke-width="1.801"/>
  <path d="m156.1 152.1c1.1 0 1.71-1.09 1.22-2.5-0.28-0.82-1.99-0.98-2.6-0.14-0.81 1.12-0.11 2.64 1.38 2.64z" stroke="url(#paint12_linear_111_1202)" stroke-width=".9006"/>
  <path d="m94.28 152c1.29 0 1.77-0.99 1.44-2.23-0.23-0.86-1.81-1.1-2.5-0.32-0.95 1.06-0.38 2.55 1.06 2.55z" stroke="url(#paint13_linear_111_1202)" stroke-width=".9006"/>
  <path d="m101.1 170.7 23.95 16.54 23.52-17.09 1.35 8.95-1.07 4.33-23.99 19.3-24.2-19.77-0.5-2.83 0.94-9.43z" fill="url(#paint14_linear_111_1202)" stroke="url(#paint15_linear_111_1202)" stroke-width="1.801"/>
  <path d="m103.2 174.7 0.11 7.2 3.32 2.27v4.93" stroke="url(#paint16_linear_111_1202)" stroke-width=".9006"/>
  <path d="m146.3 174.3v8.08l-3.98 3.27v4.03" stroke="url(#paint17_linear_111_1202)" stroke-width=".9006"/>
  <path d="m70.06 119.6 14.82-2.11-3.75-2.29 5.78-1.3 10.32 4.72-2.52 10.98-5.1-2.52-19.55-7.48z" fill="url(#paint18_linear_111_1202)"/>
  <path d="m154.4 120.2 13.04-2.74-2.15-1.4 12.6 3.9-22.65 11.68-0.84-11.44z" fill="url(#paint19_linear_111_1202)"/>
  <path d="m63.82 86.52 13.8 25.08 16.87 8.81-2.47-14.09-3.89-2.21 3.73-6.1-4.64-9.59-8.13 0.72-15.27-2.62z" fill="url(#paint20_linear_111_1202)"/>
  <path d="m185.6 86.42-13.19 6.65 5.48-14.66 3.72-24.07-11.36 18.58-9.96 8.69-2.99 14.5 1.73 10 4.94 2.11 5.05 4 16.58-25.8z" fill="url(#paint21_linear_111_1202)"/>
  <path d="m68.03 54.5 4.71 29.22 6.35 10.22-9.37-6.32 14.47 13.33 7.23-2.52-1.34-14.4-9.07-8.69-12.98-20.84z" fill="url(#paint22_linear_111_1202)"/>
  <path d="m159.1 48.91-7.65 10.16 1.67 7.94 11.67 4.03 6.84-14.03c0-9-1.52-20.9-5.91-36.98l-2.57 2.51-4.05 26.37z" fill="url(#paint23_linear_111_1202)"/>
  <path d="m108.5 37.21c-3.38 8.46-5.79 15.41-5.79 19.8l1.49 10 10.12 7.71 10.54-9.59 10.7 7.48 7.49-7.48 1.67-10.99c-1.16-7.1-2.47-11.49-3.41-16.93-2.99 9-3.55 16.48-7.94 20.01l-8.57-17.62-10.23 15.52c-3.38-3.42-3.82-8.91-6.07-17.91z" fill="url(#paint24_linear_111_1202)"/>
  <path d="m85.91 19.71c-4.23 7.49-8.81 18.85-8.81 37.25l7.09 12.7 1.93-10.59 10.64-1.75-5.67-8.41c-3.44-1.87-4.86-14.9-3.42-27.79l-1.76-1.41z" fill="url(#paint25_linear_111_1202)"/>
  <path d="m84.19 31.35c-1 9.36-0.68 18.76 1.83 24.68l9.05 0.58-3.93-3.5c-3.98-2.35-5.92-12.89-6.95-21.76z" fill="#FEFFFE"/>
  <path d="m166.1 33.12c-0.23 7.76-1.17 17.3-4.92 21.17l-5.04 2.32 7.15 0.4c3.08-4 3.81-14.97 2.81-23.89z" fill="#FEFFFE"/>
  <path d="m86.23 57.01 7.49 10.21-1.09 7.91 1.92 3.95 7.71-1.45-4.88-19.98-11.15-0.64z" fill="url(#paint26_linear_111_1202)" stroke="url(#paint27_linear_111_1202)" stroke-width="1.801"/>
  <path d="m151.1 57.01-4.93 9.21 1.72 2.1 6.24 0.72 9.06-12.03h-12.09z" fill="url(#paint28_linear_111_1202)" stroke="url(#paint29_linear_111_1202)" stroke-width="1.801"/>
  <path d="m109.6 52.21c-2.3 3.87-3.09 7.86-2.2 11.89l3.74 7.8 4.5-3.68-1.29-7.84-4.75-8.17z" fill="url(#paint30_linear_111_1202)" stroke="url(#paint31_linear_111_1202)" stroke-width=".9006"/>
  <path d="m141.2 52.21-6.24 10.39-1.14 8.44 5.67-4.03 3.06-8.15-1.35-6.65z" fill="url(#paint32_linear_111_1202)" stroke="url(#paint33_linear_111_1202)" stroke-width=".9006"/>
  <path d="m93.72 68.32-3.64 10.4 6.24 12.18 8.41-0.83 6.42-2.45-3.94-19.3h-13.49z" fill="url(#paint34_linear_111_1202)" stroke="url(#paint35_linear_111_1202)" stroke-width="1.801"/>
  <path d="m145.3 68.32-4.36 9.31-2.25 9.99 8.01 0.21 11.67-8.75-3.96-10.76h-9.11z" fill="url(#paint36_linear_111_1202)" stroke="url(#paint37_linear_111_1202)" stroke-width="1.801"/>
  <path d="m93.35 87.21 10.64-0.2 13.8 13.94-0.78 12.87-8.72-8.41-13.8-10.99-1.14-7.21z" fill="url(#paint38_linear_111_1202)" stroke="url(#paint39_linear_111_1202)" stroke-width=".9006"/>
  <path d="m147.4 87.01-16.1 16.08 0.78 9.13 10.53-8.56 14.32-12.55-0.52-4.1h-9.01z" fill="url(#paint40_linear_111_1202)" stroke="url(#paint41_linear_111_1202)" stroke-width=".9006"/>
  <path d="m124.7 43.11-11.09 18.23 1.09 9.7 9.84-13.03 9.6 12.61 0.99-10.24-10.43-17.27z" fill="url(#paint42_linear_111_1202)"/>
  <path d="m124.7 68.22-7.49 10.86 1.14 16.3 6.35 6.32 6.79-7.49 1.2-15.49-7.99-10.5z" fill="url(#paint43_linear_111_1202)" stroke="url(#paint44_linear_111_1202)" stroke-width="1.801"/>
  <path d="m124.7 50.06v11.86l-4.71 5.99 4.71-5.73v-12.12z" fill="#FEFFFE"/>
  <path d="m118.6 79.71 3.12 6.32-1.61-8.4 4.44-5.78v18.06l-3.48 3-2.47-13.2z" fill="#FEFFFE"/>
  <path d="m110 115.3-17.73-8.3 3.4 9.08 13.55 7.9 1.89 5.61-2.86 10.3-7.76-6.2-4.82-14.78-5.63-11.29 3.64-3.54-0.78-6.72 14.83 6.72 7.34 9.71-5.07 1.51z" fill="url(#paint45_linear_111_1202)" stroke="url(#paint46_linear_111_1202)" stroke-width="1.801"/>
  <path d="m138.9 115.2 17.15-8.9-2.94 8.9-14.05 8.69-0.94 6.51 3.99 8.49 7.81-6.06 4.88-15.44 5.44-10.4-4.04-3.35 0.06-6.27-13.15 6.27-8.2 9.39 3.99 2.17z" fill="url(#paint47_linear_111_1202)" stroke="url(#paint48_linear_111_1202)" stroke-width="1.801"/>
  <path d="m100.5 123.6c4.5 2.51 7.39 7.51 7.08 15l-7.08-15z" fill="#FE2949"/>
  <path d="m148.7 124.1c-3.64 2.83-5.94 6.52-6.36 12.17l6.36-12.17z" fill="#FE2949"/>
  <path d="m105.3 118.1 4.91 1.81" stroke="#720033" stroke-width=".9006"/>
  <path d="m144.2 117.7 8.55-2.5" stroke="#720033" stroke-width=".9006"/>
  <path d="m133.3 116.7-8.32 6.06-8.06-6.06" stroke="#720033" stroke-width=".9006"/>
  <path d="m132.4 124-7.38 5.25-7.39-5.35" stroke="#720033" stroke-width=".9006"/>
  <path d="m113.2 139.3 4.94 3.44-3.77-5.1 2.87-7.65 7.49 5.61 7.48-5.99 3.11 8.03-4.2 5.4 5.1-3.74 2.49 9.4-13.69 14.16-12.88-13.85 1.06-9.71z" fill="url(#paint49_linear_111_1202)" stroke="url(#paint50_linear_111_1202)" stroke-width="1.801"/>
  <path d="m105.8 145.2-7.09-10.78-2.4-12.39 5.67 5.04 4.94 8.51 0.68 15.39 6.02 10.76 1.73-1.55 9.36 8.13 9.06-7.33 1.9 3.24 7.08-12.54v-8.3l7.12-9.43 2.86-11.92-7.95 7.56-3.98 9.13-1.74-11.65-4.15 9.18 1.29 11.91-11.39 10.76-10.54-9.93-2.05-13.41-6.42 9.62z" fill="url(#paint51_linear_111_1202)" stroke="url(#paint52_linear_111_1202)" stroke-width="1.801"/>
  <path d="m113.6 143.2 3.12 2.45 3.48 9.12-5.2-5.15-1.4-6.42z" fill="#490026"/>
  <path d="m136 143.2-3.12 2.45-5.2 9.12 2.76-7.64 5.56-3.93z" fill="#490026"/>
  <path d="m124.7 128.2 0.89 11.7-1 5-0.79-5.91 0.9-10.79z" fill="#720033"/>
  <path d="m126.2 112.6-1.65 1.29-2.05-1.44-2.39 1.44-0.68 3.7 5.17 3.69 5.32-4-0.89-3.7-2.83-0.98z" fill="url(#paint53_linear_111_1202)" stroke="url(#paint54_linear_111_1202)" stroke-width=".9006"/>
  <path d="m98.5 70.12 3.76 2.8 3.88 9.39" stroke="#39FEFF" stroke-width=".9006"/>
  <path d="m145.8 70.62-4.86 10.99" stroke="#39FEFF" stroke-width=".9006"/>
  <path d="m149.4 79.08 2.98 7.93" stroke="#720033" stroke-width=".9006"/>
  <path d="m98.06 78.14 2.16 5.58" stroke="#720033" stroke-width=".9006"/>
  <path d="m134.2 104.1 2.39 1.8 4.4-4.96" stroke="#720033" stroke-width=".9006"/>
  <path d="m100.1 92.65 9.14 9.66" stroke="#720033" stroke-width=".9006"/>
  <path d="m113.3 105.2 2.72-2.9" stroke="#720033" stroke-width=".9006"/>
  <path d="m143.1 96.11v9.9l10-9.9" stroke="#720033" stroke-width=".9006"/>
  <path d="m98.17 102.1 2.78 8.13 9.09 3.63-7.78-7.2-4.09-4.56z" fill="#39FEFF" stroke="url(#paint55_linear_111_1202)" stroke-width=".9006"/>
  <path d="m151.1 102.1-2.1 6.56-9.74 5.87 8.96-6.84 2.88-5.59z" fill="#39FEFF" stroke="url(#paint56_linear_111_1202)" stroke-width=".9006"/>
  <path d="m73.36 96.11 10.53 6.82 3.22 0.73-4.09 0.45-9.66-8z" fill="#B30033"/>
  <path d="m161.2 103.7 5.31-0.73 9.19-6.82-7.28 10.51-7.22-2.96z" fill="#B30033"/>
  <path d="m75.03 66.22 7.12 11.41 7.93 6.4 0.58 12.08-6.47-12.08-7.5-7.28-1.66-10.53z" fill="#B30033"/>
  <path d="m160.2 79.08 7.59-4.36 9.47-11.04-4.67 18.53-9.38 11.73-3.01 4.49 0.57-9.29 9.96-11.51-10.53 1.45z" fill="#B30033"/>
  <path d="m80.17 176.6 6.06-8.3 2.52 8.78-2.52 9.07-6.06-9.55z" fill="url(#paint57_linear_111_1202)"/>
  <path d="m162.4 174.3 2.39-5.92 5.93 8.3-6.79 8.97-1.53-11.35z" fill="url(#paint58_linear_111_1202)"/>
  <defs>
    <linearGradient id="paint0_linear_111_1202" x1="25.63" x2="223.8" y1="125" y2="125" gradientUnits="userSpaceOnUse">
      <stop stop-color="#21D4FD" offset="0"/>
      <stop stop-color="#2071B7" offset=".5"/>
      <stop stop-color="#9900E6" offset="1"/>
    </linearGradient>
    <linearGradient id="paint1_linear_111_1202" x1="87.67" x2="162.4" y1="23.62" y2="23.62" gradientUnits="userSpaceOnUse">
      <stop stop-color="#F82649" offset="0"/>
      <stop stop-color="#D40032" offset="1"/>
    </linearGradient>
    <linearGradient id="paint2_linear_111_1202" x1="43.1" x2="203.1" y1="127.8" y2="127.8" gradientUnits="userSpaceOnUse">
      <stop stop-color="#57011F" offset="0"/>
      <stop stop-color="#35001D" offset="1"/>
    </linearGradient>
    <linearGradient id="paint3_linear_111_1202" x1="46.78" x2="204.6" y1="126.4" y2="126.4" gradientUnits="userSpaceOnUse">
      <stop stop-color="#2CC4D1" offset="0"/>
      <stop stop-color="#8901BD" offset="1"/>
    </linearGradient>
    <linearGradient id="paint4_linear_111_1202" x1="66.15" x2="89.67" y1="153.2" y2="153.2" gradientUnits="userSpaceOnUse">
      <stop stop-color="#2CC4D1" offset="0"/>
      <stop stop-color="#1566E0" offset="1"/>
    </linearGradient>
    <linearGradient id="paint5_linear_111_1202" x1="157.3" x2="177.4" y1="152.5" y2="152.5" gradientUnits="userSpaceOnUse">
      <stop stop-color="#2CC4D1" offset="0"/>
      <stop stop-color="#1566E0" offset="1"/>
    </linearGradient>
    <linearGradient id="paint6_linear_111_1202" x1="124.8" x2="155.3" y1="195.4" y2="195.4" gradientUnits="userSpaceOnUse">
      <stop stop-color="#720033" offset="0"/>
      <stop stop-color="#5D0031" offset="1"/>
    </linearGradient>
    <linearGradient id="paint7_linear_111_1202" x1="95.51" x2="154.3" y1="197.4" y2="197.4" gradientUnits="userSpaceOnUse">
      <stop stop-color="#8901BD" offset="0"/>
      <stop stop-color="#5D0031" offset="1"/>
    </linearGradient>
    <linearGradient id="paint8_linear_111_1202" x1="88.47" x2="103.9" y1="162.3" y2="162.3" gradientUnits="userSpaceOnUse">
      <stop stop-color="#2CC4D1" offset="0"/>
      <stop stop-color="#1566E0" offset="1"/>
    </linearGradient>
    <linearGradient id="paint9_linear_111_1202" x1="146.8" x2="161.3" y1="161.7" y2="161.7" gradientUnits="userSpaceOnUse">
      <stop stop-color="#2CC4D1" offset="0"/>
      <stop stop-color="#1566E0" offset="1"/>
    </linearGradient>
    <linearGradient id="paint10_linear_111_1202" x1="147.3" x2="161.3" y1="161.7" y2="161.7" gradientUnits="userSpaceOnUse">
      <stop stop-color="#2CC4D1" offset="0"/>
      <stop stop-color="#1566E0" offset="1"/>
    </linearGradient>
    <linearGradient id="paint12_linear_111_1202" x1="153.7" x2="158" y1="150.5" y2="150.5" gradientUnits="userSpaceOnUse">
      <stop stop-color="#2CC4D1" offset="0"/>
      <stop stop-color="#1566E0" offset="1"/>
    </linearGradient>
    <linearGradient id="paint13_linear_111_1202" x1="92.17" x2="96.6" y1="150.4" y2="150.4" gradientUnits="userSpaceOnUse">
      <stop stop-color="#2CC4D1" offset="0"/>
      <stop stop-color="#1566E0" offset="1"/>
    </linearGradient>
    <linearGradient id="paint14_linear_111_1202" x1="99.42" x2="150.5" y1="186.4" y2="186.4" gradientUnits="userSpaceOnUse">
      <stop stop-color="#2CC4D1" offset="0"/>
      <stop stop-color="#1566E0" offset="1"/>
    </linearGradient>
    <linearGradient id="paint15_linear_111_1202" x1="99.07" x2="151.2" y1="186.6" y2="186.6" gradientUnits="userSpaceOnUse">
      <stop stop-color="#2CC4D1" offset="0"/>
      <stop stop-color="#1566E0" offset="1"/>
    </linearGradient>
    <linearGradient id="paint16_linear_111_1202" x1="102.7" x2="107.1" y1="181.9" y2="181.9" gradientUnits="userSpaceOnUse">
      <stop stop-color="#2CC4D1" offset="0"/>
      <stop stop-color="#1566E0" offset="1"/>
    </linearGradient>
    <linearGradient id="paint17_linear_111_1202" x1="141.8" x2="149.3" y1="182" y2="182" gradientUnits="userSpaceOnUse">
      <stop stop-color="#2CC4D1" offset="0"/>
      <stop stop-color="#1566E0" offset="1"/>
    </linearGradient>
    <linearGradient id="paint18_linear_111_1202" x1="71.19" x2="96.08" y1="121.8" y2="121.8" gradientUnits="userSpaceOnUse">
      <stop stop-color="#39FEFF" offset="0"/>
      <stop stop-color="#4A00CF" offset="1"/>
    </linearGradient>
    <linearGradient id="paint19_linear_111_1202" x1="154.7" x2="176.9" y1="123.9" y2="123.9" gradientUnits="userSpaceOnUse">
      <stop stop-color="#39FEFF" offset="0"/>
      <stop stop-color="#4A00CF" offset="1"/>
    </linearGradient>
    <linearGradient id="paint20_linear_111_1202" x1="65.07" x2="93.72" y1="98.73" y2="98.73" gradientUnits="userSpaceOnUse">
      <stop stop-color="#39FEFF" offset="0"/>
      <stop stop-color="#4A00CF" offset="1"/>
    </linearGradient>
    <linearGradient id="paint21_linear_111_1202" x1="157.3" x2="185.6" y1="93.28" y2="93.28" gradientUnits="userSpaceOnUse">
      <stop stop-color="#39FEFF" offset="0"/>
      <stop stop-color="#4A00CF" offset="1"/>
    </linearGradient>
    <linearGradient id="paint22_linear_111_1202" x1="68.87" x2="92.39" y1="76.75" y2="76.75" gradientUnits="userSpaceOnUse">
      <stop stop-color="#39FEFF" offset="0"/>
      <stop stop-color="#4A00CF" offset="1"/>
    </linearGradient>
    <linearGradient id="paint23_linear_111_1202" x1="151.4" x2="171.9" y1="45.53" y2="45.53" gradientUnits="userSpaceOnUse">
      <stop stop-color="#39FEFF" offset="0"/>
      <stop stop-color="#4A00CF" offset="1"/>
    </linearGradient>
    <linearGradient id="paint24_linear_111_1202" x1="102.7" x2="144.9" y1="55.95" y2="55.95" gradientUnits="userSpaceOnUse">
      <stop stop-color="#39FEFF" offset="0"/>
      <stop stop-color="#4A00CF" offset="1"/>
    </linearGradient>
    <linearGradient id="paint25_linear_111_1202" x1="77.1" x2="96.76" y1="44.61" y2="44.61" gradientUnits="userSpaceOnUse">
      <stop stop-color="#39FEFF" offset="0"/>
      <stop stop-color="#4A00CF" offset="1"/>
    </linearGradient>
    <linearGradient id="paint26_linear_111_1202" x1="85.63" x2="102.9" y1="66.01" y2="66.01" gradientUnits="userSpaceOnUse">
      <stop stop-color="#720033" offset="0"/>
      <stop stop-color="#B30033" offset="1"/>
    </linearGradient>
    <linearGradient id="paint27_linear_111_1202" x1="85.33" x2="98.02" y1="63.84" y2="63.84" gradientUnits="userSpaceOnUse">
      <stop stop-color="#2CC4D1" offset="0"/>
      <stop stop-color="#1566E0" offset="1"/>
    </linearGradient>
    <linearGradient id="paint28_linear_111_1202" x1="145.6" x2="163.8" y1="63.02" y2="63.02" gradientUnits="userSpaceOnUse">
      <stop stop-color="#720033" offset="0"/>
      <stop stop-color="#B30033" offset="1"/>
    </linearGradient>
    <linearGradient id="paint29_linear_111_1202" x1="145.3" x2="159.1" y1="60.63" y2="60.63" gradientUnits="userSpaceOnUse">
      <stop stop-color="#2CC4D1" offset="0"/>
      <stop stop-color="#1566E0" offset="1"/>
    </linearGradient>
    <linearGradient id="paint30_linear_111_1202" x1="106.8" x2="116.2" y1="62.06" y2="62.06" gradientUnits="userSpaceOnUse">
      <stop stop-color="#720033" offset="0"/>
      <stop stop-color="#B30033" offset="1"/>
    </linearGradient>
    <linearGradient id="paint31_linear_111_1202" x1="106.2" x2="116.2" y1="61.6" y2="61.6" gradientUnits="userSpaceOnUse">
      <stop stop-color="#2CC4D1" offset="0"/>
      <stop stop-color="#1566E0" offset="1"/>
    </linearGradient>
    <linearGradient id="paint32_linear_111_1202" x1="133.8" x2="143" y1="61.63" y2="61.63" gradientUnits="userSpaceOnUse">
      <stop stop-color="#720033" offset="0"/>
      <stop stop-color="#B30033" offset="1"/>
    </linearGradient>
    <linearGradient id="paint33_linear_111_1202" x1="133.3" x2="143" y1="61.17" y2="61.17" gradientUnits="userSpaceOnUse">
      <stop stop-color="#2CC4D1" offset="0"/>
      <stop stop-color="#1566E0" offset="1"/>
    </linearGradient>
    <linearGradient id="paint34_linear_111_1202" x1="89.43" x2="112.1" y1="79.61" y2="79.61" gradientUnits="userSpaceOnUse">
      <stop stop-color="#720033" offset="0"/>
      <stop stop-color="#F90244" offset="1"/>
    </linearGradient>
    <linearGradient id="paint35_linear_111_1202" x1="88.63" x2="102.2" y1="79.11" y2="79.11" gradientUnits="userSpaceOnUse">
      <stop stop-color="#2CC4D1" offset="0"/>
      <stop stop-color="#1566E0" offset="1"/>
    </linearGradient>
    <linearGradient id="paint36_linear_111_1202" x1="138.2" x2="159" y1="78.07" y2="78.07" gradientUnits="userSpaceOnUse">
      <stop stop-color="#720033" offset="0"/>
      <stop stop-color="#F90244" offset="1"/>
    </linearGradient>
    <linearGradient id="paint37_linear_111_1202" x1="140" x2="155.1" y1="78.07" y2="78.07" gradientUnits="userSpaceOnUse">
      <stop stop-color="#2CC4D1" offset="0"/>
      <stop stop-color="#1566E0" offset="1"/>
    </linearGradient>
    <linearGradient id="paint38_linear_111_1202" x1="92.7" x2="118.5" y1="100.5" y2="100.5" gradientUnits="userSpaceOnUse">
      <stop stop-color="#720033" offset="0"/>
      <stop stop-color="#F90244" offset="1"/>
    </linearGradient>
    <linearGradient id="paint39_linear_111_1202" x1="92.35" x2="111" y1="100.5" y2="100.5" gradientUnits="userSpaceOnUse">
      <stop stop-color="#2CC4D1" offset="0"/>
      <stop stop-color="#1566E0" offset="1"/>
    </linearGradient>
    <linearGradient id="paint40_linear_111_1202" x1="130.8" x2="157.5" y1="99.62" y2="99.62" gradientUnits="userSpaceOnUse">
      <stop stop-color="#720033" offset="0"/>
      <stop stop-color="#F90244" offset="1"/>
    </linearGradient>
    <linearGradient id="paint41_linear_111_1202" x1="130.4" x2="150.9" y1="99.62" y2="99.62" gradientUnits="userSpaceOnUse">
      <stop stop-color="#2CC4D1" offset="0"/>
      <stop stop-color="#1566E0" offset="1"/>
    </linearGradient>
    <linearGradient id="paint42_linear_111_1202" x1="113.3" x2="135.5" y1="56.89" y2="56.89" gradientUnits="userSpaceOnUse">
      <stop stop-color="#720033" offset="0"/>
      <stop stop-color="#B30033" offset="1"/>
    </linearGradient>
    <linearGradient id="paint43_linear_111_1202" x1="116.6" x2="133.3" y1="84.96" y2="84.96" gradientUnits="userSpaceOnUse">
      <stop stop-color="#39FEFF" offset="0"/>
      <stop stop-color="#7000CF" offset="1"/>
    </linearGradient>
    <linearGradient id="paint44_linear_111_1202" x1="116.1" x2="125.2" y1="84.96" y2="84.96" gradientUnits="userSpaceOnUse">
      <stop stop-color="#2CC4D1" offset="0"/>
      <stop stop-color="#1566E0" offset="1"/>
    </linearGradient>
    <linearGradient id="paint45_linear_111_1202" x1="90.08" x2="115.6" y1="113.7" y2="113.7" gradientUnits="userSpaceOnUse">
      <stop stop-color="#720033" offset="0"/>
      <stop stop-color="#F90244" offset="1"/>
    </linearGradient>
    <linearGradient id="paint46_linear_111_1202" x1="89.21" x2="107.1" y1="113.7" y2="113.7" gradientUnits="userSpaceOnUse">
      <stop stop-color="#2CC4D1" offset="0"/>
      <stop stop-color="#1566E0" offset="1"/>
    </linearGradient>
    <linearGradient id="paint47_linear_111_1202" x1="134.4" x2="160.8" y1="113.6" y2="113.6" gradientUnits="userSpaceOnUse">
      <stop stop-color="#720033" offset="0"/>
      <stop stop-color="#F90244" offset="1"/>
    </linearGradient>
    <linearGradient id="paint48_linear_111_1202" x1="133.9" x2="153.6" y1="113.6" y2="113.6" gradientUnits="userSpaceOnUse">
      <stop stop-color="#2CC4D1" offset="0"/>
      <stop stop-color="#1566E0" offset="1"/>
    </linearGradient>
    <linearGradient id="paint49_linear_111_1202" x1="111.5" x2="137.9" y1="146.5" y2="146.5" gradientUnits="userSpaceOnUse">
      <stop stop-color="#720033" offset="0"/>
      <stop stop-color="#B30033" offset="1"/>
    </linearGradient>
    <linearGradient id="paint50_linear_111_1202" x1="110.9" x2="139.4" y1="145.9" y2="145.9" gradientUnits="userSpaceOnUse">
      <stop stop-color="#2CC4D1" offset="0"/>
      <stop stop-color="#1566E0" offset="1"/>
    </linearGradient>
    <linearGradient id="paint51_linear_111_1202" x1="95.51" x2="153.4" y1="144" y2="144" gradientUnits="userSpaceOnUse">
      <stop stop-color="#39FEFF" offset="0"/>
      <stop stop-color="#4A00CF" offset="1"/>
    </linearGradient>
    <linearGradient id="paint52_linear_111_1202" x1="94.91" x2="154.3" y1="144" y2="144" gradientUnits="userSpaceOnUse">
      <stop stop-color="#2CC4D1" offset="0"/>
      <stop stop-color="#1566E0" offset="1"/>
    </linearGradient>
    <linearGradient id="paint53_linear_111_1202" x1="119.4" x2="130.4" y1="117" y2="117" gradientUnits="userSpaceOnUse">
      <stop stop-color="#720033" offset="0"/>
      <stop stop-color="#B30033" offset="1"/>
    </linearGradient>
    <linearGradient id="paint54_linear_111_1202" x1="119" x2="130.8" y1="117" y2="117" gradientUnits="userSpaceOnUse">
      <stop stop-color="#2CC4D1" offset="0"/>
      <stop stop-color="#1566E0" offset="1"/>
    </linearGradient>
    <linearGradient id="paint55_linear_111_1202" x1="97.67" x2="110.5" y1="107.9" y2="107.9" gradientUnits="userSpaceOnUse">
      <stop stop-color="#39FEFF" offset="0"/>
      <stop stop-color="#4A00CF" offset="1"/>
    </linearGradient>
    <linearGradient id="paint56_linear_111_1202" x1="138.8" x2="151.6" y1="108.3" y2="108.3" gradientUnits="userSpaceOnUse">
      <stop stop-color="#39FEFF" offset="0"/>
      <stop stop-color="#4A00CF" offset="1"/>
    </linearGradient>
    <linearGradient id="paint57_linear_111_1202" x1="80.17" x2="88.75" y1="177.3" y2="177.3" gradientUnits="userSpaceOnUse">
      <stop stop-color="#720033" offset="0"/>
      <stop stop-color="#B30033" offset="1"/>
    </linearGradient>
    <linearGradient id="paint58_linear_111_1202" x1="162" x2="170.8" y1="177" y2="177" gradientUnits="userSpaceOnUse">
      <stop stop-color="#720033" offset="0"/>
      <stop stop-color="#B30033" offset="1"/>
    </linearGradient>
  </defs>
</svg>