<svg xmlns="http://www.w3.org/2000/svg" width="216" height="216" fill="none" viewBox="0 0 216 216">
<!-- SVG created with Arrow, by QuiverAI (https://quiver.ai) -->
  <path d="m212.8 131.7 0.4 23.2-3.23 7.88-4.25 4.63-22.32 5.54-2.09-0.69-20.42 4.27-0.77 1.4-22.87 6.54-22.14 5.41-4.1 5.51-20.14 5.11-18.14-1.51-17.34-13.09-0.92-3.84-2.7 0.11-25.99-17.22-2.36 0.36-16.14-14.1-4.2-8.04v-26.62l1.02-0.67-0.3-28.8 1.68-1.19-2.79-8.54v-20.35l12.25-18.25 23.02-3.81 0.88-0.62 46.82-10.41 0.21-0.85 33.34-8.35 17.79 0.27 15.58 9.42 0.13 2.53 27.05 13.75 3.84-0.61 22.2 8.44 3.98 9.44 3.02 9.1v20.62l-2.83 5.47 1.21 2.77-0.47 31.79 2.09 4z" fill="url(#paint0_linear_1398_1591)" stroke="#774B11" stroke-linecap="round" stroke-linejoin="round" stroke-width=".7"/>
  <path d="m210.7 95.14-42.48 14.67-0.47 4.3-0.96 1.02 0.16 22.36-6.3 9.42v29.45" stroke="#8A6024" stroke-linecap="round" stroke-linejoin="round" stroke-width=".7"/>
  <path d="m210.4 100.7-42.18 12.13-0.69 24.87-6.91 9.92-0.6 28.77" stroke="url(#paint1_linear_1398_1591)" stroke-linecap="round" stroke-linejoin="round" stroke-width=".7"/>
  <path d="m137.1 184.5 1.09-32.34 19.76-7.44 2.69-2.54" stroke="#996410" stroke-linecap="round" stroke-linejoin="round" stroke-width=".7"/>
  <path d="m136.6 151.1-7.47-5.92 0.42-26.97-1.73-2.21 1.4-2.26-0.43-12.67 6.91-8.53v-10.94l26.77-6.89 16.58-3.54-5.09-7.22-13.71 3.29-9.07-6.26-26.32 8.53 5.8 2.88-12.7 3.69-11.01-4.38-34.89-2.19-29.83-17.97-3.07 3.25-11.93 2.12-1.4 1.24-17.8-10.45-4.9 9.42v20.14l3.99 4.8 18.4-1.98 0.31-19.55 25.23 16.37 5.24 0.12 1.86-3.25 1.59-6.86-20.33-12.26" stroke="#8B5911" stroke-linecap="round" stroke-linejoin="round" stroke-width=".7"/>
  <path d="m147.3 28.47 22.66 13.63 9.84-1.41" stroke="#8B5911" stroke-linecap="round" stroke-linejoin="round" stroke-width=".7"/>
  <path d="m57.06 31.31 4.3 4.7 28.04-7.54-3.45-1.33-0.11-3.49" stroke="#8B5911" stroke-linecap="round" stroke-linejoin="round" stroke-width=".7"/>
  <path d="m4.31 87.09 72.68 46.68 7.37 1.04 43.78-13 0.31-5.67" stroke="#8B5911" stroke-linecap="round" stroke-linejoin="round" stroke-width=".7"/>
  <path d="m25.84 102 1.19 5.91 3.45 5.47 18.29 12.94 2.31-0.11 1.73-5.06" stroke="#8B5911" stroke-linecap="round" stroke-linejoin="round" stroke-width=".7"/>
  <path d="m76.99 133.8 0.2 28.54" stroke="#8B5911" stroke-linecap="round" stroke-linejoin="round" stroke-width=".7"/>
  <path d="m210.6 95.06 0.71 5.1" stroke="#8B5911" stroke-linecap="round" stroke-linejoin="round" stroke-width=".7"/>
  <path d="m210.9 128.7 2.27 3.66-0.68 22.64-3.31 7.08-25.1 7.81-0.83 2.41-2.35-0.73v-10.27l19.37-29.22 8.77-3.38h1.86z" fill="url(#paint2_linear_1398_1591)" stroke="#5B1561" stroke-linecap="round" stroke-linejoin="round" stroke-width="1.2"/>
  <path d="m3.41 116.8 6.66 5.35 13 28.83v13.94l-15.58-14.1-4.16-7.92 0.08-26.1z" fill="url(#paint3_linear_1398_1591)" stroke="#1A669D" stroke-linecap="round" stroke-linejoin="round" stroke-width=".7"/>
  <path d="m52.46 170.7 17-12.61 8.8 6.39 12.63-0.35 3.69-3.21 22.2 14.44-0.39 12.46-3.68 3.85-21.58 6.16-17.01-1.01-18.44-11.24-2.36-5.94-0.86-8.94z" fill="url(#paint4_linear_1398_1591)" stroke="#664209" stroke-linecap="round" stroke-linejoin="round" stroke-width="1.2"/>
  <path d="m55.05 175.8 15.43-9.5 6.38 3.39 0.26 26-3.2-0.48-18.48-10.22-0.39-9.19z" fill="url(#paint5_linear_1398_1591)" stroke="#664209" stroke-linecap="round" stroke-linejoin="round" stroke-width=".7"/>
  <path d="m77.01 196.5 4.86-3.84 6.91 5.28-11.77-1.44z" fill="url(#paint6_linear_1398_1591)" stroke="#6600BA" stroke-linecap="round" stroke-linejoin="round" stroke-width=".7"/>
  <path d="m91.39 168.3 18.81 11.29v10.36l-0.82 0.93-17.59 5.39-6.68-6.35 0.16-19.95 6.12-1.67z" fill="url(#paint7_linear_1398_1591)" stroke="#BF942A" stroke-linecap="round" stroke-linejoin="round" stroke-width=".7"/>
  <path d="m135.7 95.46 23.03-4.05 4.25 6.2v15.26l0.47 1.72-1.9 2.5-2.59 11.82 0.96 2.38-0.72 9.98-14.95 3.82-9.42-5.13 0.46-21.04 4.71 0.99 3.23 2.53 2.32 9.98 13.21-3.35" fill="url(#paint8_linear_1398_1591)" stroke="#8B5911" stroke-linecap="round" stroke-linejoin="round" stroke-width=".7"/>
  <path d="m147.9 103.1 10.41-1.69c1.7-0.3 1.85 3.52 0 5.28l-8.57 1.8c-2.5 0.39-2.81-3.35-1.84-5.39z" fill="url(#paint9_linear_1398_1591)" stroke="#511470" stroke-linecap="round" stroke-linejoin="round" stroke-width=".7"/>
  <path d="m137.8 119.6 4.46 1.56 1.69 11.25 2.31 0.89 12.62-3.29 1.18 2.98v5.95l-1.8 2.78-9.15 1.29-0.85-5.59 1.82-1.29 7.81-2.36" stroke="#8B5911" stroke-linecap="round" stroke-linejoin="round" stroke-width=".7"/>
  <path d="m135.2 119.8 5.57 1.19 0.92 23.68-6.58-4.94 0.09-19.93z" fill="url(#paint10_linear_1398_1591)" stroke="#8B5911" stroke-linecap="round" stroke-linejoin="round" stroke-width=".7"/>
  <path d="m137.8 96.74 5.44 4.97-2.09 0.7-0.98 3.2-2.79-1.98-0.22-1.42" stroke="#8B5911" stroke-linecap="round" stroke-linejoin="round" stroke-width=".7"/>
  <path d="m134.7 81.71-4.3-9.38-5.44-2.84 25.73-7.85 9.9 6.77 0.47 1.85 1.11 0.92v15.4l6.22 7.23-0.2 12.39" stroke="#8B5911" stroke-linecap="round" stroke-linejoin="round" stroke-width=".7"/>
  <path d="m160.6 68.41 13.31-3.84 5.6 7.29-17.17 3.57" stroke="#8B5911" stroke-linecap="round" stroke-linejoin="round" stroke-width=".7"/>
  <path d="m100.2 18.61 18.73-3.85 18.19 0.27 15.58 9.42-6.68 4.63-38.95-3.2-6.87-7.27z" fill="url(#paint11_linear_1398_1591)" stroke="#000035" stroke-linecap="round" stroke-linejoin="round" stroke-width=".7"/>
  <path d="m136.1 17.44-0.91 2.67 2.2-1.65-1.29-1.02z" fill="#f0f"/>
  <path d="m101.1 18.73 7.19 6.01 37.05 2.09 7.01-2.34v1.21l-6.53 3.21-37.92-2.7-6.8-7.48z" fill="url(#paint12_linear_1398_1591)" stroke="#00358A" stroke-linecap="round" stroke-linejoin="round" stroke-width=".7"/>
  <path d="m169.8 43.01 13.53-2.82 19.17 7.64-3.23 10.8-20 5.13-14.54-5.13 5.07-15.62z" fill="url(#paint13_linear_1398_1591)" stroke="#200045" stroke-linecap="round" stroke-linejoin="round" stroke-width=".7"/>
  <path d="m202.7 48.36 3.41 1.25 6.1 17.88-0.99 3.42-11.16-12.6 2.64-9.95z" fill="url(#paint14_linear_1398_1591)" stroke="#2A004B" stroke-linecap="round" stroke-linejoin="round" stroke-width=".7"/>
  <path d="m204.1 50.62 3.3 2.66 3.78 13.78-0.77 2.05-7.36-10.02 1.05-8.47z" fill="url(#paint15_linear_1398_1591)" stroke="#510091" stroke-linecap="round" stroke-linejoin="round" stroke-width=".7"/>
  <path d="m14.69 38.79 23.23-4.04 0.72 0.16 0.89 0.41 9.61 2.74c1.2 0.33 1.26 1.63 0.54 2.77l-9.93 14.28-13.36 3.05-18.3-10.49 6.6-8.88z" fill="url(#paint16_linear_1398_1591)" stroke="#005492" stroke-linecap="round" stroke-linejoin="round" stroke-width=".7"/>
  <path d="m15.89 38.76-3.11 10.05 12.91 9.42 1.54-1.76 9.86-2.53 6.83-14.63-5.44-4.3-22.59 3.75z" fill="url(#paint17_linear_1398_1591)"/>
  <path d="m28.81 41.91 1.03 0.58v-1.58l-1.03 1z" fill="#0099D6"/>
  <path d="m31.78 36.42 8.11 9.62" stroke="#33C2F1" stroke-linecap="round" stroke-linejoin="round" stroke-width=".2"/>
  <path d="m175 43.56-4.38 13.85 7.58 6.7 0.55 4.7 0.27-5.45-7.1-5.95 3.08-13.85z" fill="url(#paint18_linear_1398_1591)"/>
  <path d="m86.11 105.1-5.6-2.87-7.56-12.88-18.47-12.24 3.23-2.81 14.11-4.66 35.05 2.11 8.04 5.36 1.6 8.04-22.5 4.4-7.9 15.55z" fill="url(#paint19_linear_1398_1591)" stroke="#915111" stroke-linecap="round" stroke-linejoin="round" stroke-width=".7"/>
  <path d="m58.63 74.72 16.74 11.58 1.04-1.07 14.22 1.07 1.4-1.07 21.89-8.12" stroke="#915111" stroke-linecap="round" stroke-linejoin="round" stroke-width=".7"/>
  <path d="m26.41 60.99v10.95l-12.7 9.77v4.9l48.5 28.3v-3.68l-10.58-20.02-0.42-13.28-24.8-16.94z" fill="url(#paint20_linear_1398_1591)" stroke="#0067A1" stroke-linecap="round" stroke-linejoin="round" stroke-width=".7"/>
  <path d="m15.06 82.91 33.85-5.13" stroke="#0067A1" stroke-linecap="round" stroke-linejoin="round" stroke-width="1.4"/>
  <path d="m5.11 85.9 71.3 40.16 8.9 0.11 43.52-13.56-0.08-11.53 6.17-8.46v-10.39l-40.83 7.88-10.18 14.51-10.1-8.53-9.38 22.97" stroke="#53F5E6" stroke-linecap="round" stroke-linejoin="round" stroke-width="2"/>
  <path d="m75.45 88.19 1.46-2.09 13.15 1.44 0.2 1.77-7.64 12.6-4.36-3.92-2.81-9.8z" fill="url(#paint21_linear_1398_1591)" stroke="#0067A1" stroke-linecap="round" stroke-linejoin="round" stroke-width=".7"/>
  <path d="m84.58 104.7 0.13 20.41" stroke="#8B5911" stroke-linecap="round" stroke-linejoin="round" stroke-width=".7"/>
  <path d="m85.59 135.6 42.48-12.56 0.07-4.72" stroke="#53F5E6" stroke-linecap="round" stroke-linejoin="round" stroke-width="2"/>
  <path d="m85.31 136.1-0.38 26.4" stroke="#53F5E6" stroke-linecap="round" stroke-linejoin="round" stroke-width="2"/>
  <path d="m103.7 155 19.69-21 0.53 0.92-14.24 17.14-7.79 3.64" fill="#D99753"/>
  <path d="m117.5 119.9 1.4 3.55 2.9-0.75-4.3-2.8z" fill="#FEFFFE"/>
  <path d="m188.2 122.7 3.84 2.62 1.56-0.22-2.79-2.4h-2.61z" fill="#F0D466"/>
  <path d="m173.7 121.4 2.47 2.92 2.71-0.88-2.71-2.65-2.47 0.61z" fill="#F0D466"/>
  <path d="m174.3 151.7 0.77 1.45 0.54-0.55-1.31-0.9z" fill="#F0D466"/>
  <path d="m154.9 155.9 1.78 2.05-0.31 1.23-1.19-1.78-0.28-1.5z" fill="#F2979E"/>
  <path d="m124.2 153.3 0.97-1.2-0.28 3.25-1.41 1.69 0.72-3.74z" fill="#F2979E"/>
  <path d="m115.7 160.8 1.06-0.75-0.27 2.05-0.79-0.31v-0.99z" fill="#D99753"/>
  <path d="m107.1 138.3 3.53 0.57 0.77 3.25-2.95-1.65-1.35-2.17z" fill="#F0D466"/>
  <path d="m119.9 100-2.09 1.51 1.69 0.68 0.4-2.19z" fill="#F2979E"/>
  <path d="m122.1 88.19 1.19 0.42-0.59 4.9-1.07-0.96 0.47-4.36z" fill="#F0D466"/>
  <path d="m103.5 96.88 17.65 8.02-15.05-7.58-2.6-0.44z" fill="#F2979E" fill-opacity=".51"/>
  <path d="m107.1 105.6 4.59 0.59-2.6-1.14-1.99 0.55z" fill="#F0D466"/>
  <path d="m118.1 110.7 2.87-0.55-0.23 2.49-2.64-1.94z" fill="#F0D466"/>
  <path d="m174.2 107.3-3.62-3.05 0.77 3.44 2.85-0.39z" fill="#FEFFFE"/>
  <path d="m172.9 96.21 24.8-28.68 0.16 0.88-23.65 27.05-1.31 0.75z" fill="#F2979E" fill-opacity=".51"/>
  <path d="m172.9 81.71 1.19-3.78 0.65 2.08-1.84 1.7z" fill="#D99753"/>
  <path d="m196.2 89.39 3.99-2.3v1.1l-3.1 1.84-0.89-0.64z" fill="#F0D466"/>
  <path d="m175.1 110.7 23.04 7.75-12.41-6.62-9.15-1.99-1.48 0.86z" fill="#F2979E"/>
  <path d="m202.9 113.1 1.87-0.5v0.78l-1.87-0.28z" fill="#D99753"/>
  <path d="m113.1 122.2 2.83-0.63v0.91l-2.27-0.28h-0.56z" fill="#FEFFFE"/>
  <path d="m116.1 131.2 0.62 0.37v0.82l-1.06-0.82 0.44-0.37z" fill="#F0D466"/>
  <path d="m122.9 139.8 0.79-1.25v1.25h-0.79z" fill="#537484"/>
  <path d="m128.1 25.25 2.48 2.67v2.98l-1.44-1.99-1.04-3.66z" fill="#FEFFFE"/>
  <path d="m128.4 37.72 3.04 3.35-2.28 3.76-0.76-7.11z" fill="#F0D466"/>
  <path d="m146.2 35.51 8.65 5.8-1.74-1.91-5.97-3.89h-0.94z" fill="#F2979E" fill-opacity=".51"/>
  <path d="m158.6 52.11 1.4 1.52v0.75l-1.4-2.27z" fill="#F0D466"/>
  <path d="m182.2 49.12 2.28 1.8 2.24-1.8-2.09 5.54h-1.44l0.43-3.39-1.42-2.15z" fill="#FEFFFE"/>
  <path d="m97.18 57.13 1.51 0.67-1.35 5.68-0.16-6.35z" fill="#F0D466"/>
  <path d="m109 31.06 1.55 0.35-0.47 1.45-1.08-1.8z" fill="#F0D466"/>
  <path d="m116 32.27 1.91 1.29v1.95l-1.91-1.95v-1.29z" fill="#D0F0B1"/>
  <path d="m104.2 27.14-7.47 1.33" stroke="#F0D466" stroke-linecap="round" stroke-linejoin="round" stroke-width=".2"/>
  <path d="m117.1 56.81-6.97 9.22" stroke="#F0D466" stroke-linecap="round" stroke-linejoin="round" stroke-width=".2"/>
  <path d="m76.18 54.26 0.15 4.13" stroke="#F0D466" stroke-linecap="round" stroke-linejoin="round" stroke-width=".2"/>
  <path d="m56.11 43.01 1.6-0.91-0.19 1.46-1.41-0.55z" fill="#D0F0B1"/>
  <path d="m63.16 60.16 1.86 2.97-0.36-2.1-1.5-0.87z" fill="#F0D466"/>
  <path d="m10.38 64.42h2.63l2.09 1.19-3.01-0.15-1.71-1.04z" fill="#F0D466"/>
  <path d="m25.13 88.72 6.09 1.31-3.15-1.84-2.94 0.53z" fill="#F0D466"/>
  <path d="m43.23 98.42h3.84l2.84 1.59-4.53-0.55-2.15-1.04z" fill="#F0D466"/>
  <path d="m4.26 100.5 8.44-1.2-6.69 2.2-1.75-1z" fill="#D99753"/>
  <path d="m21.28 123.6 5.68-3.58h2.31l-1.48 2.68-2.7 0.9h-3.81z" fill="#D99753"/>
  <path d="m37.61 133.8 3.91-5.06-0.23 1.3-3.68 3.76z" fill="#D99753"/>
  <path d="m49.49 165 1.19-1.32v1.12l-1.19 0.2z" fill="#5092A3"/>
  <path d="m51.21 138.2 3-2.57 2.05 1.02-2.63 1.88-2.42-0.33z" fill="#F0D466"/>
  <path d="m61.03 138.3 1.69-3.68 1.94 0.95-2.25 3.68-1.38-0.95z" fill="url(#paint22_linear_1398_1591)"/>
  <path d="m68.49 147.6 1.12-1.76-0.15 4.4-0.97 0.16v-2.8z" fill="#F2979E"/>
  <defs>
    <linearGradient id="paint0_linear_1398_1591" x1="108" x2="108" y1="14.72" y2="200.5" gradientUnits="userSpaceOnUse">
      <stop stop-color="#FFE385" offset="0"/>
      <stop stop-color="#E9B540" offset=".4948"/>
      <stop stop-color="#97560A" offset="1"/>
    </linearGradient>
    <linearGradient id="paint1_linear_1398_1591" x1="189.5" x2="189.5" y1="100.7" y2="176.4" gradientUnits="userSpaceOnUse">
      <stop stop-color="#53F5E6" offset="0"/>
      <stop stop-color="#8A6024" offset="1"/>
    </linearGradient>
    <linearGradient id="paint2_linear_1398_1591" x1="201.1" x2="201.1" y1="128.7" y2="172.3" gradientUnits="userSpaceOnUse">
      <stop stop-color="#7000C2" offset="0"/>
      <stop stop-color="#D09653" offset="1"/>
    </linearGradient>
    <linearGradient id="paint3_linear_1398_1591" x1="12.85" x2="12.85" y1="116.8" y2="164.9" gradientUnits="userSpaceOnUse">
      <stop stop-color="#00B6F3" offset="0"/>
      <stop stop-color="#A700E6" offset="1"/>
    </linearGradient>
    <linearGradient id="paint4_linear_1398_1591" x1="84.62" x2="84.62" y1="158.1" y2="198" gradientUnits="userSpaceOnUse">
      <stop stop-color="#00B6F3" offset="0"/>
      <stop stop-color="#A700E6" offset="1"/>
    </linearGradient>
    <linearGradient id="paint5_linear_1398_1591" x1="66.08" x2="66.08" y1="166.3" y2="195.7" gradientUnits="userSpaceOnUse">
      <stop stop-color="#824F16" offset="0"/>
      <stop stop-color="#70420A" offset="1"/>
    </linearGradient>
    <linearGradient id="paint6_linear_1398_1591" x1="82.89" x2="82.89" y1="192.6" y2="197.9" gradientUnits="userSpaceOnUse">
      <stop stop-color="#7000C2" offset="0"/>
      <stop stop-color="#A700E6" offset="1"/>
    </linearGradient>
    <linearGradient id="paint7_linear_1398_1591" x1="97.65" x2="97.65" y1="168.3" y2="196.3" gradientUnits="userSpaceOnUse">
      <stop stop-color="#FFE385" offset="0"/>
      <stop stop-color="#D6A529" offset="1"/>
    </linearGradient>
    <linearGradient id="paint8_linear_1398_1591" x1="149.1" x2="149.1" y1="91.41" y2="145.1" gradientUnits="userSpaceOnUse">
      <stop stop-color="#FFE385" offset="0"/>
      <stop stop-color="#D69429" offset="1"/>
    </linearGradient>
    <linearGradient id="paint9_linear_1398_1591" x1="153.6" x2="153.6" y1="101.4" y2="108.6" gradientUnits="userSpaceOnUse">
      <stop stop-color="#5A16BA" offset="0"/>
      <stop stop-color="#501191" offset="1"/>
    </linearGradient>
    <linearGradient id="paint10_linear_1398_1591" x1="138.5" x2="138.5" y1="119.8" y2="144.7" gradientUnits="userSpaceOnUse">
      <stop stop-color="#FFE385" offset="0"/>
      <stop stop-color="#D69429" offset="1"/>
    </linearGradient>
    <linearGradient id="paint11_linear_1398_1591" x1="126.4" x2="126.4" y1="14.72" y2="29.08" gradientUnits="userSpaceOnUse">
      <stop stop-color="#7000C2" offset="0"/>
      <stop stop-color="#5A16BA" offset="1"/>
    </linearGradient>
    <linearGradient id="paint12_linear_1398_1591" x1="126.7" x2="126.7" y1="18.61" y2="28.91" gradientUnits="userSpaceOnUse">
      <stop stop-color="#005492" offset="0"/>
      <stop stop-color="#3158DB" offset="1"/>
    </linearGradient>
    <linearGradient id="paint13_linear_1398_1591" x1="183.7" x2="183.7" y1="40.19" y2="63.76" gradientUnits="userSpaceOnUse">
      <stop stop-color="#6519BA" offset="0"/>
      <stop stop-color="#5A16BA" offset="1"/>
    </linearGradient>
    <linearGradient id="paint14_linear_1398_1591" x1="206.1" x2="206.1" y1="48.36" y2="70.91" gradientUnits="userSpaceOnUse">
      <stop stop-color="#5A0091" offset="0"/>
      <stop stop-color="#7000C2" offset="1"/>
    </linearGradient>
    <linearGradient id="paint15_linear_1398_1591" x1="207.2" x2="207.2" y1="50.62" y2="69.11" gradientUnits="userSpaceOnUse">
      <stop stop-color="#5A0091" offset="0"/>
      <stop stop-color="#7000C2" offset="1"/>
    </linearGradient>
    <linearGradient id="paint16_linear_1398_1591" x1="29.09" x2="29.09" y1="34.75" y2="58.23" gradientUnits="userSpaceOnUse">
      <stop stop-color="#29ABF3" offset="0"/>
      <stop stop-color="#33C2F1" offset="1"/>
    </linearGradient>
    <linearGradient id="paint17_linear_1398_1591" x1="30.12" x2="30.12" y1="35.01" y2="58.23" gradientUnits="userSpaceOnUse">
      <stop stop-color="#29ABF3" offset="0"/>
      <stop stop-color="#33C2F1" offset="1"/>
    </linearGradient>
    <linearGradient id="paint18_linear_1398_1591" x1="175.3" x2="175.3" y1="43.56" y2="68.81" gradientUnits="userSpaceOnUse">
      <stop stop-color="#6519BA" offset="0"/>
      <stop stop-color="#A744D3" offset="1"/>
    </linearGradient>
    <linearGradient id="paint19_linear_1398_1591" x1="84.96" x2="84.96" y1="69.6" y2="105.1" gradientUnits="userSpaceOnUse">
      <stop stop-color="#FFE385" offset="0"/>
      <stop stop-color="#D6A029" offset="1"/>
    </linearGradient>
    <linearGradient id="paint20_linear_1398_1591" x1="37.76" x2="37.76" y1="60.99" y2="115.1" gradientUnits="userSpaceOnUse">
      <stop stop-color="#0080C1" offset="0"/>
      <stop stop-color="#53F5E6" offset="1"/>
    </linearGradient>
    <linearGradient id="paint21_linear_1398_1591" x1="82.86" x2="82.86" y1="86.1" y2="101.9" gradientUnits="userSpaceOnUse">
      <stop stop-color="#29ABF3" offset="0"/>
      <stop stop-color="#33C2F1" offset="1"/>
    </linearGradient>
    <linearGradient id="paint22_linear_1398_1591" x1="62.87" x2="62.87" y1="134.7" y2="139.3" gradientUnits="userSpaceOnUse">
      <stop stop-color="#0080C1" offset="0"/>
      <stop stop-color="#53F5E6" offset="1"/>
    </linearGradient>
  </defs>
</svg>