<svg xmlns="http://www.w3.org/2000/svg" width="200" height="200" fill="none" viewBox="0 0 200 200">
<!-- SVG created with Arrow, by QuiverAI (https://quiver.ai) -->
  <path d="m2.41 141.3 195.2-68.55-18-30.66-15.44-13.19-31.23-11.87-15.44 3.44-84.36 69.51-30.71 51.32z" fill="url(#paint0_linear_3016_25380)"/>
  <path d="m164.1 28.87 15.45 13.19 18 30.66-113 109.3-82.16-40.74 15.44-32.74 15.27-18.57 84.36-69.51 15.44-3.44 31.22 11.87z" fill="url(#paint1_linear_3016_25380)"/>
  <path d="m165.9 41.26 12.89 1.21 16.47 29.69-110.9 106.8 0.47 2.81 112.9-109.2-18.1-30.54-14.96-13.43 1.27 12.63z" fill="url(#paint2_linear_3016_25380)"/>
  <path d="m155.8 85.42-30.11 28.61-10.33 36.89 29.54-27.1 7.88-33.76 24.19 2.33 1.21-0.97-22.38-6z" fill="url(#paint3_linear_3016_25380)"/>
  <path d="m171.9 64.51-53.15 47.03-11.71 45.9 6.12-5.82 11.97-38.07 47-48.57 17.54 2.81-0.85-1.17-16.92-2.11z" fill="url(#paint4_linear_3016_25380)"/>
  <path d="m156.8 48.88-8.89 36.42 0.73-0.59 8.16-35.83z" fill="url(#paint5_linear_3016_25380)"/>
  <path d="m53.39 75.12 4.75 36.3 6.35 3.67 22.55-3.9 15.91-16.03-11.5-51.09-38.06 31.05z" fill="url(#paint6_linear_3016_25380)"/>
  <path d="m126 29.67 7.11-7.35 13.22 1.2 3.97 27.88-17.19 13.43-7.11-35.16z" fill="url(#paint7_linear_3016_25380)"/>
  <path d="m34.51 90.2-1.28 13.08 31.68 14.98 21.88-5.96 78.99-71.15-1.64-12.28-8.21-1.88-17.31-6.43-8.45-0.48-13.43 1.65-82.23 68.47z" fill="url(#paint8_linear_3016_25380)"/>
  <path d="m34.51 90.08-1.28 13.2 31.56 14.61 22-5.59 78.99-71.39-1.64-12.04-8.21-1.88-20.01-6.91-17.76 1.29-83.65 68.71z" stroke="url(#paint9_linear_3016_25380)" stroke-miterlimit="10" stroke-width="1.5"/>
  <path d="m20.08 108.8 11.63-5.37 1.33-0.28 32.11 15.52 13.16 18.23 5.3 38.18 0.35 3.52-80.65-37.42 14.9-32.5 1.87 0.12z" fill="url(#paint10_linear_3016_25380)"/>
  <path d="m39.09 106.4-2.7 18.81-11.87 5.89-5.89 18.81 0.84 0.37 5.44-18.7 12.35-6.01 2.7-18.69-0.87-0.48z" fill="url(#paint11_linear_3016_25380)"/>
  <path d="m42.13 108.1-2.8 29.82-12.59 4.34-2.46 9.86 1.08 0.48 2.24-9.63 12.36-5.41 3.42-28.9-1.25-0.56z" fill="url(#paint12_linear_3016_25380)"/>
  <path d="m44.71 139.3-4.75-1.68 0.85 1.09 3.79 1.8 9.25 22.09 29.87 14.49 0.24-1.92-29.86-13.42-9.39-22.45z" fill="url(#paint13_linear_3016_25380)"/>
  <path d="m80.07 136.6 7.33-23.55 38.53-26.74 2.49-10.22-1.41 1.54-2 9.48-35.6 32.63-6.04 20.05 3.42 21.27-0.61 0.36-3.05-21.75-3.06-3.07z" fill="url(#paint14_linear_3016_25380)"/>
  <path d="m61.41 73.32 0.35 13.58-20.83 18.35 0.72 0.36 21.07-18.6-0.24-13.33 72.64-54.07-0.72-0.24-72.99 53.95z" fill="url(#paint15_linear_3016_25380)"/>
  <path d="m104.6 38.26 11.74-1.75 18.42-17.38 0.92 0.36-19.07 17.86-12.01 1.38v-0.47z" fill="url(#paint16_linear_3016_25380)"/>
  <path d="m95.1 45.05 22.02-3.19 20.83-20.61 0.84 0.36-21.43 20.97-22.14 3.18-8 5.4 7.88-6.11z" fill="url(#paint17_linear_3016_25380)"/>
  <path d="m138.3 43.71 17.05-16.48 0.72 0.24-17.19 16.71 2.46 10.57-31.22 28.6-22.67 2.7-30.22 26.51 0.6 0.36 29.62-26.15 23.03-4.02 30.98-27.76-3.16-11.28z" fill="url(#paint18_linear_3016_25380)"/>
  <path d="m181.6 53.32 10.44 18.24-18.33 17.38" stroke="url(#paint19_linear_3016_25380)" stroke-miterlimit="10" stroke-width=".7"/>
  <path d="m7.69 139.8 8.45 4.3c0.43 0.23 0.95-0.21 0.77-0.69-0.06-0.17-0.19-0.31-0.35-0.39l-8.2-3.9c-0.48-0.23-1.11 0.36-0.67 0.68z" fill="url(#paint20_linear_3016_25380)"/>
  <path d="m122.1 121.8-4.09 13.31 2.12 0.96 4.83-11.4-2.86-2.87z" fill="url(#paint21_radial_3016_25380)" opacity=".5"/>
  <defs>
    <linearGradient id="paint0_linear_3016_25380" x1="100" x2="100" y1="17" y2="182" gradientUnits="userSpaceOnUse">
      <stop stop-color="#FE9125" offset="0"/>
      <stop stop-color="#621A1A" offset="1"/>
    </linearGradient>
    <linearGradient id="paint1_linear_3016_25380" x1="100.1" x2="100.1" y1="17" y2="182" gradientUnits="userSpaceOnUse">
      <stop stop-color="#FECE52" offset="0"/>
      <stop stop-color="#A54111" offset=".4844"/>
      <stop stop-color="#8A2317" offset="1"/>
    </linearGradient>
    <linearGradient id="paint2_linear_3016_25380" x1="141" x2="141" y1="28.63" y2="181.8" gradientUnits="userSpaceOnUse">
      <stop stop-color="#9A4616" offset="0"/>
      <stop stop-color="#541512" offset="1"/>
    </linearGradient>
    <linearGradient id="paint3_linear_3016_25380" x1="146.8" x2="146.8" y1="85.42" y2="150.9" gradientUnits="userSpaceOnUse">
      <stop stop-color="#AF5919" offset="0"/>
      <stop stop-color="#9D4413" offset="1"/>
    </linearGradient>
    <linearGradient id="paint4_linear_3016_25380" x1="148.6" x2="148.6" y1="64.51" y2="157.4" gradientUnits="userSpaceOnUse">
      <stop stop-color="#904214" offset="0"/>
      <stop stop-color="#511813" offset="1"/>
    </linearGradient>
    <linearGradient id="paint5_linear_3016_25380" x1="152.4" x2="152.4" y1="48.88" y2="85.3" gradientUnits="userSpaceOnUse">
      <stop stop-color="#8F3F15" offset="0"/>
      <stop stop-color="#7F3512" offset="1"/>
    </linearGradient>
    <linearGradient id="paint6_linear_3016_25380" x1="78.17" x2="78.17" y1="44.07" y2="115.1" gradientUnits="userSpaceOnUse">
      <stop stop-color="#975320" offset="0"/>
      <stop stop-color="#A54111" offset="1"/>
    </linearGradient>
    <linearGradient id="paint7_linear_3016_25380" x1="138.2" x2="138.2" y1="22.32" y2="64.83" gradientUnits="userSpaceOnUse">
      <stop stop-color="#F99728" offset="0"/>
      <stop stop-color="#D3682A" offset="1"/>
    </linearGradient>
    <linearGradient id="paint8_linear_3016_25380" x1="105.1" x2="84.86" y1="20.08" y2="101" gradientUnits="userSpaceOnUse">
      <stop stop-color="#CF6429" offset="0"/>
      <stop stop-color="#E6C34F" offset=".5208"/>
      <stop stop-color="#F1B63F" offset="1"/>
    </linearGradient>
    <linearGradient id="paint9_linear_3016_25380" x1="99.5" x2="99.5" y1="19.37" y2="113.1" gradientUnits="userSpaceOnUse">
      <stop stop-color="#FEBB61" offset="0"/>
      <stop stop-color="#F9F091" offset=".5156"/>
      <stop stop-color="#F9A83E" offset="1"/>
    </linearGradient>
    <linearGradient id="paint10_linear_3016_25380" x1="43.91" x2="43.91" y1="103.1" y2="178.6" gradientUnits="userSpaceOnUse">
      <stop stop-color="#370909" offset="0"/>
      <stop stop-color="#A8410F" offset=".6927"/>
      <stop stop-color="#B64210" offset="1"/>
    </linearGradient>
    <linearGradient id="paint11_linear_3016_25380" x1="29.3" x2="29.3" y1="106.4" y2="150.3" gradientUnits="userSpaceOnUse">
      <stop stop-color="#B84B14" offset="0"/>
      <stop stop-color="#823511" offset="1"/>
    </linearGradient>
    <linearGradient id="paint12_linear_3016_25380" x1="34.12" x2="34.12" y1="108.1" y2="152.6" gradientUnits="userSpaceOnUse">
      <stop stop-color="#A24310" offset="0"/>
      <stop stop-color="#823511" offset="1"/>
    </linearGradient>
    <linearGradient id="paint13_linear_3016_25380" x1="51.64" x2="51.64" y1="137.7" y2="177.1" gradientUnits="userSpaceOnUse">
      <stop stop-color="#8B3A0E" offset="0"/>
      <stop stop-color="#B14911" offset="1"/>
    </linearGradient>
    <linearGradient id="paint14_linear_3016_25380" x1="103.6" x2="103.6" y1="76.11" y2="161.4" gradientUnits="userSpaceOnUse">
      <stop stop-color="#661909" offset="0"/>
      <stop stop-color="#591912" offset="1"/>
    </linearGradient>
    <linearGradient id="paint15_linear_3016_25380" x1="88.35" x2="88.35" y1="19.37" y2="106.1" gradientUnits="userSpaceOnUse">
      <stop stop-color="#59F2DC" offset="0"/>
      <stop stop-color="#59C6B6" offset=".5104"/>
      <stop stop-color="#3896A6" offset="1"/>
    </linearGradient>
    <linearGradient id="paint16_linear_3016_25380" x1="120.1" x2="120.1" y1="19.13" y2="38.73" gradientUnits="userSpaceOnUse">
      <stop stop-color="#59F2DC" offset="0"/>
      <stop stop-color="#59C6B6" offset=".5104"/>
      <stop stop-color="#3896A6" offset="1"/>
    </linearGradient>
    <linearGradient id="paint17_linear_3016_25380" x1="113" x2="113" y1="21.25" y2="51.16" gradientUnits="userSpaceOnUse">
      <stop stop-color="#FEBB61" offset="0"/>
      <stop stop-color="#F9F091" offset=".5104"/>
      <stop stop-color="#F9A83E" offset="1"/>
    </linearGradient>
    <linearGradient id="paint18_linear_3016_25380" x1="106.6" x2="106.6" y1="27.23" y2="113.1" gradientUnits="userSpaceOnUse">
      <stop stop-color="#8A1305" offset="0"/>
      <stop stop-color="#983C0F" offset=".5104"/>
      <stop stop-color="#63150A" offset="1"/>
    </linearGradient>
    <linearGradient id="paint19_linear_3016_25380" x1="182.8" x2="182.8" y1="52.96" y2="88.94" gradientUnits="userSpaceOnUse">
      <stop stop-color="#59F2DC" offset="0"/>
      <stop stop-color="#59C6B6" offset=".5104"/>
      <stop stop-color="#3896A6" offset="1"/>
    </linearGradient>
    <linearGradient id="paint20_linear_3016_25380" x1="12.34" x2="12.34" y1="139" y2="144.2" gradientUnits="userSpaceOnUse">
      <stop stop-color="#59F2DC" offset="0"/>
      <stop stop-color="#59C6B6" offset=".5104"/>
      <stop stop-color="#3896A6" offset="1"/>
    </linearGradient>
    <radialGradient id="paint21_radial_3016_25380" cx="0" cy="0" r="1" gradientTransform="translate(122 129.2) rotate(90.21) scale(7.114 4.299)" gradientUnits="userSpaceOnUse">
      <stop stop-color="#FF7525" offset="0"/>
      <stop stop-color="#FF7525" stop-opacity=".12" offset="1"/>
    </radialGradient>
  </defs>
</svg>