<svg xmlns="http://www.w3.org/2000/svg" width="250" height="250" fill="none" viewBox="0 0 250 250">
<!-- SVG created with Arrow, by QuiverAI (https://quiver.ai) -->
  <path d="m241.9 131.2-18.88-9.81 17.75-16.06c7.19-6.48 5.09-17.59-4.17-18.4l-19.66-5.12 14.8-14.85c7.19-6.48 4.94-16.09-3.65-19.14l-91-42.81c-5.76-3.94-13.9-3.18-18.34 0.79l-111.5 92.95c-6.62 5.94-5.26 15.56 1.84 18.12l20.12 10.09-15.03 10.09c-6.47 5.37-5.8 14.94 1.48 18.43l17.25 8.72-16.83 14.42c-4.92 5.19-2.99 11.43 4.58 14.79l93.42 51.88c5.8 2.28 13.8 0.54 16.87-2.57l112.4-93.61c6.02-5.21 4.52-14.73-1.54-17.91z" fill="url(#paint0_linear_19_17589)"/>
  <path d="m239.7 135.5-21.4-11.38-87.76 75.97c-5.7 5.11-14.29 5.06-19.69 2.06l-94.18-51.12c-4.85-2.61-4.7-9.12-0.59-12.34l19.05-14.26-25.09-11.63c-5.04-2.46-5.55-9.42-0.84-13.32l111.1-90.52c4.57-3.92 10.48-4.54 16.27-1.64l91.7 42.3c7.15 3.29 8.38 12.15 2.59 17.45l-17.11 16.06 25.23 11.57c6.09 2.73 5.19 11.25 0.75 14.87l-17.66 15.64 17.92 9.41c4.85 2.46 5 8.85 0.05 13.09l-110.8 91.11c-4.45 4.03-10.46 3.48-14.97 1.03l-93.52-50.95c-5.63-2.9-5.97-6.83-2.01-10.72l17.75-16.06 3.58 1.77-6 5.34-13.99 12.35c-2.41 2.32-1.29 5.49 2.5 7.27l96.2 48.98c4.06 1.87 9.06-0.63 11.26-2.76l108.1-90.66c2.8-2.63 3.75-6.81 1.61-8.91z" fill="url(#paint1_linear_19_17589)"/>
  <path d="m237.7 138.6-22.41-10.92-85.43 72.37c-5.07 4.68-13.77 4.01-18.22 1.5l-92.88-52.87c-3.62-1.99-3.77-6.52-0.46-9.37l15.74-13.6 17.5 9.31-11.55-2.89-0.05 14.9c-0.05 2.41 0.35 2.98 3.25 4.44l60.07 26.67c3.67 1.07 5.61-1.24 6.83-2.72l88.05-53.15 2.2 1.4-42.24 38.46 2.04 3 10.73 0.91c1.42 0.26 1.67 0.72 1.22 1.69l-14.34 10.41c5.15 0 11.72-2.46 13.14-9.81 7.85-1.32 14.32-3.25 14.27-5.19-0.05-1.52-1.94-2.28-5.46-3.1l1.23-1.02c3.83 1.17 5.1 2.25 4.38 4.98-0.92 3.57-9.7 4.84-13.22 5.35-2.1 6.48-6.8 9.04-15.1 9.24l-32.81 27.47-21.42-6.63-8.51 7.58-23.23 6-1.32-1.83 32.65-23.34-34.29-16.7-11.79 8.12-7.39 4.44 12.67-12.15-17.1-8.16 3.16-0.81 52.49 4.94 9.99-0.35 90.71-66.31 8-14.47 29.29 14.47c2.6 1.37 2.2 4.17-0.2 6.43l-17.81 16.44 17.81 9.93c3.11 1.78 3.16 2.7-0.19 4.94z" fill="url(#paint2_linear_19_17589)"/>
  <path d="m168.7 120.8c6.06 1.13 8.11 2.35 7.76 5.02-0.46 3.29-10.45 4.57-14.5 4.92-3.26 8.1-9.16 11.05-17.85 10.8l-0.91-1.27c8.49 0.56 14.49-2.95 16.69-9.94-1.89-0.15-3.06-0.61-3.06-1.78l0.86-0.61c0.66 0.81 0.97 0.87 2.86 0.87 1.43-1.52 7.12-6.81 8.15-8.01zm0.55 1.53-7.19 7.19c5.36-0.66 13.61-1.78 13.61-4.58 0.05-1.18-2.36-2.25-6.42-2.61z" fill="url(#paint3_linear_19_17589)"/>
  <path d="m216.2 96.78-1.37 12.35-16.8 17.81" stroke="url(#paint4_linear_19_17589)" stroke-linecap="round" stroke-linejoin="round" stroke-width="1.5"/>
  <path d="m195.1 131.1c3.15 0 3.8-2.8 3.61-3.87-0.41-2.18-2.81-2.55-4.08-2.46-2.46 0.2-3.53 1.88-3.48 3.25 0.1 1.99 1.83 3.08 3.95 3.08z" stroke="url(#paint5_linear_19_17589)" stroke-linecap="round" stroke-linejoin="round" stroke-width="1.5"/>
  <path d="m155.7 202.2-26.12 17.36-39.28-6.93" stroke="url(#paint6_linear_19_17589)" stroke-linecap="round" stroke-linejoin="round" stroke-width="1.5"/>
  <path d="m158.7 202.5c3.16 0 3.56-3.39 3-4.51-1.01-2.16-3.41-1.69-4.27-1.19-2.2 1.22-2.3 2.55-2 3.92 0.36 1.43 1.69 1.78 3.27 1.78z" stroke="url(#paint7_linear_19_17589)" stroke-linecap="round" stroke-linejoin="round" stroke-width="1.5"/>
  <path d="m151.7 167.1-26.69 18.52-12.82 2.71-26.52-12.98" stroke="url(#paint8_linear_19_17589)" stroke-linecap="round" stroke-linejoin="round" stroke-width="1.5"/>
  <path d="m153.3 167.7c3.16 0 4.02-3.16 3.77-4.58-0.45-2.03-2.29-2.38-3.77-2.28-2.6 0.25-3.97 2.13-3.97 3.6 0 2.09 1.63 3.26 3.97 3.26z" stroke="url(#paint9_linear_19_17589)" stroke-linecap="round" stroke-linejoin="round" stroke-width="1.5"/>
  <path d="m129.8 160.4 99.1-95.66c3.75-3.52 3.21-8.91-3.58-11.62l-93.28-43.36c-5.1-2.56-9.27-1.39-13.38 2.39l-107.6 90.66c-3.91 3.25-3.96 7.28 0.94 9.74l87.76 48.62c6.15 3.04 13.09 2.43 17.4-1.34l12.6 0.57z" fill="url(#paint10_linear_19_17589)"/>
  <path d="m146 66.63c-7.99-10.26-17.2-14.04-28.84-14.04-12 0-22.61 7.5-28.42 16.36-18.15 3.44-31.72 8.1-31.72 14.33 0 6.94 17.01 9.83 33.04 11.16 7.33 10.01 15.93 13.97 27.1 13.97 11.64 0 25.98-6.43 30.88-16.93 13.93-2.77 31.69-7.57 31.69-13.86 0-6.78-16.7-10.17-33.73-10.99zm2.04 4.08c8.95 1.32 16.75 3.56 16.75 6.91 0 3.63-6.53 6.19-14.68 8.28 1.08-4.81 0.49-9.8-2.07-15.19zm-45.88-11.33c-2.05 7.04-3.07 11.84 3.46 16.65 4.19 3.15 10.17 3.35 12.22 3.15-6.05 1.27-16.54 2.73-27.78-1.56 0.77-5.69 4.93-13.43 12.1-18.24z" stroke="url(#paint11_linear_19_17589)" stroke-linecap="round" stroke-linejoin="round" stroke-width="2.5"/>
  <path d="m146.7 69.58c-3.41 4.34-8.97 9.24-12.43 9.14-2.25-0.05-4.14-1.67-6.34-1.41-1.73 0.2-9.73 3.59-19.33 3.59-7.54 0-13.86-1.72-18.51-3.75" stroke="url(#paint12_linear_19_17589)" stroke-linecap="round" stroke-linejoin="round" stroke-width="2.5"/>
  <path d="m148.1 91.48c-4.07 8.36-13.95 13.65-14.81 13.35-2.04-0.76-6.21-4.21-15.61-4.21-7.75 0-11.32 2.8-13.41 3.97-4.4-1.17-11.18-7.31-14.15-11.03 4.8 0.56 15.77 1.02 23.32 1.02 10.09-0.05 23.77-1.12 34.66-3.1z" stroke="url(#paint13_linear_19_17589)" stroke-linecap="round" stroke-linejoin="round" stroke-width="2.5"/>
  <path d="m139.1 21.12c-2.14-3.44-4.7-4.71-9.5-4.35-4.6 0.35-7.6 3.6-7.9 6.99-4.06 0.56-5.34 1.01-5.34 0-0.25 1.37 1.38 1.78 5.44 2.34 1.42 3.15 4.58 4.01 7.6 3.71 4.4-0.41 6.64-2.97 7.71-6.05 4.75-0.86 6.59-1.57 6.39-2.64-0.2-1.01-1.78-0.61-4.4 0z" stroke="url(#paint14_linear_19_17589)" stroke-linecap="round" stroke-linejoin="round" stroke-width="1.5"/>
  <path d="m129.4 28.69c5.64 0 7.6-3.92 7.81-7.64-0.3-2.97-3.46-3.98-7.31-3.98-4.79 0-7.44 2.94-7.74 6.64-0.16 3.2 3.61 4.98 7.24 4.98z" fill="url(#paint15_linear_19_17589)" stroke="url(#paint15_linear_19_17589)" stroke-linecap="round" stroke-linejoin="round" stroke-width="1.5"/>
  <path d="m139 21.23c-4.4 0.96-11.99 2.43-17.25 2.43" stroke="url(#paint17_linear_19_17589)" stroke-linecap="round" stroke-linejoin="round" stroke-width="1.5"/>
  <path d="m89.53 70.15c-10.19 2.71-18.59 6.8-18.59 11.61 0 6.33 17.01 7.55 34.97 7.55 20.99 0 55.98-4.43 58.44-10.87" stroke="url(#paint18_linear_19_17589)" stroke-linecap="round" stroke-linejoin="round" stroke-width="2.5"/>
  <path d="m94.98 144.4-40.66 38.06" stroke="url(#paint19_linear_19_17589)" stroke-linecap="round" stroke-linejoin="round" stroke-width="2"/>
  <path d="m100.3 150.1-45.96 39.31" stroke="url(#paint20_linear_19_17589)" stroke-linecap="round" stroke-linejoin="round" stroke-width="2"/>
  <path d="m139.2 60.81c-5.15 3.45-12.44 6.3-18.49 6.3" stroke="url(#paint21_linear_19_17589)" stroke-linecap="round" stroke-linejoin="round" stroke-width="2"/>
  <path d="m105 58.06c3.07 1.78 5.78 2.65 10.48 2.24s8.82-2.24 11.43-3.91" stroke="url(#paint22_linear_19_17589)" stroke-linecap="round" stroke-linejoin="round" stroke-width="2"/>
  <path d="m112.7 149.9c5.15-1.07 6.01-4.7 6.01-6.94-1.32-3.93-3.36-5.35-7.47-5.3-4.4 0.05-6.37 2.9-6.93 6.34-4.16 0.46-5.56 0-5.56 0-0.1 1.42 1.37 1.53 5.77 2.34 1.32 2.95 3.62 4.42 8.18 3.56z" stroke="url(#paint23_linear_19_17589)" stroke-linecap="round" stroke-linejoin="round" stroke-width="1.5"/>
  <path d="m112.2 149.4c5.14-0.66 6.21-3.81 6.36-6.05-0.86-3.93-3.36-5.05-6.97-5-4.4 0.05-6.49 2.51-7.05 6.02-0.55 3.25 2.7 5.64 7.66 5.03z" fill="url(#paint24_linear_19_17589)" stroke="url(#paint24_linear_19_17589)" stroke-linecap="round" stroke-linejoin="round" stroke-width="1.5"/>
  <path d="m118.2 142c4.4 0.56 6.03 0.91 6.13 1.07 0.2 0.81-1.94 1.52-5.9 2.18" stroke="url(#paint26_linear_19_17589)" stroke-linecap="round" stroke-linejoin="round" stroke-width="1.5"/>
  <defs>
    <linearGradient id="paint0_linear_19_17589" x1="125.2" x2="125.2" y1="4" y2="246.9" gradientUnits="userSpaceOnUse">
      <stop stop-color="#45F7DA" offset="0"/>
      <stop stop-color="#7274F7" offset=".5156"/>
      <stop stop-color="#D706E0" offset="1"/>
    </linearGradient>
    <linearGradient id="paint1_linear_19_17589" x1="126.1" x2="126.1" y1="5.854" y2="241.6" gradientUnits="userSpaceOnUse">
      <stop stop-color="#45F7DA" offset="0"/>
      <stop stop-color="#7274F7" offset=".5156"/>
      <stop stop-color="#D706E0" offset="1"/>
    </linearGradient>
    <linearGradient id="paint2_linear_19_17589" x1="129" x2="129" y1="86.44" y2="239.2" gradientUnits="userSpaceOnUse">
      <stop stop-color="#320099" offset="0"/>
      <stop stop-color="#8A00F6" offset="1"/>
    </linearGradient>
    <linearGradient id="paint3_linear_19_17589" x1="160.2" x2="160.2" y1="120.8" y2="141.5" gradientUnits="userSpaceOnUse">
      <stop stop-color="#00FFD1" offset="0"/>
      <stop stop-color="#C94FFF" offset="1"/>
    </linearGradient>
    <linearGradient id="paint4_linear_19_17589" x1="207.5" x2="207.5" y1="96.78" y2="126.9" gradientUnits="userSpaceOnUse">
      <stop stop-color="#00FFD1" offset="0"/>
      <stop stop-color="#C94FFF" offset="1"/>
    </linearGradient>
    <linearGradient id="paint5_linear_19_17589" x1="195" x2="195" y1="124.7" y2="131.1" gradientUnits="userSpaceOnUse">
      <stop stop-color="#00FFD1" offset="0"/>
      <stop stop-color="#C94FFF" offset="1"/>
    </linearGradient>
    <linearGradient id="paint6_linear_19_17589" x1="123" x2="123" y1="202.2" y2="219.6" gradientUnits="userSpaceOnUse">
      <stop stop-color="#00FFD1" offset="0"/>
      <stop stop-color="#C94FFF" offset="1"/>
    </linearGradient>
    <linearGradient id="paint7_linear_19_17589" x1="158.7" x2="158.7" y1="196.2" y2="202.5" gradientUnits="userSpaceOnUse">
      <stop stop-color="#00FFD1" offset="0"/>
      <stop stop-color="#C94FFF" offset="1"/>
    </linearGradient>
    <linearGradient id="paint8_linear_19_17589" x1="118.6" x2="118.6" y1="167.1" y2="188.3" gradientUnits="userSpaceOnUse">
      <stop stop-color="#00FFD1" offset="0"/>
      <stop stop-color="#C94FFF" offset="1"/>
    </linearGradient>
    <linearGradient id="paint9_linear_19_17589" x1="153.4" x2="153.4" y1="160.8" y2="167.7" gradientUnits="userSpaceOnUse">
      <stop stop-color="#00FFD1" offset="0"/>
      <stop stop-color="#C94FFF" offset="1"/>
    </linearGradient>
    <linearGradient id="paint10_linear_19_17589" x1="120.4" x2="120.4" y1="8.014" y2="163.7" gradientUnits="userSpaceOnUse">
      <stop stop-color="#382BA3" offset="0"/>
      <stop stop-color="#C320D5" offset="1"/>
    </linearGradient>
    <linearGradient id="paint11_linear_19_17589" x1="118.4" x2="118.4" y1="52.59" y2="108.4" gradientUnits="userSpaceOnUse">
      <stop stop-color="#00FFD1" offset="0"/>
      <stop stop-color="#FBA2F1" offset="1"/>
    </linearGradient>
    <linearGradient id="paint12_linear_19_17589" x1="119.1" x2="119.1" y1="69.58" y2="79.23" gradientUnits="userSpaceOnUse">
      <stop stop-color="#00FFD1" offset="0"/>
      <stop stop-color="#FBA2F1" offset="1"/>
    </linearGradient>
    <linearGradient id="paint13_linear_19_17589" x1="119.1" x2="119.1" y1="91.48" y2="105.1" gradientUnits="userSpaceOnUse">
      <stop stop-color="#00FFD1" offset="0"/>
      <stop stop-color="#FBA2F1" offset="1"/>
    </linearGradient>
    <linearGradient id="paint14_linear_19_17589" x1="129.9" x2="129.9" y1="16.67" y2="30.01" gradientUnits="userSpaceOnUse">
      <stop stop-color="#00FFD1" offset="0"/>
      <stop stop-color="#FBA2F1" offset="1"/>
    </linearGradient>
    <linearGradient id="paint15_linear_19_17589" x1="129.7" x2="129.7" y1="17.07" y2="28.69" gradientUnits="userSpaceOnUse">
      <stop stop-color="#00FFD1" offset="0"/>
      <stop stop-color="#FBA2F1" offset="1"/>
    </linearGradient>
    <linearGradient id="paint17_linear_19_17589" x1="129.9" x2="129.9" y1="20.67" y2="23.66" gradientUnits="userSpaceOnUse">
      <stop stop-color="#00FFD1" offset="0"/>
      <stop stop-color="#FBA2F1" offset="1"/>
    </linearGradient>
    <linearGradient id="paint18_linear_19_17589" x1="117.6" x2="117.6" y1="68.95" y2="89.31" gradientUnits="userSpaceOnUse">
      <stop stop-color="#00FFD1" offset="0"/>
      <stop stop-color="#FBA2F1" offset="1"/>
    </linearGradient>
    <linearGradient id="paint19_linear_19_17589" x1="74.65" x2="74.65" y1="144.4" y2="182.5" gradientUnits="userSpaceOnUse">
      <stop stop-color="#00FFD1" offset="0"/>
      <stop stop-color="#C94FFF" offset="1"/>
    </linearGradient>
    <linearGradient id="paint20_linear_19_17589" x1="77.3" x2="77.3" y1="150.1" y2="189.4" gradientUnits="userSpaceOnUse">
      <stop stop-color="#00FFD1" offset="0"/>
      <stop stop-color="#C94FFF" offset="1"/>
    </linearGradient>
    <linearGradient id="paint21_linear_19_17589" x1="129.9" x2="129.9" y1="60.3" y2="67.11" gradientUnits="userSpaceOnUse">
      <stop stop-color="#00FFD1" offset="0"/>
      <stop stop-color="#FBA2F1" offset="1"/>
    </linearGradient>
    <linearGradient id="paint22_linear_19_17589" x1="116.1" x2="116.1" y1="57.2" y2="60.46" gradientUnits="userSpaceOnUse">
      <stop stop-color="#00FFD1" offset="0"/>
      <stop stop-color="#FBA2F1" offset="1"/>
    </linearGradient>
    <linearGradient id="paint23_linear_19_17589" x1="111.5" x2="111.5" y1="137.6" y2="150.2" gradientUnits="userSpaceOnUse">
      <stop stop-color="#00FFD1" offset="0"/>
      <stop stop-color="#FBA2F1" offset="1"/>
    </linearGradient>
    <linearGradient id="paint24_linear_19_17589" x1="111.6" x2="111.6" y1="138.4" y2="149.6" gradientUnits="userSpaceOnUse">
      <stop stop-color="#00FFD1" offset="0"/>
      <stop stop-color="#FBA2F1" offset="1"/>
    </linearGradient>
    <linearGradient id="paint26_linear_19_17589" x1="121.3" x2="121.3" y1="142" y2="145.3" gradientUnits="userSpaceOnUse">
      <stop stop-color="#00FFD1" offset="0"/>
      <stop stop-color="#C94FFF" offset="1"/>
    </linearGradient>
  </defs>
</svg>