<svg xmlns="http://www.w3.org/2000/svg" width="250" height="250" fill="none" viewBox="0 0 250 250">
<!-- SVG created with Arrow, by QuiverAI (https://quiver.ai) -->
  <path d="m199.6 3h-149.2c-26.11 0-47.18 21.58-47.18 47.69v149.6c0 24.83 20.85 46.22 46.27 46.22h150.5c25.97 0 47.12-22.45 47.12-46.64v-147.6c0-26.87-21.49-49.31-47.58-49.31z" fill="url(#paint0_radial_1334_2852)"/>
  <path d="m124 223.2c-13.51 0-25.43-2.41-37.31-7.25-1.36-0.58-1.55-1.85-1.09-2.84 0.5-1.08 1.8-1.27 2.79-0.83 10.99 4.75 22.37 7.06 35.52 7.06 49.52 0 95.66-42.21 95.66-92.91 0-12.51-2.11-23.4-5.77-33.48-0.43-1.15 0.1-2.55 1.19-2.94 1.13-0.41 2.34 0.15 2.77 1.3 3.99 10.96 6.12 22.67 6.12 35.12 0 53.21-47.38 96.77-99.88 96.77z" fill="url(#paint1_angular_1334_2852)"/>
  <path d="m43.18 218.2c-11.12 0-17.79-5.75-17.79-15.6 0-11.55 6.9-24.54 21.57-46.03l1.7-2.7 2.03 3.75-0.86 1.4c-13.74 21.2-20.12 33.58-20.12 43.58 0 7.73 4.79 11.75 13.93 11.75 18.57 0 45.81-14.46 75.98-38.14 27.53-21.81 55.35-50.37 77.34-79.73 16.72-23.65 21.05-38.4 21.05-49.36 0-9.22-4.37-14.66-13.07-14.66-11.36 0-27.72 6.28-44.86 16.6l-1.29 0.79-3.44-2.38 2.7-1.71c18.44-11.1 34.23-17.15 47.16-17.15 11.03 0 17.12 6.53 17.12 17.29 0 12.06-6.62 28.43-22.35 51.25-22.13 30.72-49.92 58.91-78.34 81.8-30.7 24.55-58.85 39.25-78.46 39.25z" fill="url(#paint2_angular_1334_2852)"/>
  <path d="m33.28 159c-4.36-11.21-7.57-23.09-7.57-33.73 0-51.82 43.46-99.26 97.8-99.26 13.33 0 25.7 2.3 37.3 7.06 1.26 0.53 1.76 1.69 1.31 2.87-0.45 1.1-1.74 1.45-2.91 1.05-11.44-4.69-22.8-6.9-35.31-6.9-51.73 0-93.87 44.92-93.87 95.18 0 9.96 2.65 21.1 6.81 32.07 0.51 1.32-0.13 2.51-1.23 2.95-0.91 0.4-1.99-0.3-2.33-1.29z" fill="url(#paint3_angular_1334_2852)"/>
  <path d="m123.8 206.7c-45.08 0-80.89-35.63-80.89-81.04 0-45.46 35.76-82.81 81.05-82.81 26.59 0 48.93 11.82 65.14 31.83l-0.59 1.23c-4.94 9.27-9.62 16.97-14.28 22.19l-8.15-3.12-0.6 4.09-1.9-1.49-3.4-4.63-1.71 0.83-3.71-3.15-2.28-1.4-0.86 0.56 7.57 5.38-1.74 3.2-1.96 0.35-0.64-4.81-3-1.78-9.93 3.04-1.86 3.81-3.85 0.24-2.27-1.35-0.27-6.42 6.44-1.16-1.33-4.17 7.21-7.39 0.55-6.25-3.4-2.47 7.84-11.71c2.28-1.35 4.8-1.25 6.98-0.54l8.42 2.69 0.95 1.22-2.65 2.9-7.3-3.4-3.2 5.91 2.65 3.29 4.68 0.09-2.91 2.47-1.54 3.81-6.27 1.13-1.54-4.66-2.06 0.96 1.64 3.75-2.65 0.66-2.48 2.19-3.01 2.32-1.54-8.32-2.91-0.9-1.44 2.2 0.95 1.9-2.56 4.05-0.64-0.95-0.86-0.66 0.95-2.2 3.05 0.09 0.37-3.28-0.95-1.27 1.74-1.58 1.9 0.4 3.31 3.5-0.4 3.66 4.16 1.34 2.18-2.9-0.95-2.95 2.11-1.47 2.51 3.04 3.51-2.2-1.15-2.73-0.95-0.84 1.96-5.65 1.64-1.74 7.3 2.9 2.91-3.15-1.66-1.39-9.18-3.7c-2.02-0.61-4.34-0.61-6.14 0.55l-6.63 9.72 0.37 2.16 3.31 1.35 1.12 3.8 3-0.85-0.37-2.85 1.86-2.2 1.33-3.95 1.15-1.94 2.06 0.49-1.86 2.47 1.33 2.85 4.41 0.49-3.16 1.68-1.04 3.61-5.41 1.73-2.32-0.29-2.06 0.76-0.86-4.41-2.86 0.56-1.64 5.66-4.48 4.2-0.47 2.2 3.2 1-1.65 3.61-4.65 0.23-0.37 5.66 1.38 2.3 5.27-0.39 1.48-3.1 11.22-2.69 1.86 1.17-1.43 1.89-0.09 2.11-2.18 1.11 0.27 1.79 10.25 3.4 1.44-1.1 6.76 1.05c-9.27 11.6-17.56 21.86-27.06 29.74l-4.89 0.49-9.14-8.32 0.05-11.02 5.71-10.63 3.56-2.7 15.4-2.74 0.91 2.64 7.7 2.47 1.39-2.47 5.03-0.29-1.55 13.72c-0.75 1.57 1.53 3.23 3.13 2.01 23.11-27.7 32.19-45.32 30.39-59.54-1.2-9.45-12.38-9.41-25.94-4.62-1.1 0.4-2.43-0.09-2.86-1.25-0.45-1.16 0.24-2.46 1.34-2.86 15.17-6.13 27.33-5.04 29.26 5.22 2.81 11.6-4.66 29.14-31.9 61.96-1.14 1.49-0.9 2.05 0.1 3.26l1.91-0.9c18.8-23.17 34.1-48.22 29.89-65.12-3.06-10.64-13.87-10.97-28.8-5.19-13.08-8.01-29.98-8.3-48.86-8.3-46.63 0-81.49 38.01-81.49 85.29 0 25.98 11.77 50.43 34.11 64.95l2.7-1.05c8.42-3.98 18.35-10.5 27.94-20.15 2.05-1.75 4.43-1.6 7.58 0.48l-1.1 1.57c-21.03 16.61-43.28 28.81-57.35 28.81-8.79 0-12.04-4.85-12.04-10.76 0-5.65 1.81-11.13 4.09-17.55 0.5-1.35 1.64-1.84 2.74-1.49 1.15 0.39 1.65 1.69 1.2 2.9-2.52 6.1-4.32 11.1-4.32 15.59 0 5.44 2.65 7.46 8.83 7.46 5.92 0 10.9-1.67 18.11-4.96-19.74-14.19-28.44-32.7-28.44-58.34 0-3.54 0.36-9.46 0.91-11.35l-0.31 0.26 0.27-0.95-0.55-5.29 6.85 11.98 0.69-0.24 1.05 1.34 5.67 1.49 5.32-1 0.5-5 2.37-0.6 1.14 3.6 2.19 0.4 0.86 1.35-0.42 4.95 1.96 1.9 3.11-0.25 2.61 1.57 8.19 0.45 5.86 4.1 5.23 1.39 2.81 4.49 11.36 2.95 2.11 2.47-2.33 8.23-25.94 17.91-2.37-11.21-4.32-2.47-8.1-10.31-0.27-5.24 2.28-5.65-0.86-5.62 2.43-1-3.66-1.63-3.71-3.81-6.22-1.62-6.94-2.2-3.35-2.64-5.62-10.72-0.32 2.9 0.59 3.33-1.6 0.18c-0.18 1.9-0.27 3.68-0.27 5.52 0 24.4 11.22 47.45 33.7 61.92 11.32-5.91 21.2-13.38 32.01-20.99 2.01-1.35 4.12-0.35 4.26 2.75-9.76 8.27-19.02 15.3-29.04 21.72l2.47 7.43c10.3 4.44 20.27 6.64 34.3 6.64 44.65 0 82.01-36.69 78.3-84.79-0.59-7.88-1.19-13.07-5-15.01l3.66-6c3.4 7.92 5.41 16.87 5.41 25.56 0 44.66-34.77 81.08-82.25 81.08z" fill="url(#paint4_angular_1334_2852)"/>
  <path d="m120.4 47.01 5.36 9.61-11.08 9.79-2.27 6.76-5.86-1.35-2.7-4.49 1.8-12.02-0.9-3.76-2.7-1.94 4.21-1.53c-6.04 0.6-19.93 5.74-27.14 10.74l-6.81 9.9 4.85-3.1 2.7 0.6 2.7-2.2-0.41-1.99 1.95-1.89 8.95 1.35 4.7 3.55-1.29 3.15 3.16 1.81-3.16 2.69-2.37-3.38-6.94 2.15 3.71 1.71 2.09 0.56 2.01 2.85 2.47-1.17 1.37 6.2 3.57 4.4 0.27 6.25-6.72-1.7 2.91-2.47-0.71-0.39-6.17 1.34-2.96 2.43 2.66-0.3 3.15 3.05-4.6 2.9-1.64-0.81-6.17 7.78-6.54 8.08-0.09 5.61-1.44 0.19-1-4.15-10.97 1.79c-3.3 1.16-2.93 8.28-2.13 9.4 0.99 1.9 3.23 2 4.55 1.2l1.04-2.69 2.76-0.14-0.37 4.29 2.91 0.35 1.8 1 0.05 4.81 1.7 1.79 3.3-0.2 2.85 1.45 7.94 0.3 6.12 4.24 5.32 1.21 2.66 4.45 11.55 3.05 1.86 2.36-2.61 8.23-16.58 12.51-8.52 5.29-2.7-11.4-4.6-2.32-7.79-10.27v-5.14l2.47-5.81-0.95-5.49 2.42-1-3.94-1.67-3.71-3.86-6.44-1.62-6.63-2.2-3.57-2.79-5.86-10.92v-2.2l2.86-11.77 8.84-19.81 9.14-12.16 8.05-7.02c9.82-7.29 24.08-16.8 44.26-15.05v1z" fill="#48D582"/>
  <path d="m121.4 63.42 1.2 0.2 3.31-0.4 3.16 0.6-0.95 2.48-3.31 0.56-3.5-1.15 0.09-2.29z" fill="#48D582"/>
  <path d="m81.88 66.31 2.18-2.29 3.56 0.3 3.11 0.75 1.18 1.79-4.8 3.6 1.7 1 5.95-2.8 0.37-3.04-2.28-2.47-5.83-2.04-3.61 0.2-1.3 0.72-0.23 1.99v2.29z" fill="#48D582"/>
  <path d="m70.52 79.1 2.75-4.04 7.39-6 5.32-0.45-0.55 2.9-3.31 10.16-2.7 5.56-1.96-3.29-4.21-2.2-2.73-2.64z" fill="#48D582"/>
  <path d="m156 155.1 27.48-29.93 2.7 0.45 4.8-2.37-1.4 7.17-7.7 9.7 0.46 13.33-4.89 3.86-0.69 4.8-2.01 1.62-4.7 6.71-8 2.59-6.38-16.71 0.33-1.22z" fill="#48D582"/>
  <path d="m185.2 122.2 9.23-11.11 1.39 1.52-1.44 4.8-6.32 4.79h-2.86z" fill="#48D582"/>
  <path d="m184.3 157.2 4.56-7.93 1.14 0.84-3.15 12.07-2.01 1.48-1.19-0.9 0.65-5.56z" fill="#48D582"/>
  <path d="m124.6 162c-1.95 0.24-3.2-2.98-1.19-4.51 12.48-10.73 23.05-20.63 34.46-32.94 2.18-2.15 4.37 0.37 2.73 3.01-11.03 12.31-22.2 23.33-33.8 33.3l-2.2 1.14z" fill="url(#paint5_angular_1334_2852)"/>
  <defs>
    <radialGradient id="paint0_radial_1334_2852" cx="0" cy="0" r="1" gradientTransform="translate(125.2 124.8) scale(180.6 180.7)" gradientUnits="userSpaceOnUse">
      <stop stop-color="#000020" offset="0"/>
      <stop stop-color="#020129" offset=".8073"/>
      <stop stop-color="#020136" offset="1"/>
    </radialGradient>
    <radialGradient id="paint1_angular_1334_2852" cx="0" cy="0" r="1" gradientTransform="translate(135.2 130.9) rotate(82.43) scale(92.7 94.28)" gradientUnits="userSpaceOnUse">
      <stop stop-color="#000020" offset="0"/>
      <stop stop-color="#5700A4" offset=".6979"/>
      <stop stop-color="#A300FE" offset="1"/>
    </radialGradient>
    <radialGradient id="paint2_angular_1334_2852" cx="0" cy="0" r="1" gradientTransform="translate(123.6 123.8) rotate(54.66) scale(101.7 101.8)" gradientUnits="userSpaceOnUse">
      <stop stop-color="#000020" offset="0"/>
      <stop stop-color="#3A86FE" offset=".651"/>
      <stop stop-color="#00C2FE" offset="1"/>
    </radialGradient>
    <radialGradient id="paint3_angular_1334_2852" cx="0" cy="0" r="1" gradientTransform="translate(100.7 93.71) rotate(52.59) scale(84.74 84.83)" gradientUnits="userSpaceOnUse">
      <stop stop-color="#000020" offset="0"/>
      <stop stop-color="#3A86FE" offset=".651"/>
      <stop stop-color="#00C2FE" offset="1"/>
    </radialGradient>
    <radialGradient id="paint4_angular_1334_2852" cx="0" cy="0" r="1" gradientTransform="translate(124.6 123.8) rotate(86.42) scale(86.57 86.67)" gradientUnits="userSpaceOnUse">
      <stop stop-color="#000020" offset="0"/>
      <stop stop-color="#3A86FE" stop-opacity=".25" offset=".651"/>
      <stop stop-color="#00C2FE" stop-opacity=".25" offset="1"/>
    </radialGradient>
    <radialGradient id="paint5_angular_1334_2852" cx="0" cy="0" r="1" gradientTransform="translate(142.2 143.1) rotate(77.93) scale(14.13 14.15)" gradientUnits="userSpaceOnUse">
      <stop stop-color="#000020" offset="0"/>
      <stop stop-color="#3A86FE" offset=".651"/>
      <stop stop-color="#00C2FE" offset="1"/>
    </radialGradient>
  </defs>
</svg>