<svg xmlns="http://www.w3.org/2000/svg" width="250" height="250" fill="none" viewBox="0 0 250 250">
<!-- SVG created with Arrow, by QuiverAI (https://quiver.ai) -->
  <path d="m125 2.5-0.63-0.34-0.64 0.34c-40.55 20.55-66.8 34.66-105.9 60.91l-0.45 0.3-0.01 0.53c-0.75 34.52-0.75 85.75 0 119.7l0.01 0.51 0.43 0.31c36.61 27.29 64.4 41.11 106 62.3l0.56 0.29 0.55-0.29c39.12-20.68 65.78-34.95 106.2-62.73l0.46-0.31 0.01-0.55c0.75-32.09 0.75-82.98 0-119l-0.01-0.55-0.44-0.32c-36.64-27.34-64.1-41.78-106.2-61.14z" fill="url(#paint0_linear_1101_22)" stroke="url(#paint1_linear_1101_22)" stroke-linejoin="round" stroke-width="1.117"/>
  <path d="m124.4 4.51c-38.89 19.8-67.26 35.41-104.6 60l-0.69 118.7c35.12 25.98 63.6 41.18 105.3 62.28 38.59-20.4 66.88-36.54 105.7-62.53l0.69-118.3c-35.91-26.24-63.5-40.91-106.4-60.12z" stroke="url(#paint2_linear_1101_22)" stroke-linejoin="round" stroke-width="1.117"/>
  <path d="m19.81 64.63c33.34-24.21 63.02-41.76 104.6-60.12l106.4 60.12" stroke="url(#paint3_linear_1101_22)" stroke-linejoin="round" stroke-width="1.117"/>
  <path d="m199.8 171.9c-15.87 25.88-38.56 41.87-75.47 42.56-32.12 0-56.29-14.83-74.26-41.48l-4.54-2.97c14.34 26.12 41.66 46.77 78.8 46.77 32.64 0 57.64-16.5 72.83-39.64l2.64-5.24z" fill="url(#paint4_linear_1101_22)"/>
  <path d="m47.12 79.08c13.27-24.99 39.13-43.5 76.79-44.65 33.5 0 59.82 16.68 75.81 42.36l3.09 1.92c-14.34-27.09-39.43-46.21-79.02-46.21-36.08 0-62.07 17.57-77.61 42.78l-1.8 4.63 2.74-0.83z" fill="url(#paint5_linear_1101_22)"/>
  <path d="m156.9 27.38-5.69 2.63c12.16 4.42 22.6 9.77 31.5 17.92" stroke="url(#paint6_linear_1101_22)" stroke-linecap="square" stroke-width="2.234"/>
  <path d="m66.3 47.71c9.96-8.3 20.94-13.98 32.63-18.14l-6.9-2.45c-11.42 4.67-21.25 10.89-26.6 16.11l0.87 4.48z" fill="url(#paint7_linear_1101_22)"/>
  <path d="m120 13.94-17.9 8.85c-0.89-0.51-1.49-1.18-2.59-1.06-2.33 0.28-2.21 4.1 0.39 3.89 1.6-0.13 2.18-1.74 1.83-3.01l17.4-6.25h9.83l18.14 7c-0.17 1.71 1.65 3.21 3.15 2.4 1.84-0.98 0.96-4.15-1.35-3.58l-19.25-8.24h-9.65z" fill="url(#paint8_linear_1101_22)" stroke="url(#paint9_linear_1101_22)" stroke-linejoin="round" stroke-width="1.117"/>
  <path d="m106.2 24.51-0.78 3.81c-14.34 3.02-29.5 10.76-41.1 21.09l-5.1 5.87-4.79 4.16-2.87-1.54-16.36 8.15-4.46 10.57-0.77 17.29" stroke="url(#paint10_linear_1101_22)" stroke-linejoin="round" stroke-width="1.117"/>
  <path d="m27.1 94.16-0.26-17.88 5.1-12.2 19.25-13.31c0.43-1.52 1.73-1.56 2.42-1.16 1.5 0.87 1.05 4.04-1.54 3.51l-2.08-0.7-16.36 11.29-5.11 11.41-1.29 18.91" stroke="url(#paint11_linear_1101_22)" stroke-linejoin="round" stroke-width="2.234"/>
  <path d="m189.4 45.91 1.03 8.99 5.23 4.42 2.99-1.42 14.88 8.84 4.62 8.59 0.64 14.95" stroke="url(#paint12_linear_1101_22)" stroke-linejoin="round" stroke-width="1.117"/>
  <path d="m224.2 93.91-0.55-17.63-7.03-12.95-16.36-11.54c-1.37-0.3-3.08-0.77-3.08 0.77-0.13 1.54 1.68 2.9 3.08 1.75l1.15-0.54 13.41 10.31 6.77 11.04 1.03 18.79" stroke="url(#paint13_linear_1101_22)" stroke-linejoin="round" stroke-width="2.234"/>
  <path d="m29.22 155.1-0.9 18.71 6.9 11.79 15.4 11.41c0.67 0.94 2.36 1.93 3.11 0.45 1.03-2.2-1.57-3.23-2.99-2.08l-14.02-13.32-5.1-9.67-0.64-17.01" stroke="url(#paint14_linear_1101_22)" stroke-linejoin="round" stroke-width="2.234"/>
  <path d="m223.4 155.1-1.03 18.71-8.26 11.07-15.16 12.13c-1.14 0.57-2.64 0-2.51-1.03 0-2 2.28-2.13 3.14-1.11l12.16-12.56 5.97-9.68 0.86-15.45" stroke="url(#paint15_linear_1101_22)" stroke-linejoin="round" stroke-width="2.234"/>
  <path d="m181.4 203.3c-9.27 7.89-20.12 13.92-24.29 16.55l-13.24-0.97-0.75 4.42-13.57 7.45h-10.45l-13.92-6.96-0.54-3.53c-13.49-2.59-24.52-8.15-34.49-16.96" stroke="url(#paint16_linear_1101_22)" stroke-linecap="square" stroke-width="2.234"/>
  <path d="m100 224.1 18.86 10.82h10.82l17.2-9.25c1.21 0.12 2.59-0.19 2.89-1.06 0.83-2.39-2.57-3.38-3.15-0.89l0.45 1.36-17.65 8.48h-10.69l-15.41-8.24c-1.27 0.16-2.49-0.57-2.75-1.44-0.9-1.85-3.74-0.79-2.72 1.44 0.52 1.06 1.89 0.86 2.15-1.22z" fill="url(#paint17_linear_1101_22)" stroke="url(#paint18_linear_1101_22)" stroke-linejoin="round" stroke-width="1.117"/>
  <path d="m27.07 156.6c1.28 0 1.94-1.93 0.67-3.45-1.52-1.48-3.73 0.69-2.62 2.17 0.6 0.82 1.1 1.28 1.95 1.28z" stroke="url(#paint19_linear_1101_22)" stroke-linejoin="round" stroke-width="1.117"/>
  <path d="m223.6 155.5c1.4-0.22 1.85-2.62 0.35-3.15-1.74-0.67-3.03 1.78-1.53 2.84 0.44 0.31 0.73 0.37 1.18 0.31z" stroke="url(#paint20_linear_1101_22)" stroke-linejoin="round" stroke-width="1.117"/>
  <path d="m227.7 124.8c0-25.7-20.71-52.49-52.91-52.49-16.63 0-30.2 7.04-38.35 15.98l-11.88 13.7-13.24-14.4c-9.61-9.9-21.65-15.28-38.28-15.28-29.28 0-52.78 23.33-52.78 52.49 0 19.94 12.42 38.19 32.46 48.21 6.17 2.23 11.57 3.28 19.45 3.28 16.63 0 30.05-7.58 38.44-17.48l13.82-11.77 11.88 13.7c9.61 10.55 21.65 15.95 38.28 15.95 28.41 0 53.11-22.74 53.11-51.89zm-157 22.09c-12.99-0.7-22.07-11.13-21.88-21.9 0.2-12.28 9.81-22.34 22.67-22.47 7.75-0.08 13.6 2.94 18.22 8.17l13.69 14.11-14.21 15.74c-4.47 4.67-10.29 6.68-18.49 6.35zm106.1 0c-7.88-0.35-12.98-3.25-16.86-7.67l-14.21-14.7 14.47-15.96c4.62-4.9 9.88-6.07 16.48-6.07 12.73 0 22.88 9.55 22.88 22.27 0 12.28-10.28 22.68-22.76 22.13z" fill="url(#paint21_linear_1101_22)" stroke="url(#paint22_linear_1101_22)" stroke-linejoin="round" stroke-width="1.676"/>
  <path d="m53.06 170.3c-17.33-8.4-29.75-24.47-29.75-45.64 0-26.62 20.85-49.48 49.14-49.48 4.4 0 7.61 0.24 12.71 1.29l-20.85 23.33c-11.7 3.17-18.64 13.22-18.64 24.76 0 12.46 9.25 24.56 23.85 25.11l-16.46 20.63z" fill="url(#paint23_linear_1101_22)" stroke="url(#paint24_linear_1101_22)" stroke-linejoin="round" stroke-width="1.676"/>
  <path d="m161.8 172.3 31.69-34.29-10.72 10.84-24.37 22.38c-8.13-2.51-14.54-7.26-21.31-15.28l-10.45-9.9 17.9-20.3 14.6 15.45c5.61 6 12.27 7.59 18.9 7.59 13.7 0 23.78-11.84 23.78-23.68 0-12.95-10.08-24.96-25.11-25.16l18.14-23c16.46 6.21 30.38 24.1 30.38 46.82 0 25.68-21.37 50.23-48.95 50.23-5.11 0-9.37-0.54-14.48-1.7z" fill="url(#paint25_linear_1101_22)" stroke="url(#paint26_linear_1101_22)" stroke-linejoin="round" stroke-width="1.676"/>
  <path d="m180.3 87.16h-6.13c-11.98 0-21.94 6-27.42 12.34l-48.8 52.17c-8.01 8.35-16.78 11.74-27.88 10.94l30-32.21 41.23-41.59c9.48-9.2 20.89-12.73 34.88-12.73l13.34 0.54-20.85 23.45" stroke="url(#paint27_linear_1101_22)" stroke-linejoin="round" stroke-width="1.676"/>
  <path d="m187.2 89.19c14.88 4.97 26.54 18.04 26.54 36.47 0 20.78-17.74 37.1-36.38 37.1h-5.11" stroke="url(#paint28_linear_1101_22)" stroke-linecap="round" stroke-linejoin="round" stroke-width="1.117"/>
  <path d="m61.71 161.4c-14.4-4.3-28.15-16.28-28.15-36.93 0-21.24 15.97-37.3 36.48-37.3h4.4" stroke="url(#paint29_linear_1101_22)" stroke-linecap="round" stroke-linejoin="round" stroke-width="1.117"/>
  <path d="m84.13 87.61c7.88 1.8 13.92 6.3 18.08 11.65l10.95 12.15" stroke="url(#paint30_linear_1101_22)" stroke-linejoin="round" stroke-width="2.234"/>
  <path d="m72.16 100.1c9.15-0.4 16.47 3.9 21.23 10.11l11.06 11.42" stroke="url(#paint31_linear_1101_22)" stroke-linejoin="round" stroke-width="2.234"/>
  <path d="m136.2 137.9 12.7 13.19c5.1 4.81 8.76 7.19 15.12 9.66" stroke="url(#paint32_linear_1101_22)" stroke-linejoin="round" stroke-width="2.234"/>
  <path d="m223.7 97.09c1.4 0 2.07-2.18 0.79-3.32-1.77-1.46-3.76 0.97-2.42 2.49 0.5 0.57 0.95 0.83 1.63 0.83z" stroke="url(#paint33_linear_1101_22)" stroke-linejoin="round" stroke-width="1.117"/>
  <defs>
    <linearGradient id="paint0_linear_1101_22" x1="124.5" x2="124.5" y1="2.158" y2="247.3" gradientUnits="userSpaceOnUse">
      <stop stop-color="#311966" offset="0"/>
      <stop stop-color="#280256" offset="1"/>
    </linearGradient>
    <linearGradient id="paint1_linear_1101_22" x1="124.5" x2="124.5" y1="2.158" y2="247.3" gradientUnits="userSpaceOnUse">
      <stop stop-color="#363695" offset="0"/>
      <stop stop-color="#280256" offset="1"/>
    </linearGradient>
    <linearGradient id="paint2_linear_1101_22" x1="125" x2="125" y1="4.032" y2="246" gradientUnits="userSpaceOnUse">
      <stop stop-color="#363695" offset="0"/>
      <stop stop-color="#280256" offset="1"/>
    </linearGradient>
    <linearGradient id="paint3_linear_1101_22" x1="125" x2="125" y1="4.032" y2="66.12" gradientUnits="userSpaceOnUse">
      <stop stop-color="#363695" offset="0"/>
      <stop stop-color="#280256" offset="1"/>
    </linearGradient>
    <linearGradient id="paint4_linear_1101_22" x1="122.7" x2="122.7" y1="170" y2="216.8" gradientUnits="userSpaceOnUse">
      <stop stop-color="#280256" offset="0"/>
      <stop stop-color="#311966" offset="1"/>
    </linearGradient>
    <linearGradient id="paint5_linear_1101_22" x1="123.5" x2="123.5" y1="32.5" y2="78.71" gradientUnits="userSpaceOnUse">
      <stop stop-color="#311966" offset="0"/>
      <stop stop-color="#280256" offset="1"/>
    </linearGradient>
    <linearGradient id="paint6_linear_1101_22" x1="167" x2="167" y1="29.31" y2="47.93" gradientUnits="userSpaceOnUse">
      <stop stop-color="#A639E6" offset="0"/>
      <stop stop-color="#6228C1" offset="1"/>
    </linearGradient>
    <linearGradient id="paint7_linear_1101_22" x1="82.18" x2="82.18" y1="27.12" y2="49.41" gradientUnits="userSpaceOnUse">
      <stop stop-color="#39A9F7" offset="0"/>
      <stop stop-color="#2068D0" offset="1"/>
    </linearGradient>
    <linearGradient id="paint8_linear_1101_22" x1="124.8" x2="124.8" y1="13.94" y2="26.02" gradientUnits="userSpaceOnUse">
      <stop stop-color="#5E51D6" offset="0"/>
      <stop stop-color="#421891" offset="1"/>
    </linearGradient>
    <linearGradient id="paint9_linear_1101_22" x1="124.8" x2="124.8" y1="13.94" y2="26.02" gradientUnits="userSpaceOnUse">
      <stop stop-color="#5250C9" offset="0"/>
      <stop stop-color="#421891" offset="1"/>
    </linearGradient>
    <linearGradient id="paint10_linear_1101_22" x1="67.56" x2="67.56" y1="27.12" y2="93.91" gradientUnits="userSpaceOnUse">
      <stop stop-color="#39A9F7" offset="0"/>
      <stop stop-color="#2068D0" offset="1"/>
    </linearGradient>
    <linearGradient id="paint11_linear_1101_22" x1="40.79" x2="40.79" y1="49.29" y2="94.66" gradientUnits="userSpaceOnUse">
      <stop stop-color="#01E4FE" offset="0"/>
      <stop stop-color="#0197D6" offset="1"/>
    </linearGradient>
    <linearGradient id="paint12_linear_1101_22" x1="204" x2="204" y1="45.91" y2="90.28" gradientUnits="userSpaceOnUse">
      <stop stop-color="#B505E6" offset="0"/>
      <stop stop-color="#8A05C9" offset="1"/>
    </linearGradient>
    <linearGradient id="paint13_linear_1101_22" x1="210.7" x2="210.7" y1="50.39" y2="94.66" gradientUnits="userSpaceOnUse">
      <stop stop-color="#B505E6" offset="0"/>
      <stop stop-color="#8A05C9" offset="1"/>
    </linearGradient>
    <linearGradient id="paint14_linear_1101_22" x1="39.61" x2="39.61" y1="153.9" y2="198.6" gradientUnits="userSpaceOnUse">
      <stop stop-color="#01E4FE" offset="0"/>
      <stop stop-color="#0197D6" offset="1"/>
    </linearGradient>
    <linearGradient id="paint15_linear_1101_22" x1="210.7" x2="210.7" y1="153.9" y2="198.6" gradientUnits="userSpaceOnUse">
      <stop stop-color="#B505E6" offset="0"/>
      <stop stop-color="#8A05C9" offset="1"/>
    </linearGradient>
    <linearGradient id="paint16_linear_1101_22" x1="126.3" x2="126.3" y1="201.2" y2="220.2" gradientUnits="userSpaceOnUse">
      <stop stop-color="#B505E6" offset="0"/>
      <stop stop-color="#8A05C9" offset="1"/>
    </linearGradient>
    <linearGradient id="paint17_linear_1101_22" x1="123.7" x2="123.7" y1="220.8" y2="235" gradientUnits="userSpaceOnUse">
      <stop stop-color="#5250C9" offset="0"/>
      <stop stop-color="#421891" offset="1"/>
    </linearGradient>
    <linearGradient id="paint18_linear_1101_22" x1="123.7" x2="123.7" y1="220.8" y2="235" gradientUnits="userSpaceOnUse">
      <stop stop-color="#39A9F7" offset="0"/>
      <stop stop-color="#2068D0" offset="1"/>
    </linearGradient>
    <linearGradient id="paint19_linear_1101_22" x1="26.14" x2="26.14" y1="152.1" y2="156.7" gradientUnits="userSpaceOnUse">
      <stop stop-color="#01E4FE" offset="0"/>
      <stop stop-color="#0197D6" offset="1"/>
    </linearGradient>
    <linearGradient id="paint20_linear_1101_22" x1="223.4" x2="223.4" y1="151.8" y2="155.7" gradientUnits="userSpaceOnUse">
      <stop stop-color="#B505E6" offset="0"/>
      <stop stop-color="#8A05C9" offset="1"/>
    </linearGradient>
    <linearGradient id="paint21_linear_1101_22" x1="124" x2="124" y1="71.77" y2="177.3" gradientUnits="userSpaceOnUse">
      <stop stop-color="#B505E6" offset="0"/>
      <stop stop-color="#4A1493" offset=".5052"/>
      <stop stop-color="#280256" offset="1"/>
    </linearGradient>
    <linearGradient id="paint22_linear_1101_22" x1="124" x2="124" y1="71.77" y2="177.3" gradientUnits="userSpaceOnUse">
      <stop stop-color="#2A05C4" offset="0"/>
      <stop stop-color="#0197D6" offset="1"/>
    </linearGradient>
    <linearGradient id="paint23_linear_1101_22" x1="55.49" x2="55.49" y1="74.66" y2="170.9" gradientUnits="userSpaceOnUse">
      <stop stop-color="#2068D0" offset="0"/>
      <stop stop-color="#01B6F5" offset=".5052"/>
      <stop stop-color="#6228C1" offset="1"/>
    </linearGradient>
    <linearGradient id="paint24_linear_1101_22" x1="55.49" x2="55.49" y1="74.66" y2="170.9" gradientUnits="userSpaceOnUse">
      <stop stop-color="#0197D6" offset="0"/>
      <stop stop-color="#0197D6" offset="1"/>
    </linearGradient>
    <linearGradient id="paint25_linear_1101_22" x1="175.9" x2="175.9" y1="76.08" y2="174.5" gradientUnits="userSpaceOnUse">
      <stop stop-color="#B505E6" offset="0"/>
      <stop stop-color="#6228C1" offset=".5052"/>
      <stop stop-color="#B505E6" offset="1"/>
    </linearGradient>
    <linearGradient id="paint26_linear_1101_22" x1="175.9" x2="175.9" y1="76.08" y2="174.5" gradientUnits="userSpaceOnUse">
      <stop stop-color="#2A05C4" offset="0"/>
      <stop stop-color="#8A05C9" offset="1"/>
    </linearGradient>
    <linearGradient id="paint27_linear_1101_22" x1="130" x2="130" y1="75.82" y2="163.2" gradientUnits="userSpaceOnUse">
      <stop stop-color="#B505E6" offset="0"/>
      <stop stop-color="#6228C1" offset=".5052"/>
      <stop stop-color="#B505E6" offset="1"/>
    </linearGradient>
    <linearGradient id="paint28_linear_1101_22" x1="193" x2="193" y1="88.64" y2="163.3" gradientUnits="userSpaceOnUse">
      <stop stop-color="#B505E6" offset="0"/>
      <stop stop-color="#F582FF" offset="1"/>
    </linearGradient>
    <linearGradient id="paint29_linear_1101_22" x1="47.63" x2="47.63" y1="86.61" y2="161.9" gradientUnits="userSpaceOnUse">
      <stop stop-color="#01B6F5" offset="0"/>
      <stop stop-color="#B505E6" offset="1"/>
    </linearGradient>
    <linearGradient id="paint30_linear_1101_22" x1="98.64" x2="98.64" y1="86.72" y2="112" gradientUnits="userSpaceOnUse">
      <stop stop-color="#A639E6" offset="0"/>
      <stop stop-color="#6228C1" offset="1"/>
    </linearGradient>
    <linearGradient id="paint31_linear_1101_22" x1="88.3" x2="88.3" y1="99.56" y2="122.2" gradientUnits="userSpaceOnUse">
      <stop stop-color="#6228C1" offset="0"/>
      <stop stop-color="#311966" offset="1"/>
    </linearGradient>
    <linearGradient id="paint32_linear_1101_22" x1="150.1" x2="150.1" y1="130" y2="161.3" gradientUnits="userSpaceOnUse">
      <stop stop-color="#6228C1" offset="0"/>
      <stop stop-color="#A639E6" offset="1"/>
    </linearGradient>
    <linearGradient id="paint33_linear_1101_22" x1="223.4" x2="223.4" y1="93.33" y2="97.52" gradientUnits="userSpaceOnUse">
      <stop stop-color="#B505E6" offset="0"/>
      <stop stop-color="#8A05C9" offset="1"/>
    </linearGradient>
  </defs>
</svg>