<svg xmlns="http://www.w3.org/2000/svg" width="25" height="25" fill="none" viewBox="0 0 25 25">
<!-- SVG created with Arrow, by QuiverAI (https://quiver.ai) -->
  <path d="m24.06 10.55c-0.02-0.16-0.14-0.27-0.29-0.3l-2.11-0.43c-0.2-0.64-0.46-1.25-0.79-1.84l1.2-1.77c0.09-0.13 0.08-0.3-0.02-0.43-0.84-1.07-1.78-2.02-2.87-2.84-0.12-0.1-0.3-0.1-0.42-0.01l-1.68 1.1c-0.6-0.3-1.23-0.55-1.93-0.73l-0.42-2.03c-0.03-0.15-0.16-0.26-0.31-0.27-1.28-0.11-2.54-0.12-3.81 0-0.15 0.01-0.28 0.12-0.31 0.27l-0.42 2.04c-0.64 0.18-1.26 0.42-1.86 0.73l-1.84-1.11c-0.13-0.08-0.3-0.07-0.42 0.03-1.04 0.88-1.98 1.82-2.83 2.89-0.1 0.12-0.1 0.3-0.01 0.42l1.2 1.67c-0.35 0.61-0.62 1.25-0.82 1.9l-2.07 0.46c-0.15 0.03-0.26 0.16-0.27 0.32-0.13 1.27-0.13 2.52 0 3.85 0.02 0.15 0.13 0.27 0.28 0.3l2.11 0.42c0.2 0.64 0.46 1.26 0.79 1.85l-1.2 1.82c-0.09 0.13-0.07 0.31 0.04 0.43 0.86 0.99 1.79 1.91 2.85 2.73 0.12 0.1 0.28 0.1 0.41 0.01l1.72-1.15c0.6 0.31 1.24 0.56 1.89 0.74l0.45 2.11c0.03 0.15 0.16 0.26 0.31 0.27 1.28 0.11 2.54 0.12 3.81 0 0.15-0.01 0.28-0.12 0.31-0.27l0.42-2.13c0.64-0.18 1.26-0.43 1.86-0.73l1.83 1.16c0.13 0.09 0.3 0.08 0.42-0.03 1-0.89 1.94-1.84 2.78-2.85 0.11-0.12 0.11-0.3 0.01-0.43l-1.2-1.63c0.33-0.61 0.6-1.24 0.8-1.9l2.12-0.42c0.15-0.03 0.27-0.16 0.28-0.31 0.12-1.28 0.12-2.6 0.01-3.91z" fill="url(#paint0_radial_138_17629)" fill-opacity=".75"/>
  <path d="m23.58 10.62-2.29-0.47c-0.24-0.81-0.57-1.58-1-2.29l1.32-1.85c-0.75-0.96-1.67-1.84-2.64-2.65l-1.85 1.26c-0.77-0.43-1.6-0.76-2.5-0.97l-0.29-2.23c-1.14-0.1-2.42-0.12-3.56 0l-0.42 2.35c-0.89 0.2-1.73 0.55-2.5 0.99l-1.84-1.47c-0.97 0.81-1.89 1.7-2.68 2.69l1.32 1.85c-0.46 0.76-0.81 1.59-1.03 2.48l-2.23 0.42c-0.12 1.14-0.14 2.33-0.02 3.63l2.34 0.42c0.2 0.89 0.55 1.72 0.99 2.49l-1.37 1.75c0.81 0.96 1.63 1.78 2.65 2.59l1.94-1.41c0.77 0.43 1.6 0.76 2.5 0.97l0.29 2.35c1.14 0.1 2.24 0.12 3.62 0l0.38-2.35c0.89-0.2 1.73-0.55 2.5-0.99l1.75 1.37c0.96-0.86 1.88-1.79 2.62-2.65l-1.32-1.79c0.46-0.77 0.81-1.65 1.03-2.36l2.34-0.43c0.12-1.14 0.08-2.56-0.05-3.7z" stroke="url(#paint1_linear_138_17629)" stroke-linecap="round" stroke-linejoin="round" stroke-miterlimit="10" stroke-width=".7"/>
  <path d="m23.32 11.08-2.25-0.52c-0.2-0.8-0.54-1.78-1.05-2.57l0.97-1.81-2.04-2.24-1.83 1.14c-0.77-0.44-1.84-0.83-2.63-1.04l-0.63-2.15-2.8-0.17-0.47 2.34c-0.89 0.2-1.88 0.6-2.65 1.04l-1.88-1.09-2.2 2.04 1.27 1.86c-0.46 0.77-0.9 1.75-1.12 2.64l-2.19 0.46-0.05 2.85 2.24 0.52c0.2 0.89 0.71 1.87 1.15 2.64l-1.1 1.9c0.89 0.7 1.03 0.96 1.73 1.72l2.03-1.77c0.77 0.44 1.89 0.93 2.73 1.1l0.51 1.99 2.75 0.2 0.56-1.46c0.89-0.2 2.02-0.64 2.79-1.08l1.79 1.22 2.04-1.95-1.22-1.7c0.46-0.77 0.94-1.9 1.16-2.79l2.04-0.46 0.25-1.76 0.1-1.1z" fill="#89A1B7"/>
  <path d="m4.25 18.86c1.66-0.33 4.37-3.09 5.56-4.24l3.33-2.6 1.98-1.29c1.94-1.22 3.86-2.67 5.1-5.55l-0.43-0.36-2.51 2.57c-0.75-0.66-1.42-1.16-2.59-1.53v1.8c-0.78-0.29-1.31-0.35-2.23-0.35-3.24 0-6.2 2.52-6.62 5.07h-4.12l-0.01 0.33 3.4 0.01c0.08 0.29 0.37 0.4 0.6 0.4 0.41 0 0.6-0.36 0.6-0.66 0-0.29-0.13-0.46-0.43-0.63 0.16-1.48 0.77-2.78 1.74-3.75l1.01 1.01 0.3-0.33-0.85-0.93c1.31-1.2 2.73-1.94 4.38-1.94h0.04v-4.17h-0.33v3.66c-3.49 0.04-6.39 2.93-6.81 6.45-0.24 0.08-0.35 0.2-0.45 0.38h-3.14v0.41h3.14c0.09 0.34 0.38 0.55 0.72 0.55 0.46 0 0.73-0.39 0.73-0.73 0-0.32-0.12-0.48-0.37-0.64 0.17-1.43 0.79-2.72 1.67-3.65l0.85 0.81c-0.97 1.02-1.47 2.32-1.47 3.58 0 2.97 2.41 5.37 5.38 5.37 2.96 0 5.45-2.4 5.45-5.37 0-2.23-1.3-4.02-2.91-4.92v-1.18c0.84 0.33 1.55 0.91 2.16 1.48 0.15 0.15 0.34 0.11 0.46-0.01l2.43-2.5c-0.09-0.12-0.17-0.3-0.3-0.5l-2.43 2.31c-0.79-0.74-1.66-1.34-2.57-1.54-0.19-0.04-0.33 0.1-0.33 0.29v1.38c-0.67-0.21-1.23-0.32-1.96-0.32-3.01 0-5.43 2.52-5.43 5.48 0 2.97 2.46 5.37 5.43 5.37 2.96 0 5.5-2.4 5.46-5.46-0.03-1.34-0.55-2.54-1.13-3.29 1.1 1.18 1.36 2.18 1.42 3.45 0.04 0.98-0.46 2.78-0.96 3.75l-0.7-0.71-0.33 0.33 1.07 1.07c1.16-1.2 1.94-2.46 2.32-3.83 0.21-0.13 0.33-0.27 0.38-0.48h3.27v-0.55h-3.2c-0.17-0.27-0.36-0.4-0.66-0.4-0.48 0-0.73 0.45-0.73 0.75s0.13 0.47 0.3 0.61c-0.21 1.54-0.71 2.75-1.68 3.82l-0.89-0.93-0.34 0.29 0.97 1.01c-1.26 1.2-2.68 1.75-4.57 1.75v4.12h-0.29v-3.87c0-0.25 0.08-0.33 0.33-0.33 2.46 0 4.65-1.42 5.93-3.49 0.57-0.93 1-1.98 1.14-2.4h3.69l0.09-2.01h0.01z" fill="url(#paint2_linear_138_17629)" opacity=".2"/>
  <path d="m5.05 19.93 3.62-3.63" stroke="url(#paint3_linear_138_17629)" stroke-linecap="round" stroke-linejoin="round" stroke-miterlimit="10" stroke-width=".6"/>
  <path d="m7.63 17.31c0.76 0.75 1.27 1.1 2.53 1.56v-1.56" stroke="url(#paint4_linear_138_17629)" stroke-linecap="round" stroke-linejoin="round" stroke-miterlimit="10" stroke-width=".6"/>
  <path d="m19.95 19.93-1.47-1.47" stroke="url(#paint5_linear_138_17629)" stroke-linecap="round" stroke-linejoin="round" stroke-miterlimit="10" stroke-width=".6"/>
  <path d="m12.46 15.16c1.46 0 2.59-1.34 2.59-2.66 0-1.44-1.22-2.61-2.59-2.66-1.53-0.05-2.63 1.27-2.62 2.66 0 1.38 1.05 2.66 2.62 2.66z" fill="url(#paint6_radial_138_17629)" stroke="url(#paint7_linear_138_17629)" stroke-linecap="round" stroke-linejoin="round" stroke-miterlimit="10" stroke-width=".6"/>
  <defs>
    <radialGradient id="paint0_radial_138_17629" cx="0" cy="0" r="1" gradientTransform="translate(12.5 12.5) scale(14.19 14.19)" gradientUnits="userSpaceOnUse">
      <stop stop-color="#3229E5" offset="0"/>
      <stop stop-color="#5A14CC" offset=".22"/>
      <stop stop-color="#6E0BBA" offset=".33"/>
      <stop stop-color="#91019F" offset=".57"/>
      <stop stop-color="#770BC8" offset=".78"/>
      <stop stop-color="#5B22F3" offset="1"/>
    </radialGradient>
    <linearGradient id="paint1_linear_138_17629" x1="12.5" x2="12.5" y1="1.338" y2="23.66" gradientUnits="userSpaceOnUse">
      <stop stop-color="#00B3FF" offset="0"/>
      <stop stop-color="#4200B8" offset="1"/>
    </linearGradient>
    <linearGradient id="paint2_linear_138_17629" x1="12.55" x2="12.55" y1="1.719" y2="22.2" gradientUnits="userSpaceOnUse">
      <stop stop-color="#fff" offset="0"/>
      <stop stop-color="#fff" stop-opacity=".14" offset="1"/>
    </linearGradient>
    <linearGradient id="paint3_linear_138_17629" x1="6.857" x2="6.857" y1="16.91" y2="20.23" gradientUnits="userSpaceOnUse">
      <stop stop-color="#4A27B8" offset="0"/>
      <stop stop-color="#6C19D3" offset="1"/>
    </linearGradient>
    <linearGradient id="paint4_linear_138_17629" x1="8.895" x2="8.895" y1="17.31" y2="18.88" gradientUnits="userSpaceOnUse">
      <stop stop-color="#4A27B8" offset="0"/>
      <stop stop-color="#6C19D3" offset="1"/>
    </linearGradient>
    <linearGradient id="paint5_linear_138_17629" x1="19.21" x2="19.21" y1="18.46" y2="19.93" gradientUnits="userSpaceOnUse">
      <stop stop-color="#4A27B8" offset="0"/>
      <stop stop-color="#6C19D3" offset="1"/>
    </linearGradient>
    <radialGradient id="paint6_radial_138_17629" cx="0" cy="0" r="1" gradientTransform="translate(12.5 12.5) scale(2.6 2.6)" gradientUnits="userSpaceOnUse">
      <stop stop-color="#fff" offset="0"/>
      <stop stop-color="#FDFDFE" offset=".42"/>
      <stop stop-color="#F5F7FD" offset=".6"/>
      <stop stop-color="#E8EDFA" offset=".74"/>
      <stop stop-color="#D5DFF6" offset=".85"/>
      <stop stop-color="#BCC8F0" offset=".96"/>
      <stop stop-color="#B2BFEF" offset="1"/>
    </radialGradient>
    <linearGradient id="paint7_linear_138_17629" x1="12.44" x2="12.44" y1="9.531" y2="15.47" gradientUnits="userSpaceOnUse">
      <stop stop-color="#0082E0" offset="0"/>
      <stop stop-color="#9F59FF" offset="1"/>
    </linearGradient>
  </defs>
</svg>