<svg xmlns="http://www.w3.org/2000/svg" width="251" height="250" fill="none" viewBox="0 0 251 250">
<!-- SVG created with Arrow, by QuiverAI (https://quiver.ai) -->
  <path d="m236.3 13.73c0.47-3.03-2.08-5.16-4.89-4.58l-123.4 26.11c-3.58 0.79-4.81 5.55-2.08 8.33l20.2 21.19-36.09 37.16-29.91 2.81c-1.29 0.13-2.5 0.74-3.39 1.71l-37.06 37.16c-2.87 3.1-0.7 8 3.85 7.18l7.76-1.47-14.78 27.68c-1.85 3.61 1.06 7.75 5.47 6.3l15.52-5.5-11.79 11.17c-1.07 0.99-1.79 2.27-2.03 3.73l-8.81 41.43c-0.76 3.77 2.34 6.75 6.09 5.72l41.37-10.57c1.41-0.38 2.68-1.15 3.63-2.33l7.56-9.49-2.1 12.46c-0.81 4.77 3.79 8.05 8.37 5.88l22.18-10.56c0.92-0.44 1.75-1.09 2.44-1.9l1-1.34-0.12 1.78c-0.45 4.64 4.47 7.45 8.15 4.02l35.39-35.39c1.58-1.58 2.6-3.69 2.68-6.01l1.1-29.23 33.98-33.98 21.32 20.28c2.94 3.03 8.39 1.28 9.15-3.17l19.21-126.6z" fill="#FEFF80" fill-opacity=".3"/>
  <path d="m232.2 11.14-123.4 26.11c-1.84 0.44-2.5 2.74-1.16 4.24l22.02 23.13-38.43 39.07-31.4 3.03c-0.77 0.08-1.5 0.44-2.06 1.05l-37.16 37.16c-1.5 1.7-0.2 4.35 2.15 3.82l13.55-2.59-6.56 6.87-12.52 25.07c-1.05 2.14 0.56 4.57 3.09 3.77l22.53-8.06-16.17 16.16c-0.75 0.72-1.28 1.65-1.49 2.74l-8.81 41.42c-0.42 2.08 1.26 3.69 3.32 3.13l42.91-11.07c0.95-0.27 1.81-0.85 2.45-1.68l13.85-17.85-5.24 24.09c-0.54 2.64 1.94 4.63 4.49 3.42l21.93-10.94c0.61-0.3 1.18-0.75 1.64-1.35l5.98-8.17-1.19 10.82c-0.26 2.68 2.65 4.1 4.67 2l36.53-36.54c1.26-1.26 2.02-3 2.1-4.88l1.11-29.4 35.87-35.87 22.47 21.1c1.91 1.92 5.09 0.85 5.55-2.01l20.29-124.2c0.37-1.98-1.08-3.95-2.94-3.56z" fill="#FEFF41" stroke="#FEFF41" stroke-miterlimit="10" stroke-width=".9135"/>
  <path d="m232.1 13.71-122.8 26.22 23.6 23.23-40.4 41.96-32.29 3.18-37.34 38.16 23.26-3.96-14.13 12.74-12.69 24.24 33.73-9.48-25.04 23.17-9.2 42.56 43.44-11.07 21.77-25.97-8.21 33.42 23.34-11.8 11.05-16.62-1.32 20.03 37.46-36.7 1.32-32.99 39.25-38.83 23.67 23.21 22.67-123.8c0.17-0.69-0.44-1.03-1.1-0.86z" fill="#fff" stroke="#FEF102" stroke-miterlimit="10" stroke-width="2.74"/>
  <path d="m114.9 42.1 113.1-24.83-19.08 114.8-20.7-18.88c-1.19-1.12-2.37-0.91-3.56 0.3l-37.71 38.63c-0.7 0.7-1.2 1.65-1.4 2.65l-32.8 62.54-0.21-13.28c0.08-2.36-2.19-3.17-3.51-1.14l-10.2 15.48-18.57 9.87 10.59-27.03c0.9-2.38-1.79-4.27-3.6-2.45l-25.4 24.41-40.34 9.09 7.31-38.1 25.33-22.95c1.81-1.63-0.04-4.25-2.39-3.45l-27.91 8.42 9.37-19.54 13.74-11.53c1.58-1.37 0.69-3.96-1.84-3.32l-16.17 1.77 31.48-33.33 31.73-3.02c1.09-0.12 2.12-0.65 2.93-1.56l38.43-39.47c1.22-1.31 1.43-3.05 0.04-4.41l-18.66-19.62z" fill="url(#paint0_linear_57_34)"/>
  <path d="m226.3 19.01-111.6 111.1 30.84 24.18-15.33 24.38 14.52 6.3-32 32.27 11.83-77.88-27.83 52.28 3.67-23.95-14.09 19.91-28.11 9.19 6.1-29.4 18.94-17.62-23.01 3.02 18.27-20.93 30.08-8.7-69.95 34.05 17.4-23.02 35.7-26.4 2.9-1.78 38.5-39.56c1.5-1.53 2-3.35 0.33-5.13l-18.58-19.24 111.4-23.09z" fill="url(#paint1_linear_57_34)"/>
  <defs>
    <linearGradient id="paint0_linear_57_34" x1="160.7" x2="108.2" y1="23.71" y2="176.4" gradientUnits="userSpaceOnUse">
      <stop stop-color="#D59A17" offset="0"/>
      <stop stop-color="#C1272D" offset=".5052"/>
      <stop stop-color="#D82435" offset=".8073"/>
      <stop stop-color="#D59A17" offset="1"/>
    </linearGradient>
    <linearGradient id="paint1_linear_57_34" x1="131.4" x2="106.3" y1="70.76" y2="170.7" gradientUnits="userSpaceOnUse">
      <stop stop-color="#B64225" offset="0"/>
      <stop stop-color="#D82435" offset=".5052"/>
      <stop stop-color="#B64225" offset="1"/>
    </linearGradient>
  </defs>
</svg>