<svg xmlns="http://www.w3.org/2000/svg" width="200" height="200" fill="none" viewBox="0 0 200 200">
<!-- SVG created with Arrow, by QuiverAI (https://quiver.ai) -->
  <path d="m162.9 9h-124.5c-16.24 0-29.41 13.71-29.41 30.64v120.4c0 15.36 12.77 28.36 28.8 28.36h125.1c15.49 0 30.08-12.63 30.08-28.92v-118.4c0-17.03-13.01-32.14-30.12-32.14z" fill="#fff" stroke="url(#paint0_linear_418_355)" stroke-miterlimit="10" stroke-width="4"/>
  <path d="m163.9 12h-126.5c-14.04 0-26.42 12.49-26.42 27.62v119.5c0 14.47 11.91 27.3 26.96 27.3h125.3c14.52 0 27.74-13.38 27.74-26.25v-119.5c0-14.47-12.09-28.71-27.12-28.71z" fill="#fff" stroke="url(#paint1_linear_418_355)" stroke-miterlimit="10" stroke-width="3"/>
  <path d="m163.2 191h-125.5c-16.33 0-31.64-13.91-31.64-31v-120c0-16.52 13.91-30.95 30.76-30.95h125.7c16.16 0 32.54 14.21 32.54 31.52v119.2c0 15.99-13.79 31.28-31.84 31.28zm-125.6-179.5c-15.27 0-28.09 12.98-28.09 28.46v120c0 15.22 13.85 27.51 28.12 27.51h125.5c16.06 0 28.33-13.8 28.33-27.79v-119.2c0-15.61-14.58-28.03-29.03-28.03h-125.7-0.15l1-1z" fill="url(#paint2_linear_418_355)"/>
  <path d="m15.4 99.46 9.44-7.45h5.18v35.83l9.32-6.06 27.34 0.42v22.55l-8.4 7.46v34.09h-21.59c-13.48 0-27.38-11.04-27.38-27.29v-13.98l6.02-5.42 0.07-40.15z" fill="#D16C00" stroke="#361164" stroke-linecap="round" stroke-linejoin="round" stroke-miterlimit="10" stroke-width="3.4"/>
  <path d="m39.34 122.9 26.78-0.28-19.41 22.7v40.99" stroke="#361164" stroke-linecap="round" stroke-linejoin="round" stroke-miterlimit="10" stroke-width="3.4"/>
  <path d="m10.81 145.7h35.34" stroke="#361164" stroke-linecap="round" stroke-linejoin="round" stroke-miterlimit="10" stroke-width="3.4"/>
  <path d="m10.67 152.1h34.99" stroke="#361164" stroke-linecap="round" stroke-linejoin="round" stroke-miterlimit="10" stroke-width="3.4"/>
  <path d="m10.67 159.9h34.99" stroke="#361164" stroke-linecap="round" stroke-linejoin="round" stroke-miterlimit="10" stroke-width="3.4"/>
  <path d="m16.83 103.3 12.77-0.21" stroke="#361164" stroke-linecap="round" stroke-linejoin="round" stroke-miterlimit="10" stroke-width="3.4"/>
  <path d="m16.34 112.2 12.49 0.49" stroke="#361164" stroke-linecap="round" stroke-linejoin="round" stroke-miterlimit="10" stroke-width="3.4"/>
  <path d="m28.33 94.69v34.13l-5.63 4.87 0.21-22.15-0.14-13.98 2.96-2.87h2.6z" fill="url(#paint3_linear_418_355)"/>
  <path d="m41.88 54.32h16.59v24.6l11.18 12.22h-14.05v30.29l-16.66 0.28v-42.79h2.94v-24.6z" fill="#D16C00" stroke="#361164" stroke-linecap="round" stroke-linejoin="round" stroke-miterlimit="10" stroke-width="3.4"/>
  <path d="m44.98 56.51 10.84 0.21-0.14 21.02h-3.97v-14.19l-1.75 0.07v14.12h-5.26l0.28-21.23z" fill="url(#paint4_linear_418_355)"/>
  <path d="m50.55 36.87v17.03" stroke="#361164" stroke-linecap="round" stroke-linejoin="round" stroke-miterlimit="10" stroke-width="3.4"/>
  <path d="m46.65 86.77v13.24" stroke="#361164" stroke-linecap="round" stroke-linejoin="round" stroke-miterlimit="10" stroke-width="3.4"/>
  <path d="m69.51 92.01-12.08-11.94-8.32-0.49 10.09-0.45 11.87 12.88h-1.56z" fill="url(#paint5_linear_418_355)"/>
  <path d="m84.98 107.4 16.18 8.47v30.67l-4.67-2.47h-12.38l0.87-36.67z" fill="#D16C00" stroke="#361164" stroke-linecap="round" stroke-linejoin="round" stroke-miterlimit="10" stroke-width="3.4"/>
  <path d="m85.19 112 12.92 6.83v24.06l-3.24-0.86-9.61-0.35-0.07-29.68z" fill="url(#paint6_linear_418_355)"/>
  <path d="m84.46 129h15.84" stroke="#361164" stroke-linecap="round" stroke-linejoin="round" stroke-miterlimit="10" stroke-width="3.4"/>
  <path d="m110.2 124.7h14.61v32h-14.61v-32z" fill="#D16C00" stroke="#361164" stroke-linecap="round" stroke-linejoin="round" stroke-miterlimit="10" stroke-width="3.4"/>
  <path d="m113.2 127.4 9.25 0.21-0.28 26.99h-8.97v-27.2z" fill="url(#paint7_linear_418_355)"/>
  <path d="m117.7 108.4v14.82" stroke="#361164" stroke-linecap="round" stroke-linejoin="round" stroke-miterlimit="10" stroke-width="3.4"/>
  <path d="m127.8 156.2 13.91 10.53v19.54h-35.06v-30.07h21.15z" fill="#D16C00" stroke="#361164" stroke-linecap="round" stroke-linejoin="round" stroke-miterlimit="10" stroke-width="3.4"/>
  <path d="m110.3 158.2h25.86l-9.32-1.18-1.04 0.35-12.56-0.35-2.94 1.18z" fill="url(#paint8_linear_418_355)"/>
  <path d="m116.9 167.9v17.5" stroke="#361164" stroke-linecap="round" stroke-linejoin="round" stroke-miterlimit="10" stroke-width="3.4"/>
  <path d="m125.2 175.3v10.46" stroke="#361164" stroke-linecap="round" stroke-linejoin="round" stroke-miterlimit="10" stroke-width="3.4"/>
  <path d="m139.4 168.1 0.35 16.92-2.46 0.28 0.14-17.34 1.97 0.14z" fill="url(#paint9_linear_418_355)"/>
  <path d="m55.04 91.14 16.17 0.07 7.8 10.25 0.36 41.32h-7.2v-38.45h-17.13v-13.19z" fill="#D16C00" stroke="#361164" stroke-linecap="round" stroke-linejoin="round" stroke-miterlimit="10" stroke-width="1.7"/>
  <path d="m56.66 92.71 12.24 1 0.75 5.5-0.82 2.8h-12.17v-9.3z" fill="url(#paint10_linear_418_355)"/>
  <path d="m55.67 104.8h16.74v38.1" stroke="url(#paint11_linear_418_355)" stroke-linecap="round" stroke-linejoin="round" stroke-miterlimit="10" stroke-width="1.7"/>
  <path d="m73.33 92.01 5.12 9.72 0.63 40.77-2.46-0.14-0.49-41.81-2.8-8.54z" fill="url(#paint12_linear_418_355)"/>
  <path d="m85.76 117.4 9.04 4.01v6.62h-9.54l0.5-10.63z" fill="#A54500"/>
  <path d="m118.7 16.41 16.04-1.37 20.94 22.48-3.38 16.32 1.18 0.56-11.39 11.73-1.9-1.11-16.17 15.79 0.96 6.2-3.59 2.03-4.81-4.01-10.15 14.11-15.89 1.69-21.79-22.12 4.12-15.65-0.96-1.89 13.24-14.12-2.8-6.2 14.96-14.89 4.6 3.74 15.75-13.7 1.04 0.41z" fill="#D16C00" stroke="#361164" stroke-linecap="round" stroke-linejoin="round" stroke-miterlimit="10" stroke-width="3.4"/>
  <path d="m122.9 19.04 11.92-1.18 17.98 19.66-2.03 10.74-5.57-6.13-0.42-12.08-11.18-9.72-10.7-1.29z" fill="url(#paint13_linear_418_355)"/>
  <path d="m134.4 36.08 14.54 16.66-8.25 9.17-4.67-4.6 7.87-4.57-1.5-4.13-7.99-9.26v-3.27z" fill="url(#paint14_linear_418_355)"/>
  <path d="m110.1 35.18 3.59 1.86-10.29 13.98 6.63 7.32-6.91 6.89-1.82 0.69 4.06-4.89 3.73-2.48-6.04-7.95 7.05-7.39v-8.03z" fill="url(#paint15_linear_418_355)"/>
  <path d="m137.2 63.55-18.46 15.58-1.32-1.89 18.39-10 1.39-3.69z" fill="url(#paint16_linear_418_355)"/>
  <path d="m106.5 30.33 11.23-11.29 16.31 16.69-13.38 12.88-14.16-18.28z" fill="url(#paint17_linear_418_355)"/>
  <path d="m74.01 67.31-1.92 10.39 19.09 19.86 10.34-1.43-21.86-13.12-5.65-5.31v-10.39z" fill="url(#paint18_linear_418_355)"/>
  <path d="m89.47 78.06 12.99-13.32 14.47 17.99-10.46 10.98-17-15.65z" fill="url(#paint19_linear_418_355)"/>
  <path d="m139.2 74.01 39.68 39.11 1.57-0.81 9.5 9.89v9.52l-9.15 8.47h-8.8l-9.86-9.97 1.25-1.82-37.71-39.88 2.32-2.8 9.38-10.39 1.82-1.32z" fill="#D16C00" stroke="#361164" stroke-linecap="round" stroke-linejoin="round" stroke-miterlimit="10" stroke-width="3.4"/>
  <path d="m128.9 84.22 7.2 7.51 1.14-13.53 1.96-2.03 7.94 8.47 1.17 10.6 7.87 7.32 1.96 13.2 5.25 6.3 2.19-18.05 8.54 8.82-0.96 2.26-8.47 9.65-10.7-10.6-15.92-16.4-10.08-10.66 0.91-2.86z" fill="url(#paint20_linear_418_355)"/>
  <path d="m139.1 77.31-0.99 20.5 16.31 16.69" stroke="#fff" stroke-linecap="round" stroke-linejoin="round" stroke-miterlimit="10" stroke-width="1.13"/>
  <path d="m148.7 86.13-0.28 8.97 6.56 6.98-0.56 11.46" stroke="#fff" stroke-linecap="round" stroke-linejoin="round" stroke-miterlimit="10" stroke-width="1.13"/>
  <path d="m165.5 103.9-1.5 21.02" stroke="#fff" stroke-linecap="round" stroke-linejoin="round" stroke-miterlimit="10" stroke-width="1.13"/>
  <path d="m180.8 114.8 6.91 7.49v7.71l-7.33 7.48h-6.69l-5.56-7.48 2.12-3.34 2.73 1.69 3.38 4.29 6.12 0.14 4.19-4.43-0.79-4.74-5.08-8.81z" fill="url(#paint21_linear_418_355)"/>
  <path d="m139.7 71.31-17.27 16.8" stroke="#361164" stroke-linecap="round" stroke-linejoin="round" stroke-miterlimit="10" stroke-width="3.4"/>
  <path d="m117.8 16.34 35.21 37.08" stroke="#361164" stroke-linecap="round" stroke-linejoin="round" stroke-miterlimit="10" stroke-width="3.4"/>
  <path d="m82.74 41.34 14.68-14.68 3.24 3.25-14.4 15.42-3.52-3.99z" stroke="#361164" stroke-linecap="round" stroke-linejoin="round" stroke-miterlimit="10" stroke-width="3.4"/>
  <path d="m83.71 50.81 19.93-20.2 17.27 18.42 14.4-13.3" stroke="#361164" stroke-linecap="round" stroke-linejoin="round" stroke-miterlimit="10" stroke-width="3.4"/>
  <path d="m72.84 62.26 43.92 37.75" stroke="#361164" stroke-linecap="round" stroke-linejoin="round" stroke-miterlimit="10" stroke-width="3.4"/>
  <path d="m123.9 134.7h-3.86" stroke="#361164" stroke-linecap="round" stroke-linejoin="round" stroke-miterlimit="10" stroke-width="3.4"/>
  <path d="m121.7 142.4h-1.65" stroke="#361164" stroke-linecap="round" stroke-linejoin="round" stroke-miterlimit="10" stroke-width="3.4"/>
  <path d="m66.96 144.2 29.74 0.59 9.91 8.2v32.41h-47.9v-33.3l8.25-7.9z" fill="#D16C00" stroke="#361164" stroke-linecap="round" stroke-linejoin="round" stroke-miterlimit="10" stroke-width="2.57"/>
  <path d="m68.72 146.4 6.19 6.19 29.82-0.28-7.59-5.91h-28.42z" fill="url(#paint22_linear_418_355)"/>
  <path d="m75.84 164.1h21.09v6.99h-21.09v-6.99z" fill="#D16C00" stroke="#361164" stroke-linecap="round" stroke-linejoin="round" stroke-miterlimit="10" stroke-width="2.57"/>
  <path d="m16.13 160.9-1.68 11.87c-1.4-2.73-2.33-6.03-2.68-9.98l-0.14-2.1 4.5 0.21z" fill="url(#paint23_linear_418_355)"/>
  <path d="m48.15 151 15.74-18.12v11.05l-7.58 8.46-0.35 32.95h-7.81v-34.34z" fill="url(#paint24_linear_418_355)"/>
  <path d="m26.72 133.7 12.89-9.46 24.28 0.42-9.86 9.04h-27.31z" fill="url(#paint25_linear_418_355)"/>
  <defs>
    <linearGradient id="paint0_linear_418_355" x1="9" x2="201" y1="9.002" y2="195.5" gradientUnits="userSpaceOnUse">
      <stop stop-color="#00F2FE" offset="0"/>
      <stop stop-color="#B424FE" offset="1"/>
    </linearGradient>
    <linearGradient id="paint1_linear_418_355" x1="11" x2="195.1" y1="12" y2="189.4" gradientUnits="userSpaceOnUse">
      <stop stop-color="#00F2FE" offset="0"/>
      <stop stop-color="#B424FE" offset="1"/>
    </linearGradient>
    <linearGradient id="paint2_linear_418_355" x1="6" x2="198.5" y1="9" y2="192.7" gradientUnits="userSpaceOnUse">
      <stop stop-color="#00F2FE" offset="0"/>
      <stop stop-color="#B424FE" offset="1"/>
    </linearGradient>
    <linearGradient id="paint3_linear_418_355" x1="23.18" x2="33.41" y1="94.69" y2="96.17" gradientUnits="userSpaceOnUse">
      <stop stop-color="#84F5FF" offset="0"/>
      <stop stop-color="#FC89F6" offset="1"/>
    </linearGradient>
    <linearGradient id="paint4_linear_418_355" x1="47.82" x2="58.72" y1="56.51" y2="64.47" gradientUnits="userSpaceOnUse">
      <stop stop-color="#84F5FF" offset="0"/>
      <stop stop-color="#FC89F6" offset="1"/>
    </linearGradient>
    <linearGradient id="paint5_linear_418_355" x1="54.36" x2="67.51" y1="78.71" y2="89.58" gradientUnits="userSpaceOnUse">
      <stop stop-color="#84F5FF" offset="0"/>
      <stop stop-color="#FC89F6" offset="1"/>
    </linearGradient>
    <linearGradient id="paint6_linear_418_355" x1="89.42" x2="98.92" y1="111.7" y2="125.2" gradientUnits="userSpaceOnUse">
      <stop stop-color="#84F5FF" offset="0"/>
      <stop stop-color="#FC89F6" offset="1"/>
    </linearGradient>
    <linearGradient id="paint7_linear_418_355" x1="116.8" x2="127.4" y1="126.7" y2="129.4" gradientUnits="userSpaceOnUse">
      <stop stop-color="#84F5FF" offset="0"/>
      <stop stop-color="#FC89F6" offset="1"/>
    </linearGradient>
    <linearGradient id="paint8_linear_418_355" x1="118.2" x2="119.3" y1="156.5" y2="162.3" gradientUnits="userSpaceOnUse">
      <stop stop-color="#84F5FF" offset="0"/>
      <stop stop-color="#FC89F6" offset="1"/>
    </linearGradient>
    <linearGradient id="paint9_linear_418_355" x1="138" x2="142.5" y1="167.7" y2="168.7" gradientUnits="userSpaceOnUse">
      <stop stop-color="#84F5FF" offset="0"/>
      <stop stop-color="#FC89F6" offset="1"/>
    </linearGradient>
    <linearGradient id="paint10_linear_418_355" x1="59.8" x2="66.87" y1="91.87" y2="100" gradientUnits="userSpaceOnUse">
      <stop stop-color="#84F5FF" offset="0"/>
      <stop stop-color="#FC89F6" offset="1"/>
    </linearGradient>
    <linearGradient id="paint11_linear_418_355" x1="59.8" x2="67.97" y1="104.8" y2="112.8" gradientUnits="userSpaceOnUse">
      <stop stop-color="#84F5FF" offset="0"/>
      <stop stop-color="#FC89F6" offset="1"/>
    </linearGradient>
    <linearGradient id="paint12_linear_418_355" x1="74.23" x2="85.79" y1="91.14" y2="93.72" gradientUnits="userSpaceOnUse">
      <stop stop-color="#84F5FF" offset="0"/>
      <stop stop-color="#FC89F6" offset="1"/>
    </linearGradient>
    <linearGradient id="paint13_linear_418_355" x1="132.2" x2="152.8" y1="16.55" y2="38.92" gradientUnits="userSpaceOnUse">
      <stop stop-color="#A54500" offset="0"/>
      <stop stop-color="#8200CF" offset="1"/>
    </linearGradient>
    <linearGradient id="paint14_linear_418_355" x1="136.6" x2="151.2" y1="35.66" y2="52.91" gradientUnits="userSpaceOnUse">
      <stop stop-color="#A54500" offset="0"/>
      <stop stop-color="#8200CF" offset="1"/>
    </linearGradient>
    <linearGradient id="paint15_linear_418_355" x1="104" x2="117.2" y1="34.87" y2="46.5" gradientUnits="userSpaceOnUse">
      <stop stop-color="#84F5FF" offset="0"/>
      <stop stop-color="#FC89F6" offset="1"/>
    </linearGradient>
    <linearGradient id="paint16_linear_418_355" x1="123.4" x2="134.3" y1="63.06" y2="77.67" gradientUnits="userSpaceOnUse">
      <stop stop-color="#A54500" offset="0"/>
      <stop stop-color="#8200CF" offset="1"/>
    </linearGradient>
    <linearGradient id="paint17_linear_418_355" x1="113.2" x2="123.9" y1="18.14" y2="38.96" gradientUnits="userSpaceOnUse">
      <stop stop-color="#A54500" offset="0"/>
      <stop stop-color="#8200CF" offset="1"/>
    </linearGradient>
    <linearGradient id="paint18_linear_418_355" x1="84.82" x2="93.72" y1="65.87" y2="93.71" gradientUnits="userSpaceOnUse">
      <stop stop-color="#A54500" offset="0"/>
      <stop stop-color="#8200CF" offset="1"/>
    </linearGradient>
    <linearGradient id="paint19_linear_418_355" x1="98.1" x2="109.6" y1="63.06" y2="84.5" gradientUnits="userSpaceOnUse">
      <stop stop-color="#A54500" offset="0"/>
      <stop stop-color="#8200CF" offset="1"/>
    </linearGradient>
    <linearGradient id="paint20_linear_418_355" x1="145.8" x2="165.5" y1="75.26" y2="106" gradientUnits="userSpaceOnUse">
      <stop stop-color="#A54500" offset="0"/>
      <stop stop-color="#8200CF" offset="1"/>
    </linearGradient>
    <linearGradient id="paint21_linear_418_355" x1="175.6" x2="185.4" y1="114.8" y2="133.4" gradientUnits="userSpaceOnUse">
      <stop stop-color="#A54500" offset="0"/>
      <stop stop-color="#8200CF" offset="1"/>
    </linearGradient>
    <linearGradient id="paint22_linear_418_355" x1="83.92" x2="85.26" y1="145.8" y2="153.2" gradientUnits="userSpaceOnUse">
      <stop stop-color="#D9F9FF" offset="0"/>
      <stop stop-color="#FFD1A9" offset="1"/>
    </linearGradient>
    <linearGradient id="paint23_linear_418_355" x1="12.68" x2="17.63" y1="160.4" y2="166.8" gradientUnits="userSpaceOnUse">
      <stop stop-color="#8200CF" offset="0"/>
      <stop stop-color="#A54500" offset="1"/>
    </linearGradient>
    <linearGradient id="paint24_linear_418_355" x1="53.64" x2="53.64" y1="131.3" y2="185.4" gradientUnits="userSpaceOnUse">
      <stop stop-color="#8200CF" offset="0"/>
      <stop stop-color="#A54500" offset="1"/>
    </linearGradient>
    <linearGradient id="paint25_linear_418_355" x1="41.91" x2="45.02" y1="123.6" y2="134.9" gradientUnits="userSpaceOnUse">
      <stop stop-color="#84F5FF" offset="0"/>
      <stop stop-color="#FC89F6" offset="1"/>
    </linearGradient>
  </defs>
</svg>