<svg xmlns="http://www.w3.org/2000/svg" width="200" height="200" fill="none" viewBox="0 0 200 200">
<!-- SVG created with Arrow, by QuiverAI (https://quiver.ai) -->
  <path d="m185.1 63.6-0.37 0.12 0.68-0.59v-30.77l-1.91-0.47c-20.7-4.99-38.82-9.47-59.19-18.58l-0.37-0.18v2.57l-0.81-2.86-23.11-10.35-0.21-0.12-21.63 10.12-0.48 0.24-0.65 2.45-0.88-2.05-0.37 0.18c-20.36 9.11-38.48 13.59-59.17 18.58l-2.65 0.47v28.38l0.68 0.58-0.68 0.09v3.14l1.3-0.43-1.3 0.4 1.12 17.9 1.23 0.97 0.03 0.55-0.15-0.12 0.03 0.41c3.64 28.76 13.39 54.91 41.45 84.06l15.06 11.47 0.15-2.44 26.91 20.14 27.67-20.38v2.11l3.01-2.44c29.24-24.69 47-54.04 52.15-91.71l0.31-1.43-0.21-0.06 1.54-1.27 1.36-18.34-0.54-0.34z" fill="url(#paint0_linear_2801_4491)"/>
  <path d="m183.2 33.93c-21.08-5.1-39.34-9.62-57.63-17.97l2.72 9.35 47.58 12.63 7.33-4.01z" fill="url(#paint1_linear_2801_4491)"/>
  <path d="m15.91 33.58 8.01 4.54 48.81-14.4 1.5-8.33c-18.29 8.36-36.55 13.44-58.32 18.19z" fill="url(#paint2_linear_2801_4491)"/>
  <path d="m15.82 33.76 8.63 4.73v27.22l-8.63-6.14v-25.81z" fill="url(#paint3_linear_2801_4491)"/>
  <path d="m183.5 33.76-7.89 4.73-0.25 27.43 8.14-6.17v-25.99z" fill="url(#paint4_linear_2801_4491)"/>
  <path d="m183.7 66.22-9.35 7.05-0.54 12.45 8.95-6.02 0.94-13.48z" fill="url(#paint5_linear_2801_4491)"/>
  <path d="m16.34 67.28 9.41 6.76 0.57 11.56-9.35-5.81-0.63-12.51z" fill="url(#paint6_linear_2801_4491)"/>
  <path d="m181 87.35-8.33 5.41c-4.64 29.09-15.91 51.82-43.82 75.71l0.06 6.47c27.1-22.91 46.8-49.76 52.09-87.59z" fill="url(#paint7_linear_2801_4491)"/>
  <path d="m19.23 87.32 8.3 5.47c4.64 29.09 15.34 50.12 42.41 74.52v6.35c-26.18-20.85-46.23-48.54-50.71-86.34z" fill="url(#paint8_linear_2801_4491)"/>
  <path d="m75.42 161 24.37 18.64 24.8-19.07 0.12 14.31-24.98 19.5-24.4-19.26 0.09-14.12z" fill="url(#paint9_linear_2801_4491)"/>
  <path d="m24.99 39.16 46.77-14.52 0.88 10.53v16.23l-2.25 1.5-7.21 4.73-4.67 2.47-6.7-1.59-10.7-11.5-12.18-3.77-1.4-2.34-2.54-1.74z" fill="url(#paint10_linear_2801_4491)"/>
  <path d="m127.7 27.1 46.57 12.06v27.54l-4.42 2.12-0.74-18.49-24.64 11.38-7.57-4.6-8.6-5.71-0.6-24.3z" fill="url(#paint11_linear_2801_4491)"/>
  <path d="m15.82 64.97 9.9 7.33v-6.47l-9.9-2.47v1.61z" fill="url(#paint12_linear_2801_4491)"/>
  <path d="m184.7 65.06-9.4 7.75v-7.1l9.99-2.05-0.59 1.4z" fill="url(#paint13_linear_2801_4491)"/>
  <path d="m25.11 38.99 47.32-13.8 1 2.92-45.38 13.06v28.65l-3.03-2.54 0.09-28.29z" fill="url(#paint14_linear_2801_4491)"/>
  <path d="m126.4 26.12 1.12 2.6 46.25 12.69 0.21 26.85 2.1-2.05 0.12-26.99-49.8-13.1z" fill="url(#paint15_linear_2801_4491)"/>
  <path d="m79.32 13.71 19.04-8.8v10.3l0.75-0.4 0.27-10.75 21.74 9.56 6.41 21.73-0.12 16.66 10.85 6.7 0.88-0.6 1.12 1.12-11.03 8.48-10.16-7.39-2.88-12.2-0.88-0.88 0.09-33.23-13.19-6.5-0.6 7.3 7.45 4.42v18.89l2.12 1.79v13.8l17.57 12.45 9.54-7.75 1.12 0.97-10.3 8.73-19.04-13.19v-14.71l-2.12-1.8v-18.33l-5.84-3.71v9.06l1.08 0.85-0.12 29.73 25.56 17.56 41.05-30.45-41.05-11.71-0.92-3.33 43.71 12.54 0.24 7.5-43.18 34.51-1.67-4.13-26.75-17.56-0.95-0.91-0.75 0.91-27.01 18.19-2.33-2.6-41.2-28.82v-6.39l43.29-13 0.82 2.47-40.44 12.82 39.62 30.31 23.56-16.87v-36.97l2.88-1.7v-3.86l-13.19 5.56-0.37 27.81-4.55 2.23v7.99l-9.35 7.01-9.36-7.19 1.4-0.88 8.38-4.84-0.12-16.41 6.23-19.52 2.7-2.57z" fill="url(#paint16_linear_2801_4491)" stroke="url(#paint17_linear_2801_4491)" stroke-miterlimit="10" stroke-width="1.067"/>
  <path d="m49.46 44.21 20.48-6.48v12.18l-6.76 4.9-13.72-10.6z" fill="url(#paint18_linear_2801_4491)" stroke="url(#paint19_linear_2801_4491)" stroke-miterlimit="10" stroke-width=".75"/>
  <path d="m130.1 37.91 19.32 6.56-12.55 10.34-6.77-4.6v-12.3z" fill="url(#paint20_linear_2801_4491)" stroke="url(#paint21_linear_2801_4491)" stroke-miterlimit="10" stroke-width=".75"/>
  <path d="m129.5 80.39 41.46-29.32v17.99l-9.81 8.13-0.6 6.72-8.16 5.72v-6.88l1.56-1.56v-7.45l-13.89 10.17c-0.97 10.56-3.06 19.91-7.51 28.01l4.98 4.3c4.42-6.91 7.21-14.66 8.91-22.11l12.97-7.75c-3.32 19.77-9.16 35.12-15.17 43.98l-7.45-6.23c6.02-8.54 10.26-19.95 11.76-29.1l9.54-6.5c-4.88 24.4-13.04 44.35-36.18 66.59l-5.17 4.3v-14.52c8.25-7.11 16.11-15.65 22.01-24.77l-6.11-6.14c-6.9 12.55-10.91 17.09-17.5 22.93v24.4l-15.47 13.06-14.93-12.2v-18.52c-9.66-8.2-19.32-18.46-23.59-26.44l6.37-4.64c5.3 9.18 9.22 13.96 13.12 17.17l8.51 7.17v26.85l-6.01-4.54v-14.52c-10.5-9.07-21.88-20.66-26.86-49.68l-10.64-7.75v-7.75l1.99-1.59-2.23-2.12-7.57-5.71-1.71-1.65c-1.08 0-2.2-0.7-2.2-2.52 0-1.06 0.82-2.2 1.97-2.2 1.5 0 2.06 1.02 2.03 2.08l0.72 0.72 20.87 15.99c0.85 10.8 2.5 19.28 8.13 29.41l-5.48 4.54c-4.21-6.57-6.34-12.73-7.68-22.35l-14.52-7.75-2.22-2.75-0.38-8.19-8.51-6.89v-17.52l39.09 29.38c0.31 15.47 4.02 32.82 21 47.52l7.21 5.71 0.21 38.6 3.4 2.51 2.65-3.21v-38.08c14.84-11.18 25.54-24.43 27.09-53.05z" fill="url(#paint22_linear_2801_4491)" stroke="url(#paint23_linear_2801_4491)" stroke-miterlimit="10" stroke-width="1.067"/>
  <path d="m40.31 88.51 10.79 6.76c1.98 9.84 5.04 18.54 11.03 28.67l-7.44 6.22c-7.98-12.03-12.4-25.48-14.38-41.65z" fill="url(#paint24_linear_2801_4491)" stroke="url(#paint25_linear_2801_4491)" stroke-miterlimit="10" stroke-width=".75"/>
  <path d="m57.02 132.3 7.21-6.02c5.83 7.69 11.03 13.35 17.93 18.68v12.69c-9.25-7.56-17.57-15.54-25.14-25.35z" fill="url(#paint26_linear_2801_4491)" stroke="url(#paint27_linear_2801_4491)" stroke-miterlimit="10" stroke-width=".75"/>
  <path d="m117.5 145.1c7.32-5.57 13.25-11.62 17.49-17.91l8.01 5.41c-7.95 11.72-14.71 18.5-25.5 26.07v-13.57z" fill="url(#paint28_linear_2801_4491)" stroke="url(#paint29_linear_2801_4491)" stroke-miterlimit="10" stroke-width=".75"/>
  <path d="m76.41 160.8v13.34l23.2 17.68 24.01-17.68v-13.34l-24.15 23.03-23.06-23.03z" stroke="url(#paint30_linear_2801_4491)" stroke-miterlimit="10" stroke-width="1.067"/>
  <path d="m84.11 165.1-0.03 6.09 15.53 13 16.32-13v-5.53l-16.35 12.95-15.47-13.51z" stroke="url(#paint31_linear_2801_4491)" stroke-miterlimit="10" stroke-width=".75"/>
  <path d="m74.52 81.19 25.12-16.04 25.78 15.36c-0.51 16.41-5.46 32.64-25.41 46.1l-0.72 0.6-1.17-0.85c-16.95-12.55-22.76-26.14-23.6-45.17z" fill="url(#paint32_linear_2801_4491)" stroke="url(#paint33_linear_2801_4491)" stroke-miterlimit="10" stroke-width="1.067"/>
  <path d="m105.2 71.78 17.1 10.64c-0.79 10.89-4.15 23.56-13.03 33.28l-4.82 4.24v-10.53c4.76-5.4 9-12.29 10.31-24.26l-9.84-6.23 0.28-7.14z" fill="url(#paint34_linear_2801_4491)" stroke="url(#paint35_linear_2801_4491)" stroke-miterlimit="10" stroke-width=".75"/>
  <path d="m94.71 70.12 4.99-2.98 3.34 2.04v10.36l8.38 5.72c-1.31 8.85-3.5 16.01-7.11 21.75l0.03 11.06-4.7 4.99-5.84-4.99v-9.22c-4.42-4.9-7.74-10.74-9.09-23.28l9.84-6.65 0.16-8.8z" fill="url(#paint36_linear_2801_4491)" stroke="url(#paint37_linear_2801_4491)" stroke-miterlimit="10" stroke-width=".75"/>
  <path d="m79.44 82.31 14.3-9.5v5.58l-9.93 6.87c0.36 4.87 1.52 10.36 3.47 14.34l-3.5 2.86c-2.57-4.9-3.97-10.37-5.27-19.56l0.93-0.59z" fill="url(#paint38_linear_2801_4491)" stroke="url(#paint39_linear_2801_4491)" stroke-miterlimit="10" stroke-width=".75"/>
  <path d="m84.98 104.9 3.33-2.19c1.59 3.01 2.8 5.13 4.87 7.35v7.45c-3.46-3.24-6.14-7.24-8.2-12.61z" fill="url(#paint40_linear_2801_4491)" stroke="url(#paint41_linear_2801_4491)" stroke-miterlimit="10" stroke-width=".75"/>
  <path d="m115.3 94.98 3.98 0.23c-0.96 3.4-1.84 6.41-3.51 9.41l-3.64-2.16c1.59-3.01 2.19-5.13 3.17-7.48z" fill="url(#paint42_linear_2801_4491)" stroke="url(#paint43_linear_2801_4491)" stroke-miterlimit="10" stroke-width=".75"/>
  <path d="m96.79 26.28 2.26-1.82 2.17 1.58-0.15 33.04 26.55 17.93 26.3-18.99 0.36 0.6-26.36 20.69-28.93-18.08-2.2-34.95z" fill="#90FEFE"/>
  <path d="m98.72 37.91 0.72-0.09 0.17 117.9h-1.06l0.17-117.8z" fill="#90FEFE"/>
  <path d="m46.01 58.32 26.51 19.84-0.3 0.55-26.64-19.8 0.43-0.59z" fill="#90FEFE"/>
  <path d="m82.31 129.5c1.35 0 2.05 1.99 0.86 3.16-1.16 1.15-3.41 0.03-2.88-2.01 0.27-0.79 0.92-1.15 2.02-1.15z" stroke="url(#paint44_linear_2801_4491)" stroke-miterlimit="10" stroke-width="1.067"/>
  <path d="m117.7 129.5c1.35 0 2.05 1.99 0.86 3.16-1.16 1.15-3.42 0.03-2.88-2.01 0.27-0.79 0.92-1.15 2.02-1.15z" stroke="url(#paint45_linear_2801_4491)" stroke-miterlimit="10" stroke-width="1.067"/>
  <path d="m164.5 62.95c1.7 0 2.23 2.68 0.65 3.57-1.8 1.02-3.41-1.01-2.53-2.8 0.47-0.71 1.01-0.8 1.88-0.77z" fill="url(#paint46_linear_2801_4491)"/>
  <defs>
    <linearGradient id="paint0_linear_2801_4491" x1="99.77" x2="99.77" y1="2.367" y2="197.5" gradientUnits="userSpaceOnUse">
      <stop stop-color="#074283" offset="0"/>
      <stop stop-color="#11227C" offset="1"/>
    </linearGradient>
    <linearGradient id="paint1_linear_2801_4491" x1="127.1" x2="177.8" y1="19.4" y2="41.16" gradientUnits="userSpaceOnUse">
      <stop stop-color="#39F6FE" offset="0"/>
      <stop stop-color="#4FA1FE" offset="1"/>
    </linearGradient>
    <linearGradient id="paint2_linear_2801_4491" x1="18.17" x2="72.14" y1="18.08" y2="27.99" gradientUnits="userSpaceOnUse">
      <stop stop-color="#39F6FE" offset="0"/>
      <stop stop-color="#4FA1FE" offset=".6302"/>
    </linearGradient>
    <linearGradient id="paint3_linear_2801_4491" x1="20.15" x2="27.26" y1="37.87" y2="65.18" gradientUnits="userSpaceOnUse">
      <stop stop-color="#2056B7" offset="0"/>
      <stop stop-color="#2D8DEF" offset="1"/>
    </linearGradient>
    <linearGradient id="paint4_linear_2801_4491" x1="179.5" x2="176.2" y1="36.43" y2="66.28" gradientUnits="userSpaceOnUse">
      <stop stop-color="#2056B7" offset="0"/>
      <stop stop-color="#2D8DEF" offset="1"/>
    </linearGradient>
    <linearGradient id="paint5_linear_2801_4491" x1="178.7" x2="175.7" y1="67.79" y2="86.89" gradientUnits="userSpaceOnUse">
      <stop stop-color="#2D8DEF" offset="0"/>
      <stop stop-color="#2056B7" offset="1"/>
    </linearGradient>
    <linearGradient id="paint6_linear_2801_4491" x1="21.29" x2="23.8" y1="68.76" y2="86.27" gradientUnits="userSpaceOnUse">
      <stop stop-color="#2D8DEF" offset="0"/>
      <stop stop-color="#2056B7" offset="1"/>
    </linearGradient>
    <linearGradient id="paint7_linear_2801_4491" x1="154.9" x2="127.1" y1="89.11" y2="174.8" gradientUnits="userSpaceOnUse">
      <stop stop-color="#2D8DEF" offset="0"/>
      <stop stop-color="#B02CE5" offset=".5365"/>
      <stop stop-color="#2056B7" offset="1"/>
    </linearGradient>
    <linearGradient id="paint8_linear_2801_4491" x1="43.94" x2="70.22" y1="88.76" y2="173.6" gradientUnits="userSpaceOnUse">
      <stop stop-color="#2D8DEF" offset="0"/>
      <stop stop-color="#B02CE5" offset=".5365"/>
      <stop stop-color="#2056B7" offset="1"/>
    </linearGradient>
    <linearGradient id="paint9_linear_2801_4491" x1="100" x2="100" y1="162.9" y2="194.4" gradientUnits="userSpaceOnUse">
      <stop stop-color="#2D8DEF" offset="0"/>
      <stop stop-color="#2056B7" offset="1"/>
    </linearGradient>
    <linearGradient id="paint10_linear_2801_4491" x1="49.71" x2="49.71" y1="26.09" y2="58.7" gradientUnits="userSpaceOnUse">
      <stop stop-color="#39F6FE" offset="0"/>
      <stop stop-color="#AF28EC" offset=".4896"/>
      <stop stop-color="#9909E3" offset="1"/>
    </linearGradient>
    <linearGradient id="paint11_linear_2801_4491" x1="151.1" x2="151.1" y1="27.99" y2="66.7" gradientUnits="userSpaceOnUse">
      <stop stop-color="#39F6FE" offset="0"/>
      <stop stop-color="#AF28EC" offset=".4896"/>
      <stop stop-color="#9909E3" offset="1"/>
    </linearGradient>
    <linearGradient id="paint12_linear_2801_4491" x1="20.73" x2="20.73" y1="63.51" y2="69.52" gradientUnits="userSpaceOnUse">
      <stop stop-color="#2056B7" offset="0"/>
      <stop stop-color="#2D8DEF" offset="1"/>
    </linearGradient>
    <linearGradient id="paint13_linear_2801_4491" x1="180" x2="180" y1="63.81" y2="69.82" gradientUnits="userSpaceOnUse">
      <stop stop-color="#2056B7" offset="0"/>
      <stop stop-color="#2D8DEF" offset="1"/>
    </linearGradient>
    <linearGradient id="paint14_linear_2801_4491" x1="49.22" x2="49.22" y1="26.3" y2="67.89" gradientUnits="userSpaceOnUse">
      <stop stop-color="#2056B7" offset="0"/>
      <stop stop-color="#2D8DEF" offset="1"/>
    </linearGradient>
    <linearGradient id="paint15_linear_2801_4491" x1="151.3" x2="151.3" y1="27.07" y2="67.43" gradientUnits="userSpaceOnUse">
      <stop stop-color="#2056B7" offset="0"/>
      <stop stop-color="#2D8DEF" offset="1"/>
    </linearGradient>
    <linearGradient id="paint16_linear_2801_4491" x1="99.74" x2="99.74" y1="4.064" y2="79.13" gradientUnits="userSpaceOnUse">
      <stop stop-color="#22C2FE" offset="0"/>
      <stop stop-color="#1D66CE" offset="1"/>
    </linearGradient>
    <linearGradient id="paint17_linear_2801_4491" x1="99.74" x2="99.74" y1="4.064" y2="79.13" gradientUnits="userSpaceOnUse">
      <stop stop-color="#074283" offset="0"/>
      <stop stop-color="#11227C" offset="1"/>
    </linearGradient>
    <linearGradient id="paint18_linear_2801_4491" x1="59.69" x2="59.69" y1="37.73" y2="54.81" gradientUnits="userSpaceOnUse">
      <stop stop-color="#2056B7" offset="0"/>
      <stop stop-color="#2D8DEF" offset="1"/>
    </linearGradient>
    <linearGradient id="paint19_linear_2801_4491" x1="59.69" x2="59.69" y1="37.73" y2="54.81" gradientUnits="userSpaceOnUse">
      <stop stop-color="#074283" offset="0"/>
      <stop stop-color="#11227C" offset="1"/>
    </linearGradient>
    <linearGradient id="paint20_linear_2801_4491" x1="139.8" x2="139.8" y1="37.91" y2="54.81" gradientUnits="userSpaceOnUse">
      <stop stop-color="#2056B7" offset="0"/>
      <stop stop-color="#2D8DEF" offset="1"/>
    </linearGradient>
    <linearGradient id="paint21_linear_2801_4491" x1="139.8" x2="139.8" y1="37.91" y2="54.81" gradientUnits="userSpaceOnUse">
      <stop stop-color="#074283" offset="0"/>
      <stop stop-color="#11227C" offset="1"/>
    </linearGradient>
    <linearGradient id="paint22_linear_2801_4491" x1="99.88" x2="99.88" y1="50.21" y2="174.4" gradientUnits="userSpaceOnUse">
      <stop stop-color="#2056B7" offset="0"/>
      <stop stop-color="#2D8DEF" offset="1"/>
    </linearGradient>
    <linearGradient id="paint23_linear_2801_4491" x1="99.88" x2="99.88" y1="50.21" y2="174.4" gradientUnits="userSpaceOnUse">
      <stop stop-color="#074283" offset="0"/>
      <stop stop-color="#11227C" offset="1"/>
    </linearGradient>
    <linearGradient id="paint24_linear_2801_4491" x1="51.22" x2="51.22" y1="88.51" y2="130.2" gradientUnits="userSpaceOnUse">
      <stop stop-color="#2D8DEF" offset="0"/>
      <stop stop-color="#2056B7" offset="1"/>
    </linearGradient>
    <linearGradient id="paint25_linear_2801_4491" x1="51.22" x2="51.22" y1="88.51" y2="130.2" gradientUnits="userSpaceOnUse">
      <stop stop-color="#074283" offset="0"/>
      <stop stop-color="#11227C" offset="1"/>
    </linearGradient>
    <linearGradient id="paint26_linear_2801_4491" x1="69.99" x2="69.99" y1="126.3" y2="157.6" gradientUnits="userSpaceOnUse">
      <stop stop-color="#2D8DEF" offset="0"/>
      <stop stop-color="#2056B7" offset="1"/>
    </linearGradient>
    <linearGradient id="paint27_linear_2801_4491" x1="69.99" x2="69.99" y1="126.3" y2="157.6" gradientUnits="userSpaceOnUse">
      <stop stop-color="#074283" offset="0"/>
      <stop stop-color="#11227C" offset="1"/>
    </linearGradient>
    <linearGradient id="paint28_linear_2801_4491" x1="129.9" x2="129.9" y1="127.2" y2="158.7" gradientUnits="userSpaceOnUse">
      <stop stop-color="#2D8DEF" offset="0"/>
      <stop stop-color="#2056B7" offset="1"/>
    </linearGradient>
    <linearGradient id="paint29_linear_2801_4491" x1="129.9" x2="129.9" y1="127.2" y2="158.7" gradientUnits="userSpaceOnUse">
      <stop stop-color="#074283" offset="0"/>
      <stop stop-color="#11227C" offset="1"/>
    </linearGradient>
    <linearGradient id="paint30_linear_2801_4491" x1="99.79" x2="99.79" y1="160.8" y2="191.9" gradientUnits="userSpaceOnUse">
      <stop stop-color="#2056B7" offset="0"/>
      <stop stop-color="#2D8DEF" offset="1"/>
    </linearGradient>
    <linearGradient id="paint31_linear_2801_4491" x1="99.97" x2="99.97" y1="165.1" y2="184.2" gradientUnits="userSpaceOnUse">
      <stop stop-color="#074283" offset="0"/>
      <stop stop-color="#11227C" offset="1"/>
    </linearGradient>
    <linearGradient id="paint32_linear_2801_4491" x1="99.97" x2="99.97" y1="65.15" y2="127.2" gradientUnits="userSpaceOnUse">
      <stop stop-color="#22C2FE" offset="0"/>
      <stop stop-color="#90FEFE" offset=".5156"/>
      <stop stop-color="#9909E3" offset="1"/>
    </linearGradient>
    <linearGradient id="paint33_linear_2801_4491" x1="99.97" x2="99.97" y1="65.15" y2="127.2" gradientUnits="userSpaceOnUse">
      <stop stop-color="#074283" offset="0"/>
      <stop stop-color="#11227C" offset="1"/>
    </linearGradient>
    <linearGradient id="paint34_linear_2801_4491" x1="113.6" x2="113.6" y1="71.78" y2="119.9" gradientUnits="userSpaceOnUse">
      <stop stop-color="#2056B7" offset="0"/>
      <stop stop-color="#2D8DEF" offset="1"/>
    </linearGradient>
    <linearGradient id="paint35_linear_2801_4491" x1="113.6" x2="113.6" y1="71.78" y2="119.9" gradientUnits="userSpaceOnUse">
      <stop stop-color="#074283" offset="0"/>
      <stop stop-color="#11227C" offset="1"/>
    </linearGradient>
    <linearGradient id="paint36_linear_2801_4491" x1="98.96" x2="98.96" y1="67.14" y2="123.1" gradientUnits="userSpaceOnUse">
      <stop stop-color="#22C2FE" offset="0"/>
      <stop stop-color="#2D8DEF" offset=".5156"/>
      <stop stop-color="#2056B7" offset="1"/>
    </linearGradient>
    <linearGradient id="paint37_linear_2801_4491" x1="98.96" x2="98.96" y1="67.14" y2="123.1" gradientUnits="userSpaceOnUse">
      <stop stop-color="#074283" offset="0"/>
      <stop stop-color="#11227C" offset="1"/>
    </linearGradient>
    <linearGradient id="paint38_linear_2801_4491" x1="85.86" x2="85.86" y1="72.81" y2="102.5" gradientUnits="userSpaceOnUse">
      <stop stop-color="#2056B7" offset="0"/>
      <stop stop-color="#2D8DEF" offset="1"/>
    </linearGradient>
    <linearGradient id="paint39_linear_2801_4491" x1="85.86" x2="85.86" y1="72.81" y2="102.5" gradientUnits="userSpaceOnUse">
      <stop stop-color="#074283" offset="0"/>
      <stop stop-color="#11227C" offset="1"/>
    </linearGradient>
    <linearGradient id="paint40_linear_2801_4491" x1="89.08" x2="89.08" y1="102.7" y2="117.5" gradientUnits="userSpaceOnUse">
      <stop stop-color="#2056B7" offset="0"/>
      <stop stop-color="#2D8DEF" offset="1"/>
    </linearGradient>
    <linearGradient id="paint41_linear_2801_4491" x1="89.08" x2="89.08" y1="102.7" y2="117.5" gradientUnits="userSpaceOnUse">
      <stop stop-color="#074283" offset="0"/>
      <stop stop-color="#11227C" offset="1"/>
    </linearGradient>
    <linearGradient id="paint42_linear_2801_4491" x1="115.7" x2="115.7" y1="94.98" y2="104.6" gradientUnits="userSpaceOnUse">
      <stop stop-color="#2056B7" offset="0"/>
      <stop stop-color="#2D8DEF" offset="1"/>
    </linearGradient>
    <linearGradient id="paint43_linear_2801_4491" x1="115.7" x2="115.7" y1="94.98" y2="104.6" gradientUnits="userSpaceOnUse">
      <stop stop-color="#074283" offset="0"/>
      <stop stop-color="#11227C" offset="1"/>
    </linearGradient>
    <linearGradient id="paint44_linear_2801_4491" x1="82.31" x2="82.31" y1="128.9" y2="133.4" gradientUnits="userSpaceOnUse">
      <stop stop-color="#074283" offset="0"/>
      <stop stop-color="#11227C" offset="1"/>
    </linearGradient>
    <linearGradient id="paint45_linear_2801_4491" x1="117.7" x2="117.7" y1="128.9" y2="133.4" gradientUnits="userSpaceOnUse">
      <stop stop-color="#074283" offset="0"/>
      <stop stop-color="#11227C" offset="1"/>
    </linearGradient>
    <linearGradient id="paint46_linear_2801_4491" x1="164.1" x2="164.1" y1="62.42" y2="67.01" gradientUnits="userSpaceOnUse">
      <stop stop-color="#074283" offset="0"/>
      <stop stop-color="#11227C" offset="1"/>
    </linearGradient>
  </defs>
</svg>