<svg xmlns="http://www.w3.org/2000/svg" width="20" height="22" fill="none" viewBox="0 0 20 22">
<!-- SVG created with Arrow, by QuiverAI (https://quiver.ai) -->
  <path d="m17.31 5.33h-2.55v-2.4c0-0.12-0.05-0.24-0.13-0.33l-1.58-1.57c-0.09-0.09-0.2-0.13-0.32-0.13h-5.27c-0.12 0-0.24 0.05-0.32 0.13l-1.58 1.58c-0.08 0.08-0.13 0.2-0.13 0.32v2.4h-2.62l-2.1 15.53h18.75l-2.15-15.53z" fill="url(#paint0_linear_1702_33006)"/>
  <mask id="mask0_1702_33006" x="0" y="0" width="20" height="22" style="mask-type:alpha" maskUnits="userSpaceOnUse">
    <path d="m17.31 5.33h-2.55v-2.4c0-0.12-0.05-0.24-0.13-0.33l-1.58-1.57c-0.09-0.09-0.2-0.13-0.32-0.13h-5.27c-0.12 0-0.24 0.05-0.32 0.13l-1.58 1.58c-0.08 0.08-0.13 0.2-0.13 0.32v2.4h-2.62l-2.1 15.53h18.75l-2.15-15.53z" fill="url(#paint0_linear_1702_33006)"/>
  </mask>
  <g mask="url(#mask0_1702_33006)">
    <path d="m16.92 5.86h-0.63l0.81 12.19 1.66 1.8-1.84-13.99z" fill="#920F70"/>
    <path d="m15.99 5.86 0.59 12.22-1.21 1.76-0.58-9.64h-1.82l-0.91-0.88v-3.46h2.17v1.3c-0.38 0.12-0.65 0.5-0.65 0.87 0 0.53 0.43 0.82 0.87 0.82 0.48 0 0.87-0.39 0.87-0.87 0-0.37-0.21-0.67-0.53-0.81v-1.31h1.2z" fill="#920F70"/>
    <path d="m14.9 20.29-0.27-5.28-2.09 2.38h-3.53l-3.39 2.9h9.28z" fill="#920F70"/>
    <path d="m14.5 14.29-0.14-2.43v-1.2h-1.62l-1.19-1.18v-3.62h-1.07v4.85l1.4 1.37h2.59l0.03 2.21z" fill="#920F70"/>
    <path d="m14.51 5.33v-2.32l-1.84-1.52h-1.8l1.14 1.18c0.06 0.07 0.09 0.16 0.09 0.25v2.41h2.41z" fill="url(#paint2_radial_1702_33006)"/>
    <path d="m11.54 3.06-1.46-1.5-1.47 1.47v2.3h2.93v-2.27z" fill="url(#paint3_radial_1702_33006)"/>
    <path d="m8.12 2.67 1.18-1.18h-1.81l-1.47 1.57v2.27h2.06v-2.41c0-0.09 0.03-0.18 0.04-0.25z" fill="url(#paint4_radial_1702_33006)"/>
    <path d="m3.24 5.86-1.84 13.98 1.59-1.83 1-12.15h-0.75z" fill="#920F70"/>
    <path d="m4.58 5.86-1.06 12.26 1.09 1.74 0.86-14h-0.89z" fill="#920F70"/>
    <path d="m1.69 20.29h2.59l-1.09-1.69-1.5 1.69z" fill="#920F70"/>
    <path d="m15.73 20.29h2.65l-1.46-1.73-1.19 1.73z" fill="#920F70"/>
    <path d="m8.61 5.86v1.3c0.35 0.12 0.6 0.45 0.6 0.81 0 0.42-0.26 0.75-0.64 0.85v1.16l-0.83 0.83v1.45l-2.25 2.23-0.37 5.55 3.74-3.17h3.4l2.27-2.62-0.12-2.17h-2.54l-1.41-1.42v-4.8h-1.85z" fill="#BC2589"/>
    <path d="m6.01 5.86-0.39 6.33 2.46-2.43v-0.98c-0.35-0.12-0.59-0.45-0.59-0.84 0-0.38 0.24-0.68 0.59-0.78v-1.3h-2.07z" fill="#BC2589"/>
    <path d="m5.57 13.74 1.67-1.72v-0.71l-1.65 1.7-0.02 0.73z" fill="#BC2589"/>
    <path d="m14.52 7.65c-0.21 0-0.33 0.13-0.33 0.33 0 0.19 0.13 0.32 0.32 0.32 0.2 0 0.32-0.13 0.32-0.33s-0.12-0.32-0.31-0.32z" fill="#920F70"/>
    <path d="m8.36 7.65c-0.2 0-0.31 0.13-0.31 0.29 0 0.19 0.13 0.32 0.3 0.32 0.19 0 0.32-0.13 0.32-0.32 0-0.17-0.14-0.29-0.31-0.29z" fill="#BC2589"/>
  </g>
  <defs>
    <linearGradient id="paint0_linear_1702_33006" x1="1.666" x2="19.12" y1="20.04" y2="2.579" gradientUnits="userSpaceOnUse">
      <stop stop-color="#00D1FE" offset="0"/>
      <stop stop-color="#BF00FE" offset="1"/>
    </linearGradient>
    <radialGradient id="paint2_radial_1702_33006" cx="0" cy="0" r="1" gradientTransform="translate(12.91 3.911) scale(1.879 2.162)" gradientUnits="userSpaceOnUse">
      <stop stop-color="#FEFFFE" offset="0"/>
      <stop stop-color="#FEFFFE" stop-opacity=".35" offset="1"/>
    </radialGradient>
    <radialGradient id="paint3_radial_1702_33006" cx="0" cy="0" r="1" gradientTransform="translate(10.08 3.947) scale(2.143 2.462)" gradientUnits="userSpaceOnUse">
      <stop stop-color="#FEFFFE" offset="0"/>
      <stop stop-color="#FEFFFE" stop-opacity=".35" offset="1"/>
    </radialGradient>
    <radialGradient id="paint4_radial_1702_33006" cx="0" cy="0" r="1" gradientTransform="translate(7.661 3.911) scale(1.84 2.116)" gradientUnits="userSpaceOnUse">
      <stop stop-color="#FEFFFE" offset="0"/>
      <stop stop-color="#FEFFFE" stop-opacity=".35" offset="1"/>
    </radialGradient>
  </defs>
</svg>