<svg xmlns="http://www.w3.org/2000/svg" width="200" height="200" fill="none" viewBox="0 0 200 200">
<!-- SVG created with Arrow, by QuiverAI (https://quiver.ai) -->
  <path d="m196.6 133.1-75.56-72.18-3.72-19.6-15.86-10.03-4.92 1.54-27.49-27.82-14.57 3.71-2.08 2.23-2.64-0.13-8.57 5.69-22.23 22.91-4.33 6.22-5.57 8.29-0.19 1.8-1.38 0.39-3.49 13.05 61.07 61.76 4.24 12.46 8.11 8.27 13.36 4.62 38.23 38.73 17.66-4.07 18.24-11.2 11.47-12.01 2.63-5.54 2.86-0.83 8.11-9.71 7.01-16.71-0.39-1.84z" fill="url(#paint0_linear_114_2232)" stroke="url(#paint0_linear_114_2232)" stroke-miterlimit="10" stroke-width="2"/>
  <path d="m7.61 68.47 3.31-11.74 2.06-0.51 2.19-6.08 6.71-9.4 19.84-20.59 8.19-7.18 4.81 0.37 2.07-3.28 12-2.86 26.77 27.52 5.68-1.23 14.49 9.27 4.3 19.31 73.23 71.32-6.08 17.52-7.87 9.58-2.15 0.74-3.14 6.95-10.86 11.1-16.84 9.88-17.1 3.53-36.98-38.42-14.29-4.64-6.88-7.12-4.39-12.99-59.07-61.05z" fill="#2A182E" stroke="#2A182E" stroke-linecap="round" stroke-linejoin="round" stroke-miterlimit="10" stroke-width="2.1"/>
  <path d="m9.41 58.1 1.37-2.09 29.33 25.51 9.57 1.1 30.37 27.21 6.21-0.13 16.12 19.17 0.95 9.84 18.91 18.88 6.88 0.75 13.16 14.84-1.57-2.12 11.21 0.16 12.75-11.71-24.51-22.6-5.09-0.58-14.19-14.02-0.81-9.7-12.46-13.5-0.34-6.89-12.93-15.1-1.22-13.62-16.52-19.3-12.29-1.44-20.19-24.27 7.16-5.4 2.99-0.01 19.64 19.87 9.93 1.77 15.41 18.09-2.51-17 3.97-1.87 14.18 9.14 4.36 19.11 70.61 74.14-2.2 13.36-8.84 10.34-2.38 0.98-3.55 7.25-11.56 10.46-9.54 4.39 1.53-4.25-19.31 11.58-4.79 0.16-35.84-38.69-15.13-5.09-6.56-6.08-3.41-14.02-58.87-68.62z" fill="url(#paint2_linear_114_2232)" stroke="#2A182E" stroke-linecap="round" stroke-linejoin="round" stroke-miterlimit="10" stroke-width="2.1"/>
  <path d="m16.87 46.59 9.31-8.35 12.53 10.59-10.7-14.43 12.03-8.16 41.98 41.71 2.09 20.28 25 26.67-1.95-11.98-16.11-24.53-3.63-13.63-10.21-10.84 3.76 0.98 11.27 9.73 2.7 11.2 26.03 26.25-0.94-2.72-14.73-25.59v-3.71l21.33 21.83 0.48 11.2 15.2 13.88 9.41 0.52 28.07 25.72 2.42-4.19-30.15-27.91-10.7-2.11-12.14-12.59-1.94-12.23-11.27-13.99-5.95-24.69-1.01 1.09-5.29-7.68-0.55 24.01 9.93 2.99 5.09-3.45 19.58 24.75 14.25 8.81-8.25 2.42-10.93-9.33-3.25-3.97 3.52 8.29 9.8 9.66 11.76 1.77 31.86 31.86 4.59-3.21-68.11-69.01-7.92-21.29-14.8-8.55-4.07 1.37 0.81 14.5-14.45-16.59-8.44-3.25-10.34-17.86 3.52-1.12 26.1 25.5-1.43-5.29-23.86-23.86-11.14 2.99 12.46 16.21-8.57-1.02-6.85 5.61-2.01-13.69-3.52 0.59 6.95 14.26-12.03-12.99-2.01-1.01-16.7 16.6 23.59 18.7 11.47 0.72 19.35 20.03-0.94 0.58-18.14-18.34-26.1 4.96-17.11-15.67z" fill="url(#paint3_linear_114_2232)" stroke="#2A182E" stroke-linecap="round" stroke-linejoin="round" stroke-miterlimit="10" stroke-width="1.05"/>
  <path d="m10.15 58.89 28.69 30.16 10.57 0.98 14.56 12.59-1.77-0.72-13.92-3.59 23.48 20.6 6.19 1.99 3.16 18.01h-7l-3.09-11.87-5.45-8.39 3.06 9.43 2.52 11.88 3.65 0.65 8.37 1.37 6.45 7.92 2.31 1.16 21.9 13.99 7.87 2.05 16.25 15.82-4.43 1.99-4.16 4.84-35.84-37.71-15.3-4.83-5.61-5.4 2.26-2.58 8.3 2.23 6.18 2.48 0.88-11-4.2-9.02 14.06 9.33-0.34-3.84-14.66-17-11.83-0.59 6.75 2.89-28.9-21.7-3.69 4.19 24 21.22 2.63 2.12 3.66 0.58 3.12 17.72-6.37-0.07-3.38-12.31-5.31-4.33-55.62-63.24z" fill="#4A252A" stroke="#2A182E" stroke-linecap="round" stroke-linejoin="round" stroke-miterlimit="10" stroke-width="1.05"/>
  <path d="m123.1 137.1 6.44 0.65 10.27-0.52 24.23 21.43 6.44-6.82-0.27 9.67 6.59-15.46-26.7-20.86-0.27-3.38-9.79 4.46-11.21-10.85-0.94 9.84-4.04 3.81-0.75 8.03z" fill="url(#paint4_linear_114_2232)" stroke="#2A182E" stroke-linecap="round" stroke-linejoin="round" stroke-miterlimit="10" stroke-width="1.05"/>
  <path d="m123.9 145.2 10.27 3.13 19.85 20.29 9.66-10.53-22.3-22.1-4.81-0.91-12.67-10.85-0.61-12.29-15.11-14.11-0.07 0.98 12.94 12.99 0.94 9.83 13.86 13.45-8.85 2.13-3.1 0.39v3.12 4.48z" fill="#673433" stroke="#2A182E" stroke-linecap="round" stroke-linejoin="round" stroke-miterlimit="10" stroke-width="1.05"/>
  <defs>
    <linearGradient id="paint0_linear_114_2232" x1="4" x2="197" y1="10" y2="195" gradientUnits="userSpaceOnUse">
      <stop stop-color="#99FEFF" offset="0"/>
      <stop stop-color="#53A6D6" offset=".25"/>
      <stop stop-color="#3156A3" offset=".51"/>
      <stop stop-color="#383179" offset=".75"/>
      <stop stop-color="#BB72FF" offset="1"/>
    </linearGradient>
    <linearGradient id="paint2_linear_114_2232" x1="9.406" x2="193.3" y1="7.203" y2="192.7" gradientUnits="userSpaceOnUse">
      <stop stop-color="#823931" offset="0"/>
      <stop stop-color="#D37044" offset="1"/>
    </linearGradient>
    <linearGradient id="paint3_linear_114_2232" x1="16.87" x2="191.2" y1="33.94" y2="136.7" gradientUnits="userSpaceOnUse">
      <stop stop-color="#633130" offset="0"/>
      <stop stop-color="#D37044" offset="1"/>
    </linearGradient>
    <linearGradient id="paint4_linear_114_2232" x1="123.1" x2="179.2" y1="115.4" y2="156.2" gradientUnits="userSpaceOnUse">
      <stop stop-color="#D37044" offset="0"/>
      <stop stop-color="#994B3A" offset="1"/>
    </linearGradient>
  </defs>
</svg>