<svg xmlns="http://www.w3.org/2000/svg" width="256" height="246" fill="none" viewBox="0 0 256 246">
<!-- SVG created with Arrow, by QuiverAI (https://quiver.ai) -->
  <path d="m211.8 94.29-39.58-55-1.27 28.42-44.78-64.83-45.19 65.21-1.04-29.19-41.66 55.8-35.41-37.42 9.37 42.89 0.01 0.02-0.38 28.03 0.42-0.2 12.89 70.31c10.79 7.47 46.02 10.78 84.09 12.4l16.47 32.39 17.98-31.82c31.34-1.21 65.53-5.46 82.67-12.58l12.6-66.67-3.57 1.66 18.5-80.7-42.12 41.28z" fill="url(#paint0_linear_1164_22044)"/>
  <path d="m246.8 66.12-36.31 38.89-37-57.19-1.19 30.35-46.42-62.08-47.14 64.03-1.11-26.38-39.52 48.28-28.82-30.5 11.94 61.77-3.89-1.1 12.57 64.12c8.05 5.46 37.52 9.81 80.75 10.81l15.13 25 16.38-25.04c26.64-0.4 64.73-3.39 79.53-11.49l13.49-59.58-3.05 1.08 14.66-70.97z" fill="#FEF189" stroke="url(#paint1_linear_1164_22044)" stroke-miterlimit="10" stroke-width="2.611"/>
  <path d="m11.97 75.13 26.48 29.7 3.28-1.2 3.4 5.13-0.84 7.67-25.58-25.88 6.06 45.97-4.73-0.11 10.38 59.21c11.5 6.77 46.72 9.48 80.68 10.2l14.67 23.04 16.39-23.3c22.87-0.39 65.02-2.84 78.83-10.86l13.33-64.78-4.26 5.94 7.85-51.24-29.55 30.19-0.06-11.73-35.13-49.37-0.99 25.02-46.45-60.01-48.02 62.1-1.38-20.62-37.85 40.08-26.51-25.15z" fill="#300852"/>
  <path d="m125.8 18.49-50.08 69.31v22.09l18.24 21.02v16.02l1.95 1.88 10.15 4.26-0.29-25.04-15.57-29.94 35.34-52.38 27.78 42.47-0.3 13.13-7.79 27.86v23.9l6.72-6.05 1.51-23.01 19.44-15.32v-19.88l-47.1-70.32z" fill="url(#paint2_linear_1164_22044)" stroke="#00004E" stroke-miterlimit="10" stroke-width="1.5"/>
  <path d="m125.7 18.49 48.78 69.31v22.94l-14.47 22.38 7.1 7.7 6.72-1.06 2.28 2.32-8.37 19.07 11.16 1.06 23.87-25.15 2.83-19.71 40.48-42.37-15.4 64.03-22.71 29.43 15.13 6.59-3.4 18.7c-11.16 6.83-43.27 10.14-77.52 10.46l-16.41 24.67-15.4-24.2c-26.81-0.74-62.89-2.59-78.02-10.16l-5.22-18.01 21.88-10.68-26.81-29.77-8.04-53.3 28.29 26.02 0.66-5.68 31-43.27 0.33 23.91 51.26-65.23z" stroke="url(#paint3_linear_1164_22044)" stroke-miterlimit="10" stroke-width="1.5"/>
  <path d="m178 63.98 2.78 3.68 23.21 34.52-7.89 33.95-21.61 25.81 6.61 0.27 19.69-23.87 3.87-21.51 31.4-29.09-6.84 19.97-6.65 38.61-15.13 20.54 15.13 7.25-4.61 16.54c-12.94 7.38-45.89 10.19-75.76 10.29l-16.41 24.67-15.4-24.2c-27.61-0.85-60.76-2.69-76.22-10.27l-2.84-13.28 17.7-13.27-25.38-27.88-7.89-48.67 29.09 29.5 1.87-16.1 23.47-34.3 0.61 43.83 21.07 21.69-1.65 9.95-15.13-0.2 10.84 19.8-4.84 0.92-6.37-0.4-26.4 3.18-22.07-17.75 3.61 24.5 3.33 0.66 15.84-8.01-25.38-28.28 8.2 1.59 13.07-5.4 1.93-32.11 12.31 5 16.39 3.24 1.68-21.31 25.04-37.31 1.65 19.06 21.75-28.98 21.14 28.98 0.33-20.45-21.47-27.18-20.44 28.57v19.98l20.23-28.72 26.87 38.13 0.19-20.11 24.32 29.19 1.16-25.22z" fill="url(#paint4_linear_1164_22044)" stroke="#8A00E8" stroke-miterlimit="10" stroke-width="1.5"/>
  <path d="m47.72 101.4 4.25 31.22 7.89-12.52 2.93-3.19 14.1 23.01 12.02-0.52 2.57-7.57-22.29-21.19 0.99-42.62-15.66 37.2-6.8-3.82z" fill="#F8E982" stroke="#F6D751" stroke-miterlimit="10" stroke-width="1.5"/>
  <path d="m182.1 68.92 1.35 40.17-5.6 4.02-16.45 19.95 7.2 6.9 26.81-5.3 6.96-32.76-20.27-32.98z" fill="#CC9F26" stroke="#B7841A" stroke-miterlimit="10" stroke-width="1.5"/>
  <path d="m11.97 75.93 26.94 29.77 3.81-2.62 2.19 16-29.55-32.09-3.39-11.06z" fill="url(#paint5_linear_1164_22044)"/>
  <path d="m173 45.21 34.86 50.91v8.89l1.51-0.85 1.1-2.85-34.86-53.3-2.61-2.8z" fill="url(#paint6_linear_1164_22044)"/>
  <path d="m125.4 51.06-29.55 46.77 29.22 57.22 30.39-57.48-30.06-46.51z" fill="url(#paint7_linear_1164_22044)" stroke="#B800D1" stroke-miterlimit="10" stroke-width="1.5"/>
  <path d="m110.4 82.74 14.8-12.82 14.4 13.8v13.26l-17.9 24.74-6.06-7.67-5.24-6.56v-24.75z" fill="url(#paint8_linear_1164_22044)"/>
  <path d="m115.5 106.1 11.23-22.2 5.3 2.69 1.38 4.01-16.19 21.65-1.72-6.15z" fill="url(#paint9_linear_1164_22044)"/>
  <path d="m113.1 117.4 10.77 8.77v20.27l-10.77-29.04z" fill="url(#paint10_linear_1164_22044)" stroke="#B800D1" stroke-miterlimit="10" stroke-width="1.044"/>
  <path d="m138.6 117.2-11.43 9.03v15.44l11.43-24.47z" fill="url(#paint11_linear_1164_22044)" stroke="#B800D1" stroke-miterlimit="10" stroke-width="1.044"/>
  <path d="m141.3 95.73 11.69 1.05-10.44 14.03-1.25-15.08z" fill="url(#paint12_linear_1164_22044)" stroke="#B800D1" stroke-miterlimit="10" stroke-width="1.044"/>
  <path d="m141.3 84.92 11.69 11.53-10.44-0.33-1.25-11.2z" fill="url(#paint13_linear_1164_22044)" stroke="#B800D1" stroke-miterlimit="10" stroke-width="1.044"/>
  <path d="m109.2 84.11-10.97 12.93 9.82-0.33 1.15-12.6z" fill="url(#paint14_linear_1164_22044)" stroke="#B800D1" stroke-miterlimit="10" stroke-width="1.044"/>
  <path d="m99.56 100.2 9.6 1.81 0.77 8.32-10.37-10.13z" fill="url(#paint15_linear_1164_22044)" stroke="#B800D1" stroke-miterlimit="10" stroke-width="1.044"/>
  <path d="m110.9 138.2 14.53 22.38v17.07l-14.4-14.47-0.13-24.98z" fill="url(#paint16_linear_1164_22044)" stroke="#2700B8" stroke-miterlimit="10" stroke-width="1.5"/>
  <path d="m141.1 136.1-15.69 24.47v17.07l15.43-14.73 0.26-26.81z" fill="url(#paint17_linear_1164_22044)" stroke="#2700B8" stroke-miterlimit="10" stroke-width="1.5"/>
  <path d="m111.2 167.6 14.6 14.47 15.69-15v29.16l-15.42 26.55-14.87-25.7v-29.48z" fill="url(#paint18_linear_1164_22044)" stroke="#8100C7" stroke-miterlimit="10" stroke-width="1.5"/>
  <path d="m114.9 188.2 2.35-0.92 8.65 14.44" stroke="#8100C7" stroke-miterlimit="10" stroke-width=".75"/>
  <path d="m128.4 198.7 6.65-11.06h4.8" stroke="#8100C7" stroke-miterlimit="10" stroke-width=".75"/>
  <path d="m125.5 223v-40.45" stroke="#38F7D4" stroke-miterlimit="10" stroke-width=".75"/>
  <path d="m144.8 189.2 25.25-42.03-14.5 1.02-10.44 14.05-0.31 26.96z" fill="url(#paint19_linear_1164_22044)" stroke="#8100C7" stroke-miterlimit="10" stroke-width="1.5"/>
  <path d="m107.5 189.2-25.25-43.35 12.65 2.34 12.31 14.57 0.29 26.44z" fill="url(#paint20_linear_1164_22044)" stroke="#8100C7" stroke-miterlimit="10" stroke-width="1.5"/>
  <path d="m156.4 181.6 10.44-16.54c12.94 0 32.01 2.8 50.08 11.31l-2.27 12.35c-12.51-5.07-24.26-7.65-46.59-7.38l-11.66 0.26z" fill="url(#paint21_linear_1164_22044)" stroke="#8100C7" stroke-miterlimit="10" stroke-width="1.5"/>
  <path d="m30.86 177.3c13.69-7.25 29.88-11.14 56.36-12.23l8.18 15.95-9.57 1.06c-14.7-0.53-30.54 1.59-50.67 7.51l-4.3-12.29z" fill="url(#paint22_linear_1164_22044)" stroke="#8100C7" stroke-miterlimit="10" stroke-width="1.5"/>
  <path d="m28.35 149.8 3.36 20.71 9.3-3.69-9.3-13.53-3.36-3.49z" fill="url(#paint23_linear_1164_22044)" stroke="#8100C7" stroke-miterlimit="10" stroke-width="1.5"/>
  <path d="m214.6 176.5-14.16-1.85-4.83 5.07-26.88-3.55-3.93 4.9" stroke="#38F7D4" stroke-miterlimit="10" stroke-width="1.5"/>
  <path d="m214.1 187.3-13.57-9.46" stroke="#38F7D4" stroke-miterlimit="10" stroke-width="1.5"/>
  <path d="m33.97 181.5 14.86-4.84 7.63 5.5 24.16-3.46 6.18 3.46" stroke="#38F7D4" stroke-miterlimit="10" stroke-width="1.5"/>
  <path d="m84.52 173.8c2.11 0 2.34-1.66 2.34-2.25 0-1.38-1.14-2.17-2.21-2.17-1.44 0-2.1 1.25-2.1 2.1 0 1.32 0.99 2.32 1.97 2.32z" fill="#38F7D4"/>
  <path d="m145.2 169.1 9.63-11.79v-8.36" stroke="#38F7D4" stroke-miterlimit="10" stroke-width="1.5"/>
  <path d="m106.6 170.2-11.42-13.17v-7.15" stroke="#38F7D4" stroke-miterlimit="10" stroke-width="1.5"/>
  <path d="m210.8 167.1 14.57-19.98 5.36-39.43-10.98 11.54-7.19 17.81-12.46 15.16v8.7l-3.4 1.29" stroke="#8100C7" stroke-miterlimit="10" stroke-width="1.5"/>
  <path d="m219.6 139.4-17.4 21.35" stroke="#8100C7" stroke-miterlimit="10" stroke-width="1.5"/>
  <path d="m224.6 149-7.33 10.8 3.7 11.2" stroke="#B7841A" stroke-miterlimit="10" stroke-width="1.5"/>
  <path d="m196.7 156.6v-5.5l13.85-15.32 0.79-11.03-4.77-6.99" stroke="#8100C7" stroke-miterlimit="10" stroke-width="1.5"/>
  <path d="m45.36 118.9v7.25l29.55 35.83" stroke="#8A00E8" stroke-miterlimit="10" stroke-width="1.5"/>
  <path d="m37.79 125.4 5.59-5.44" stroke="#8A00E8" stroke-miterlimit="10" stroke-width="1.5"/>
  <path d="m36.08 138 11.03 13.68v7.38" stroke="#8A00E8" stroke-miterlimit="10" stroke-width="1.5"/>
  <path d="m39.01 136.6 14.73 14.87v3.36" stroke="#8A00E8" stroke-miterlimit="10" stroke-width="1.5"/>
  <path d="m84.13 106.1 13.66 17.9v14.61" stroke="url(#paint24_linear_1164_22044)" stroke-miterlimit="10" stroke-width="3"/>
  <path d="m167.9 105.7-13.9 18.98v14.57" stroke="url(#paint25_linear_1164_22044)" stroke-miterlimit="10" stroke-width="3"/>
  <path d="m168 93.06c1.31 0 1.84-1.05 1.84-1.9 0-1.32-1.05-2.1-1.97-2.1-1.16 0-1.88 0.91-1.88 1.83 0 1.19 0.92 2.17 2.01 2.17z" stroke="#15E7F0" stroke-miterlimit="10" stroke-width="1.5"/>
  <path d="m158.4 79.86 7.9 10.16" stroke="#15E7F0" stroke-linecap="round" stroke-miterlimit="10" stroke-width="3"/>
  <path d="m168 107.1c1.51 0 2.04-1.23 2.04-2.09 0-1.29-1.1-2.18-2.11-2.18-1.29 0-2.01 1.09-2.01 1.98 0 1.26 0.99 2.29 2.08 2.29z" fill="#15E7F0"/>
  <path d="m85.89 93.85c1.31 0 1.83-1.24 1.83-2.03 0-1.29-1.09-2.05-1.95-2.05-1.19 0-1.91 0.99-1.91 1.91 0 1.19 0.99 2.17 2.03 2.17z" stroke="#15E7F0" stroke-miterlimit="10" stroke-width="1.5"/>
  <path d="m93.65 79.86-6.89 11.3" stroke="#15E7F0" stroke-linecap="round" stroke-miterlimit="10" stroke-width="3"/>
  <path d="m84.98 106.6c1.5 0 2.03-1.23 2.03-2.05 0-1.29-1.1-2.02-2.03-2.02-1.25 0-1.97 1.08-1.97 1.96 0 1.26 0.92 2.11 1.97 2.11z" fill="#15E7F0"/>
  <path d="m194.8 193.1c-14.73 3.41-24.49 4.53-49.73 4" stroke="#300852" stroke-miterlimit="10" stroke-width="1.5"/>
  <path d="m50.14 192.1c11.89 1.59 16.92 4.67 56.17 6.18" stroke="#8100C7" stroke-miterlimit="10" stroke-width="1.5"/>
  <defs>
    <linearGradient id="paint0_linear_1164_22044" x1="128.4" x2="128.4" y1="2.877" y2="243.1" gradientUnits="userSpaceOnUse">
      <stop stop-color="#01D0F3" offset="0"/>
      <stop stop-color="#5B78F3" offset=".4948"/>
      <stop stop-color="#9900D1" offset="1"/>
    </linearGradient>
    <linearGradient id="paint1_linear_1164_22044" x1="129.4" x2="129.4" y1="16.09" y2="232.1" gradientUnits="userSpaceOnUse">
      <stop stop-color="#01D0F3" offset="0"/>
      <stop stop-color="#5B78F3" offset=".4948"/>
      <stop stop-color="#9900D1" offset="1"/>
    </linearGradient>
    <linearGradient id="paint2_linear_1164_22044" x1="123.3" x2="123.3" y1="17.9" y2="154.5" gradientUnits="userSpaceOnUse">
      <stop stop-color="#01D0F3" offset="0"/>
      <stop stop-color="#2A00A3" offset=".4948"/>
      <stop stop-color="#4A00BF" offset="1"/>
    </linearGradient>
    <linearGradient id="paint3_linear_1164_22044" x1="130" x2="130" y1="17.64" y2="229.7" gradientUnits="userSpaceOnUse">
      <stop stop-color="#01D0F3" offset="0"/>
      <stop stop-color="#5B78F3" offset=".4948"/>
      <stop stop-color="#9900D1" offset="1"/>
    </linearGradient>
    <linearGradient id="paint4_linear_1164_22044" x1="130.2" x2="130.2" y1="21.5" y2="226.7" gradientUnits="userSpaceOnUse">
      <stop stop-color="#FBEA75" offset="0"/>
      <stop stop-color="#D4A41A" offset=".4948"/>
      <stop stop-color="#CF8521" offset="1"/>
    </linearGradient>
    <linearGradient id="paint5_linear_1164_22044" x1="28.44" x2="28.44" y1="75.93" y2="105.7" gradientUnits="userSpaceOnUse">
      <stop stop-color="#01D0F3" offset="0"/>
      <stop stop-color="#5B78F3" offset=".4948"/>
      <stop stop-color="#9900D1" offset="1"/>
    </linearGradient>
    <linearGradient id="paint6_linear_1164_22044" x1="191.8" x2="191.8" y1="45.21" y2="105" gradientUnits="userSpaceOnUse">
      <stop stop-color="#FBEA75" offset="0"/>
      <stop stop-color="#D4A41A" offset=".4948"/>
      <stop stop-color="#CF8521" offset="1"/>
    </linearGradient>
    <linearGradient id="paint7_linear_1164_22044" x1="125.7" x2="125.7" y1="50.33" y2="156.2" gradientUnits="userSpaceOnUse">
      <stop stop-color="#87FFFE" offset="0"/>
      <stop stop-color="#4661F6" offset=".4948"/>
      <stop stop-color="#C600F2" offset="1"/>
    </linearGradient>
    <linearGradient id="paint8_linear_1164_22044" x1="124.5" x2="124.5" y1="69.92" y2="114.1" gradientUnits="userSpaceOnUse">
      <stop stop-color="#2AF3FF" offset="0"/>
      <stop stop-color="#4661F6" offset=".52"/>
      <stop stop-color="#CF45F9" offset="1"/>
    </linearGradient>
    <linearGradient id="paint9_linear_1164_22044" x1="124.4" x2="124.4" y1="83.91" y2="112.3" gradientUnits="userSpaceOnUse">
      <stop stop-color="#D8F6FE" offset="0"/>
      <stop stop-color="#E794FE" offset=".52"/>
      <stop stop-color="#F256FE" offset="1"/>
    </linearGradient>
    <linearGradient id="paint10_linear_1164_22044" x1="118.5" x2="118.5" y1="116.6" y2="147.2" gradientUnits="userSpaceOnUse">
      <stop stop-color="#87FFFE" offset="0"/>
      <stop stop-color="#4661F6" offset=".4948"/>
      <stop stop-color="#C600F2" offset="1"/>
    </linearGradient>
    <linearGradient id="paint11_linear_1164_22044" x1="132.9" x2="132.9" y1="116.4" y2="142.4" gradientUnits="userSpaceOnUse">
      <stop stop-color="#87FFFE" offset="0"/>
      <stop stop-color="#4661F6" offset=".4948"/>
      <stop stop-color="#C600F2" offset="1"/>
    </linearGradient>
    <linearGradient id="paint12_linear_1164_22044" x1="147.1" x2="147.1" y1="95.23" y2="111.3" gradientUnits="userSpaceOnUse">
      <stop stop-color="#87FFFE" offset="0"/>
      <stop stop-color="#4661F6" offset=".4948"/>
      <stop stop-color="#C600F2" offset="1"/>
    </linearGradient>
    <linearGradient id="paint13_linear_1164_22044" x1="147.1" x2="147.1" y1="84.42" y2="96.62" gradientUnits="userSpaceOnUse">
      <stop stop-color="#87FFFE" offset="0"/>
      <stop stop-color="#4661F6" offset=".4948"/>
      <stop stop-color="#C600F2" offset="1"/>
    </linearGradient>
    <linearGradient id="paint14_linear_1164_22044" x1="103.7" x2="103.7" y1="83.34" y2="97.5" gradientUnits="userSpaceOnUse">
      <stop stop-color="#87FFFE" offset="0"/>
      <stop stop-color="#4661F6" offset=".4948"/>
      <stop stop-color="#C600F2" offset="1"/>
    </linearGradient>
    <linearGradient id="paint15_linear_1164_22044" x1="104.7" x2="104.7" y1="99.44" y2="111.1" gradientUnits="userSpaceOnUse">
      <stop stop-color="#87FFFE" offset="0"/>
      <stop stop-color="#4661F6" offset=".4948"/>
      <stop stop-color="#C600F2" offset="1"/>
    </linearGradient>
    <linearGradient id="paint16_linear_1164_22044" x1="118.2" x2="118.2" y1="136.6" y2="178.3" gradientUnits="userSpaceOnUse">
      <stop stop-color="#87FFFE" offset="0"/>
      <stop stop-color="#4661F6" offset=".4948"/>
      <stop stop-color="#2AF3FF" offset="1"/>
    </linearGradient>
    <linearGradient id="paint17_linear_1164_22044" x1="133.3" x2="133.3" y1="134.4" y2="178.3" gradientUnits="userSpaceOnUse">
      <stop stop-color="#87FFFE" offset="0"/>
      <stop stop-color="#4661F6" offset=".4948"/>
      <stop stop-color="#2AF3FF" offset="1"/>
    </linearGradient>
    <linearGradient id="paint18_linear_1164_22044" x1="126.3" x2="126.3" y1="166.1" y2="224.4" gradientUnits="userSpaceOnUse">
      <stop stop-color="#FBEA75" offset="0"/>
      <stop stop-color="#D4A41A" offset=".4948"/>
      <stop stop-color="#CF8521" offset="1"/>
    </linearGradient>
    <linearGradient id="paint19_linear_1164_22044" x1="157.9" x2="157.9" y1="146.4" y2="189.9" gradientUnits="userSpaceOnUse">
      <stop stop-color="#FBEA75" offset="0"/>
      <stop stop-color="#D4A41A" offset=".4948"/>
      <stop stop-color="#CF8521" offset="1"/>
    </linearGradient>
    <linearGradient id="paint20_linear_1164_22044" x1="94.85" x2="94.85" y1="145.1" y2="189.9" gradientUnits="userSpaceOnUse">
      <stop stop-color="#FBEA75" offset="0"/>
      <stop stop-color="#D4A41A" offset=".4948"/>
      <stop stop-color="#CF8521" offset="1"/>
    </linearGradient>
    <linearGradient id="paint21_linear_1164_22044" x1="186.6" x2="186.6" y1="164.3" y2="189.5" gradientUnits="userSpaceOnUse">
      <stop stop-color="#FBEA75" offset="0"/>
      <stop stop-color="#D4A41A" offset=".4948"/>
      <stop stop-color="#CF8521" offset="1"/>
    </linearGradient>
    <linearGradient id="paint22_linear_1164_22044" x1="63.13" x2="63.13" y1="164.4" y2="190.4" gradientUnits="userSpaceOnUse">
      <stop stop-color="#FBEA75" offset="0"/>
      <stop stop-color="#D4A41A" offset=".4948"/>
      <stop stop-color="#CF8521" offset="1"/>
    </linearGradient>
    <linearGradient id="paint23_linear_1164_22044" x1="34.68" x2="34.68" y1="149.1" y2="171.3" gradientUnits="userSpaceOnUse">
      <stop stop-color="#FBEA75" offset="0"/>
      <stop stop-color="#D4A41A" offset=".4948"/>
      <stop stop-color="#CF8521" offset="1"/>
    </linearGradient>
    <linearGradient id="paint24_linear_1164_22044" x1="91.57" x2="91.57" y1="103.8" y2="138.6" gradientUnits="userSpaceOnUse">
      <stop stop-color="#01D0F3" offset="0"/>
      <stop stop-color="#2A00A3" offset=".4948"/>
      <stop stop-color="#4A00BF" offset="1"/>
    </linearGradient>
    <linearGradient id="paint25_linear_1164_22044" x1="160.9" x2="160.9" y1="103.3" y2="139.2" gradientUnits="userSpaceOnUse">
      <stop stop-color="#01D0F3" offset="0"/>
      <stop stop-color="#2A00A3" offset=".4948"/>
      <stop stop-color="#4A00BF" offset="1"/>
    </linearGradient>
  </defs>
</svg>