<svg xmlns="http://www.w3.org/2000/svg" width="200" height="200" fill="none" viewBox="0 0 200 200">
<!-- SVG created with Arrow, by QuiverAI (https://quiver.ai) -->
  <path d="m165.7 88.79-10.41-2.62-0.06-6.45-13.25-9.65-2.42-0.25-2.13-9.02-0.85-2.58-1.91-0.76-9.69 3.28-2.76-5.39-5.39-3.14 18.33-34.12c1.08-1.75 0.62-3.65-0.71-5.38l-6.54-8.44c-1.18-1.55-2.92-2.15-5.18-2.01l-76.93 7.43c-1.77 0.13-3.47 0.84-4.87 2.03l-4.87 4.12c-0.98 0.83-1.78 1.87-2.31 3.06l-28.34 51.89c-0.72 1.29-1.1 2.75-1.11 4.23l-0.07 4.9c-0.03 0.93 0.26 1.84 0.83 2.58l5.89 7.84v71.95c0 1.03 0.33 2.02 0.95 2.85l5.96 7.82c0.64 0.85 1.56 1.46 2.62 1.75l54.8 16.73 20.4 0.08 11.47-4.04-0.15 6.8 16.6-0.61 1.15-6.27 7.45 3.68 7.49-4.84 0.37 8.97 21.37-0.2 1.37-3.34 4.3-5.38v-94.45c0-1.48-0.32-2.65-1.4-3.05z" fill="#B7871E" stroke="#75520B" stroke-linecap="round" stroke-linejoin="round" stroke-width="1.2"/>
  <path d="m165.3 90.48-79.83 18.25-72.77-18.42 40.74-60.09 57.07 19.47 22.59-32.44c1.22-1.74 0.81-3.54-0.56-5.29l-5.74-7.25c-1.18-1.55-2.53-1.92-4.44-1.79l-76.22 7.29c-1.49 0.12-2.91 0.72-4.07 1.79l-4.64 4.12c-1.04 0.93-1.88 2.11-2.47 3.43l-28.33 51.88c-0.67 1.2-1.03 2.58-1.05 4l-0.07 4.32c-0.02 0.81 0.24 1.61 0.74 2.25l6.32 8.42-0.07 71.34c0 0.85 0.28 1.67 0.8 2.34l5.96 7.81c0.55 0.73 1.33 1.27 2.23 1.56l54.58 16.92 19.62 0.03 69.55-25.66 0.78-72.84c0.05-0.71-0.19-1.23-0.72-1.44z" stroke="#75520B" stroke-linecap="round" stroke-linejoin="round" stroke-width="1.2"/>
  <path d="m12.56 89.3 35.53-56.83c1.59-2.73 3.89-4.16 6.89-4.4l74.73-9.55-19.65 32.55" stroke="#F9D941" stroke-linecap="round" stroke-linejoin="round" stroke-width="2"/>
  <path d="m12.61 77.73 6.82-13.88-2.3-6.82 7.51-11.49h7.07l7.23-12.45-4.02-9.49" stroke="#F9D941" stroke-linecap="round" stroke-linejoin="round" stroke-width="1.2"/>
  <path d="m6.72 71.56 4.26 6.17h1.97" stroke="#75520B" stroke-linecap="round" stroke-linejoin="round" stroke-width=".7"/>
  <path d="m36.97 16.9 8.95 11.83" stroke="#F9D941" stroke-linecap="round" stroke-linejoin="round" stroke-width="1.2"/>
  <path d="m44.21 12.09 9.48 11.15 2.95-0.21 72.57-8.41" stroke="#F9D941" stroke-linecap="round" stroke-linejoin="round" stroke-width="1.2"/>
  <path d="m50.18 12 6.23 6.95 12.15-0.53 2.75-4.71 36.31-3.65 6.01 3.65 13.49-1.71-4.99-6.95" stroke="#F9D941" stroke-linecap="round" stroke-linejoin="round" stroke-width="1.2"/>
  <path d="m28.24 89.27 57.22 13.54 78.23-13.63" stroke="#F9D941" stroke-linecap="round" stroke-linejoin="round" stroke-width="2"/>
  <path d="m16.61 92.91v62.3l9.67 11.06 41.85 12.04 8.82-8.36v-60.89" stroke="#F9D941" stroke-linecap="round" stroke-linejoin="round" stroke-width="1.2"/>
  <path d="m85.46 109.8v71.08l-9.41 9.37" stroke="#F9D941" stroke-linecap="round" stroke-linejoin="round" stroke-width="2"/>
  <path d="m86.82 180.5 8.65 9.37" stroke="#F9D941" stroke-linecap="round" stroke-linejoin="round" stroke-width="2"/>
  <path d="m95.71 109.1v60.58l7.71 7.71 61.21-18.41v-38.9" stroke="#F9D941" stroke-linecap="round" stroke-linejoin="round" stroke-width="1.2"/>
  <path d="m19.91 93.55v23.46l6.23 1.3 8.78-10.49v-10.13" stroke="#F9D941" stroke-linecap="round" stroke-linejoin="round" stroke-width="1.2"/>
  <path d="m39.93 97.69v9.08" stroke="#F9D941" stroke-linecap="round" stroke-linejoin="round" stroke-width="1.2"/>
  <path d="m40.87 111.1c1.32 0 1.86-1.29 1.56-2.5-0.24-0.99-1.56-1.81-2.5-1.03-1.15 0.97-1.02 3.53 0.94 3.53z" stroke="#F9D941" stroke-linecap="round" stroke-linejoin="round" stroke-width="1.2"/>
  <path d="m51.81 103.1v6.95" stroke="#F9D941" stroke-linecap="round" stroke-linejoin="round" stroke-width="1.2"/>
  <path d="m51.37 113.1c1.39 0.42 2.04-1.05 1.34-2.49-0.54-1.13-2.02-1.07-2.35 0.14s0.18 2.07 1.01 2.35z" stroke="#F9D941" stroke-linecap="round" stroke-linejoin="round" stroke-width="1.2"/>
  <path d="m56.22 103.2v9.55l8.95 14.76 10.14 2.24" stroke="#F9D941" stroke-linecap="round" stroke-linejoin="round" stroke-width="1.2"/>
  <path d="m20.61 121.7 6.92 1.05 10.06 15.23v29.41" stroke="#F9D941" stroke-linecap="round" stroke-linejoin="round" stroke-width="1.2"/>
  <path d="m27.79 136.1c-0.47-1.33 0.62-2.38 1.83-1.81 1.08 0.53 0.91 2.83-0.4 3.03-0.81 0.13-1.23-0.6-1.43-1.22z" stroke="#F9D941" stroke-linecap="round" stroke-linejoin="round" stroke-width="1.2"/>
  <path d="m36.78 149-7.7-11.46" stroke="#F9D941" stroke-linecap="round" stroke-linejoin="round" stroke-width="1.2"/>
  <path d="m46.91 150.7 17.21-17.95 11.19 3.4" stroke="#F9D941" stroke-linecap="round" stroke-linejoin="round" stroke-width="1.2"/>
  <path d="m64.31 142.7c1.65 0 1.83-2.77 0.31-3.24-1.71-0.56-2.74 1.44-1.8 2.63 0.4 0.5 0.87 0.61 1.49 0.61z" stroke="#F9D941" stroke-linecap="round" stroke-linejoin="round" stroke-width="1.2"/>
  <path d="m52.21 153.7 11.01-11.05" stroke="#F9D941" stroke-linecap="round" stroke-linejoin="round" stroke-width="1.2"/>
  <path d="m51.81 153.4v18.08" stroke="#F9D941" stroke-linecap="round" stroke-linejoin="round" stroke-width="1.2"/>
  <path d="m41.48 168.2v-17.89l-11.05-29.22 6.2-7.19 17.44 4.22 6.23 11.2-15.08 16.6-0.11 23.38" stroke="#F9D941" stroke-linecap="round" stroke-linejoin="round" stroke-width="1.2"/>
  <path d="m95.98 134.1 7.98-2.93 8.95-13.51 11.12-2 11.76 3.09 9.8 2.47 3.82-5.08 5.91 1.52 9.91 2.43" stroke="#F9D941" stroke-linecap="round" stroke-linejoin="round" stroke-width="1.2"/>
  <path d="m96.62 138.9 11-2.71 13.19 17.73v16.56" stroke="#F9D941" stroke-linecap="round" stroke-linejoin="round" stroke-width="1.2"/>
  <path d="m101 148.4c1.84 0 1.92-3.31-0.41-3.15-2.1 0.14-1.83 3.15 0.41 3.15z" stroke="#F9D941" stroke-linecap="round" stroke-linejoin="round" stroke-width="1.2"/>
  <path d="m107.2 145.2 8.03 8.78" stroke="#F9D941" stroke-linecap="round" stroke-linejoin="round" stroke-width="1.2"/>
  <path d="m114.6 163v10.63" stroke="#F9D941" stroke-linecap="round" stroke-linejoin="round" stroke-width="1.2"/>
  <path d="m114.5 162.3c1.83 0 2.29-2.98 0.13-3.56-1.84-0.52-3.13 1.83-1.7 2.99 0.53 0.44 0.95 0.57 1.57 0.57z" stroke="#F9D941" stroke-linecap="round" stroke-linejoin="round" stroke-width="1.2"/>
  <path d="m111.8 117.1c1.96 0 1.96-3.55-0.27-3.55-1.96 0-2.16 3.55 0.27 3.55z" stroke="#F9D941" stroke-linecap="round" stroke-linejoin="round" stroke-width="1.2"/>
  <path d="m130.5 153.7 5.7-9.3 4.47 3.31-0.2 8.55-3.38-1.16" stroke="#F9D941" stroke-linecap="round" stroke-linejoin="round" stroke-width="1.2"/>
  <path d="m131.1 153.2v14.83" stroke="#F9D941" stroke-linecap="round" stroke-linejoin="round" stroke-width="1.2"/>
  <path d="m127.8 152.3 10-16.05 8.24-4.77 7.84 3.55v4.94l-6.23-3.24-4.23 3.24-3.31 7.09" stroke="#F9D941" stroke-linecap="round" stroke-linejoin="round" stroke-width="1.2"/>
  <path d="m26.28 173.9 3.34-2.82 35.55 10.63 3.66 5.62" stroke="#75520B" stroke-linecap="round" stroke-linejoin="round" stroke-width=".7"/>
  <path d="m107.8 183.2-2.91 3.21" stroke="#75520B" stroke-linecap="round" stroke-linejoin="round" stroke-width=".7"/>
  <path d="m29.42 70.92 24.05-4.8-0.31-2.67 1.45-1.22 13.05 1.9 3.59-11.09 16.46-2.37 2.5 2.24 17.1-3.15 2.14-0.75 0.88-1.93-0.81-1.87 0.54-2.38 0.44-2.89 1.66-2.89 1.56-2.82 0.51-1.9-0.51-2.31 2.17-2.1 0.78-2.31 0.37-2.51-9.73-0.88-78.4 48.02" fill="#000" opacity=".3"/>
  <path d="m108.1 23.6-17.91 29.71 1.65 1.6 7.85-5.22 9.08-0.07 1.84-2.89-1.52-2.54 1.12-3.09 2.54-3.65 1.29-3.42 0.37-2.17-1.22-2.25 1.97-2.2 1.29-2.48-0.44-1.9-7.91 0.57z" fill="#000" opacity=".3"/>
  <path d="m107.4 50.6 11.6 3.31 4.54 8.32-14.2 10.92-13.91-15.3 6.86-6.11 5.11-1.14z" fill="#96E0F6" stroke="#17614A" stroke-linecap="round" stroke-linejoin="round" stroke-width=".7"/>
  <path d="m100.5 55.41 3.48-0.2 3.35-0.3 3.73 0.5 5.19 0.47 1.9 7.16-8.81 9.64-8.84-17.27z" fill="#69B8D9" stroke="#17614A" stroke-linecap="round" stroke-linejoin="round" stroke-width=".7"/>
  <path d="m104 55.21 2.65 6.62 1.21-1.77 2.98-4.31" stroke="#17614A" stroke-linecap="round" stroke-linejoin="round" stroke-width=".7"/>
  <path d="m116.2 55.88-3.18 5.95 5.08 1.21" stroke="#17614A" stroke-linecap="round" stroke-linejoin="round" stroke-width=".7"/>
  <path d="m106.6 61.83 1.68 10.21" stroke="#17614A" stroke-linecap="round" stroke-linejoin="round" stroke-width=".7"/>
  <path d="m126.9 61.42 8.21-2.38 2.5 9.71-5.39 11.17-13.12-7.1 7.8-11.4z" fill="#36C659" stroke="#006837" stroke-linecap="round" stroke-linejoin="round" stroke-width="1.2"/>
  <path d="m130.9 61.83 2.26 6.39-3.64 7.68" stroke="#006837" stroke-linecap="round" stroke-linejoin="round" stroke-width=".7"/>
  <path d="m54.1 64.06 9.12 1.05 8.88 8.72-4.24 4.9-13.76-1.68v-12.99z" fill="#36C659" stroke="#006837" stroke-linecap="round" stroke-linejoin="round" stroke-width="1.2"/>
  <path d="m57.12 66.92 2.61 4.44-2.61 4.87" stroke="#006837" stroke-linecap="round" stroke-linejoin="round" stroke-width=".7"/>
  <path d="m70.27 56.02 15.47-4.01 6.59 4.69-7.03 15.98-17.98-8.49 2.95-8.17z" fill="#B56CE0" stroke="#4B2770" stroke-linecap="round" stroke-linejoin="round" stroke-width=".7"/>
  <path d="m72.17 56.02 2.79 3.84 12.07-2.14-1.29-5.71" stroke="#4B2770" stroke-linecap="round" stroke-linejoin="round" stroke-width=".7"/>
  <path d="m74.96 59.86-3.95 5.85" stroke="#4B2770" stroke-linecap="round" stroke-linejoin="round" stroke-width=".7"/>
  <path d="m87.03 57.72 3.11 0.06" stroke="#4B2770" stroke-linecap="round" stroke-linejoin="round" stroke-width=".7"/>
  <path d="m89.91 63.79 8.6 2.33 0.81 7.03-13.82 1.49 4.41-10.85z" fill="#3578C6" stroke="#1B458E" stroke-linecap="round" stroke-linejoin="round" stroke-width=".7"/>
  <path d="m91.59 64.91 3.35 3.31 2.26 0.6" stroke="#1B458E" stroke-linecap="round" stroke-linejoin="round" stroke-width=".7"/>
  <path d="m94.94 68.22-0.61 4.73" stroke="#1B458E" stroke-linecap="round" stroke-linejoin="round" stroke-width=".7"/>
  <path d="m140.6 70.44 13.24 9.48v8.02l-4.96 2.4-12.81-5.58-0.94-8.12 5.47-6.2z" fill="#EA3955" stroke="#9E1239" stroke-linecap="round" stroke-linejoin="round" stroke-width="1.2"/>
  <path d="m138.2 77.05 10.51 6.96" stroke="#9E1239" stroke-linecap="round" stroke-linejoin="round" stroke-width=".7"/>
  <path d="m149.6 86.93 3.75 0.88" stroke="#9E1239" stroke-linecap="round" stroke-linejoin="round" stroke-width=".7"/>
  <path d="m116.9 72.82 11.16 5.98 7.3 7.52 0.14 6.35-23.64 5.29-2.7-23.73 7.74-1.41z" fill="#96E0F6" stroke="#317691" stroke-linecap="round" stroke-linejoin="round" stroke-width=".7"/>
  <path d="m113.2 73.63 6.71 12.49 9.32-2.92" stroke="#317691" stroke-linecap="round" stroke-linejoin="round" stroke-width=".7"/>
  <path d="m119.9 86.12 8.54 4.22" stroke="#317691" stroke-linecap="round" stroke-linejoin="round" stroke-width=".7"/>
  <path d="m112.2 80.05 7.73 6.07" stroke="#317691" stroke-linecap="round" stroke-linejoin="round" stroke-width=".7"/>
  <path d="m111.2 97.36 1.97-23.73" stroke="#317691" stroke-linecap="round" stroke-linejoin="round" stroke-width=".7"/>
  <path d="m140.3 31.05 2.09 7.48-6.03 10.42-5.97 2.18-3.44-7.82 4.5-9.68 8.04-2.98 0.81 0.4z" fill="#0D67D8" stroke="#003682" stroke-linecap="round" stroke-linejoin="round" stroke-width=".7"/>
  <path d="m132.7 35.03 5.22-1 1.96 4.9-5.27 7.58-4.6 1.22-0.84-4.42 3.53-8.28z" fill="#175FCA" stroke="#003682" stroke-linecap="round" stroke-linejoin="round" stroke-width=".7"/>
  <path d="m153 48.47 8.04 1.62-1.29 6.81-9.99 8.01-7.39-2.07 1.29-6.82 9.34-7.55z" fill="#36C659" stroke="#006837" stroke-linecap="round" stroke-linejoin="round" stroke-width="1.2"/>
  <path d="m153.3 50.6 5.46 1.01-2.82 5.42-9.54 3.78-1.68-2.55 8.58-7.66z" fill="#19AD5A" stroke="#006837" stroke-linecap="round" stroke-linejoin="round" stroke-width=".7"/>
  <path d="m90.11 75.04 17.71-2.36 0.67 13.24-3.05 2.89-20.21-2.89 0.41-5.26 4.47-5.62z" fill="#EA3955" stroke="#9E1239" stroke-linecap="round" stroke-linejoin="round" stroke-width="1.2"/>
  <path d="m94.84 74.91 10.6-0.81-4.62 4.63-12.1 3.13" stroke="#9E1239" stroke-linecap="round" stroke-linejoin="round" stroke-width=".7"/>
  <path d="m71.86 76.64 10.88-4.7 4.15 4.7-3.14 8.28-6.6 1.87-6.03-2.98 0.74-7.17z" fill="#3578C6" stroke="#1B458E" stroke-linecap="round" stroke-linejoin="round" stroke-width=".7"/>
  <path d="m73.51 77.73 6.76-1.09 3.89-1.73" stroke="#1B458E" stroke-linecap="round" stroke-linejoin="round" stroke-width=".7"/>
  <path d="m80.27 76.64 1.86 7.17" stroke="#1B458E" stroke-linecap="round" stroke-linejoin="round" stroke-width=".7"/>
  <path d="m50.25 72.62-7.07 0.33-9.13 5.85-4.43 4.4-0.71 4.81 13.72 5.91 10.8-13.33-0.27-5.75-2.91-2.22z" fill="#3578C6" stroke="#1B458E" stroke-linecap="round" stroke-linejoin="round" stroke-width=".7"/>
  <path d="m31.24 82.4 5.39 1 4.18-2.41 6.37-2.19 3.28-4.84" stroke="#1B458E" stroke-linecap="round" stroke-linejoin="round" stroke-width=".7"/>
  <path d="m36.63 83.4 2.1 4.61" stroke="#1B458E" stroke-linecap="round" stroke-linejoin="round" stroke-width=".7"/>
  <path d="m45.22 73.96 1.49 5.58" stroke="#1B458E" stroke-linecap="round" stroke-linejoin="round" stroke-width=".7"/>
  <path d="m50.46 82.94 14.91-6.3 7.27 5.16-5.56 16.97-17.91-8.62 1.29-7.21z" fill="#EA3955" stroke="#9E1239" stroke-linecap="round" stroke-linejoin="round" stroke-width="1.2"/>
  <path d="m52.62 83.81 11.5-3.76 4.79 3.29-18.05 6.8" stroke="#9E1239" stroke-linecap="round" stroke-linejoin="round" stroke-width=".7"/>
  <path d="m76.95 85.05 2.06 0.2 12.07 12.37-0.5 5.8-12.66-1.01-9.69-6.04 0.33-3.26 8.39-8.06z" fill="#36C659" stroke="#006837" stroke-linecap="round" stroke-linejoin="round" stroke-width="1.2"/>
  <path d="m78.81 86.73 9.91 12.72-3.42 3.36" stroke="#006837" stroke-linecap="round" stroke-linejoin="round" stroke-width=".7"/>
  <path d="m71.01 94.12 4.6 4.97" stroke="#006837" stroke-linecap="round" stroke-linejoin="round" stroke-width=".7"/>
  <path d="m88.72 88.54 14.09-2.01 7.25 4.09-9.24 10.72-10.71-1.68-2.88-9.71 1.49-1.41z" fill="#B56CE0" stroke="#4B2770" stroke-linecap="round" stroke-linejoin="round" stroke-width=".7"/>
  <path d="m89.33 89.41 12.94-0.6 5.04 2.28" stroke="#4B2770" stroke-linecap="round" stroke-linejoin="round" stroke-width=".7"/>
  <path d="m102.3 88.81-7.94 10.09" stroke="#4B2770" stroke-linecap="round" stroke-linejoin="round" stroke-width=".7"/>
  <path d="m144.2 88.01 10.81 10.42-9.6 12.17-11.69-10.56 10.48-12.03z" fill="#0D67D8" stroke="#003682" stroke-linecap="round" stroke-linejoin="round" stroke-width=".7"/>
  <path d="m137.8 99.1 6.99-5.45 7.17 4.31" stroke="#003682" stroke-linecap="round" stroke-linejoin="round" stroke-width=".7"/>
  <path d="m155 19.62 3.09 13.11-9.87 6.2-2.21-12.17 8.99-7.14z" fill="#B56CE0" stroke="#F7FC8B" stroke-linecap="round" stroke-linejoin="round" stroke-width="1.2"/>
  <path d="m150.7 30.08-3.66-3.52" stroke="#F7FC8B" stroke-linecap="round" stroke-linejoin="round" stroke-width=".7"/>
  <path d="m155 19.62-4.33 10.46 6.79 2.25" stroke="#F7FC8B" stroke-linecap="round" stroke-linejoin="round" stroke-width=".7"/>
  <path d="m154.7 108.8 11.87 10.85-6.57 15.3-10.6-11.84 5.3-14.31z" fill="#36C659" stroke="#006837" stroke-linecap="round" stroke-linejoin="round" stroke-width="1.2"/>
  <path d="m151.7 122.4 5.97-1.71 4.43-1.75" stroke="#006837" stroke-linecap="round" stroke-linejoin="round" stroke-width=".7"/>
  <path d="m115.8 123.8 12.2-2.25 10.95 4.63-12.39 22.51-14.42-15.1 3.66-9.79z" fill="#96E0F6" stroke="#17614A" stroke-linecap="round" stroke-linejoin="round" stroke-width=".7"/>
  <path d="m120.2 124.4 0.62 8.62-7.49 0.6" stroke="#17614A" stroke-linecap="round" stroke-linejoin="round" stroke-width=".7"/>
  <path d="m120.8 133 5.23 12.08 7.8-17.42 1.82-2.89" stroke="#17614A" stroke-linecap="round" stroke-linejoin="round" stroke-width=".7"/>
  <path d="m145.3 132.8 9.46 5.3 2.86 12.85-6.61 9.25-10.97-6.46-1.9-11.46 7.16-9.48z" fill="#D31844" stroke="#7F0021" stroke-linecap="round" stroke-linejoin="round" stroke-width="1.2"/>
  <path d="m146.2 137.5 6.36 1.89 1.82 10.02-5.56 4.27-5.37-2.52" stroke="#7F0021" stroke-linecap="round" stroke-linejoin="round" stroke-width=".7"/>
  <path d="m156.8 162 7.53 6.23-1.62 5.78-8.5 3.18-6.91-4.7 0.81-9.61 8.69-0.88z" fill="#3578C6" stroke="#1B458E" stroke-linecap="round" stroke-linejoin="round" stroke-width=".7"/>
  <path d="m155.3 163.4-2.23 5.33 8.78 1.28" stroke="#1B458E" stroke-linecap="round" stroke-linejoin="round" stroke-width=".7"/>
  <path d="m160.2 156.3 6.31 0.87 9.25 0.61-2.03 14.31-8.72-1.77-4.81-5.19v-8.83z" fill="#3578C6" stroke="#1B458E" stroke-linecap="round" stroke-linejoin="round" stroke-width=".7"/>
  <path d="m163 158 4.86 4.42 4.37-1.07" stroke="#1B458E" stroke-linecap="round" stroke-linejoin="round" stroke-width=".7"/>
  <path d="m180.1 159.6 7.35 0.6 5.77 9.86-2.27 7.48-15.76-4.26 4.91-13.68z" fill="#EA3955" stroke="#9E1239" stroke-linecap="round" stroke-linejoin="round" stroke-width="1.2"/>
  <path d="m183.7 163.5 4.44 5.81 3.57 1.55" stroke="#9E1239" stroke-linecap="round" stroke-linejoin="round" stroke-width=".7"/>
  <path d="m188.2 169.4 0.81 6.75" stroke="#9E1239" stroke-linecap="round" stroke-linejoin="round" stroke-width=".7"/>
  <path d="m120 99.3 15.8 7.95-2.23 15.04-15.05-5.48 1.48-17.51z" fill="#B56CE0" stroke="#4B2770" stroke-linecap="round" stroke-linejoin="round" stroke-width=".7"/>
  <path d="m122.2 101.6 3.99 11.46 7.42-4.95" stroke="#4B2770" stroke-linecap="round" stroke-linejoin="round" stroke-width=".7"/>
  <path d="m162.1 173.7 16.63 0.94 4.7 4.18-1.22 8.18-4.08 2.4-15.02-2.4-3.08-4.89 2.07-8.41z" fill="#19AD5A" stroke="#006837" stroke-linecap="round" stroke-linejoin="round" stroke-width="1.2"/>
  <path d="m165.6 175.6 12.4 1.41 2.79 6.04-3.38 3.88-11.94-0.81-2.28-4.01 2.41-6.51z" stroke="#006837" stroke-linecap="round" stroke-linejoin="round" stroke-width=".7"/>
  <path d="m114.6 179.8 9.49-2.48-0.47 14.97-15.31 1.01 1.74-11.22 4.55-2.28z" fill="#3578C6" stroke="#1B458E" stroke-linecap="round" stroke-linejoin="round" stroke-width=".7"/>
  <path d="m111.9 183.2 6.42 2.94 3.91-5.89" stroke="#1B458E" stroke-linecap="round" stroke-linejoin="round" stroke-width=".7"/>
  <path d="m118.3 186.1-8.65 5.39" stroke="#1B458E" stroke-linecap="round" stroke-linejoin="round" stroke-width=".7"/>
  <path d="m125.9 177 18.38-11.39 0.67 14.08-12.43 10.3-6.62-11.58v-1.41z" fill="#B56CE0" stroke="#4B2770" stroke-linecap="round" stroke-linejoin="round" stroke-width=".7"/>
  <path d="m133.4 184.3 9.53-6.5" stroke="#4B2770" stroke-linecap="round" stroke-linejoin="round" stroke-width=".7"/>
  <path d="m149.4 177.4 6.82 0.26 4.18 16.52-16.77 0.61-1.42-7.21 7.19-10.18z" fill="#D31844" stroke="#7F0021" stroke-linecap="round" stroke-linejoin="round" stroke-width="1.2"/>
  <path d="m150.9 181.3 6.08 8.1-10.25 2.11-2.48-2.71 6.65-7.5z" stroke="#7F0021" stroke-linecap="round" stroke-linejoin="round" stroke-width=".7"/>
  <path d="m36.63 115 17.27 3.96 5.69 9.68-14.51 16.96-13.97-23.08 5.52-7.52z" fill="#96E0F6" stroke="#17614A" stroke-linecap="round" stroke-linejoin="round" stroke-width=".7"/>
  <path d="m36.63 115 1.83 7.92 13.15 4.4 5.03-6.44" stroke="#17614A" stroke-linecap="round" stroke-linejoin="round" stroke-width=".7"/>
  <path d="m38.46 123 6.76 20.29 6.39-15.89" stroke="#17614A" stroke-linecap="round" stroke-linejoin="round" stroke-width=".7"/>
</svg>