<svg xmlns="http://www.w3.org/2000/svg" width="256" height="256" fill="none" viewBox="0 0 256 256">
<!-- SVG created with Arrow, by QuiverAI (https://quiver.ai) -->
  <path d="m7.21 202.8 6.07-38.55 33.6-22.87 3.44 1.31 1.46 1.37 73.43 55.52-2.15 3.95-22.32 5.31 0.39 26.45-93.92-32.49z" fill="url(#paint0_linear_826_4459)" stroke="url(#paint0_linear_826_4459)" stroke-miterlimit="10" stroke-width="1.417"/>
  <path d="m10.88 200.9 5.2-34.67 32.87-22.06 1.84 1.08 72.27 54.83-24.2 5.51-0.64 28.15-87.34-32.84z" fill="#68FEFF" stroke="url(#paint2_linear_826_4459)" stroke-miterlimit="10" stroke-width="1.417"/>
  <path d="m13.18 198.8 4.78-30.59 31.52-21.12 69.53 52.04-22.43 5.45-1.31 23.09-82.09-28.87z" fill="url(#paint3_linear_826_4459)" stroke="#68FEFF" stroke-miterlimit="10" stroke-width="1.417"/>
  <path d="m16.83 176.3 10.77-13.75 9.68 2.06 10.25-15.1 3.64-0.39 63.45 47.97-20.52 5 1.97 3.05-16.25 3.81-3.93-1.46-7.01 1.35-43.95-15.95-8.1-16.59z" fill="url(#paint4_linear_826_4459)" stroke="#2A86B7" stroke-miterlimit="10" stroke-width=".7087"/>
  <path d="m24.93 191.4 12.35-26.82 22.24 6.43 5.47-9.9 7.71 8.1 1.46 17.9 21.91 37.27" stroke="#2A86B7" stroke-miterlimit="10" stroke-width=".7087"/>
  <path d="m30.1 162.3 10.81 2.01 18.5 6.72 6.68-1.9" stroke="#2A86B7" stroke-miterlimit="10" stroke-width=".7087"/>
  <path d="m30.01 194.7 38.91 10.74 7.7 5.56 16.04 13.13" stroke="#2A86B7" stroke-miterlimit="10" stroke-width=".7087"/>
  <path d="m42.18 183 25 17.02" stroke="#2A86B7" stroke-miterlimit="10" stroke-width=".7087"/>
  <path d="m52.11 177.4 9.45 6.43" stroke="#2A86B7" stroke-miterlimit="10" stroke-width=".7087"/>
  <path d="m70.81 178c1.85 0 3-1.83 2.18-3.28-0.44-0.77-1.36-1.24-2.37-1.1-1.94 0.3-2.66 2.57-1.3 3.87 0.4 0.38 0.94 0.56 1.49 0.51z" fill="#2A86B7"/>
  <path d="m82.98 191.1c1.85 0 3-1.83 2.18-3.28-0.44-0.77-1.36-1.24-2.37-1.1-1.94 0.3-2.66 2.57-1.3 3.87 0.4 0.37 0.94 0.56 1.49 0.51z" fill="#2A86B7"/>
  <path d="m62.92 183.8c1.85 0 3-1.83 2.18-3.28-0.44-0.77-1.36-1.24-2.37-1.1-1.94 0.3-2.66 2.57-1.3 3.87 0.4 0.37 0.94 0.56 1.49 0.51z" fill="#2A86B7"/>
  <path d="m129.6 209.7 22.19-4.5 1.03 27.87 96.7-17.57-1.87-40.46-42.05-31.84-2.45 1.56-73.55 55.62v9.32z" fill="url(#paint5_linear_826_4459)" stroke="url(#paint5_linear_826_4459)" stroke-miterlimit="10" stroke-width="1.417"/>
  <path d="m154.9 228.7-1.96-25.75 3.15-3.32 47-53.36 41.75 31.53 1.56 36.01-91.5 14.89z" fill="#68FEFF" stroke="url(#paint7_linear_826_4459)" stroke-miterlimit="10" stroke-width="1.417"/>
  <path d="m158.7 225.7-2.26-23.97 45.83-52.29 11.06 8.48 10.2 13.34 9.45 0.78 10.35 7.04 0.49 30.89-85.12 15.73z" fill="url(#paint8_linear_826_4459)" stroke="#2A86B7" stroke-miterlimit="10" stroke-width=".7087"/>
  <path d="m159.1 224.2 26.93-24.66" stroke="#2A86B7" stroke-miterlimit="10" stroke-width=".7087"/>
  <path d="m160 223.2 26.73-29.44 12.45-0.59 15.74-3.32 17.33 12.58 9.35 6.57" stroke="#2A86B7" stroke-miterlimit="10" stroke-width=".7087"/>
  <path d="m160 221.3 29.51-6.24 43.23-15.1 8.96-12.68" stroke="#2A86B7" stroke-miterlimit="10" stroke-width=".7087"/>
  <path d="m159.1 217.6 23.28-27.75 3.74-21.61 4.71-1.17 5.46 7.04 25.7-0.78 10.52-0.19 7.23 5.08 1.83 7.89" stroke="#2A86B7" stroke-miterlimit="10" stroke-width=".7087"/>
  <path d="m186.9 180.1 8.11-9.5" stroke="#2A86B7" stroke-miterlimit="10" stroke-width=".7087"/>
  <path d="m193.1 188.8 7.71-10.15" stroke="#2A86B7" stroke-miterlimit="10" stroke-width=".7087"/>
  <path d="m188.1 202.9c1.85 0 3-1.83 2.18-3.28-0.44-0.77-1.36-1.24-2.37-1.1-1.94 0.3-2.66 2.57-1.3 3.87 0.4 0.37 0.94 0.56 1.49 0.51z" fill="#2A86B7"/>
  <path d="m132.4 41.91 35.4-22.3 72.54 28.07 12.45 38.9-44.63 26.45-3.94-2.95-52.1-25.85-19.72-42.32z" fill="url(#paint9_linear_826_4459)" stroke="url(#paint9_linear_826_4459)" stroke-miterlimit="10" stroke-width="1.417"/>
  <path d="m138.2 44.07 29.54-21.81 71.09 27.77 11.06 35.19-44.24 25.94-51-27.23-16.45-39.86z" fill="#68FEFF" stroke="url(#paint11_linear_826_4459)" stroke-miterlimit="10" stroke-width="1.417"/>
  <path d="m141.7 45.24 25.9-19.62 69.34 26.38 8.87 31.83-42.33 24.38-46.41-26.15-15.37-36.82z" fill="url(#paint12_linear_826_4459)" stroke="#223A5E" stroke-miterlimit="10" stroke-width=".7087"/>
  <path d="m157.3 31.1 19.82-1.17 5.96 9.8 16.92-0.59 9.06 6.24 7.12 6.13 9.35-2.95 13.4 10.15 0.29 11.88-5.27 8.48-30.82 27.08-9.35-11.13-23.47-12.96v-26.3l-19.03-8.28 6.02-16.38z" fill="url(#paint13_linear_826_4459)" stroke="#223A5E" stroke-miterlimit="10" stroke-width=".7087"/>
  <path d="m151.3 47.87 30.53-6.44 10.15 22.3 22.77-11.33 19.12 25.65-33.75 24.98" stroke="#223A5E" stroke-miterlimit="10" stroke-width=".7087"/>
  <path d="m181.8 41.43-10.82 13.65" stroke="#223A5E" stroke-miterlimit="10" stroke-width=".7087"/>
  <path d="m214.4 53.57-1.26 16.73-20.83-6.77" stroke="#223A5E" stroke-miterlimit="10" stroke-width=".7087"/>
  <path d="m238.6 60.91-4.79 17.72 8.66 3.43" stroke="#6F2DA8" stroke-miterlimit="10" stroke-width=".7087"/>
  <path d="m222 45.72-3.84 4.01" stroke="#6F2DA8" stroke-miterlimit="10" stroke-width=".7087"/>
  <path d="m181.3 30.22 2.86 8.63" stroke="#223A5E" stroke-miterlimit="10" stroke-width=".7087"/>
  <path d="m182.7 57.04-4.89 16.32" stroke="#223A5E" stroke-miterlimit="10" stroke-width=".7087"/>
  <path d="m185.7 73.17c1.85 0 3-1.83 2.18-3.28-0.44-0.77-1.36-1.24-2.37-1.1-1.94 0.3-2.66 2.57-1.3 3.87 0.4 0.37 0.94 0.56 1.49 0.51z" fill="#223A5E"/>
  <path d="m193.6 79.94 4.13-14.89" stroke="#223A5E" stroke-miterlimit="10" stroke-width=".7087"/>
  <path d="m6.13 86.29 10.62-38.61 71.76-28.07 33.95 21.81-15.94 42.51-34.35 0.2-2.46 1.37-23.97 25.26-39.61-24.47z" fill="url(#paint14_linear_826_4459)" stroke="url(#paint14_linear_826_4459)" stroke-miterlimit="10" stroke-width="1.417"/>
  <path d="m9.28 84.23 10.15-34.01 69.24-28.36 28.75 21.92-15.27 38.28-29.94 1.08-2.66 1.09-22.12 24.38-38.15-24.38z" fill="#68FEFF" stroke="url(#paint16_linear_826_4459)" stroke-miterlimit="10" stroke-width="1.417"/>
  <path d="m11.63 83.54 8.67-32.22 68.17-26.49 26.29 19.33-14.6 37.02-27.07 0.88-2.96 1.28-23.57 21.82-34.93-21.62z" fill="url(#paint17_linear_826_4459)" stroke="#223A5E" stroke-miterlimit="10" stroke-width=".7087"/>
  <path d="m17.09 59.64 12.54-11.28 10.35 3.06 14.69-12.48 18.32 1.27 4.79-9.89 11.56-4.51 7.51 6.34 7.02 16.21 5.76-3.9 4.13 0.58-14.69 35.56-25.89 0.68-3.54-0.19-17.42 21.52-31.13-23.59-4-19.38z" fill="url(#paint18_linear_826_4459)" stroke="#223A5E" stroke-miterlimit="10" stroke-width=".7087"/>
  <path d="m20.89 59.83 9.02-11.57 10.07 4.82 0.58 18.78-19.32 7.06 18.45-25.84 22.46 10.15 11.12-23.02 30.41 8.15-7.61-16.21-17.42-1.74" stroke="#223A5E" stroke-miterlimit="10" stroke-width=".7087"/>
  <path d="m73.27 40.21 10.92 15.45-21.46 7.87" stroke="#223A5E" stroke-miterlimit="10" stroke-width=".7087"/>
  <path d="m97.62 32.34 6.25 16.02-2.45 1.67-17.23 5.63-0.87 25.33" stroke="#223A5E" stroke-miterlimit="10" stroke-width=".7087"/>
  <path d="m79.04 59.05 1.55 10.66" stroke="#223A5E" stroke-miterlimit="10" stroke-width=".7087"/>
  <path d="m64.01 63.23 3.94 10.72" stroke="#223A5E" stroke-miterlimit="10" stroke-width=".7087"/>
  <path d="m61.26 77.82c1.85 0 3-1.83 2.18-3.28-0.44-0.77-1.36-1.24-2.37-1.1-1.94 0.3-2.66 2.57-1.3 3.87 0.4 0.37 0.94 0.56 1.49 0.51z" fill="#223A5E"/>
  <path d="m74.83 29.54 3.44 0.48" stroke="#223A5E" stroke-miterlimit="10" stroke-width=".7087"/>
  <path d="m34.72 47.92 5.26 3.2" stroke="#223A5E" stroke-miterlimit="10" stroke-width=".7087"/>
  <path d="m35.21 73.17 20.83 7.04 5.47 5.4" stroke="#223A5E" stroke-miterlimit="10" stroke-width=".7087"/>
  <path d="m22.22 79.61 31.42 18.5" stroke="#223A5E" stroke-miterlimit="10" stroke-width=".7087"/>
  <path d="m51.78 69.12 4.69 10.49" stroke="#223A5E" stroke-miterlimit="10" stroke-width=".7087"/>
  <path d="m71.92 129 56.17 66.43 57.78-68.3 1.56-24.48-7.22-12.47h-21.84l-1.46 0.97h-26.83l-2.96-0.97-34.05 0.29-15.58 0.68-11.11 33.45 5.54 4.4z" fill="url(#paint19_linear_826_4459)" stroke="#2A86B7" stroke-miterlimit="10" stroke-width=".7087"/>
  <path d="m33.85 125.7 37.54-45.09h113.6l36.37 45.39-93.12 107.4-94.34-107.7z" fill="url(#paint20_linear_826_4459)" stroke="url(#paint20_linear_826_4459)" stroke-miterlimit="10" stroke-width="1.417"/>
  <path d="m38.82 125.3 34.26-40.88h109.9l32.76 41.36-87.54 98.22-89.37-98.7z" fill="#F2FFFE" stroke="url(#paint22_linear_826_4459)" stroke-miterlimit="10" stroke-width="1.417"/>
  <path d="m48.17 125.9 27.03-35.69h105.3l27.13 35.49-79.44 89.43-80.02-89.23z" fill="url(#paint23_linear_826_4459)" stroke="#2A86B7" stroke-miterlimit="10" stroke-width="1.417"/>
  <path d="m65.89 125.8 29.74 0.1 17.42 50.38-41.03-43.2 29.64 48.21" stroke="#2A86B7" stroke-miterlimit="10" stroke-width="1.417"/>
  <path d="m161.1 125.4 27.82-0.2-36.9 60.83" stroke="#2A86B7" stroke-miterlimit="10" stroke-width="1.417"/>
  <path d="m101.9 102.1-32.22 22.24" stroke="#2A86B7" stroke-miterlimit="10" stroke-width="1.417"/>
  <path d="m152.6 100.4 35.4 23.9" stroke="#2A86B7" stroke-miterlimit="10" stroke-width="1.417"/>
  <path d="m111.1 126.1v16.64l13.16 13.65v52.55" stroke="#2A86B7" stroke-miterlimit="10"/>
  <path d="m117.3 159.7-10.62-10.63" stroke="#2A86B7" stroke-miterlimit="10"/>
  <path d="m117.3 184.1v-23.98" stroke="#2A86B7" stroke-miterlimit="10"/>
  <path d="m138.4 166.1v23.32" stroke="#2A86B7" stroke-miterlimit="10"/>
  <path d="m121.5 143c2.29-0.95 1.82-4.73-0.77-4.81-2.56-0.08-3.43 3.47-1.1 4.7 0.57 0.3 1.27 0.38 1.87 0.11z" fill="#2A86B7"/>
  <path d="m136.3 159.6c-1.55 1.55-0.49 4.42 1.92 4.26 2.44-0.15 3.1-3.36 1-4.7-0.96-0.6-2.12-0.39-2.92 0.44z" fill="#2A86B7"/>
  <path d="m147.6 126.1v18.7l-17.42 11.78v51.97" stroke="#2A86B7" stroke-miterlimit="10"/>
  <path d="m103.7 101.6-11.61-10.72-22.18 9.05-3.84 25.28h30.27l7.36-23.61z" fill="url(#paint24_linear_826_4459)" stroke="#2A86B7" stroke-miterlimit="10" stroke-width=".7087"/>
  <path d="m152.1 100.4 32.87 0.39 2.86 23.42h-27.47l-8.26-23.81z" fill="url(#paint25_linear_826_4459)" stroke="#2A86B7" stroke-miterlimit="10" stroke-width=".7087"/>
  <path d="m105.1 102.2 22.53-10.42 22.72 8.66-23.21 24.1-22.04-22.34z" fill="url(#paint26_linear_826_4459)" stroke="#2A86B7" stroke-miterlimit="10" stroke-width=".7087"/>
  <defs>
    <linearGradient id="paint0_linear_826_4459" x1="66.23" x2="66.23" y1="141.4" y2="235.3" gradientUnits="userSpaceOnUse">
      <stop stop-color="#1BFFFF" offset="0"/>
      <stop stop-color="#B500D1" offset="1"/>
    </linearGradient>
    <linearGradient id="paint2_linear_826_4459" x1="66.97" x2="66.97" y1="144.2" y2="233.8" gradientUnits="userSpaceOnUse">
      <stop stop-color="#1BFFFF" offset="0"/>
      <stop stop-color="#FEF7FF" offset="1"/>
    </linearGradient>
    <linearGradient id="paint3_linear_826_4459" x1="66.09" x2="66.09" y1="147" y2="227.6" gradientUnits="userSpaceOnUse">
      <stop stop-color="#22B5E7" offset="0"/>
      <stop stop-color="#194676" offset="1"/>
    </linearGradient>
    <linearGradient id="paint4_linear_826_4459" x1="65.72" x2="65.72" y1="149.1" y2="208.9" gradientUnits="userSpaceOnUse">
      <stop stop-color="#22B5E7" offset="0"/>
      <stop stop-color="#194676" offset="1"/>
    </linearGradient>
    <linearGradient id="paint5_linear_826_4459" x1="189.5" x2="189.5" y1="143.2" y2="233.1" gradientUnits="userSpaceOnUse">
      <stop stop-color="#1BFFFF" offset="0"/>
      <stop stop-color="#B500D1" offset="1"/>
    </linearGradient>
    <linearGradient id="paint7_linear_826_4459" x1="199.8" x2="199.8" y1="146.3" y2="228.7" gradientUnits="userSpaceOnUse">
      <stop stop-color="#1BFFFF" offset="0"/>
      <stop stop-color="#FEF7FF" offset="1"/>
    </linearGradient>
    <linearGradient id="paint8_linear_826_4459" x1="200.1" x2="200.1" y1="149.5" y2="225.7" gradientUnits="userSpaceOnUse">
      <stop stop-color="#22B5E7" offset="0"/>
      <stop stop-color="#194676" offset="1"/>
    </linearGradient>
    <linearGradient id="paint9_linear_826_4459" x1="192.6" x2="192.6" y1="19.61" y2="113" gradientUnits="userSpaceOnUse">
      <stop stop-color="#1BFFFF" offset="0"/>
      <stop stop-color="#B500D1" offset="1"/>
    </linearGradient>
    <linearGradient id="paint11_linear_826_4459" x1="194" x2="194" y1="22.26" y2="111.2" gradientUnits="userSpaceOnUse">
      <stop stop-color="#1BFFFF" offset="0"/>
      <stop stop-color="#FEF7FF" offset="1"/>
    </linearGradient>
    <linearGradient id="paint12_linear_826_4459" x1="193.8" x2="193.8" y1="25.62" y2="108.2" gradientUnits="userSpaceOnUse">
      <stop stop-color="#22B5E7" offset="0"/>
      <stop stop-color="#194676" offset="1"/>
    </linearGradient>
    <linearGradient id="paint13_linear_826_4459" x1="195.5" x2="195.5" y1="29.93" y2="106.2" gradientUnits="userSpaceOnUse">
      <stop stop-color="#2286E7" offset="0"/>
      <stop stop-color="#194676" offset="1"/>
    </linearGradient>
    <linearGradient id="paint14_linear_826_4459" x1="64.29" x2="64.29" y1="19.61" y2="110.8" gradientUnits="userSpaceOnUse">
      <stop stop-color="#1BFFFF" offset="0"/>
      <stop stop-color="#B500D1" offset="1"/>
    </linearGradient>
    <linearGradient id="paint16_linear_826_4459" x1="63.36" x2="63.36" y1="21.86" y2="108.6" gradientUnits="userSpaceOnUse">
      <stop stop-color="#1BFFFF" offset="0"/>
      <stop stop-color="#FEF7FF" offset="1"/>
    </linearGradient>
    <linearGradient id="paint17_linear_826_4459" x1="63.2" x2="63.2" y1="24.83" y2="105.2" gradientUnits="userSpaceOnUse">
      <stop stop-color="#22B5E7" offset="0"/>
      <stop stop-color="#194676" offset="1"/>
    </linearGradient>
    <linearGradient id="paint18_linear_826_4459" x1="65.41" x2="65.41" y1="25.81" y2="102.6" gradientUnits="userSpaceOnUse">
      <stop stop-color="#2286E7" offset="0"/>
      <stop stop-color="#194676" offset="1"/>
    </linearGradient>
    <linearGradient id="paint19_linear_826_4459" x1="130.1" x2="130.1" y1="90.2" y2="195.5" gradientUnits="userSpaceOnUse">
      <stop stop-color="#2286E7" offset="0"/>
      <stop stop-color="#194676" offset="1"/>
    </linearGradient>
    <linearGradient id="paint20_linear_826_4459" x1="127.6" x2="127.6" y1="80.6" y2="233.4" gradientUnits="userSpaceOnUse">
      <stop stop-color="#1BFFFF" offset="0"/>
      <stop stop-color="#B500D1" offset="1"/>
    </linearGradient>
    <linearGradient id="paint22_linear_826_4459" x1="127.3" x2="127.3" y1="84.42" y2="224" gradientUnits="userSpaceOnUse">
      <stop stop-color="#1BFFFF" offset="0"/>
      <stop stop-color="#FEF7FF" offset="1"/>
    </linearGradient>
    <linearGradient id="paint23_linear_826_4459" x1="127.9" x2="127.9" y1="90.2" y2="215.1" gradientUnits="userSpaceOnUse">
      <stop stop-color="#22B5E7" offset="0"/>
      <stop stop-color="#194676" offset="1"/>
    </linearGradient>
    <linearGradient id="paint24_linear_826_4459" x1="85.91" x2="85.91" y1="90.88" y2="125.2" gradientUnits="userSpaceOnUse">
      <stop stop-color="#22B5E7" offset="0"/>
      <stop stop-color="#194676" stop-opacity=".31" offset="1"/>
    </linearGradient>
    <linearGradient id="paint25_linear_826_4459" x1="170" x2="170" y1="100.4" y2="124.2" gradientUnits="userSpaceOnUse">
      <stop stop-color="#223A5E" offset="0"/>
      <stop stop-color="#194676" stop-opacity=".31" offset="1"/>
    </linearGradient>
    <linearGradient id="paint26_linear_826_4459" x1="127.7" x2="127.7" y1="91.76" y2="124.5" gradientUnits="userSpaceOnUse">
      <stop stop-color="#2286E7" offset="0"/>
      <stop stop-color="#194676" stop-opacity=".69" offset="1"/>
    </linearGradient>
  </defs>
</svg>