<svg xmlns="http://www.w3.org/2000/svg" width="250" height="250" fill="none" viewBox="0 0 250 250">
<!-- SVG created with Arrow, by QuiverAI (https://quiver.ai) -->
  <path d="m137.6 11.4-21.78 4.51c-2.59 0.42-5.34 1.52-7.05 3.75l-6.94 9c-1.73 2.27-2.21 4.06-2.11 7.05l0.12 8.36-22.73-10.82c-2.09-1-3.98-0.49-5.61 0.72l-23.4 18c-1.72 1.31-2.35 3.12-2.86 5.21l-5.24 20.98-8.18 7.27c-1.67 1.35-2.1 3.35-2.37 5.36l-2.46 16.86-3.89 2.73c-5.29 3.13-6.43 9.98-6.38 15.44l0.1 31.4c0.04 6.5 1.86 11.92 6.79 14.93l83.89 55.94c3.33 2.5 6.73 3.2 10.5 3.06h14.24c5.08 0 8.45-1.84 12.66-4.89l81.2-53c6.68-4.32 7.5-10.84 7.38-17.2l-0.18-32c-0.08-6.53-2.41-11.11-8.05-14.53l2.73-2.31c2.25-1.72 2.69-4.34 2.92-7.06l0.89-9.23c0.24-2.72-0.79-4.99-2.05-7.38l-5.78-12.09c-0.97-2.24-2.54-3.69-4.69-4.76-0.98-2.79-3.35-4.39-5.87-5.87l-6.28-3.67c-1.63-1.02-3.33-1.5-5.24-1.65l-11.15-1.2c-2.11-0.25-3.66 0.82-5.23 2.12l-8.08 6.78-5.34-3.68v-20.77c0-2.83-1.14-4.88-3.06-6.93l-6.3-7.2c-1.45-2.52-2.67-3.97-5.7-4.62l-17.2-3.72c-0.84-0.26-1.4-0.38-2.22-0.38v-4.51z" fill="url(#paint0_radial_598_9120)"/>
  <path d="m137.1 16.63-22 4.38c-1.85 0.35-3.1 1.18-4.23 2.7l-6.3 8.4c-1.34 1.77-1.92 3.26-1.82 5.61l0.23 22.24-2.03-9.89-1.67-5.83-22.12-10.78c-1.5-0.74-2.71-0.59-4.06 0.45l-24.18 18.94c-1.32 1.01-1.92 2.06-2.29 3.68l-5.56 22.36-8.07 7.17c-1.13 1.03-1.57 2.22-1.74 3.74l-3 19.19-4.81 3.32c-3.7 2.59-5.12 8.14-5.08 12.99l0.1 31.4c0.04 5.91 1.66 10.76 6.2 13.49l83.78 56.42c2.97 2.24 5.77 2.88 9.58 2.75h14.24c4.72 0 7.52-1.93 11.66-4.85l82.42-54.04c5.28-3.46 5.9-9.84 5.8-15.16l-0.18-31.4c-0.07-6.05-2.21-10.58-7.96-13.6l-1.76-1.42 4.22-3.53c1.85-1.38 2.64-3.15 2.86-5.5l0.89-9.74c0.2-2.23-0.59-4.09-1.67-6.08l-5.29-10.97c-1.11-2.45-2.45-3.98-5.06-5.05-0.76-2.31-2.5-3.73-4.75-5.01l-6.7-4.2c-1.4-0.96-2.8-1.4-4.5-1.55l-11.63-1.3c-1.47-0.19-2.52 0.46-3.7 1.47l-8.87 7.55-6.77-4.77v-21.8c0-2.23-0.86-3.9-2.43-5.58l-6.77-8.22c-1.22-1.85-2.59-2.95-4.9-3.43l-18-4.28c-0.65-0.19-1.43-0.39-2.08-0.27z" fill="url(#paint1_linear_598_9120)" stroke="#00002B" stroke-miterlimit="10" stroke-width="1.73"/>
  <path d="m29.78 117.1 84.6-54.6 21.91-1.06 39.83 9.51 44.95 44.79c2.84 1.91 3.44 5.38 3.39 8.6l-0.18 33.42c0 3.34-0.92 6.39-3.76 8.3l-82.35 54.95c-1.91 1.33-3.36 1.73-5.81 1.73h-14.95c-2.35 0-3.92-0.4-5.83-1.85l-83.75-54.71c-2.76-1.59-3.13-6.09-3.1-8.93l0.1-33.85c0-2.84 1.05-5.2 4.95-6.3z" fill="url(#paint2_linear_598_9120)" stroke="#00002B" stroke-miterlimit="10" stroke-width="4.32"/>
  <path d="m27.49 136.3 86.89 58.6 20.51 0.45 88.83-57.81v-13.41l-2.08-6.89-6.62-4.11-4.96-0.33-17.68 3.25-13.27-11-12.5-9.8-2.36-29.87-1.14-1.13-27-2-29.73 1.8-0.14 6.2 4.87 8-6.3-3.2-8.2-28-20.9-6.5-22.1 15.4-6 24.7-11 8.9-3.6 25.1-0.2 18.1-5.32 3.55z" fill="url(#paint3_linear_598_9120)"/>
  <path d="m28.04 137 86.34 58.2 20.33 0.4 88.6-58.6v3.8l-88.6 56.8-20-0.3-87-56.1 0.33-4.2z" fill="url(#paint4_linear_598_9120)"/>
  <path d="m114.7 195.6 0.2 26.5-1.2-0.7-1.8-1.3 2.8-24.5z" fill="url(#paint5_linear_598_9120)"/>
  <path d="m134.7 195.6v26.1l1.9-1.2 1.4-1-0.9-24.6-2.4 0.7z" fill="url(#paint6_linear_598_9120)"/>
  <path d="m103.9 66.61 3.2 6.4 13.8 9.2 5.8 15.8 41-32.8 9.4 6.2-46 36.2-17.2 4-19.2 9.6-14.6 44.8-4.4-2.4 14.2-43.6 30.4-21-4.2-14.8-11-8-1.2-9.6z" fill="url(#paint7_linear_598_9120)" stroke="#0B1238" stroke-miterlimit="10" stroke-width="3.3"/>
  <path d="m93.11 169.2 10-7.8 0.6-17.8-3.6 1.8-8 22.8 1 1z" fill="url(#paint8_linear_598_9120)" stroke="#0B1238" stroke-miterlimit="10" stroke-width="2.47"/>
  <path d="m129.7 110.4 60.8-49.2 11.1 1.2 7.5 4.8 4.1 2.8 1 3.8 2.9 0.9 5.5 12.4-1.4 14-17 14.3-22 6.5-22.4-6.3-30.1-5.2z" fill="#965A3A" stroke="#0B1238" stroke-miterlimit="10" stroke-width="3.3"/>
  <path d="m135.1 110.1 40.6-26.3 6.3-4.9 15.1-15.3 2.9 0.3 0.9 1.2-17.9 15.6 24.7-14.6 4.7 4-3 5-40.3 24.9-7.6-0.3-15.6 11.5-10.8-1.1z" fill="#753A2A"/>
  <path d="m200.9 103.6 12.5-14 8.3-3-0.4 3.5-20.4 13.5z" fill="#542A22"/>
  <path d="m139.9 110.6 21.4-13.4 7.9-0.5 35.3-26.7-7.5 16.1-0.9 6.9-31.4 23.4-5.4-0.4-19.4-5.4z" fill="#542A22"/>
  <path d="m116.2 26.01 20.5-3.7 21.2 4.4 8.1 11.6v32.7l-32.3 26.9-13.4-13.1-12.5-9.2v-38.6l8.4-11z" fill="#965A3A" stroke="#0B1238" stroke-miterlimit="10" stroke-width="3.3"/>
  <path d="m112.4 38.71 2.8 4.6 2.4 2.9 19.1 3.1 11.2-3.1 10 0.5 4.8-7.3-6.8-9.8-19.2-3.6-16.5 2.4-9.1 9.6 1.3 0.7z" fill="#B97240" stroke="#592A21" stroke-miterlimit="10" stroke-width="1.65"/>
  <path d="m121.4 32.11-3.8 6.7 4.2 5.1 13.9 2.1 10.2-2.1 2-2.8" stroke="#592A21" stroke-miterlimit="10" stroke-width="1.65"/>
  <path d="m127.9 37.01 8.6-2.4 9.5 2.8v2.4l-9.3 2.4-8.3-2.9-0.5-2.3z" stroke="#592A21" stroke-miterlimit="10" stroke-width="1.65"/>
  <path d="m113.3 39.61 3.5 7.1 0.8 23.1 2-18 3.6 9.2 2 11.2 3.4 5.3 1.2 11.4 2.3-1.9v-26.8l-2.7-7 4.8 5.4v29.3l11.4-25.2 2.2 18.4 2.9-33.7-4.8-3.4 10.3 3.4 6.5-8.5-4.5 7.3-0.2 26-8 6.7-2.9-31.8-10.4 2.7-19.3-3.8-4.1-6.4z" fill="#592A21"/>
  <path d="m66.81 154.6-33.8-21.5 2.7-43.1 11.5-10 5.7-25 22.7-16.6 21.6 8.6 9.7 28.3 11.7 9.7 4.5 14.8-28.2 20.7-12.1 32.1-16 2z" fill="#515F75" stroke="#00002B" stroke-miterlimit="10" stroke-width="3.3"/>
  <path d="m37.91 130.9 3-37 8.8 5.6 6.4-3.8-5.3-11.8 6.2-22.9 9.6 2.8-6.6-6.7 15.2-13 18.4 3.5-17.4 18.4-6.7-1.6 4.4 5.6 3.3 43.9-13.4-0.3-13.7 6.1-3.5 10.3-1.5 3.9-7.2-3z" fill="#98A5B1"/>
  <path d="m40.91 93.91 4.7 1.5 4.1 4.1-2.7 19.4-10.5 11.9 4.4-36.9z" fill="#758592"/>
  <path d="m49.71 99.51 12-3.8 2 17.9-13.7 7.3-0.3-21.4z" fill="#3A495E"/>
  <path d="m63.71 113.6 15 6.5-1.5-6.2-11.5-15.9-2 15.6z" fill="#617284"/>
  <path d="m77.21 113.9 11.2-43.9 5.6 2.7-2 4.7 12-2.7-0.4 10.6-16.8 14.7-6.6 20.5-3-6.6z" fill="#3A495E"/>
  <path d="m86.81 100 13.3 0.9 15.5-15.3 4.1 13-18.4 13.8-0.7-9.8-13.8-2.6z" fill="#6D7988"/>
  <path d="m50.01 120.9 16.6 8.5 20.1-6.4-6.5-2.5-16.6-6.9-13.6 7.3z" fill="#98A5B1"/>
  <path d="m66.61 129.4 0.2 22 20.5-15.4-0.6-13-20.1 6.4z" fill="#313D59"/>
  <path d="m114.8 113.7 29.5-2.7 37.8 7.9 4.8 6.5v12.7l-20.3 26.6-33.5 21.4-19.4-7.2-10.3-17.6 0.5-30.2 10.9-17.4z" fill="#D14232" stroke="#0B1238" stroke-miterlimit="10" stroke-width="3.3"/>
  <path d="m117.3 118.6 14.3 3.1 10.9 20.4v26.5l-9.7 14.3-17.1-7.5-8-14.3 0.4-27.5 9.2-15z" fill="#D63838" stroke="#F29A61" stroke-miterlimit="10" stroke-width="2.47"/>
  <path d="m131.6 121.7 12.6-6.5 19.6 4.8 3.3 7.2-5.2 20.6-19.4-5.7-10.9-20.4z" fill="#EA5426" stroke="#D14232" stroke-miterlimit="10" stroke-width="1.65"/>
  <path d="m163.8 120 18.1 1.3 4 5.9-8.4 7.7-10.4-7.7-3.3-7.2z" fill="#D1380E" stroke="#B93618" stroke-miterlimit="10" stroke-width="1.65"/>
  <path d="m161.9 147.8 10.8 1.8 4.8-14.7-10.4-7.7-5.2 20.6z" fill="#B72F26" stroke="#992920" stroke-miterlimit="10" stroke-width="1.65"/>
  <path d="m142.5 142.1 9.6-8.5 9.8 14.2-19.4 5v-10.7z" fill="#A82923" stroke="#992920" stroke-miterlimit="10" stroke-width="1.65"/>
  <path d="m142.5 153.2 21.4-4.6 0.3 14.7-21.7 6.7v-16.8z" fill="#821626" stroke="#72141D" stroke-miterlimit="10" stroke-width="1.65"/>
  <path d="m116.1 124.9 2.7-3.2 1.8 11.9-0.6 8.4-2.4 0.6-1.5-17.7z" fill="#F29A61"/>
  <path d="m120.1 142.6 4.2 0.9 2.9 6.4-1.4 7.2-4.1 1.2-3.7-4.1-0.4-7.3 2.5-4.3z" fill="#F2D7B2" stroke="#D38254" stroke-miterlimit="10" stroke-width="2.47"/>
  <path d="m126.4 160.9 6.3 9.1 4.7-1 2.2-5.2-0.7-20-7.9 3.2-2.2 8.8-2.4 5.1z" fill="#B72136" stroke="#A82136" stroke-miterlimit="10" stroke-width="1.65"/>
  <path d="m117.3 155-7.3 8.6 5.7 11 13.3 3.4-0.7-6.4-5.2-13.2-5.8-3.4z" fill="#C62836" stroke="#B72136" stroke-miterlimit="10" stroke-width="1.65"/>
  <path d="m187.6 123 8.8-3.6 2.1-7.3 1.6-1.4 5.8-0.7 3.7 3-1 8 4.2 1.6 0.5 1.3-0.5 7.9-5.3 3.1-8.6-4.5-9.8 5-1.5-12.4z" fill="#F2D7B2" stroke="#0B1238" stroke-miterlimit="10" stroke-width="3.3"/>
  <path d="m206.9 121 2.3 1.2 2.6 1 0.2 6.7-8.7-4.9-9.8 3.6-2.5-4.4 7.4-2.6 1.6-8.9 5.1-1.1 2.7 2-0.9 7.4z" fill="#C49371"/>
  <path d="m161.3 115 32.3-27.1 0.9-3.8 9.5-5.1-6.7 7.8-1.2 6.5-28.4 22.7-6.4-1z" fill="#39F98A"/>
  <defs>
    <radialGradient id="paint0_radial_598_9120" cx="0" cy="0" r="1" gradientTransform="translate(125 123.5) scale(124.4)" gradientUnits="userSpaceOnUse">
      <stop stop-color="#0ff" offset="0"/>
      <stop stop-color="#00F5FE" stop-opacity=".966" offset=".113"/>
      <stop stop-color="#00DAFC" stop-opacity=".882" offset=".304"/>
      <stop stop-color="#00AEF8" stop-opacity=".752" offset=".553"/>
      <stop stop-color="#0075F3" stop-opacity=".576" offset=".848"/>
      <stop stop-color="#0052F0" stop-opacity=".5" offset="1"/>
    </radialGradient>
    <linearGradient id="paint1_linear_598_9120" x1="125.1" x2="125.1" y1="15.91" y2="229.4" gradientUnits="userSpaceOnUse">
      <stop stop-color="#00CEFF" offset="0"/>
      <stop stop-color="#00CEFF" stop-opacity=".794" offset=".144"/>
      <stop stop-color="#6600F2" stop-opacity=".616" offset=".779"/>
      <stop stop-color="#8900F2" stop-opacity=".5" offset="1"/>
    </linearGradient>
    <linearGradient id="paint2_linear_598_9120" x1="124.4" x2="124.4" y1="61.21" y2="222.7" gradientUnits="userSpaceOnUse">
      <stop stop-color="#39F98A" offset="0"/>
      <stop stop-color="#00A56D" offset="1"/>
    </linearGradient>
    <linearGradient id="paint3_linear_598_9120" x1="125.6" x2="125.6" y1="61.21" y2="166" gradientUnits="userSpaceOnUse">
      <stop stop-color="#70FFA4" offset="0"/>
      <stop stop-color="#008F57" offset="1"/>
    </linearGradient>
    <linearGradient id="paint4_linear_598_9120" x1="125.5" x2="125.5" y1="113" y2="195.6" gradientUnits="userSpaceOnUse">
      <stop stop-color="#008F57" stop-opacity=".5" offset="0"/>
      <stop stop-color="#008F57" offset="1"/>
    </linearGradient>
    <linearGradient id="paint5_linear_598_9120" x1="113.4" x2="113.4" y1="195.6" y2="222.1" gradientUnits="userSpaceOnUse">
      <stop stop-color="#70FFA4" offset="0"/>
      <stop stop-color="#008F57" offset="1"/>
    </linearGradient>
    <linearGradient id="paint6_linear_598_9120" x1="136.4" x2="136.4" y1="194.9" y2="221.7" gradientUnits="userSpaceOnUse">
      <stop stop-color="#008F57" stop-opacity=".5" offset="0"/>
      <stop stop-color="#008F57" offset="1"/>
    </linearGradient>
    <linearGradient id="paint7_linear_598_9120" x1="137.9" x2="137.9" y1="64.01" y2="166" gradientUnits="userSpaceOnUse">
      <stop stop-color="#70FFA4" offset="0"/>
      <stop stop-color="#008F57" offset="1"/>
    </linearGradient>
    <linearGradient id="paint8_linear_598_9120" x1="97.91" x2="97.91" y1="143.6" y2="169.2" gradientUnits="userSpaceOnUse">
      <stop stop-color="#70FFA4" offset="0"/>
      <stop stop-color="#008F57" offset="1"/>
    </linearGradient>
  </defs>
</svg>